<svg xmlns="http://www.w3.org/2000/svg" xmlns:xlink="http://www.w3.org/1999/xlink" viewBox="0 0 283.46 283.46"><defs><style>.cls-1{fill:none;}.cls-2{fill:#fff;}.cls-3{fill:#6f3ff4;}.cls-4{fill:#02e1ab;}.cls-5{fill:#b2ffec;}.cls-6{clip-path:url(#clip-path);}.cls-7{fill:#231f20;}.cls-8{stroke:#000;stroke-miterlimit:10;}</style><clipPath id="clip-path"><path class="cls-1" d="M139.75,54h0a85.59,85.59,0,0,1,85.59,85.59v55a0,0,0,0,1,0,0H54.16a0,0,0,0,1,0,0v-55A85.59,85.59,0,0,1,139.75,54Z"/></clipPath></defs><g id="profile"><path class="cls-2" d="M116.06,216a10.15,10.15,0,0,1-9.81-7.1,9.29,9.29,0,0,1-.37-2.66A3.16,3.16,0,0,0,105,204a3.35,3.35,0,0,0-2.35-1H52.94a6.79,6.79,0,0,1-6.78-6.78V140.77C46.16,89,87.73,46.48,138.82,46h.93a93.7,93.7,0,0,1,93.59,93.59v56.68a6.79,6.79,0,0,1-6.78,6.78h-2.4a3.31,3.31,0,0,0-2.34,1,3.13,3.13,0,0,0-.93,2.24,9.29,9.29,0,0,1-.37,2.66,10.14,10.14,0,0,1-9.8,7.1Z"/><path d="M139.75,46.48a93.2,93.2,0,0,1,93.09,93.09v56.68a6.29,6.29,0,0,1-6.28,6.28h-2.4a3.84,3.84,0,0,0-2.7,1.12,3.68,3.68,0,0,0-1.07,2.6,8.64,8.64,0,0,1-.35,2.51,9.64,9.64,0,0,1-9.32,6.74H116.06a9.64,9.64,0,0,1-9.33-6.74,8.64,8.64,0,0,1-.35-2.51,3.6,3.6,0,0,0-1.07-2.6,3.84,3.84,0,0,0-2.7-1.12H52.94a6.28,6.28,0,0,1-6.28-6.28V140.77A94.4,94.4,0,0,1,73.53,74.59a91.81,91.81,0,0,1,65.3-28.1h.92m0-1h-.93C87,46,45.66,89,45.66,140.77v55.48a7.28,7.28,0,0,0,7.28,7.28h49.67a2.74,2.74,0,0,1,2.77,2.71,9.9,9.9,0,0,0,.39,2.8,10.64,10.64,0,0,0,10.29,7.46h94.66A10.63,10.63,0,0,0,221,209a9.55,9.55,0,0,0,.39-2.8,2.74,2.74,0,0,1,2.77-2.71h2.4a7.28,7.28,0,0,0,7.28-7.28V139.57a94.21,94.21,0,0,0-94.09-94.09Z"/><path class="cls-3" d="M127.17,209.31a3.52,3.52,0,0,1-.8-.4.12.12,0,0,1-.06-.09.21.21,0,0,1,0-.11l.29-.52a.17.17,0,0,1,.16-.09l.12,0a2.19,2.19,0,0,0,1.15.39,1,1,0,0,0,.69-.22.65.65,0,0,0,.25-.54.6.6,0,0,0-.12-.38,1,1,0,0,0-.33-.26c-.14-.07-.34-.16-.6-.26l-.24-.1a3,3,0,0,1-.94-.61,1.44,1.44,0,0,1-.39-1.09,1.76,1.76,0,0,1,.23-.89,1.52,1.52,0,0,1,.63-.6,2,2,0,0,1,.93-.22,2.65,2.65,0,0,1,.87.15,2.62,2.62,0,0,1,.78.4.1.1,0,0,1,.06.08.16.16,0,0,1,0,.12l-.27.52a.17.17,0,0,1-.16.09l-.12,0a2.91,2.91,0,0,0-.62-.3,1.78,1.78,0,0,0-.52-.09.82.82,0,0,0-.59.21.71.71,0,0,0,0,1,2.7,2.7,0,0,0,.75.43,6,6,0,0,1,.56.23,1.73,1.73,0,0,1,.78.59,1.42,1.42,0,0,1,.29.91,1.74,1.74,0,0,1-.24.91,1.63,1.63,0,0,1-.68.62,2.18,2.18,0,0,1-1,.22A2.7,2.7,0,0,1,127.17,209.31Z"/><path class="cls-3" d="M132,209.17a2.27,2.27,0,0,1-.78-.79,2.16,2.16,0,0,1-.28-1.09v-1.76a2.13,2.13,0,0,1,.28-1.09,2.27,2.27,0,0,1,.78-.79,2,2,0,0,1,1.07-.3,2.43,2.43,0,0,1,.94.19,1.89,1.89,0,0,1,.74.54.19.19,0,0,1,0,.14.25.25,0,0,1-.06.16l-.37.38a.16.16,0,0,1-.13.07.26.26,0,0,1-.15-.07,1.27,1.27,0,0,0-1-.44,1.07,1.07,0,0,0-.57.16,1.19,1.19,0,0,0-.41.45,1.17,1.17,0,0,0-.16.6v1.76a1.17,1.17,0,0,0,.16.6,1.16,1.16,0,0,0,.41.44,1,1,0,0,0,.57.17,1.3,1.3,0,0,0,1-.44.19.19,0,0,1,.14-.07.2.2,0,0,1,.14.06l.37.38a.22.22,0,0,1,0,.3,2.15,2.15,0,0,1-.75.55,2.42,2.42,0,0,1-.94.18A2,2,0,0,1,132,209.17Z"/><path class="cls-3" d="M135.94,209.31a.15.15,0,0,1-.05-.13v-5.55a.15.15,0,0,1,.05-.12.17.17,0,0,1,.12,0h.66a.17.17,0,0,1,.12,0,.15.15,0,0,1,0,.12v2.23h2.44v-2.23a.18.18,0,0,1,0-.12.21.21,0,0,1,.13,0h.66a.17.17,0,0,1,.12,0,.18.18,0,0,1,.05.12v5.55a.19.19,0,0,1-.05.13.17.17,0,0,1-.12.05h-.66a.21.21,0,0,1-.13-.05.19.19,0,0,1,0-.13v-2.37h-2.44v2.37a.15.15,0,0,1,0,.13.17.17,0,0,1-.12.05h-.66A.17.17,0,0,1,135.94,209.31Z"/><path class="cls-3" d="M141.75,209.25a.32.32,0,0,1-.1-.25v-5.18a.35.35,0,0,1,.1-.26.39.39,0,0,1,.25-.1h2.82a.17.17,0,0,1,.12,0,.18.18,0,0,1,.05.12v.62a.21.21,0,0,1-.05.13.17.17,0,0,1-.12.05h-2.16v1.4h1.6a.17.17,0,0,1,.18.17v.59a.17.17,0,0,1-.05.12.21.21,0,0,1-.13,0h-1.6v1.63h2.16a.17.17,0,0,1,.12.05.18.18,0,0,1,.05.12v.62a.19.19,0,0,1-.05.13.17.17,0,0,1-.12.05H142A.36.36,0,0,1,141.75,209.25Z"/><path class="cls-3" d="M146.23,209.25a.32.32,0,0,1-.1-.25v-5.37a.15.15,0,0,1,.05-.12.17.17,0,0,1,.12,0H147a.17.17,0,0,1,.12,0,.15.15,0,0,1,0,.12v4.76h1.92a.17.17,0,0,1,.12.05.18.18,0,0,1,.05.12v.62a.19.19,0,0,1-.05.13.17.17,0,0,1-.12.05h-2.57A.34.34,0,0,1,146.23,209.25Z"/><path class="cls-3" d="M150.23,209.25a.32.32,0,0,1-.1-.25v-5.37a.15.15,0,0,1,.05-.12.17.17,0,0,1,.12,0H151a.17.17,0,0,1,.12,0,.15.15,0,0,1,0,.12v4.76H153a.19.19,0,0,1,.13.05.18.18,0,0,1,.05.12v.62a.17.17,0,0,1-.18.18h-2.56A.34.34,0,0,1,150.23,209.25Z"/><path class="cls-3" d="M154,209.31a.19.19,0,0,1-.05-.13v-.56a.17.17,0,0,1,.05-.13.18.18,0,0,1,.12-.05h.71v-4.06h-.71a.18.18,0,0,1-.12,0,.21.21,0,0,1-.05-.13v-.57a.17.17,0,0,1,.17-.17h2.41a.21.21,0,0,1,.13,0,.18.18,0,0,1,.05.12v.57a.17.17,0,0,1-.18.18h-.7v4.06h.7a.21.21,0,0,1,.13.05.17.17,0,0,1,.05.13v.56a.19.19,0,0,1-.05.13.21.21,0,0,1-.13.05h-2.41A.18.18,0,0,1,154,209.31Z"/><path class="cls-3" d="M157.89,209.31a.15.15,0,0,1,0-.13V203.7a.22.22,0,0,1,.07-.17.2.2,0,0,1,.16-.07h.68a.24.24,0,0,1,.22.13l2,3.34.4.69v-4a.15.15,0,0,1,.05-.12.17.17,0,0,1,.12,0h.6a.17.17,0,0,1,.17.17v5.49a.28.28,0,0,1-.07.17.26.26,0,0,1-.17.07h-.69a.25.25,0,0,1-.22-.13l-2-3.46-.32-.56v4a.17.17,0,0,1-.05.13.21.21,0,0,1-.13.05H158A.17.17,0,0,1,157.89,209.31Z"/><path class="cls-3" d="M164.58,209.17a2.22,2.22,0,0,1-.79-.79,2.17,2.17,0,0,1-.29-1.09v-1.76a2.14,2.14,0,0,1,.29-1.09,2.22,2.22,0,0,1,.79-.79,2.12,2.12,0,0,1,1.1-.3,2.57,2.57,0,0,1,1,.19,2,2,0,0,1,.76.54.24.24,0,0,1,0,.14.21.21,0,0,1-.07.16l-.36.38a.17.17,0,0,1-.13.07.21.21,0,0,1-.15-.07,1.35,1.35,0,0,0-1.05-.44,1.11,1.11,0,0,0-.59.16,1.25,1.25,0,0,0-.59,1.05v1.76a1.17,1.17,0,0,0,.16.6,1.14,1.14,0,0,0,.43.44,1,1,0,0,0,.59.17,1.18,1.18,0,0,0,1-.59,1.18,1.18,0,0,0,.16-.59v-.4h-1.11a.17.17,0,0,1-.17-.18v-.59a.17.17,0,0,1,.17-.17h1.74a.33.33,0,0,1,.25.1.34.34,0,0,1,.11.25v1a2.08,2.08,0,0,1-.3,1.09,2.14,2.14,0,0,1-.79.79,2,2,0,0,1-1.08.29A2.11,2.11,0,0,1,164.58,209.17Z"/><path class="cls-3" d="M171,209.31a.18.18,0,0,1,0-.13v-5.36a.35.35,0,0,1,.1-.26.37.37,0,0,1,.25-.1h1.47a1.95,1.95,0,0,1,1.66.95,1.87,1.87,0,0,1,0,1.9,1.88,1.88,0,0,1-.7.7,1.91,1.91,0,0,1-1,.25H172v1.92a.19.19,0,0,1-.05.13.17.17,0,0,1-.12.05h-.66A.21.21,0,0,1,171,209.31Zm1.74-3a1,1,0,0,0,.95-.95.91.91,0,0,0-.28-.67.89.89,0,0,0-.67-.28H172v1.9Z"/><path class="cls-3" d="M176.78,209.17a2.14,2.14,0,0,1-.79-.79,2.08,2.08,0,0,1-.3-1.09v-1.76a2.05,2.05,0,0,1,.3-1.09,2.14,2.14,0,0,1,.79-.79,2.17,2.17,0,0,1,2.2,0,2.14,2.14,0,0,1,.79.79,2,2,0,0,1,.29,1.09v1.76a2.07,2.07,0,0,1-.29,1.09,2.14,2.14,0,0,1-.79.79,2.23,2.23,0,0,1-2.2,0Zm1.69-.84a1.21,1.21,0,0,0,.43-.44,1.17,1.17,0,0,0,.16-.6v-1.76a1.17,1.17,0,0,0-.16-.6,1.24,1.24,0,0,0-.43-.45,1.17,1.17,0,0,0-1.18,0,1.24,1.24,0,0,0-.43.45,1.17,1.17,0,0,0-.16.6v1.76a1.17,1.17,0,0,0,.16.6,1.21,1.21,0,0,0,.43.44,1.11,1.11,0,0,0,1.18,0Z"/><path class="cls-3" d="M180.9,209.31a.15.15,0,0,1-.05-.13v-.56a.14.14,0,0,1,.05-.13.17.17,0,0,1,.12-.05h.7v-4.06H181a.17.17,0,0,1-.17-.18v-.57a.15.15,0,0,1,.05-.12.17.17,0,0,1,.12,0h2.41a.17.17,0,0,1,.12,0,.15.15,0,0,1,0,.12v.57a.17.17,0,0,1-.17.18h-.7v4.06h.7a.17.17,0,0,1,.12.05.14.14,0,0,1,0,.13v.56a.15.15,0,0,1,0,.13.17.17,0,0,1-.12.05H181A.17.17,0,0,1,180.9,209.31Z"/><path class="cls-3" d="M184.78,209.31a.19.19,0,0,1-.05-.13V203.7a.26.26,0,0,1,.07-.17.23.23,0,0,1,.17-.07h.68a.25.25,0,0,1,.22.13l2,3.34.39.69v-4a.18.18,0,0,1,0-.12.21.21,0,0,1,.13,0H189a.21.21,0,0,1,.13,0,.17.17,0,0,1,0,.12v5.49a.24.24,0,0,1-.23.24h-.69a.24.24,0,0,1-.22-.13l-2-3.46-.32-.56v4a.14.14,0,0,1,0,.13.17.17,0,0,1-.12.05h-.59A.19.19,0,0,1,184.78,209.31Z"/><path class="cls-3" d="M191.79,209.31a.19.19,0,0,1,0-.13v-4.75h-1.38a.19.19,0,0,1-.13-.05.21.21,0,0,1,0-.13v-.62a.18.18,0,0,1,0-.12.19.19,0,0,1,.13,0h3.77a.21.21,0,0,1,.13,0,.18.18,0,0,1,.05.12v.62a.17.17,0,0,1-.18.18h-1.38v4.75a.19.19,0,0,1-.05.13.21.21,0,0,1-.13.05h-.66A.17.17,0,0,1,191.79,209.31Z"/><path class="cls-3" d="M197.2,209.25a.31.31,0,0,1-.1-.24v-.66a2.63,2.63,0,0,1,.17-1,1.73,1.73,0,0,1,.54-.64c.24-.18.65-.44,1.22-.78a1.16,1.16,0,0,0,.43-.38.86.86,0,0,0,.14-.47.72.72,0,0,0-.23-.55.89.89,0,0,0-.63-.21,2.05,2.05,0,0,0-1,.32l-.11,0a.15.15,0,0,1-.14-.09l-.28-.49a.29.29,0,0,1,0-.09.16.16,0,0,1,.07-.14,2.86,2.86,0,0,1,.75-.34,2.74,2.74,0,0,1,.85-.13,1.78,1.78,0,0,1,1.29.45,1.61,1.61,0,0,1,.47,1.22,1.65,1.65,0,0,1-.28,1,3.53,3.53,0,0,1-.93.81l-.33.19a6.24,6.24,0,0,0-.54.36,1.15,1.15,0,0,0-.31.35.81.81,0,0,0-.13.47v.24h2.15a.17.17,0,0,1,.17.17v.61a.19.19,0,0,1,0,.13.17.17,0,0,1-.12.05h-2.76A.36.36,0,0,1,197.2,209.25Z"/><path class="cls-3" d="M202,208.69a4.1,4.1,0,0,1-.53-2.29,4,4,0,0,1,.53-2.27,1.94,1.94,0,0,1,3.11,0,5.26,5.26,0,0,1,0,4.56,1.74,1.74,0,0,1-1.55.77A1.77,1.77,0,0,1,202,208.69Zm2.17-.38a1.31,1.31,0,0,0,.33-.68,6.88,6.88,0,0,0,0-2.45,1.28,1.28,0,0,0-.33-.67.9.9,0,0,0-.62-.21.83.83,0,0,0-.61.22,1.25,1.25,0,0,0-.34.68,5.78,5.78,0,0,0-.11,1.24,3.87,3.87,0,0,0,.25,1.6.86.86,0,0,0,.82.48A.89.89,0,0,0,204.17,208.31Z"/><path class="cls-3" d="M206.62,209.25a.31.31,0,0,1-.1-.24v-.66a2.46,2.46,0,0,1,.17-1,1.64,1.64,0,0,1,.54-.64,13.93,13.93,0,0,1,1.22-.78,1.25,1.25,0,0,0,.43-.38.86.86,0,0,0,.14-.47.72.72,0,0,0-.23-.55.89.89,0,0,0-.63-.21,2,2,0,0,0-1,.32l-.11,0a.16.16,0,0,1-.15-.09l-.27-.49a.16.16,0,0,1,0-.09.17.17,0,0,1,.08-.14,2.86,2.86,0,0,1,.75-.34,2.7,2.7,0,0,1,.85-.13,1.78,1.78,0,0,1,1.29.45A1.61,1.61,0,0,1,210,205a1.58,1.58,0,0,1-.28,1,3.31,3.31,0,0,1-.92.81l-.33.19a4.14,4.14,0,0,0-.54.36,1.34,1.34,0,0,0-.32.35.89.89,0,0,0-.12.47v.24h2.14a.21.21,0,0,1,.13,0,.17.17,0,0,1,.05.12v.61a.19.19,0,0,1-.05.13.21.21,0,0,1-.13.05h-2.76A.34.34,0,0,1,206.62,209.25Z"/><path class="cls-3" d="M210.92,209.25a.32.32,0,0,1-.11-.24v-.66a2.44,2.44,0,0,1,.18-1,1.62,1.62,0,0,1,.53-.64c.24-.18.65-.44,1.22-.78a1.29,1.29,0,0,0,.44-.38.85.85,0,0,0,.13-.47.68.68,0,0,0-.23-.55.89.89,0,0,0-.63-.21,2.05,2.05,0,0,0-1,.32l-.1,0a.16.16,0,0,1-.15-.09l-.27-.49a.16.16,0,0,1,0-.09.19.19,0,0,1,.07-.14,2.86,2.86,0,0,1,.75-.34,2.74,2.74,0,0,1,.85-.13,1.78,1.78,0,0,1,1.29.45A1.8,1.8,0,0,1,214,206a3.47,3.47,0,0,1-.92.81l-.33.19a5.29,5.29,0,0,0-.55.36,1.3,1.3,0,0,0-.31.35.89.89,0,0,0-.12.47v.24h2.14a.17.17,0,0,1,.12,0,.13.13,0,0,1,0,.12v.61a.15.15,0,0,1,0,.13.17.17,0,0,1-.12.05h-2.76A.33.33,0,0,1,210.92,209.25Z"/><path class="cls-3" d="M113.41,200.21l.81-.11q0,.19.06.36l.12.92.12.91a.33.33,0,0,0,.16.28,5.93,5.93,0,0,1,.56.43l.13.09a11,11,0,0,0-.17-1.54c-.08-.51-.13-1-.2-1.55l.81-.11.53,4,.83.64,0,0,0-.28a1.85,1.85,0,0,0,0-.23s0,0,0-.07a8.22,8.22,0,0,1-.17-1.09l-.15-1.1-.09-.73c0-.19-.06-.38-.08-.58s0-.33-.07-.5a.34.34,0,0,1,0-.09l.78-.11.21,1.55c.33-.41.62-.82,1-1.23l.62.47a.24.24,0,0,1,0,.1c-.35.47-.71.93-1.07,1.4l-.23.31a.28.28,0,0,0-.06.22c0,.27.08.55.12.82a.56.56,0,0,0,0,.15l1.91-2.5.63.48-.15.23c-.26.34-.52.67-.77,1l-.73.94-.7.93a.22.22,0,0,0,0,.13c0,.33.09.65.13,1,.13,0,.17-.16.24-.24s.23-.31.35-.46l.46-.6c.24-.33.49-.65.74-1l.75-1,.31-.4.06-.05.62.48c-.28.41-.61.79-.91,1.22a6.1,6.1,0,0,0,.76-.08l.75-.11c0,.27.09.53.12.8l-.41.07-.9.12-.92.11a.22.22,0,0,0-.17.09l-.58.75a.1.1,0,0,1,0,.06c.53,0,1-.13,1.56-.19l1.55-.21.1.8L122,206l-.71.08-.75.11-.85.11-.89.12a.23.23,0,0,0-.19.1l-.54.7,0,.1,4.68-.62c0,.16,0,.3.07.44s0,.22,0,.35c-.51.1-1,.12-1.5.22v0l1.2.92-.48.63-.21-.14-.76-.58-.77-.6a.32.32,0,0,0-.31-.09c-.28,0-.57.07-.85.11l-.08,0c.41.35.83.65,1.24,1l1.25,1-.49.64-.38-.29-.84-.64-1.12-.87-.74-.56a.22.22,0,0,0-.19,0l-.51.07-.44.06,0,.06,1.11.86.9.69,1,.76.7.54-.48.63c-.42-.3-.81-.62-1.25-.93l.21,1.53c-.27.05-.53.08-.81.11l-.06-.41c0-.3-.07-.6-.11-.9s-.09-.64-.13-1a.14.14,0,0,0,0-.1l-.81-.63,0,0,.41,3.07a3.24,3.24,0,0,1-.81.12l-.06-.41-.09-.7-.09-.74c0-.35-.1-.71-.14-1.06s-.07-.53-.1-.79a.45.45,0,0,0-.2-.36c-.21-.14-.41-.3-.61-.46l-.09-.09a1.06,1.06,0,0,0,0,.4c0,.25.06.49.1.74l.09.68c0,.18,0,.36.06.53s0,.16,0,.23l.12,1c.05.34.1.68.14,1,0,.05,0,.09,0,.15l-.78.1c-.1-.49-.12-1-.22-1.52-.18.21-.32.41-.48.61l-.46.61-.65-.49c.06-.07.1-.13.15-.2l.74-1c.15-.21.31-.41.47-.61a.3.3,0,0,0,.07-.24c0-.27-.07-.55-.11-.82l0-.13c-.35.41-.64.83-1,1.23s-.61.81-.93,1.24a6.42,6.42,0,0,1-.65-.48l.16-.23,1.08-1.42.93-1.2c.06-.08.11-.16.17-.23a.22.22,0,0,0,0-.19c0-.31-.09-.63-.13-1a1.06,1.06,0,0,0-.25.27c-.26.34-.5.67-.76,1l-.93,1.22-.71.94c-.07.1-.16.2-.25.32l-.64-.49c.29-.41.6-.79.88-1.2-.5,0-1,.12-1.48.16l-.11-.81.09,0,.85-.11.76-.1.61-.08.07-.05.55-.71,0-.09a1.33,1.33,0,0,0-.2,0l-1.18.15-1.06.15-.57.08H110a4.17,4.17,0,0,1-.09-.8l.34-.05.87-.12.71-.09c.45-.06.89-.13,1.34-.18l.5-.06a.31.31,0,0,0,.23-.12c.17-.24.36-.48.54-.72v0h-.11l-.71.09-1,.14-1.09.15-.72.09-.89.12h-.1l-.11-.8,1.52-.2a6,6,0,0,0-.6-.48l-.61-.48.5-.64.53.4,1.19.9,0,.05a.3.3,0,0,0,.27.08l.84-.12.06,0a.31.31,0,0,0-.07-.09l-.81-.62c-.24-.18-.46-.36-.7-.53l-.69-.53-.18-.15.47-.63.11.05,1.2.92.87.67.9.69a.28.28,0,0,0,.22.06l1-.13c-.12-.1-.22-.19-.32-.26l-1-.78-1.33-1-1-.78c-.07-.05-.08-.07,0-.15l.43-.57,1.2.91h0Zm1.49,5.07c0,.19,0,.36.08.52a.37.37,0,0,1-.08.32.88.88,0,0,0-.12.15c-.06.09-.17.16-.18.28a5.32,5.32,0,0,0,.47.36.19.19,0,0,1,.08.15l0,.28.06.32c.17,0,.33,0,.48-.07a.4.4,0,0,1,.38.1l.38.29.37-.47a.16.16,0,0,1,.15-.09l.42-.06.18,0c0-.19,0-.37-.08-.55a.26.26,0,0,1,0-.21c.11-.12.2-.26.3-.39l.06-.1c-.13-.1-.24-.2-.36-.28a.41.41,0,0,1-.22-.36s0-.07,0-.1l-.06-.37-.35,0c-.33.06-.33.06-.55-.1l-.06-.05-.3-.23s0,0,0,.07-.19.25-.29.38a.24.24,0,0,1-.2.13l-.18,0Z"/><path class="cls-4" d="M116.41,207.38a1.52,1.52,0,0,1-.23-.16.33.33,0,0,0-.34-.08l-.23,0a1,1,0,0,1,0-.15.64.64,0,0,1,0-.2.2.2,0,0,0-.1-.16,2.39,2.39,0,0,1-.26-.21l.22-.3a.22.22,0,0,0,0-.18,2.69,2.69,0,0,1,0-.32l.45-.07.26-.35a1.91,1.91,0,0,1,.21.15.33.33,0,0,0,.35.09l.25,0a1.28,1.28,0,0,1,0,.17.48.48,0,0,0,.25.44.91.91,0,0,1,.13.1,1.21,1.21,0,0,1-.15.22.32.32,0,0,0-.07.35,1.4,1.4,0,0,1,0,.23,1.18,1.18,0,0,1-.25,0,.31.31,0,0,0-.28.14A1.66,1.66,0,0,1,116.41,207.38Z"/></g><g id="background"><path class="cls-5" d="M139.75,54h0a85.59,85.59,0,0,1,85.59,85.59v55a0,0,0,0,1,0,0H54.16a0,0,0,0,1,0,0v-55A85.59,85.59,0,0,1,139.75,54Z"/><g class="cls-6"><path class="cls-4" d="M79.87,187.94,73.31,212l4.32,1.18,6.71-24.61a2.36,2.36,0,0,0,0-1.09L77.7,158.65V122a3.36,3.36,0,0,1,6.72,0v25.72a2.24,2.24,0,1,0,4.47,0V113a3.36,3.36,0,1,1,6.71,0v34.67a2.24,2.24,0,1,0,4.48,0V106.32a3.36,3.36,0,0,1,6.71,0v41.39a2.24,2.24,0,1,0,4.47,0V113a3.36,3.36,0,1,1,6.71,0v43.62a2.24,2.24,0,0,0,4.48,0V139.88a3.36,3.36,0,0,1,6.71,0v25.2l-11,21.9a2.18,2.18,0,0,0-.2,1.4L122.48,213l4.4-.8-4.33-23.87,10.85-21.71a2.29,2.29,0,0,0,.23-1V139.88a7.82,7.82,0,0,0-11.18-7.07V113a7.84,7.84,0,0,0-7.83-7.83,7.75,7.75,0,0,0-3.37.76,7.83,7.83,0,0,0-15.64,0,7.74,7.74,0,0,0-3.36-.76A7.84,7.84,0,0,0,84.42,113v1.87A7.84,7.84,0,0,0,73.23,122V158.9a2.07,2.07,0,0,0,.06.5Z"/><path class="cls-4" d="M199.63,114.16a7.8,7.8,0,0,0-3.35.75V113a7.84,7.84,0,0,0-7.83-7.83,7.75,7.75,0,0,0-3.37.76,7.83,7.83,0,0,0-15.64,0,7.75,7.75,0,0,0-3.37-.76,7.84,7.84,0,0,0-7.83,7.83v19.77a7.82,7.82,0,0,0-11.18,7.07v25.73a2.29,2.29,0,0,0,.23,1l10.86,21.7-4.34,23.88,4.4.8,4.47-24.61a2.18,2.18,0,0,0-.2-1.4l-10.95-21.9v-25.2a3.36,3.36,0,0,1,6.71,0v16.78a2.24,2.24,0,0,0,4.48,0V113a3.36,3.36,0,1,1,6.71,0v34.67a2.24,2.24,0,1,0,4.47,0V106.32a3.36,3.36,0,0,1,6.72,0v41.39a2.24,2.24,0,1,0,4.47,0V113a3.36,3.36,0,1,1,6.71,0v34.67a2.24,2.24,0,1,0,4.48,0V122a3.36,3.36,0,1,1,6.71,0v36.66l-6.66,28.83a2.36,2.36,0,0,0,0,1.09l6.72,24.61,4.31-1.18-6.56-24.06,6.58-28.54a2.07,2.07,0,0,0,.06-.5V122a7.84,7.84,0,0,0-7.83-7.83Z"/><path class="cls-4" d="M138.11,78.36h4.47V94h-4.47Z"/><path class="cls-4" d="M109.79,84.53,113,81.37,124,92.44l-3.16,3.16Z"/><path class="cls-4" d="M156.77,92.44l11.08-11.07L171,84.53,159.94,95.6Z"/></g></g><g id="words"><g class="cls-6"><path class="cls-7" d="M64.7,108.13a.89.89,0,0,1-.26-.65v-3a.89.89,0,0,1,.26-.65.87.87,0,0,1,.65-.26h3.7V82.13h-3.7a.91.91,0,0,1-.65-.26.89.89,0,0,1-.26-.65v-3a.89.89,0,0,1,.91-.92h12.7a.91.91,0,0,1,.92.92v3a.86.86,0,0,1-.27.65.89.89,0,0,1-.65.26H74.36v21.44h3.69a.9.9,0,0,1,.92.91v3a.9.9,0,0,1-.92.91H65.35A.87.87,0,0,1,64.7,108.13Z"/><path class="cls-7" d="M91.75,108.13a.89.89,0,0,1-.26-.65V82.39H84.18a.91.91,0,0,1-.65-.26.89.89,0,0,1-.26-.65V78.22a.89.89,0,0,1,.91-.92H104.1a.89.89,0,0,1,.65.26.91.91,0,0,1,.26.66v3.26a.89.89,0,0,1-.91.91H96.79v25.09a.89.89,0,0,1-.91.91H92.4A.85.85,0,0,1,91.75,108.13Z"/><path class="cls-7" d="M109.06,88.7a.86.86,0,0,1-.14-.79l2.48-9.78a.89.89,0,0,1,.37-.59,1.2,1.2,0,0,1,.72-.24h4.3a1,1,0,0,1,.7.26.91.91,0,0,1,.26.66,1.14,1.14,0,0,1-.13.52l-5,10.3h-2.79A.86.86,0,0,1,109.06,88.7Z"/><path class="cls-7" d="M126.6,108.15a16.94,16.94,0,0,1-4.24-2.1.68.68,0,0,1-.3-.46.79.79,0,0,1,0-.59l1.52-2.74a.87.87,0,0,1,.83-.52,1.34,1.34,0,0,1,.65.17,11.54,11.54,0,0,0,6.09,2,5.5,5.5,0,0,0,3.63-1.11,3.59,3.59,0,0,0,1.32-2.89,3,3,0,0,0-.65-2,5.3,5.3,0,0,0-1.74-1.37,34.48,34.48,0,0,0-3.17-1.39l-1.26-.52a16.33,16.33,0,0,1-5-3.22,7.63,7.63,0,0,1-2-5.74,9.12,9.12,0,0,1,1.19-4.7,8.27,8.27,0,0,1,3.33-3.17,10.37,10.37,0,0,1,4.91-1.13,14.34,14.34,0,0,1,4.59.76,14.79,14.79,0,0,1,4.11,2.11.69.69,0,0,1,.3.45.79.79,0,0,1,0,.59l-1.43,2.74a.87.87,0,0,1-.83.52,1.34,1.34,0,0,1-.65-.17,13.3,13.3,0,0,0-3.24-1.57,9.38,9.38,0,0,0-2.76-.47,4.31,4.31,0,0,0-3.09,1.06,3.81,3.81,0,0,0,.11,5.52,14.08,14.08,0,0,0,4,2.24q.39.14,3,1.2a9.39,9.39,0,0,1,4.11,3.11,7.81,7.81,0,0,1,1.53,4.82,9,9,0,0,1-1.29,4.81,8.74,8.74,0,0,1-3.58,3.28,11.59,11.59,0,0,1-5.31,1.17A14.49,14.49,0,0,1,126.6,108.15Z"/><path class="cls-7" d="M155,108.11a1,1,0,0,1-.3-.72,1.16,1.16,0,0,1,0-.35l9.44-29a1.2,1.2,0,0,1,.5-.69,1.38,1.38,0,0,1,.84-.27h3.4a1.38,1.38,0,0,1,.84.27,1.2,1.2,0,0,1,.5.69l9.44,29a1.16,1.16,0,0,1,0,.35,1,1,0,0,1-.3.72,1,1,0,0,1-.74.28h-3.13a1.36,1.36,0,0,1-.85-.28,1.39,1.39,0,0,1-.5-.72l-2-6.26H162.09l-2,6.26a1.4,1.4,0,0,1-1.35,1h-3A1,1,0,0,1,155,108.11Zm15.74-11.89-3.56-11.61-3.57,11.61Z"/><path class="cls-7" d="M185.24,107.85a1.82,1.82,0,0,1-.54-1.33V78.21a.91.91,0,0,1,.26-.65.89.89,0,0,1,.65-.26h3.48a.89.89,0,0,1,.65.26.87.87,0,0,1,.26.65V103.3h10.09a.91.91,0,0,1,.92.92v3.26a.89.89,0,0,1-.92.91H186.57A1.83,1.83,0,0,1,185.24,107.85Z"/><path class="cls-7" d="M206.33,107.85a1.82,1.82,0,0,1-.54-1.33V78.21a.91.91,0,0,1,.26-.65.89.89,0,0,1,.65-.26h3.48a.89.89,0,0,1,.65.26.87.87,0,0,1,.26.65V103.3h10.09a.9.9,0,0,1,.91.92v3.26a.89.89,0,0,1-.91.91H207.66A1.82,1.82,0,0,1,206.33,107.85Z"/><path class="cls-8" d="M57.91,152.15a13.48,13.48,0,0,1-4.82-4.9,13.21,13.21,0,0,1-1.79-6.77V129.61a13.18,13.18,0,0,1,1.79-6.77,13.4,13.4,0,0,1,4.82-4.9,12.69,12.69,0,0,1,6.62-1.82,14.89,14.89,0,0,1,5.82,1.15,12.34,12.34,0,0,1,4.59,3.35,1.27,1.27,0,0,1,.31.87,1.65,1.65,0,0,1-.41,1l-2.24,2.35a1.1,1.1,0,0,1-1.74-.06,8.11,8.11,0,0,0-6.28-2.7,6.41,6.41,0,0,0-3.5,1,7.62,7.62,0,0,0-2.58,2.76,7.5,7.5,0,0,0-1,3.73v10.87a7.5,7.5,0,0,0,1,3.73A7.62,7.62,0,0,0,61.08,147a6.41,6.41,0,0,0,3.5,1,8.09,8.09,0,0,0,6.28-2.71,1.18,1.18,0,0,1,.87-.46,1.26,1.26,0,0,1,.87.41l2.24,2.35a1.41,1.41,0,0,1,.46,1,1.36,1.36,0,0,1-.3.82,13.18,13.18,0,0,1-4.65,3.37A14.55,14.55,0,0,1,64.53,154,12.69,12.69,0,0,1,57.91,152.15Z"/><path class="cls-8" d="M87.2,152.15a13.47,13.47,0,0,1-4.93-4.9,13.13,13.13,0,0,1-1.81-6.77V129.61a13.1,13.1,0,0,1,1.81-6.77,13.57,13.57,0,0,1,23.44,0,13.11,13.11,0,0,1,1.82,6.77v10.87a13.14,13.14,0,0,1-1.82,6.77,13.44,13.44,0,0,1-4.92,4.9,13.59,13.59,0,0,1-13.59,0ZM97.62,147a7.55,7.55,0,0,0,2.68-2.76,7.42,7.42,0,0,0,1-3.73V129.61a7.42,7.42,0,0,0-1-3.73,7.55,7.55,0,0,0-2.68-2.76,7,7,0,0,0-7.25,0,7.47,7.47,0,0,0-2.68,2.76,7.32,7.32,0,0,0-1,3.73v10.87a7.32,7.32,0,0,0,1,3.73A7.47,7.47,0,0,0,90.37,147a7,7,0,0,0,7.25,0Z"/><path class="cls-8" d="M121.11,152.15a13.47,13.47,0,0,1-4.93-4.9,13.13,13.13,0,0,1-1.81-6.77V129.61a13.1,13.1,0,0,1,1.81-6.77,13.57,13.57,0,0,1,23.44,0,13.11,13.11,0,0,1,1.82,6.77v10.87a13.14,13.14,0,0,1-1.82,6.77,13.44,13.44,0,0,1-4.92,4.9,13.59,13.59,0,0,1-13.59,0ZM131.53,147a7.55,7.55,0,0,0,2.68-2.76,7.42,7.42,0,0,0,1-3.73V129.61a7.42,7.42,0,0,0-1-3.73,7.55,7.55,0,0,0-2.68-2.76,7,7,0,0,0-7.25,0,7.47,7.47,0,0,0-2.68,2.76,7.32,7.32,0,0,0-1,3.73v10.87a7.32,7.32,0,0,0,1,3.73,7.47,7.47,0,0,0,2.68,2.76,7,7,0,0,0,7.25,0Z"/><path class="cls-8" d="M148.94,153a1.06,1.06,0,0,1-.3-.77V119a2.17,2.17,0,0,1,2.19-2.19h9.55a11.32,11.32,0,0,1,5.72,1.48,11.2,11.2,0,0,1,4.14,4,10.91,10.91,0,0,1-.66,12.13,11.11,11.11,0,0,1-5.72,4l8.47,13.12a1.42,1.42,0,0,1,.21.72,1,1,0,0,1-.33.77,1.24,1.24,0,0,1-.85.3h-4.18a1.49,1.49,0,0,1-1.33-.71L157.37,139h-2.5v13.28a1,1,0,0,1-.31.77,1,1,0,0,1-.77.3h-4.08A1.06,1.06,0,0,1,148.94,153Zm11.14-19.92a5.31,5.31,0,0,0,3.85-1.46,4.9,4.9,0,0,0,1.51-3.7,5.06,5.06,0,0,0-1.51-3.78,5.25,5.25,0,0,0-3.85-1.48h-5.21v10.42Z"/><path class="cls-8" d="M179.56,152.66a2.08,2.08,0,0,1-.64-1.55V119a2.17,2.17,0,0,1,2.2-2.19h10a13.87,13.87,0,0,1,12.23,7,14.32,14.32,0,0,1,1.86,7.21v8a14.25,14.25,0,0,1-1.86,7.2,13.85,13.85,0,0,1-12.23,7.05h-10A2.09,2.09,0,0,1,179.56,152.66Zm11.31-5.33a7.88,7.88,0,0,0,4.06-1.1,8.23,8.23,0,0,0,3-3,8,8,0,0,0,1.1-4.11v-8.28a7.91,7.91,0,0,0-1.1-4.06,8.23,8.23,0,0,0-3-3,7.88,7.88,0,0,0-4.06-1.1h-5.72v24.57Z"/><path class="cls-8" d="M210.23,153a1,1,0,0,1-.31-.77V148.7a1,1,0,0,1,.31-.76,1,1,0,0,1,.76-.31h4.34V122.45H211a1,1,0,0,1-.76-.3,1,1,0,0,1-.31-.77v-3.52a1,1,0,0,1,1.07-1.07h14.92a1,1,0,0,1,1.07,1.07v3.52a1,1,0,0,1-.31.77,1,1,0,0,1-.76.3h-4.35v25.18h4.35a1,1,0,0,1,.76.31,1,1,0,0,1,.31.76v3.53a1,1,0,0,1-1.07,1.07H211A1,1,0,0,1,210.23,153Z"/><path class="cls-8" d="M53.66,196a1,1,0,0,1-.3-.75V161.84a1.45,1.45,0,0,1,1.45-1.45h4.12a1.56,1.56,0,0,1,1.35.75l12,20.36,2.4,4.22V161.44a1,1,0,0,1,.31-.75,1,1,0,0,1,.75-.3h3.61a1,1,0,0,1,1,1.05V194.8A1.45,1.45,0,0,1,79,196.25H74.82a1.55,1.55,0,0,1-1.35-.75L61,174.43l-2-3.41V195.2a1,1,0,0,1-.31.77,1,1,0,0,1-.75.28H54.41A1,1,0,0,1,53.66,196Z"/><path class="cls-8" d="M86.61,195.92a1.07,1.07,0,0,1-.35-.82,1.4,1.4,0,0,1,0-.4l10.88-33.46a1.51,1.51,0,0,1,.58-.8,1.65,1.65,0,0,1,1-.3h3.91a1.67,1.67,0,0,1,1,.3,1.49,1.49,0,0,1,.57.8L115.1,194.7a1.4,1.4,0,0,1,.05.4,1.07,1.07,0,0,1-.35.82,1.22,1.22,0,0,1-.86.33h-3.61a1.64,1.64,0,0,1-1.55-1.15l-2.26-7.23H94.79l-2.26,7.23A1.64,1.64,0,0,1,91,196.25H87.46A1.19,1.19,0,0,1,86.61,195.92Zm18.16-13.71-4.12-13.4-4.11,13.4Z"/><path class="cls-8" d="M125.23,196a1,1,0,0,1-.3-.75V166.26H116.5a1,1,0,0,1-.75-.3,1.06,1.06,0,0,1-.3-.76v-3.76a1,1,0,0,1,1-1.05h23a1,1,0,0,1,1.06,1.05v3.76a1.06,1.06,0,0,1-.3.76,1,1,0,0,1-.76.3h-8.42V195.2a1,1,0,0,1-1.05,1.05h-4A1,1,0,0,1,125.23,196Z"/><path class="cls-8" d="M145.74,196a1,1,0,0,1-.3-.75v-3.46a1,1,0,0,1,.3-.76,1,1,0,0,1,.76-.3h4.26V166H146.5a1,1,0,0,1-.76-.3,1.06,1.06,0,0,1-.3-.76v-3.46a1,1,0,0,1,.3-.75,1,1,0,0,1,.76-.3h14.64a1,1,0,0,1,1.05,1.05v3.46a1.06,1.06,0,0,1-.3.76,1,1,0,0,1-.75.3h-4.26v24.72h4.26a1,1,0,0,1,1.05,1.06v3.46a1,1,0,0,1-1.05,1.05H146.5A1,1,0,0,1,145.74,196Z"/><path class="cls-8" d="M173.83,195.12a13.29,13.29,0,0,1-4.84-4.81,12.89,12.89,0,0,1-1.78-6.65V173a12.89,12.89,0,0,1,1.78-6.65,13.21,13.21,0,0,1,4.84-4.81,13.39,13.39,0,0,1,13.34,0,13.14,13.14,0,0,1,4.84,4.81,12.89,12.89,0,0,1,1.78,6.65v10.68a12.89,12.89,0,0,1-1.78,6.65,13.21,13.21,0,0,1-4.84,4.81,13.39,13.39,0,0,1-13.34,0ZM184.06,190a7.46,7.46,0,0,0,2.64-2.71,7.24,7.24,0,0,0,1-3.66V173a7.21,7.21,0,0,0-1-3.66,7.46,7.46,0,0,0-2.64-2.71,6.78,6.78,0,0,0-7.12,0,7.43,7.43,0,0,0-2.63,2.71,7.22,7.22,0,0,0-1,3.66v10.68a7.25,7.25,0,0,0,1,3.66,7.43,7.43,0,0,0,2.63,2.71,6.84,6.84,0,0,0,7.12,0Z"/><path class="cls-8" d="M201.17,196a1,1,0,0,1-.31-.75V161.84a1.4,1.4,0,0,1,.43-1,1.38,1.38,0,0,1,1-.43h4.11a1.57,1.57,0,0,1,1.36.75l12,20.36,2.41,4.22V161.44a1,1,0,0,1,1.05-1.05h3.62a1,1,0,0,1,1,1.05V194.8a1.47,1.47,0,0,1-1.46,1.45h-4.16a1.54,1.54,0,0,1-1.35-.75l-12.44-21.07-2-3.41V195.2a1,1,0,0,1-.3.77,1,1,0,0,1-.75.28h-3.61A1,1,0,0,1,201.17,196Z"/></g></g></svg>