<svg xmlns="http://www.w3.org/2000/svg" xmlns:xlink="http://www.w3.org/1999/xlink" viewBox="0 0 283.46 283.46"><defs><style>.cls-1{fill:none;}.cls-2{fill:#fff;}.cls-3{fill:#6f3ff4;}.cls-4{fill:#02e1ab;}.cls-5{fill:#b2ffec;}.cls-6{clip-path:url(#clip-path);}.cls-7{stroke:#000;stroke-miterlimit:10;stroke-width:2px;}</style><clipPath id="clip-path"><polygon class="cls-1" points="225.31 231.7 58.12 231.7 58.12 101.26 141.73 56.03 225.31 101.26 225.31 231.7"/></clipPath></defs><g id="profile"><path class="cls-2" d="M56.67,239.71a6.56,6.56,0,0,1-6.55-6.56V100.39a6.53,6.53,0,0,1,3.43-5.76l85.06-46a6.56,6.56,0,0,1,6.24,0l85,46a6.53,6.53,0,0,1,3.43,5.76V107a4.1,4.1,0,0,0,4,4.14,9.09,9.09,0,0,1,2.2.28,10,10,0,0,1,7.39,9.8v94.84a10,10,0,0,1-7.39,9.8,9.43,9.43,0,0,1-1.81.27,4.58,4.58,0,0,0-4.35,4.56v2.45a6.56,6.56,0,0,1-6.55,6.56Z"/><path d="M141.73,48.33a6,6,0,0,1,2.88.73l85,46a6,6,0,0,1,3.17,5.32V107a4.6,4.6,0,0,0,4.46,4.64,8.25,8.25,0,0,1,2.08.27,9.45,9.45,0,0,1,7,9.31v94.84a9.47,9.47,0,0,1-7,9.32,9.29,9.29,0,0,1-1.72.26,5.07,5.07,0,0,0-4.82,5v2.45a6.06,6.06,0,0,1-6.05,6.06H56.67a6.06,6.06,0,0,1-6.05-6.06V100.39a6,6,0,0,1,3.17-5.32l85.06-46a6,6,0,0,1,2.88-.73m0-1a7,7,0,0,0-3.35.85l-85.07,46a7.05,7.05,0,0,0-3.69,6.2V233.15a7.05,7.05,0,0,0,7.05,7.06H226.76a7.05,7.05,0,0,0,7.05-7.06V230.7a4.08,4.08,0,0,1,3.87-4.06,9.9,9.9,0,0,0,1.91-.28,10.52,10.52,0,0,0,7.77-10.29V121.23A10.5,10.5,0,0,0,239.59,111a9.39,9.39,0,0,0-2.31-.3,3.61,3.61,0,0,1-3.47-3.64v-6.62a7,7,0,0,0-3.69-6.2l-85-46a7,7,0,0,0-3.36-.85Z"/><path class="cls-3" d="M240.18,204.86a3.4,3.4,0,0,1-.4.81.19.19,0,0,1-.09.05.14.14,0,0,1-.11,0l-.52-.28a.17.17,0,0,1-.1-.16.24.24,0,0,1,0-.12,2.22,2.22,0,0,0,.39-1.16,1.05,1.05,0,0,0-.21-.69.7.7,0,0,0-.55-.25.52.52,0,0,0-.37.13,1,1,0,0,0-.26.33q-.11.19-.27.6l-.1.24a3.11,3.11,0,0,1-.61.94,1.41,1.41,0,0,1-1.08.38,1.7,1.7,0,0,1-.89-.22,1.61,1.61,0,0,1-.61-.63,2,2,0,0,1-.21-.94,2.93,2.93,0,0,1,.14-.87,3.2,3.2,0,0,1,.4-.78.19.19,0,0,1,.09,0,.2.2,0,0,1,.11,0l.52.28a.15.15,0,0,1,.1.15.28.28,0,0,1,0,.13,2.45,2.45,0,0,0-.3.61,1.84,1.84,0,0,0-.09.53.83.83,0,0,0,.2.58.71.71,0,0,0,.52.22.68.68,0,0,0,.53-.24,2.77,2.77,0,0,0,.42-.75c0-.05.09-.24.23-.57a1.73,1.73,0,0,1,.59-.78,1.5,1.5,0,0,1,.91-.29,1.67,1.67,0,0,1,.92.25,1.7,1.7,0,0,1,.62.68,2.14,2.14,0,0,1,.22,1A2.94,2.94,0,0,1,240.18,204.86Z"/><path class="cls-3" d="M240,200a2.21,2.21,0,0,1-1.89,1.07H236.4a2.18,2.18,0,0,1-1.89-1.07,2.07,2.07,0,0,1-.29-1.07,2.41,2.41,0,0,1,.18-.93,2.15,2.15,0,0,1,.54-.75.24.24,0,0,1,.14,0,.31.31,0,0,1,.17.07l.38.36a.24.24,0,0,1,.07.13.19.19,0,0,1-.08.15,1.32,1.32,0,0,0-.44,1,1,1,0,0,0,.17.56,1.26,1.26,0,0,0,.44.42,1.29,1.29,0,0,0,.61.16h1.75a1.27,1.27,0,0,0,1-.58,1,1,0,0,0,.16-.56,1.32,1.32,0,0,0-.43-1,.19.19,0,0,1-.08-.14.23.23,0,0,1,.07-.14l.38-.36a.21.21,0,0,1,.16-.07.17.17,0,0,1,.13,0,2,2,0,0,1,.55.75,2.24,2.24,0,0,1,.19.93A2.07,2.07,0,0,1,240,200Z"/><path class="cls-3" d="M240.17,196.1a.17.17,0,0,1-.12.05H234.5a.17.17,0,0,1-.12-.05.13.13,0,0,1,0-.12v-.66a.17.17,0,0,1,.17-.18h2.23V192.7H234.5a.17.17,0,0,1-.17-.17v-.66a.17.17,0,0,1,.17-.17h5.55a.17.17,0,0,1,.17.17v.66a.17.17,0,0,1-.17.17h-2.38v2.44h2.38a.17.17,0,0,1,.17.18V196A.13.13,0,0,1,240.17,196.1Z"/><path class="cls-3" d="M240.12,190.28a.34.34,0,0,1-.25.11h-5.19a.34.34,0,0,1-.25-.11.33.33,0,0,1-.1-.25v-2.81a.17.17,0,0,1,.17-.17h.62a.13.13,0,0,1,.12,0,.17.17,0,0,1,0,.12v2.16h1.4v-1.61a.17.17,0,0,1,.05-.12.21.21,0,0,1,.13-.05h.58a.21.21,0,0,1,.13.05.16.16,0,0,1,0,.12v1.61h1.64v-2.16a.17.17,0,0,1,.17-.17h.62a.17.17,0,0,1,.17.17V190A.33.33,0,0,1,240.12,190.28Z"/><path class="cls-3" d="M240.12,185.81a.37.37,0,0,1-.25.1H234.5a.17.17,0,0,1-.12,0,.13.13,0,0,1,0-.12v-.66a.17.17,0,0,1,.17-.18h4.76V183a.17.17,0,0,1,.17-.17h.62a.17.17,0,0,1,.17.17v2.56A.35.35,0,0,1,240.12,185.81Z"/><path class="cls-3" d="M240.12,181.81a.33.33,0,0,1-.25.1H234.5a.17.17,0,0,1-.12,0,.13.13,0,0,1,0-.12v-.66a.17.17,0,0,1,.17-.18h4.76V179a.17.17,0,0,1,.17-.17h.62a.17.17,0,0,1,.17.17v2.57A.35.35,0,0,1,240.12,181.81Z"/><path class="cls-3" d="M240.17,178a.13.13,0,0,1-.12.05h-.57a.17.17,0,0,1-.17-.17v-.7h-4.07v.7a.17.17,0,0,1-.05.12.13.13,0,0,1-.12.05h-.57a.17.17,0,0,1-.17-.17V175.5a.13.13,0,0,1,0-.12.17.17,0,0,1,.12,0h.57a.17.17,0,0,1,.17.17v.7h4.07v-.7a.13.13,0,0,1,.05-.12.17.17,0,0,1,.12,0h.57a.17.17,0,0,1,.12,0,.13.13,0,0,1,.05.12v2.41A.13.13,0,0,1,240.17,178Z"/><path class="cls-3" d="M240.17,174.15a.17.17,0,0,1-.12,0h-5.48a.21.21,0,0,1-.17-.07.22.22,0,0,1-.07-.17v-.68a.26.26,0,0,1,.12-.22l3.35-2,.69-.39h-4a.17.17,0,0,1-.17-.18v-.59a.17.17,0,0,1,.17-.17H240a.22.22,0,0,1,.17.07.21.21,0,0,1,.07.17v.68a.25.25,0,0,1-.12.22l-3.47,2.05-.56.32h4a.19.19,0,0,1,.13.05.16.16,0,0,1,0,.12v.6A.13.13,0,0,1,240.17,174.15Z"/><path class="cls-3" d="M240,167.45a2.17,2.17,0,0,1-.8.79,2.05,2.05,0,0,1-1.09.3H236.4a2.12,2.12,0,0,1-1.1-.3,2.22,2.22,0,0,1-.79-.79,2.14,2.14,0,0,1-.29-1.09,2.58,2.58,0,0,1,.18-1,2.25,2.25,0,0,1,.54-.75.19.19,0,0,1,.14,0,.29.29,0,0,1,.17.06l.38.36a.23.23,0,0,1,.07.14.22.22,0,0,1-.08.15,1.37,1.37,0,0,0-.44,1,1.12,1.12,0,0,0,.17.59,1.29,1.29,0,0,0,.44.43,1.18,1.18,0,0,0,.61.16h1.75a1.12,1.12,0,0,0,.6-.16,1.24,1.24,0,0,0,.45-.43,1.11,1.11,0,0,0,.16-.59,1.23,1.23,0,0,0-.15-.59,1.15,1.15,0,0,0-.43-.42,1.12,1.12,0,0,0-.6-.16h-.4v1.1a.19.19,0,0,1-.05.13.17.17,0,0,1-.12.05H237a.17.17,0,0,1-.12-.05.19.19,0,0,1,0-.13v-1.73a.4.4,0,0,1,.1-.26.35.35,0,0,1,.26-.1h1a2.14,2.14,0,0,1,1.09.29,2.24,2.24,0,0,1,.8.79,2.2,2.2,0,0,1,.29,1.09A2.14,2.14,0,0,1,240,167.45Z"/><path class="cls-3" d="M240.17,161a.17.17,0,0,1-.12,0h-5.37a.33.33,0,0,1-.25-.1.35.35,0,0,1-.1-.25v-1.47a1.91,1.91,0,0,1,.94-1.66,1.88,1.88,0,0,1,1.91,0,1.95,1.95,0,0,1,.95,1.66V160h1.92a.17.17,0,0,1,.17.18v.66A.13.13,0,0,1,240.17,161Zm-3-1.73a.93.93,0,0,0-.28-.68,1,1,0,0,0-1.35,0,1,1,0,0,0-.28.68V160h1.91Z"/><path class="cls-3" d="M240,155.25a2.19,2.19,0,0,1-.8.8,2.14,2.14,0,0,1-1.09.29H236.4a2.2,2.2,0,0,1-1.1-.29,2.24,2.24,0,0,1-.79-.8,2.21,2.21,0,0,1,0-2.19,2.24,2.24,0,0,1,.79-.8,2.2,2.2,0,0,1,1.1-.29h1.75a2.14,2.14,0,0,1,1.09.29,2.18,2.18,0,0,1,1.09,1.9A2.17,2.17,0,0,1,240,155.25Zm-.84-1.68a1.24,1.24,0,0,0-.45-.43,1.12,1.12,0,0,0-.6-.16H236.4a1.18,1.18,0,0,0-.61.16,1.29,1.29,0,0,0-.44.43,1.09,1.09,0,0,0,0,1.17,1.21,1.21,0,0,0,.44.43,1.19,1.19,0,0,0,.61.17h1.75a1.13,1.13,0,0,0,.6-.17,1.16,1.16,0,0,0,.45-.43,1.15,1.15,0,0,0,0-1.17Z"/><path class="cls-3" d="M240.17,151.14a.17.17,0,0,1-.12.05h-.57a.17.17,0,0,1-.17-.18v-.7h-4.07v.7a.21.21,0,0,1-.05.13.17.17,0,0,1-.12.05h-.57a.17.17,0,0,1-.17-.18v-2.4a.17.17,0,0,1,.17-.18h.57a.17.17,0,0,1,.12,0,.21.21,0,0,1,.05.13v.7h4.07v-.7a.17.17,0,0,1,.17-.18h.57a.17.17,0,0,1,.17.18V151A.17.17,0,0,1,240.17,151.14Z"/><path class="cls-3" d="M240.17,147.25a.13.13,0,0,1-.12.05h-5.48a.24.24,0,0,1-.24-.24v-.67a.25.25,0,0,1,.12-.22l3.35-2,.69-.4h-4a.17.17,0,0,1-.12,0,.13.13,0,0,1,0-.12V143a.13.13,0,0,1,0-.12.17.17,0,0,1,.12-.05H240a.24.24,0,0,1,.24.24v.68a.27.27,0,0,1-.12.23l-3.47,2-.56.32h4a.19.19,0,0,1,.13,0,.2.2,0,0,1,0,.13v.59A.13.13,0,0,1,240.17,147.25Z"/><path class="cls-3" d="M240.17,140.25a.17.17,0,0,1-.12.05h-4.76v1.38a.17.17,0,0,1,0,.12.13.13,0,0,1-.12,0h-.62a.17.17,0,0,1-.17-.17V137.9a.13.13,0,0,1,0-.12.17.17,0,0,1,.12-.05h.62a.17.17,0,0,1,.17.17v1.39h4.76a.17.17,0,0,1,.12.05.13.13,0,0,1,.05.12v.66A.17.17,0,0,1,240.17,140.25Z"/><path class="cls-3" d="M240.12,134.83a.33.33,0,0,1-.24.1h-.66a2.43,2.43,0,0,1-1-.17,1.64,1.64,0,0,1-.65-.53c-.18-.25-.44-.65-.77-1.22a1.32,1.32,0,0,0-.39-.44.82.82,0,0,0-.46-.13.69.69,0,0,0-.55.22.9.9,0,0,0-.21.63,2.07,2.07,0,0,0,.31,1,.17.17,0,0,1,0,.1.16.16,0,0,1-.09.15l-.5.27a.13.13,0,0,1-.08,0,.16.16,0,0,1-.14-.08,2.53,2.53,0,0,1-.35-.74,3.08,3.08,0,0,1-.12-.86,1.82,1.82,0,0,1,.44-1.29,1.62,1.62,0,0,1,1.22-.46,1.58,1.58,0,0,1,1,.28,3.3,3.3,0,0,1,.81.92l.2.33a5.29,5.29,0,0,0,.36.55,1.26,1.26,0,0,0,.34.31.92.92,0,0,0,.48.12h.24v-2.14a.15.15,0,0,1,.17-.17h.61a.16.16,0,0,1,.12,0,.17.17,0,0,1,.05.13v2.76A.33.33,0,0,1,240.12,134.83Z"/><path class="cls-3" d="M239.55,130a4,4,0,0,1-2.28.53A4,4,0,0,1,235,130a1.95,1.95,0,0,1,0-3.1,5.19,5.19,0,0,1,4.57,0,1.95,1.95,0,0,1,0,3.11Zm-.38-2.17a1.28,1.28,0,0,0-.67-.34,6.93,6.93,0,0,0-2.46,0,1.29,1.29,0,0,0-.66.34,1,1,0,0,0,0,1.23,1.4,1.4,0,0,0,.68.34,5.94,5.94,0,0,0,1.24.1,3.87,3.87,0,0,0,1.6-.24.85.85,0,0,0,.49-.82A.83.83,0,0,0,239.17,127.87Z"/><path class="cls-3" d="M240.12,125.42a.37.37,0,0,1-.24.1h-.66a2.59,2.59,0,0,1-1-.17,1.76,1.76,0,0,1-.65-.54,13.6,13.6,0,0,1-.77-1.22,1.27,1.27,0,0,0-.39-.43.83.83,0,0,0-.46-.14.7.7,0,0,0-.55.23.89.89,0,0,0-.21.63,2,2,0,0,0,.31,1,.2.2,0,0,1,0,.11.15.15,0,0,1-.09.14l-.5.28-.08,0a.15.15,0,0,1-.14-.07,2.59,2.59,0,0,1-.35-.75,3.06,3.06,0,0,1-.12-.85,1.82,1.82,0,0,1,.44-1.29,1.63,1.63,0,0,1,1.22-.47,1.58,1.58,0,0,1,1,.28,3.36,3.36,0,0,1,.81.93l.2.32a5.29,5.29,0,0,0,.36.55,1.12,1.12,0,0,0,.34.31.84.84,0,0,0,.48.13h.24V122.4a.16.16,0,0,1,0-.12.21.21,0,0,1,.13,0h.61a.17.17,0,0,1,.12,0,.13.13,0,0,1,.05.12v2.76A.35.35,0,0,1,240.12,125.42Z"/><path class="cls-3" d="M240.17,121.21a.17.17,0,0,1-.12.05h-.59a.17.17,0,0,1-.12-.05.21.21,0,0,1-.05-.13v-.93h-3.67v.69a.21.21,0,0,1-.07.17.22.22,0,0,1-.17.07H235l-.7-1.33v-.32a.24.24,0,0,1,.07-.17.23.23,0,0,1,.17-.07h4.76v-.93a.19.19,0,0,1,.05-.13.17.17,0,0,1,.12,0h.59a.17.17,0,0,1,.12,0,.15.15,0,0,1,.05.13v2.82A.17.17,0,0,1,240.17,121.21Z"/><path class="cls-3" d="M231.08,218.63l-.11-.82.36-.05.92-.12.9-.12a.32.32,0,0,0,.28-.17c.13-.19.29-.37.43-.55l.09-.13a10.73,10.73,0,0,0-1.54.16c-.51.08-1,.14-1.55.2l-.1-.8,3.94-.53.64-.83,0,0-.27,0h-.31a8,8,0,0,1-1.09.18l-1.1.15-.72.08-.58.09-.5.07h-.1l-.1-.78,1.54-.21c-.4-.34-.82-.63-1.23-.95l.47-.62.11,0,1.39,1.07.32.24a.22.22,0,0,0,.21.05l.83-.11a.63.63,0,0,0,.14,0l-2.5-1.9.49-.64.23.16,1,.77.94.72c.31.24.62.48.94.71a.19.19,0,0,0,.13,0c.32,0,.64-.08,1-.13-.06-.12-.17-.17-.25-.24s-.31-.22-.46-.34l-.6-.46-1-.74-1-.76-.4-.31-.05-.05.48-.63c.42.29.79.62,1.22.91a4.42,4.42,0,0,0-.08-.75c0-.24-.06-.49-.1-.76l.8-.11.06.41c0,.3.09.6.12.9l.12.92a.21.21,0,0,0,.08.17l.76.57.06,0c-.05-.53-.14-1-.2-1.55s-.14-1-.21-1.55l.8-.1c0,.21.07.41.09.6l.09.72c0,.25.07.5.1.75l.12.85c0,.3.08.59.11.89a.27.27,0,0,0,.1.19l.71.53s0,0,.09,0l-.62-4.68.45-.06.34,0c.1.5.13,1,.22,1.5h0l.93-1.2.63.49-.15.21c-.19.25-.39.5-.58.76l-.6.77a.37.37,0,0,0-.09.31c.05.28.08.57.12.85a.17.17,0,0,0,0,.08c.34-.42.64-.84,1-1.25l1-1.25.63.49-.28.39-.64.84-.87,1.12L239,214a.2.2,0,0,0,0,.18l.06.52c0,.14,0,.28.06.44,0,0,.06,0,.07,0L240,214c.23-.3.47-.6.69-.9s.51-.67.76-1l.54-.69.64.48c-.3.42-.63.81-.94,1.24l1.53-.2c.06.26.08.52.12.8l-.41.06-.91.12-1,.13a.21.21,0,0,0-.11,0l-.62.81,0,0,3.06-.41a2.72,2.72,0,0,1,.13.8l-.42.06c-.23,0-.47.06-.7.09l-.74.1-1.06.14-.79.1a.43.43,0,0,0-.35.2c-.14.21-.31.41-.46.61l-.09.09a1.07,1.07,0,0,0,.4,0l.73-.1.69-.1.53-.06.23,0,1-.12,1-.15h.14l.11.77c-.5.1-1,.13-1.53.23.21.18.42.32.61.47l.61.47-.48.65-.2-.16-1-.73-.61-.47a.3.3,0,0,0-.24-.07l-.81.11a.63.63,0,0,0-.14,0c.42.34.83.64,1.23,1l1.24.94a7.68,7.68,0,0,1-.47.65l-.23-.16-1.42-1.08-1.21-.94a1.7,1.7,0,0,1-.23-.17.29.29,0,0,0-.18,0l-1,.14a1,1,0,0,0,.28.25l1,.75,1.22.94.94.7.31.26-.48.64c-.41-.29-.79-.6-1.2-.88,0,.49.12,1,.15,1.48l-.8.11a.44.44,0,0,1,0-.1l-.12-.84c0-.25-.06-.51-.1-.76s-.05-.41-.08-.61a.08.08,0,0,0,0-.07l-.72-.55s0,0-.09,0a1.21,1.21,0,0,0,0,.2l.15,1.18.15,1.05c0,.19.05.38.08.57,0,0,0,0,0,.07a4.18,4.18,0,0,1-.81.09c0-.12,0-.23-.05-.34,0-.29-.07-.58-.11-.87s-.06-.48-.1-.71l-.18-1.35c0-.16,0-.32,0-.49a.31.31,0,0,0-.12-.23l-.72-.54h0s0,.07,0,.1c0,.24.07.48.1.71s.09.7.14,1.05.1.72.14,1.09.06.48.1.72.08.59.12.89v.1l-.8.1-.21-1.52a6.39,6.39,0,0,0-.48.61l-.47.6-.65-.49.41-.54.9-1.18,0,0a.29.29,0,0,0,.08-.27c0-.28-.07-.56-.11-.84l0-.05-.09.06-.62.82-.54.69-.53.7a1.14,1.14,0,0,1-.15.17l-.62-.47a.42.42,0,0,1,0-.1l.92-1.21.67-.86.69-.9a.29.29,0,0,0,.07-.22c-.05-.31-.09-.62-.14-1l-.26.32c-.26.33-.52.67-.77,1l-1,1.33-.78,1c-.06.08-.08.08-.16,0l-.56-.42.91-1.2v0Zm5.07-1.5a4.34,4.34,0,0,0,.52-.07.35.35,0,0,1,.31.08l.15.12c.1.06.16.16.29.18l.36-.47a.18.18,0,0,1,.15-.08l.27,0,.32,0c0-.17,0-.33-.06-.48a.38.38,0,0,1,.1-.38c.1-.12.19-.25.29-.38l-.48-.37a.21.21,0,0,1-.09-.15c0-.14,0-.28-.05-.43s0-.1,0-.17a4.85,4.85,0,0,0-.55.08.21.21,0,0,1-.2-.05c-.13-.1-.26-.2-.4-.29l-.1-.06c-.1.13-.2.24-.28.36a.39.39,0,0,1-.36.22h-.1l-.37,0c0,.13,0,.24.05.35,0,.34,0,.34-.11.56l0,.06-.23.3.07,0,.39.3a.25.25,0,0,1,.12.2,1.13,1.13,0,0,0,0,.18Q236.12,216.92,236.15,217.13Z"/><path class="cls-4" d="M238.25,215.63a1.37,1.37,0,0,1-.17.23.35.35,0,0,0-.07.34c0,.07,0,.14,0,.23l-.14,0-.21,0a.18.18,0,0,0-.15.1l-.21.25-.3-.21a.17.17,0,0,0-.18,0,1.55,1.55,0,0,1-.32,0l-.08-.44-.34-.26a.87.87,0,0,1,.15-.21.38.38,0,0,0,.09-.35,1,1,0,0,1,0-.25l.17,0a.48.48,0,0,0,.43-.25,1.27,1.27,0,0,1,.11-.13,1.7,1.7,0,0,1,.22.15.31.31,0,0,0,.34.07,1.57,1.57,0,0,1,.24,0c0,.1,0,.18,0,.26a.28.28,0,0,0,.14.27C238.09,215.49,238.16,215.56,238.25,215.63Z"/></g><g id="background"><polygon class="cls-4" points="225.31 231.7 58.12 231.7 58.12 101.26 141.73 56.03 225.31 101.26 225.31 231.7"/><path class="cls-5" d="M208.34,143.19a5.13,5.13,0,0,0,5.12-5.13V116.92a5.1,5.1,0,0,0-2.69-4.5L144.14,76.54a5.14,5.14,0,0,0-4.85,0L72.66,112.42a5.1,5.1,0,0,0-2.69,4.5v21.14a5.13,5.13,0,0,0,5.12,5.13h5.85v45.48H75.09A5.13,5.13,0,0,0,70,193.8v20.5a5.12,5.12,0,0,0,5.12,5.12H208.34a5.12,5.12,0,0,0,5.12-5.12V193.8a5.13,5.13,0,0,0-5.12-5.13h-5.85V143.19ZM80.22,120l61.5-33.11L203.21,120v13h-123Zm76.15,68.69V143.19h16.81v45.48Zm-46.13,0V143.19h16.82v45.48Zm27.07-45.48h8.81v45.48h-8.81Zm-46.12,0H100v45.48H91.19Zm112,66h-123V198.92h123Zm-11-20.5h-8.81V143.19h8.81Zm-50.53-60.94a14.86,14.86,0,1,0-14.86-14.86A14.88,14.88,0,0,0,141.71,127.73Zm0-19.48a4.62,4.62,0,1,1-4.61,4.62A4.63,4.63,0,0,1,141.71,108.25Z"/></g><g id="words"><g class="cls-6"><path d="M57,132.61a1.12,1.12,0,0,1-.32-.81V97A2.29,2.29,0,0,1,59,94.64H68.5a12.3,12.3,0,0,1,6.24,1.66,12.51,12.51,0,0,1,4.55,4.5,12.16,12.16,0,0,1,0,12.37,12.51,12.51,0,0,1-4.55,4.5,12.3,12.3,0,0,1-6.24,1.66H63.2V131.8a1.12,1.12,0,0,1-.32.81,1.09,1.09,0,0,1-.8.32H57.79A1.09,1.09,0,0,1,57,132.61Zm11.24-19.44A6.23,6.23,0,0,0,74.45,107a5.92,5.92,0,0,0-1.83-4.34,6,6,0,0,0-4.39-1.82h-5v12.37Z"/><path d="M94.55,131.64a14,14,0,0,1-5.09-5.43,16.26,16.26,0,0,1-1.84-7.79V95.77a1.11,1.11,0,0,1,1.12-1.13H93a1.11,1.11,0,0,1,1.13,1.13v22.92a8.94,8.94,0,0,0,2.11,6.21,7.78,7.78,0,0,0,11.14,0,8.94,8.94,0,0,0,2.12-6.21V95.77a1.11,1.11,0,0,1,1.12-1.13h4.28a1.11,1.11,0,0,1,1.13,1.13v22.65a16.38,16.38,0,0,1-1.85,7.81,14.15,14.15,0,0,1-19.65,5.41Z"/><path d="M125.23,132.26a2.21,2.21,0,0,1-.67-1.63V97a2.22,2.22,0,0,1,.67-1.64,2.25,2.25,0,0,1,1.63-.67h9.48a10.78,10.78,0,0,1,5.49,1.45,11,11,0,0,1,4,3.88,10.24,10.24,0,0,1,1.47,5.38,8.63,8.63,0,0,1-3.32,6.8,8.83,8.83,0,0,1,4.23,3.51,10.28,10.28,0,0,1,1.5,5.6,11.33,11.33,0,0,1-1.58,5.89,11.73,11.73,0,0,1-4.25,4.23,11.6,11.6,0,0,1-5.89,1.55H126.86A2.21,2.21,0,0,1,125.23,132.26Zm10.63-22.14a5,5,0,0,0,3.51-1.39,4.37,4.37,0,0,0,1.47-3.27,4.47,4.47,0,0,0-1.47-3.37,5,5,0,0,0-3.51-1.4H131v9.43Zm1.82,16.7a5.33,5.33,0,0,0,4-1.55,5.39,5.39,0,0,0,1.55-4,5.06,5.06,0,0,0-1.58-3.83,5.42,5.42,0,0,0-3.93-1.53H131v10.92Z"/><path d="M156.66,132.26a2.21,2.21,0,0,1-.67-1.63V95.77a1.11,1.11,0,0,1,1.13-1.13h4.28a1.11,1.11,0,0,1,1.12,1.13v30.89H175a1.11,1.11,0,0,1,.8.32,1.13,1.13,0,0,1,.32.81v4a1.09,1.09,0,0,1-1.12,1.13H158.29A2.21,2.21,0,0,1,156.66,132.26Z"/><path d="M181.16,132.61a1.09,1.09,0,0,1-.33-.81v-3.69A1.13,1.13,0,0,1,182,127h4.55V100.59H182a1.11,1.11,0,0,1-1.13-1.13V95.77A1.13,1.13,0,0,1,182,94.64h15.63a1.11,1.11,0,0,1,1.13,1.13v3.69a1.09,1.09,0,0,1-1.13,1.13H193V127h4.55a1.11,1.11,0,0,1,1.13,1.13v3.69a1.12,1.12,0,0,1-.32.81,1.13,1.13,0,0,1-.81.32H182A1.09,1.09,0,0,1,181.16,132.61Z"/><path d="M211,131.72a14.19,14.19,0,0,1-6.94-12.23V108.08A13.9,13.9,0,0,1,206,101,14.09,14.09,0,0,1,211,95.85a13.24,13.24,0,0,1,6.93-1.9,15.47,15.47,0,0,1,6.1,1.2,13,13,0,0,1,4.82,3.51,1.32,1.32,0,0,1,.32.91,1.73,1.73,0,0,1-.42,1.07l-2.36,2.46a1.23,1.23,0,0,1-.86.43,1.27,1.27,0,0,1-1-.48,8.49,8.49,0,0,0-6.59-2.84,6.71,6.71,0,0,0-3.66,1.07,8,8,0,0,0-2.71,2.9,7.83,7.83,0,0,0-1,3.9v11.41a7.9,7.9,0,0,0,1,3.91,8,8,0,0,0,2.71,2.89,6.71,6.71,0,0,0,3.66,1.07,8.49,8.49,0,0,0,6.59-2.84,1.22,1.22,0,0,1,.91-.48,1.27,1.27,0,0,1,.91.43l2.36,2.46a1.49,1.49,0,0,1,.48,1.07,1.46,1.46,0,0,1-.32.86,13.73,13.73,0,0,1-4.88,3.53,15.15,15.15,0,0,1-6.1,1.23A13.24,13.24,0,0,1,211,131.72Z"/><path d="M61.93,174a12.64,12.64,0,0,1-4.57-4.56,12.28,12.28,0,0,1-1.68-6.3V153a12.28,12.28,0,0,1,1.68-6.3,12.57,12.57,0,0,1,4.57-4.56,12.13,12.13,0,0,1,6.29-1.69,14.35,14.35,0,0,1,5.56,1.07,11.81,11.81,0,0,1,4.38,3.11,1.19,1.19,0,0,1,.28.81,1.54,1.54,0,0,1-.38.95L76,148.6a1.11,1.11,0,0,1-.76.38,1.16,1.16,0,0,1-.86-.43A8,8,0,0,0,68.27,146a6.41,6.41,0,0,0-3.37.95,7.08,7.08,0,0,0-2.5,2.57,6.84,6.84,0,0,0-.93,3.47v10.12a6.84,6.84,0,0,0,.93,3.47,7.08,7.08,0,0,0,2.5,2.57,6.41,6.41,0,0,0,3.37.95,6.77,6.77,0,0,0,5.85-3.38,6.72,6.72,0,0,0,.9-3.42V161H68.65a1,1,0,0,1-.71-.28,1,1,0,0,1-.29-.72v-3.42a1,1,0,0,1,1-1h10a2,2,0,0,1,2,2v5.51a12.28,12.28,0,0,1-1.68,6.3A12.64,12.64,0,0,1,74.47,174a12.48,12.48,0,0,1-12.54,0Z"/><path d="M92.94,174a12.55,12.55,0,0,1-4.59-4.56,12.29,12.29,0,0,1-1.69-6.3V153a12.29,12.29,0,0,1,1.69-6.3,12.47,12.47,0,0,1,4.59-4.56,12.66,12.66,0,0,1,12.64,0,12.55,12.55,0,0,1,4.59,4.56,12.28,12.28,0,0,1,1.68,6.3v10.12a12.28,12.28,0,0,1-1.68,6.3,12.62,12.62,0,0,1-4.59,4.56,12.66,12.66,0,0,1-12.64,0Zm9.69-4.82a7.08,7.08,0,0,0,2.5-2.57,6.83,6.83,0,0,0,.92-3.47V153a6.83,6.83,0,0,0-.92-3.47,7.08,7.08,0,0,0-2.5-2.57,6.47,6.47,0,0,0-6.75,0,7.14,7.14,0,0,0-2.49,2.57,6.84,6.84,0,0,0-.93,3.47v10.12a6.84,6.84,0,0,0,.93,3.47,7.14,7.14,0,0,0,2.49,2.57,6.47,6.47,0,0,0,6.75,0Z"/><path d="M124.5,174a12.47,12.47,0,0,1-4.59-4.56,12.19,12.19,0,0,1-1.69-6.3V153a12.19,12.19,0,0,1,1.69-6.3,12.4,12.4,0,0,1,4.59-4.56,12.66,12.66,0,0,1,12.64,0,12.44,12.44,0,0,1,4.58,4.56,12.19,12.19,0,0,1,1.69,6.3v10.12a12.19,12.19,0,0,1-1.69,6.3,12.6,12.6,0,0,1-10.9,6.25A12.36,12.36,0,0,1,124.5,174Zm9.69-4.82a7.08,7.08,0,0,0,2.5-2.57,6.93,6.93,0,0,0,.92-3.47V153a6.93,6.93,0,0,0-.92-3.47,7.08,7.08,0,0,0-2.5-2.57,6.47,6.47,0,0,0-6.75,0,7.06,7.06,0,0,0-2.49,2.57A6.84,6.84,0,0,0,124,153v10.12a6.84,6.84,0,0,0,.93,3.47,7.06,7.06,0,0,0,2.49,2.57,6.47,6.47,0,0,0,6.75,0Z"/><path d="M150.71,174.48a2,2,0,0,1-.6-1.45v-29.9a2,2,0,0,1,2-2h9.31a12.9,12.9,0,0,1,11.38,6.56,13.23,13.23,0,0,1,1.74,6.7v7.46a13.26,13.26,0,0,1-1.74,6.7,12.75,12.75,0,0,1-4.73,4.8,12.89,12.89,0,0,1-6.65,1.76h-9.31A2,2,0,0,1,150.71,174.48Zm10.52-5a7.32,7.32,0,0,0,3.78-1,7.61,7.61,0,0,0,2.76-2.76,7.42,7.42,0,0,0,1-3.83v-7.69a7.29,7.29,0,0,0-1-3.78,7.61,7.61,0,0,0-2.76-2.76,7.32,7.32,0,0,0-3.78-1h-5.32v22.86Z"/><path d="M184.45,174.81a18.23,18.23,0,0,1-4.63-2.31.79.79,0,0,1-.34-.5.93.93,0,0,1,.05-.64l1.66-3a1,1,0,0,1,.91-.57,1.38,1.38,0,0,1,.71.19,12.67,12.67,0,0,0,6.65,2.23,6,6,0,0,0,4-1.21,3.91,3.91,0,0,0,1.45-3.16,3.27,3.27,0,0,0-.71-2.16,5.91,5.91,0,0,0-1.9-1.5c-.79-.41-2-.92-3.47-1.52l-1.38-.57a17.68,17.68,0,0,1-5.44-3.52c-1.47-1.42-2.21-3.52-2.21-6.27a9.87,9.87,0,0,1,1.31-5.13,9,9,0,0,1,3.63-3.47,11.2,11.2,0,0,1,5.37-1.24,16,16,0,0,1,5,.83,16.3,16.3,0,0,1,4.49,2.31.75.75,0,0,1,.33.5.87.87,0,0,1,0,.64l-1.57,3a.94.94,0,0,1-.9.57,1.38,1.38,0,0,1-.71-.19,15,15,0,0,0-3.54-1.71,10.29,10.29,0,0,0-3-.52,4.72,4.72,0,0,0-3.37,1.16,3.89,3.89,0,0,0-1.24,3,4,4,0,0,0,1.35,3.07,16,16,0,0,0,4.35,2.45c.29.09,1.37.53,3.26,1.3a10.44,10.44,0,0,1,4.49,3.4,8.59,8.59,0,0,1,1.66,5.28,9.87,9.87,0,0,1-1.4,5.25,9.53,9.53,0,0,1-3.92,3.59,12.67,12.67,0,0,1-5.8,1.28A16,16,0,0,1,184.45,174.81Z"/><path d="M225.79,176.3a.45.45,0,0,1-.35.15l-.18,0-14.37-4.68a.6.6,0,0,1-.34-.25.68.68,0,0,1-.13-.42V169.4a.7.7,0,0,1,.13-.42.71.71,0,0,1,.34-.25l14.37-4.67.18,0a.45.45,0,0,1,.35.15.49.49,0,0,1,.14.37v1.55a.66.66,0,0,1-.14.42.65.65,0,0,1-.35.24l-3.11,1v5l3.11,1a.65.65,0,0,1,.35.24.63.63,0,0,1,.14.42v1.51A.5.5,0,0,1,225.79,176.3Zm-5.89-7.8-5.75,1.76L219.9,172Z"/><path d="M225.8,161.45a.41.41,0,0,1-.32.13h-14a.92.92,0,0,1-.92-.92v-4a4.9,4.9,0,0,1,.62-2.42,4.81,4.81,0,0,1,1.7-1.74,4.52,4.52,0,0,1,2.35-.65,4.43,4.43,0,0,1,2.77.93,4.67,4.67,0,0,1,1.67,2.41l5.54-3.57a.58.58,0,0,1,.3-.09.42.42,0,0,1,.32.14.48.48,0,0,1,.13.36v1.76a.62.62,0,0,1-.3.56l-5.75,3.58v1h5.6a.44.44,0,0,1,.45.46v1.72A.41.41,0,0,1,225.8,161.45Zm-8.4-4.69a2.24,2.24,0,0,0-.61-1.63,2.1,2.1,0,0,0-1.56-.64,2.17,2.17,0,0,0-1.6.64,2.21,2.21,0,0,0-.62,1.63V159h4.39Z"/><path d="M225.66,148.54a.89.89,0,0,1-.65.27H211.45a.92.92,0,0,1-.92-.93v-7.34a.44.44,0,0,1,.45-.46h1.62a.46.46,0,0,1,.32.13.44.44,0,0,1,.13.33v5.64h3.66V142a.41.41,0,0,1,.13-.32.42.42,0,0,1,.32-.13h1.53a.44.44,0,0,1,.46.45v4.2h4.26v-5.64a.44.44,0,0,1,.13-.33.46.46,0,0,1,.32-.13h1.62a.44.44,0,0,1,.45.46v7.34A.9.9,0,0,1,225.66,148.54Z"/><path class="cls-7" d="M64.4,230.14a18.33,18.33,0,0,1-6.66-6.66,17.8,17.8,0,0,1-2.47-9.2V199.5a17.76,17.76,0,0,1,2.47-9.19,18.33,18.33,0,0,1,6.66-6.66,17.76,17.76,0,0,1,9.19-2.47,20.87,20.87,0,0,1,8.12,1.56,17.27,17.27,0,0,1,6.39,4.55,1.73,1.73,0,0,1,.41,1.18,2.24,2.24,0,0,1-.55,1.39l-3,3.19a1.59,1.59,0,0,1-1.11.55,1.62,1.62,0,0,1-1.25-.62,11.71,11.71,0,0,0-8.89-3.68,9.25,9.25,0,0,0-4.92,1.39,10.34,10.34,0,0,0-3.65,3.75,10,10,0,0,0-1.35,5.06v14.78a10,10,0,0,0,1.35,5.07,10.42,10.42,0,0,0,3.65,3.75,9.34,9.34,0,0,0,4.92,1.39,9.86,9.86,0,0,0,8.54-4.93,9.84,9.84,0,0,0,1.32-5v-3.4h-9.3a1.4,1.4,0,0,1-1-.42,1.39,1.39,0,0,1-.42-1v-5a1.39,1.39,0,0,1,.42-1,1.4,1.4,0,0,1,1-.42H88.86a3,3,0,0,1,3,3v8.05a17.89,17.89,0,0,1-2.47,9.2,18.33,18.33,0,0,1-6.66,6.66,18.28,18.28,0,0,1-18.32,0Z"/><path class="cls-7" d="M109.68,230.14a18.29,18.29,0,0,1-6.7-6.66,17.89,17.89,0,0,1-2.46-9.2V199.5a17.85,17.85,0,0,1,2.46-9.19,18.29,18.29,0,0,1,6.7-6.66,18.48,18.48,0,0,1,18.46,0,18.37,18.37,0,0,1,6.7,6.66,17.85,17.85,0,0,1,2.46,9.19v14.78a17.89,17.89,0,0,1-2.46,9.2,18.37,18.37,0,0,1-6.7,6.66,18.55,18.55,0,0,1-18.46,0Zm14.16-7a10.39,10.39,0,0,0,3.64-3.75,10,10,0,0,0,1.35-5.07V199.5a10,10,0,0,0-1.35-5.06,10.31,10.31,0,0,0-3.64-3.75,9.44,9.44,0,0,0-9.86,0,10.31,10.31,0,0,0-3.64,3.75A10,10,0,0,0,109,199.5v14.78a10,10,0,0,0,1.35,5.07A10.39,10.39,0,0,0,114,223.1a9.44,9.44,0,0,0,9.86,0Z"/><path class="cls-7" d="M155.76,230.14a18.29,18.29,0,0,1-6.7-6.66,17.89,17.89,0,0,1-2.46-9.2V199.5a17.85,17.85,0,0,1,2.46-9.19,18.29,18.29,0,0,1,6.7-6.66,18.48,18.48,0,0,1,18.46,0,18.26,18.26,0,0,1,6.69,6.66,17.76,17.76,0,0,1,2.47,9.19v14.78a17.8,17.8,0,0,1-2.47,9.2,18.26,18.26,0,0,1-6.69,6.66,18.55,18.55,0,0,1-18.46,0Zm14.16-7a10.39,10.39,0,0,0,3.64-3.75,10,10,0,0,0,1.35-5.07V199.5a10,10,0,0,0-1.35-5.06,10.31,10.31,0,0,0-3.64-3.75,9.44,9.44,0,0,0-9.86,0,10.23,10.23,0,0,0-3.64,3.75,10,10,0,0,0-1.36,5.06v14.78a10,10,0,0,0,1.36,5.07,10.31,10.31,0,0,0,3.64,3.75,9.44,9.44,0,0,0,9.86,0Z"/><path class="cls-7" d="M194,230.84a2.89,2.89,0,0,1-.87-2.12V185.07a3,3,0,0,1,3-3h13.6a18.85,18.85,0,0,1,16.62,9.58,19.38,19.38,0,0,1,2.53,9.79v10.89a19.41,19.41,0,0,1-2.53,9.79,18.81,18.81,0,0,1-16.62,9.57h-13.6A2.9,2.9,0,0,1,194,230.84Zm15.37-7.26a10.64,10.64,0,0,0,5.52-1.49,11.07,11.07,0,0,0,4-4,10.76,10.76,0,0,0,1.49-5.59V201.24a10.64,10.64,0,0,0-1.49-5.52,11.07,11.07,0,0,0-4-4,10.65,10.65,0,0,0-5.52-1.5h-7.77v33.38Z"/></g></g></svg>