<svg xmlns="http://www.w3.org/2000/svg" xmlns:xlink="http://www.w3.org/1999/xlink" viewBox="0 0 283.46 283.46"><defs><style>.cls-1{fill:none;}.cls-2{fill:#fff;}.cls-3{fill:#6f3ff4;}.cls-4{fill:#02e1ab;}.cls-5{fill:#b2ffec;}.cls-6{clip-path:url(#clip-path);}</style><clipPath id="clip-path"><path class="cls-1" d="M237.79,72.73h0a60.89,60.89,0,0,0-85.87,0l-4,4-4-4a60.89,60.89,0,0,0-85.87,0h0a60.91,60.91,0,0,0,0,85.87l74.86,74.85a21.44,21.44,0,0,0,30.08,0l74.86-74.85A60.91,60.91,0,0,0,237.79,72.73Z"/></clipPath></defs><g id="profile"><path class="cls-2" d="M147.83,247.61a28.94,28.94,0,0,1-20.64-8.5L52.33,164.26A68.66,68.66,0,0,1,100.93,47,68,68,0,0,1,142.8,61.18a8.31,8.31,0,0,0,10.18,0,68.67,68.67,0,0,1,110.38,49.51,68.72,68.72,0,0,1-13.06,45.58,4.11,4.11,0,0,0,.3,5.25,9.29,9.29,0,0,1,1.85,3.14,10.38,10.38,0,0,1-2.59,10.71l-66.71,66.71a10.65,10.65,0,0,1-7.47,3.15h0a9.67,9.67,0,0,1-3.12-.51,9.16,9.16,0,0,1-3.16-1.78,4.11,4.11,0,0,0-5-.33,29,29,0,0,1-16.36,5Z"/><path d="M194.85,47.51A68.2,68.2,0,0,1,249.9,156a4.66,4.66,0,0,0,.33,5.88,8.83,8.83,0,0,1,1.74,3A9.88,9.88,0,0,1,249.51,175L182.8,241.73a10.2,10.2,0,0,1-7.12,3,9.27,9.27,0,0,1-3-.48,8.77,8.77,0,0,1-3-1.69,4.62,4.62,0,0,0-5.66-.36A28.47,28.47,0,0,1,148,247.11h-.2a28.43,28.43,0,0,1-20.24-8.36L52.69,163.9A68.15,68.15,0,0,1,100.93,47.51a67.47,67.47,0,0,1,41.56,14.06,8.81,8.81,0,0,0,10.8,0,67.47,67.47,0,0,1,41.56-14.06m0-1a68.73,68.73,0,0,0-42.17,14.27,7.82,7.82,0,0,1-9.58,0A69.22,69.22,0,0,0,52,164.61l74.86,74.85a29.39,29.39,0,0,0,20.94,8.66H148a29.44,29.44,0,0,0,16.64-5.1,3.63,3.63,0,0,1,4.43.29,9.57,9.57,0,0,0,3.33,1.88,10.3,10.3,0,0,0,3.28.54,11.13,11.13,0,0,0,7.83-3.3l66.71-66.7a10.89,10.89,0,0,0,2.7-11.24,9.74,9.74,0,0,0-1.95-3.31,3.64,3.64,0,0,1-.27-4.62,69.14,69.14,0,0,0-55.85-110Z"/><path class="cls-3" d="M186.22,229.62a3.26,3.26,0,0,1-.85.28.15.15,0,0,1-.11,0,.16.16,0,0,1-.07-.09l-.16-.57a.17.17,0,0,1,0-.18.24.24,0,0,1,.11-.06,2.24,2.24,0,0,0,1.09-.54,1,1,0,0,0,.34-.64.65.65,0,0,0-.21-.56.54.54,0,0,0-.35-.18.9.9,0,0,0-.42.05,4.1,4.1,0,0,0-.61.24l-.24.1a3,3,0,0,1-1.1.23,1.42,1.42,0,0,1-1-.5,1.63,1.63,0,0,1-.47-.79,1.52,1.52,0,0,1,0-.87,2,2,0,0,1,.51-.81,2.43,2.43,0,0,1,.71-.51,2.66,2.66,0,0,1,.84-.27.13.13,0,0,1,.1,0,.13.13,0,0,1,.07.09l.18.55a.19.19,0,0,1,0,.19.24.24,0,0,1-.11.06,2.6,2.6,0,0,0-.65.22,1.91,1.91,0,0,0-.43.31.77.77,0,0,0-.27.56.65.65,0,0,0,.21.51.69.69,0,0,0,.54.21,2.82,2.82,0,0,0,.84-.23l.55-.24a1.74,1.74,0,0,1,1-.13,1.44,1.44,0,0,1,.85.44,1.77,1.77,0,0,1,.48.82,1.61,1.61,0,0,1,0,.92,2.17,2.17,0,0,1-.55.87A3.15,3.15,0,0,1,186.22,229.62Z"/><path class="cls-3" d="M189.55,226.09a2.2,2.2,0,0,1-1.11,0,2.17,2.17,0,0,1-1-.57l-1.24-1.24a2.17,2.17,0,0,1-.57-1,2.2,2.2,0,0,1,0-1.11,2,2,0,0,1,.55-1,2.25,2.25,0,0,1,.79-.53,2.05,2.05,0,0,1,.91-.15.27.27,0,0,1,.14.07.3.3,0,0,1,.07.16v.52a.18.18,0,0,1-.05.14.21.21,0,0,1-.16.06,1.29,1.29,0,0,0-1,.4,1.08,1.08,0,0,0-.29.52,1.4,1.4,0,0,0,0,.61,1.24,1.24,0,0,0,.32.54l1.24,1.24a1.22,1.22,0,0,0,.54.31,1.15,1.15,0,0,0,.61,0,1,1,0,0,0,.51-.28,1.31,1.31,0,0,0,.41-1,.18.18,0,0,1,.19-.2H191a.22.22,0,0,1,.17.07.23.23,0,0,1,.06.12,2.07,2.07,0,0,1-.15.92,2.33,2.33,0,0,1-.53.8A2.11,2.11,0,0,1,189.55,226.09Z"/><path class="cls-3" d="M192.41,223.42a.14.14,0,0,1-.12-.06l-3.93-3.92a.18.18,0,0,1-.05-.12.17.17,0,0,1,.05-.12l.47-.47a.16.16,0,0,1,.12,0,.13.13,0,0,1,.12,0l1.58,1.57,1.73-1.72L190.8,217a.17.17,0,0,1,0-.24l.47-.47a.17.17,0,0,1,.24,0l3.93,3.93a.17.17,0,0,1,.05.12.18.18,0,0,1-.05.12l-.47.47a.21.21,0,0,1-.12,0,.21.21,0,0,1-.13,0L193,219.25,191.32,221l1.68,1.68a.21.21,0,0,1,.05.13.21.21,0,0,1-.05.12l-.47.46A.14.14,0,0,1,192.41,223.42Z"/><path class="cls-3" d="M196.48,219.27a.36.36,0,0,1-.25-.11l-3.66-3.67a.34.34,0,0,1,0-.5l2-2a.21.21,0,0,1,.13-.05.18.18,0,0,1,.12.05l.44.44a.21.21,0,0,1,0,.12.21.21,0,0,1,0,.13l-1.53,1.52,1,1,1.14-1.14a.15.15,0,0,1,.24,0l.42.41a.21.21,0,0,1,.05.12.21.21,0,0,1-.05.13l-1.14,1.13,1.15,1.16,1.53-1.53a.21.21,0,0,1,.12-.05.21.21,0,0,1,.13.05l.43.44a.15.15,0,0,1,0,.24l-2,2A.36.36,0,0,1,196.48,219.27Z"/><path class="cls-3" d="M199.65,216.1a.34.34,0,0,1-.25-.11l-3.79-3.79a.17.17,0,0,1-.06-.12.18.18,0,0,1,.06-.13l.46-.46a.13.13,0,0,1,.12-.05.14.14,0,0,1,.13.05l3.36,3.36L201,213.5a.17.17,0,0,1,.13-.05.16.16,0,0,1,.12.05l.44.44a.17.17,0,0,1,.05.12.14.14,0,0,1-.06.12L199.9,216A.34.34,0,0,1,199.65,216.1Z"/><path class="cls-3" d="M202.48,213.27a.33.33,0,0,1-.25-.1l-3.8-3.8a.18.18,0,0,1-.05-.12.17.17,0,0,1,.05-.12l.47-.47a.17.17,0,0,1,.24,0l3.37,3.36,1.35-1.35a.21.21,0,0,1,.12,0,.21.21,0,0,1,.13,0l.43.44a.15.15,0,0,1,0,.24l-1.81,1.82A.33.33,0,0,1,202.48,213.27Z"/><path class="cls-3" d="M205.18,210.64a.21.21,0,0,1-.12,0l-.4-.4a.17.17,0,0,1,0-.13.16.16,0,0,1,0-.12l.5-.49-2.88-2.88-.49.5a.21.21,0,0,1-.13.05.21.21,0,0,1-.12-.05l-.4-.4a.14.14,0,0,1,0-.13.16.16,0,0,1,0-.12l1.7-1.7a.16.16,0,0,1,.12-.05.17.17,0,0,1,.13.05l.4.4a.21.21,0,0,1,0,.12.21.21,0,0,1,0,.13l-.5.49,2.88,2.88.49-.5a.21.21,0,0,1,.12-.05.21.21,0,0,1,.13.05l.4.4a.21.21,0,0,1,.05.12.21.21,0,0,1-.05.13l-1.7,1.7A.21.21,0,0,1,205.18,210.64Z"/><path class="cls-3" d="M207.93,207.9a.14.14,0,0,1-.12-.06L203.93,204a.23.23,0,0,1-.07-.17.21.21,0,0,1,.07-.17l.48-.48a.24.24,0,0,1,.24-.07l3.77,1,.77.21-2.82-2.82a.17.17,0,0,1-.05-.13.16.16,0,0,1,.05-.12l.42-.42a.17.17,0,0,1,.24,0l3.88,3.88a.22.22,0,0,1,.07.17.23.23,0,0,1-.07.17l-.48.48a.25.25,0,0,1-.25.07l-3.89-1-.63-.17,2.81,2.81a.17.17,0,0,1,.06.12.14.14,0,0,1-.06.12l-.42.42A.14.14,0,0,1,207.93,207.9Z"/><path class="cls-3" d="M212.57,203.06a2.13,2.13,0,0,1-1.12,0,2.06,2.06,0,0,1-1-.56l-1.24-1.25a2,2,0,0,1-.56-1,2.13,2.13,0,0,1,0-1.12,2,2,0,0,1,.56-1,2.48,2.48,0,0,1,.81-.55,2,2,0,0,1,.92-.16.21.21,0,0,1,.14.07.3.3,0,0,1,.07.16v.52a.18.18,0,0,1-.05.14.21.21,0,0,1-.16.06,1.35,1.35,0,0,0-1.05.43,1.13,1.13,0,0,0-.3.53,1.18,1.18,0,0,0,0,.62,1.22,1.22,0,0,0,.31.54l1.24,1.25a1.34,1.34,0,0,0,.54.31,1.3,1.3,0,0,0,.62,0,1.11,1.11,0,0,0,.54-.3,1.26,1.26,0,0,0,.3-.53,1.22,1.22,0,0,0,0-.6,1.24,1.24,0,0,0-.31-.53l-.29-.29-.78.78a.15.15,0,0,1-.24,0l-.42-.42a.15.15,0,0,1,0-.24l1.23-1.23a.34.34,0,0,1,.25-.11.36.36,0,0,1,.25.11l.67.67a2.08,2.08,0,0,1,.57,1,2.13,2.13,0,0,1,0,1.12,2.14,2.14,0,0,1-1.54,1.54Z"/><path class="cls-3" d="M217.24,198.59a.21.21,0,0,1-.13-.05l-3.79-3.8a.34.34,0,0,1,0-.5l1-1a1.81,1.81,0,0,1,.86-.49,1.91,1.91,0,0,1,1,0,1.78,1.78,0,0,1,.86.49,1.92,1.92,0,0,1,.49.85,2,2,0,0,1,0,1,1.83,1.83,0,0,1-.5.86l-.57.58,1.36,1.36a.17.17,0,0,1,0,.12.14.14,0,0,1-.06.12l-.46.47A.21.21,0,0,1,217.24,198.59Zm-.9-3.34a.91.91,0,0,0,.28-.68.89.89,0,0,0-.28-.67.88.88,0,0,0-.67-.28.93.93,0,0,0-.67.28l-.55.55,1.34,1.35Z"/><path class="cls-3" d="M221.2,194.44a2.17,2.17,0,0,1-1.13,0,2.14,2.14,0,0,1-1-.57l-1.25-1.24a2,2,0,0,1-.56-1,2.16,2.16,0,0,1,.57-2.1,2.17,2.17,0,0,1,1-.57,2.13,2.13,0,0,1,1.12,0,2,2,0,0,1,1,.56l1.25,1.24a2.15,2.15,0,0,1,.56,1,2.13,2.13,0,0,1,0,1.12,2.21,2.21,0,0,1-1.55,1.56Zm.59-1.78a1.22,1.22,0,0,0,0-.63,1.17,1.17,0,0,0-.32-.53l-1.24-1.25a1.22,1.22,0,0,0-.54-.31,1.18,1.18,0,0,0-.62,0,1.13,1.13,0,0,0-.53.3,1.08,1.08,0,0,0-.3.53,1.3,1.3,0,0,0,0,.62,1.22,1.22,0,0,0,.31.54l1.25,1.24a1.13,1.13,0,0,0,.54.31,1.18,1.18,0,0,0,.62,0,1.2,1.2,0,0,0,.53-.29A1,1,0,0,0,221.79,192.66Z"/><path class="cls-3" d="M224.2,191.62a.16.16,0,0,1-.12-.05l-.4-.4a.16.16,0,0,1-.05-.12.17.17,0,0,1,.05-.13l.49-.49-2.87-2.88-.5.5a.17.17,0,0,1-.24,0l-.4-.4a.13.13,0,0,1,0-.12.14.14,0,0,1,0-.13l1.7-1.7a.15.15,0,0,1,.12,0,.13.13,0,0,1,.12,0l.41.4a.21.21,0,0,1,.05.12.21.21,0,0,1-.05.13l-.5.49,2.88,2.88.49-.5a.21.21,0,0,1,.12-.05.21.21,0,0,1,.13.05l.4.4a.21.21,0,0,1,.05.13.21.21,0,0,1-.05.12l-1.7,1.7A.17.17,0,0,1,224.2,191.62Z"/><path class="cls-3" d="M227,188.88a.17.17,0,0,1-.12,0L223,185a.23.23,0,0,1-.07-.17.22.22,0,0,1,.07-.17l.48-.48a.24.24,0,0,1,.24-.07l3.77,1,.77.21-2.82-2.82a.18.18,0,0,1-.06-.13.17.17,0,0,1,.06-.12l.42-.42a.17.17,0,0,1,.12-.05.18.18,0,0,1,.12.05l3.88,3.88a.24.24,0,0,1,0,.34l-.48.48a.25.25,0,0,1-.25.07l-3.9-1-.62-.17,2.81,2.81a.18.18,0,0,1,.06.13.17.17,0,0,1-.06.11l-.42.42A.14.14,0,0,1,227,188.88Z"/><path class="cls-3" d="M231.9,183.92a.21.21,0,0,1-.12,0l-3.36-3.37-1,1a.17.17,0,0,1-.12.06.18.18,0,0,1-.13-.06l-.43-.43a.14.14,0,0,1,0-.13.13.13,0,0,1,0-.12l2.67-2.67a.17.17,0,0,1,.24,0l.44.44a.17.17,0,0,1,0,.24l-1,1,3.36,3.37a.15.15,0,0,1,0,.24l-.46.47A.21.21,0,0,1,231.9,183.92Z"/><path class="cls-3" d="M235.7,180.05a.37.37,0,0,1-.25-.09l-.47-.47a2.67,2.67,0,0,1-.6-.85,1.81,1.81,0,0,1-.08-.84,14.23,14.23,0,0,1,.32-1.41,1.26,1.26,0,0,0,0-.57.79.79,0,0,0-.23-.43.73.73,0,0,0-.55-.23.89.89,0,0,0-.59.3,1.93,1.93,0,0,0-.51.95.15.15,0,0,1-.06.09.18.18,0,0,1-.17.05l-.54-.16a.2.2,0,0,1-.08,0,.15.15,0,0,1,0-.15,2.72,2.72,0,0,1,.28-.78,3.42,3.42,0,0,1,.51-.69,1.8,1.8,0,0,1,1.23-.6,1.58,1.58,0,0,1,1.19.54,1.67,1.67,0,0,1,.49.87,3.44,3.44,0,0,1-.09,1.23c0,.15-.06.27-.09.37a5.15,5.15,0,0,0-.13.64,1.24,1.24,0,0,0,0,.47.92.92,0,0,0,.25.42l.17.17,1.51-1.52a.21.21,0,0,1,.12,0,.21.21,0,0,1,.13,0l.43.43a.21.21,0,0,1,0,.13.21.21,0,0,1,0,.12L236,180A.31.31,0,0,1,235.7,180.05Z"/><path class="cls-3" d="M238.69,176.27a4.1,4.1,0,0,1-2-1.25,4,4,0,0,1-1.24-2,2,2,0,0,1,2.2-2.2,5.25,5.25,0,0,1,3.23,3.23,1.75,1.75,0,0,1-.55,1.64A1.78,1.78,0,0,1,238.69,176.27Zm1.26-1.81a1.25,1.25,0,0,0-.24-.71,5.69,5.69,0,0,0-.79-.95A6.12,6.12,0,0,0,238,172a1.33,1.33,0,0,0-.71-.23,1,1,0,0,0-.87.87,1.28,1.28,0,0,0,.24.72,5.82,5.82,0,0,0,.8.95,3.71,3.71,0,0,0,1.31,1,.85.85,0,0,0,.92-.23A.88.88,0,0,0,240,174.46Z"/><path class="cls-3" d="M242.35,173.4a.37.37,0,0,1-.24-.1l-.47-.47a2.52,2.52,0,0,1-.6-.85,1.64,1.64,0,0,1-.08-.83,13.06,13.06,0,0,1,.32-1.41,1.48,1.48,0,0,0,0-.58.9.9,0,0,0-.23-.43.73.73,0,0,0-.55-.23.91.91,0,0,0-.6.3,2.06,2.06,0,0,0-.5.95.33.33,0,0,1-.06.1.17.17,0,0,1-.17,0l-.54-.16a.2.2,0,0,1-.08,0,.14.14,0,0,1,0-.15,2.45,2.45,0,0,1,.28-.78,3.42,3.42,0,0,1,.51-.69,1.83,1.83,0,0,1,1.23-.59,1.8,1.8,0,0,1,1.67,1.41,3.15,3.15,0,0,1-.08,1.22c0,.15-.07.27-.09.37a5.15,5.15,0,0,0-.13.64,1.07,1.07,0,0,0,0,.47.92.92,0,0,0,.25.42l.17.17,1.51-1.52a.21.21,0,0,1,.12,0,.21.21,0,0,1,.13,0l.43.43a.21.21,0,0,1,.05.13.21.21,0,0,1-.05.12l-2,1.95A.34.34,0,0,1,242.35,173.4Z"/><path class="cls-3" d="M245.39,170.36a.3.3,0,0,1-.24-.1l-.47-.47a2.36,2.36,0,0,1-.6-.84,1.68,1.68,0,0,1-.08-.84c0-.3.15-.77.31-1.41a1.32,1.32,0,0,0,0-.58,1,1,0,0,0-.23-.42.75.75,0,0,0-.56-.24.88.88,0,0,0-.59.31,2.06,2.06,0,0,0-.51.95.41.41,0,0,1-.05.09.16.16,0,0,1-.17,0l-.55-.16-.07,0a.17.17,0,0,1-.05-.15,2.59,2.59,0,0,1,.29-.77,2.69,2.69,0,0,1,.51-.69,1.8,1.8,0,0,1,1.23-.6,1.61,1.61,0,0,1,1.19.53,1.58,1.58,0,0,1,.48.88,3.35,3.35,0,0,1-.08,1.22c0,.15-.07.28-.1.37-.06.27-.11.49-.13.64a1.23,1.23,0,0,0,0,.47.9.9,0,0,0,.24.42l.17.17,1.52-1.52a.18.18,0,0,1,.12-.05.17.17,0,0,1,.12.05l.44.44a.17.17,0,0,1,.05.12.18.18,0,0,1-.05.12l-2,1.95A.34.34,0,0,1,245.39,170.36Z"/><path class="cls-3" d="M170,232.91l.5-.65.29.21.74.57.72.55a.36.36,0,0,0,.32.09,5.21,5.21,0,0,1,.69-.09l.16,0a12.75,12.75,0,0,0-1.21-1c-.41-.3-.82-.62-1.24-1l.5-.64,3.16,2.41,1-.13v0l-.21-.17-.17-.16s0,0-.06-.05a9.67,9.67,0,0,1-.89-.65l-.88-.67-.57-.45-.48-.35-.4-.31-.06-.07.48-.63,1.24.95c-.05-.53-.14-1-.2-1.55l.77-.1a.21.21,0,0,1,0,.1l.24,1.75c0,.13,0,.26.05.39a.27.27,0,0,0,.11.19c.23.16.45.33.67.5l.12.08-.41-3.12.79-.1a2.56,2.56,0,0,1,0,.27c.05.42.11.83.16,1.25s.11.79.16,1.18.1.77.16,1.16a.21.21,0,0,0,.07.12l.78.6a.69.69,0,0,0,0-.35c0-.19-.06-.37-.08-.56s-.07-.5-.1-.75c-.06-.41-.11-.81-.17-1.21s-.11-.83-.17-1.24l-.06-.51v-.07l.78-.1c.09.49.13,1,.22,1.5a4.91,4.91,0,0,0,.48-.58c.16-.2.3-.4.46-.61l.65.48-.25.33c-.18.24-.36.49-.55.73l-.57.73a.23.23,0,0,0-.06.18c0,.31.09.63.13.94l0,0c.34-.4.64-.83,1-1.23s.62-.82.95-1.25l.63.5-.36.49-.44.57-.46.6-.52.68-.55.72a.24.24,0,0,0-.06.2l.12.88a.29.29,0,0,0,0,.09l2.88-3.75.36.27.27.22c-.29.42-.62.8-.91,1.21l0,0,1.5-.2.11.79-.26.05-.94.12-1,.13a.32.32,0,0,0-.28.15c-.17.24-.35.46-.53.68a.27.27,0,0,1,0,.07c.54-.05,1-.13,1.57-.2l1.56-.2.1.8-.47.06-1.05.14-1.41.18-.92.13a.25.25,0,0,0-.16.1c-.1.14-.21.28-.32.41s-.17.23-.27.36h.09l1.38-.18,1.13-.14,1.24-.17.87-.11.11.79c-.51.08-1,.13-1.54.22l1.22.93a7.24,7.24,0,0,1-.48.65l-.34-.24-.72-.56-.76-.59a.25.25,0,0,0-.11,0l-1,.13v0l2.46,1.88a3.15,3.15,0,0,1-.48.66l-.34-.26-.56-.43-.59-.45-.84-.65c-.21-.16-.43-.32-.63-.49a.46.46,0,0,0-.39-.11c-.25.05-.51.07-.76.11h-.13a1,1,0,0,0,.3.27c.19.16.39.31.59.46l.55.41.42.33.19.14.77.6.82.62.11.09-.47.62c-.42-.28-.8-.61-1.24-.91,0,.27.07.52.1.77s.06.49.1.75l-.8.12c0-.09,0-.17,0-.25,0-.4-.11-.8-.16-1.2s-.07-.51-.1-.77a.29.29,0,0,0-.12-.22l-.65-.5-.13-.06c.05.53.14,1,.2,1.54s.14,1,.21,1.54a5.19,5.19,0,0,1-.79.12c0-.1,0-.18-.05-.27l-.24-1.77c-.07-.5-.13-1-.19-1.51,0-.1,0-.19-.05-.29a.18.18,0,0,0-.09-.16l-.78-.59a1,1,0,0,0,0,.38l.18,1.24c.06.5.13,1,.2,1.52s.11.77.16,1.16c0,.13,0,.26,0,.4l-.79.11c-.09-.49-.13-1-.23-1.47-.35.36-.61.78-.94,1.16l-.64-.49.05-.09.52-.67.47-.61c.12-.16.25-.32.37-.49a.19.19,0,0,0,0-.08l-.12-.89s0,0,0-.1l-.15.15-.72.94-.64.85-.35.46-.05,0a5.84,5.84,0,0,1-.64-.5l.21-.28.54-.7.43-.57.82-1.08.31-.38a.29.29,0,0,0,.08-.25c-.05-.3-.08-.59-.12-.89l0,0a.27.27,0,0,0-.08.07l-.43.57-.65.84-.66.87-.45.58-.54.71-.07.07-.64-.49.93-1.22a4.64,4.64,0,0,0-.77.09l-.76.09-.11-.81.67-.09,1.47-.2h.06a.28.28,0,0,0,.25-.13l.52-.68,0,0-.11,0-1,.14-.86.11-.87.12-.23,0-.11-.78a.36.36,0,0,1,.11,0l1.5-.2,1.08-.14,1.13-.15a.27.27,0,0,0,.2-.11c.18-.25.37-.5.58-.77l-.41,0-1.26.17-1.66.22-1.26.17c-.1,0-.11,0-.13-.1s-.06-.45-.1-.7l1.5-.2v0Zm4.64,2.53c.15.11.28.23.42.32a.35.35,0,0,1,.17.27,1.36,1.36,0,0,0,0,.2c0,.1,0,.22.07.32l.59-.07a.2.2,0,0,1,.17,0l.21.17.26.19a3.4,3.4,0,0,0,.3-.39.39.39,0,0,1,.34-.19,3.81,3.81,0,0,0,.47-.07c0-.21,0-.4-.07-.59a.2.2,0,0,1,0-.17l.26-.34.1-.16-.45-.33c-.06,0-.11-.09-.11-.18s-.05-.32-.07-.49l0-.11c-.16,0-.31,0-.46.06a.42.42,0,0,1-.4-.1l-.09-.06-.29-.23-.22.28c-.2.28-.2.28-.47.32h-.07l-.38.05,0,.07.06.48a.24.24,0,0,1,0,.23.53.53,0,0,0-.11.15Z"/><path class="cls-4" d="M177.19,235.86a1.51,1.51,0,0,1-.28,0c-.15,0-.22.08-.29.18l-.15.18-.12-.07a1.09,1.09,0,0,1-.17-.13.19.19,0,0,0-.18,0l-.33,0c0-.13,0-.25,0-.36a.2.2,0,0,0-.11-.16l-.26-.19.27-.37-.06-.43a1.18,1.18,0,0,1,.25,0,.35.35,0,0,0,.31-.18c0-.07.11-.13.17-.2l.13.11a.46.46,0,0,0,.48.13l.17,0a1.47,1.47,0,0,1,.05.26.32.32,0,0,0,.19.3.83.83,0,0,1,.19.15l-.15.2a.31.31,0,0,0-.1.3C177.17,235.65,177.17,235.74,177.19,235.86Z"/><path class="cls-2" d="M147.78,239.11a20.51,20.51,0,0,1-14.58-6L58.35,158.24a60.22,60.22,0,0,1,85.16-85.16l4.38,4.38,4.38-4.38a60.22,60.22,0,1,1,85.17,85.16L162.58,233.1a20.48,20.48,0,0,1-14.58,6Z"/><path d="M194.85,56a59.64,59.64,0,0,1,42.23,101.87l-74.85,74.85A20,20,0,0,1,148,238.61h-.22a20,20,0,0,1-14.22-5.87L58.7,157.89a59.72,59.72,0,0,1,84.46-84.46l4,4,.71.71.71-.71,4-4A59.29,59.29,0,0,1,194.85,56m0-1a60.52,60.52,0,0,0-42.93,17.71l-4,4-4-4a60.9,60.9,0,0,0-85.87,0h0a60.91,60.91,0,0,0,0,85.87l74.86,74.85a21,21,0,0,0,14.93,6.16H148a21,21,0,0,0,14.93-6.16l74.86-74.85a60.91,60.91,0,0,0,0-85.87h0A60.53,60.53,0,0,0,194.85,55Z"/></g><g id="background"><path class="cls-4" d="M237.79,72.73h0a60.89,60.89,0,0,0-85.87,0l-4,4-4-4a60.89,60.89,0,0,0-85.87,0h0a60.91,60.91,0,0,0,0,85.87l74.86,74.85a21.44,21.44,0,0,0,30.08,0l74.86-74.85A60.91,60.91,0,0,0,237.79,72.73Z"/><path class="cls-5" d="M191.13,184a7.5,7.5,0,0,1-2.26,5.43,7.71,7.71,0,0,1-10.89,0l-16-16a7.73,7.73,0,0,1,5-13.15,7.56,7.56,0,0,1,5.24,1.74s17,16.91,17.2,17.17a7.69,7.69,0,0,1,1.71,4.84Z"/><path class="cls-5" d="M208.33,170.3a7.45,7.45,0,0,1-2.26,5.43,7.71,7.71,0,0,1-8.89,1.47c-.75-.39-23.94-23.45-23.94-23.45a7.67,7.67,0,0,1,10.85-10.85s22.57,22.56,22.83,22.91v.05a7.85,7.85,0,0,1,1.41,4.44Z"/><path class="cls-5" d="M222.82,150.71a7.71,7.71,0,0,1-.95,9.72,7.82,7.82,0,0,1-9,1.37c-.68-.36-27.8-27.31-27.8-27.31a7.7,7.7,0,1,1,10.89-10.89"/><path class="cls-5" d="M227.46,145.74a7.69,7.69,0,0,0,9.62-11.9l-22-22a7.69,7.69,0,0,0-11.8,9.78"/><path class="cls-5" d="M147.4,96.25c-14.3-14.29-28.95-20-41.77-20A40,40,0,0,0,77.21,87.75c-14.43,14.39-18.45,41.38,5.8,67.54L132.9,105.9a3.32,3.32,0,0,1,4.64,0l2,2c5.4,5.4,15.37,5.69,22.24,1.21ZM85.88,143.68a3.38,3.38,0,0,1-4.58-.82C72,129.42,69.66,115.26,74.73,103a3.27,3.27,0,0,1,6,2.49c-4.19,10.15-2.09,22.08,5.92,33.59h0a3.34,3.34,0,0,1-.82,4.58ZM84,97.17a3.24,3.24,0,1,1,2.32-1,3.27,3.27,0,0,1-2.32,1Z"/><path class="cls-5" d="M233.28,120.76l-13.53-13.51a14.33,14.33,0,0,0-20.17,0,14.55,14.55,0,0,0-4.07,8.44,14.24,14.24,0,0,0-18.31,18.47,14.24,14.24,0,0,0-11.64,19.69,14.67,14.67,0,0,0-8.25,4.09,14.3,14.3,0,0,0,0,20.15l16,16a15.74,15.74,0,0,0,1.89,1.57l-28.35,27.85h0a8.43,8.43,0,0,1-11.52-11.89l21.43-21.42a3.26,3.26,0,0,0,.95-2.31,3.27,3.27,0,0,0-5.59-2.31l-21.82,21.78v0A8.46,8.46,0,0,1,117.87,196c.06,0,21.78-22,21.78-22h0a3.27,3.27,0,0,0,1-2.31,3.32,3.32,0,0,0-1-2.31,3.27,3.27,0,0,0-4.63,0l-21.82,22h0a8.43,8.43,0,0,1-11.93-11.9c0-.07,22.14-22.18,22.14-22.18a3.26,3.26,0,0,0-4.61-4.61L96.61,174.84h0a8.45,8.45,0,0,1-12.33-11.48c.2-.22,50.92-50.49,50.92-50.49,8.77,8.34,24.79,7.75,33.89-1.34a3.29,3.29,0,0,0-.13-4.75l-14.56-13c22.47-20.8,45.07-20.18,59.07-12.36a39.32,39.32,0,0,1,19.81,39.38Z"/></g><g id="words"><g class="cls-6"><path d="M150.22,228.51a.85.85,0,0,1-1.2,0L146.5,226a1.17,1.17,0,0,1-.34-.66,1.31,1.31,0,0,1,.09-.73l6.35-14.87-15,6.39a1.52,1.52,0,0,1-.73.09,1.15,1.15,0,0,1-.65-.34l-2.53-2.52a.85.85,0,0,1-.24-.78A.71.71,0,0,1,134,212l20.42-8.34a1.21,1.21,0,0,1,1.35.28l2.73,2.6a1.19,1.19,0,0,1,.29,1.35l-8.35,20.41A.59.59,0,0,1,150.22,228.51Z"/><path d="M113.27,217.17a1.35,1.35,0,0,1-1-.43L81.15,185.63a2.89,2.89,0,0,1,0-4.11l8.94-8.94a15.06,15.06,0,0,1,6.74-4,14.81,14.81,0,0,1,7.65-.09,14.41,14.41,0,0,1,10.73,12,14.63,14.63,0,0,1-1.65,9.06l20.21,4.35a1.77,1.77,0,0,1,.86.48,1.29,1.29,0,0,1,.41,1,1.56,1.56,0,0,1-.5,1.08l-3.92,3.92a2,2,0,0,1-1.91.57L108,196.14l-2.34,2.35,12.43,12.42a1.43,1.43,0,0,1,.43,1,1.4,1.4,0,0,1-.43,1l-3.83,3.82A1.35,1.35,0,0,1,113.27,217.17Zm-8.22-29.06a7.09,7.09,0,0,0,2.25-5,6.54,6.54,0,0,0-2.06-4.87,6.71,6.71,0,0,0-4.95-2.13,7,7,0,0,0-5,2.22l-4.88,4.88,9.75,9.75Z"/><path d="M141.61,188.21a2.81,2.81,0,0,1-2.05-.86l-30.07-30.06a2.89,2.89,0,0,1,0-4.11l16.3-16.3a1.39,1.39,0,0,1,2,0l3.58,3.58a1.39,1.39,0,0,1,0,2L118.86,155l8.13,8.13,9.32-9.32a1.38,1.38,0,0,1,2,0l3.4,3.39a1.37,1.37,0,0,1,.43,1,1.4,1.4,0,0,1-.43,1l-9.32,9.32,9.46,9.46,12.52-12.52a1.39,1.39,0,0,1,1-.43,1.36,1.36,0,0,1,1,.43L160,169a1.43,1.43,0,0,1,.43,1,1.4,1.4,0,0,1-.43,1l-16.3,16.3A2.83,2.83,0,0,1,141.61,188.21Z"/><path d="M171,157.86a17.86,17.86,0,0,1-9.18,0,17.39,17.39,0,0,1-8-4.64L143.62,143a17.43,17.43,0,0,1-4.64-8,18,18,0,0,1,0-9.17,17.43,17.43,0,0,1,4.64-8,20.28,20.28,0,0,1,6.67-4.52,16.87,16.87,0,0,1,7.53-1.27,1.71,1.71,0,0,1,1.1.53,2.18,2.18,0,0,1,.57,1.34l.09,4.3a1.51,1.51,0,0,1-.38,1.14,1.61,1.61,0,0,1-1.29.44,11.38,11.38,0,0,0-8.65,3.58,9.15,9.15,0,0,0-2.44,4.35,10,10,0,0,0,.08,5.09,9.7,9.7,0,0,0,2.55,4.42l10.18,10.18a9.83,9.83,0,0,0,4.42,2.56,10,10,0,0,0,5.09.07,9.07,9.07,0,0,0,4.35-2.44,9.58,9.58,0,0,0,2.49-9.27,9.61,9.61,0,0,0-2.53-4.35l-2.35-2.34-6.4,6.4a1.41,1.41,0,0,1-1,.44,1.38,1.38,0,0,1-1-.44l-3.44-3.44a1.38,1.38,0,0,1,0-2l10.08-10.09a2.9,2.9,0,0,1,4.12,0L179,128a17.44,17.44,0,0,1,4.64,8,18.08,18.08,0,0,1,0,9.18A17.81,17.81,0,0,1,171,157.86Z"/><path d="M197.3,132.53a2.82,2.82,0,0,1-2.06-.86L165.18,101.6a2.76,2.76,0,0,1-.86-2,2.8,2.8,0,0,1,.86-2.06l16.29-16.3a1.43,1.43,0,0,1,1-.43,1.36,1.36,0,0,1,1,.44l3.59,3.58a1.39,1.39,0,0,1,0,2L174.54,99.31l8.13,8.12L192,98.12a1.37,1.37,0,0,1,1-.44,1.41,1.41,0,0,1,1,.43l3.39,3.4a1.35,1.35,0,0,1,.43,1,1.39,1.39,0,0,1-.43,1l-9.32,9.31,9.46,9.47,12.53-12.52a1.38,1.38,0,0,1,2,0l3.59,3.58a1.39,1.39,0,0,1,0,2l-16.3,16.3A2.81,2.81,0,0,1,197.3,132.53Z"/><path d="M223.25,107.2a1.4,1.4,0,0,1-1-.44L190.46,75a2,2,0,0,1,0-2.77l3.92-3.92a2.09,2.09,0,0,1,2-.57l30.87,7.93,6.31,1.72L210.44,54.24a1.39,1.39,0,0,1,0-2l3.44-3.44a1.39,1.39,0,0,1,2,0l31.78,31.78a1.93,1.93,0,0,1,.58,1.39,1.89,1.89,0,0,1-.58,1.38l-4,4a2.11,2.11,0,0,1-2,.58l-31.93-8.22-5.11-1.39,23,23a1.37,1.37,0,0,1,.46,1,1.43,1.43,0,0,1-.46,1l-3.44,3.45A1.39,1.39,0,0,1,223.25,107.2Z"/><path d="M176,208.61a1.89,1.89,0,0,1-1.39-.58l-20.39-20.39a1.89,1.89,0,0,1-.58-1.39,1.91,1.91,0,0,1,.58-1.4l6.35-6.35a12.44,12.44,0,0,1,12.24-3.29,12.71,12.71,0,0,1,5.75,3.39l5.09,5.09a12.8,12.8,0,0,1,3.39,5.75,12.41,12.41,0,0,1-3.29,12.23L177.35,208A2,2,0,0,1,176,208.61ZM179.74,198a7,7,0,0,0,1.88-3.27,7.26,7.26,0,0,0,0-3.76,7.1,7.1,0,0,0-1.91-3.3l-5.25-5.25a7.12,7.12,0,0,0-3.27-1.89,7.48,7.48,0,0,0-3.76,0,7.23,7.23,0,0,0-3.28,1.88l-3.63,3.63,15.59,15.59Z"/><path d="M197.08,187.48a1.9,1.9,0,0,1-1.39-.59L175.3,166.51a1.93,1.93,0,0,1-.58-1.39,2,2,0,0,1,.58-1.4l11-11.05a1,1,0,0,1,.69-.29.93.93,0,0,1,.68.29l2.43,2.43a.94.94,0,0,1,0,1.36L181.66,165l5.51,5.51,6.32-6.32a.94.94,0,0,1,.68-.29,1,1,0,0,1,.68.29l2.3,2.3a1,1,0,0,1,.29.68.94.94,0,0,1-.29.68l-6.32,6.32,6.42,6.42,8.49-8.49a.94.94,0,0,1,.68-.29,1,1,0,0,1,.68.29l2.43,2.43a1,1,0,0,1,.29.68.94.94,0,0,1-.29.68l-11.05,11A1.92,1.92,0,0,1,197.08,187.48Z"/><path d="M217,166.9a12.18,12.18,0,0,1-6.23,0,11.74,11.74,0,0,1-5.44-3.15l-6.91-6.9a11.83,11.83,0,0,1-3.14-5.45,12.14,12.14,0,0,1,0-6.22,11.8,11.8,0,0,1,3.14-5.44,14,14,0,0,1,4.53-3.07,11.35,11.35,0,0,1,5.1-.85,1.19,1.19,0,0,1,.75.35,1.49,1.49,0,0,1,.38.91l.07,2.92a1.05,1.05,0,0,1-.26.77,1.09,1.09,0,0,1-.87.3,7.67,7.67,0,0,0-5.87,2.43,6.14,6.14,0,0,0-1.65,2.95,6.8,6.8,0,0,0,1.78,6.45l6.9,6.9a6.63,6.63,0,0,0,3,1.73,6.73,6.73,0,0,0,3.45.05,6.14,6.14,0,0,0,2.95-1.65,6.5,6.5,0,0,0,1.69-6.29,6.66,6.66,0,0,0-1.72-2.95l-1.59-1.59-4.34,4.35a1,1,0,0,1-.68.29.94.94,0,0,1-.68-.29L209,151.11a.94.94,0,0,1-.29-.68,1,1,0,0,1,.29-.68l6.84-6.84a2,2,0,0,1,2.79,0l3.76,3.76a11.83,11.83,0,0,1,3.14,5.45,12.14,12.14,0,0,1,0,6.22A12.09,12.09,0,0,1,217,166.9Z"/><path d="M234.84,149.72a1.89,1.89,0,0,1-1.39-.58l-20.39-20.39a1.89,1.89,0,0,1-.58-1.39,1.91,1.91,0,0,1,.58-1.4l11.05-11a1,1,0,0,1,.68-.29,1,1,0,0,1,.69.29l2.43,2.43a1,1,0,0,1,.29.68.94.94,0,0,1-.29.68l-8.5,8.49,5.51,5.51,6.32-6.32a1,1,0,0,1,.69-.29.93.93,0,0,1,.67.29l2.31,2.31a.94.94,0,0,1,.29.68,1,1,0,0,1-.29.68l-6.32,6.32,6.41,6.41,8.5-8.49a.94.94,0,0,1,.68-.29,1,1,0,0,1,.68.29l2.43,2.43a1,1,0,0,1,.29.68.94.94,0,0,1-.29.68l-11.06,11.06A1.87,1.87,0,0,1,234.84,149.72Z"/><path d="M252.44,132.54a.9.9,0,0,1-.68-.29L230.21,110.7a1.29,1.29,0,0,1-.39-.94,1.28,1.28,0,0,1,.39-.94l2.65-2.66a1.43,1.43,0,0,1,1.37-.39l20.93,5.38,4.28,1.17L243.75,96.63a.94.94,0,0,1-.29-.68.91.91,0,0,1,.3-.68l2.33-2.33a.92.92,0,0,1,1.36,0L269,114.49a1.33,1.33,0,0,1,0,1.88l-2.69,2.69a1.41,1.41,0,0,1-1.36.39l-21.65-5.58-3.47-.94,15.62,15.63a.88.88,0,0,1,.31.69,1,1,0,0,1-.31.67l-2.33,2.33A.9.9,0,0,1,252.44,132.54Z"/></g></g></svg>