<svg xmlns="http://www.w3.org/2000/svg" xmlns:xlink="http://www.w3.org/1999/xlink" viewBox="0 0 283.46 283.46"><defs><style>.cls-1,.cls-4{fill:none;}.cls-2{fill:#6f3ff4;}.cls-3{fill:#02e1ab;}.cls-4{stroke:#000;stroke-miterlimit:10;}.cls-5{fill:#b2ffec;}.cls-6{clip-path:url(#clip-path);}</style><clipPath id="clip-path"><path class="cls-1" d="M204.72,98.24l-24,10.09a47.8,47.8,0,0,0-79.65,33.51l-22.19,9.33A19.81,19.81,0,0,0,68.35,177h0a19.81,19.81,0,0,0,25.86,10.54l21.61-9.09a47.78,47.78,0,0,0,80.79-34L220,134.64a19.81,19.81,0,0,0,10.55-25.86h0A19.81,19.81,0,0,0,204.72,98.24Z"/></clipPath></defs><g id="profile"><path class="cls-2" d="M95.67,207.14a3.15,3.15,0,0,1-.8-.4.1.1,0,0,1-.06-.08.14.14,0,0,1,0-.11l.29-.52a.15.15,0,0,1,.16-.1.27.27,0,0,1,.12,0,2.19,2.19,0,0,0,1.15.39,1.05,1.05,0,0,0,.69-.21.68.68,0,0,0,.25-.55.57.57,0,0,0-.12-.37A.87.87,0,0,0,97,205a6.47,6.47,0,0,0-.6-.27l-.24-.1a3,3,0,0,1-.94-.61,1.44,1.44,0,0,1-.39-1.09,1.76,1.76,0,0,1,.23-.89,1.52,1.52,0,0,1,.63-.6,2,2,0,0,1,.93-.21,2.64,2.64,0,0,1,.87.14,2.87,2.87,0,0,1,.78.4.15.15,0,0,1,.06.09.14.14,0,0,1,0,.11l-.27.52a.19.19,0,0,1-.16.1.19.19,0,0,1-.12,0,2.85,2.85,0,0,0-.62-.29,1.78,1.78,0,0,0-.52-.09.81.81,0,0,0-.59.2.68.68,0,0,0-.21.51.73.73,0,0,0,.23.54,2.7,2.7,0,0,0,.76.42l.56.23a1.73,1.73,0,0,1,.78.59,1.44,1.44,0,0,1,.29.91,1.72,1.72,0,0,1-.24.91,1.57,1.57,0,0,1-.68.62,2.18,2.18,0,0,1-1,.23A2.71,2.71,0,0,1,95.67,207.14Z"/><path class="cls-2" d="M100.52,207a2.11,2.11,0,0,1-.78-.79,2.14,2.14,0,0,1-.29-1.09v-1.76a2.18,2.18,0,0,1,1.07-1.88,2,2,0,0,1,1.07-.29,2.46,2.46,0,0,1,.94.18,2.12,2.12,0,0,1,.74.54.24.24,0,0,1,0,.14.29.29,0,0,1-.06.17l-.37.38a.19.19,0,0,1-.13.06.21.21,0,0,1-.15-.07,1.3,1.3,0,0,0-1-.44,1.06,1.06,0,0,0-.57.17,1.16,1.16,0,0,0-.41.44,1.17,1.17,0,0,0-.16.6v1.76a1.15,1.15,0,0,0,.16.6,1.19,1.19,0,0,0,.41.45,1,1,0,0,0,.57.16,1.27,1.27,0,0,0,1-.44.23.23,0,0,1,.14-.07.17.17,0,0,1,.14.07l.37.38a.21.21,0,0,1,0,.29,2.15,2.15,0,0,1-.75.55,2.47,2.47,0,0,1-.94.19A2,2,0,0,1,100.52,207Z"/><path class="cls-2" d="M104.44,207.14a.15.15,0,0,1,0-.12v-5.55a.17.17,0,0,1,.17-.18h.66a.17.17,0,0,1,.17.18v2.22h2.44v-2.22a.21.21,0,0,1,0-.13.19.19,0,0,1,.13-.05h.66a.18.18,0,0,1,.12.05.21.21,0,0,1,0,.13V207a.17.17,0,0,1-.17.17H108a.19.19,0,0,1-.13-.05.18.18,0,0,1,0-.12v-2.38h-2.44V207a.15.15,0,0,1,0,.12.17.17,0,0,1-.12.05h-.66A.17.17,0,0,1,104.44,207.14Z"/><path class="cls-2" d="M110.25,207.09a.35.35,0,0,1-.1-.26v-5.18a.33.33,0,0,1,.1-.25.34.34,0,0,1,.25-.11h2.81a.19.19,0,0,1,.13.05.21.21,0,0,1,0,.13v.61a.17.17,0,0,1,0,.13.19.19,0,0,1-.13,0h-2.16v1.4h1.61a.21.21,0,0,1,.13.05.17.17,0,0,1,0,.12v.59a.17.17,0,0,1,0,.12.21.21,0,0,1-.13.05h-1.61v1.63h2.16a.19.19,0,0,1,.13.05.21.21,0,0,1,0,.13V207a.18.18,0,0,1,0,.12.19.19,0,0,1-.13.05H110.5A.37.37,0,0,1,110.25,207.09Z"/><path class="cls-2" d="M114.73,207.09a.35.35,0,0,1-.1-.26v-5.36a.17.17,0,0,1,.17-.18h.66a.17.17,0,0,1,.17.18v4.75h1.91a.19.19,0,0,1,.13.05.21.21,0,0,1,0,.13V207a.18.18,0,0,1,0,.12.19.19,0,0,1-.13.05H115A.37.37,0,0,1,114.73,207.09Z"/><path class="cls-2" d="M118.73,207.09a.36.36,0,0,1-.11-.26v-5.36a.17.17,0,0,1,.18-.18h.66a.17.17,0,0,1,.12.05.21.21,0,0,1,0,.13v4.75h1.91a.17.17,0,0,1,.18.18V207a.18.18,0,0,1,0,.12.21.21,0,0,1-.13.05H119A.37.37,0,0,1,118.73,207.09Z"/><path class="cls-2" d="M122.5,207.14a.18.18,0,0,1,0-.12v-.57a.21.21,0,0,1,0-.13.17.17,0,0,1,.12,0h.71v-4.06h-.71a.17.17,0,0,1-.12-.05.18.18,0,0,1,0-.12v-.57a.21.21,0,0,1,0-.13.17.17,0,0,1,.12-.05H125a.17.17,0,0,1,.18.18V202a.18.18,0,0,1,0,.12.21.21,0,0,1-.13.05h-.7v4.06h.7a.17.17,0,0,1,.18.18V207a.18.18,0,0,1,0,.12.21.21,0,0,1-.13.05h-2.41A.17.17,0,0,1,122.5,207.14Z"/><path class="cls-2" d="M126.38,207.14a.18.18,0,0,1,0-.12v-5.49a.24.24,0,0,1,.24-.24h.68a.24.24,0,0,1,.22.13l2,3.35.4.69v-4a.17.17,0,0,1,.17-.18h.59a.17.17,0,0,1,.18.18V207a.26.26,0,0,1-.07.17.23.23,0,0,1-.17.07h-.69a.25.25,0,0,1-.22-.13l-2-3.46-.33-.56v4a.16.16,0,0,1,0,.12.21.21,0,0,1-.13.05h-.59A.21.21,0,0,1,126.38,207.14Z"/><path class="cls-2" d="M133.08,207a2.16,2.16,0,0,1-1.08-1.88v-1.76a2.17,2.17,0,0,1,.29-1.09,2.22,2.22,0,0,1,.79-.79,2.11,2.11,0,0,1,1.1-.29,2.56,2.56,0,0,1,1,.18,2.19,2.19,0,0,1,.76.54.24.24,0,0,1,0,.14.25.25,0,0,1-.07.17l-.36.38a.19.19,0,0,1-.13.06.18.18,0,0,1-.15-.07,1.41,1.41,0,0,0-1.06-.44,1.12,1.12,0,0,0-.58.17,1.14,1.14,0,0,0-.43.44,1.19,1.19,0,0,0-.17.6v1.76a1.29,1.29,0,0,0,.6,1,1.15,1.15,0,0,0,1.17,0,1.15,1.15,0,0,0,.43-.42,1.24,1.24,0,0,0,.15-.6v-.4h-1.1a.17.17,0,0,1-.12-.05.14.14,0,0,1,0-.13V204a.17.17,0,0,1,.17-.17H136a.34.34,0,0,1,.35.35v1a2,2,0,0,1-.29,1.09,2.07,2.07,0,0,1-.79.79,2,2,0,0,1-1.08.3A2.12,2.12,0,0,1,133.08,207Z"/><path class="cls-2" d="M139.54,207.14a.18.18,0,0,1,0-.12v-5.37a.38.38,0,0,1,.36-.36h1.47a1.92,1.92,0,0,1,1,.26,2,2,0,0,1,.7.69,1.88,1.88,0,0,1,0,1.91,2,2,0,0,1-.7.69,1.91,1.91,0,0,1-1,.25h-.82V207a.18.18,0,0,1-.05.12.17.17,0,0,1-.12.05h-.66A.21.21,0,0,1,139.54,207.14Zm1.74-3a1,1,0,0,0,.67-.28.93.93,0,0,0,.28-.68.91.91,0,0,0-.28-.67,1,1,0,0,0-.67-.28h-.78v1.91Z"/><path class="cls-2" d="M145.28,207a2.2,2.2,0,0,1-1.09-1.88v-1.76a2.08,2.08,0,0,1,.3-1.09,2.14,2.14,0,0,1,.79-.79,2.11,2.11,0,0,1,1.1-.29,2.16,2.16,0,0,1,1.89,1.08,2.07,2.07,0,0,1,.29,1.09v1.76a2,2,0,0,1-.29,1.09,2.07,2.07,0,0,1-.79.79,2.14,2.14,0,0,1-1.1.3A2.12,2.12,0,0,1,145.28,207Zm1.68-.83a1.19,1.19,0,0,0,.44-.45,1.25,1.25,0,0,0,.16-.6v-1.76a1.28,1.28,0,0,0-.16-.6,1.16,1.16,0,0,0-.44-.44,1.09,1.09,0,0,0-.58-.17,1.15,1.15,0,0,0-.59.17,1.21,1.21,0,0,0-.43.44,1.17,1.17,0,0,0-.16.6v1.76a1.15,1.15,0,0,0,.16.6,1.24,1.24,0,0,0,.43.45,1.14,1.14,0,0,0,.59.16A1.08,1.08,0,0,0,147,206.17Z"/><path class="cls-2" d="M149.4,207.14a.15.15,0,0,1-.05-.12v-.57a.17.17,0,0,1,.17-.18h.7v-4.06h-.7a.17.17,0,0,1-.12-.05.15.15,0,0,1-.05-.12v-.57a.17.17,0,0,1,.17-.18h2.41a.17.17,0,0,1,.12.05.21.21,0,0,1,0,.13V202a.18.18,0,0,1,0,.12.17.17,0,0,1-.12.05h-.7v4.06h.7a.17.17,0,0,1,.12,0,.21.21,0,0,1,0,.13V207a.18.18,0,0,1,0,.12.17.17,0,0,1-.12.05h-2.41A.17.17,0,0,1,149.4,207.14Z"/><path class="cls-2" d="M153.28,207.14a.18.18,0,0,1-.05-.12v-5.49a.23.23,0,0,1,.07-.17.26.26,0,0,1,.17-.07h.68a.25.25,0,0,1,.22.13l2,3.35.39.69v-4a.17.17,0,0,1,.18-.18h.59a.17.17,0,0,1,.17.18V207a.22.22,0,0,1-.07.17.21.21,0,0,1-.17.07h-.68a.24.24,0,0,1-.22-.13l-2-3.46-.32-.56v4a.17.17,0,0,1-.17.17h-.6A.17.17,0,0,1,153.28,207.14Z"/><path class="cls-2" d="M160.29,207.14a.18.18,0,0,1,0-.12v-4.76h-1.39a.18.18,0,0,1-.12,0,.17.17,0,0,1,0-.13v-.61a.21.21,0,0,1,0-.13.18.18,0,0,1,.12-.05h3.78a.17.17,0,0,1,.17.18v.61a.14.14,0,0,1-.05.13.17.17,0,0,1-.12,0h-1.38V207a.18.18,0,0,1-.05.12.21.21,0,0,1-.13.05h-.66A.17.17,0,0,1,160.29,207.14Z"/><path class="cls-2" d="M165.7,207.09a.33.33,0,0,1-.1-.25v-.66a2.57,2.57,0,0,1,.17-1,1.76,1.76,0,0,1,.54-.65c.24-.18.65-.44,1.22-.78a1.16,1.16,0,0,0,.43-.38.83.83,0,0,0,.14-.46.72.72,0,0,0-.23-.56.93.93,0,0,0-.63-.2,2,2,0,0,0-1,.31.2.2,0,0,1-.11,0,.19.19,0,0,1-.15-.1l-.27-.49a.31.31,0,0,1,0-.08.15.15,0,0,1,.07-.14,2.59,2.59,0,0,1,.75-.35,3,3,0,0,1,.85-.12,1.77,1.77,0,0,1,1.29.44,1.63,1.63,0,0,1,.47,1.22,1.65,1.65,0,0,1-.28,1,3.53,3.53,0,0,1-.93.81,3.25,3.25,0,0,1-.33.19l-.54.36a1.28,1.28,0,0,0-.31.35.81.81,0,0,0-.13.47v.24h2.15a.17.17,0,0,1,.12.05.19.19,0,0,1,0,.13V207a.18.18,0,0,1,0,.12.17.17,0,0,1-.12.05H166A.37.37,0,0,1,165.7,207.09Z"/><path class="cls-2" d="M170.5,206.52a5.17,5.17,0,0,1,0-4.56,2,2,0,0,1,3.11,0,5.28,5.28,0,0,1,0,4.57,1.95,1.95,0,0,1-3.11,0Zm2.17-.38a1.32,1.32,0,0,0,.33-.67,6.93,6.93,0,0,0,0-2.46,1.32,1.32,0,0,0-.33-.67.94.94,0,0,0-.62-.2.85.85,0,0,0-.61.21,1.25,1.25,0,0,0-.34.68,5.78,5.78,0,0,0-.11,1.24,3.68,3.68,0,0,0,.25,1.6.86.86,0,0,0,.82.49A.85.85,0,0,0,172.67,206.14Z"/><path class="cls-2" d="M175.12,207.09a.33.33,0,0,1-.1-.25v-.66a2.41,2.41,0,0,1,.17-1,1.59,1.59,0,0,1,.54-.65,13.93,13.93,0,0,1,1.22-.78,1.25,1.25,0,0,0,.43-.38.82.82,0,0,0,.13-.46.72.72,0,0,0-.22-.56.93.93,0,0,0-.63-.2,2,2,0,0,0-1,.31.23.23,0,0,1-.11,0,.16.16,0,0,1-.15-.1l-.27-.49a.15.15,0,0,1,.05-.22,2.65,2.65,0,0,1,.74-.35,3.13,3.13,0,0,1,.86-.12,1.77,1.77,0,0,1,1.29.44,1.62,1.62,0,0,1,.46,1.22,1.58,1.58,0,0,1-.28,1,3.31,3.31,0,0,1-.92.81,3.25,3.25,0,0,1-.33.19l-.54.36a1.32,1.32,0,0,0-.32.35.89.89,0,0,0-.12.47v.24h2.14a.21.21,0,0,1,.13.05.19.19,0,0,1,.05.13V207a.18.18,0,0,1-.05.12.21.21,0,0,1-.13.05h-2.76A.37.37,0,0,1,175.12,207.09Z"/><path class="cls-2" d="M179.42,207.09a.34.34,0,0,1-.11-.25v-.66a2.57,2.57,0,0,1,.17-1,1.76,1.76,0,0,1,.54-.65c.24-.18.65-.44,1.22-.78a1.16,1.16,0,0,0,.43-.38.83.83,0,0,0,.14-.46.72.72,0,0,0-.23-.56.93.93,0,0,0-.63-.2,2,2,0,0,0-1,.31.2.2,0,0,1-.11,0,.16.16,0,0,1-.14-.1l-.28-.49a.31.31,0,0,1,0-.08.15.15,0,0,1,.07-.14,2.59,2.59,0,0,1,.75-.35,3.06,3.06,0,0,1,.85-.12,1.77,1.77,0,0,1,1.29.44,1.63,1.63,0,0,1,.47,1.22,1.58,1.58,0,0,1-.28,1,3.64,3.64,0,0,1-.92.81l-.33.19-.55.36a1.47,1.47,0,0,0-.31.35.89.89,0,0,0-.13.47v.24h2.15a.17.17,0,0,1,.12.05.15.15,0,0,1,0,.13V207a.15.15,0,0,1,0,.12.17.17,0,0,1-.12.05h-2.76A.36.36,0,0,1,179.42,207.09Z"/><path class="cls-2" d="M81.91,198.05l.81-.11c0,.13,0,.24.06.35l.12.92c0,.3.08.61.11.91a.37.37,0,0,0,.17.28c.2.13.37.29.56.43l.13.09a11,11,0,0,0-.17-1.54c-.08-.51-.13-1-.2-1.55l.81-.1.52,3.94.84.64,0,0,0-.27a1.69,1.69,0,0,0,0-.23s0-.06,0-.08a8.22,8.22,0,0,1-.17-1.09l-.15-1.1-.09-.72c0-.2-.06-.39-.08-.58s0-.34-.07-.51a.34.34,0,0,1,0-.09l.78-.1.21,1.54c.33-.41.62-.82,1-1.23l.62.47s0,.07,0,.11l-1.07,1.39-.23.31a.29.29,0,0,0-.06.22c0,.27.08.55.12.83a.58.58,0,0,0,0,.14l1.91-2.5.63.49-.16.23c-.25.33-.51.66-.76,1s-.49.62-.73.94l-.7.93a.22.22,0,0,0,0,.13c0,.33.09.65.13,1,.13-.05.17-.16.24-.24s.23-.31.34-.46l.46-.6.75-1,.75-1c.11-.13.21-.27.31-.4s0,0,.06-.05l.62.48c-.29.41-.61.79-.91,1.22a4.42,4.42,0,0,0,.75-.08c.25,0,.5-.07.76-.1,0,.26.09.52.11.8l-.4.06-.9.12-.92.12a.19.19,0,0,0-.17.08c-.19.25-.39.5-.58.76,0,0,0,0,0,0,.53,0,1-.13,1.56-.19l1.55-.21.1.8-.61.09-.71.09-.75.1-.85.11-.9.12a.25.25,0,0,0-.18.1l-.54.71,0,.09,4.68-.62c0,.16,0,.3.07.44l0,.35c-.5.1-1,.13-1.49.22v0l1.2.92-.48.64-.22-.15-.75-.58-.77-.6a.37.37,0,0,0-.31-.09c-.28.05-.57.08-.86.11l-.07,0c.41.35.83.65,1.24,1l1.25,1-.49.64-.38-.28-.84-.65-1.13-.86-.73-.57a.31.31,0,0,0-.19,0l-.52.07-.43.06,0,.07,1.11.85.9.69,1,.76.7.54-.49.64c-.42-.3-.8-.63-1.24-.94l.21,1.53c-.27.06-.53.08-.81.12,0-.15,0-.28-.06-.41,0-.3-.07-.61-.11-.91s-.09-.64-.13-1c0,0,0-.08,0-.1-.26-.21-.54-.42-.81-.62h0l.41,3.07a3.7,3.7,0,0,1-.81.13l-.06-.42-.09-.7-.09-.74c0-.35-.1-.71-.14-1.06s-.08-.52-.1-.79a.43.43,0,0,0-.2-.35c-.21-.14-.41-.31-.61-.46l-.09-.1a.88.88,0,0,0,0,.4c0,.25.06.5.1.74l.09.68c0,.18,0,.36.06.53s0,.16,0,.24l.12,1c.05.34.09.68.14,1,0,0,0,.08,0,.14l-.78.1c-.1-.49-.12-1-.22-1.52-.18.21-.33.41-.48.61l-.46.61-.65-.48.15-.21.74-1,.47-.61a.3.3,0,0,0,.07-.24c0-.27-.07-.54-.11-.82l0-.13c-.35.41-.64.83-1,1.23s-.62.82-.93,1.24a6.42,6.42,0,0,1-.65-.48c.06-.08.1-.15.16-.22l1.08-1.43.93-1.2c.06-.08.11-.16.17-.23a.21.21,0,0,0,0-.18c0-.32-.09-.64-.13-1a.83.83,0,0,0-.25.28c-.26.33-.5.66-.76,1l-.93,1.22-.71.93c-.07.11-.16.2-.25.32l-.64-.49c.29-.41.6-.78.88-1.2-.5,0-1,.12-1.48.16l-.11-.8.09,0,.84-.11.77-.1.61-.08a.13.13,0,0,0,.07,0l.55-.72,0-.09h-.2l-1.18.16-1.06.14-.57.08s0,0-.06,0a4.17,4.17,0,0,1-.09-.8l.34-.05.87-.11.71-.1,1.34-.18.49-.06a.31.31,0,0,0,.24-.12c.17-.24.36-.47.54-.71v0a.21.21,0,0,0-.11,0l-.71.1-1,.13-1.08.15-.72.09-.89.13h-.1l-.11-.8,1.52-.21a6,6,0,0,0-.6-.48l-.61-.47.5-.65.53.41,1.18.9a.1.1,0,0,1,0,0,.3.3,0,0,0,.27.08c.28-.05.56-.08.84-.11l.06,0a.27.27,0,0,0-.07-.08l-.82-.63-.69-.53-.69-.53-.18-.15.47-.63.11,0,1.2.92.87.67.9.69a.27.27,0,0,0,.21.07l1-.14-.32-.26-1-.78-1.32-1-1-.78c-.07-.06-.08-.08,0-.16l.43-.57,1.2.92,0,0Zm1.49,5.06c0,.19,0,.36.08.53a.38.38,0,0,1-.08.31,1.58,1.58,0,0,0-.12.15c-.06.1-.17.16-.18.29l.46.35a.2.2,0,0,1,.09.16l0,.27.06.32a3.46,3.46,0,0,0,.48-.07.41.41,0,0,1,.38.11c.12.1.24.18.38.28l.37-.47a.21.21,0,0,1,.15-.09l.42-.06a.65.65,0,0,0,.18,0c0-.19,0-.37-.08-.55a.23.23,0,0,1,0-.2c.11-.13.2-.27.3-.4l.06-.1c-.13-.1-.24-.2-.36-.28a.41.41,0,0,1-.22-.36s0-.07,0-.1l-.06-.37-.35,0c-.33.06-.33.06-.55-.1l-.06,0-.3-.23,0,.07c-.1.13-.19.26-.29.38a.25.25,0,0,1-.2.13l-.18,0Z"/><path class="cls-3" d="M84.9,205.21a1.25,1.25,0,0,1-.22-.16.36.36,0,0,0-.34-.08l-.23,0c0-.05,0-.1,0-.14a1.49,1.49,0,0,1,0-.21c0-.07,0-.11-.1-.16a2.39,2.39,0,0,1-.26-.21l.22-.29a.23.23,0,0,0,0-.18,2.88,2.88,0,0,1,0-.33l.45-.07.26-.34a1.13,1.13,0,0,1,.21.15.34.34,0,0,0,.35.08l.25,0c0,.07,0,.12,0,.17a.47.47,0,0,0,.25.44.58.58,0,0,1,.13.11l-.15.21a.31.31,0,0,0-.07.35,1.52,1.52,0,0,1,0,.23,1.18,1.18,0,0,1-.25,0,.34.34,0,0,0-.28.14A1.8,1.8,0,0,1,84.9,205.21Z"/><path class="cls-4" d="M238.42,105.49a28.32,28.32,0,0,0-37-15.09l-19.31,8.12a56.33,56.33,0,0,0-83.2,19.37A55.67,55.67,0,0,0,93.09,136L75.6,143.33a28.23,28.23,0,0,0,.29,52.18h0a1.23,1.23,0,0,1,.48,2,10.12,10.12,0,0,0-2.51,6.67h0a10.23,10.23,0,0,0,10.2,10.2h95.61a10.23,10.23,0,0,0,10.2-10.2h0a10.23,10.23,0,0,0-10.2-10.19h0a1.36,1.36,0,0,1-.71-2.51,56.22,56.22,0,0,0,25.79-41.14l18.56-7.81a28.31,28.31,0,0,0,15.09-37Z"/></g><g id="background"><path class="cls-5" d="M204.72,98.24l-24,10.09a47.8,47.8,0,0,0-79.65,33.51l-22.19,9.33A19.81,19.81,0,0,0,68.35,177h0a19.81,19.81,0,0,0,25.86,10.54l21.61-9.09a47.78,47.78,0,0,0,80.79-34L220,134.64a19.81,19.81,0,0,0,10.55-25.86h0A19.81,19.81,0,0,0,204.72,98.24Z"/><path class="cls-3" d="M78.06,174a3.45,3.45,0,0,0,1.9,1.85,3.5,3.5,0,0,0,2.66,0l1.8-.78a10.08,10.08,0,0,0,5.18,4.66h0a10,10,0,0,0,7.76-.1l9.44-4.05A10.23,10.23,0,0,0,112.43,163l3.6-1.54a10,10,0,0,0,5.17,4.65h0A10.09,10.09,0,0,0,129,166l9.44-4a10.22,10.22,0,0,0,5.6-12.58,3.46,3.46,0,0,0-2.76-6.27A10,10,0,0,0,136,138.4h0a10.12,10.12,0,0,0-7.81.14l-9.4,4.12a10.22,10.22,0,0,0-5.58,12.47l-3.6,1.55a10,10,0,0,0-5.2-4.7h0a10.08,10.08,0,0,0-7.81.13l-9.4,4.13a10.21,10.21,0,0,0-5.58,12.47l-1.75.75h0A3.47,3.47,0,0,0,78.06,174Zm43.55-25,9.4-4.13h0a3.13,3.13,0,0,1,2.44,0,3,3,0,0,1,1.32,1l-.72.31a3.48,3.48,0,1,0,2.74,6.39l.81-.35h0a3.29,3.29,0,0,1-1.94,3.39l-9.44,4a3.15,3.15,0,0,1-2.43,0,3.05,3.05,0,0,1-1.29-1l3-1.3a3.47,3.47,0,0,0-2.75-6.38l-3.08,1.33a3.29,3.29,0,0,1,.42-2,3.25,3.25,0,0,1,1.51-1.35ZM90,162.59l9.4-4.12h0a3.13,3.13,0,0,1,2.44-.05,3.17,3.17,0,0,1,1.32,1l-.73.32a3.48,3.48,0,0,0-1.87,4.58,3.47,3.47,0,0,0,4.62,1.8l.8-.35h0a3.24,3.24,0,0,1-1.93,3.39l-9.44,4a3.15,3.15,0,0,1-2.43,0,3.07,3.07,0,0,1-1.29-1l.75-.32a3.47,3.47,0,0,0-2.74-6.38l-.83.35a3.26,3.26,0,0,1,.42-2A3.32,3.32,0,0,1,90,162.59Z"/><path class="cls-3" d="M219.86,113.1a3.46,3.46,0,0,0-4.56-1.82l-1.75.75h0a10.23,10.23,0,0,0-12.89-4.54l-9.47,4a10.11,10.11,0,0,0-5.64,12.59L182,125.6a10.23,10.23,0,0,0-12.89-4.53l-9.47,4h0A10.11,10.11,0,0,0,154,137.67a3.47,3.47,0,0,0-1.68,2.7,3.4,3.4,0,0,0,1.23,2.93,3.45,3.45,0,0,0,3.1.69,10.14,10.14,0,0,0,13,4.59l9.43-4.05h0A10.1,10.1,0,0,0,184.64,132l3.59-1.55h0a10.13,10.13,0,0,0,13,4.54l9.43-4.05a10.1,10.1,0,0,0,5.6-12.52l1.81-.78a3.47,3.47,0,0,0,1.82-4.55ZM178,136.4a3.16,3.16,0,0,1-1.71,1.75l-9.43,4a3.21,3.21,0,0,1-2.05.17,3.28,3.28,0,0,1-1.76-1.08l.82-.35a3.48,3.48,0,0,0-2.74-6.39l-.73.32h0a3.13,3.13,0,0,1,1.88-3.41l9.47-4h0a3.25,3.25,0,0,1,3.76.9l-3.09,1.33h0a3.47,3.47,0,1,0,2.74,6.38l3-1.29h0a3.12,3.12,0,0,1-.18,1.6Zm31.6-13.57a3.16,3.16,0,0,1-1.71,1.75l-9.43,4a3.29,3.29,0,0,1-3.81-.92l.82-.35a3.47,3.47,0,1,0-2.74-6.38l-.73.31h0a3.06,3.06,0,0,1,.35-2,3.16,3.16,0,0,1,1.53-1.38l9.47-4h0a3.25,3.25,0,0,1,3.76.9l-.83.35h0a3.48,3.48,0,0,0,.05,6.46,3.53,3.53,0,0,0,2.69-.07l.76-.33h0a3.16,3.16,0,0,1-.18,1.61Z"/><path class="cls-3" d="M148.34,120.67l5.34-4.76-.15,2.6h0a3.51,3.51,0,0,0,1.56,3.11,3.48,3.48,0,0,0,3.47.2,3.51,3.51,0,0,0,1.92-2.91l.63-11a3.45,3.45,0,0,0-3.27-3.67,3.45,3.45,0,0,0-2.51.87l-9.52,8.48-9.36-6.75h0a3.49,3.49,0,0,0-5.48,2.35l-1.55,11.43-12.7,1.07a3.48,3.48,0,0,0-3.17,3.76,3.52,3.52,0,0,0,1.22,2.36l8.39,7.09a3.48,3.48,0,0,0,3.42.61,3.45,3.45,0,0,0,2.24-2.65,3.48,3.48,0,0,0-1.17-3.27l-2-1.68,7.12-.6h0a3.47,3.47,0,0,0,3.15-3l1.14-8.45,6.93,5a3.46,3.46,0,0,0,2.2.65,3.54,3.54,0,0,0,2.14-.87Z"/><path class="cls-3" d="M149.58,166.44l-5.34,4.76.15-2.6h0a3.48,3.48,0,1,0-6.95-.4l-.63,11a3.46,3.46,0,0,0,2,3.33l.22.1a3.49,3.49,0,0,0,1.89.2,3.43,3.43,0,0,0,1.71-.83l9.52-8.48,9.36,6.75h0a3.47,3.47,0,0,0,5.47-2.35l1.55-11.43,12.71-1.07a3.48,3.48,0,0,0,2-6.12l-8.4-7.09a3.43,3.43,0,0,0-3.36-.53,3.46,3.46,0,0,0-1.12,5.83l2,1.68-7.12.6h0a3.49,3.49,0,0,0-3.15,3l-1.14,8.45-6.93-5a3.47,3.47,0,0,0-4.33.22Z"/></g><g id="words"><g class="cls-6"><path d="M88.12,192.52a.79.79,0,0,1-.64-.06l-10.87-5.67a.81.81,0,0,1-.42-.49.8.8,0,0,1,.06-.64l3.07-5.89a.41.41,0,0,1,.56-.18l1.29.68a.39.39,0,0,1,.21.24.42.42,0,0,1,0,.31L79,185.35l2.94,1.53,1.76-3.37a.37.37,0,0,1,.24-.2.42.42,0,0,1,.31,0l1.23.64a.42.42,0,0,1,.21.24.38.38,0,0,1,0,.31l-1.75,3.37,3.42,1.79,2.36-4.53a.42.42,0,0,1,.24-.21.38.38,0,0,1,.31,0l1.3.67a.42.42,0,0,1,.2.24.34.34,0,0,1,0,.31l-3.07,5.9A.8.8,0,0,1,88.12,192.52Z"/><path d="M94.47,180.61a.38.38,0,0,1-.31,0l-10-5.2-1.52,2.9a.39.39,0,0,1-.24.21.42.42,0,0,1-.31,0l-1.3-.68a.42.42,0,0,1-.2-.24.38.38,0,0,1,0-.31l4.13-7.92a.37.37,0,0,1,.24-.2.34.34,0,0,1,.31,0l1.3.67a.42.42,0,0,1,.2.24.4.4,0,0,1,0,.32l-1.51,2.9,10,5.2a.42.42,0,0,1,.2.24.34.34,0,0,1,0,.31l-.72,1.39A.37.37,0,0,1,94.47,180.61Z"/><path d="M98.35,173.18a.42.42,0,0,1-.31,0L86.4,167.08a.37.37,0,0,1-.2-.24.42.42,0,0,1,0-.31l.72-1.39a.4.4,0,0,1,.24-.2.42.42,0,0,1,.31,0l4.67,2.44,2.67-5.12-4.67-2.43a.42.42,0,0,1-.2-.24.4.4,0,0,1,0-.32l.72-1.38a.37.37,0,0,1,.24-.2.34.34,0,0,1,.31,0l11.64,6.06a.42.42,0,0,1,.2.24.45.45,0,0,1,0,.32l-.72,1.38a.42.42,0,0,1-.24.2.36.36,0,0,1-.32,0l-5-2.59-2.67,5.11,5,2.6a.37.37,0,0,1,.2.24.42.42,0,0,1,0,.31L98.59,173A.38.38,0,0,1,98.35,173.18Z"/><path d="M104.6,160.93a.8.8,0,0,1-.64-.06L93.09,155.2a.81.81,0,0,1-.42-.49.79.79,0,0,1,.06-.64l3.08-5.9A.38.38,0,0,1,96,148a.36.36,0,0,1,.32,0l1.29.67a.41.41,0,0,1,.21.24.45.45,0,0,1,0,.32l-2.37,4.53,2.94,1.53,1.76-3.37a.44.44,0,0,1,.24-.21.42.42,0,0,1,.31,0l1.23.65a.43.43,0,0,1,.21.23.45.45,0,0,1,0,.32l-1.76,3.37,3.42,1.78,2.36-4.53a.42.42,0,0,1,.24-.2.42.42,0,0,1,.31,0l1.3.68a.42.42,0,0,1,.21.24.38.38,0,0,1,0,.31l-3.07,5.89A.81.81,0,0,1,104.6,160.93Z"/><path d="M109.55,151.71a.36.36,0,0,1-.32,0L98,145.81a.83.83,0,0,1-.35-1.13l1.68-3.23a4.46,4.46,0,0,1,1.51-1.68,4.25,4.25,0,0,1,2.1-.68,4,4,0,0,1,2.15.46,4.08,4.08,0,0,1,1.84,1.9,4.28,4.28,0,0,1,.33,2.64l5.94-.55a.49.49,0,0,1,.27.05.38.38,0,0,1,.2.25.46.46,0,0,1,0,.34l-.74,1.42a.57.57,0,0,1-.48.32l-6.11.46-.44.85,4.49,2.34a.41.41,0,0,1,.21.24.42.42,0,0,1,0,.31l-.72,1.39A.42.42,0,0,1,109.55,151.71Zm-4.78-7.28a2,2,0,0,0,.19-1.56,2,2,0,0,0-2.53-1.32,2,2,0,0,0-1.18,1l-.92,1.76,3.52,1.84Z"/><path d="M114.84,141.29a.8.8,0,0,1-.64-.06l-10.87-5.67a.81.81,0,0,1-.42-.49.89.89,0,0,1,.06-.64l3.08-5.89a.39.39,0,0,1,.24-.21.42.42,0,0,1,.31,0l1.3.68a.37.37,0,0,1,.2.24.42.42,0,0,1,0,.31l-2.36,4.53,2.94,1.53,1.75-3.37a.42.42,0,0,1,.24-.2.4.4,0,0,1,.32,0l1.22.64a.36.36,0,0,1,.21.24.42.42,0,0,1,0,.31l-1.76,3.37,3.42,1.79,2.36-4.53a.44.44,0,0,1,.24-.21.4.4,0,0,1,.32,0l1.29.67a.41.41,0,0,1,.21.24.42.42,0,0,1,0,.31l-3.08,5.9A.83.83,0,0,1,114.84,141.29Z"/><path d="M120.59,129.78a5,5,0,0,1-2.61.73,5.86,5.86,0,0,1-2.82-.72L107.84,126a.4.4,0,0,1-.17-.55l.72-1.39a.42.42,0,0,1,.24-.2.42.42,0,0,1,.31,0l7.4,3.86a3.27,3.27,0,0,0,2.36.36,2.82,2.82,0,0,0,1.88-3.59,3.25,3.25,0,0,0-1.65-1.73l-7.4-3.86a.42.42,0,0,1-.2-.24.34.34,0,0,1,0-.31l.72-1.39a.37.37,0,0,1,.24-.2.38.38,0,0,1,.31,0l7.31,3.81a6,6,0,0,1,2.22,1.92,4.9,4.9,0,0,1,.89,2.55,5,5,0,0,1-.59,2.68A4.94,4.94,0,0,1,120.59,129.78Z"/><path d="M128.89,114.89a.63.63,0,0,1-.38.06l-8.18-1.37-1.78-.37,1.52,1,6.39,4.27a.6.6,0,0,1,.22.34.52.52,0,0,1,0,.37l-.68,1.3a.41.41,0,0,1-.27.23.44.44,0,0,1-.36-.08l-10.71-7.41a.61.61,0,0,1-.28-.37.66.66,0,0,1,.07-.49l.82-1.57a.57.57,0,0,1,.29-.28.64.64,0,0,1,.39,0l9.32,1.57,1.37.27-1-1L119,104.58a.62.62,0,0,1-.1-.73l.75-1.44a.68.68,0,0,1,.36-.33.64.64,0,0,1,.47,0l12.2,4.55a.41.41,0,0,1,.24.6l-.71,1.35a.51.51,0,0,1-.29.27.47.47,0,0,1-.37,0L124.19,106l-1.58-.6,1.39,1.29,5.73,5.83a.67.67,0,0,1,.19.35.59.59,0,0,1-.07.39l-.68,1.32A.69.69,0,0,1,128.89,114.89Z"/><path d="M106,185.65a.31.31,0,0,1-.23,0l-9.57-1.86a.08.08,0,0,1-.07,0,.21.21,0,0,1-.12-.14.28.28,0,0,1,0-.18l.35-.65a.27.27,0,0,1,.13-.13.32.32,0,0,1,.17,0l8.16,1.67-6-5.74a.36.36,0,0,1-.08-.15.29.29,0,0,1,0-.18l.34-.66a.29.29,0,0,1,.14-.13.32.32,0,0,1,.17,0l8.16,1.67-6-5.74a.28.28,0,0,1-.08-.15.29.29,0,0,1,0-.18l.34-.66a.27.27,0,0,1,.17-.12.25.25,0,0,1,.2.06l7,6.79a.35.35,0,0,1,.1.2.41.41,0,0,1,0,.23l-.37.71a.38.38,0,0,1-.17.16.29.29,0,0,1-.22,0l-7.78-1.58,5.76,5.45a.3.3,0,0,1,.1.2.35.35,0,0,1,0,.23l-.37.71A.35.35,0,0,1,106,185.65Z"/><path d="M110.86,176.34a.24.24,0,0,1-.2-.08l-6.91-7.1a.22.22,0,0,1-.08-.15.31.31,0,0,1,0-.17l.43-.84a.34.34,0,0,1,.12-.12.25.25,0,0,1,.17,0l9.77,1.61.1,0a.22.22,0,0,1,.1.13.21.21,0,0,1,0,.17l-.32.62a.34.34,0,0,1-.12.12.25.25,0,0,1-.17,0l-2.57-.43-1.71,3.28,1.83,1.86a.18.18,0,0,1,.07.15.33.33,0,0,1,0,.17l-.32.62A.21.21,0,0,1,110.86,176.34Zm-.73-6.4-4.89-.83,3.48,3.53Z"/><path d="M115.67,167.29a4.15,4.15,0,0,1-1.06.82.12.12,0,0,1-.12,0,.2.2,0,0,1-.12-.08l-.42-.58a.23.23,0,0,1,0-.24.24.24,0,0,1,.08-.09,4,4,0,0,0,1.54-1.54,2.36,2.36,0,0,0,.28-1.54A1.51,1.51,0,0,0,115,163a1.37,1.37,0,0,0-.86-.16,1.84,1.84,0,0,0-.76.33,10.27,10.27,0,0,0-.91.73,13.29,13.29,0,0,1-1.23,1,2.75,2.75,0,0,1-1.19.44,2.38,2.38,0,0,1-1.46-.31,2.64,2.64,0,0,1-1.14-1.07,2.47,2.47,0,0,1-.3-1.41,3.91,3.91,0,0,1,.45-1.51,4.73,4.73,0,0,1,1.78-1.87.18.18,0,0,1,.13,0,.18.18,0,0,1,.12.09l.38.55a.25.25,0,0,1,0,.17.18.18,0,0,1-.11.13,3.79,3.79,0,0,0-1.39,1.43,2.19,2.19,0,0,0-.26,1.43,1.44,1.44,0,0,0,.8,1,1.38,1.38,0,0,0,.87.16,1.94,1.94,0,0,0,.76-.31c.24-.17.54-.41.92-.74l.77-.68a3,3,0,0,1,1.46-.74,2.45,2.45,0,0,1,1.59.28,2.68,2.68,0,0,1,1.17,1.08,2.74,2.74,0,0,1,.36,1.5,3.9,3.9,0,0,1-.48,1.67A5.14,5.14,0,0,1,115.67,167.29Z"/><path d="M120.54,158a.31.31,0,0,1-.23,0l-8.22-4.29a.4.4,0,0,1-.2-.24.34.34,0,0,1,0-.31l.52-1a.46.46,0,0,1,.37-.24l6.57-.35,1.35,0-6-3.13a.23.23,0,0,1-.15-.17.28.28,0,0,1,0-.22l.47-.89a.25.25,0,0,1,.17-.15.34.34,0,0,1,.22,0l8.23,4.3a.38.38,0,0,1,.2.23.42.42,0,0,1,0,.31l-.53,1a.46.46,0,0,1-.36.24l-6.8.35-1.09.05,6,3.11a.28.28,0,0,1,.15.17.28.28,0,0,1,0,.22l-.46.89A.28.28,0,0,1,120.54,158Z"/><path d="M125.58,147.87a3.67,3.67,0,0,1-3.68.15l-2.63-1.37a3.52,3.52,0,0,1-1.41-1.29,3.68,3.68,0,0,1-.57-1.82,3.61,3.61,0,0,1,.42-1.87,3.56,3.56,0,0,1,1.3-1.42,3.64,3.64,0,0,1,1.81-.57,3.53,3.53,0,0,1,1.87.41l2.63,1.38a3.52,3.52,0,0,1,1.41,1.29,3.72,3.72,0,0,1-1.15,5.11Zm.06-3.18a2,2,0,0,0-.33-1,1.88,1.88,0,0,0-.77-.71l-2.64-1.38a2,2,0,0,0-1-.23,2.24,2.24,0,0,0-1,.3,1.94,1.94,0,0,0-.7.75,2,2,0,0,0-.21,1,2,2,0,0,0,.33,1,2,2,0,0,0,.78.71l2.63,1.38a2.13,2.13,0,0,0,2-.08,1.81,1.81,0,0,0,.7-.75A1.73,1.73,0,0,0,125.64,144.69Z"/><path d="M130.12,139.67a.27.27,0,0,1-.23,0l-7.14-3.72L121.67,138a.28.28,0,0,1-.17.15.31.31,0,0,1-.23,0l-.92-.49a.23.23,0,0,1-.15-.17.28.28,0,0,1,0-.22l3-5.67a.31.31,0,0,1,.17-.15.29.29,0,0,1,.22,0l.93.48a.35.35,0,0,1,.15.17.37.37,0,0,1,0,.23l-1.09,2.08,7.14,3.72a.28.28,0,0,1,.12.4l-.51,1A.28.28,0,0,1,130.12,139.67Z"/><path d="M136.64,127.41a.25.25,0,0,1-.17,0l-8.29-1.23,6.38,4.38a.27.27,0,0,1,.11.17.36.36,0,0,1,0,.2l-.31.59a.22.22,0,0,1-.15.12.22.22,0,0,1-.18,0l-7.85-5.49a.26.26,0,0,1-.07-.11.24.24,0,0,1,0-.12l.46-.88a.33.33,0,0,1,.13-.13.16.16,0,0,1,.16,0l8.52,1.28-6-6.31a.17.17,0,0,1,0-.21l.45-.87a.29.29,0,0,1,.15-.14.23.23,0,0,1,.2,0l8.91,3.26h0a.2.2,0,0,1,.11.13.19.19,0,0,1,0,.18l-.32.61a.27.27,0,0,1-.14.14.23.23,0,0,1-.2,0l-7.22-2.71,5.73,6.08a.26.26,0,0,1,.07.16.25.25,0,0,1,0,.17l-.33.63A.34.34,0,0,1,136.64,127.41Z"/><path d="M140,120.42a.24.24,0,0,1-.2-.08l-6.91-7.1a.22.22,0,0,1-.08-.15.31.31,0,0,1,0-.17l.43-.84a.34.34,0,0,1,.12-.12.25.25,0,0,1,.17,0l9.77,1.61.1,0a.22.22,0,0,1,.1.13.21.21,0,0,1,0,.17l-.32.62a.34.34,0,0,1-.12.12.27.27,0,0,1-.17,0l-2.57-.44-1.71,3.28,1.83,1.86a.18.18,0,0,1,.07.15.47.47,0,0,1,0,.17l-.33.62A.21.21,0,0,1,140,120.42Zm-.73-6.4-4.89-.83,3.48,3.53Z"/><path d="M144.42,111.89a.48.48,0,0,1-.39,0l-7.88-4.1a.52.52,0,0,1-.22-.69l1.18-2.25a3.62,3.62,0,0,1,1.31-1.43,3.74,3.74,0,0,1,1.84-.56,3.69,3.69,0,0,1,1.91.43l2.11,1.1a3.71,3.71,0,0,1,1.44,1.31,3.78,3.78,0,0,1,.59,1.84,3.69,3.69,0,0,1-.42,1.89l-1.17,2.25A.53.53,0,0,1,144.42,111.89Zm.5-3a2.53,2.53,0,0,0-.11-2.55,2.53,2.53,0,0,0-1-.9l-2.3-1.2a2.54,2.54,0,0,0-2.54.1,2.58,2.58,0,0,0-.9,1l-.87,1.67,6.84,3.57Z"/><path d="M148.57,103.93a.49.49,0,0,1-.39,0l-7.87-4.1a.5.5,0,0,1-.26-.31.49.49,0,0,1,0-.39l2.17-4.15a.16.16,0,0,1,.11-.1.18.18,0,0,1,.16,0l.62.32a.23.23,0,0,1,.1.12.2.2,0,0,1,0,.15L141.36,99l2.71,1.41,1.42-2.73a.23.23,0,0,1,.12-.1.16.16,0,0,1,.15,0l.6.31a.18.18,0,0,1,.1.11.2.2,0,0,1,0,.15L145,100.92l3.18,1.67L150.07,99a.18.18,0,0,1,.11-.1.19.19,0,0,1,.15,0l.63.33a.22.22,0,0,1,.1.11.22.22,0,0,1,0,.16l-2.17,4.15A.48.48,0,0,1,148.57,103.93Z"/><path d="M127.66,166.49a.12.12,0,0,1-.1,0l-5.45-2.84-.82,1.56a.14.14,0,0,1-.08.07.14.14,0,0,1-.11,0l-.44-.23a.13.13,0,0,1-.07-.09.14.14,0,0,1,0-.11l2-3.86a.16.16,0,0,1,.09-.07.12.12,0,0,1,.1,0l.45.23a.16.16,0,0,1,.07.09.14.14,0,0,1,0,.11l-.82,1.56,5.45,2.84a.13.13,0,0,1,.07.08.14.14,0,0,1,0,.11l-.25.49A.16.16,0,0,1,127.66,166.49Z"/><path d="M129.74,162.16a2.45,2.45,0,0,1-1.23.39,2.41,2.41,0,0,1-1.25-.28l-2.1-1.09a2.42,2.42,0,0,1-1-.87,2.57,2.57,0,0,1-.38-1.23,2.42,2.42,0,0,1,.28-1.26,2.5,2.5,0,0,1,2.1-1.34,2.37,2.37,0,0,1,1.25.28l2.1,1.09a2.42,2.42,0,0,1,.95.87,2.57,2.57,0,0,1,.38,1.23,2.49,2.49,0,0,1-1.15,2.21Zm.35-2.15a1.72,1.72,0,0,0-.91-1.42l-2.1-1.09a1.68,1.68,0,0,0-.85-.19,1.77,1.77,0,0,0-.84.24,1.7,1.7,0,0,0-.59.63,1.65,1.65,0,0,0-.17.84,1.72,1.72,0,0,0,.91,1.42l2.11,1.09a1.62,1.62,0,0,0,.84.19,1.77,1.77,0,0,0,.84-.24,1.7,1.7,0,0,0,.59-.63A1.47,1.47,0,0,0,130.09,160Z"/><path d="M129.5,183a.27.27,0,0,1-.13,0l-5.91-.89,4.55,3.13a.28.28,0,0,1,.08.12.26.26,0,0,1,0,.15l-.23.42a.15.15,0,0,1-.1.09.15.15,0,0,1-.13,0l-5.6-3.92A.1.1,0,0,1,122,182a.08.08,0,0,1,0-.08l.33-.63a.14.14,0,0,1,.08-.09.13.13,0,0,1,.12,0l6.08.91-4.25-4.5a.14.14,0,0,1,0-.15l.33-.62a.22.22,0,0,1,.1-.11.26.26,0,0,1,.15,0l6.35,2.33h0a.16.16,0,0,1,.08.1.13.13,0,0,1,0,.12l-.22.44a.27.27,0,0,1-.11.1.17.17,0,0,1-.14,0l-5.16-1.93,4.1,4.33a.26.26,0,0,1,.05.12.5.5,0,0,1,0,.12l-.24.45Z"/><path d="M131.91,178a.2.2,0,0,1-.14-.06l-4.94-5.07a.21.21,0,0,1,0-.11.17.17,0,0,1,0-.12l.31-.59a.24.24,0,0,1,.08-.09.28.28,0,0,1,.13,0l7,1.15.07,0a.16.16,0,0,1,.07.09.17.17,0,0,1,0,.12l-.23.44a.2.2,0,0,1-.09.09.17.17,0,0,1-.12,0l-1.83-.31-1.23,2.35,1.31,1.32a.13.13,0,0,1,0,.11.25.25,0,0,1,0,.12l-.23.44A.17.17,0,0,1,131.91,178Zm-.52-4.58-3.49-.59,2.48,2.52Z"/><path d="M135.08,172a.11.11,0,0,1-.11,0l-6-3.14a.13.13,0,0,1-.07-.09.14.14,0,0,1,0-.11l.25-.48a.2.2,0,0,1,.08-.08.14.14,0,0,1,.11,0l2.69,1.4.14-.26-1.6-3.61a.3.3,0,0,1,0-.21l.29-.57a.17.17,0,0,1,.08-.07.14.14,0,0,1,.11,0,.18.18,0,0,1,.07.08l1.67,3.85,4.16-.79a.11.11,0,0,1,.11,0,.14.14,0,0,1,.08.09.14.14,0,0,1,0,.11l-.29.57a.22.22,0,0,1-.16.11l-3.82.73-.15.3,2.66,1.39s.06.05.06.08a.25.25,0,0,1,0,.12l-.25.47A.14.14,0,0,1,135.08,172Z"/><path d="M137.69,166.8a.32.32,0,0,1-.27,0l-5.62-2.93a.43.43,0,0,1-.19-.21.34.34,0,0,1,0-.28l1.55-3a.13.13,0,0,1,.08-.07.14.14,0,0,1,.11,0l.44.23a.13.13,0,0,1,.07.08.11.11,0,0,1,0,.11l-1.33,2.55,1.93,1,1-2a.14.14,0,0,1,.08-.07.14.14,0,0,1,.11,0l.42.22a.13.13,0,0,1,.07.09.11.11,0,0,1,0,.11l-1,1.94,2.27,1.19,1.33-2.55a.13.13,0,0,1,.08-.07.13.13,0,0,1,.12,0l.44.23a.11.11,0,0,1,.07.08.14.14,0,0,1,0,.11l-1.55,3A.36.36,0,0,1,137.69,166.8Z"/><path d="M143.59,153.38a.14.14,0,0,1,0,.11l-1.51,2.9.28,4a.31.31,0,0,1,0,.11.17.17,0,0,1-.1.09.22.22,0,0,1-.14,0l-.49-.26a.16.16,0,0,1-.09-.15L141.3,157l-2.71,1.65a.15.15,0,0,1-.17,0l-.49-.25a.24.24,0,0,1-.1-.1.18.18,0,0,1,0-.14.23.23,0,0,1,.07-.08l3.39-2,1.53-2.93a.14.14,0,0,1,.08-.07.14.14,0,0,1,.11,0l.49.26A.18.18,0,0,1,143.59,153.38Z"/><path d="M139.14,151.25a2.41,2.41,0,0,1,.39,1.22,2.37,2.37,0,0,1-.28,1.25l-1.09,2.11a2.48,2.48,0,0,1-2.1,1.32,2.48,2.48,0,0,1-2.32-3.63l1.09-2.1a2.44,2.44,0,0,1,.88-.95,2.49,2.49,0,0,1,2.48-.1A2.37,2.37,0,0,1,139.14,151.25Zm-2.15-.36a1.74,1.74,0,0,0-.83.27,1.76,1.76,0,0,0-.59.65l-1.09,2.1a1.62,1.62,0,0,0-.19.84,1.68,1.68,0,0,0,.25.84,1.53,1.53,0,0,0,.62.59,1.58,1.58,0,0,0,.85.18,1.75,1.75,0,0,0,.82-.28,1.65,1.65,0,0,0,.59-.64l1.09-2.1a1.58,1.58,0,0,0,.19-.85,1.7,1.7,0,0,0-.24-.83,1.61,1.61,0,0,0-1.47-.77Z"/><path d="M133.2,148.15a2.26,2.26,0,0,1,.36,1.26,2.87,2.87,0,0,1-.35,1.39l-2,3.88a.1.1,0,0,1-.08.07.14.14,0,0,1-.11,0l-.49-.26a.11.11,0,0,1-.07-.08.22.22,0,0,1,0-.11l2.05-3.92a2,2,0,0,0,.25-1,1.52,1.52,0,0,0-.23-.84,1.64,1.64,0,0,0-.65-.6,1.73,1.73,0,0,0-.85-.19,1.69,1.69,0,0,0-.83.29,2.1,2.1,0,0,0-.64.76l-2,3.92s0,.06-.08.08a.15.15,0,0,1-.11,0l-.48-.25a.2.2,0,0,1-.08-.08.14.14,0,0,1,0-.11l2-3.88a2.87,2.87,0,0,1,.94-1.09,2.43,2.43,0,0,1,2.51-.14A2.39,2.39,0,0,1,133.2,148.15Z"/><path d="M146.35,150.13a.54.54,0,0,1-.37,0l-13.41-7a1,1,0,0,1-.5-.59,1,1,0,0,1,.07-.76l2-3.85a5.17,5.17,0,0,1,4.3-2.82,5,5,0,0,1,4.76,2.82,5.05,5.05,0,0,1,.39,3.14l7.08-.65a.58.58,0,0,1,.33.06.45.45,0,0,1,.24.3.52.52,0,0,1-.05.4l-.88,1.69a.7.7,0,0,1-.57.39l-7.29.55-.53,1,5.36,2.79a.48.48,0,0,1,.25.29.48.48,0,0,1,0,.37l-.86,1.65A.48.48,0,0,1,146.35,150.13Zm-5.69-8.69a2.42,2.42,0,0,0,.23-1.86,2.28,2.28,0,0,0-1.18-1.39,2.35,2.35,0,0,0-1.84-.19,2.43,2.43,0,0,0-1.41,1.25l-1.1,2.1,4.2,2.19Z"/><path d="M152.45,138.44a.44.44,0,0,1-.37,0l-1.42-.74a.46.46,0,0,1-.25-.28.47.47,0,0,1,0-.38l.91-1.75L141.2,130l-.91,1.75a.48.48,0,0,1-.29.25.48.48,0,0,1-.37,0l-1.42-.74a.49.49,0,0,1-.25-.28.5.5,0,0,1,0-.38l3.14-6a.47.47,0,0,1,.28-.24.47.47,0,0,1,.38,0l1.42.74a.47.47,0,0,1,.24.28.5.5,0,0,1,0,.38l-.92,1.75,10.16,5.3.92-1.75a.46.46,0,0,1,.28-.25.47.47,0,0,1,.38,0l1.42.74a.49.49,0,0,1,.24.29.44.44,0,0,1,0,.37l-3.13,6A.49.49,0,0,1,152.45,138.44Z"/><path d="M158.1,126.77a6.14,6.14,0,0,1-6.1.22l-4.39-2.29a6,6,0,0,1-2.35-2.15,6.11,6.11,0,0,1-1-3,5.7,5.7,0,0,1,.66-3,6.62,6.62,0,0,1,1.69-2.11,5.78,5.78,0,0,1,2.31-1.15.62.62,0,0,1,.42.06.72.72,0,0,1,.32.38l.48,1.4a.54.54,0,0,1,0,.42.52.52,0,0,1-.38.27,3.7,3.7,0,0,0-2.41,2,2.88,2.88,0,0,0-.33,1.63,3.51,3.51,0,0,0,.57,1.62,3.56,3.56,0,0,0,1.3,1.17l4.39,2.29a3.53,3.53,0,0,0,1.71.4,3.47,3.47,0,0,0,1.66-.46,3,3,0,0,0,1.15-1.2,3.74,3.74,0,0,0,.23-3.11.52.52,0,0,1,0-.44.58.58,0,0,1,.35-.27l1.42-.41a.64.64,0,0,1,.51,0,.67.67,0,0,1,.27.3,6,6,0,0,1,.38,2.58,6.8,6.8,0,0,1-.75,2.6A5.77,5.77,0,0,1,158.1,126.77Z"/><path d="M163.54,117.17a.48.48,0,0,1-.37,0L149.3,109.9a.47.47,0,0,1-.24-.28.5.5,0,0,1,0-.38l.87-1.65a.45.45,0,0,1,.28-.24.44.44,0,0,1,.37,0l5.57,2.9,3.18-6.1-5.57-2.9a.49.49,0,0,1-.24-.29.44.44,0,0,1,0-.37l.86-1.65a.47.47,0,0,1,.28-.24.5.5,0,0,1,.38,0L169,106a.46.46,0,0,1,.25.28.47.47,0,0,1,0,.38l-.86,1.64a.46.46,0,0,1-.28.25.47.47,0,0,1-.38,0l-5.93-3.09-3.18,6.1,5.93,3.09a.48.48,0,0,1,.25.29.48.48,0,0,1,0,.37l-.86,1.65A.46.46,0,0,1,163.54,117.17Z"/><path d="M171.1,103a1.87,1.87,0,0,1-1.48-.13,1.83,1.83,0,0,1-1-1.14,1.94,1.94,0,0,1,1.27-2.42,1.93,1.93,0,0,1,1.47.14,1.87,1.87,0,0,1,.94,1.12,1.77,1.77,0,0,1-.12,1.46A1.9,1.9,0,0,1,171.1,103Z"/><path d="M140.19,192.29a.67.67,0,0,1-.5,0l-8.38-4.37a.64.64,0,0,1-.32-.38.6.6,0,0,1,0-.49l2.37-4.54a.28.28,0,0,1,.18-.16.29.29,0,0,1,.24,0l1,.52a.3.3,0,0,1,.16.19.29.29,0,0,1,0,.24l-1.82,3.49,2.26,1.18,1.36-2.6a.31.31,0,0,1,.18-.16.34.34,0,0,1,.24,0l.95.49a.33.33,0,0,1,.16.19.34.34,0,0,1,0,.24l-1.35,2.59,2.63,1.38,1.82-3.49a.37.37,0,0,1,.19-.16.34.34,0,0,1,.24,0l1,.52a.31.31,0,0,1,.16.18.29.29,0,0,1,0,.24L140.56,192A.65.65,0,0,1,140.19,192.29Z"/><path d="M145.08,183.11a.34.34,0,0,1-.24,0l-7.68-4L136,181.31a.31.31,0,0,1-.19.16.29.29,0,0,1-.24,0l-1-.52a.27.27,0,0,1-.15-.18.29.29,0,0,1,0-.24l3.18-6.1a.3.3,0,0,1,.19-.16.29.29,0,0,1,.24,0l1,.52a.33.33,0,0,1,.16.19.34.34,0,0,1,0,.24L138,177.45l7.69,4a.31.31,0,0,1,.16.18.29.29,0,0,1,0,.24l-.55,1.07A.31.31,0,0,1,145.08,183.11Z"/><path d="M148.07,177.38a.34.34,0,0,1-.24,0l-9-4.67a.29.29,0,0,1-.15-.19.29.29,0,0,1,0-.24l.56-1.06a.28.28,0,0,1,.18-.16.29.29,0,0,1,.24,0l3.6,1.88,2.06-4-3.6-1.87a.31.31,0,0,1-.16-.19.29.29,0,0,1,0-.24l.55-1.06a.3.3,0,0,1,.19-.16.29.29,0,0,1,.24,0l9,4.68a.28.28,0,0,1,.16.18.31.31,0,0,1,0,.25l-.56,1.06a.31.31,0,0,1-.18.16.29.29,0,0,1-.24,0l-3.84-2-2.06,3.95,3.84,2a.31.31,0,0,1,.16.18.34.34,0,0,1,0,.24l-.55,1.07A.37.37,0,0,1,148.07,177.38Z"/><path d="M152.89,167.93a.62.62,0,0,1-.5,0L144,163.52a.65.65,0,0,1-.28-.87l2.37-4.55a.26.26,0,0,1,.19-.15.29.29,0,0,1,.24,0l1,.52a.26.26,0,0,1,.15.19.29.29,0,0,1,0,.24l-1.82,3.49,2.26,1.18,1.36-2.6a.31.31,0,0,1,.18-.16.29.29,0,0,1,.24,0l1,.49a.31.31,0,0,1,.16.18.36.36,0,0,1,0,.25l-1.36,2.59,2.64,1.38,1.82-3.49a.31.31,0,0,1,.18-.16.29.29,0,0,1,.24,0l1,.52a.28.28,0,0,1,.16.18.29.29,0,0,1,0,.24l-2.37,4.55A.65.65,0,0,1,152.89,167.93Z"/><path d="M156.7,160.83a.29.29,0,0,1-.24,0l-8.67-4.53a.61.61,0,0,1-.32-.37.67.67,0,0,1,0-.5l1.3-2.49a3.47,3.47,0,0,1,1.17-1.29,3.31,3.31,0,0,1,1.61-.53,3.24,3.24,0,0,1,1.67.36,3.09,3.09,0,0,1,1.41,1.47,3.22,3.22,0,0,1,.25,2l4.58-.43a.46.46,0,0,1,.21,0,.32.32,0,0,1,.16.2.35.35,0,0,1,0,.26l-.57,1.09a.43.43,0,0,1-.36.25l-4.71.35-.34.66,3.46,1.8a.33.33,0,0,1,.16.19.34.34,0,0,1,0,.24l-.55,1.06A.3.3,0,0,1,156.7,160.83ZM153,155.22a1.58,1.58,0,0,0,.15-1.21,1.45,1.45,0,0,0-.76-.89,1.51,1.51,0,0,0-2.1.68l-.71,1.36,2.71,1.42Z"/><path d="M160.78,152.8a.64.64,0,0,1-.49,0l-8.38-4.37a.64.64,0,0,1-.27-.88L154,143a.31.31,0,0,1,.18-.16.34.34,0,0,1,.24,0l1,.52a.31.31,0,0,1,.16.18.34.34,0,0,1,0,.24l-1.82,3.49,2.27,1.19,1.35-2.6a.3.3,0,0,1,.19-.16.29.29,0,0,1,.24,0l.94.5a.28.28,0,0,1,.16.18.29.29,0,0,1,0,.24l-1.36,2.6,2.64,1.38,1.82-3.49a.3.3,0,0,1,.19-.16.29.29,0,0,1,.24,0l1,.52a.37.37,0,0,1,.16.19.34.34,0,0,1,0,.24l-2.37,4.54A.61.61,0,0,1,160.78,152.8Z"/><path d="M165.22,143.93a3.91,3.91,0,0,1-2,.56,4.61,4.61,0,0,1-2.18-.55L155.39,141a.31.31,0,0,1-.16-.19.29.29,0,0,1,0-.24l.55-1.06a.33.33,0,0,1,.19-.16.29.29,0,0,1,.24,0l5.7,3a2.57,2.57,0,0,0,1.82.28,2,2,0,0,0,1.31-1.09,2,2,0,0,0,.13-1.68,2.49,2.49,0,0,0-1.27-1.34l-5.7-3a.31.31,0,0,1-.16-.18.37.37,0,0,1,0-.25l.55-1.06a.32.32,0,0,1,.43-.14l5.63,2.94a4.67,4.67,0,0,1,1.71,1.48,3.78,3.78,0,0,1,.69,2,3.88,3.88,0,0,1-.45,2.06A4,4,0,0,1,165.22,143.93Z"/><path d="M171.61,132.45a.42.42,0,0,1-.29.05l-6.3-1.05-1.38-.3,1.17.78,4.93,3.3a.56.56,0,0,1,.17.26.42.42,0,0,1,0,.29l-.52,1a.32.32,0,0,1-.21.17.31.31,0,0,1-.27-.06l-8.26-5.71a.45.45,0,0,1-.21-.29.49.49,0,0,1,0-.37l.63-1.21a.46.46,0,0,1,.52-.25l7.19,1.2,1.05.21-.76-.74L164,124.51a.41.41,0,0,1-.13-.27.46.46,0,0,1,0-.3l.58-1.11a.54.54,0,0,1,.27-.25.5.5,0,0,1,.36,0l9.41,3.5a.39.39,0,0,1,.21.19.35.35,0,0,1,0,.28l-.54,1a.39.39,0,0,1-.22.2.37.37,0,0,1-.29,0L168,125.62l-1.22-.46,1.07,1,4.42,4.49a.44.44,0,0,1,.14.27.45.45,0,0,1-.05.3l-.53,1A.45.45,0,0,1,171.61,132.45Z"/><path d="M150,192.1a.2.2,0,0,1-.13,0L144,191h0a.13.13,0,0,1-.07-.08.14.14,0,0,1,0-.11l.2-.4a.2.2,0,0,1,.08-.08.17.17,0,0,1,.1,0l4.95,1-3.66-3.47a.19.19,0,0,1,0-.1.12.12,0,0,1,0-.1l.21-.4a.19.19,0,0,1,.07-.08.21.21,0,0,1,.11,0l4.94,1-3.66-3.47a.31.31,0,0,1-.05-.1.18.18,0,0,1,0-.1l.21-.4a.13.13,0,0,1,.22,0l4.24,4.11a.14.14,0,0,1,.06.12.22.22,0,0,1,0,.14l-.22.43a.32.32,0,0,1-.1.1.23.23,0,0,1-.14,0l-4.7-1,3.48,3.3a.23.23,0,0,1,.06.12.22.22,0,0,1,0,.14l-.23.43A.24.24,0,0,1,150,192.1Z"/><path d="M152.88,186.46a.14.14,0,0,1-.13-.05l-4.18-4.29a.15.15,0,0,1,0-.09.2.2,0,0,1,0-.11l.26-.5a.16.16,0,0,1,.07-.07.15.15,0,0,1,.11,0l5.91,1,.06,0a.12.12,0,0,1,.06.08.12.12,0,0,1,0,.1l-.2.38a.16.16,0,0,1-.07.07.18.18,0,0,1-.1,0l-1.56-.27-1,2,1.1,1.12a.14.14,0,0,1,0,.1.3.3,0,0,1,0,.1l-.2.38A.12.12,0,0,1,152.88,186.46Zm-.45-3.87-3-.5,2.1,2.13Z"/><path d="M155.79,181a2.38,2.38,0,0,1-.64.49.08.08,0,0,1-.08,0l-.07,0-.25-.36a.12.12,0,0,1,0-.14s0-.05.05-.06a2.54,2.54,0,0,0,.94-.93,1.46,1.46,0,0,0,.17-.93.9.9,0,0,0-.51-.66.77.77,0,0,0-.52-.1,1.2,1.2,0,0,0-.47.19c-.14.11-.32.25-.55.45a8.18,8.18,0,0,1-.74.59,1.69,1.69,0,0,1-.72.27,1.4,1.4,0,0,1-.88-.19,1.51,1.51,0,0,1-.69-.65,1.4,1.4,0,0,1-.18-.85,2.22,2.22,0,0,1,.27-.91,2.91,2.91,0,0,1,.47-.66,2.34,2.34,0,0,1,.6-.47.12.12,0,0,1,.08,0,.12.12,0,0,1,.08.06l.22.33a.1.1,0,0,1,0,.1.12.12,0,0,1-.06.08,2.18,2.18,0,0,0-.84.87,1.21,1.21,0,0,0-.16.86.84.84,0,0,0,.48.61.77.77,0,0,0,.52.1,1.14,1.14,0,0,0,.47-.19,6.19,6.19,0,0,0,.55-.45s.2-.17.47-.41a1.71,1.71,0,0,1,.88-.44,1.51,1.51,0,0,1,1,.16,1.82,1.82,0,0,1,.71.66,1.71,1.71,0,0,1,.21.9,2.32,2.32,0,0,1-.29,1A3.15,3.15,0,0,1,155.79,181Z"/><path d="M160.85,171.48a.15.15,0,0,1-.11,0l-5-.75,3.86,2.66a.15.15,0,0,1,.06.1.17.17,0,0,1,0,.12l-.19.36a.11.11,0,0,1-.1.07.12.12,0,0,1-.1,0l-4.75-3.32a.1.1,0,0,1,0-.07.09.09,0,0,1,0-.07l.28-.53a.2.2,0,0,1,.08-.08.09.09,0,0,1,.1,0l5.15.76-3.6-3.81a.09.09,0,0,1,0-.13l.27-.53a.18.18,0,0,1,.09-.08.13.13,0,0,1,.12,0l5.39,2h0a.12.12,0,0,1,.06.08.14.14,0,0,1,0,.11l-.2.37a.15.15,0,0,1-.08.08.15.15,0,0,1-.13,0l-4.36-1.64,3.47,3.68a.18.18,0,0,1,0,.1.18.18,0,0,1,0,.1l-.2.38A.16.16,0,0,1,160.85,171.48Z"/><path d="M162.9,167.25a.14.14,0,0,1-.13-.05l-4.18-4.29a.15.15,0,0,1,0-.09.2.2,0,0,1,0-.11l.26-.5a.16.16,0,0,1,.07-.07.15.15,0,0,1,.11,0l5.91,1,.06,0a.12.12,0,0,1,.06.08.12.12,0,0,1,0,.1l-.2.38a.16.16,0,0,1-.07.07.12.12,0,0,1-.1,0l-1.56-.27-1,2,1.1,1.12a.14.14,0,0,1,.05.1.3.3,0,0,1,0,.1l-.2.38A.12.12,0,0,1,162.9,167.25Zm-.45-3.87-2.95-.5,2.1,2.14Z"/><path d="M165.55,162.09a.26.26,0,0,1-.23,0l-4.77-2.49a.27.27,0,0,1-.15-.18.26.26,0,0,1,0-.23l.71-1.36a2.21,2.21,0,0,1,.79-.87,2.36,2.36,0,0,1,1.12-.34,2.23,2.23,0,0,1,1.15.26l1.28.67a2.28,2.28,0,0,1,.87.79,2.21,2.21,0,0,1,.1,2.26l-.71,1.36A.27.27,0,0,1,165.55,162.09Zm.31-1.82a1.53,1.53,0,0,0,.17-.78,1.45,1.45,0,0,0-.24-.76,1.51,1.51,0,0,0-.6-.55l-1.39-.72a1.54,1.54,0,0,0-.78-.18,1.66,1.66,0,0,0-.76.24,1.47,1.47,0,0,0-.54.59l-.53,1,4.14,2.16Z"/><path d="M168.06,157.27a.26.26,0,0,1-.23,0l-4.77-2.48a.34.34,0,0,1-.15-.18.33.33,0,0,1,0-.24l1.32-2.52a.09.09,0,0,1,.07-.06.14.14,0,0,1,.09,0l.37.2a.11.11,0,0,1,.06.07.1.1,0,0,1,0,.09l-1.12,2.16,1.63.86.86-1.65a.1.1,0,0,1,.07-.06h.1l.36.19a.13.13,0,0,1,.06.07.18.18,0,0,1,0,.1l-.87,1.65,1.93,1L169,154.3a.13.13,0,0,1,.07-.06.1.1,0,0,1,.09,0l.38.19a.13.13,0,0,1,.06.07.12.12,0,0,1,0,.1l-1.31,2.51A.26.26,0,0,1,168.06,157.27Z"/><path d="M172.28,149.32a.12.12,0,0,1-.1,0l-4.61-2.41-.69,1.32a.12.12,0,0,1-.07.07.16.16,0,0,1-.1,0l-.37-.2a.13.13,0,0,1-.06-.07.1.1,0,0,1,0-.09l1.7-3.28a.2.2,0,0,1,.07-.06h.1l.37.2a.13.13,0,0,1,.06.07.1.1,0,0,1,0,.09l-.69,1.33,4.62,2.4a.12.12,0,0,1,.06.08.1.1,0,0,1,0,.09l-.21.41A.13.13,0,0,1,172.28,149.32Z"/><path d="M174,145.65a2.16,2.16,0,0,1-1,.33,2.11,2.11,0,0,1-1.07-.23l-1.78-.93a2,2,0,0,1-.8-.74,2.12,2.12,0,0,1-.32-1,2.07,2.07,0,0,1,1-1.87,2.16,2.16,0,0,1,1-.33,2,2,0,0,1,1.07.23l1.78.93a2,2,0,0,1,.8.74,2.16,2.16,0,0,1,.09,2.11A2.19,2.19,0,0,1,174,145.65Zm.3-1.83a1.5,1.5,0,0,0-.24-.7,1.28,1.28,0,0,0-.54-.49l-1.78-.93a1.36,1.36,0,0,0-.72-.16,1.5,1.5,0,0,0-.71.21,1.34,1.34,0,0,0-.65,1.24,1.43,1.43,0,0,0,.24.7,1.3,1.3,0,0,0,.54.5l1.78.93a1.38,1.38,0,0,0,.72.16,1.5,1.5,0,0,0,.71-.21,1.41,1.41,0,0,0,.5-.53A1.38,1.38,0,0,0,174.34,143.82Z"/><path d="M166.63,186a.21.21,0,0,1-.15,0l-7.6-1.13,5.84,4a.27.27,0,0,1,.11.15.29.29,0,0,1,0,.18l-.29.54a.19.19,0,0,1-.3.08l-7.19-5a.17.17,0,0,1-.06-.1.11.11,0,0,1,0-.1l.42-.81a.28.28,0,0,1,.12-.12.16.16,0,0,1,.15,0l7.8,1.16L160,179.11a.15.15,0,0,1,0-.2l.42-.79a.21.21,0,0,1,.13-.13.19.19,0,0,1,.18,0l8.16,3h0a.18.18,0,0,1,.1.12.22.22,0,0,1,0,.16l-.29.56a.35.35,0,0,1-.14.13.28.28,0,0,1-.18,0l-6.62-2.48L167,185a.2.2,0,0,1,.06.15.19.19,0,0,1,0,.15l-.3.58A.2.2,0,0,1,166.63,186Z"/><path d="M169.74,179.63a.22.22,0,0,1-.19-.08l-6.33-6.49a.26.26,0,0,1-.07-.15.33.33,0,0,1,0-.15l.4-.77a.29.29,0,0,1,.11-.11.22.22,0,0,1,.16,0l9,1.47.08,0a.23.23,0,0,1,.1.12.18.18,0,0,1,0,.16l-.29.57a.38.38,0,0,1-.11.11.23.23,0,0,1-.16,0l-2.35-.4-1.57,3,1.67,1.69a.16.16,0,0,1,.07.14.27.27,0,0,1,0,.16l-.3.57A.18.18,0,0,1,169.74,179.63Zm-.68-5.87-4.47-.76,3.18,3.24Z"/><path d="M173.8,171.93a.17.17,0,0,1-.14,0l-7.73-4a.16.16,0,0,1-.09-.11.17.17,0,0,1,0-.14l.33-.63a.22.22,0,0,1,.1-.09.17.17,0,0,1,.14,0l3.45,1.8.18-.34L168,163.77a.33.33,0,0,1,0-.26l.38-.73c0-.06.06-.09.1-.1a.15.15,0,0,1,.13,0,.16.16,0,0,1,.09.11l2.16,4.94,5.33-1a.23.23,0,0,1,.14,0,.19.19,0,0,1,.1.12.2.2,0,0,1,0,.15l-.38.73c0,.07-.1.11-.21.14l-4.89.94-.2.38,3.42,1.78a.18.18,0,0,1,.08.11.22.22,0,0,1,0,.14l-.32.6A.18.18,0,0,1,173.8,171.93Z"/><path d="M177.15,165.3a.47.47,0,0,1-.35,0l-7.22-3.77a.47.47,0,0,1-.23-.27.45.45,0,0,1,0-.36l2-3.81a.16.16,0,0,1,.11-.09.17.17,0,0,1,.14,0l.57.3a.2.2,0,0,1,.09.11.18.18,0,0,1,0,.14l-1.71,3.27,2.48,1.29,1.31-2.5a.22.22,0,0,1,.1-.09.18.18,0,0,1,.14,0l.55.28a.2.2,0,0,1,.09.11.18.18,0,0,1,0,.14l-1.3,2.5,2.92,1.52,1.7-3.28a.24.24,0,0,1,.11-.09.18.18,0,0,1,.14,0l.57.29a.17.17,0,0,1,.09.11.23.23,0,0,1,0,.14l-2,3.8A.45.45,0,0,1,177.15,165.3Z"/><path d="M180.2,185.12a.18.18,0,0,1-.14,0l-3.71-1.94-5.1.37a.25.25,0,0,1-.13,0,.18.18,0,0,1-.11-.13.23.23,0,0,1,0-.18l.33-.62a.22.22,0,0,1,.19-.12l4.07-.27-2.12-3.47a.24.24,0,0,1,0-.23l.33-.63a.22.22,0,0,1,.13-.12.21.21,0,0,1,.17,0,.27.27,0,0,1,.1.09l2.59,4.36,3.75,2a.23.23,0,0,1,.09.11.23.23,0,0,1,0,.14l-.33.63A.2.2,0,0,1,180.2,185.12Z"/><path d="M182.94,179.41a3.19,3.19,0,0,1-3.18.15l-2.7-1.41a3.11,3.11,0,0,1-1.21-1.12,3.22,3.22,0,0,1-.49-1.57,3.06,3.06,0,0,1,.36-1.62,3.13,3.13,0,0,1,1.12-1.22,3.27,3.27,0,0,1,1.57-.5,3,3,0,0,1,1.61.36l2.7,1.41a3,3,0,0,1,1.21,1.11,3.26,3.26,0,0,1,.49,1.58,3.2,3.2,0,0,1-1.48,2.83Zm.46-2.76a2.24,2.24,0,0,0-1.17-1.82l-2.7-1.4a2.16,2.16,0,0,0-1.09-.25,2.34,2.34,0,0,0-1.07.32,2,2,0,0,0-.76.81,2,2,0,0,0-.23,1.08,2.27,2.27,0,0,0,.36,1.06,2.12,2.12,0,0,0,.82.75l2.7,1.41a2.15,2.15,0,0,0,1.09.24,2.09,2.09,0,0,0,1.06-.32,1.89,1.89,0,0,0,.76-.8A1.94,1.94,0,0,0,183.4,176.65Z"/><path d="M186.92,171.79a3.09,3.09,0,0,1-1.62.46,3.71,3.71,0,0,1-1.79-.45l-5-2.6a.14.14,0,0,1-.09-.11.17.17,0,0,1,0-.14l.32-.62a.19.19,0,0,1,.11-.09.17.17,0,0,1,.14,0l5,2.63a2.68,2.68,0,0,0,1.23.32,2.08,2.08,0,0,0,1.08-.29,2.14,2.14,0,0,0,.76-.84,2,2,0,0,0-.13-2.16,2.64,2.64,0,0,0-1-.82l-5-2.62a.16.16,0,0,1-.09-.11.14.14,0,0,1,0-.14l.33-.63a.18.18,0,0,1,.1-.09.17.17,0,0,1,.14,0l5,2.59a3.77,3.77,0,0,1,1.4,1.21,3.09,3.09,0,0,1,.54,1.59,3.26,3.26,0,0,1-1.5,2.88Z"/><path d="M191.43,163.31a.63.63,0,0,1-.5,0L173.16,154a1.32,1.32,0,0,1-.65-.78,1.27,1.27,0,0,1,.09-1l4.86-9.31a.61.61,0,0,1,.37-.32.59.59,0,0,1,.5,0l2,1.07a.61.61,0,0,1,.32.37.63.63,0,0,1,0,.5l-3.73,7.15,5.1,2.66,2.78-5.32a.63.63,0,0,1,.87-.28l1.94,1a.66.66,0,0,1,.33.37.67.67,0,0,1-.05.5L185.11,156l7.56,3.94a.66.66,0,0,1,.32.38.59.59,0,0,1-.05.5L191.81,163A.63.63,0,0,1,191.43,163.31Z"/><path d="M199,148.9a.59.59,0,0,1-.5-.05l-17.77-9.27a1.31,1.31,0,0,1-.56-1.78l2.66-5.11a6.85,6.85,0,0,1,2.39-2.64,6.65,6.65,0,0,1,3.31-1.09,6.42,6.42,0,0,1,3.4.74,6.34,6.34,0,0,1,2.9,3,6.67,6.67,0,0,1,.52,4.16l9.38-.87a.76.76,0,0,1,.43.09.57.57,0,0,1,.32.39.72.72,0,0,1-.07.53l-1.17,2.24a.89.89,0,0,1-.75.51l-9.65.73-.7,1.34,7.1,3.7a.63.63,0,0,1,.32.38.6.6,0,0,1,0,.49l-1.14,2.19A.61.61,0,0,1,199,148.9Zm-7.55-11.5a3.2,3.2,0,0,0,.3-2.47,3,3,0,0,0-1.56-1.84,3.09,3.09,0,0,0-2.44-.24,3.17,3.17,0,0,0-1.86,1.64l-1.46,2.79,5.57,2.9Z"/><path d="M207.3,132.45a1.28,1.28,0,0,1-1-.1l-17.17-8.95a1.32,1.32,0,0,1-.65-.78,1.28,1.28,0,0,1,.09-1l4.86-9.31a.63.63,0,0,1,.87-.27l2.05,1.07a.61.61,0,0,1,.32.37.63.63,0,0,1,0,.5l-3.73,7.15,4.64,2.42,2.78-5.32a.62.62,0,0,1,.38-.33.65.65,0,0,1,.49,0l1.94,1a.61.61,0,0,1,.32.37.59.59,0,0,1-.05.5l-2.77,5.32L206,128l3.73-7.15a.63.63,0,0,1,.87-.28l2,1.07a.63.63,0,0,1,.28.87l-4.86,9.31A1.28,1.28,0,0,1,207.3,132.45Z"/><path d="M215,117.62a1.3,1.3,0,0,1-1-.09l-17.16-9a1.26,1.26,0,0,1-.66-.77,1.27,1.27,0,0,1,.09-1l4.86-9.31a.63.63,0,0,1,.38-.32.57.57,0,0,1,.49,0l2,1.06a.66.66,0,0,1,.28.88l-3.74,7.15,4.64,2.42L208,103.4a.62.62,0,0,1,.38-.33.65.65,0,0,1,.49.05l1.94,1a.6.6,0,0,1,.32.38.57.57,0,0,1,0,.49l-2.77,5.33,5.4,2.82,3.73-7.16a.66.66,0,0,1,.38-.32.67.67,0,0,1,.5,0l2,1.07a.62.62,0,0,1,.33.38.65.65,0,0,1-.05.49L215.81,117A1.24,1.24,0,0,1,215,117.62Z"/><path d="M222.91,103.36a2.45,2.45,0,0,1-2-.17,2.4,2.4,0,0,1-1.26-1.51,2.49,2.49,0,0,1,.19-2,2.42,2.42,0,0,1,1.5-1.24,2.57,2.57,0,0,1,3.19,1.67,2.37,2.37,0,0,1-.16,1.93A2.5,2.5,0,0,1,222.91,103.36Z"/></g></g></svg>