<svg xmlns="http://www.w3.org/2000/svg" xmlns:xlink="http://www.w3.org/1999/xlink" viewBox="0 0 283.46 283.46"><defs><style>.cls-1{fill:none;}.cls-2{fill:#fff;}.cls-3{fill:#6f3ff4;}.cls-4{fill:#02e1ab;}.cls-5{clip-path:url(#clip-path);}.cls-6{fill:#b2ffec;}.cls-7{fill:#67edcd;}.cls-8{stroke:#000;stroke-miterlimit:10;}</style><clipPath id="clip-path"><circle class="cls-1" cx="141.71" cy="142.39" r="92.71"/></clipPath></defs><g id="profile"><path class="cls-2" d="M93.92,257.56a9.73,9.73,0,0,1-7.18-3.19,9.62,9.62,0,0,1-2.47-7.47,10,10,0,0,1,10-8.73H96.8a2.65,2.65,0,0,0,2.61-2.09,2.6,2.6,0,0,0-1.42-3A100.7,100.7,0,0,1,137.72,41.76c1.32,0,2.67-.08,4-.08a100.71,100.71,0,0,1,44,191.27,2.75,2.75,0,0,0,1.22,5.22h2.57a9.69,9.69,0,0,1,7.18,3.2,9.59,9.59,0,0,1,2.47,7.46,10,10,0,0,1-10,8.74Z"/><path d="M141.71,42.18A100.22,100.22,0,0,1,185.54,232.5a3.25,3.25,0,0,0,1.43,6.17h2.57a9.21,9.21,0,0,1,6.81,3,9.08,9.08,0,0,1,2.34,7.08,9.44,9.44,0,0,1-9.47,8.28H93.92a9.21,9.21,0,0,1-6.81-3A9.11,9.11,0,0,1,84.77,247a9.46,9.46,0,0,1,9.47-8.28H96.8a3.17,3.17,0,0,0,1.41-6,100.2,100.2,0,0,1,39.53-190.4c1.32-.06,2.65-.08,4-.08m0-1c-1.34,0-2.67,0-4,.08-53,2.05-95.76,45.35-97.17,98.38a101.32,101.32,0,0,0,57.24,93.92,2.17,2.17,0,0,1-1,4.11H94.24a10.4,10.4,0,0,0-10.46,9.18,10.21,10.21,0,0,0,10.14,11.21h95.3a10.41,10.41,0,0,0,10.47-9.18,10.23,10.23,0,0,0-10.15-11.21H187a2.25,2.25,0,0,1-1-4.27A101.2,101.2,0,0,0,141.71,41.18Z"/><path class="cls-3" d="M105.52,250.88a3.15,3.15,0,0,1-.8-.4.15.15,0,0,1-.06-.09.14.14,0,0,1,0-.11l.29-.52a.15.15,0,0,1,.15-.1.28.28,0,0,1,.13,0,2.17,2.17,0,0,0,1.15.39,1.05,1.05,0,0,0,.69-.21.67.67,0,0,0,.25-.55.57.57,0,0,0-.12-.37,1,1,0,0,0-.33-.26l-.6-.27-.24-.1a2.88,2.88,0,0,1-1-.61,1.45,1.45,0,0,1-.38-1.08,1.66,1.66,0,0,1,.86-1.5,2,2,0,0,1,.93-.21,2.93,2.93,0,0,1,.87.14,2.87,2.87,0,0,1,.78.4.2.2,0,0,1,.06.09.2.2,0,0,1,0,.11l-.27.52a.17.17,0,0,1-.16.1.21.21,0,0,1-.12,0,2.5,2.5,0,0,0-.62-.3,1.78,1.78,0,0,0-.52-.09.84.84,0,0,0-.59.2.74.74,0,0,0,0,1.05,2.7,2.7,0,0,0,.76.42l.56.23a1.73,1.73,0,0,1,.78.59,1.5,1.5,0,0,1,.29.91,1.75,1.75,0,0,1-.24.92,1.77,1.77,0,0,1-.68.62,2.21,2.21,0,0,1-1,.22A2.94,2.94,0,0,1,105.52,250.88Z"/><path class="cls-3" d="M110.37,250.74a2.21,2.21,0,0,1-1.07-1.89V247.1a2.18,2.18,0,0,1,1.07-1.89,2.1,2.1,0,0,1,1.07-.29,2.46,2.46,0,0,1,.94.18,2.12,2.12,0,0,1,.74.54.23.23,0,0,1,0,.31l-.36.38a.21.21,0,0,1-.13.07.19.19,0,0,1-.15-.08,1.3,1.3,0,0,0-1-.44,1,1,0,0,0-.57.17,1.36,1.36,0,0,0-.42.44,1.28,1.28,0,0,0-.15.61v1.75a1.21,1.21,0,0,0,.15.6,1.3,1.3,0,0,0,.42.45,1,1,0,0,0,.57.16,1.29,1.29,0,0,0,1-.43.19.19,0,0,1,.14-.08.21.21,0,0,1,.14.07l.36.38a.23.23,0,0,1,.08.16.21.21,0,0,1-.05.13,2.15,2.15,0,0,1-.75.55,2.29,2.29,0,0,1-.94.19A2.1,2.1,0,0,1,110.37,250.74Z"/><path class="cls-3" d="M114.28,250.87a.17.17,0,0,1,0-.12V245.2a.17.17,0,0,1,.18-.17h.66a.13.13,0,0,1,.12.05.17.17,0,0,1,0,.12v2.23h2.44V245.2a.17.17,0,0,1,0-.12.13.13,0,0,1,.12-.05h.66a.17.17,0,0,1,.18.17v5.55a.17.17,0,0,1-.18.17h-.66a.13.13,0,0,1-.12,0,.17.17,0,0,1,0-.12v-2.38h-2.44v2.38a.17.17,0,0,1,0,.12.13.13,0,0,1-.12,0h-.66A.17.17,0,0,1,114.28,250.87Z"/><path class="cls-3" d="M120.1,250.82a.33.33,0,0,1-.1-.25v-5.19a.34.34,0,0,1,.35-.35h2.81a.17.17,0,0,1,.18.17v.62a.17.17,0,0,1,0,.12.21.21,0,0,1-.13.05H121v1.4h1.61a.17.17,0,0,1,.17.18v.58a.17.17,0,0,1,0,.13.16.16,0,0,1-.12,0H121V250h2.16a.17.17,0,0,1,.18.17v.62a.17.17,0,0,1-.18.17h-2.81A.33.33,0,0,1,120.1,250.82Z"/><path class="cls-3" d="M124.58,250.82a.34.34,0,0,1-.11-.25V245.2a.17.17,0,0,1,.18-.17h.66a.13.13,0,0,1,.12.05.17.17,0,0,1,0,.12V250h1.91a.17.17,0,0,1,.18.17v.62a.17.17,0,0,1-.18.17h-2.56A.33.33,0,0,1,124.58,250.82Z"/><path class="cls-3" d="M128.58,250.82a.34.34,0,0,1-.11-.25V245.2a.17.17,0,0,1,.18-.17h.66a.15.15,0,0,1,.12.05.17.17,0,0,1,0,.12V250h1.91a.17.17,0,0,1,.13,0,.16.16,0,0,1,0,.12v.62a.16.16,0,0,1,0,.12.17.17,0,0,1-.13,0h-2.56A.32.32,0,0,1,128.58,250.82Z"/><path class="cls-3" d="M132.35,250.87a.13.13,0,0,1,0-.12v-.57a.17.17,0,0,1,.17-.17h.7v-4.07h-.7a.17.17,0,0,1-.12-.05.13.13,0,0,1,0-.12v-.57a.17.17,0,0,1,.17-.17h2.41a.17.17,0,0,1,.17.17v.57a.13.13,0,0,1-.05.12.17.17,0,0,1-.12.05h-.7V250h.7a.17.17,0,0,1,.17.17v.57a.17.17,0,0,1-.17.17h-2.41A.13.13,0,0,1,132.35,250.87Z"/><path class="cls-3" d="M136.23,250.87a.17.17,0,0,1,0-.12v-5.48a.24.24,0,0,1,.07-.17.23.23,0,0,1,.17-.07h.68a.25.25,0,0,1,.22.12l2,3.35.39.69v-4a.17.17,0,0,1,.18-.17h.59a.17.17,0,0,1,.13.05.16.16,0,0,1,0,.12v5.48a.22.22,0,0,1-.07.17.2.2,0,0,1-.16.07h-.69a.25.25,0,0,1-.22-.12l-2.05-3.47-.32-.56v4a.15.15,0,0,1-.05.13.16.16,0,0,1-.12,0h-.59A.15.15,0,0,1,136.23,250.87Z"/><path class="cls-3" d="M142.93,250.74a2.17,2.17,0,0,1-.79-.8,2,2,0,0,1-.29-1.09V247.1a2.11,2.11,0,0,1,.29-1.1,2.22,2.22,0,0,1,.79-.79,2.17,2.17,0,0,1,1.09-.29,2.58,2.58,0,0,1,1,.18,2.19,2.19,0,0,1,.76.54.25.25,0,0,1,.05.15.31.31,0,0,1-.07.16l-.36.38a.24.24,0,0,1-.13.07.19.19,0,0,1-.15-.08,1.41,1.41,0,0,0-1.06-.44,1.09,1.09,0,0,0-.58.17,1.32,1.32,0,0,0-.44.44,1.29,1.29,0,0,0-.16.61v1.75a1.22,1.22,0,0,0,.16.6,1.27,1.27,0,0,0,.44.45,1.08,1.08,0,0,0,.58.16,1.2,1.2,0,0,0,.59-.15,1.26,1.26,0,0,0,.43-.43,1.21,1.21,0,0,0,.15-.6v-.4h-1.1a.21.21,0,0,1-.13,0,.17.17,0,0,1-.05-.12v-.6a.18.18,0,0,1,.05-.12.21.21,0,0,1,.13-.05h1.74a.37.37,0,0,1,.25.1.35.35,0,0,1,.1.26v.95a2.14,2.14,0,0,1-.29,1.09,2.24,2.24,0,0,1-.79.8,2.19,2.19,0,0,1-2.18,0Z"/><path class="cls-3" d="M149.39,250.87a.17.17,0,0,1,0-.12v-5.37a.37.37,0,0,1,.1-.25.35.35,0,0,1,.26-.1h1.46a1.86,1.86,0,0,1,1,.25,2,2,0,0,1,.71.69,1.88,1.88,0,0,1,0,1.91,2,2,0,0,1-.71.69,1.87,1.87,0,0,1-1,.26h-.81v1.92a.17.17,0,0,1,0,.12.15.15,0,0,1-.13,0h-.65A.15.15,0,0,1,149.39,250.87Zm1.73-3a1,1,0,0,0,.68-1.63,1,1,0,0,0-.68-.28h-.77v1.91Z"/><path class="cls-3" d="M155.13,250.74a2.19,2.19,0,0,1-.8-.8,2.14,2.14,0,0,1-.29-1.09V247.1a2.2,2.2,0,0,1,.29-1.1,2.24,2.24,0,0,1,.8-.79,2.2,2.2,0,0,1,1.1-.29,2.17,2.17,0,0,1,1.09.29,2.24,2.24,0,0,1,.8.79,2.2,2.2,0,0,1,.29,1.1v1.75a2.14,2.14,0,0,1-.29,1.09,2.19,2.19,0,0,1-.8.8,2.17,2.17,0,0,1-1.09.29A2.2,2.2,0,0,1,155.13,250.74Zm1.68-.84a1.27,1.27,0,0,0,.44-.45,1.22,1.22,0,0,0,.16-.6V247.1a1.29,1.29,0,0,0-.16-.61,1.32,1.32,0,0,0-.44-.44,1.09,1.09,0,0,0-.58-.17,1.12,1.12,0,0,0-.59.17,1.29,1.29,0,0,0-.43.44,1.18,1.18,0,0,0-.16.61v1.75a1.12,1.12,0,0,0,.16.6,1.24,1.24,0,0,0,.43.45,1.11,1.11,0,0,0,.59.16A1.08,1.08,0,0,0,156.81,249.9Z"/><path class="cls-3" d="M159.24,250.87a.16.16,0,0,1,0-.12v-.57a.16.16,0,0,1,0-.12.17.17,0,0,1,.13-.05h.7v-4.07h-.7a.21.21,0,0,1-.13-.05.16.16,0,0,1,0-.12v-.57a.16.16,0,0,1,0-.12.17.17,0,0,1,.13-.05h2.41a.13.13,0,0,1,.12.05.17.17,0,0,1,0,.12v.57a.17.17,0,0,1-.17.17h-.7V250h.7a.13.13,0,0,1,.12.05.17.17,0,0,1,0,.12v.57a.17.17,0,0,1,0,.12.13.13,0,0,1-.12,0h-2.41A.17.17,0,0,1,159.24,250.87Z"/><path class="cls-3" d="M163.13,250.87a.17.17,0,0,1,0-.12v-5.48a.21.21,0,0,1,.07-.17.22.22,0,0,1,.17-.07H164a.27.27,0,0,1,.23.12l2,3.35.39.69v-4a.17.17,0,0,1,0-.12.13.13,0,0,1,.12-.05h.6a.13.13,0,0,1,.12.05.17.17,0,0,1,.05.12v5.48a.24.24,0,0,1-.24.24h-.68a.24.24,0,0,1-.22-.12l-2-3.47-.32-.56v4a.19.19,0,0,1-.05.13.16.16,0,0,1-.12,0h-.6A.13.13,0,0,1,163.13,250.87Z"/><path class="cls-3" d="M170.14,250.87a.13.13,0,0,1,0-.12V246H168.7a.17.17,0,0,1-.17-.17v-.62a.17.17,0,0,1,.05-.12.13.13,0,0,1,.12-.05h3.78a.17.17,0,0,1,.17.17v.62a.13.13,0,0,1-.05.12.17.17,0,0,1-.12.05h-1.39v4.76a.17.17,0,0,1-.17.17h-.66A.13.13,0,0,1,170.14,250.87Z"/><path class="cls-3" d="M175.55,250.82a.33.33,0,0,1-.1-.24v-.66a2.43,2.43,0,0,1,.17-1,1.67,1.67,0,0,1,.54-.65,12.25,12.25,0,0,1,1.22-.77,1.38,1.38,0,0,0,.43-.39.83.83,0,0,0,.14-.46.7.7,0,0,0-.23-.55.89.89,0,0,0-.63-.21,2,2,0,0,0-1,.31.23.23,0,0,1-.11,0,.16.16,0,0,1-.15-.09l-.27-.5a.13.13,0,0,1,0-.08.16.16,0,0,1,.08-.14,2.59,2.59,0,0,1,.75-.35,3,3,0,0,1,.85-.12,1.82,1.82,0,0,1,1.29.44,1.63,1.63,0,0,1,.47,1.22,1.59,1.59,0,0,1-.29,1,3.16,3.16,0,0,1-.92.81l-.33.2a5,5,0,0,0-.54.36,1.3,1.3,0,0,0-.32.34.92.92,0,0,0-.12.48V250h2.14a.2.2,0,0,1,.13,0,.21.21,0,0,1,.05.13v.61a.17.17,0,0,1-.18.17H175.8A.33.33,0,0,1,175.55,250.82Z"/><path class="cls-3" d="M180.34,250.25a4,4,0,0,1-.52-2.28,4,4,0,0,1,.53-2.28,1.95,1.95,0,0,1,3.1,0A4,4,0,0,1,184,248a4.11,4.11,0,0,1-.52,2.29,2,2,0,0,1-3.12,0Zm2.17-.37a1.28,1.28,0,0,0,.34-.68A5.74,5.74,0,0,0,183,248a5.58,5.58,0,0,0-.11-1.22,1.21,1.21,0,0,0-.34-.67.87.87,0,0,0-.61-.21.9.9,0,0,0-.62.21,1.31,1.31,0,0,0-.33.68,5.85,5.85,0,0,0-.11,1.24,3.65,3.65,0,0,0,.25,1.6.83.83,0,0,0,.81.49A.85.85,0,0,0,182.51,249.88Z"/><path class="cls-3" d="M185,250.82a.34.34,0,0,1-.11-.24v-.66a2.41,2.41,0,0,1,.18-1,1.64,1.64,0,0,1,.53-.65,13.6,13.6,0,0,1,1.22-.77,1.32,1.32,0,0,0,.44-.39.82.82,0,0,0,.13-.46.69.69,0,0,0-.22-.55.93.93,0,0,0-.64-.21,2,2,0,0,0-1,.31.19.19,0,0,1-.1,0,.16.16,0,0,1-.15-.09l-.27-.5a.13.13,0,0,1,0-.08.16.16,0,0,1,.08-.14,2.53,2.53,0,0,1,.74-.35,3.08,3.08,0,0,1,.86-.12,1.85,1.85,0,0,1,1.29.44,1.62,1.62,0,0,1,.46,1.22,1.58,1.58,0,0,1-.28,1,3.3,3.3,0,0,1-.92.81l-.33.2a5.29,5.29,0,0,0-.55.36,1.26,1.26,0,0,0-.31.34.92.92,0,0,0-.12.48V250H188a.16.16,0,0,1,.12,0,.17.17,0,0,1,.05.13v.61a.17.17,0,0,1-.17.17h-2.76A.33.33,0,0,1,185,250.82Z"/><path class="cls-3" d="M189.18,250.87a.13.13,0,0,1-.05-.12v-.59a.13.13,0,0,1,.05-.12.17.17,0,0,1,.12,0h.93v-3.67h-.69a.24.24,0,0,1-.24-.24v-.39l1.34-.7H191a.24.24,0,0,1,.24.24V250h.93a.17.17,0,0,1,.17.17v.59a.17.17,0,0,1-.05.12.13.13,0,0,1-.12,0H189.3A.13.13,0,0,1,189.18,250.87Z"/><path class="cls-3" d="M91.75,241.78l.82-.11.06.36.12.92c0,.3.08.6.11.9a.34.34,0,0,0,.17.28c.2.13.37.29.56.43a.6.6,0,0,0,.13.09,13,13,0,0,0-.17-1.54c-.08-.51-.13-1-.2-1.55l.81-.1.52,3.94.83.64,0,0c0-.09,0-.18,0-.27a1.77,1.77,0,0,1,0-.23s0-.06,0-.08a8,8,0,0,1-.17-1.09c0-.36-.11-.73-.15-1.1l-.09-.72L95,242l-.06-.5a.33.33,0,0,1,0-.1l.79-.1.2,1.54c.34-.4.63-.82,1-1.23l.61.47a.49.49,0,0,1,0,.11l-1.07,1.39-.24.32a.25.25,0,0,0,0,.21c0,.28.08.55.11.83l0,.14,1.91-2.5.63.49c-.06.08-.1.16-.16.23l-.76,1c-.25.31-.49.63-.73.94l-.71.94a.19.19,0,0,0,0,.13c0,.32.08.64.13,1,.12-.06.17-.17.24-.25s.23-.31.34-.46l.46-.6c.25-.32.5-.64.74-1s.51-.66.76-1c.1-.13.21-.26.31-.4l.06-.05.62.48c-.29.42-.61.79-.91,1.22a4.42,4.42,0,0,0,.75-.08c.25,0,.49-.06.76-.1,0,.27.09.52.11.8l-.4.06c-.3,0-.6.09-.91.12s-.61.08-.92.12a.25.25,0,0,0-.17.08l-.57.76s0,0,0,.06c.53-.05,1-.14,1.55-.2s1-.14,1.55-.21l.1.8c-.21,0-.4.07-.6.09l-.71.09-.75.1-.86.12-.89.11a.25.25,0,0,0-.18.1l-.54.71s0,0,0,.09l4.68-.62c0,.16.05.31.07.45l0,.34c-.5.1-1,.13-1.5.22v0l1.2.93-.49.63-.21-.15-.75-.58-.78-.6a.36.36,0,0,0-.3-.09l-.86.12-.07,0c.41.34.83.64,1.24,1l1.25,1-.49.63-.38-.28-.84-.64-1.13-.87-.73-.56a.22.22,0,0,0-.19,0l-.52.06-.44.06s0,.06.05.07l1.11.85.89.7,1,.75.69.54-.48.64c-.42-.3-.8-.63-1.24-.94l.2,1.53c-.26.06-.52.08-.8.12,0-.15,0-.28-.06-.41l-.12-.91-.12-.95a.16.16,0,0,0,0-.1l-.81-.63,0,0,.41,3.06a2.79,2.79,0,0,1-.81.13l-.06-.42-.09-.7c0-.24-.06-.49-.1-.74s-.09-.7-.13-1.06-.08-.52-.11-.79a.42.42,0,0,0-.19-.35c-.22-.14-.41-.31-.62-.46a.73.73,0,0,1-.08-.09.9.9,0,0,0,0,.4l.09.73c0,.23.07.46.1.69l.06.53c0,.08,0,.15,0,.23l.12,1c0,.34.09.68.14,1,0,0,0,.08,0,.14l-.77.11c-.1-.5-.13-1-.23-1.53-.18.21-.32.42-.47.61l-.47.61-.64-.48.15-.2c.24-.33.49-.65.73-1l.48-.61a.29.29,0,0,0,.06-.24c0-.27-.07-.54-.1-.81a.82.82,0,0,0,0-.14c-.34.42-.63.83-1,1.23s-.62.82-.94,1.24c-.24-.13-.42-.32-.65-.47a2.29,2.29,0,0,1,.17-.23l1.08-1.42.93-1.21c.06-.07.11-.16.17-.23a.2.2,0,0,0,.05-.18c-.05-.32-.09-.64-.14-1a1.12,1.12,0,0,0-.25.28l-.75,1L90.71,251l-.7.94-.26.31-.63-.48c.28-.41.6-.79.88-1.2-.5,0-1,.12-1.48.15l-.12-.8.1,0,.84-.12.77-.1.6-.08a.12.12,0,0,0,.08,0l.54-.72a.24.24,0,0,0,0-.09h-.21L90,248.9l-1.06.15-.57.08h-.06a5.12,5.12,0,0,1-.1-.81l.35-.05.87-.11.71-.1,1.34-.18.49-.05a.29.29,0,0,0,.23-.12c.18-.25.36-.48.54-.72,0,0,0,0,0,0h-.11l-.71.1-1.05.14-1.08.14-.73.1-.89.12h-.09l-.11-.8,1.52-.21a6.39,6.39,0,0,0-.61-.48l-.6-.47.5-.65.53.41,1.18.9,0,0a.3.3,0,0,0,.27.08l.84-.11.06,0s0-.07-.07-.09l-.82-.62-.69-.54-.7-.53-.17-.15.47-.62.11,0,1.2.92.87.67.9.69a.27.27,0,0,0,.21.07l1-.14-.31-.26-1-.77-1.33-1-1-.78c-.08-.06-.08-.08,0-.16l.43-.56,1.2.91h0Zm1.5,5.07c0,.18,0,.35.07.52a.37.37,0,0,1-.07.31l-.13.15c-.05.1-.16.16-.17.29l.46.36a.19.19,0,0,1,.09.15l0,.27c0,.11,0,.21,0,.32.18,0,.34,0,.49-.06a.39.39,0,0,1,.38.1,4.18,4.18,0,0,0,.38.29c.13-.17.25-.32.36-.48a.24.24,0,0,1,.15-.09l.43,0,.18-.05c0-.19,0-.37-.08-.55a.21.21,0,0,1,0-.2l.3-.4a.93.93,0,0,0,.05-.1,3.17,3.17,0,0,0-.36-.28.4.4,0,0,1-.21-.36s0-.07,0-.1,0-.24,0-.37l-.35,0c-.33.05-.33.05-.55-.11,0,0,0,0-.06-.05l-.31-.22a.33.33,0,0,1,0,.06l-.29.39a.27.27,0,0,1-.2.12l-.18,0Z"/><path class="cls-4" d="M94.75,249a1.37,1.37,0,0,1-.23-.17.33.33,0,0,0-.33-.07l-.23,0a1,1,0,0,1,0-.14,1.49,1.49,0,0,1,0-.21.23.23,0,0,0-.1-.15l-.26-.21.22-.3a.19.19,0,0,0,0-.18,2.79,2.79,0,0,1,0-.32l.45-.08.26-.34a1.59,1.59,0,0,1,.21.15A.36.36,0,0,0,95,247a1.06,1.06,0,0,1,.26,0c0,.06,0,.11,0,.17a.47.47,0,0,0,.26.43l.13.11-.15.22a.29.29,0,0,0-.08.34.88.88,0,0,1,0,.24l-.25,0a.29.29,0,0,0-.28.14C94.89,248.79,94.82,248.86,94.75,249Z"/></g><g id="background"><g class="cls-5"><circle class="cls-6" cx="141.71" cy="142.39" r="92.71"/><path class="cls-7" d="M202,154.43c-17.71-14.17-40.05-6-47.61,8.7a30.38,30.38,0,0,1,22.63-.79,26.36,26.36,0,0,1,11.42,7.79,28.62,28.62,0,0,0-19.62-7.1c5.1,5.21,5.87,10.64,1.52,16.4.21-.45.42-.9.64-1.34A10.41,10.41,0,0,0,166.21,164a4.49,4.49,0,0,0-2.61-.3,23.91,23.91,0,0,0-10.26,4.65,4,4,0,0,0-1.36,2.21c-2.68,13.35-1.51,26.55,2,39.56,1.66,6.14,3.93,23.08,6,29.12.18.53.4,1.06.68,1.78h-34c.21-.59.39-1.16.61-1.71,4.9-12,8.54-35.39,9.38-48.44.54-8.28.34-16.43-3.62-24a42.06,42.06,0,0,0-10-13,2.79,2.79,0,0,0-2.1-.51c-11.4,2.42-16.62,15.82-10,25.53.32.46.65.91,1.07,1.5-3.44-2.25-5.27-7.11-5.64-14.86-4.82,1.82-9.36,1.47-13.37-1.94A10.6,10.6,0,0,1,89,155.7c1.41,4.75,4.26,7.9,9.16,8.88a10.59,10.59,0,0,0,7.78-1.43,3.42,3.42,0,0,0,1.35-1.45A18.32,18.32,0,0,1,117.69,151a5.35,5.35,0,0,0,.73-.45c-11.94-8.68-34.08-11.19-51,4.27,1.3-2.61,9.44-9,16.66-11.67a47.42,47.42,0,0,1,20.54-2.75,32.63,32.63,0,0,1-2.14-3.64A40.57,40.57,0,0,1,100,130.2a12,12,0,0,0-11.26-9.55,13.49,13.49,0,0,0-9.93,3.47c3.21-5.88,12.66-6.33,20.5-1,1.07-9.31,5.44-16.37,13.91-20.6-1.4,1.18-2.89,2.29-4.19,3.57a23.27,23.27,0,0,0,2.62,35.12,8.07,8.07,0,0,0,2.11,1.12,44.88,44.88,0,0,1,22.91,16.82c.14.19.28.37.43.54a.37.37,0,0,0,.15.11c-.51-3.24-1.21-6.55-1.55-9.9A46,46,0,0,1,140,126a7.61,7.61,0,0,0,.71-2.95,18.48,18.48,0,0,0-19.51-18.7h-1.14c9.44-2.86,19.14,3.45,23.67,15.65,2.88-5.93,3.36-11.7,1.38-17.45-4.1-12-12.92-17.27-25.41-17.11,13-3.17,30.66,6.87,30.68,26.5A47.86,47.86,0,0,1,171.11,101a44.57,44.57,0,0,1,23.15.58,44.5,44.5,0,0,0-27.74,3.83c7,1.2,11.32,4.87,13,11.4-1.46-3.32-3.57-6.13-6.95-7.72-4.79-2.26-9.4-2.21-13.72,1.25a42.23,42.23,0,0,0-14.11,20.77c-.13.43-.22.87-.41,1.63,6.33-4.81,12.69-5.28,19.24-1.11-1.33-.44-2.64-1-4-1.3a14.19,14.19,0,0,0-15.6,6.84,7.35,7.35,0,0,0-1,2.72,41.48,41.48,0,0,0,4.22,22.89,7.38,7.38,0,0,0,.46.69c.89-1.42,1.7-2.78,2.57-4.1a30,30,0,0,1,11.17-10.25c4.76-2.45,7.11-6.52,8.62-11.28a22,22,0,0,0-.4-14c3.29,4.79,3.14,12.5-.46,21.87C181.73,142.77,192.71,145.56,202,154.43Z"/><path class="cls-4" d="M146,91.29c-.63-11.12,6-18.11,16.74-18.76,2.13,9.23-5.63,18.86-16,19.45l6.72-8.3-.32-.28Z"/><path class="cls-4" d="M123.83,82l-9.78-7.53-.2.26,9.29,8C112,83.81,104.83,77,104,66.57,112.93,64,122.94,71.59,123.83,82Z"/><path class="cls-4" d="M85.21,117.26l-11.43-3.87-.12.32,11,4.39c-7.15,5.38-19.55.52-23.29-9C69.14,103.78,81.5,107.89,85.21,117.26Z"/><path class="cls-4" d="M204.44,85.2c-3.22,10.69-11.18,15.21-22,12.46l11-6.33-.14-.28-11.23,5.7C185.56,85.62,194.56,82.17,204.44,85.2Z"/><path class="cls-4" d="M197.69,127.61c-4.35,9.85-13.49,13.64-23.41,9.1L186.14,132l-.1-.28L174,135.77C178.56,125.74,188.27,122.88,197.69,127.61Z"/><path class="cls-4" d="M112.68,87l-10.07,2.3.07.36,10.17-1.79c-5.3,8.38-14.58,9.81-22.69,4.19C94.88,84.14,104.11,81.19,112.68,87Z"/><path class="cls-4" d="M201.31,104.65l9.56,2.28.08-.31-9.48-2.85c9.21-5.06,17.14-1.56,21.5,6.21C216.86,115.39,205.07,112.6,201.31,104.65Z"/><path class="cls-4" d="M206.16,160l8.11,6.41.21-.25L207,159.58c7.15-2.75,16.52,5.36,16.68,14.33C215.76,176.28,207.07,169.57,206.16,160Z"/><path class="cls-4" d="M118.89,141.32v-11h-.6v11c-6.87-4.82-6.43-17.48.39-22.4C125.12,125.33,126.27,134.13,118.89,141.32Z"/><path class="cls-4" d="M198.53,148.05l11.74-1H198.8c3.69-6.76,16.32-7.2,22.06-.73C214.94,153.37,206.08,154.65,198.53,148.05Z"/><path class="cls-4" d="M52.66,143.56a14.94,14.94,0,0,1,22.32.72H63.09l11.84,1.05C69.26,151.73,58.45,150.82,52.66,143.56Z"/><path class="cls-4" d="M135,77.11c.57,3,1.15,5.92,1.74,8.92-6.91-2.31-9.2-13.58-4.2-20.15,7.62,4.18,9.94,12.79,5,20.1-.78-3-1.52-5.94-2.27-8.85Z"/><path class="cls-4" d="M74.9,153.94l-3,6.46.33.17,3.26-6.1c3.56,6.39-1.47,16-9.19,17.74C63.22,164,66.82,156.64,74.9,153.94Z"/><path class="cls-4" d="M203.54,117c-7.62.84-14.83-3.53-15.32-12.87l6.15,5,.23-.25-5.76-5.32C197.46,102.63,203.49,108.93,203.54,117Z"/><path class="cls-4" d="M197.67,163.44c-8.79,1.11-14.71-3.81-15.77-12.45l6.27,4.79.19-.24-5.67-5.08C189.59,148.39,197.89,155.72,197.67,163.44Z"/><path class="cls-4" d="M129.65,102.8l-2.1-2.51-.38.34,1.94,2.51c-5.77.43-10.84-5.66-9.7-11.55C125.75,91.62,130.57,96.75,129.65,102.8Z"/><path class="cls-4" d="M165.31,119.32c-.55,5.19-4.21,8.49-9.3,8.43a1.45,1.45,0,0,1-1.57-1.64C154.83,121.51,160.84,117.8,165.31,119.32Z"/><path class="cls-4" d="M121.27,180.68c-5.16,1.23-9.64-1.28-11.09-6.17a1.35,1.35,0,0,1,1.3-1.92A8.9,8.9,0,0,1,121.27,180.68Z"/><path class="cls-4" d="M178.85,86.9c1.62,4.61-1.32,10.21-6,11.18A2.08,2.08,0,0,1,171.13,97C170.05,92.35,174,87.28,178.85,86.9Z"/><path class="cls-4" d="M108.21,180.9l.77,2.7.24,0-.36-2.55c4.59,1.9,5.8,8,2.65,12.94C106.68,192.16,105,185.78,108.21,180.9Z"/><path class="cls-4" d="M193.7,171.82l-1.89-.66c3.87-3.22,9.7-1.58,12.76,3.51-5.1,3.63-10.61,1.53-13.09-2.91l2.17.27Z"/><path class="cls-4" d="M101.84,111.65l-1-3.87-.19,0,.57,3.76c-4.55-1.68-5.77-8.52-2.38-13A8.76,8.76,0,0,1,101.84,111.65Z"/><path class="cls-4" d="M190.31,185.29c-4.7-2.89-5.91-9-2.42-13.09.27,1.19.51,2.28.76,3.37l.19,0c-.11-1.11-.22-2.22-.34-3.46A8.66,8.66,0,0,1,190.31,185.29Z"/><path class="cls-4" d="M95.08,145.8c3.13,4.85,1.8,10.34-3.26,13.07l.52-2.55-.27-.11-.83,2.41C88.29,153.76,90,148.75,95.08,145.8Z"/><path class="cls-4" d="M169.58,182.17l-.68,3.05.21.08,1-2.81c3.21,3.66,1.28,9.82-3.85,12.59C163,191.12,164.64,184.33,169.58,182.17Z"/><path class="cls-4" d="M81,167.27c3.71-4.57,9.39-5.29,13.32-1.62l-4.37.69,0,.16,4.27-.26C92.2,170.65,85.2,171.22,81,167.27Z"/><path class="cls-4" d="M163.89,180h4.47c-3.47,4.19-8.92,4.34-13.25.5,2.35-4.44,9.37-5.15,13.27-1.17l-4.52.46Z"/></g></g><g id="words"><g class="cls-5"><path d="M70.35,97.09a.41.41,0,0,1-.21-.15l-6.86-9a.18.18,0,0,1-.06-.08.36.36,0,0,1,0-.25.39.39,0,0,1,.2-.18l1.18-.45a.36.36,0,0,1,.27,0,.48.48,0,0,1,.22.15L70.34,94l-.82-8.61a.35.35,0,0,1,0-.26.39.39,0,0,1,.21-.17L71,84.49a.45.45,0,0,1,.28,0,.32.32,0,0,1,.21.15l5.25,6.91-.83-8.61a.4.4,0,0,1,.06-.26.46.46,0,0,1,.21-.18L77.38,82a.29.29,0,0,1,.3,0,.36.36,0,0,1,.14.26l.88,11.34a.31.31,0,0,1-.06.26.46.46,0,0,1-.22.17L77,94.64a.42.42,0,0,1-.27,0,.44.44,0,0,1-.22-.15l-4.88-6.57.74,8.16a.37.37,0,0,1-.07.27.47.47,0,0,1-.22.17l-1.43.55A.39.39,0,0,1,70.35,97.09Z"/><path d="M83.75,91.78a.63.63,0,0,1-.37-.38l-3.66-9.52a.68.68,0,0,1,0-.54.71.71,0,0,1,.39-.37l5.16-2a.39.39,0,0,1,.26,0,.3.3,0,0,1,.18.2l.44,1.13a.39.39,0,0,1,0,.26.32.32,0,0,1-.2.18l-4,1.53,1,2.57,3-1.14a.33.33,0,0,1,.26,0,.34.34,0,0,1,.18.19L86.79,85a.32.32,0,0,1-.19.44l-3,1.14,1.16,3,4-1.53A.39.39,0,0,1,89,88a.32.32,0,0,1,.18.2l.44,1.13a.33.33,0,0,1,0,.26.29.29,0,0,1-.19.18l-5.16,2A.65.65,0,0,1,83.75,91.78Z"/><path d="M58.94,122.75a6,6,0,0,1-2.86-1.31,6.14,6.14,0,0,1-1.86-2.59l-2.12-5.52a6.19,6.19,0,0,1,.89-6,5.74,5.74,0,0,1,2.53-1.87A6.55,6.55,0,0,1,58,105a6.15,6.15,0,0,1,2.39.52.39.39,0,0,1,.23.24.53.53,0,0,1,0,.35l-.36,1a.6.6,0,0,1-.29.24.52.52,0,0,1-.42,0,4.27,4.27,0,0,0-3.33,0,3.69,3.69,0,0,0-1.66,1.25,4.21,4.21,0,0,0-.79,2,4.33,4.33,0,0,0,.26,2.14l2.12,5.52a4.29,4.29,0,0,0,1.24,1.76,4.18,4.18,0,0,0,1.9.93,3.69,3.69,0,0,0,2.08-.17,4.3,4.3,0,0,0,2.46-2.25.57.57,0,0,1,.29-.3.61.61,0,0,1,.38,0l.91.46a.42.42,0,0,1,.23.26.42.42,0,0,1,0,.33,6.17,6.17,0,0,1-1.43,2,6.54,6.54,0,0,1-2.17,1.33A5.77,5.77,0,0,1,58.94,122.75Z"/><path d="M68.65,119.38a.41.41,0,0,1-.17-.35l-.87-17.54a.52.52,0,0,1,.09-.29.61.61,0,0,1,.24-.19l1.56-.6a.61.61,0,0,1,.3,0,.47.47,0,0,1,.27.16l11.1,13.6a.45.45,0,0,1,.09.16.42.42,0,0,1,0,.29.43.43,0,0,1-.23.21l-1.16.44a.44.44,0,0,1-.3,0,.46.46,0,0,1-.27-.15l-2.89-3.6-6.14,2.36.26,4.61a.35.35,0,0,1-.08.29.64.64,0,0,1-.25.19l-1.16.45A.39.39,0,0,1,68.65,119.38ZM75.19,110l-5.53-6.84.48,8.78Z"/><path d="M84.4,113.4a.35.35,0,0,1-.18-.2l-6-15.57a.53.53,0,0,1,0-.41.49.49,0,0,1,.3-.28l1.39-.53a.82.82,0,0,1,.38-.06.64.64,0,0,1,.36.15l12.46,10.16-5-13a.36.36,0,0,1,0-.27.33.33,0,0,1,.2-.18l1.18-.46a.36.36,0,0,1,.27,0,.3.3,0,0,1,.18.2l6,15.57a.53.53,0,0,1,0,.41.5.5,0,0,1-.3.27l-1.42.55a.86.86,0,0,1-.39,0,.58.58,0,0,1-.35-.15L81.06,99.49l5,13a.36.36,0,0,1,0,.27.32.32,0,0,1-.2.19l-1.18.45A.32.32,0,0,1,84.4,113.4Z"/><path d="M50.72,154.89a1.28,1.28,0,0,1-.72-.77l-7.22-18.77a1.35,1.35,0,0,1,.79-1.77l5.28-2a6.42,6.42,0,0,1,3.37-.37,6.59,6.59,0,0,1,3,1.31,6.09,6.09,0,0,1,2,2.68,5.17,5.17,0,0,1-.39,4.51,5.21,5.21,0,0,1,3.11,1,6.13,6.13,0,0,1,2,2.8,6.83,6.83,0,0,1,.39,3.62,7.06,7.06,0,0,1-1.47,3.27A6.9,6.9,0,0,1,58,152.54l-6.18,2.37A1.32,1.32,0,0,1,50.72,154.89Zm1.18-14.62a3,3,0,0,0,1.66-1.52,2.67,2.67,0,0,0-1.43-3.7,2.92,2.92,0,0,0-2.25,0l-2.71,1,2,5.25Zm4.59,8.92a3.19,3.19,0,0,0,1.88-1.71,3.23,3.23,0,0,0,0-2.57,3,3,0,0,0-1.7-1.8,3.24,3.24,0,0,0-2.52,0l-3.73,1.43,2.34,6.09Z"/><path d="M71.69,146.44a8.24,8.24,0,0,1-4-1.94,9.74,9.74,0,0,1-2.7-3.95l-4.86-12.62a.67.67,0,0,1,0-.52.66.66,0,0,1,.38-.35l2.39-.92a.64.64,0,0,1,.51,0,.6.6,0,0,1,.35.38l4.92,12.77a5.3,5.3,0,0,0,2.5,3,4.29,4.29,0,0,0,3.63.11,4.21,4.21,0,0,0,2.58-2.5,5.33,5.33,0,0,0-.15-3.91l-4.91-12.77a.63.63,0,0,1,0-.52.66.66,0,0,1,.38-.35l2.38-.92a.67.67,0,0,1,.52,0,.66.66,0,0,1,.35.38l4.85,12.62a9.79,9.79,0,0,1,.65,4.75,8.23,8.23,0,0,1-1.67,4.12A8.33,8.33,0,0,1,76.18,146,8.21,8.21,0,0,1,71.69,146.44Z"/><path d="M88,140.77a.64.64,0,0,1-.35-.37l-.79-2.06a.63.63,0,0,1,0-.52.61.61,0,0,1,.37-.35l2.54-1-5.65-14.71-2.54,1a.67.67,0,0,1-.52,0,.66.66,0,0,1-.35-.38L80,120.31a.63.63,0,0,1,0-.52.64.64,0,0,1,.37-.35l8.72-3.35a.64.64,0,0,1,.51,0,.67.67,0,0,1,.36.38l.79,2.06a.67.67,0,0,1,0,.52.66.66,0,0,1-.38.35l-2.53,1,5.65,14.71,2.54-1a.6.6,0,0,1,.51,0,.65.65,0,0,1,.36.37l.79,2.06a.72.72,0,0,1,0,.52.63.63,0,0,1-.38.35l-8.71,3.35A.63.63,0,0,1,88,140.77Z"/><path d="M102.2,135.1a1.32,1.32,0,0,1-.73-.77L94,114.91a.72.72,0,0,1,0-.52.66.66,0,0,1,.38-.35l2.39-.92a.67.67,0,0,1,.87.39l6.61,17.22,6.93-2.66a.65.65,0,0,1,.51,0,.63.63,0,0,1,.35.38l.87,2.24a.72.72,0,0,1,0,.52.66.66,0,0,1-.38.35l-9.28,3.57A1.32,1.32,0,0,1,102.2,135.1Z"/><path d="M116.67,129.54a1.32,1.32,0,0,1-.73-.77L108.73,110a1.32,1.32,0,0,1,0-1,1.35,1.35,0,0,1,.77-.73l5.85-2.24a8.63,8.63,0,0,1,8.73,1.37,8.93,8.93,0,0,1,2.71,3.79l1.8,4.68a9,9,0,0,1,.52,4.63,8.54,8.54,0,0,1-1.81,4.15,8.66,8.66,0,0,1-3.75,2.71l-5.85,2.25A1.32,1.32,0,0,1,116.67,129.54Zm5.41-5.66a4.92,4.92,0,0,0,2.12-1.55,5.12,5.12,0,0,0,1.07-2.4,4.94,4.94,0,0,0-.28-2.65l-1.86-4.83a5,5,0,0,0-1.55-2.13,5.22,5.22,0,0,0-2.4-1.07,5,5,0,0,0-2.62.28l-3.34,1.28,5.52,14.35Z"/><path d="M109.42,222.94a.4.4,0,0,1-.32.16l-15.7.77a.37.37,0,0,1-.26-.08.5.5,0,0,1-.17-.21l-.53-1.39a.53.53,0,0,1,0-.28.43.43,0,0,1,.14-.23l12.17-9.94a.43.43,0,0,1,.14-.08.34.34,0,0,1,.26,0,.36.36,0,0,1,.19.21l.4,1a.5.5,0,0,1,0,.27.42.42,0,0,1-.14.24L102.38,216l2.11,5.49,4.13-.23a.33.33,0,0,1,.26.07.63.63,0,0,1,.17.23l.39,1A.37.37,0,0,1,109.42,222.94Zm-8.4-5.85L94.9,222l7.86-.43Z"/><path d="M98.66,194a.37.37,0,0,1-.14.23l-10.18,8.57,11.92-3a.41.41,0,0,1,.31,0,.47.47,0,0,1,.21.25l.38,1a.37.37,0,0,1,0,.31.39.39,0,0,1-.24.18l-14.77,3.57a.34.34,0,0,1-.2,0,.29.29,0,0,1-.13-.14l-.57-1.47a.56.56,0,0,1,0-.29.32.32,0,0,1,.14-.22l10.46-8.8-13.75.47a.26.26,0,0,1-.29-.18L81.22,193a.45.45,0,0,1,0-.32.49.49,0,0,1,.21-.24l13.24-7.17,0,0a.36.36,0,0,1,.27,0,.31.31,0,0,1,.2.2l.39,1a.51.51,0,0,1,0,.32.4.4,0,0,1-.22.24l-10.8,5.76,13.26-.45a.43.43,0,0,1,.26.09.44.44,0,0,1,.17.21l.4,1.06A.48.48,0,0,1,98.66,194Z"/><path d="M92.56,180a5.59,5.59,0,0,1-1.15,2.62,5.33,5.33,0,0,1-2.31,1.68l-4.92,1.89a5.32,5.32,0,0,1-2.84.3,5.53,5.53,0,0,1-2.61-1.17A5.44,5.44,0,0,1,77,183a5.35,5.35,0,0,1-.3-2.85,5.51,5.51,0,0,1,1.15-2.61,5.35,5.35,0,0,1,2.31-1.69l4.92-1.89a5.35,5.35,0,0,1,2.85-.3,5.54,5.54,0,0,1,2.6,1.17,5.53,5.53,0,0,1,2,5.17Zm-3.07-3.76a3.88,3.88,0,0,0-1.78-.76,3.7,3.7,0,0,0-1.92.21l-4.92,1.89a3.84,3.84,0,0,0-1.57,1.13,3.89,3.89,0,0,0-.81,1.76,3.46,3.46,0,0,0,.18,1.91,3.4,3.4,0,0,0,1.14,1.53,3.88,3.88,0,0,0,1.78.76,3.7,3.7,0,0,0,1.92-.21l4.92-1.89A3.69,3.69,0,0,0,90,181.39a3.89,3.89,0,0,0,.81-1.76,3.49,3.49,0,0,0-1.32-3.44Z"/><path d="M88.54,168.5a.29.29,0,0,1-.18.16L74.75,173.9a.81.81,0,0,1-.63,0,.79.79,0,0,1-.43-.45l-1.41-3.67a4.58,4.58,0,0,1-.26-2.39,4.64,4.64,0,0,1,1-2.15,4.51,4.51,0,0,1,1.93-1.39,4.33,4.33,0,0,1,3.07-.07,4.43,4.43,0,0,1,2.4,1.89L84.68,160a.4.4,0,0,1,.19-.14.36.36,0,0,1,.32,0,.47.47,0,0,1,.22.24l.41,1.08a.37.37,0,0,1-.07.39l-4.55,6,.63,1.65,5.87-2.26a.31.31,0,0,1,.41.18l.44,1.14A.31.31,0,0,1,88.54,168.5Zm-9.33-1.26a2.77,2.77,0,0,0-1.46-1.61,2.72,2.72,0,0,0-2.15,0A2.81,2.81,0,0,0,74,167.08a2.71,2.71,0,0,0,0,2.18l1,2.57,5.25-2Z"/><path d="M83.79,156.54a.76.76,0,0,1-.45.43L70.18,162a.79.79,0,0,1-.62,0,.81.81,0,0,1-.43-.46l-2.67-6.94a.36.36,0,0,1,0-.25.31.31,0,0,1,.18-.16l1-.4a.33.33,0,0,1,.24,0,.37.37,0,0,1,.17.18l2.29,6,4.52-1.74-1.75-4.56a.31.31,0,0,1,.18-.41l1-.38a.36.36,0,0,1,.25,0,.31.31,0,0,1,.16.18l1.76,4.56,5.32-2-2.3-6a.31.31,0,0,1,.18-.41l1-.4a.29.29,0,0,1,.24,0,.31.31,0,0,1,.17.17l2.67,6.95A.79.79,0,0,1,83.79,156.54Z"/><path class="cls-8" d="M105.65,177.65a19.43,19.43,0,0,1-5.49-.52.84.84,0,0,1-.53-.37,1,1,0,0,1-.19-.65l.51-3.62a1,1,0,0,1,.68-.92,1.58,1.58,0,0,1,.78-.08,13.55,13.55,0,0,0,7.48-.32,6.41,6.41,0,0,0,3.49-2.73,4.18,4.18,0,0,0,.23-3.7,3.55,3.55,0,0,0-1.54-1.88,6.19,6.19,0,0,0-2.46-.76c-1-.11-2.29-.17-4-.19l-1.59,0a18.76,18.76,0,0,1-6.76-1.42c-2-.86-3.55-2.66-4.61-5.4a10.7,10.7,0,0,1-.66-5.61,9.67,9.67,0,0,1,2.29-4.85,12,12,0,0,1,4.88-3.28,16.47,16.47,0,0,1,5.31-1.09,16.89,16.89,0,0,1,5.35.57.84.84,0,0,1,.52.37.88.88,0,0,1,.2.66l-.41,3.58a1,1,0,0,1-.68.91,1.53,1.53,0,0,1-.79.09,15.62,15.62,0,0,0-4.18-.35,10.86,10.86,0,0,0-3.2.63,5.11,5.11,0,0,0-2.92,2.45,4.46,4.46,0,0,0,2.43,6,16.55,16.55,0,0,0,5.27.77c.32,0,1.57,0,3.74.06a11.07,11.07,0,0,1,5.78,1.66,9.21,9.21,0,0,1,3.67,4.62,10.48,10.48,0,0,1,.61,5.76,10.16,10.16,0,0,1-2.53,5.08,13.34,13.34,0,0,1-5.28,3.49A16.69,16.69,0,0,1,105.65,177.65Z"/><path class="cls-8" d="M133.29,166.11a13.39,13.39,0,0,1-6.32-2.79,13.1,13.1,0,0,1-4.09-5.63L119,147.61a13,13,0,0,1-.73-6.91,13.26,13.26,0,0,1,2.82-6.3,13.54,13.54,0,0,1,12.59-4.84,13.36,13.36,0,0,1,6.31,2.79,13,13,0,0,1,4.09,5.62L148,148.05a13,13,0,0,1,.74,6.92,13.46,13.46,0,0,1-2.82,6.3,13.54,13.54,0,0,1-12.59,4.84Zm7.8-8.52a7.58,7.58,0,0,0,1.51-3.51,7.38,7.38,0,0,0-.41-3.81l-3.87-10.08a7.47,7.47,0,0,0-2.25-3.1,7.61,7.61,0,0,0-3.47-1.6,6.92,6.92,0,0,0-6.72,2.59,7.46,7.46,0,0,0-1.5,3.51,7.28,7.28,0,0,0,.4,3.81l3.88,10.08a7.3,7.3,0,0,0,2.25,3.1,7.55,7.55,0,0,0,3.47,1.59,6.86,6.86,0,0,0,6.71-2.58Z"/><path class="cls-8" d="M159.57,156.55a2.12,2.12,0,0,1-1.15-1.22l-11.84-30.81a1,1,0,0,1,0-.81,1,1,0,0,1,.6-.56l3.78-1.46a1.06,1.06,0,0,1,.82,0,1,1,0,0,1,.56.6l10.5,27.31,11-4.22a1,1,0,0,1,.82,0,1.05,1.05,0,0,1,.55.6l1.37,3.55a1,1,0,0,1-.61,1.38l-14.72,5.65A2.11,2.11,0,0,1,159.57,156.55Z"/><path class="cls-8" d="M181.52,148.44a1.13,1.13,0,0,1-.64-.66,1.17,1.17,0,0,1-.09-.4l-1.87-35.51a1.48,1.48,0,0,1,.25-1,1.64,1.64,0,0,1,.82-.64l3.69-1.42a1.66,1.66,0,0,1,1-.07,1.54,1.54,0,0,1,.84.55L208,136.94a1.32,1.32,0,0,1,.19.36,1.11,1.11,0,0,1,0,.91,1.21,1.21,0,0,1-.69.62l-3.4,1.31a1.62,1.62,0,0,1-1,.05,1.69,1.69,0,0,1-.85-.58l-4.75-6-11.07,4.26.49,7.63a1.66,1.66,0,0,1-.24,1,1.56,1.56,0,0,1-.81.66l-3.31,1.27A1.22,1.22,0,0,1,181.52,148.44Zm12.15-19.53-8.74-11.15,1,14.13Z"/><path class="cls-8" d="M214.13,135.92a1,1,0,0,1-.56-.6l-11.84-30.8A2.18,2.18,0,0,1,203,101.7l8.85-3.4a11.36,11.36,0,0,1,5.83-.67,11.09,11.09,0,0,1,5.27,2.27,10.8,10.8,0,0,1,3.7,11.47,10.91,10.91,0,0,1-3.89,5.71l12.54,9.14a1.45,1.45,0,0,1,.44.59,1,1,0,0,1,0,.83,1.14,1.14,0,0,1-.67.58l-3.88,1.49a1.44,1.44,0,0,1-1.48-.19l-12.72-9.61-2.31.89,4.73,12.31a1,1,0,0,1,0,.81,1,1,0,0,1-.6.56L215,135.94A1.06,1.06,0,0,1,214.13,135.92Zm3.22-22.42a5.26,5.26,0,0,0,3.05-2.72,4.85,4.85,0,0,0,.08-4,5,5,0,0,0-2.74-3,5.21,5.21,0,0,0-4.1,0l-4.83,1.86,3.71,9.65Z"/><path d="M147.33,234.06a.68.68,0,0,1-.33-.24L136.47,220a.49.49,0,0,1-.08-.13.52.52,0,0,1,.31-.65l1.81-.7a.61.61,0,0,1,.42,0,.62.62,0,0,1,.33.24l8.05,10.6L146,216.09a.66.66,0,0,1,.09-.39.63.63,0,0,1,.33-.27l1.81-.7a.67.67,0,0,1,.42,0,.62.62,0,0,1,.33.24l8,10.6-1.27-13.21a.55.55,0,0,1,.09-.39.57.57,0,0,1,.32-.27l1.9-.74a.49.49,0,0,1,.46,0,.52.52,0,0,1,.22.4l1.35,17.39a.54.54,0,0,1-.09.41.73.73,0,0,1-.34.26l-2.21.85a.62.62,0,0,1-.75-.22L149.25,220l1.14,12.52a.54.54,0,0,1-.1.41.68.68,0,0,1-.34.26l-2.2.85A.67.67,0,0,1,147.33,234.06Z"/><path d="M169.89,224.87a6.62,6.62,0,0,1-3.1-1.36,6.42,6.42,0,0,1-2-2.77l-1.9-4.94a6.38,6.38,0,0,1-.36-3.39,6.65,6.65,0,0,1,1.38-3.1,6.5,6.5,0,0,1,2.77-2,6.61,6.61,0,0,1,6.51,1,6.25,6.25,0,0,1,2,2.76L177.1,216a6.5,6.5,0,0,1,.36,3.4,6.69,6.69,0,0,1-1.39,3.09,6.5,6.5,0,0,1-2.77,2A6.43,6.43,0,0,1,169.89,224.87Zm3.83-4.17a3.63,3.63,0,0,0,.74-1.73,3.52,3.52,0,0,0-.2-1.87l-1.9-4.94a3.5,3.5,0,0,0-1.1-1.52,3.59,3.59,0,0,0-1.7-.79,3.35,3.35,0,0,0-1.83.17,3.26,3.26,0,0,0-1.47,1.1,3.69,3.69,0,0,0-.74,1.72,3.61,3.61,0,0,0,.2,1.87l1.9,4.95a3.56,3.56,0,0,0,1.11,1.52,3.63,3.63,0,0,0,1.7.78,3.22,3.22,0,0,0,1.82-.17A3.31,3.31,0,0,0,173.72,220.7Z"/><path d="M182.7,220.39a.53.53,0,0,1-.28-.29L176.61,205a1,1,0,0,1,0-.82,1,1,0,0,1,.6-.56l4.34-1.67a5.42,5.42,0,0,1,2.86-.33,5.51,5.51,0,0,1,2.59,1.11,5.3,5.3,0,0,1,1.67,2.26,5.2,5.2,0,0,1,.14,3.37,5.33,5.33,0,0,1-1.91,2.8l6.16,4.49a.66.66,0,0,1,.21.29.47.47,0,0,1,0,.4.59.59,0,0,1-.33.29l-1.91.73a.71.71,0,0,1-.73-.09l-6.24-4.72-1.13.44,2.32,6a.5.5,0,0,1,0,.4.48.48,0,0,1-.29.27l-1.86.72A.5.5,0,0,1,182.7,220.39Zm1.58-11a2.59,2.59,0,0,0,1.5-1.34,2.42,2.42,0,0,0,0-1.94,2.47,2.47,0,0,0-1.35-1.46,2.59,2.59,0,0,0-2,0l-2.37.91,1.82,4.74Z"/><path d="M196.56,214.89a1,1,0,0,1-.56-.6l-5.81-15.12a.47.47,0,0,1,0-.4.5.5,0,0,1,.3-.27l1.85-.72a.53.53,0,0,1,.41,0,.48.48,0,0,1,.27.29l5.15,13.4,5.39-2.07a.5.5,0,0,1,.4,0,.46.46,0,0,1,.27.29l.67,1.74a.49.49,0,0,1,0,.41.53.53,0,0,1-.3.27l-7.22,2.78A1.06,1.06,0,0,1,196.56,214.89Z"/><path d="M207.83,210.56a1.05,1.05,0,0,1-.57-.6l-5.61-14.61a1,1,0,0,1,0-.82,1.07,1.07,0,0,1,.6-.56l4.55-1.75a6.71,6.71,0,0,1,3.58-.39,6.81,6.81,0,0,1,3.22,1.46,6.94,6.94,0,0,1,2.1,3l1.41,3.64a7.11,7.11,0,0,1,.41,3.6,6.86,6.86,0,0,1-1.41,3.24,6.79,6.79,0,0,1-2.92,2.11l-4.56,1.75A1,1,0,0,1,207.83,210.56Zm4.21-4.41a3.88,3.88,0,0,0,1.65-1.2,4.11,4.11,0,0,0,.83-1.87,4,4,0,0,0-.22-2.06l-1.45-3.76a3.79,3.79,0,0,0-1.21-1.66,4.13,4.13,0,0,0-1.86-.83,4,4,0,0,0-2,.21l-2.6,1,4.29,11.17Z"/><path class="cls-8" d="M118.32,219.12a1.08,1.08,0,0,1-.59-.63l-12.45-32.4a2.29,2.29,0,0,1,1.31-3l8.86-3.4a12.07,12.07,0,0,1,6.39-.69,12.55,12.55,0,0,1,5.84,2.55,12.12,12.12,0,0,1,4.42,11.5,12.45,12.45,0,0,1-2.62,5.81,12.25,12.25,0,0,1-5.21,3.77l-4.92,1.89,4.45,11.6a1.08,1.08,0,0,1-.64,1.44l-4,1.53A1.07,1.07,0,0,1,118.32,219.12Zm3.5-22.08a6.16,6.16,0,0,0-4.42-11.5l-4.67,1.8,4.42,11.5Z"/><path class="cls-8" d="M152.88,204.81a14,14,0,0,1-6.67-3.24,16.3,16.3,0,0,1-4.5-6.58l-8.09-21.05a1.1,1.1,0,0,1,.64-1.45l4-1.53a1.14,1.14,0,0,1,.87,0,1.11,1.11,0,0,1,.58.64l8.19,21.3a8.91,8.91,0,0,0,4.18,5,7.13,7.13,0,0,0,6.05.19,7,7,0,0,0,4.31-4.17,8.93,8.93,0,0,0-.26-6.52L154,166.12a1.14,1.14,0,0,1,0-.87,1.11,1.11,0,0,1,.64-.58l4-1.53a1.08,1.08,0,0,1,1.44.64l8.1,21.05a16.34,16.34,0,0,1,1.07,7.93,13.63,13.63,0,0,1-2.78,6.87,14.41,14.41,0,0,1-13.55,5.18Z"/><path class="cls-8" d="M181.42,194.86a1.08,1.08,0,0,1-.59-.63l-12.72-33.09a1.51,1.51,0,0,1,0-1.18,1.48,1.48,0,0,1,.86-.82l4.08-1.57a1.67,1.67,0,0,1,1.63.23l19.71,15.62,4,3.26-9.26-24.09a1,1,0,0,1,0-.86,1.08,1.08,0,0,1,.63-.59l3.58-1.37a1.1,1.1,0,0,1,1.45.64l12.72,33.09a1.49,1.49,0,0,1,0,1.19,1.46,1.46,0,0,1-.86.81l-4.13,1.59a1.64,1.64,0,0,1-1.63-.23L180.53,170.7l-3.25-2.64,9.22,24a1.06,1.06,0,0,1,0,.89,1.15,1.15,0,0,1-.64.56l-3.58,1.38A1.07,1.07,0,0,1,181.42,194.86Z"/><path class="cls-8" d="M236.62,174a1.85,1.85,0,0,1-1.71-.14L218.26,164l-1.89.73,5.32,13.84A1.08,1.08,0,0,1,221,180l-4,1.53a1.08,1.08,0,0,1-1.44-.64l-12.88-33.49a1.11,1.11,0,0,1,0-.86,1.14,1.14,0,0,1,.63-.59l4-1.53a1.08,1.08,0,0,1,1.44.64l5.4,14,1.64-.63,5.92-18.79a1.93,1.93,0,0,1,1.22-1.27l4.53-1.74a1.08,1.08,0,0,1,.83,0,.9.9,0,0,1,.51.52,1.16,1.16,0,0,1,0,.74l-6.78,21,19.34,11.53a1.17,1.17,0,0,1,.5.55.87.87,0,0,1,0,.72,1,1,0,0,1-.61.56Z"/></g></g></svg>