<svg xmlns="http://www.w3.org/2000/svg" xmlns:xlink="http://www.w3.org/1999/xlink" viewBox="0 0 283.46 283.46"><defs><style>.cls-1{fill:none;}.cls-2{fill:#fff;}.cls-3{fill:#6f3ff4;}.cls-4{fill:#02e1ab;}.cls-5{fill:#b2ffec;}.cls-6{fill:#11bb91;}.cls-7{clip-path:url(#clip-path);}.cls-8{stroke:#000;stroke-miterlimit:10;}.cls-9{clip-path:url(#clip-path-2);}</style><clipPath id="clip-path"><polygon class="cls-1" points="84.72 143.63 84.72 143.63 102.02 153.86 141.71 177.31 141.71 177.31 198.69 143.63 141.71 49.08 141.71 49.08 141.71 49.08 141.71 49.08 141.71 49.08 84.72 143.63 84.72 143.63"/></clipPath><clipPath id="clip-path-2"><polygon class="cls-1" points="198.72 154.44 141.71 188.1 141.71 188.1 84.72 154.44 141.71 234.74 141.71 234.74 198.72 154.44"/></clipPath></defs><g id="profile"><path class="cls-2" d="M153.47,251.16a9.17,9.17,0,0,1-4.36-1.08,9.48,9.48,0,0,1-3.44-3.06,1.76,1.76,0,0,0-1.44-.77,1.72,1.72,0,0,0-1.41.73,1.37,1.37,0,0,1-2.24,0L72.67,151.29a2.78,2.78,0,0,1-.11-3L139.34,37.49a2.76,2.76,0,0,1,2.37-1.33,2.73,2.73,0,0,1,2.36,1.34l67,111.2a2.35,2.35,0,0,1-.09,2.58l-.17.23a1.82,1.82,0,0,0-.23,1.63,1.73,1.73,0,0,0,1.18,1.11,9.51,9.51,0,0,1,3.93,2.25,9.92,9.92,0,0,1,1.06,12.94l-55,77.39a10.2,10.2,0,0,1-8.27,4.33Z"/><path d="M141.71,36.66a2.24,2.24,0,0,1,1.93,1.09l67,111.21a1.85,1.85,0,0,1-.08,2l-.16.23a2.27,2.27,0,0,0,1.21,3.51,9.18,9.18,0,0,1,3.73,2.13,9.43,9.43,0,0,1,1,12.29l-55,77.39a9.69,9.69,0,0,1-7.87,4.12,8.64,8.64,0,0,1-4.12-1,9,9,0,0,1-3.27-2.9,2.23,2.23,0,0,0-1.85-1,2.26,2.26,0,0,0-1.82.94.86.86,0,0,1-.71.37.83.83,0,0,1-.71-.37L73.08,151a2.26,2.26,0,0,1-.09-2.48L139.77,37.75a2.25,2.25,0,0,1,1.94-1.09m0-1a3.23,3.23,0,0,0-2.79,1.58L72.13,148a3.26,3.26,0,0,0,.13,3.57l67.91,95.69a1.87,1.87,0,0,0,3.05,0,1.24,1.24,0,0,1,2,0,10.14,10.14,0,0,0,3.62,3.23,9.8,9.8,0,0,0,4.59,1.13,10.72,10.72,0,0,0,8.68-4.54l55-77.39a10.44,10.44,0,0,0-1.13-13.6,10.2,10.2,0,0,0-4.13-2.36,1.27,1.27,0,0,1-.68-2l.16-.23a2.85,2.85,0,0,0,.12-3.13l-67-111.2a3.23,3.23,0,0,0-2.79-1.58Z"/><path class="cls-3" d="M162.81,233.79a3.09,3.09,0,0,1-.8.43.12.12,0,0,1-.1,0,.13.13,0,0,1-.09-.07l-.25-.53a.17.17,0,0,1,0-.19.27.27,0,0,1,.1-.08,2,2,0,0,0,1-.72,1,1,0,0,0,.23-.68.69.69,0,0,0-.3-.52.56.56,0,0,0-.38-.12,1.07,1.07,0,0,0-.4.12c-.14.07-.33.19-.57.34l-.22.14a2.93,2.93,0,0,1-1,.41,1.45,1.45,0,0,1-1.11-.31,1.74,1.74,0,0,1-.59-.71,1.49,1.49,0,0,1-.13-.86,1.88,1.88,0,0,1,.37-.88,2.47,2.47,0,0,1,.62-.63,2.7,2.7,0,0,1,.77-.4.2.2,0,0,1,.11,0s.07,0,.08.07l.27.53a.17.17,0,0,1,0,.18.25.25,0,0,1-.1.08,3.37,3.37,0,0,0-.6.33,1.87,1.87,0,0,0-.37.38.78.78,0,0,0-.18.59.67.67,0,0,0,.3.47.65.65,0,0,0,.57.12,2.9,2.9,0,0,0,.78-.37l.51-.33a1.82,1.82,0,0,1,.94-.29,1.49,1.49,0,0,1,.91.29,1.68,1.68,0,0,1,.6.73,1.65,1.65,0,0,1,.11.91,2.07,2.07,0,0,1-.4.95A2.65,2.65,0,0,1,162.81,233.79Z"/><path class="cls-3" d="M165.5,229.76a2.15,2.15,0,0,1-2.15-.22l-1.44-1a2.14,2.14,0,0,1-.72-.86,2.09,2.09,0,0,1-.19-1.1,2,2,0,0,1,.38-1,2.41,2.41,0,0,1,.69-.66,2.09,2.09,0,0,1,.87-.29.23.23,0,0,1,.14,0,.24.24,0,0,1,.1.15l.1.52a.2.2,0,0,1,0,.14.2.2,0,0,1-.15.08,1.33,1.33,0,0,0-.94.57,1,1,0,0,0-.2.56,1.19,1.19,0,0,0,.13.6,1.14,1.14,0,0,0,.4.47l1.43,1a1.25,1.25,0,0,0,1.18.14,1,1,0,0,0,.46-.36,1.3,1.3,0,0,0,.23-1.09.19.19,0,0,1,0-.15.2.2,0,0,1,.13-.08l.52-.07a.22.22,0,0,1,.18,0,.36.36,0,0,1,.08.12,2.19,2.19,0,0,1,0,.92,2.4,2.4,0,0,1-.39.88A2.09,2.09,0,0,1,165.5,229.76Z"/><path class="cls-3" d="M167.88,226.65a.15.15,0,0,1-.13,0l-4.53-3.21a.19.19,0,0,1-.07-.12.17.17,0,0,1,0-.13l.38-.53a.2.2,0,0,1,.12-.08.17.17,0,0,1,.12,0l1.82,1.29,1.41-2-1.81-1.28a.15.15,0,0,1-.07-.12.16.16,0,0,1,0-.13l.38-.53a.21.21,0,0,1,.11-.08.2.2,0,0,1,.13,0l4.53,3.21a.16.16,0,0,1,.07.11.19.19,0,0,1,0,.13l-.39.54a.14.14,0,0,1-.11.07.16.16,0,0,1-.13,0l-1.93-1.38-1.42,2,1.94,1.38a.19.19,0,0,1,.07.11.15.15,0,0,1,0,.13l-.38.54A.19.19,0,0,1,167.88,226.65Z"/><path class="cls-3" d="M171.2,221.88a.4.4,0,0,1-.26-.06l-4.23-3a.36.36,0,0,1-.15-.23.4.4,0,0,1,.06-.26l1.63-2.29a.16.16,0,0,1,.12-.08l.12,0,.51.36a.19.19,0,0,1,.07.11.15.15,0,0,1,0,.13l-1.25,1.77,1.14.81.93-1.31a.17.17,0,0,1,.11-.08.28.28,0,0,1,.13,0l.48.34a.19.19,0,0,1,.07.12.17.17,0,0,1,0,.13l-.93,1.31,1.33.94,1.25-1.76a.19.19,0,0,1,.11-.07.15.15,0,0,1,.13,0l.51.36a.16.16,0,0,1,.07.11.15.15,0,0,1,0,.13l-1.63,2.29A.36.36,0,0,1,171.2,221.88Z"/><path class="cls-3" d="M173.79,218.23a.4.4,0,0,1-.26-.06l-4.38-3.11a.19.19,0,0,1-.07-.12.17.17,0,0,1,0-.13l.38-.53a.15.15,0,0,1,.12-.07.16.16,0,0,1,.13,0l3.87,2.75,1.11-1.56a.19.19,0,0,1,.11-.07.15.15,0,0,1,.13,0l.51.36a.16.16,0,0,1,.07.11.15.15,0,0,1,0,.13L174,218.08A.34.34,0,0,1,173.79,218.23Z"/><path class="cls-3" d="M176.11,215a.35.35,0,0,1-.26-.07l-4.38-3.1a.15.15,0,0,1-.07-.12.17.17,0,0,1,0-.13l.38-.53a.17.17,0,0,1,.24,0l3.88,2.75,1.11-1.56a.16.16,0,0,1,.11-.07.15.15,0,0,1,.13,0l.5.36a.18.18,0,0,1,.08.11.2.2,0,0,1,0,.13l-1.48,2.09A.36.36,0,0,1,176.11,215Z"/><path class="cls-3" d="M178.34,211.92a.15.15,0,0,1-.13,0l-.47-.33a.16.16,0,0,1-.07-.11.19.19,0,0,1,0-.13l.41-.57-3.32-2.36-.4.58a.19.19,0,0,1-.11.07.15.15,0,0,1-.13,0l-.47-.33a.19.19,0,0,1-.07-.11.19.19,0,0,1,0-.13l1.4-2a.16.16,0,0,1,.11-.07.15.15,0,0,1,.13,0l.46.33a.17.17,0,0,1,0,.24l-.4.57,3.31,2.36.41-.57a.18.18,0,0,1,.11-.08.2.2,0,0,1,.13,0l.46.33a.15.15,0,0,1,.08.11.22.22,0,0,1,0,.13l-1.39,2A.19.19,0,0,1,178.34,211.92Z"/><path class="cls-3" d="M180.59,208.75a.15.15,0,0,1-.13,0L176,205.55a.21.21,0,0,1-.1-.16.21.21,0,0,1,0-.17l.39-.56a.28.28,0,0,1,.23-.11l3.88.33.79.08L178,202.65a.21.21,0,0,1-.08-.11.2.2,0,0,1,0-.13l.34-.49a.19.19,0,0,1,.11-.07.15.15,0,0,1,.13,0l4.47,3.18a.2.2,0,0,1,.1.15.22.22,0,0,1,0,.18l-.4.56a.27.27,0,0,1-.23.11l-4-.34-.64-.06L181,208a.17.17,0,0,1,.08.11.2.2,0,0,1,0,.13l-.34.48A.15.15,0,0,1,180.59,208.75Z"/><path class="cls-3" d="M184.36,203.21a2.15,2.15,0,0,1-1.11.19,2.08,2.08,0,0,1-1.06-.39l-1.43-1a2.17,2.17,0,0,1-.72-.87,2.2,2.2,0,0,1-.19-1.1,2.06,2.06,0,0,1,.4-1.06,2.29,2.29,0,0,1,.71-.68,2,2,0,0,1,.87-.31.28.28,0,0,1,.15,0,.27.27,0,0,1,.09.15l.1.52a.16.16,0,0,1,0,.14.19.19,0,0,1-.15.08,1.41,1.41,0,0,0-1,.61,1.14,1.14,0,0,0-.09,1.18,1.08,1.08,0,0,0,.39.48l1.43,1a1.36,1.36,0,0,0,.59.22,1.27,1.27,0,0,0,.61-.1,1.12,1.12,0,0,0,.48-.38,1.16,1.16,0,0,0,.21-.57,1.13,1.13,0,0,0-.11-.6,1.1,1.1,0,0,0-.39-.47l-.33-.23-.64.9a.16.16,0,0,1-.11.07.15.15,0,0,1-.13,0l-.48-.35a.15.15,0,0,1-.08-.11.22.22,0,0,1,0-.13l1-1.41a.35.35,0,0,1,.23-.15.32.32,0,0,1,.27.06l.78.55a2.13,2.13,0,0,1,.72.88,2.15,2.15,0,0,1-.2,2.15A2,2,0,0,1,184.36,203.21Z"/><path class="cls-3" d="M188.21,198a.19.19,0,0,1-.13,0l-4.38-3.11a.33.33,0,0,1-.14-.23.32.32,0,0,1,.06-.27l.85-1.19a1.81,1.81,0,0,1,.76-.64,1.92,1.92,0,0,1,1-.17,1.89,1.89,0,0,1,1.56,1.1,2.05,2.05,0,0,1,.16,1,2,2,0,0,1-.35.93l-.48.66,1.57,1.12a.12.12,0,0,1,.07.11.16.16,0,0,1,0,.13l-.38.54A.19.19,0,0,1,188.21,198Zm-1.44-3.15a1,1,0,0,0-.23-1.33.91.91,0,0,0-.7-.16.89.89,0,0,0-.62.39l-.45.63,1.55,1.1Z"/><path class="cls-3" d="M191.42,193.27a2.18,2.18,0,0,1-2.17-.2l-1.43-1a2.17,2.17,0,0,1-.72-.87,2.11,2.11,0,0,1-.18-1.11,2,2,0,0,1,.39-1.06,2.08,2.08,0,0,1,.88-.73,2.2,2.2,0,0,1,1.1-.19,2.15,2.15,0,0,1,1.06.4l1.43,1a2,2,0,0,1,.72.87,2.25,2.25,0,0,1,.19,1.11,2.15,2.15,0,0,1-.4,1.06A2.11,2.11,0,0,1,191.42,193.27Zm.29-1.86a1.18,1.18,0,0,0-.11-.61,1.23,1.23,0,0,0-.4-.48l-1.43-1a1.15,1.15,0,0,0-.58-.22,1.3,1.3,0,0,0-.62.09,1.19,1.19,0,0,0-.47.39,1.16,1.16,0,0,0-.21.57,1.31,1.31,0,0,0,.12.61,1.15,1.15,0,0,0,.39.48l1.44,1a1.2,1.2,0,0,0,.58.21,1.26,1.26,0,0,0,.61-.09,1.13,1.13,0,0,0,.48-.38A1.09,1.09,0,0,0,191.71,191.41Z"/><path class="cls-3" d="M193.91,190a.16.16,0,0,1-.13,0l-.46-.33a.16.16,0,0,1-.07-.11.16.16,0,0,1,0-.13l.41-.57-3.32-2.35L190,187a.14.14,0,0,1-.11.07.16.16,0,0,1-.13,0l-.46-.33a.19.19,0,0,1-.07-.11.15.15,0,0,1,0-.13l1.39-2a.19.19,0,0,1,.11-.07.19.19,0,0,1,.13,0l.47.33a.19.19,0,0,1,.07.12.14.14,0,0,1,0,.12l-.41.58,3.32,2.35.4-.57a.19.19,0,0,1,.12-.07.14.14,0,0,1,.12,0l.47.33a.16.16,0,0,1,.07.11.15.15,0,0,1,0,.13l-1.39,2A.15.15,0,0,1,193.91,190Z"/><path class="cls-3" d="M196.16,186.83a.21.21,0,0,1-.13,0l-4.47-3.18a.31.31,0,0,1-.1-.15.23.23,0,0,1,0-.18l.39-.55a.23.23,0,0,1,.23-.11L196,183l.8.08-3.26-2.31a.19.19,0,0,1-.07-.11.15.15,0,0,1,0-.13l.35-.49a.14.14,0,0,1,.11-.07.16.16,0,0,1,.13,0l4.47,3.18a.24.24,0,0,1,.09.15.19.19,0,0,1,0,.18l-.39.56a.26.26,0,0,1-.23.11l-4-.34-.64-.06,3.24,2.3a.17.17,0,0,1,0,.24l-.35.49A.14.14,0,0,1,196.16,186.83Z"/><path class="cls-3" d="M200.22,181.11a.16.16,0,0,1-.13,0l-3.88-2.75-.8,1.13a.19.19,0,0,1-.11.07.15.15,0,0,1-.13,0l-.51-.36a.19.19,0,0,1-.07-.11.19.19,0,0,1,0-.13l2.19-3.08a.17.17,0,0,1,.24,0l.51.36a.16.16,0,0,1,.07.11.16.16,0,0,1,0,.13l-.81,1.13,3.88,2.75a.21.21,0,0,1,.08.11.2.2,0,0,1,0,.13l-.38.54A.14.14,0,0,1,200.22,181.11Z"/><path class="cls-3" d="M203.31,176.67a.31.31,0,0,1-.26-.06l-.53-.38a2.56,2.56,0,0,1-.74-.73,1.7,1.7,0,0,1-.22-.82,13.4,13.4,0,0,1,.08-1.44,1.31,1.31,0,0,0-.06-.58,1,1,0,0,0-.31-.38.72.72,0,0,0-.58-.13.85.85,0,0,0-.53.39,2,2,0,0,0-.34,1,.42.42,0,0,1,0,.1.2.2,0,0,1-.16.07l-.57-.07a.13.13,0,0,1-.08,0,.15.15,0,0,1-.07-.14,3,3,0,0,1,.15-.81,2.77,2.77,0,0,1,.4-.76,1.75,1.75,0,0,1,1.1-.8,1.62,1.62,0,0,1,1.27.33,1.58,1.58,0,0,1,.62.78,3.35,3.35,0,0,1,.12,1.22c0,.16,0,.28,0,.38a5.42,5.42,0,0,0,0,.66,1.14,1.14,0,0,0,.1.45.89.89,0,0,0,.32.38l.19.14,1.24-1.75a.17.17,0,0,1,.24,0l.5.35a.17.17,0,0,1,0,.24l-1.6,2.25A.33.33,0,0,1,203.31,176.67Z"/><path class="cls-3" d="M205.63,172.43a5.17,5.17,0,0,1-3.72-2.64,1.8,1.8,0,0,1,.27-1.72,1.78,1.78,0,0,1,1.53-.81,5.22,5.22,0,0,1,3.72,2.64,1.95,1.95,0,0,1-1.8,2.53Zm1-2a1.35,1.35,0,0,0-.36-.67,7,7,0,0,0-2-1.42,1.22,1.22,0,0,0-.74-.11.88.88,0,0,0-.53.38.83.83,0,0,0-.18.62,1.35,1.35,0,0,0,.36.67,5.67,5.67,0,0,0,1,.81,3.67,3.67,0,0,0,1.45.72.85.85,0,0,0,.87-.38A1,1,0,0,0,206.58,170.45Z"/><path class="cls-3" d="M208.76,169a.31.31,0,0,1-.25-.05l-.54-.39a2.56,2.56,0,0,1-.74-.73A1.68,1.68,0,0,1,207,167a12.81,12.81,0,0,1,.07-1.45A1.25,1.25,0,0,0,207,165a.8.8,0,0,0-.3-.38.7.7,0,0,0-.58-.14,1,1,0,0,0-.54.4,2.09,2.09,0,0,0-.34,1,.42.42,0,0,1,0,.1.16.16,0,0,1-.16.07l-.56-.07-.08,0a.19.19,0,0,1-.08-.15,2.89,2.89,0,0,1,.15-.8,3.13,3.13,0,0,1,.4-.77,1.84,1.84,0,0,1,1.11-.8,1.6,1.6,0,0,1,1.26.33,1.56,1.56,0,0,1,.62.79,3.12,3.12,0,0,1,.12,1.22,2,2,0,0,1,0,.38c0,.27,0,.49,0,.65a1.46,1.46,0,0,0,.1.46.86.86,0,0,0,.32.37l.19.14,1.24-1.75a.19.19,0,0,1,.12-.07.16.16,0,0,1,.13,0l.49.35a.15.15,0,0,1,.07.11.18.18,0,0,1,0,.14l-1.6,2.25A.3.3,0,0,1,208.76,169Z"/><path class="cls-3" d="M211.25,165.59a.15.15,0,0,1-.13,0l-.48-.34a.14.14,0,0,1-.07-.11.15.15,0,0,1,0-.13l.54-.76-3-2.12-.4.56a.25.25,0,0,1-.16.1.3.3,0,0,1-.18,0l-.32-.23.21-1.49.18-.26a.21.21,0,0,1,.16-.1.23.23,0,0,1,.18,0l3.88,2.75.54-.76a.14.14,0,0,1,.11-.07.21.21,0,0,1,.13,0l.48.34a.19.19,0,0,1,.07.11.19.19,0,0,1,0,.13l-1.64,2.31A.19.19,0,0,1,211.25,165.59Z"/><path class="cls-3" d="M147.42,239.75l.38-.73.32.16.82.44.81.43a.35.35,0,0,0,.33,0c.21-.08.44-.13.67-.2l.14-.06a11,11,0,0,0-1.35-.75c-.46-.23-.91-.48-1.38-.73l.39-.73,3.52,1.86,1-.31v0l-.24-.14-.19-.13-.06,0a8.28,8.28,0,0,1-1-.49l-1-.51-.64-.35-.53-.27L149,237l-.07,0,.37-.7,1.38.72c-.14-.51-.31-1-.45-1.49l.74-.23a.33.33,0,0,1,.06.1c.17.56.35,1.12.52,1.68,0,.12.07.25.11.37a.28.28,0,0,0,.15.17c.25.12.49.26.74.39l.14.05-.94-3,.77-.24c0,.1.07.18.09.27.13.4.25.8.38,1.2s.23.76.34,1.14l.36,1.11a.23.23,0,0,0,.08.11l.88.46c0-.13,0-.23-.06-.34s-.12-.36-.18-.54-.15-.48-.22-.72-.24-.78-.37-1.17-.24-.8-.37-1.2l-.15-.48s0,0,0-.08l.76-.23c.17.48.29,1,.46,1.45a4.47,4.47,0,0,0,.38-.66c.12-.21.22-.44.35-.68.24.12.48.24.72.38-.07.12-.13.24-.19.36l-.42.81-.44.82a.23.23,0,0,0,0,.18l.28.91,0,.05c.27-.46.49-.93.74-1.38s.48-.92.73-1.39l.71.38-.28.55-.34.63-.35.67-.4.76-.42.8a.26.26,0,0,0,0,.21l.27.85s0,0,.05.08l2.2-4.17.4.2.31.17c-.21.47-.48.89-.69,1.35l0,0,1.45-.44.23.76-.24.09-.91.28-.94.28a.36.36,0,0,0-.25.2c-.12.26-.27.51-.4.76,0,0,0,0,0,.07.52-.13,1-.3,1.51-.45l1.5-.47.24.77-.46.15-1,.31-1.36.42-.88.27a.23.23,0,0,0-.14.13c-.08.15-.16.31-.25.46s-.13.25-.2.39h.08l1.34-.41c.36-.11.72-.21,1.08-.33l1.2-.37.84-.25.24.76c-.49.17-1,.29-1.48.47l1.36.72c-.11.25-.24.47-.37.72l-.37-.19c-.27-.14-.54-.28-.8-.43l-.86-.45a.22.22,0,0,0-.11,0l-1,.3v0l2.74,1.44a3.12,3.12,0,0,1-.37.73l-.38-.19-.62-.33-.66-.35-.94-.51-.7-.37a.45.45,0,0,0-.41,0c-.23.09-.48.15-.73.23l-.12,0a1,1,0,0,0,.34.21l.65.35.62.32.46.25.21.11.86.46.92.48.12.07-.36.69c-.46-.21-.89-.48-1.37-.7.06.27.15.5.22.74s.15.48.23.74l-.77.24-.08-.24-.36-1.16c-.08-.24-.15-.49-.22-.73a.32.32,0,0,0-.16-.2c-.24-.13-.48-.26-.73-.38l-.13-.05c.14.52.31,1,.45,1.49s.31,1,.47,1.48a7,7,0,0,1-.77.26l-.09-.27c-.18-.56-.36-1.13-.53-1.7s-.3-1-.44-1.46c0-.09-.07-.18-.09-.27a.26.26,0,0,0-.12-.15l-.87-.45a1.11,1.11,0,0,0,.08.37c.12.4.26.79.38,1.19l.45,1.47.36,1.12c0,.12.07.25.11.39l-.77.24c-.17-.47-.29-1-.47-1.41-.28.4-.47.86-.73,1.29l-.72-.37,0-.09.4-.75.36-.68c.09-.18.19-.36.28-.55a.08.08,0,0,0,0-.08c-.09-.29-.18-.58-.26-.86a.9.9,0,0,0-.05-.09,1.36,1.36,0,0,0-.12.17c-.19.35-.37.69-.55,1.05l-.5.94-.26.51s0,0,0,.05a5,5,0,0,1-.71-.39l.16-.31c.14-.26.27-.52.41-.77l.33-.64.63-1.2.24-.43a.3.3,0,0,0,0-.26l-.27-.86,0,0-.07.08-.33.64-.5.93-.5,1-.35.64-.41.8-.06.08-.71-.38.71-1.36a6.69,6.69,0,0,0-.75.22l-.73.22-.24-.78.64-.2,1.42-.44.06,0a.29.29,0,0,0,.23-.17c.12-.25.26-.5.39-.75a.18.18,0,0,1,0-.06h-.11l-1,.31-.83.26-.84.26-.22,0-.24-.74a.33.33,0,0,1,.1-.06l1.44-.45,1-.32,1.09-.34a.23.23,0,0,0,.17-.13l.45-.87-.39.11-1.22.38-1.6.5-1.22.37c-.09,0-.11,0-.14-.07s-.14-.44-.21-.68l1.44-.45v0Zm5,1.72.47.24a.34.34,0,0,1,.21.24,1.39,1.39,0,0,0,.06.19c0,.1,0,.23.13.31l.56-.17a.2.2,0,0,1,.17,0l.24.14.29.14a4.65,4.65,0,0,0,.23-.43.38.38,0,0,1,.3-.25l.46-.15q-.09-.3-.18-.57a.19.19,0,0,1,0-.18l.2-.37c0-.05,0-.11.07-.17l-.5-.26A.21.21,0,0,1,155,240c0-.16-.1-.32-.15-.47a.54.54,0,0,0,0-.11,4.56,4.56,0,0,0-.44.14.42.42,0,0,1-.42,0l-.09-.06-.33-.17-.16.32c-.15.3-.15.3-.41.39l-.08,0-.36.11,0,.07c0,.15.1.31.14.46a.26.26,0,0,1,0,.24.6.6,0,0,0-.08.16Z"/><path class="cls-4" d="M155,241.46a1.71,1.71,0,0,1-.27.09c-.14,0-.2.12-.26.23l-.11.2-.14,0-.18-.1a.21.21,0,0,0-.19,0l-.31.09a3.66,3.66,0,0,1-.12-.35.2.2,0,0,0-.13-.14,2,2,0,0,1-.29-.15l.2-.4-.13-.42a1.44,1.44,0,0,1,.25-.08.35.35,0,0,0,.27-.23,1.79,1.79,0,0,1,.13-.22l.15.08a.46.46,0,0,0,.5.05l.16,0a1.17,1.17,0,0,1,.09.24.32.32,0,0,0,.24.27.61.61,0,0,1,.21.11,1.67,1.67,0,0,1-.12.23.3.3,0,0,0,0,.3C155,241.25,155,241.34,155,241.46Z"/></g><g id="background"><polygon class="cls-4" points="141.71 49.08 140.46 53.31 140.46 176.07 141.71 177.31 198.69 143.63 141.71 49.08"/><polygon class="cls-5" points="141.71 49.08 84.72 143.63 141.71 177.31 141.71 117.73 141.71 49.08"/><polygon class="cls-4" points="141.71 188.1 141 188.96 141 232.69 141.71 234.74 198.72 154.44 141.71 188.1"/><polygon class="cls-5" points="141.71 234.74 141.71 188.1 84.72 154.44 141.71 234.74"/><polygon class="cls-6" points="141.71 177.31 198.69 143.63 141.71 117.73 141.71 177.31"/><polygon class="cls-4" points="84.72 143.63 141.71 177.31 141.71 117.73 84.72 143.63"/></g><g id="words"><g class="cls-7"><path class="cls-8" d="M94.52,150.43a.79.79,0,0,1-.6-.09l-9.94-6a.83.83,0,0,1-.37-.49.75.75,0,0,1,.1-.6L87,137.87a.36.36,0,0,1,.24-.18.4.4,0,0,1,.3,0l1.18.72a.32.32,0,0,1,.18.24.38.38,0,0,1,0,.29l-2.5,4.14L89,144.74l1.85-3.08a.36.36,0,0,1,.24-.18.36.36,0,0,1,.3.05l1.12.67a.43.43,0,0,1,.18.24.41.41,0,0,1,0,.3l-1.86,3.08,3.13,1.89,2.5-4.15a.43.43,0,0,1,.24-.18.37.37,0,0,1,.29.05l1.19.72a.38.38,0,0,1,.18.23.41.41,0,0,1,0,.3L95,150.07A.75.75,0,0,1,94.52,150.43Z"/><path class="cls-8" d="M101.22,139.55a.42.42,0,0,1-.29-.05L91.81,134l-1.6,2.66a.43.43,0,0,1-.24.18.46.46,0,0,1-.3-.05l-1.18-.72a.32.32,0,0,1-.18-.23.39.39,0,0,1,0-.3l4.37-7.24a.39.39,0,0,1,.24-.18.34.34,0,0,1,.29,0l1.19.71a.43.43,0,0,1,.18.24.37.37,0,0,1-.05.29L93,132.07l9.12,5.5a.36.36,0,0,1,.18.24.34.34,0,0,1,0,.29l-.76,1.27A.43.43,0,0,1,101.22,139.55Z"/><path class="cls-8" d="M105.32,132.75a.37.37,0,0,1-.29-.05l-10.64-6.41a.36.36,0,0,1-.18-.24.4.4,0,0,1,0-.3l.77-1.26a.32.32,0,0,1,.23-.18.36.36,0,0,1,.3,0l4.27,2.57,2.82-4.68-4.27-2.57a.36.36,0,0,1-.18-.24.34.34,0,0,1,0-.29l.76-1.27a.43.43,0,0,1,.24-.18.34.34,0,0,1,.29,0l10.64,6.41a.36.36,0,0,1,.18.24.34.34,0,0,1,0,.29l-.76,1.27a.43.43,0,0,1-.24.18.37.37,0,0,1-.29,0l-4.55-2.74L101.64,128l4.55,2.74a.43.43,0,0,1,.18.24.37.37,0,0,1-.05.29l-.76,1.27A.43.43,0,0,1,105.32,132.75Z"/><path class="cls-8" d="M111.94,121.53a.79.79,0,0,1-.6-.09l-10-6A.73.73,0,0,1,101,115a.81.81,0,0,1,.09-.61l3.25-5.39a.43.43,0,0,1,.24-.18.37.37,0,0,1,.29,0l1.19.72a.35.35,0,0,1,.18.23.36.36,0,0,1,0,.3l-2.49,4.14,2.68,1.62,1.86-3.08a.36.36,0,0,1,.24-.18.37.37,0,0,1,.29,0l1.13.68a.43.43,0,0,1,.18.24.37.37,0,0,1,0,.29l-1.86,3.09,3.13,1.88,2.5-4.14a.37.37,0,0,1,.24-.18.38.38,0,0,1,.29,0l1.18.71a.41.41,0,0,1,.19.24.46.46,0,0,1,0,.3l-3.25,5.39A.77.77,0,0,1,111.94,121.53Z"/><path class="cls-8" d="M117.16,113.11a.35.35,0,0,1-.3,0l-10.29-6.2a.83.83,0,0,1-.37-.49.75.75,0,0,1,.1-.6l1.78-3a4.17,4.17,0,0,1,1.52-1.49,4,4,0,0,1,2-.53,3.94,3.94,0,0,1,3.63,2.47,4.06,4.06,0,0,1,.16,2.51l5.64-.18a.53.53,0,0,1,.26.07.42.42,0,0,1,.18.25.43.43,0,0,1-.07.32l-.78,1.29a.54.54,0,0,1-.47.28l-5.8.08-.47.78,4.11,2.47a.36.36,0,0,1,.18.24.36.36,0,0,1,0,.3l-.76,1.26A.37.37,0,0,1,117.16,113.11ZM113.07,106a1.91,1.91,0,0,0,.26-1.47,1.79,1.79,0,0,0-.86-1.16,1.84,1.84,0,0,0-1.45-.23,1.87,1.87,0,0,0-1.18.91l-1,1.62,3.22,1.94Z"/><path class="cls-8" d="M122.76,103.57a.79.79,0,0,1-.6-.09l-9.94-6a.77.77,0,0,1-.27-1.09L115.2,91a.37.37,0,0,1,.24-.18.38.38,0,0,1,.29.05l1.19.71a.43.43,0,0,1,.18.24.46.46,0,0,1,0,.3l-2.5,4.14,2.69,1.62,1.86-3.08a.32.32,0,0,1,.23-.18.39.39,0,0,1,.3,0l1.12.68a.36.36,0,0,1,.18.24.34.34,0,0,1-.05.29L119,99l3.13,1.88,2.5-4.14a.39.39,0,0,1,.24-.18.37.37,0,0,1,.29,0l1.19.71a.43.43,0,0,1,.18.24.41.41,0,0,1,0,.3l-3.25,5.39A.73.73,0,0,1,122.76,103.57Z"/><path class="cls-8" d="M128.87,93a4.78,4.78,0,0,1-2.51.53,5.72,5.72,0,0,1-2.63-.84l-6.69-4a.43.43,0,0,1-.18-.24.37.37,0,0,1,0-.29l.76-1.27a.43.43,0,0,1,.24-.18.41.41,0,0,1,.3.05L125,90.84a3.11,3.11,0,0,0,2.21.48,2.69,2.69,0,0,0,2-3.29,3.11,3.11,0,0,0-1.46-1.73l-6.77-4.08a.37.37,0,0,1-.18-.24.38.38,0,0,1,0-.29l.76-1.27a.37.37,0,0,1,.24-.17.37.37,0,0,1,.29,0l6.69,4a5.67,5.67,0,0,1,2,1.94,4.7,4.7,0,0,1,.7,2.47,5,5,0,0,1-2.6,4.3Z"/><path class="cls-8" d="M137.58,79.44a.5.5,0,0,1-.36,0l-7.65-1.76-1.66-.46,1.37,1,5.79,4.42a.56.56,0,0,1,.19.33.52.52,0,0,1-.06.35l-.71,1.19a.4.4,0,0,1-.28.2.39.39,0,0,1-.33-.1l-9.69-7.62a.6.6,0,0,1-.24-.38.62.62,0,0,1,.09-.45l.87-1.44a.57.57,0,0,1,.29-.24.56.56,0,0,1,.36,0l8.72,2,1.28.35-.88-1-5.88-6.8a.45.45,0,0,1-.14-.33.62.62,0,0,1,.09-.37l.79-1.31a.64.64,0,0,1,.36-.29.57.57,0,0,1,.44,0l11.27,5a.48.48,0,0,1,.24.25.43.43,0,0,1-.06.34l-.74,1.23a.52.52,0,0,1-.29.24.5.5,0,0,1-.36,0l-6.75-3.1-1.45-.67,1.24,1.31,5.08,5.84a.7.7,0,0,1,.15.34.6.6,0,0,1-.09.37l-.72,1.2A.64.64,0,0,1,137.58,79.44Z"/><path d="M110.46,159.05a7.3,7.3,0,0,1-1.84,1.18.35.35,0,0,1-.25,0,.37.37,0,0,1-.22-.16l-.72-1.25a.39.39,0,0,1,0-.45.58.58,0,0,1,.22-.22,5.34,5.34,0,0,0,2.26-1.91,2.52,2.52,0,0,0,.42-1.7,1.66,1.66,0,0,0-.82-1.22,1.47,1.47,0,0,0-.94-.21,2.72,2.72,0,0,0-1,.36c-.32.2-.76.51-1.31.93l-.5.37a7.38,7.38,0,0,1-2.46,1.2,3.53,3.53,0,0,1-2.75-.57A4.2,4.2,0,0,1,99,153.82a3.8,3.8,0,0,1-.46-2.07,4.8,4.8,0,0,1,.72-2.21,7,7,0,0,1,3.21-2.75.3.3,0,0,1,.25,0,.37.37,0,0,1,.22.16l.74,1.22a.39.39,0,0,1,0,.45.56.56,0,0,1-.22.21,6.31,6.31,0,0,0-1.39.91,4.13,4.13,0,0,0-.85,1,2,2,0,0,0-.31,1.47,1.63,1.63,0,0,0,.8,1.09,1.65,1.65,0,0,0,1.4.18,6.77,6.77,0,0,0,1.84-1c.09-.08.49-.38,1.18-.89a4.31,4.31,0,0,1,2.2-.88,3.6,3.6,0,0,1,2.27.54,4.19,4.19,0,0,1,1.59,1.65,4,4,0,0,1,.45,2.2,5.43,5.43,0,0,1-.8,2.38A6.67,6.67,0,0,1,110.46,159.05Z"/><path d="M116.26,148.78a5.32,5.32,0,0,1-5.27-.14l-3.65-2.2a5.21,5.21,0,0,1-1.92-2,5.31,5.31,0,0,1-.67-2.61,5,5,0,0,1,.73-2.59,5.81,5.81,0,0,1,1.57-1.73,4.91,4.91,0,0,1,2-.87.52.52,0,0,1,.36.08.66.66,0,0,1,.26.34l.33,1.23a.42.42,0,0,1-.36.58,3.17,3.17,0,0,0-2.19,1.56,2.46,2.46,0,0,0-.36,1.38,3,3,0,0,0,1.46,2.51l3.66,2.2a2.85,2.85,0,0,0,1.45.43,3,3,0,0,0,1.45-.3,2.65,2.65,0,0,0,1-1,3.15,3.15,0,0,0,.36-2.66.47.47,0,0,1,0-.39.53.53,0,0,1,.32-.21l1.24-.28a.59.59,0,0,1,.44.05.58.58,0,0,1,.21.27,5.18,5.18,0,0,1,.19,2.25,5.71,5.71,0,0,1-.78,2.2A5,5,0,0,1,116.26,148.78Z"/><path d="M121.45,140.8a.41.41,0,0,1-.32-.05l-11.56-7a.45.45,0,0,1-.19-.26.4.4,0,0,1,.05-.32l.83-1.38a.42.42,0,0,1,.26-.19.41.41,0,0,1,.32.05l4.63,2.8,3.07-5.09-4.64-2.79a.41.41,0,0,1-.19-.26.37.37,0,0,1,.05-.32l.82-1.37a.42.42,0,0,1,.26-.2.4.4,0,0,1,.32.05l11.56,7a.43.43,0,0,1,.2.26.42.42,0,0,1-.06.32l-.82,1.37a.41.41,0,0,1-.26.19.4.4,0,0,1-.32-.05l-4.95-3-3.06,5.09,4.94,3a.4.4,0,0,1,.15.57l-.83,1.38A.38.38,0,0,1,121.45,140.8Z"/><path d="M128.64,128.62a.82.82,0,0,1-.65-.1L117.19,122a.85.85,0,0,1-.3-1.18l3.53-5.86a.38.38,0,0,1,.26-.19.37.37,0,0,1,.32,0l1.29.77a.41.41,0,0,1,.19.26.4.4,0,0,1,0,.32l-2.71,4.5,2.92,1.76,2-3.35a.38.38,0,0,1,.26-.19.41.41,0,0,1,.32,0l1.22.73a.42.42,0,0,1,.19.26.4.4,0,0,1-.05.32l-2,3.35,3.4,2,2.71-4.5a.43.43,0,0,1,.26-.2.41.41,0,0,1,.32.06l1.29.77a.38.38,0,0,1,.19.26.4.4,0,0,1-.05.32l-3.53,5.86A.84.84,0,0,1,128.64,128.62Z"/><path d="M134.26,119.29a.79.79,0,0,1-.65-.1l-11.18-6.73a.42.42,0,0,1-.2-.26.45.45,0,0,1,0-.32l.83-1.38a.42.42,0,0,1,.26-.19.4.4,0,0,1,.32,0l9.91,6,2.4-4a.43.43,0,0,1,.26-.2.41.41,0,0,1,.32.06l1.29.77a.38.38,0,0,1,.19.26.4.4,0,0,1-.05.32l-3.22,5.34A.78.78,0,0,1,134.26,119.29Z"/><path d="M139.28,111a.87.87,0,0,1-.65-.1l-11.18-6.74a.4.4,0,0,1-.2-.26.45.45,0,0,1,0-.32l.83-1.37a.4.4,0,0,1,.26-.2.4.4,0,0,1,.32,0l9.91,6,2.4-4a.43.43,0,0,1,.26-.2.45.45,0,0,1,.32.06l1.29.77a.41.41,0,0,1,.19.26.4.4,0,0,1-.05.32l-3.22,5.34A.83.83,0,0,1,139.28,111Z"/><path d="M144.13,103.18a.37.37,0,0,1-.32-.06l-1.19-.71a.38.38,0,0,1-.19-.26.41.41,0,0,1,0-.32l.88-1.46-8.47-5.1L134,96.73a.43.43,0,0,1-.26.2.42.42,0,0,1-.32-.06l-1.18-.71a.43.43,0,0,1-.2-.26.41.41,0,0,1,.06-.32l3-5a.4.4,0,0,1,.26-.2.41.41,0,0,1,.32,0l1.18.72a.43.43,0,0,1,.2.26.42.42,0,0,1-.06.32l-.87,1.46,8.46,5.1.88-1.46a.43.43,0,0,1,.26-.2.45.45,0,0,1,.32,0l1.18.72a.4.4,0,0,1,.2.26.41.41,0,0,1-.05.32l-3,5A.46.46,0,0,1,144.13,103.18Z"/><path d="M149,95.09a.41.41,0,0,1-.32,0l-11.42-6.89a.54.54,0,0,1-.26-.35.56.56,0,0,1,.06-.44l.85-1.41a.62.62,0,0,1,.54-.31l9.46.08,1.93,0-8.31-5a.45.45,0,0,1-.19-.26.4.4,0,0,1,0-.32l.74-1.24a.41.41,0,0,1,.26-.19.4.4,0,0,1,.32,0l11.42,6.88a.55.55,0,0,1,.27.36.57.57,0,0,1-.07.44l-.86,1.42a.59.59,0,0,1-.53.31l-9.79-.09-1.57,0,8.28,5a.43.43,0,0,1,.21.26.46.46,0,0,1-.06.32l-.75,1.23A.4.4,0,0,1,149,95.09Z"/><path d="M157.13,81a5.33,5.33,0,0,1-2.64.66,5.15,5.15,0,0,1-2.65-.76l-3.66-2.21a5,5,0,0,1-1.9-2,5.28,5.28,0,0,1-.66-2.64,5.18,5.18,0,0,1,.76-2.64,6.12,6.12,0,0,1,1.6-1.78,5,5,0,0,1,2.08-.9.49.49,0,0,1,.35.07.64.64,0,0,1,.26.35l.34,1.23a.53.53,0,0,1,0,.36.5.5,0,0,1-.34.21,3.41,3.41,0,0,0-2.24,1.65A2.74,2.74,0,0,0,148,74a2.93,2.93,0,0,0,.39,1.46,2.82,2.82,0,0,0,1,1.09l3.65,2.2a3,3,0,0,0,2.93.08,2.7,2.7,0,0,0,1.08-1,2.85,2.85,0,0,0,.41-1.42,2.77,2.77,0,0,0-.36-1.43,2.81,2.81,0,0,0-1-1.07l-.84-.51-1.39,2.3a.38.38,0,0,1-.25.2.4.4,0,0,1-.32-.05l-1.24-.75a.43.43,0,0,1-.2-.26.46.46,0,0,1,.06-.32l2.18-3.62a.84.84,0,0,1,.53-.39.79.79,0,0,1,.65.1l2,1.2a5,5,0,0,1,1.9,2,5.28,5.28,0,0,1,.66,2.64A5.25,5.25,0,0,1,157.13,81Z"/><path d="M132.22,172.88a.71.71,0,0,1-.51-.08L114,162.13a1.35,1.35,0,0,1-.47-1.87l2.92-4.84a7.24,7.24,0,0,1,2.75-2.66,7.37,7.37,0,0,1,3.67-.93,7.16,7.16,0,0,1,6.28,3.78,7.3,7.3,0,0,1,.89,3.69A7.17,7.17,0,0,1,129,163l-1.62,2.69,6.33,3.82a.65.65,0,0,1,.23.91l-1.31,2.18A.66.66,0,0,1,132.22,172.88Zm-6.43-11.66a3.68,3.68,0,0,0-1.25-5.05,3.5,3.5,0,0,0-2.76-.4,3.54,3.54,0,0,0-2.27,1.67L118,160l6.28,3.78Z"/><path d="M143.17,153.69a8.34,8.34,0,0,1-4.19,1.05,8.2,8.2,0,0,1-4.18-1.2L129,150.05a8.12,8.12,0,0,1-3-3.14,8.28,8.28,0,0,1-1-4.2,8.15,8.15,0,0,1,1.21-4.19,8.32,8.32,0,0,1,3.14-3,8.56,8.56,0,0,1,4.2-1,8.17,8.17,0,0,1,4.18,1.21l5.79,3.49a8.24,8.24,0,0,1,3,3.13,8.43,8.43,0,0,1,1,4.2,8.32,8.32,0,0,1-1.22,4.2A8.23,8.23,0,0,1,143.17,153.69Zm.58-7.21a4.64,4.64,0,0,0-.61-2.31,4.59,4.59,0,0,0-1.66-1.73L135.69,139a4.59,4.59,0,0,0-2.3-.67,4.68,4.68,0,0,0-2.33.54,4.31,4.31,0,0,0-2.33,3.86,4.69,4.69,0,0,0,.61,2.31,4.55,4.55,0,0,0,1.67,1.73l5.78,3.49a4.49,4.49,0,0,0,2.31.66,4.7,4.7,0,0,0,2.33-.54,4.32,4.32,0,0,0,2.32-3.86Z"/><path d="M151.79,140.4a.64.64,0,0,1-.5-.09l-1.88-1.13a.67.67,0,0,1-.31-.41.68.68,0,0,1,.08-.5l1.4-2.31-13.4-8.08-1.4,2.31a.59.59,0,0,1-.4.31.62.62,0,0,1-.51-.08L133,129.29a.7.7,0,0,1-.31-.41.64.64,0,0,1,.09-.5l4.78-7.94a.61.61,0,0,1,.41-.31.6.6,0,0,1,.5.08l1.88,1.13a.66.66,0,0,1,.23.92l-1.4,2.31,13.4,8.07,1.4-2.31a.67.67,0,0,1,.41-.31.68.68,0,0,1,.5.08l1.88,1.14a.63.63,0,0,1,.22.91l-4.78,7.94A.67.67,0,0,1,151.79,140.4Z"/><path d="M159.51,127.59a.62.62,0,0,1-.51-.08l-18.07-10.89a.87.87,0,0,1-.42-.57.9.9,0,0,1,.1-.7l1.35-2.22a1,1,0,0,1,.85-.49l15,.12,3.07.07-13.15-7.92a.63.63,0,0,1-.31-.41.62.62,0,0,1,.08-.51l1.18-1.95a.61.61,0,0,1,.41-.31.6.6,0,0,1,.5.08l18.08,10.89a.87.87,0,0,1,.42.57.91.91,0,0,1-.11.7l-1.36,2.25a1,1,0,0,1-.85.49l-15.48-.14-2.48,0,13.1,7.89a.62.62,0,0,1,.32.42.7.7,0,0,1-.09.5l-1.18,2A.63.63,0,0,1,159.51,127.59Z"/><path d="M173.43,104.49a.68.68,0,0,1-.5-.08L157.24,95l-2.75,4.56a.66.66,0,0,1-.41.31.64.64,0,0,1-.5-.08l-2-1.23a.61.61,0,0,1-.31-.41.63.63,0,0,1,.08-.51l7.5-12.44a.63.63,0,0,1,.41-.31.62.62,0,0,1,.51.08l2,1.23a.67.67,0,0,1,.31.41.64.64,0,0,1-.09.5l-2.75,4.57,15.68,9.45a.63.63,0,0,1,.31.41.6.6,0,0,1-.08.5l-1.31,2.18A.64.64,0,0,1,173.43,104.49Z"/><path d="M136.38,67.39a.13.13,0,0,1-.12,0l-.45-.27a.17.17,0,0,1-.07-.1.13.13,0,0,1,0-.12l.33-.55-3.19-1.92-.33.55a.18.18,0,0,1-.1.07.17.17,0,0,1-.12,0l-.44-.27a.14.14,0,0,1-.08-.1.17.17,0,0,1,0-.12L133,62.65a.14.14,0,0,1,.1-.08.17.17,0,0,1,.12,0l.44.27a.16.16,0,0,1,.08.1.17.17,0,0,1,0,.12l-.33.55,3.18,1.92.34-.55a.13.13,0,0,1,.09-.07.13.13,0,0,1,.12,0l.45.26a.17.17,0,0,1,.07.1.13.13,0,0,1,0,.12l-1.13,1.89A.17.17,0,0,1,136.38,67.39Z"/><path d="M138.45,64a2.7,2.7,0,0,1-.7.45.14.14,0,0,1-.09,0,.12.12,0,0,1-.08-.06l-.27-.47a.15.15,0,0,1,0-.17.24.24,0,0,1,.09-.08,2.06,2.06,0,0,0,.85-.72,1,1,0,0,0,.16-.64.65.65,0,0,0-.31-.46.53.53,0,0,0-.36-.08.9.9,0,0,0-.36.14c-.12.07-.28.19-.49.34l-.19.14a2.94,2.94,0,0,1-.92.46,1.34,1.34,0,0,1-1-.22,1.54,1.54,0,0,1-.59-.6,1.4,1.4,0,0,1-.17-.78,1.73,1.73,0,0,1,.27-.83,2.51,2.51,0,0,1,.52-.61,2.56,2.56,0,0,1,.68-.42.11.11,0,0,1,.1,0,.12.12,0,0,1,.08.06l.28.46a.15.15,0,0,1,0,.17.24.24,0,0,1-.09.08,2.34,2.34,0,0,0-.52.34,1.72,1.72,0,0,0-.32.37.74.74,0,0,0-.12.56.65.65,0,0,0,.3.41.62.62,0,0,0,.53.06,2.07,2.07,0,0,0,.69-.39l.45-.33a1.59,1.59,0,0,1,.83-.34,1.39,1.39,0,0,1,.85.21,1.55,1.55,0,0,1,.6.62,1.57,1.57,0,0,1,.17.83,1.93,1.93,0,0,1-.3.89A2.42,2.42,0,0,1,138.45,64Z"/><path d="M143.26,70a.14.14,0,0,1-.14,0l-.05,0-3.46-4a.18.18,0,0,1-.06-.13.24.24,0,0,1,0-.15l.31-.51a.21.21,0,0,1,.11-.1.2.2,0,0,1,.15,0l5.16,1.19.06,0a.15.15,0,0,1,.08.11.15.15,0,0,1,0,.13l-.28.47a.23.23,0,0,1-.12.1.26.26,0,0,1-.15,0l-1.1-.27-.92,1.51.76.86a.2.2,0,0,1,.06.13.22.22,0,0,1,0,.16l-.28.45A.16.16,0,0,1,143.26,70Zm-.36-3.4-2.05-.51,1.41,1.57Z"/></g><g class="cls-9"><path class="cls-8" d="M137.92,223a.26.26,0,0,1-.21,0l-7.41-4.47a.28.28,0,0,1-.12-.16.26.26,0,0,1,0-.21l.53-.88a.26.26,0,0,1,.17-.12.24.24,0,0,1,.2,0l3,1.79,2-3.26-3-1.79a.26.26,0,0,1-.13-.16.32.32,0,0,1,0-.21l.53-.88a.26.26,0,0,1,.16-.13.32.32,0,0,1,.21,0l7.41,4.46a.3.3,0,0,1,.12.17.24.24,0,0,1,0,.2l-.53.88a.27.27,0,0,1-.17.13.24.24,0,0,1-.2,0l-3.17-1.91-2,3.25,3.17,1.92a.26.26,0,0,1,.13.16.26.26,0,0,1,0,.21l-.54.88A.28.28,0,0,1,137.92,223Z"/><path class="cls-8" d="M143.13,214a3.49,3.49,0,0,1-1.7.43,3.31,3.31,0,0,1-1.69-.49l-2.35-1.41a3.45,3.45,0,0,1-1.22-1.27,3.37,3.37,0,0,1-.41-1.7,3.23,3.23,0,0,1,.49-1.7,3.26,3.26,0,0,1,1.27-1.23,3.49,3.49,0,0,1,1.7-.43,3.31,3.31,0,0,1,1.69.49l2.35,1.41a3.45,3.45,0,0,1,1.22,1.27,3.38,3.38,0,0,1,.42,1.7,3.33,3.33,0,0,1-.5,1.7A3.26,3.26,0,0,1,143.13,214Zm.24-2.92a1.91,1.91,0,0,0-.25-.93,1.81,1.81,0,0,0-.67-.7L140.1,208a1.79,1.79,0,0,0-.93-.26,1.88,1.88,0,0,0-.94.21,1.76,1.76,0,0,0-.7.65,1.84,1.84,0,0,0-.25.92,2,2,0,0,0,.25.93,1.81,1.81,0,0,0,.67.7l2.35,1.42a1.93,1.93,0,0,0,.93.27,2,2,0,0,0,.94-.22,1.76,1.76,0,0,0,.7-.65A1.84,1.84,0,0,0,143.37,211.06Z"/><path class="cls-8" d="M146.93,208.09a.26.26,0,0,1-.21,0l-7.16-4.32a.52.52,0,0,1-.26-.34.56.56,0,0,1,.07-.42l1.18-2a3,3,0,0,1,2.6-1.45,2.87,2.87,0,0,1,1.48.41,3,3,0,0,1,1,4.1l-.65,1.09,2.56,1.54a.3.3,0,0,1,.13.17.27.27,0,0,1,0,.21l-.53.88A.28.28,0,0,1,146.93,208.09Zm-2.6-4.72a1.49,1.49,0,0,0,.17-1.13,1.49,1.49,0,0,0-1.8-1.08,1.45,1.45,0,0,0-.92.68l-.62,1,2.54,1.54Z"/><path class="cls-8" d="M150.73,201.61a.5.5,0,0,1-.41-.06l-6.93-4.17a.57.57,0,0,1-.25-.34.52.52,0,0,1,.06-.42l2.26-3.76a.3.3,0,0,1,.17-.12.26.26,0,0,1,.21,0l.82.5a.28.28,0,0,1,.13.16.31.31,0,0,1,0,.21L145,196.52l1.88,1.13,1.29-2.14a.25.25,0,0,1,.17-.13.24.24,0,0,1,.2,0l.78.47a.27.27,0,0,1,.13.17.24.24,0,0,1,0,.2l-1.29,2.15,2.18,1.32,1.74-2.89a.24.24,0,0,1,.16-.12.26.26,0,0,1,.21,0l.82.5a.26.26,0,0,1,.13.16.26.26,0,0,1,0,.21l-2.27,3.75A.49.49,0,0,1,150.73,201.61Z"/><path class="cls-8" d="M154.37,195.75a.26.26,0,0,1-.21,0L147,191.4a.54.54,0,0,1-.25-.34.56.56,0,0,1,.06-.42l2.27-3.75a.26.26,0,0,1,.16-.13.26.26,0,0,1,.21,0l.82.5a.27.27,0,0,1,.13.17.24.24,0,0,1,0,.2l-1.74,2.89,2.06,1.24,1.29-2.15a.24.24,0,0,1,.17-.12.24.24,0,0,1,.2,0l.78.47a.25.25,0,0,1,.13.17.29.29,0,0,1,0,.2l-1.29,2.15,3.05,1.84a.21.21,0,0,1,.12.16.26.26,0,0,1,0,.21l-.53.88A.28.28,0,0,1,154.37,195.75Z"/><path class="cls-8" d="M158.49,188.46a3.37,3.37,0,0,1-1.75.37,3.85,3.85,0,0,1-1.83-.58l-4.66-2.81a.28.28,0,0,1-.12-.16.26.26,0,0,1,0-.21l.53-.88a.27.27,0,0,1,.17-.13.28.28,0,0,1,.2,0l4.72,2.84a2.09,2.09,0,0,0,1.53.33,1.86,1.86,0,0,0,1.38-2.29,2.11,2.11,0,0,0-1-1.2L153,180.94a.27.27,0,0,1-.13-.17.24.24,0,0,1,0-.2l.53-.88a.26.26,0,0,1,.16-.13.31.31,0,0,1,.21,0l4.65,2.81a3.89,3.89,0,0,1,1.38,1.35,3.23,3.23,0,0,1,.49,1.72,3.33,3.33,0,0,1-.5,1.73A3.23,3.23,0,0,1,158.49,188.46Z"/><path class="cls-8" d="M162.42,182.23a.56.56,0,0,1-.42-.07l-7.17-4.32a.24.24,0,0,1-.12-.16.26.26,0,0,1,0-.21l.53-.88a.3.3,0,0,1,.17-.12.24.24,0,0,1,.2,0l6.35,3.83,1.54-2.55a.27.27,0,0,1,.17-.13.24.24,0,0,1,.2,0l.83.5a.26.26,0,0,1,.12.17.24.24,0,0,1,0,.2L162.76,182A.57.57,0,0,1,162.42,182.23Z"/><path d="M119.19,198.78a.16.16,0,0,1-.15,0l-7.8-4.7a.5.5,0,0,1-.23-.32.43.43,0,0,1,.06-.38l2.39-4a.2.2,0,0,1,.13-.09.16.16,0,0,1,.15,0l.59.36a.18.18,0,0,1,.09.12.2.2,0,0,1,0,.15l-2.07,3.42,2.83,1.71,1.58-2.61a.23.23,0,0,1,.12-.1.21.21,0,0,1,.15,0l.57.34a.18.18,0,0,1,.09.12.2.2,0,0,1,0,.15l-1.58,2.62,3.57,2.15a.18.18,0,0,1,.09.12.16.16,0,0,1,0,.15l-.4.65A.16.16,0,0,1,119.19,198.78Z"/><path d="M123.28,191.56a3.47,3.47,0,0,1-1.73.43,3.26,3.26,0,0,1-1.71-.49L117,189.8a3.34,3.34,0,0,1-1.24-1.29,3.44,3.44,0,0,1-.42-1.73,3.39,3.39,0,0,1,.49-1.72,3.3,3.3,0,0,1,1.3-1.24,3.47,3.47,0,0,1,1.72-.44,3.28,3.28,0,0,1,1.72.5l2.82,1.69a3.41,3.41,0,0,1,1.24,1.29,3.49,3.49,0,0,1,.42,1.73,3.41,3.41,0,0,1-1.79,3Zm.68-3a2.44,2.44,0,0,0-.31-1.17,2.24,2.24,0,0,0-.84-.86l-2.82-1.7a2.24,2.24,0,0,0-1.16-.34,2.37,2.37,0,0,0-1.17.27,2.24,2.24,0,0,0-.88.82,2.15,2.15,0,0,0-.31,1.16,2.27,2.27,0,0,0,.31,1.16,2.2,2.2,0,0,0,.84.87l2.82,1.7a2.33,2.33,0,0,0,1.15.34,2.42,2.42,0,0,0,1.18-.28,2.13,2.13,0,0,0,.87-.81A2.16,2.16,0,0,0,124,188.6Z"/><path d="M127.39,185.18a.16.16,0,0,1-.15,0l-7.81-4.7a.54.54,0,0,1-.23-.32.51.51,0,0,1,.06-.38l1.27-2.11a2.81,2.81,0,0,1,1.07-1,2.86,2.86,0,0,1,1.43-.35,2.87,2.87,0,0,1,2.64,1.9,2.85,2.85,0,0,1,0,1.91l4.45-.06a.25.25,0,0,1,.14,0,.21.21,0,0,1,.12.16.28.28,0,0,1,0,.2L130,181a.22.22,0,0,1-.22.11l-4.7.06-.57.94,3.37,2a.22.22,0,0,1,.09.12.21.21,0,0,1,0,.15l-.39.65A.18.18,0,0,1,127.39,185.18Zm-3-5.08a1.72,1.72,0,0,0,.23-1.33,1.69,1.69,0,0,0-.81-1.08,1.77,1.77,0,0,0-1.35-.23,1.72,1.72,0,0,0-1.08.83l-.89,1.47,3,1.82Z"/><path d="M130.45,209.22a.29.29,0,0,1-.18,0l-8.72-5.26-1.51,2.5a.22.22,0,0,1-.14.11.28.28,0,0,1-.18,0l-.71-.43a.22.22,0,0,1-.11-.14.29.29,0,0,1,0-.18l3.73-6.18a.19.19,0,0,1,.14-.11.2.2,0,0,1,.18,0l.71.42a.33.33,0,0,1,.11.15.29.29,0,0,1,0,.18l-1.51,2.5L131,208a.33.33,0,0,1,.11.15.29.29,0,0,1,0,.18l-.47.78A.27.27,0,0,1,130.45,209.22Z"/><path d="M133.92,203.47a.27.27,0,0,1-.18,0l-9.64-5.81a.22.22,0,0,1-.11-.14.29.29,0,0,1,0-.18l.47-.78a.27.27,0,0,1,.15-.11.2.2,0,0,1,.17,0l4,2.41,2.92-4.85-4-2.41a.27.27,0,0,1-.11-.15.29.29,0,0,1,0-.18l.47-.78a.25.25,0,0,1,.14-.11.27.27,0,0,1,.18,0l9.64,5.81a.22.22,0,0,1,.11.14.29.29,0,0,1,0,.18l-.47.78a.21.21,0,0,1-.15.11.2.2,0,0,1-.18,0l-4.55-2.74-2.92,4.85,4.55,2.74a.27.27,0,0,1,.11.15.29.29,0,0,1,0,.18l-.47.78A.22.22,0,0,1,133.92,203.47Z"/><path d="M139.88,193.35a.58.58,0,0,1-.46-.07l-9-5.42a.58.58,0,0,1-.28-.37.57.57,0,0,1,.07-.46l2.86-4.76a.33.33,0,0,1,.15-.11.29.29,0,0,1,.18,0l.7.43a.19.19,0,0,1,.11.15.17.17,0,0,1,0,.17L131.73,187l3.09,1.86,1.88-3.11a.25.25,0,0,1,.33-.09l.68.41a.33.33,0,0,1,.11.15.29.29,0,0,1,0,.18l-1.88,3.12,3.64,2.19,2.46-4.09a.26.26,0,0,1,.14-.11.28.28,0,0,1,.18,0l.71.43a.22.22,0,0,1,.11.14.19.19,0,0,1,0,.18l-2.86,4.76A.59.59,0,0,1,139.88,193.35Z"/><path d="M153.66,213.07a.17.17,0,0,1-.12,0l-.49-.3a.16.16,0,0,1-.08-.1.2.2,0,0,1,0-.13l1.52-2.53a.16.16,0,0,1,.11-.07.13.13,0,0,1,.12,0l.49.29a.16.16,0,0,1,.06.23L153.77,213A.18.18,0,0,1,153.66,213.07Z"/><path d="M161.32,206.22a3,3,0,0,1-1.46.37,2.87,2.87,0,0,1-1.44-.42L156,204.74a2.79,2.79,0,0,1-1-1.09,2.91,2.91,0,0,1,.06-2.91,2.82,2.82,0,0,1,1.09-1.05,2.94,2.94,0,0,1,1.45-.36,2.77,2.77,0,0,1,1.45.41l2.38,1.43a2.86,2.86,0,0,1,1,1.09,3,3,0,0,1,.36,1.46,2.87,2.87,0,0,1-.42,1.45A2.82,2.82,0,0,1,161.32,206.22Zm.57-2.49a2,2,0,0,0-.26-1,1.91,1.91,0,0,0-.71-.73l-2.37-1.43a1.89,1.89,0,0,0-1-.28,2,2,0,0,0-1,.22,2,2,0,0,0-.74.69,1.78,1.78,0,0,0-.26,1,2,2,0,0,0,.26,1,1.89,1.89,0,0,0,.7.73l2.38,1.43a1.9,1.9,0,0,0,1,.29,2,2,0,0,0,1-.23,1.82,1.82,0,0,0,.74-.69A1.75,1.75,0,0,0,161.89,203.73Z"/><path d="M165.64,199.4a.25.25,0,0,1-.19,0l-7.89-2-.06,0a.2.2,0,0,1-.08-.12.21.21,0,0,1,0-.15l.32-.53a.18.18,0,0,1,.11-.1.23.23,0,0,1,.14,0l6.73,1.81L160,193.16A.24.24,0,0,1,160,193a.17.17,0,0,1,0-.14l.32-.53s.06-.09.11-.1a.26.26,0,0,1,.15,0l6.72,1.81-4.74-5.1a.16.16,0,0,1-.06-.13.21.21,0,0,1,0-.15l.32-.53a.2.2,0,0,1,.15-.09.17.17,0,0,1,.16.06l5.5,6a.29.29,0,0,1,.07.18.41.41,0,0,1,0,.19l-.35.57a.31.31,0,0,1-.15.12.25.25,0,0,1-.19,0l-6.4-1.72,4.52,4.84a.3.3,0,0,1,.08.18.32.32,0,0,1-.05.19l-.34.57A.32.32,0,0,1,165.64,199.4Z"/><path d="M171.21,189.81a2.85,2.85,0,0,1-1.46.36,2.76,2.76,0,0,1-1.44-.41l-2.38-1.43a2.79,2.79,0,0,1-1-1.09,2.91,2.91,0,0,1,.06-2.91,2.91,2.91,0,0,1,2.54-1.41,2.77,2.77,0,0,1,1.45.41l2.38,1.43a2.79,2.79,0,0,1,1,1.09,2.91,2.91,0,0,1-.06,2.91A2.82,2.82,0,0,1,171.21,189.81Zm.57-2.49a2,2,0,0,0-.26-1,1.91,1.91,0,0,0-.71-.73l-2.37-1.43a2,2,0,0,0-1-.29,2.12,2.12,0,0,0-1,.23,1.82,1.82,0,0,0-.74.69,1.78,1.78,0,0,0-.26,1,2,2,0,0,0,.26,1,1.89,1.89,0,0,0,.7.73l2.38,1.43a1.9,1.9,0,0,0,1,.29,2,2,0,0,0,1-.23,1.83,1.83,0,0,0,1-1.66Z"/><path d="M175.12,183.32a2.89,2.89,0,0,1-2.88-.09l-2.39-1.43a2.84,2.84,0,0,1-1-1.08,2.92,2.92,0,0,1-.38-1.43,2.78,2.78,0,0,1,.4-1.43,3.31,3.31,0,0,1,.8-.9,3,3,0,0,1,1-.5.24.24,0,0,1,.16,0,.22.22,0,0,1,.1.13c.08.24.12.39.14.46a.24.24,0,0,1,0,.17.22.22,0,0,1-.16.11,2,2,0,0,0-1.24,1,1.77,1.77,0,0,0-.26,1,2.05,2.05,0,0,0,1,1.68l2.39,1.44a2,2,0,0,0,1,.29,1.92,1.92,0,0,0,1-.2,1.78,1.78,0,0,0,.72-.67,2,2,0,0,0,.27-1.55.24.24,0,0,1,.15-.3l.48-.1a.24.24,0,0,1,.16,0,.18.18,0,0,1,.09.13,3,3,0,0,1,.05,1.15,3,3,0,0,1-.42,1.13A2.79,2.79,0,0,1,175.12,183.32Z"/><path d="M178,178.86a.12.12,0,0,1-.13,0l-6.81-4.1a.18.18,0,0,1-.08-.11.17.17,0,0,1,0-.12l.33-.55a.18.18,0,0,1,.11-.08.17.17,0,0,1,.12,0l3,1.83.18-.29-1.6-4.34a.26.26,0,0,1,0-.23l.38-.65a.24.24,0,0,1,.1-.08.17.17,0,0,1,.12,0,.16.16,0,0,1,.08.1l1.68,4.62,4.91-.63a.19.19,0,0,1,.13,0,.14.14,0,0,1,.08.11.18.18,0,0,1,0,.14l-.39.64a.27.27,0,0,1-.19.12l-4.51.58-.2.33,3,1.81a.19.19,0,0,1,.07.11.28.28,0,0,1,0,.13l-.32.53A.19.19,0,0,1,178,178.86Z"/><path d="M181.43,173.23a.19.19,0,0,1-.13,0l-.48-.29a.18.18,0,0,1-.08-.11.17.17,0,0,1,0-.12l.63-1-5.56-3.35-.62,1a.23.23,0,0,1-.11.08.14.14,0,0,1-.12,0l-.48-.28a.18.18,0,0,1-.08-.11.17.17,0,0,1,0-.12l1.75-2.9a.16.16,0,0,1,.1-.08.21.21,0,0,1,.13,0l.48.29a.17.17,0,0,1,.07.1.15.15,0,0,1,0,.13l-.62,1,5.56,3.35.62-1a.16.16,0,0,1,.1-.08.19.19,0,0,1,.13,0l.48.29a.16.16,0,0,1,.06.23l-1.75,2.9A.16.16,0,0,1,181.43,173.23Z"/></g></g></svg>