<svg xmlns="http://www.w3.org/2000/svg" xmlns:xlink="http://www.w3.org/1999/xlink" viewBox="0 0 283.46 283.46"><defs><style>.cls-1{fill:none;}.cls-2{fill:#fff;}.cls-3{fill:#6f3ff4;}.cls-4{fill:#02e1ab;}.cls-5{clip-path:url(#clip-path);}.cls-6{fill:#b2ffec;}.cls-7{clip-path:url(#clip-path-2);}.cls-8{stroke:#000;stroke-miterlimit:10;}</style><clipPath id="clip-path"><polygon class="cls-1" points="195.62 157.02 138.6 190.69 138.6 190.69 81.62 157.02 138.6 237.32 138.6 237.32 195.62 157.02"/></clipPath><clipPath id="clip-path-2"><polygon class="cls-1" points="81.62 146.21 81.62 146.21 91.19 151.87 138.6 179.9 138.6 179.9 195.59 146.21 138.6 51.66 138.6 51.66 138.6 51.66 138.6 51.66 138.6 51.66 81.62 146.21 81.62 146.21"/></clipPath></defs><g id="profile"><path class="cls-2" d="M150.52,254.27a9.17,9.17,0,0,1-4.36-1.08,9.48,9.48,0,0,1-3.44-3.06,1.76,1.76,0,0,0-1.44-.77,1.72,1.72,0,0,0-1.41.73,1.37,1.37,0,0,1-2.24,0l-67.91-95.7a2.76,2.76,0,0,1-.11-3L136.39,40.6a2.77,2.77,0,0,1,4.73,0l67,111.21a2.35,2.35,0,0,1-.09,2.58l-.17.23a1.8,1.8,0,0,0-.23,1.62,1.74,1.74,0,0,0,1.18,1.12,9.6,9.6,0,0,1,3.93,2.24,9.94,9.94,0,0,1,1.06,13l-55,77.39a10.2,10.2,0,0,1-8.27,4.33Z"/><path d="M138.76,39.77a2.24,2.24,0,0,1,1.93,1.09l67,111.2a1.87,1.87,0,0,1-.08,2l-.16.23a2.24,2.24,0,0,0-.3,2.08,2.27,2.27,0,0,0,1.51,1.43,9.18,9.18,0,0,1,3.73,2.13,9.42,9.42,0,0,1,1,12.29l-55,77.39a9.69,9.69,0,0,1-7.87,4.12,8.71,8.71,0,0,1-4.13-1,9,9,0,0,1-3.26-2.91,2.23,2.23,0,0,0-3.67,0,.89.89,0,0,1-.71.37.86.86,0,0,1-.71-.37L70.13,154.1a2.24,2.24,0,0,1-.09-2.47L136.82,40.86a2.25,2.25,0,0,1,1.94-1.09m0-1A3.22,3.22,0,0,0,136,40.34L69.18,151.11a3.26,3.26,0,0,0,.13,3.57l67.91,95.7a1.89,1.89,0,0,0,1.53.79,1.84,1.84,0,0,0,1.52-.79h0a1.23,1.23,0,0,1,1-.52,1.26,1.26,0,0,1,1,.55,10,10,0,0,0,3.62,3.22,9.69,9.69,0,0,0,4.59,1.14,10.72,10.72,0,0,0,8.68-4.54l55-77.39a10.44,10.44,0,0,0-1.13-13.6,10.09,10.09,0,0,0-4.13-2.36,1.27,1.27,0,0,1-.68-2l.16-.23a2.85,2.85,0,0,0,.12-3.13l-67-111.2a3.21,3.21,0,0,0-2.79-1.58Z"/><path class="cls-3" d="M159.91,236.91a2.85,2.85,0,0,1-.79.42.09.09,0,0,1-.1,0,.16.16,0,0,1-.09-.07l-.26-.54a.15.15,0,0,1,0-.18.18.18,0,0,1,.09-.08,2.28,2.28,0,0,0,1-.72,1.07,1.07,0,0,0,.23-.68.73.73,0,0,0-.3-.53.62.62,0,0,0-.38-.11,1,1,0,0,0-.4.12q-.21.11-.57.33l-.22.14a3.16,3.16,0,0,1-1,.42,1.46,1.46,0,0,1-1.11-.32,1.82,1.82,0,0,1-.6-.7,1.58,1.58,0,0,1-.12-.86,2,2,0,0,1,.36-.89,2.85,2.85,0,0,1,.63-.62,2.73,2.73,0,0,1,.77-.41.15.15,0,0,1,.11,0,.14.14,0,0,1,.08.07l.27.52a.18.18,0,0,1,0,.19.39.39,0,0,1-.1.08,2.13,2.13,0,0,0-.6.33,1.92,1.92,0,0,0-.38.37.82.82,0,0,0-.17.6.68.68,0,0,0,.29.47.73.73,0,0,0,.57.12,2.81,2.81,0,0,0,.79-.37l.51-.33a1.83,1.83,0,0,1,.93-.3,1.53,1.53,0,0,1,.92.3,1.8,1.8,0,0,1,.6.72,1.69,1.69,0,0,1,.11.92,2.23,2.23,0,0,1-.4.95A2.69,2.69,0,0,1,159.91,236.91Z"/><path class="cls-3" d="M162.61,232.88a2.18,2.18,0,0,1-1.1.17,2.21,2.21,0,0,1-1.06-.39l-1.43-1a2.22,2.22,0,0,1-.92-2,2.06,2.06,0,0,1,.38-1,2.3,2.3,0,0,1,.7-.66,1.84,1.84,0,0,1,.87-.29.15.15,0,0,1,.14,0,.24.24,0,0,1,.1.15l.1.51a.19.19,0,0,1,0,.15.17.17,0,0,1-.14.07,1.33,1.33,0,0,0-.95.58,1.1,1.1,0,0,0-.19.56,1.23,1.23,0,0,0,.12.59,1.24,1.24,0,0,0,.4.48l1.44,1a1.28,1.28,0,0,0,.58.22,1.35,1.35,0,0,0,.6-.08,1,1,0,0,0,.46-.37,1.29,1.29,0,0,0,.23-1.08.27.27,0,0,1,0-.16.21.21,0,0,1,.14-.07l.52-.08a.19.19,0,0,1,.17,0,.15.15,0,0,1,.08.11,2,2,0,0,1,0,.93,2.23,2.23,0,0,1-.39.88A2.07,2.07,0,0,1,162.61,232.88Z"/><path class="cls-3" d="M165,229.77a.22.22,0,0,1-.13,0l-4.52-3.21a.19.19,0,0,1-.07-.11.15.15,0,0,1,0-.13l.38-.54a.19.19,0,0,1,.11-.07.15.15,0,0,1,.13,0l1.82,1.29,1.41-2-1.81-1.29a.21.21,0,0,1-.08-.11.2.2,0,0,1,0-.13l.38-.54a.16.16,0,0,1,.11-.07.15.15,0,0,1,.13,0l4.52,3.21a.15.15,0,0,1,.07.12.17.17,0,0,1,0,.13l-.38.53a.14.14,0,0,1-.11.07.15.15,0,0,1-.13,0l-1.94-1.37-1.41,2,1.94,1.37a.19.19,0,0,1,.07.12.14.14,0,0,1,0,.12l-.38.54A.2.2,0,0,1,165,229.77Z"/><path class="cls-3" d="M168.31,225a.32.32,0,0,1-.27-.06l-4.22-3a.39.39,0,0,1-.15-.23.32.32,0,0,1,.06-.27l1.63-2.29a.19.19,0,0,1,.11-.07.15.15,0,0,1,.13,0l.51.36a.16.16,0,0,1,.07.11.21.21,0,0,1,0,.13l-1.25,1.76,1.14.81L167,221a.19.19,0,0,1,.11-.07.15.15,0,0,1,.13,0l.48.34a.16.16,0,0,1,.07.11.15.15,0,0,1,0,.13l-.93,1.31,1.33.95,1.25-1.76a.17.17,0,0,1,.11-.08.28.28,0,0,1,.13,0l.51.36a.19.19,0,0,1,.07.11.19.19,0,0,1,0,.13l-1.63,2.3A.33.33,0,0,1,168.31,225Z"/><path class="cls-3" d="M170.9,221.34a.31.31,0,0,1-.26-.06l-4.38-3.11a.16.16,0,0,1-.07-.11.15.15,0,0,1,0-.13l.38-.54a.19.19,0,0,1,.11-.07.15.15,0,0,1,.13,0l3.88,2.76,1.11-1.56a.21.21,0,0,1,.11-.08.2.2,0,0,1,.13,0l.51.35a.19.19,0,0,1,.07.12.21.21,0,0,1,0,.13l-1.49,2.09A.31.31,0,0,1,170.9,221.34Z"/><path class="cls-3" d="M173.22,218.08A.32.32,0,0,1,173,218l-4.37-3.11a.18.18,0,0,1-.08-.11.2.2,0,0,1,0-.13l.38-.54a.16.16,0,0,1,.11-.07.15.15,0,0,1,.13,0l3.88,2.76,1.11-1.56a.15.15,0,0,1,.11-.08.22.22,0,0,1,.13,0l.5.35a.15.15,0,0,1,.07.12.17.17,0,0,1,0,.13l-1.48,2.09A.33.33,0,0,1,173.22,218.08Z"/><path class="cls-3" d="M175.45,215a.28.28,0,0,1-.13,0l-.47-.33a.19.19,0,0,1-.07-.12.14.14,0,0,1,0-.12l.41-.58-3.32-2.35-.4.57a.15.15,0,0,1-.12.07.14.14,0,0,1-.12,0l-.47-.33a.16.16,0,0,1-.07-.11.15.15,0,0,1,0-.13l1.4-2a.12.12,0,0,1,.11-.07.16.16,0,0,1,.13,0l.46.33a.12.12,0,0,1,.07.11.16.16,0,0,1,0,.13l-.4.57L175.8,213l.41-.57a.16.16,0,0,1,.11-.07.16.16,0,0,1,.13,0l.46.33a.17.17,0,0,1,0,.24l-1.39,2A.17.17,0,0,1,175.45,215Z"/><path class="cls-3" d="M177.69,211.87a.13.13,0,0,1-.12,0l-4.48-3.18a.21.21,0,0,1-.09-.15.22.22,0,0,1,0-.18l.39-.55a.25.25,0,0,1,.23-.11l3.87.33.8.07-3.25-2.31a.18.18,0,0,1-.08-.11.19.19,0,0,1,0-.13l.35-.48a.18.18,0,0,1,.11-.08.2.2,0,0,1,.13,0l4.47,3.17a.25.25,0,0,1,.1.16.25.25,0,0,1,0,.17l-.4.56a.23.23,0,0,1-.23.11l-4-.34-.64-.06,3.24,2.3s.07.07.07.12a.14.14,0,0,1,0,.12l-.34.49A.19.19,0,0,1,177.69,211.87Z"/><path class="cls-3" d="M181.46,206.33a2.14,2.14,0,0,1-2.16-.21l-1.43-1a2,2,0,0,1-.72-.88,2.18,2.18,0,0,1-.19-1.1,2.08,2.08,0,0,1,.39-1.06,2.54,2.54,0,0,1,.71-.68,2.05,2.05,0,0,1,.88-.3.21.21,0,0,1,.15,0,.27.27,0,0,1,.09.15l.1.51a.24.24,0,0,1,0,.15.22.22,0,0,1-.15.08,1.36,1.36,0,0,0-1,.6,1.15,1.15,0,0,0-.2.57,1.2,1.2,0,0,0,.11.62,1.32,1.32,0,0,0,.4.48l1.43,1a1.15,1.15,0,0,0,.59.22,1.28,1.28,0,0,0,.61-.09,1.19,1.19,0,0,0,.47-.39,1.16,1.16,0,0,0,.21-.56,1.12,1.12,0,0,0-.1-.6,1.11,1.11,0,0,0-.39-.47l-.33-.24-.64.9a.21.21,0,0,1-.11.08.2.2,0,0,1-.13,0l-.49-.34a.19.19,0,0,1-.07-.11.19.19,0,0,1,0-.13l1-1.42a.31.31,0,0,1,.23-.14.32.32,0,0,1,.27.06l.78.55a2.17,2.17,0,0,1,.72.87,2.21,2.21,0,0,1,.18,1.11,2.17,2.17,0,0,1-1.26,1.77Z"/><path class="cls-3" d="M185.32,201.14a.15.15,0,0,1-.13,0L180.81,198a.36.36,0,0,1-.15-.23.36.36,0,0,1,.07-.26l.85-1.2a1.86,1.86,0,0,1,.76-.63,1.81,1.81,0,0,1,1-.17,1.77,1.77,0,0,1,.92.33,1.74,1.74,0,0,1,.63.77,1.9,1.9,0,0,1,.16,1,1.77,1.77,0,0,1-.35.93l-.47.67,1.57,1.11a.19.19,0,0,1,.07.11.15.15,0,0,1,0,.13l-.38.54A.19.19,0,0,1,185.32,201.14ZM183.88,198a1,1,0,0,0,.16-.72.91.91,0,0,0-.39-.62,1,1,0,0,0-1.32.23l-.45.64,1.55,1.1Z"/><path class="cls-3" d="M188.53,196.38a2.13,2.13,0,0,1-1.11.19,2.08,2.08,0,0,1-1.06-.39l-1.43-1a2.1,2.1,0,0,1-.72-.87,2.16,2.16,0,0,1,.21-2.17,2.19,2.19,0,0,1,2-.91,2.08,2.08,0,0,1,1.06.39l1.43,1a2.09,2.09,0,0,1,.72.87,2.22,2.22,0,0,1,.19,1.11,2.19,2.19,0,0,1-.4,1.06A2.17,2.17,0,0,1,188.53,196.38Zm.29-1.85a1.28,1.28,0,0,0-.11-.61,1.18,1.18,0,0,0-.4-.48l-1.43-1a1.25,1.25,0,0,0-.59-.22,1.18,1.18,0,0,0-.61.1,1.09,1.09,0,0,0-.47.38,1.07,1.07,0,0,0-.21.57,1.28,1.28,0,0,0,.11.61,1.18,1.18,0,0,0,.4.48l1.43,1a1.21,1.21,0,0,0,1.2.12,1,1,0,0,0,.47-.38A1.07,1.07,0,0,0,188.82,194.53Z"/><path class="cls-3" d="M191,193.11a.16.16,0,0,1-.13,0l-.46-.33a.21.21,0,0,1-.08-.11.2.2,0,0,1,0-.13l.4-.57-3.31-2.36-.41.57a.14.14,0,0,1-.11.07.16.16,0,0,1-.13,0l-.46-.33a.12.12,0,0,1-.07-.11.16.16,0,0,1,0-.13l1.39-2a.19.19,0,0,1,.11-.07.15.15,0,0,1,.13,0l.47.33a.16.16,0,0,1,.07.11.15.15,0,0,1,0,.13l-.41.57,3.32,2.35.4-.57a.19.19,0,0,1,.11-.07.15.15,0,0,1,.13,0l.47.33a.19.19,0,0,1,.07.11.15.15,0,0,1,0,.13l-1.4,2A.16.16,0,0,1,191,193.11Z"/><path class="cls-3" d="M193.27,189.94a.15.15,0,0,1-.13,0l-4.47-3.17a.25.25,0,0,1-.1-.16.3.3,0,0,1,0-.18l.39-.55a.3.3,0,0,1,.24-.11l3.87.33.79.08-3.25-2.32a.14.14,0,0,1-.07-.11.16.16,0,0,1,0-.13l.34-.48a.15.15,0,0,1,.12-.07.13.13,0,0,1,.12,0l4.48,3.17a.24.24,0,0,1,.09.16.24.24,0,0,1,0,.18l-.39.55a.25.25,0,0,1-.24.11l-4-.33-.65-.07,3.24,2.31a.15.15,0,0,1,.08.11.21.21,0,0,1,0,.13l-.35.48A.14.14,0,0,1,193.27,189.94Z"/><path class="cls-3" d="M197.33,184.23a.15.15,0,0,1-.13,0l-3.88-2.76-.8,1.13a.17.17,0,0,1-.24,0l-.51-.35a.19.19,0,0,1-.07-.12.16.16,0,0,1,0-.13l2.19-3.07a.15.15,0,0,1,.11-.08.15.15,0,0,1,.13,0l.5.36a.21.21,0,0,1,.08.11.28.28,0,0,1,0,.13l-.81,1.13,3.88,2.76a.14.14,0,0,1,.07.11.15.15,0,0,1,0,.13l-.38.54A.19.19,0,0,1,197.33,184.23Z"/><path class="cls-3" d="M200.42,179.78a.34.34,0,0,1-.26-.05l-.54-.38a2.52,2.52,0,0,1-.73-.74,1.69,1.69,0,0,1-.22-.81c0-.3,0-.78.07-1.44a1.3,1.3,0,0,0-.06-.58.8.8,0,0,0-.3-.38.74.74,0,0,0-.58-.14.91.91,0,0,0-.53.4,2,2,0,0,0-.34,1,.19.19,0,0,1-.05.1.14.14,0,0,1-.16.07l-.56-.06-.08,0a.16.16,0,0,1-.07-.14,2.89,2.89,0,0,1,.15-.81,2.79,2.79,0,0,1,.39-.77,1.78,1.78,0,0,1,1.11-.79,1.58,1.58,0,0,1,1.27.32,1.62,1.62,0,0,1,.62.79,3.55,3.55,0,0,1,.12,1.22c0,.15,0,.28,0,.38a5.26,5.26,0,0,0,0,.65,1.23,1.23,0,0,0,.1.46.84.84,0,0,0,.31.37l.2.14,1.24-1.75a.16.16,0,0,1,.11-.07.15.15,0,0,1,.13,0l.5.36a.14.14,0,0,1,.07.11.16.16,0,0,1,0,.13l-1.6,2.25A.31.31,0,0,1,200.42,179.78Z"/><path class="cls-3" d="M202.74,175.55A5.15,5.15,0,0,1,199,172.9a1.95,1.95,0,0,1,1.8-2.53,5.22,5.22,0,0,1,3.72,2.64,2,2,0,0,1-1.8,2.54Zm.94-2a1.25,1.25,0,0,0-.35-.67,6,6,0,0,0-.94-.79,5.67,5.67,0,0,0-1.06-.63,1.39,1.39,0,0,0-.74-.11.89.89,0,0,0-.53.38.86.86,0,0,0-.18.63,1.39,1.39,0,0,0,.36.67,6.21,6.21,0,0,0,.95.8,3.84,3.84,0,0,0,1.44.73.86.86,0,0,0,.87-.39A.82.82,0,0,0,203.68,173.56Z"/><path class="cls-3" d="M205.87,172.11a.35.35,0,0,1-.26-.06l-.53-.38a2.45,2.45,0,0,1-.74-.74,1.69,1.69,0,0,1-.22-.81,13.4,13.4,0,0,1,.08-1.44,1.31,1.31,0,0,0-.06-.58,1,1,0,0,0-.31-.38.69.69,0,0,0-.58-.13.88.88,0,0,0-.53.39,2.09,2.09,0,0,0-.34,1,.49.49,0,0,1,0,.11.16.16,0,0,1-.16.06l-.57-.06a.13.13,0,0,1-.08,0,.15.15,0,0,1-.07-.14,3,3,0,0,1,.15-.81,3.71,3.71,0,0,1,.39-.77,1.81,1.81,0,0,1,1.12-.79,1.6,1.6,0,0,1,1.26.33,1.54,1.54,0,0,1,.62.78,3.12,3.12,0,0,1,.12,1.22c0,.15,0,.28,0,.38a5.42,5.42,0,0,0,0,.66,1.46,1.46,0,0,0,.1.45,1,1,0,0,0,.32.38l.19.13,1.24-1.74a.21.21,0,0,1,.11-.08.2.2,0,0,1,.13,0l.5.35a.14.14,0,0,1,.07.11.15.15,0,0,1,0,.13L206.1,172A.36.36,0,0,1,205.87,172.11Z"/><path class="cls-3" d="M208.36,168.61a.39.39,0,0,1-.26-.06l-.53-.38a2.57,2.57,0,0,1-.74-.74,1.69,1.69,0,0,1-.22-.81c0-.3,0-.78.07-1.44a1.18,1.18,0,0,0-.06-.58.8.8,0,0,0-.3-.38.74.74,0,0,0-.58-.14.91.91,0,0,0-.53.4,2,2,0,0,0-.34,1,.19.19,0,0,1-.05.1.14.14,0,0,1-.16.07l-.56-.06s-.06,0-.08,0a.16.16,0,0,1-.07-.14,2.89,2.89,0,0,1,.15-.81,3.28,3.28,0,0,1,.39-.77,1.78,1.78,0,0,1,1.11-.79,1.79,1.79,0,0,1,1.89,1.11,3.55,3.55,0,0,1,.12,1.22c0,.15,0,.28,0,.38a5.26,5.26,0,0,0,0,.65,1.23,1.23,0,0,0,.1.46.91.91,0,0,0,.31.37l.2.14,1.24-1.75a.19.19,0,0,1,.11-.07.15.15,0,0,1,.13,0l.5.36a.14.14,0,0,1,.07.11.16.16,0,0,1,0,.13l-1.6,2.25A.36.36,0,0,1,208.36,168.61Z"/><path class="cls-3" d="M144.47,242.86l.38-.73.32.16.82.43.81.43a.35.35,0,0,0,.33,0,6.55,6.55,0,0,1,.67-.2l.14-.06a12.23,12.23,0,0,0-1.35-.76c-.46-.22-.91-.48-1.38-.73l.39-.72,3.52,1.86,1-.31v0l-.24-.14-.19-.13s0,0-.06,0a8.28,8.28,0,0,1-1-.49c-.33-.17-.66-.34-1-.52l-.64-.34-.53-.27-.45-.24L146,240l.37-.7,1.38.73c-.14-.51-.31-1-.45-1.49l.74-.23a.33.33,0,0,1,.06.1c.17.56.35,1.12.52,1.68,0,.12.07.25.11.37a.28.28,0,0,0,.15.17c.25.12.49.26.74.39l.14,0-.94-3,.77-.24c0,.09.07.18.09.26.13.4.25.81.38,1.21s.23.76.34,1.13l.36,1.12a.23.23,0,0,0,.08.11l.88.46a.74.74,0,0,0-.06-.34c0-.19-.12-.36-.18-.55s-.15-.48-.22-.72-.24-.78-.37-1.17-.25-.79-.37-1.19l-.15-.48s0,0,0-.08l.76-.23c.17.47.29,1,.46,1.45a5,5,0,0,0,.38-.66c.12-.22.22-.44.35-.68.24.12.48.23.72.37l-.19.37-.42.81c-.14.27-.29.54-.44.81a.25.25,0,0,0,0,.19c.09.3.19.6.28.91l0,0c.27-.45.49-.92.74-1.37s.48-.92.73-1.39l.71.38-.28.55-.34.63-.35.67c-.14.25-.27.51-.4.76l-.42.8a.26.26,0,0,0,0,.21l.27.84s0,0,0,.09l2.2-4.18.4.21.31.17c-.21.47-.48.89-.69,1.35l0,0,1.45-.45.23.77-.24.08-.91.28-.94.29a.36.36,0,0,0-.25.2c-.12.26-.27.51-.4.76,0,0,0,0,0,.07.52-.13,1-.3,1.51-.45l1.5-.47.24.77-.46.15-1,.31-1.36.41-.88.28a.23.23,0,0,0-.14.13l-.25.46-.2.39h.08l1.34-.41,1.08-.33,1.2-.37.84-.26.24.77c-.49.17-1,.29-1.48.47l1.36.72c-.11.25-.24.47-.37.72l-.37-.19-.8-.43-.86-.45a.15.15,0,0,0-.11,0l-1,.3v0l2.74,1.44a3.12,3.12,0,0,1-.37.73l-.38-.19-.62-.34-.66-.34L154,246l-.7-.37a.45.45,0,0,0-.41,0c-.23.1-.48.16-.73.24l-.12,0a1,1,0,0,0,.34.21l.65.35.62.31.46.26.21.11.86.46.92.48.12.07-.36.69c-.46-.21-.89-.48-1.37-.7.06.27.15.5.22.74s.15.48.23.73l-.77.25c0-.09,0-.16-.08-.24l-.36-1.16c-.08-.24-.15-.49-.22-.74a.33.33,0,0,0-.16-.19l-.73-.39-.13,0c.14.52.31,1,.45,1.49s.31,1,.47,1.48c-.25.12-.51.16-.77.26l-.09-.27c-.18-.57-.36-1.13-.53-1.7s-.3-1-.44-1.46c0-.09-.07-.18-.09-.27a.23.23,0,0,0-.12-.15l-.87-.45a1.17,1.17,0,0,0,.08.37c.12.4.26.79.38,1.19l.45,1.47.36,1.12c0,.12.07.24.11.39l-.77.23c-.17-.46-.29-.94-.47-1.41-.28.41-.47.87-.73,1.3l-.72-.37,0-.1.4-.75.36-.68.28-.54a.08.08,0,0,0,0-.08c-.09-.29-.18-.58-.26-.86a.9.9,0,0,0,0-.09l-.12.16-.56,1c-.16.32-.32.64-.49,1l-.26.51-.05,0a5,5,0,0,1-.71-.39l.16-.31c.14-.26.27-.52.41-.77l.33-.64.63-1.2.24-.43a.31.31,0,0,0,0-.26l-.27-.86,0,0a.27.27,0,0,0-.07.08l-.33.64-.5.93-.5,1-.35.64c-.14.27-.28.53-.41.8l-.06.08-.71-.38.71-1.36a5.09,5.09,0,0,0-.75.22l-.73.22-.24-.78.64-.2,1.42-.44.06,0a.29.29,0,0,0,.23-.17c.12-.26.26-.5.39-.75a.18.18,0,0,1,0-.06.4.4,0,0,0-.11,0l-1,.31-.83.25-.84.26a1.41,1.41,0,0,1-.22.06l-.24-.75a.33.33,0,0,1,.1-.06l1.44-.45,1.05-.31,1.09-.34a.24.24,0,0,0,.17-.14c.15-.27.29-.55.45-.86l-.39.11-1.22.38-1.6.5-1.22.37c-.09,0-.11,0-.14-.07s-.14-.44-.21-.68l1.44-.45v0Zm5,1.71.47.25a.34.34,0,0,1,.21.24,1.39,1.39,0,0,0,.06.19c0,.1,0,.22.13.31l.56-.17a.17.17,0,0,1,.17,0l.24.13.29.15a4.65,4.65,0,0,0,.23-.43.38.38,0,0,1,.3-.25l.46-.15-.18-.57a.19.19,0,0,1,0-.18c.07-.12.13-.25.2-.38l.07-.17-.5-.25a.21.21,0,0,1-.14-.15c0-.16-.1-.32-.15-.47a.54.54,0,0,0-.05-.11l-.44.13a.4.4,0,0,1-.42,0l-.09,0-.33-.17-.16.31c-.15.31-.15.31-.41.4l-.08,0-.36.11,0,.07c.05.15.1.3.14.46a.26.26,0,0,1,0,.24.4.4,0,0,0-.08.16Z"/><path class="cls-4" d="M152.05,244.57l-.27.09c-.15,0-.2.12-.26.23l-.11.2-.14-.06-.18-.09a.21.21,0,0,0-.19,0l-.32.08c0-.12-.08-.23-.11-.35a.21.21,0,0,0-.13-.13l-.29-.15.2-.41-.13-.41a1.44,1.44,0,0,1,.25-.08.35.35,0,0,0,.27-.23,1.27,1.27,0,0,1,.13-.22l.15.08a.5.5,0,0,0,.5,0l.16,0a1.52,1.52,0,0,1,.09.25.3.3,0,0,0,.24.26.92.92,0,0,1,.21.12,1.67,1.67,0,0,1-.12.23.29.29,0,0,0,0,.3C152,244.36,152,244.45,152.05,244.57Z"/></g><g id="background"><polygon class="cls-4" points="81.62 146.21 81.62 146.21 91.19 151.87 138.6 179.9 138.6 179.9 195.59 146.21 138.6 51.66 138.6 51.66 138.6 51.66 138.6 51.66 138.6 51.66 81.62 146.21 81.62 146.21"/><polygon class="cls-4" points="195.62 157.02 138.6 190.69 138.6 190.69 81.62 157.02 138.6 237.32 138.6 237.32 195.62 157.02"/><g class="cls-5"><path class="cls-6" d="M183.21,176.86c-13.22-10.57-29.88-4.5-35.51,6.48a22.69,22.69,0,0,1,16.88-.59,19.71,19.71,0,0,1,8.51,5.81,21.36,21.36,0,0,0-14.63-5.29c3.8,3.89,4.38,7.93,1.13,12.23.16-.34.31-.67.48-1a7.76,7.76,0,0,0-3.53-10.5,3.33,3.33,0,0,0-1.95-.22,17.86,17.86,0,0,0-7.65,3.46,3,3,0,0,0-1,1.65c-2,10-1.13,19.8,1.49,29.5,1.24,4.58,2.93,17.22,4.45,21.71.14.41.3.8.51,1.34H127c.16-.45.29-.87.46-1.28,3.65-9,6.36-26.39,7-36.12.4-6.18.24-12.25-2.71-17.93a31.2,31.2,0,0,0-7.49-9.68,2.09,2.09,0,0,0-1.57-.39,12.33,12.33,0,0,0-7.45,19l.8,1.12c-2.57-1.68-3.93-5.3-4.21-11.08-3.59,1.36-7,1.09-10-1.45A7.89,7.89,0,0,1,99,177.8c1,3.55,3.18,5.9,6.83,6.62a7.87,7.87,0,0,0,5.8-1.06,2.47,2.47,0,0,0,1-1.09,13.66,13.66,0,0,1,7.74-8,3,3,0,0,0,.55-.34c-8.91-6.47-25.42-8.34-38.08,3.19,1-1.95,7-6.71,12.43-8.71a35.36,35.36,0,0,1,15.32-2,24,24,0,0,1-1.6-2.72,30.25,30.25,0,0,1-1.83-4.91,9,9,0,0,0-8.4-7.13,10.12,10.12,0,0,0-7.41,2.59c2.4-4.38,9.44-4.72,15.29-.73.8-7,4.06-12.21,10.37-15.37-1,.89-2.15,1.71-3.12,2.67a17.34,17.34,0,0,0,2,26.18,5.81,5.81,0,0,0,1.57.84,33.4,33.4,0,0,1,17.09,12.55l.32.4a.35.35,0,0,0,.12.08c-.39-2.42-.91-4.89-1.16-7.38A34.2,34.2,0,0,1,137,155.63a5.86,5.86,0,0,0,.52-2.21A13.77,13.77,0,0,0,123,139.48c-.25,0-.5,0-.85,0,7-2.14,14.27,2.57,17.64,11.67a16.45,16.45,0,0,0,1-13c-3.07-8.91-9.64-12.88-19-12.76,9.72-2.36,22.87,5.12,22.89,19.76A35.53,35.53,0,0,1,160.2,137a33.25,33.25,0,0,1,17.26.43,33.2,33.2,0,0,0-20.68,2.86c5.23.89,8.44,3.63,9.67,8.5a10.78,10.78,0,0,0-5.18-5.76c-3.57-1.68-7-1.64-10.23.94a31.51,31.51,0,0,0-10.52,15.49c-.1.32-.17.65-.31,1.21,4.73-3.58,9.47-3.94,14.35-.83-1-.33-2-.73-3-1A10.6,10.6,0,0,0,139.94,164a5.33,5.33,0,0,0-.72,2,30.92,30.92,0,0,0,3.15,17.07,4.83,4.83,0,0,0,.34.52c.66-1.06,1.26-2.08,1.91-3.06a22.25,22.25,0,0,1,8.34-7.64c3.55-1.83,5.3-4.87,6.42-8.41a16.4,16.4,0,0,0-.29-10.47c2.45,3.57,2.33,9.33-.35,16.31C168.12,168.16,176.3,170.24,183.21,176.86Z"/><path class="cls-6" d="M141.45,129.77c-.47-8.29,4.44-13.51,12.48-14,1.59,6.89-4.2,14.07-12,14.51l5-6.2-.24-.2Z"/><path class="cls-6" d="M124.94,122.87l-7.29-5.62-.16.2,6.93,6c-8.31.78-13.65-4.29-14.29-12.07C116.81,109.4,124.28,115.08,124.94,122.87Z"/><path class="cls-6" d="M96.14,149.13l-8.53-2.88-.09.24,8.23,3.28c-5.34,4-14.59.38-17.38-6.73C84.16,139.09,93.37,142.15,96.14,149.13Z"/><path class="cls-6" d="M185.05,125.23c-2.4,8-8.33,11.34-16.37,9.29l8.17-4.72-.11-.21-8.37,4.25C171,125.54,177.68,123,185.05,125.23Z"/><path class="cls-6" d="M180,156.85c-3.24,7.35-10.06,10.17-17.46,6.79l8.84-3.52-.07-.21-9,3C165.75,155.46,173,153.33,180,156.85Z"/><path class="cls-6" d="M116.62,126.6l-7.51,1.72.06.26,7.58-1.33c-4,6.25-10.87,7.31-16.92,3.12C103.35,124.44,110.24,122.24,116.62,126.6Z"/><path class="cls-6" d="M182.72,139.74l7.13,1.7.05-.24-7.06-2.12c6.87-3.78,12.78-1.17,16,4.63C194.31,147.75,185.52,145.67,182.72,139.74Z"/><path class="cls-6" d="M186.33,181l6,4.78.16-.18L187,180.7c5.33-2,12.32,4,12.44,10.68C193.49,193.15,187,188.15,186.33,181Z"/><path class="cls-6" d="M121.25,167.08v-8.17h-.44v8.22c-5.13-3.6-4.8-13,.29-16.71C125.9,155.16,126.76,161.72,121.25,167.08Z"/><path class="cls-6" d="M180.65,172.1l8.75-.78h-8.56c2.76-5,12.18-5.36,16.46-.54C192.88,176.06,186.28,177,180.65,172.1Z"/><path class="cls-6" d="M71.87,168.75a11.14,11.14,0,0,1,16.64.54H79.64l8.83.78C84.24,174.84,76.19,174.16,71.87,168.75Z"/><path class="cls-6" d="M133.3,119.2c.43,2.2.86,4.41,1.29,6.65-5.15-1.72-6.86-10.13-3.12-15,5.68,3.12,7.41,9.54,3.75,15l-1.7-6.6Z"/><path class="cls-6" d="M88.45,176.49l-2.21,4.82.25.13,2.43-4.55c2.66,4.76-1.1,11.9-6.85,13.22C79.74,184,82.42,178.51,88.45,176.49Z"/><path class="cls-6" d="M184.38,149c-5.68.63-11.06-2.63-11.42-9.6l4.59,3.76.16-.19-4.29-4C179.85,138.23,184.34,142.92,184.38,149Z"/><path class="cls-6" d="M180,183.57c-6.55.83-11-2.84-11.75-9.28l4.67,3.57.14-.18-4.23-3.79C174,172.35,180.16,177.82,180,183.57Z"/><path class="cls-6" d="M129.28,138.35l-1.57-1.87-.28.25,1.44,1.88c-4.3.32-8.08-4.22-7.23-8.61C126.37,130,130,133.84,129.28,138.35Z"/><path class="cls-6" d="M155.87,150.67a6.62,6.62,0,0,1-6.94,6.29,1.07,1.07,0,0,1-1.16-1.22C148.06,152.3,152.54,149.54,155.87,150.67Z"/><path class="cls-6" d="M123,196.43a6.59,6.59,0,0,1-8.27-4.6c-.25-.81.11-1.33,1-1.43A6.63,6.63,0,0,1,123,196.43Z"/><path class="cls-6" d="M166,126.5c1.2,3.44-1,7.61-4.47,8.34a1.59,1.59,0,0,1-1.29-.84C159.4,130.56,162.35,126.78,166,126.5Z"/><path class="cls-6" d="M113.29,196.59l.58,2,.17,0-.27-1.91c3.43,1.42,4.33,6,2,9.65C112.15,205,110.87,200.23,113.29,196.59Z"/><path class="cls-6" d="M177,189.82l-1.41-.49c2.89-2.4,7.23-1.18,9.52,2.62a6.47,6.47,0,0,1-9.76-2.17l1.62.2Z"/><path class="cls-6" d="M108.54,145l-.74-2.89-.14,0,.43,2.8c-3.4-1.25-4.31-6.36-1.78-9.68A6.52,6.52,0,0,1,108.54,145Z"/><path class="cls-6" d="M174.52,199.87a6.48,6.48,0,0,1-1.81-9.76l.57,2.51h.14l-.25-2.58A6.47,6.47,0,0,1,174.52,199.87Z"/><path class="cls-6" d="M103.5,170.42c2.33,3.62,1.34,7.71-2.44,9.75l.4-1.91-.21-.08-.62,1.8C98.44,176.35,99.73,172.62,103.5,170.42Z"/><path class="cls-6" d="M159.05,197.54l-.5,2.28.16.06.74-2.1c2.4,2.73,1,7.32-2.87,9.39C154.11,204.22,155.37,199.16,159.05,197.54Z"/><path class="cls-6" d="M93,186.43c2.76-3.41,7-3.94,9.93-1.2l-3.26.51v.12l3.19-.19C101.35,189,96.13,189.37,93,186.43Z"/><path class="cls-6" d="M154.81,195.92h3.34c-2.59,3.13-6.66,3.24-9.88.37,1.75-3.31,7-3.83,9.89-.87l-3.37.35Z"/></g><g class="cls-7"><path class="cls-6" d="M183.21,176.86c-13.22-10.57-29.88-4.5-35.51,6.48a22.69,22.69,0,0,1,16.88-.59,19.71,19.71,0,0,1,8.51,5.81,21.36,21.36,0,0,0-14.63-5.29c3.8,3.89,4.38,7.93,1.13,12.23.16-.34.31-.67.48-1a7.76,7.76,0,0,0-3.53-10.5,3.33,3.33,0,0,0-1.95-.22,17.86,17.86,0,0,0-7.65,3.46,3,3,0,0,0-1,1.65c-2,10-1.13,19.8,1.49,29.5,1.24,4.58,2.93,17.22,4.45,21.71.14.41.3.8.51,1.34H127c.16-.45.29-.87.46-1.28,3.65-9,6.36-26.39,7-36.12.4-6.18.24-12.25-2.71-17.93a31.2,31.2,0,0,0-7.49-9.68,2.09,2.09,0,0,0-1.57-.39,12.33,12.33,0,0,0-7.45,19l.8,1.12c-2.57-1.68-3.93-5.3-4.21-11.08-3.59,1.36-7,1.09-10-1.45A7.89,7.89,0,0,1,99,177.8c1,3.55,3.18,5.9,6.83,6.62a7.87,7.87,0,0,0,5.8-1.06,2.47,2.47,0,0,0,1-1.09,13.66,13.66,0,0,1,7.74-8,3,3,0,0,0,.55-.34c-8.91-6.47-25.42-8.34-38.08,3.19,1-1.95,7-6.71,12.43-8.71a35.36,35.36,0,0,1,15.32-2,24,24,0,0,1-1.6-2.72,30.25,30.25,0,0,1-1.83-4.91,9,9,0,0,0-8.4-7.13,10.12,10.12,0,0,0-7.41,2.59c2.4-4.38,9.44-4.72,15.29-.73.8-7,4.06-12.21,10.37-15.37-1,.89-2.15,1.71-3.12,2.67a17.34,17.34,0,0,0,2,26.18,5.81,5.81,0,0,0,1.57.84,33.4,33.4,0,0,1,17.09,12.55l.32.4a.35.35,0,0,0,.12.08c-.39-2.42-.91-4.89-1.16-7.38A34.2,34.2,0,0,1,137,155.63a5.86,5.86,0,0,0,.52-2.21A13.77,13.77,0,0,0,123,139.48c-.25,0-.5,0-.85,0,7-2.14,14.27,2.57,17.64,11.67a16.45,16.45,0,0,0,1-13c-3.07-8.91-9.64-12.88-19-12.76,9.72-2.36,22.87,5.12,22.89,19.76A35.53,35.53,0,0,1,160.2,137a33.25,33.25,0,0,1,17.26.43,33.2,33.2,0,0,0-20.68,2.86c5.23.89,8.44,3.63,9.67,8.5a10.78,10.78,0,0,0-5.18-5.76c-3.57-1.68-7-1.64-10.23.94a31.51,31.51,0,0,0-10.52,15.49c-.1.32-.17.65-.31,1.21,4.73-3.58,9.47-3.94,14.35-.83-1-.33-2-.73-3-1A10.6,10.6,0,0,0,139.94,164a5.33,5.33,0,0,0-.72,2,30.92,30.92,0,0,0,3.15,17.07,4.83,4.83,0,0,0,.34.52c.66-1.06,1.26-2.08,1.91-3.06a22.25,22.25,0,0,1,8.34-7.64c3.55-1.83,5.3-4.87,6.42-8.41a16.4,16.4,0,0,0-.29-10.47c2.45,3.57,2.33,9.33-.35,16.31C168.12,168.16,176.3,170.24,183.21,176.86Z"/><path class="cls-6" d="M141.45,129.77c-.47-8.29,4.44-13.51,12.48-14,1.59,6.89-4.2,14.07-12,14.51l5-6.2-.24-.2Z"/><path class="cls-6" d="M124.94,122.87l-7.29-5.62-.16.2,6.93,6c-8.31.78-13.65-4.29-14.29-12.07C116.81,109.4,124.28,115.08,124.94,122.87Z"/><path class="cls-6" d="M96.14,149.13l-8.53-2.88-.09.24,8.23,3.28c-5.34,4-14.59.38-17.38-6.73C84.16,139.09,93.37,142.15,96.14,149.13Z"/><path class="cls-6" d="M185.05,125.23c-2.4,8-8.33,11.34-16.37,9.29l8.17-4.72-.11-.21-8.37,4.25C171,125.54,177.68,123,185.05,125.23Z"/><path class="cls-6" d="M180,156.85c-3.24,7.35-10.06,10.17-17.46,6.79l8.84-3.52-.07-.21-9,3C165.75,155.46,173,153.33,180,156.85Z"/><path class="cls-6" d="M116.62,126.6l-7.51,1.72.06.26,7.58-1.33c-4,6.25-10.87,7.31-16.92,3.12C103.35,124.44,110.24,122.24,116.62,126.6Z"/><path class="cls-6" d="M182.72,139.74l7.13,1.7.05-.24-7.06-2.12c6.87-3.78,12.78-1.17,16,4.63C194.31,147.75,185.52,145.67,182.72,139.74Z"/><path class="cls-6" d="M186.33,181l6,4.78.16-.18L187,180.7c5.33-2,12.32,4,12.44,10.68C193.49,193.15,187,188.15,186.33,181Z"/><path class="cls-6" d="M121.25,167.08v-8.17h-.44v8.22c-5.13-3.6-4.8-13,.29-16.71C125.9,155.16,126.76,161.72,121.25,167.08Z"/><path class="cls-6" d="M180.65,172.1l8.75-.78h-8.56c2.76-5,12.18-5.36,16.46-.54C192.88,176.06,186.28,177,180.65,172.1Z"/><path class="cls-6" d="M71.87,168.75a11.14,11.14,0,0,1,16.64.54H79.64l8.83.78C84.24,174.84,76.19,174.16,71.87,168.75Z"/><path class="cls-6" d="M133.3,119.2c.43,2.2.86,4.41,1.29,6.65-5.15-1.72-6.86-10.13-3.12-15,5.68,3.12,7.41,9.54,3.75,15l-1.7-6.6Z"/><path class="cls-6" d="M88.45,176.49l-2.21,4.82.25.13,2.43-4.55c2.66,4.76-1.1,11.9-6.85,13.22C79.74,184,82.42,178.51,88.45,176.49Z"/><path class="cls-6" d="M184.38,149c-5.68.63-11.06-2.63-11.42-9.6l4.59,3.76.16-.19-4.29-4C179.85,138.23,184.34,142.92,184.38,149Z"/><path class="cls-6" d="M180,183.57c-6.55.83-11-2.84-11.75-9.28l4.67,3.57.14-.18-4.23-3.79C174,172.35,180.16,177.82,180,183.57Z"/><path class="cls-6" d="M129.28,138.35l-1.57-1.87-.28.25,1.44,1.88c-4.3.32-8.08-4.22-7.23-8.61C126.37,130,130,133.84,129.28,138.35Z"/><path class="cls-6" d="M155.87,150.67a6.62,6.62,0,0,1-6.94,6.29,1.07,1.07,0,0,1-1.16-1.22C148.06,152.3,152.54,149.54,155.87,150.67Z"/><path class="cls-6" d="M123,196.43a6.59,6.59,0,0,1-8.27-4.6c-.25-.81.11-1.33,1-1.43A6.63,6.63,0,0,1,123,196.43Z"/><path class="cls-6" d="M166,126.5c1.2,3.44-1,7.61-4.47,8.34a1.59,1.59,0,0,1-1.29-.84C159.4,130.56,162.35,126.78,166,126.5Z"/><path class="cls-6" d="M113.29,196.59l.58,2,.17,0-.27-1.91c3.43,1.42,4.33,6,2,9.65C112.15,205,110.87,200.23,113.29,196.59Z"/><path class="cls-6" d="M177,189.82l-1.41-.49c2.89-2.4,7.23-1.18,9.52,2.62a6.47,6.47,0,0,1-9.76-2.17l1.62.2Z"/><path class="cls-6" d="M108.54,145l-.74-2.89-.14,0,.43,2.8c-3.4-1.25-4.31-6.36-1.78-9.68A6.52,6.52,0,0,1,108.54,145Z"/><path class="cls-6" d="M174.52,199.87a6.48,6.48,0,0,1-1.81-9.76l.57,2.51h.14l-.25-2.58A6.47,6.47,0,0,1,174.52,199.87Z"/><path class="cls-6" d="M103.5,170.42c2.33,3.62,1.34,7.71-2.44,9.75l.4-1.91-.21-.08-.62,1.8C98.44,176.35,99.73,172.62,103.5,170.42Z"/><path class="cls-6" d="M159.05,197.54l-.5,2.28.16.06.74-2.1c2.4,2.73,1,7.32-2.87,9.39C154.11,204.22,155.37,199.16,159.05,197.54Z"/><path class="cls-6" d="M93,186.43c2.76-3.41,7-3.94,9.93-1.2l-3.26.51v.12l3.19-.19C101.35,189,96.13,189.37,93,186.43Z"/><path class="cls-6" d="M154.81,195.92h3.34c-2.59,3.13-6.66,3.24-9.88.37,1.75-3.31,7-3.83,9.89-.87l-3.37.35Z"/></g></g><g id="words"><g class="cls-7"><path class="cls-8" d="M113.72,91.7a1.15,1.15,0,0,1,.14-.88l8.71-14.63a1.13,1.13,0,0,1,.71-.53,1.1,1.1,0,0,1,.88.13l7.93,4.72a.56.56,0,0,1,.27.35.59.59,0,0,1-.07.43l-1,1.74a.56.56,0,0,1-.35.27.51.51,0,0,1-.43-.07l-6.09-3.62-2.36,4,4.54,2.7a.51.51,0,0,1,.26.35.55.55,0,0,1-.06.43l-1,1.65a.52.52,0,0,1-.34.26.57.57,0,0,1-.44-.06l-4.53-2.7-2.74,4.6,6.09,3.63a.56.56,0,0,1,.27.35.6.6,0,0,1-.07.43l-1,1.74a.56.56,0,0,1-.35.27.59.59,0,0,1-.43-.07l-7.93-4.72A1.15,1.15,0,0,1,113.72,91.7Z"/><path class="cls-8" d="M129.74,101.44a.52.52,0,0,1,.07-.43l8-13.42-3.91-2.32a.58.58,0,0,1-.27-.35.55.55,0,0,1,.07-.43l1-1.75a.58.58,0,0,1,.35-.26.51.51,0,0,1,.43.07l10.65,6.34a.56.56,0,0,1,.27.35.6.6,0,0,1-.07.43l-1,1.74a.56.56,0,0,1-.35.27.59.59,0,0,1-.43-.07l-3.91-2.33-8,13.42a.56.56,0,0,1-.34.27.62.62,0,0,1-.44-.07L130,101.79A.54.54,0,0,1,129.74,101.44Z"/><path class="cls-8" d="M139.74,107.4a.51.51,0,0,1,.07-.43l9.31-15.65a.58.58,0,0,1,.35-.27.51.51,0,0,1,.43.07l1.86,1.11a.54.54,0,0,1,.27.34A.55.55,0,0,1,152,93l-3.74,6.28,6.89,4.1,3.73-6.28a.53.53,0,0,1,.35-.26.51.51,0,0,1,.43.07l1.86,1.1a.58.58,0,0,1,.27.35.55.55,0,0,1-.07.43l-9.32,15.65a.56.56,0,0,1-.34.27.57.57,0,0,1-.44-.07l-1.86-1.11a.55.55,0,0,1-.26-.34.53.53,0,0,1,.07-.44l4-6.69-6.88-4.1-4,6.69a.56.56,0,0,1-.34.27.53.53,0,0,1-.44-.07L140,107.74A.49.49,0,0,1,139.74,107.4Z"/><path class="cls-8" d="M156.23,117a1.16,1.16,0,0,1,.14-.89l8.71-14.62a1.11,1.11,0,0,1,.71-.54,1.14,1.14,0,0,1,.88.13l7.93,4.72a.56.56,0,0,1,.27.35.59.59,0,0,1-.07.43l-1,1.75a.54.54,0,0,1-.35.26.51.51,0,0,1-.43-.07l-6.09-3.62-2.36,4,4.54,2.7a.51.51,0,0,1,.26.35.55.55,0,0,1-.06.43l-1,1.65a.56.56,0,0,1-.34.27.62.62,0,0,1-.44-.07L163,111.5l-2.74,4.6,6.09,3.63a.56.56,0,0,1,.27.35.6.6,0,0,1-.07.43l-1,1.74a.56.56,0,0,1-.35.27.55.55,0,0,1-.43-.07l-7.93-4.72A1.16,1.16,0,0,1,156.23,117Z"/><path class="cls-8" d="M102.24,110.76a.58.58,0,0,1,.07-.44l9-15.13a1.16,1.16,0,0,1,1.6-.41l4.35,2.59a6,6,0,0,1,3,5.18,5.67,5.67,0,0,1-.81,3,5.61,5.61,0,0,1-2.78,2.4,5.87,5.87,0,0,1-3.68.25l.3,8.27a.71.71,0,0,1-.1.39.53.53,0,0,1-.36.25.59.59,0,0,1-.46-.08l-1.91-1.14a.78.78,0,0,1-.41-.69l-.17-8.5-1.14-.68-3.59,6a.58.58,0,0,1-.35.27.55.55,0,0,1-.43-.07l-1.86-1.11A.56.56,0,0,1,102.24,110.76Zm10.47-6.05a2.83,2.83,0,0,0,2.15.38,2.63,2.63,0,0,0,1.69-1.28,2.67,2.67,0,0,0,.34-2.13,2.8,2.8,0,0,0-1.36-1.72l-2.37-1.41-2.82,4.74Z"/><path class="cls-8" d="M116.27,118.91a1.16,1.16,0,0,1,.13-.89l8.71-14.62a1.16,1.16,0,0,1,.71-.54,1.12,1.12,0,0,1,.89.13l7.93,4.72a.53.53,0,0,1,.26.35.51.51,0,0,1-.07.43l-1,1.75a.57.57,0,0,1-.35.26.51.51,0,0,1-.43-.07l-6.1-3.62-2.35,4,4.53,2.7a.53.53,0,0,1,.27.35.52.52,0,0,1-.07.43l-1,1.65a.51.51,0,0,1-.35.26.55.55,0,0,1-.43-.06l-4.53-2.7-2.75,4.6,6.1,3.63a.54.54,0,0,1,.26.35.51.51,0,0,1-.07.43l-1,1.74a.58.58,0,0,1-.35.27.55.55,0,0,1-.43-.07l-7.93-4.72A1.13,1.13,0,0,1,116.27,118.91Z"/><path class="cls-8" d="M131.78,127.78a6.93,6.93,0,0,1-.8-3.68,8.19,8.19,0,0,1,1.21-3.86L138,110.4a.57.57,0,0,1,.35-.26.51.51,0,0,1,.43.07l1.86,1.1a.58.58,0,0,1,.27.35.55.55,0,0,1-.07.43l-5.92,10a4.46,4.46,0,0,0-.69,3.24,3.92,3.92,0,0,0,4.83,2.88,4.51,4.51,0,0,0,2.53-2.15l5.93-10a.56.56,0,0,1,.34-.27.57.57,0,0,1,.44.07L150.2,117a.55.55,0,0,1,.26.34.53.53,0,0,1-.07.44l-5.85,9.83a8.27,8.27,0,0,1-2.83,2.92,6.94,6.94,0,0,1-3.61,1.05,7,7,0,0,1-3.66-1A7,7,0,0,1,131.78,127.78Z"/><path class="cls-8" d="M151.77,140.44a.8.8,0,0,1,0-.53l2.52-11.23.66-2.44-1.52,2L147,136.79a.9.9,0,0,1-.49.28A.75.75,0,0,1,146,137l-1.74-1a.52.52,0,0,1-.3-.39.61.61,0,0,1,.13-.49l11.11-14.27a.9.9,0,0,1,.54-.36,1,1,0,0,1,.67.13l2.11,1.26a.89.89,0,0,1,.37.42.94.94,0,0,1,0,.55L156,135.58l-.49,1.89,1.41-1.31,9.92-8.68a.87.87,0,0,1,.49-.21.91.91,0,0,1,.53.13l1.93,1.15a.91.91,0,0,1,.43.52.86.86,0,0,1-.05.65l-7.25,16.57a.66.66,0,0,1-.37.35.56.56,0,0,1-.49-.08l-1.81-1.08a.76.76,0,0,1-.35-.42.67.67,0,0,1,0-.52l4.49-9.93,1-2.13-1.91,1.82L155,141.79a.89.89,0,0,1-.5.23.86.86,0,0,1-.54-.12l-1.77-1.05A1,1,0,0,1,151.77,140.44Z"/><path d="M166.45,149.12a.31.31,0,0,1,0-.26l.58-1a.3.3,0,0,1,.2-.15.35.35,0,0,1,.26,0l2.08,1.24,6.7-11.25-2.09-1.24a.32.32,0,0,1-.15-.21.28.28,0,0,1,0-.25l.57-1a.34.34,0,0,1,.21-.16.32.32,0,0,1,.25,0l5.87,3.49a.32.32,0,0,1,.15.21.32.32,0,0,1,0,.25l-.57,1a.31.31,0,0,1-.21.16.35.35,0,0,1-.26,0L178,138.78,171.3,150l2.09,1.24a.33.33,0,0,1,.15.2.3.3,0,0,1,0,.26l-.57,1a.37.37,0,0,1-.21.16.36.36,0,0,1-.25,0l-5.87-3.5A.28.28,0,0,1,166.45,149.12Z"/><path d="M176.93,155.44a6.75,6.75,0,0,1-1.29-1.85.27.27,0,0,1,0-.22.39.39,0,0,1,.14-.2l1-.64a.39.39,0,0,1,.4,0,.37.37,0,0,1,.14.14,6.94,6.94,0,0,0,2.45,2.75,4,4,0,0,0,2.57.62,2.55,2.55,0,0,0,1.92-1.3,2.27,2.27,0,0,0,.35-1.44,3.32,3.32,0,0,0-.47-1.32c-.26-.41-.64-1-1.14-1.6a21.15,21.15,0,0,1-1.54-2.16,4.57,4.57,0,0,1-.63-2,4,4,0,0,1,.66-2.43,4.35,4.35,0,0,1,1.91-1.81,4.23,4.23,0,0,1,2.41-.37,6.62,6.62,0,0,1,2.49.89,8.11,8.11,0,0,1,1.76,1.43,7.39,7.39,0,0,1,1.21,1.74.26.26,0,0,1,0,.23.27.27,0,0,1-.16.19l-1,.58a.34.34,0,0,1-.29,0,.31.31,0,0,1-.22-.18,6.26,6.26,0,0,0-2.28-2.48,3.59,3.59,0,0,0-2.38-.58,2.45,2.45,0,0,0-1.76,1.25,2.34,2.34,0,0,0-.36,1.45,3.31,3.31,0,0,0,.46,1.32,18.67,18.67,0,0,0,1.15,1.61c.09.13.45.58,1.08,1.36a4.91,4.91,0,0,1,1.09,2.53,4.15,4.15,0,0,1-.61,2.65,4.76,4.76,0,0,1-1.94,1.87,4.59,4.59,0,0,1-2.55.45,6.63,6.63,0,0,1-2.75-1A8.49,8.49,0,0,1,176.93,155.44Z"/><path d="M93.45,129.09A9.36,9.36,0,0,1,92,126.88a.38.38,0,0,1,0-.3.39.39,0,0,1,.18-.26l1.5-.88a.48.48,0,0,1,.54,0,.62.62,0,0,1,.26.27,6.4,6.4,0,0,0,2.32,2.69,3,3,0,0,0,2,.5,2,2,0,0,0,1.45-1,1.7,1.7,0,0,0,.25-1.12,3.1,3.1,0,0,0-.44-1.15c-.24-.38-.61-.9-1.12-1.56l-.45-.6a9,9,0,0,1-1.45-2.94,4.24,4.24,0,0,1,.66-3.3,5,5,0,0,1,1.9-1.89,4.52,4.52,0,0,1,2.48-.57,5.73,5.73,0,0,1,2.65.85,8.17,8.17,0,0,1,2,1.66,7.86,7.86,0,0,1,1.35,2.17.38.38,0,0,1,0,.3.45.45,0,0,1-.19.27l-1.45.89a.5.5,0,0,1-.55,0,.84.84,0,0,1-.26-.27,7.34,7.34,0,0,0-1.09-1.66,5.26,5.26,0,0,0-1.18-1,2.41,2.41,0,0,0-1.77-.37,2.1,2.1,0,0,0-1.51,2.66,7.86,7.86,0,0,0,1.26,2.19c.1.11.46.59,1.07,1.41a5.32,5.32,0,0,1,1.08,2.64,4.43,4.43,0,0,1-.64,2.73,5.1,5.1,0,0,1-2,1.92,4.86,4.86,0,0,1-2.64.54,6.28,6.28,0,0,1-2.85-.94A7.93,7.93,0,0,1,93.45,129.09Z"/><path d="M105.87,136a6.3,6.3,0,0,1-.82-3.17,6.21,6.21,0,0,1,.9-3.17l2.62-4.41a6.16,6.16,0,0,1,2.37-2.3,6.34,6.34,0,0,1,6.36.11,6.37,6.37,0,0,1,3.12,5.54,6.14,6.14,0,0,1-.89,3.18l-2.63,4.4a6.13,6.13,0,0,1-2.36,2.3,6.4,6.4,0,0,1-3.18.8,6.44,6.44,0,0,1-5.49-3.28Zm5.46.42a3.73,3.73,0,0,0,1.75-.47,3.52,3.52,0,0,0,1.3-1.27l2.62-4.41a3.45,3.45,0,0,0,.5-1.74,3.61,3.61,0,0,0-.42-1.77,3.27,3.27,0,0,0-1.22-1.28,3.15,3.15,0,0,0-1.72-.46,3.53,3.53,0,0,0-1.75.47,3.49,3.49,0,0,0-1.3,1.26l-2.62,4.41a3.43,3.43,0,0,0-.49,1.74,3.61,3.61,0,0,0,.42,1.77,3.26,3.26,0,0,0,2.93,1.75Z"/><path d="M117.14,143a1,1,0,0,1,.12-.79l8-13.45a.46.46,0,0,1,.31-.24.51.51,0,0,1,.38.06l1.66,1a.46.46,0,0,1,.23.3.45.45,0,0,1-.06.39l-7.1,11.92,4.8,2.86a.48.48,0,0,1,.23.31.43.43,0,0,1-.06.38l-.92,1.55a.46.46,0,0,1-.31.24.51.51,0,0,1-.38-.06l-6.43-3.83A1,1,0,0,1,117.14,143Z"/><path d="M126.61,148.8a.47.47,0,0,1,.06-.43.49.49,0,0,1,.12-.15l12.69-11.12a.77.77,0,0,1,.43-.19.82.82,0,0,1,.48.12l1.61,1a.79.79,0,0,1,.33.37.69.69,0,0,1,0,.47l-3.72,16.45a.67.67,0,0,1-.08.18.54.54,0,0,1-.35.26.6.6,0,0,1-.43-.08l-1.49-.88a.74.74,0,0,1-.32-.38.79.79,0,0,1,0-.48l.84-3.53L132,147.49l-2.7,2.42a.72.72,0,0,1-.44.2.74.74,0,0,1-.48-.1l-1.45-.87A.54.54,0,0,1,126.61,148.8Zm10.85-1.2,1.59-6.53-5,4.51Z"/><path d="M140.84,157.29a.54.54,0,0,1,.06-.39l8-13.45a1,1,0,0,1,.64-.48,1,1,0,0,1,.78.12l3.87,2.3a5.35,5.35,0,0,1,2.66,4.61,5.13,5.13,0,0,1-3.19,4.75,5.23,5.23,0,0,1-3.27.22l.27,7.36a.8.8,0,0,1-.09.33.48.48,0,0,1-.32.24.64.64,0,0,1-.42-.08l-1.69-1a.69.69,0,0,1-.37-.61l-.14-7.56-1-.61-3.2,5.38a.46.46,0,0,1-.3.23.45.45,0,0,1-.39-.06l-1.65-1A.52.52,0,0,1,140.84,157.29Zm9.31-5.38a2.49,2.49,0,0,0,1.91.34,2.33,2.33,0,0,0,1.5-1.13,2.4,2.4,0,0,0,.3-1.9,2.51,2.51,0,0,0-1.2-1.53l-2.11-1.25L148,150.66Z"/><path d="M81.23,146.19a.43.43,0,0,1,.06-.38l8-13.46a1,1,0,0,1,.63-.47,1,1,0,0,1,.79.11l3.68,2.19a5.45,5.45,0,0,1,2,2.08,5.53,5.53,0,0,1,.73,2.78,5.27,5.27,0,0,1-.77,2.76,5.38,5.38,0,0,1-2.08,2,5.63,5.63,0,0,1-2.79.69,5.56,5.56,0,0,1-2.79-.8l-2-1.22-2.87,4.82a.53.53,0,0,1-.31.24.51.51,0,0,1-.38-.06l-1.66-1A.48.48,0,0,1,81.23,146.19ZM90,141.27a2.65,2.65,0,0,0,2.11.31,2.68,2.68,0,0,0,1.71-1.28,2.8,2.8,0,0,0-1-3.8l-1.94-1.16-2.85,4.78Z"/><path d="M96,154.45a6.27,6.27,0,0,1-.72-3.26,7.45,7.45,0,0,1,1.08-3.44l5.21-8.74a.46.46,0,0,1,.31-.23.43.43,0,0,1,.38.06l1.65,1a.46.46,0,0,1,.24.31.51.51,0,0,1-.06.38l-5.27,8.85a4,4,0,0,0-.61,2.88,3.48,3.48,0,0,0,4.3,2.56,4,4,0,0,0,2.24-1.91L110,144a.5.5,0,0,1,.69-.17l1.66,1a.51.51,0,0,1,.23.31.46.46,0,0,1-.06.39l-5.2,8.74a7.35,7.35,0,0,1-2.51,2.59A6.35,6.35,0,0,1,96,154.45Z"/><path d="M107.44,161.8a.46.46,0,0,1,.06-.39l8.18-13.74a.7.7,0,0,1,1-.24l1.69,1a.73.73,0,0,1,.38.64l0,11.34,0,2.33,6-10a.49.49,0,0,1,.31-.24.54.54,0,0,1,.39.06l1.49.89a.46.46,0,0,1,.23.31.43.43,0,0,1-.06.38l-8.18,13.74a.64.64,0,0,1-.43.32.66.66,0,0,1-.53-.07l-1.71-1a.73.73,0,0,1-.38-.64l0-11.73,0-1.89-5.94,10a.46.46,0,0,1-.31.24.47.47,0,0,1-.38-.07l-1.49-.88A.51.51,0,0,1,107.44,161.8Z"/><path d="M130.24,175.54a.82.82,0,0,1-.42-.64l-1.15-8.66-.78-.47-3.42,5.75a.51.51,0,0,1-.31.23.46.46,0,0,1-.39-.06l-1.65-1a.56.56,0,0,1-.24-.31.51.51,0,0,1,.06-.38l8.29-13.91a.44.44,0,0,1,.31-.24.51.51,0,0,1,.38.06l1.65,1a.49.49,0,0,1,.24.31.54.54,0,0,1-.06.39l-3.47,5.83.68.4,8.31-3.14a.86.86,0,0,1,.79.08l1.88,1.12a.45.45,0,0,1,.24.29.47.47,0,0,1,0,.33.53.53,0,0,1-.27.2l-9.33,3.46,1.31,10.07a.54.54,0,0,1-.06.33.46.46,0,0,1-.27.2.51.51,0,0,1-.37-.07Z"/></g></g></svg>