<svg xmlns="http://www.w3.org/2000/svg" xmlns:xlink="http://www.w3.org/1999/xlink" viewBox="0 0 283.46 283.46"><defs><style>.cls-1{fill:none;}.cls-2{fill:#fff;}.cls-3{fill:#6f3ff4;}.cls-4{fill:#02e1ab;}.cls-5{clip-path:url(#clip-path);}.cls-6{fill:#b2ffec;}.cls-7{stroke:#000;stroke-miterlimit:10;stroke-width:2px;}</style><clipPath id="clip-path"><rect class="cls-1" x="35.43" y="111.3" width="224.61" height="76.64" rx="38.32" transform="translate(149.07 -60.65) rotate(45)"/></clipPath></defs><g id="profile"><path class="cls-2" d="M167.49,250.5a9.62,9.62,0,0,1-6.86-2.83L93,180.06a9.74,9.74,0,0,1,0-13.71,4.19,4.19,0,0,0,1.29-3,4,4,0,0,0-1.16-2.81L62.67,130.06A46.12,46.12,0,0,1,95.14,51.18,47.19,47.19,0,0,1,128.73,65.1L232.25,168.62c18.05,18,18.57,47.42,1.15,65.47a45.89,45.89,0,0,1-33.32,14.14h0a46.89,46.89,0,0,1-19.12-4.1,4,4,0,0,0-5.11,1.59,9.47,9.47,0,0,1-1.5,1.95A9.6,9.6,0,0,1,167.49,250.5Z"/><path d="M95.14,51.68a46.7,46.7,0,0,1,33.24,13.78L231.9,169c17.86,17.85,18.37,46.91,1.14,64.76a45.41,45.41,0,0,1-33,14,46.37,46.37,0,0,1-18.91-4.06,4.59,4.59,0,0,0-1.89-.41,4.43,4.43,0,0,0-3.86,2.21A9.21,9.21,0,0,1,161,247.32L93.38,179.71a9.21,9.21,0,0,1,0-13,4.67,4.67,0,0,0,1.41-3.33,4.44,4.44,0,0,0-1.31-3.17L63,129.7a45.62,45.62,0,0,1,32.12-78m0-1A46.15,46.15,0,0,0,63,63.56a46.87,46.87,0,0,0-.64,66.85L92.8,160.89a3.57,3.57,0,0,1-.1,5.08l0,0h0a10.23,10.23,0,0,0,0,14.43L160.28,248a10.24,10.24,0,0,0,14.42,0,10,10,0,0,0,1.59-2.06,3.44,3.44,0,0,1,3-1.71,3.72,3.72,0,0,1,1.48.32,46.91,46.91,0,0,0,53-10.14c17.82-18.47,17-48-1.15-66.17L129.09,64.75A48,48,0,0,0,95.14,50.68Z"/><path class="cls-3" d="M106,183.53a3.14,3.14,0,0,1-.28-.85.13.13,0,0,1,0-.1.13.13,0,0,1,.08-.07l.57-.17a.16.16,0,0,1,.18,0,.16.16,0,0,1,.07.11,2.28,2.28,0,0,0,.54,1.09,1,1,0,0,0,.64.33.67.67,0,0,0,.56-.2.57.57,0,0,0,.18-.36,1,1,0,0,0-.05-.41c0-.15-.13-.36-.24-.62l-.1-.24a2.92,2.92,0,0,1-.23-1.09,1.46,1.46,0,0,1,.49-1.05,1.73,1.73,0,0,1,.79-.46,1.55,1.55,0,0,1,.88,0,1.85,1.85,0,0,1,.81.5,3.12,3.12,0,0,1,.51.72,2.88,2.88,0,0,1,.27.83.15.15,0,0,1,0,.11.16.16,0,0,1-.09.07l-.56.17a.15.15,0,0,1-.18,0,.2.2,0,0,1-.06-.11,2.52,2.52,0,0,0-.23-.64,1.69,1.69,0,0,0-.3-.44.87.87,0,0,0-.56-.27.73.73,0,0,0-.52.21.72.72,0,0,0-.21.55,2.77,2.77,0,0,0,.24.83l.24.56a1.84,1.84,0,0,1,.13,1,1.49,1.49,0,0,1-.44.85,1.71,1.71,0,0,1-.82.47,1.61,1.61,0,0,1-.92,0,2.17,2.17,0,0,1-.87-.55A2.76,2.76,0,0,1,106,183.53Z"/><path class="cls-3" d="M109.48,186.86a2.2,2.2,0,0,1,0-1.11,2.14,2.14,0,0,1,.57-1l1.24-1.25a2.22,2.22,0,0,1,2.09-.57,2,2,0,0,1,1,.54,2.43,2.43,0,0,1,.53.8,2,2,0,0,1,.15.91.24.24,0,0,1-.07.13.26.26,0,0,1-.16.07h-.53a.2.2,0,0,1-.14,0,.21.21,0,0,1,0-.16,1.33,1.33,0,0,0-.41-1,1.07,1.07,0,0,0-.51-.28,1.26,1.26,0,0,0-.61,0,1.15,1.15,0,0,0-.54.32l-1.24,1.24a1.26,1.26,0,0,0-.32.53,1.4,1.4,0,0,0,0,.61,1,1,0,0,0,.29.52,1.3,1.3,0,0,0,1,.41.17.17,0,0,1,.15,0,.2.2,0,0,1,.06.15v.52a.29.29,0,0,1-.07.17.23.23,0,0,1-.13.06,2.17,2.17,0,0,1-.91-.14,2.48,2.48,0,0,1-.8-.53A2.1,2.1,0,0,1,109.48,186.86Z"/><path class="cls-3" d="M112.15,189.73a.21.21,0,0,1,0-.13l3.93-3.92a.17.17,0,0,1,.24,0l.47.47a.17.17,0,0,1,0,.24L115.26,188l1.73,1.72,1.57-1.57a.17.17,0,0,1,.13-.05.16.16,0,0,1,.12.05l.47.46a.21.21,0,0,1,0,.13.21.21,0,0,1,0,.12l-3.93,3.92a.14.14,0,0,1-.12.06.17.17,0,0,1-.12-.06l-.47-.46a.21.21,0,0,1,0-.13.21.21,0,0,1,0-.12l1.68-1.68-1.73-1.72-1.68,1.68a.17.17,0,0,1-.12.05.21.21,0,0,1-.12-.05l-.47-.47A.21.21,0,0,1,112.15,189.73Z"/><path class="cls-3" d="M116.3,193.8a.34.34,0,0,1,.11-.25l3.66-3.67a.35.35,0,0,1,.26-.1.35.35,0,0,1,.25.1l2,2a.18.18,0,0,1,.06.13.17.17,0,0,1-.06.12l-.43.43a.18.18,0,0,1-.13.06.17.17,0,0,1-.12-.06L120.35,191l-1,1,1.14,1.14a.17.17,0,0,1,0,.12.21.21,0,0,1,0,.12l-.41.41a.18.18,0,0,1-.13.06.17.17,0,0,1-.12-.06l-1.14-1.13-1.15,1.15,1.53,1.53a.17.17,0,0,1,0,.24l-.44.44a.16.16,0,0,1-.12.05.13.13,0,0,1-.12-.05l-2-2A.34.34,0,0,1,116.3,193.8Z"/><path class="cls-3" d="M119.47,197a.33.33,0,0,1,.1-.25l3.8-3.8a.17.17,0,0,1,.24,0l.47.47a.17.17,0,0,1,0,.24L120.72,197l1.35,1.35a.18.18,0,0,1,.05.12.17.17,0,0,1-.05.12l-.44.44a.15.15,0,0,1-.12.05.13.13,0,0,1-.12-.05l-1.82-1.81A.33.33,0,0,1,119.47,197Z"/><path class="cls-3" d="M122.3,199.8a.35.35,0,0,1,.1-.26l3.8-3.79a.17.17,0,0,1,.24,0l.47.47a.17.17,0,0,1,0,.24l-3.37,3.37,1.36,1.35a.17.17,0,0,1,0,.24l-.44.44a.21.21,0,0,1-.12,0,.21.21,0,0,1-.13,0l-1.81-1.81A.35.35,0,0,1,122.3,199.8Z"/><path class="cls-3" d="M124.93,202.5a.11.11,0,0,1,0-.12l.4-.4a.17.17,0,0,1,.12-.06.14.14,0,0,1,.12.06l.5.49L129,199.6l-.5-.5a.17.17,0,0,1,0-.24l.4-.41a.21.21,0,0,1,.12,0,.21.21,0,0,1,.13,0l1.7,1.71a.17.17,0,0,1,0,.24l-.4.4a.18.18,0,0,1-.13.06.17.17,0,0,1-.12-.06l-.49-.49-2.88,2.87.5.5a.17.17,0,0,1,0,.24l-.41.41a.17.17,0,0,1-.12,0,.21.21,0,0,1-.12,0l-1.7-1.71A.13.13,0,0,1,124.93,202.5Z"/><path class="cls-3" d="M127.67,205.25a.21.21,0,0,1,0-.13l3.88-3.87a.24.24,0,0,1,.34,0l.48.48a.25.25,0,0,1,.07.24l-1,3.77-.21.77,2.82-2.83a.21.21,0,0,1,.12-.05.21.21,0,0,1,.13.05l.42.42a.21.21,0,0,1,0,.13.21.21,0,0,1,0,.12l-3.88,3.88a.24.24,0,0,1-.34,0l-.48-.49a.24.24,0,0,1-.07-.24l1-3.9.17-.62-2.81,2.81a.14.14,0,0,1-.13.05.21.21,0,0,1-.12-.05l-.42-.42A.21.21,0,0,1,127.67,205.25Z"/><path class="cls-3" d="M132.5,209.89a2.36,2.36,0,0,1,0-1.12,2.17,2.17,0,0,1,.57-1l1.24-1.24a2.17,2.17,0,0,1,1-.57,2.13,2.13,0,0,1,1.12,0,2.17,2.17,0,0,1,1,.57,2.29,2.29,0,0,1,.55.81,2.08,2.08,0,0,1,.16.92.21.21,0,0,1-.07.13.22.22,0,0,1-.16.07l-.53,0a.2.2,0,0,1-.14-.05.21.21,0,0,1,0-.16,1.36,1.36,0,0,0-.44-1,1,1,0,0,0-.53-.3,1.19,1.19,0,0,0-.62,0,1.13,1.13,0,0,0-.54.31l-1.24,1.24a1.22,1.22,0,0,0-.31.54,1.19,1.19,0,0,0,0,.62,1.08,1.08,0,0,0,.3.53,1.1,1.1,0,0,0,.52.3,1.06,1.06,0,0,0,.61,0,1.07,1.07,0,0,0,.53-.31l.29-.28-.79-.78a.21.21,0,0,1,0-.12.21.21,0,0,1,0-.13l.42-.42a.21.21,0,0,1,.13,0,.21.21,0,0,1,.12,0l1.23,1.23a.35.35,0,0,1,.1.25.35.35,0,0,1-.1.26l-.68.67a2.12,2.12,0,0,1-1,.57,2.36,2.36,0,0,1-1.12,0,2.21,2.21,0,0,1-1-.56A2.17,2.17,0,0,1,132.5,209.89Z"/><path class="cls-3" d="M137,214.55a.15.15,0,0,1,.05-.12l3.79-3.8a.35.35,0,0,1,.26-.1.35.35,0,0,1,.25.1l1,1a1.88,1.88,0,0,1,.5.86,2,2,0,0,1,0,1,1.87,1.87,0,0,1-.49.85,1.73,1.73,0,0,1-.86.49,1.81,1.81,0,0,1-1,0,1.92,1.92,0,0,1-.86-.5l-.58-.58-1.36,1.36a.15.15,0,0,1-.12.05.13.13,0,0,1-.12-.05l-.47-.47A.13.13,0,0,1,137,214.55Zm3.34-.89a.89.89,0,0,0,.67.28.94.94,0,0,0,.95-.95.93.93,0,0,0-.28-.68l-.54-.54-1.35,1.34Z"/><path class="cls-3" d="M141.13,218.51a2.13,2.13,0,0,1,0-1.12,2.06,2.06,0,0,1,.56-1l1.25-1.24a2.07,2.07,0,0,1,1-.57,2.24,2.24,0,0,1,1.12,0,2.17,2.17,0,0,1,1,.57,2.16,2.16,0,0,1,.57,2.1,2.17,2.17,0,0,1-.57,1l-1.24,1.24a2.12,2.12,0,0,1-1,.57,2.24,2.24,0,0,1-1.12,0,2.21,2.21,0,0,1-1.55-1.56Zm1.78.6a1.18,1.18,0,0,0,.62,0,1.13,1.13,0,0,0,.54-.31l1.24-1.24a1.15,1.15,0,0,0,.32-.54,1.19,1.19,0,0,0,0-.62,1.15,1.15,0,0,0-.29-.53,1.13,1.13,0,0,0-.53-.3,1.18,1.18,0,0,0-.62,0,1.22,1.22,0,0,0-.54.31l-1.25,1.24a1.27,1.27,0,0,0-.31.54,1.3,1.3,0,0,0,0,.62,1,1,0,0,0,.3.53A1.13,1.13,0,0,0,142.91,219.11Z"/><path class="cls-3" d="M143.94,221.52a.14.14,0,0,1,.06-.12l.4-.4a.15.15,0,0,1,.24,0l.5.49,2.87-2.87-.49-.5a.16.16,0,0,1-.05-.12.13.13,0,0,1,.05-.12l.4-.41a.21.21,0,0,1,.12-.05.21.21,0,0,1,.13.05l1.7,1.71a.17.17,0,0,1,0,.12.18.18,0,0,1,0,.12l-.41.4a.14.14,0,0,1-.12.06.17.17,0,0,1-.12-.06l-.49-.49-2.88,2.87.5.5a.17.17,0,0,1,0,.24l-.41.4a.15.15,0,0,1-.24,0l-1.7-1.7A.14.14,0,0,1,143.94,221.52Z"/><path class="cls-3" d="M146.69,224.27a.21.21,0,0,1,.05-.13l3.88-3.87a.22.22,0,0,1,.17-.07.23.23,0,0,1,.17.07l.48.48a.25.25,0,0,1,.07.24l-1,3.76-.21.78,2.82-2.83a.21.21,0,0,1,.12,0,.21.21,0,0,1,.13,0l.41.42a.18.18,0,0,1,.06.13.17.17,0,0,1-.06.12l-3.87,3.88a.28.28,0,0,1-.17.07.26.26,0,0,1-.17-.07l-.48-.49a.24.24,0,0,1-.07-.24l1-3.9.17-.62-2.81,2.81a.14.14,0,0,1-.13.05.21.21,0,0,1-.12-.05l-.42-.42A.21.21,0,0,1,146.69,224.27Z"/><path class="cls-3" d="M151.65,229.22a.15.15,0,0,1,0-.12l3.36-3.36-1-1a.21.21,0,0,1-.05-.13.21.21,0,0,1,.05-.12l.44-.44a.21.21,0,0,1,.12,0,.21.21,0,0,1,.13,0l2.67,2.67a.21.21,0,0,1,.05.13.21.21,0,0,1-.05.12l-.44.44a.21.21,0,0,1-.12,0,.21.21,0,0,1-.13,0l-1-1-3.36,3.36a.21.21,0,0,1-.12.05.13.13,0,0,1-.12-.05l-.47-.47A.13.13,0,0,1,151.65,229.22Z"/><path class="cls-3" d="M155.51,233a.31.31,0,0,1,.1-.24l.47-.47a2.36,2.36,0,0,1,.84-.6,1.68,1.68,0,0,1,.84-.08c.3,0,.77.15,1.41.31a1.32,1.32,0,0,0,.58,0,1,1,0,0,0,.43-.23.74.74,0,0,0,.23-.56.91.91,0,0,0-.3-.59,2.16,2.16,0,0,0-1-.51l-.1-.05a.18.18,0,0,1,0-.17l.16-.54a.15.15,0,0,1,0-.08.17.17,0,0,1,.15-.05,2.59,2.59,0,0,1,.77.29,2.69,2.69,0,0,1,.69.51,1.8,1.8,0,0,1,.6,1.23,1.61,1.61,0,0,1-.53,1.19,1.58,1.58,0,0,1-.88.48,3.35,3.35,0,0,1-1.22-.08l-.37-.1c-.27-.06-.48-.11-.64-.13a1.25,1.25,0,0,0-.47,0,.9.9,0,0,0-.42.24l-.17.17,1.52,1.52a.21.21,0,0,1,.05.12.17.17,0,0,1-.05.12l-.44.44a.17.17,0,0,1-.12.05.18.18,0,0,1-.12-.05l-1.95-2A.34.34,0,0,1,155.51,233Z"/><path class="cls-3" d="M159.3,236a4.16,4.16,0,0,1,1.24-2,4.11,4.11,0,0,1,2-1.23,1.8,1.8,0,0,1,1.65.55,1.75,1.75,0,0,1,.54,1.65,4.06,4.06,0,0,1-1.23,2,4.19,4.19,0,0,1-2,1.25,2,2,0,0,1-2.2-2.21Zm1.8,1.27a1.28,1.28,0,0,0,.72-.24,5.68,5.68,0,0,0,.94-.79,5.15,5.15,0,0,0,.79-1,1.23,1.23,0,0,0,.24-.71.9.9,0,0,0-.29-.58.82.82,0,0,0-.58-.28,1.28,1.28,0,0,0-.72.24,6.28,6.28,0,0,0-1,.8,3.78,3.78,0,0,0-1,1.31.83.83,0,0,0,.23.92A.86.86,0,0,0,161.1,237.27Z"/><path class="cls-3" d="M162.17,239.67a.33.33,0,0,1,.1-.25l.47-.46a2.36,2.36,0,0,1,.84-.6,1.58,1.58,0,0,1,.84-.08,12.44,12.44,0,0,1,1.41.31,1.32,1.32,0,0,0,.58,0,.89.89,0,0,0,.42-.24.67.67,0,0,0,.23-.55.87.87,0,0,0-.3-.59,2.11,2.11,0,0,0-.95-.51l-.09-.05a.16.16,0,0,1,0-.17l.16-.55a.16.16,0,0,1,0-.07.17.17,0,0,1,.15-.05,2.86,2.86,0,0,1,.77.28,2.72,2.72,0,0,1,.69.52,1.8,1.8,0,0,1,.6,1.23,1.62,1.62,0,0,1-.53,1.19,1.58,1.58,0,0,1-.88.48,3.35,3.35,0,0,1-1.22-.08l-.37-.1c-.27-.06-.49-.11-.64-.13a1.47,1.47,0,0,0-.47,0,.92.92,0,0,0-.42.25l-.17.17,1.51,1.52a.15.15,0,0,1,0,.24l-.43.43a.15.15,0,0,1-.24,0l-1.95-2A.34.34,0,0,1,162.17,239.67Z"/><path class="cls-3" d="M165.11,242.68a.21.21,0,0,1,0-.12l.41-.41a.14.14,0,0,1,.13-.05.16.16,0,0,1,.12.05l.66.66,2.59-2.6-.49-.49a.24.24,0,0,1-.07-.17.28.28,0,0,1,.07-.17l.28-.28,1.44.46.22.23a.21.21,0,0,1,.07.17.23.23,0,0,1-.06.16l-3.37,3.37.66.66a.17.17,0,0,1,0,.24l-.41.42a.21.21,0,0,1-.13.05.21.21,0,0,1-.12-.05l-2-2A.21.21,0,0,1,165.11,242.68Z"/><path class="cls-3" d="M102.65,167.37l.66.5-.22.29-.56.73-.56.73a.31.31,0,0,0-.08.31c0,.23.06.47.09.7a.8.8,0,0,0,0,.15,11.4,11.4,0,0,0,1-1.2c.3-.42.63-.82,1-1.24l.65.5L102.16,172l.14,1h0l.17-.21.16-.17.06-.06a8,8,0,0,1,.64-.89c.23-.29.45-.59.67-.88s.31-.38.46-.58l.35-.47.3-.4.07-.06.63.48-.94,1.24c.52-.05,1-.14,1.54-.2l.1.77s-.06,0-.1,0l-1.75.23-.38.06a.25.25,0,0,0-.19.11c-.16.23-.34.44-.51.67l-.07.12,3.11-.42.11.8-.28.05-1.25.16-1.18.16-1.16.16a.15.15,0,0,0-.11.06l-.6.79a.65.65,0,0,0,.34,0l.57-.09.74-.09,1.22-.17,1.24-.17.5-.06h.08l.1.78c-.5.09-1,.13-1.51.22a5.17,5.17,0,0,0,.59.48l.61.46c-.16.22-.31.43-.49.64l-.33-.24-.73-.55-.73-.57a.21.21,0,0,0-.17-.06l-.95.13-.05,0c.41.34.83.64,1.24,1s.82.62,1.24.94l-.5.64-.49-.36-.56-.44-.6-.46-.69-.52-.71-.55a.22.22,0,0,0-.2-.06l-.88.12-.1,0,3.75,2.87-.27.37-.22.27c-.42-.29-.8-.63-1.21-.91l0,0,.2,1.5-.79.11c0-.1,0-.18,0-.26l-.12-.94-.12-1a.36.36,0,0,0-.16-.28l-.68-.53-.07,0c0,.54.13,1,.2,1.56s.14,1,.21,1.56l-.8.11c0-.17,0-.32-.07-.48,0-.34-.09-.69-.14-1l-.18-1.41c0-.31-.09-.61-.12-.92a.26.26,0,0,0-.11-.16l-.41-.32-.35-.27a.45.45,0,0,0,0,.08l.18,1.39.15,1.12c0,.42.11.83.17,1.24s.07.57.11.88l-.8.1c-.08-.5-.12-1-.21-1.53L98.06,180c-.23-.15-.43-.31-.65-.48.09-.12.16-.23.25-.34l.55-.72c.2-.25.4-.51.59-.77a.18.18,0,0,0,0-.1c0-.34-.09-.68-.13-1h0L96.79,179a3.13,3.13,0,0,1-.65-.48c.08-.11.16-.23.25-.34l.43-.56.45-.59.66-.84.48-.63a.41.41,0,0,0,.11-.4c0-.25-.07-.5-.1-.75a.56.56,0,0,1,0-.13,1.08,1.08,0,0,0-.27.3l-.45.59-.42.55-.33.42-.14.18-.6.78-.62.82-.09.11-.62-.47c.28-.43.62-.8.92-1.24-.28,0-.52.06-.77.1l-.76.1-.12-.8.26,0,1.2-.16.76-.1a.32.32,0,0,0,.22-.12c.16-.22.33-.43.5-.65,0,0,0-.07.07-.13-.54.05-1,.14-1.55.2l-1.54.21c-.07-.27-.07-.52-.12-.79l.27-.05,1.77-.24,1.52-.19.28,0a.2.2,0,0,0,.16-.09l.59-.78a.92.92,0,0,0-.37,0l-1.24.17-1.53.21-1.16.16-.4,0-.11-.79c.49-.09,1-.14,1.47-.23-.35-.35-.78-.61-1.15-.94l.48-.64.09.05.67.51.61.47.49.38.08,0,.9-.12.09,0-.14-.15-.95-.72-.85-.64-.46-.35,0,0a4.93,4.93,0,0,1,.51-.64l.28.21.69.53.57.44,1.08.82.39.31a.31.31,0,0,0,.25.08l.88-.13,0,0a.27.27,0,0,0-.07-.08l-.57-.44-.83-.64-.88-.66-.57-.45-.72-.54-.07-.07.49-.64,1.23.93a5.76,5.76,0,0,0-.1-.77l-.09-.76.81-.11c0,.24.06.45.09.67.07.49.13,1,.2,1.47v.06a.29.29,0,0,0,.14.25l.67.51.06,0s0-.08,0-.11c0-.34-.09-.68-.14-1s-.07-.58-.11-.87l-.12-.86a1.69,1.69,0,0,1,0-.23l.77-.11a.21.21,0,0,1,0,.11l.21,1.5c0,.36.09.72.13,1.08l.15,1.13a.29.29,0,0,0,.11.2l.77.58c0-.15,0-.28,0-.41-.06-.42-.12-.84-.17-1.26s-.16-1.11-.23-1.66-.11-.84-.17-1.26c0-.1,0-.11.1-.13l.7-.1.21,1.5h0ZM100.13,172a5.22,5.22,0,0,0-.32.42.33.33,0,0,1-.28.16,1.25,1.25,0,0,0-.19,0c-.11,0-.23,0-.33.07s0,.39.08.59a.19.19,0,0,1,0,.16l-.17.22-.19.26a4.56,4.56,0,0,0,.39.3.37.37,0,0,1,.19.34c0,.15,0,.31.07.47l.6-.07a.21.21,0,0,1,.17,0l.34.26.15.09c.12-.15.23-.29.33-.44a.26.26,0,0,1,.18-.12,4.13,4.13,0,0,0,.49-.07.23.23,0,0,0,.11,0c0-.16,0-.3-.06-.45a.44.44,0,0,1,.1-.41.27.27,0,0,0,.07-.08l.22-.3-.28-.21c-.27-.2-.28-.2-.32-.47v-.08c0-.11,0-.23-.06-.37l-.07,0-.48.07a.25.25,0,0,1-.23-.06,1.21,1.21,0,0,0-.14-.1Z"/><path class="cls-4" d="M99.7,174.55a1.26,1.26,0,0,1,0-.27.34.34,0,0,0-.19-.29l-.18-.15a.62.62,0,0,1,.08-.12l.12-.17c.06-.05.05-.11.05-.18a3.31,3.31,0,0,1,0-.33l.37-.06a.2.2,0,0,0,.15-.1,2,2,0,0,1,.2-.26l.36.27.43-.06a.77.77,0,0,1,0,.25.36.36,0,0,0,.19.31l.19.17a.65.65,0,0,1-.11.12.52.52,0,0,0-.13.49.79.79,0,0,1,0,.17l-.26,0a.32.32,0,0,0-.3.19,1.1,1.1,0,0,1-.14.18,1.13,1.13,0,0,1-.21-.15.31.31,0,0,0-.29-.09A2.51,2.51,0,0,1,99.7,174.55Z"/></g><g id="background"><rect class="cls-4" x="35.43" y="111.3" width="224.61" height="76.64" rx="38.32" transform="translate(149.07 -60.65) rotate(45)"/><g class="cls-5"><rect class="cls-6" x="50.06" y="96.68" width="224.61" height="76.64" rx="38.32" transform="translate(143.01 -75.27) rotate(45)"/></g></g><g id="words"><g class="cls-5"><path class="cls-7" d="M52.68,109.56a16.79,16.79,0,0,1,0-8.62A16.44,16.44,0,0,1,57,93.38l9.57-9.57a16.44,16.44,0,0,1,7.56-4.36,16.9,16.9,0,0,1,8.62,0,16.36,16.36,0,0,1,7.55,4.36,19.1,19.1,0,0,1,4.25,6.27,15.87,15.87,0,0,1,1.19,7.08,1.63,1.63,0,0,1-.49,1,2.09,2.09,0,0,1-1.26.53l-4,.09a1.44,1.44,0,0,1-1.07-.36,1.5,1.5,0,0,1-.41-1.21,10.65,10.65,0,0,0-3.37-8.13A8.56,8.56,0,0,0,81,86.82a9.6,9.6,0,0,0-4.79.07,9.29,9.29,0,0,0-4.15,2.4l-9.57,9.58A9.11,9.11,0,0,0,60.12,103a9.45,9.45,0,0,0-.07,4.78,8.56,8.56,0,0,0,2.3,4.09,9,9,0,0,0,8.71,2.34,9,9,0,0,0,4.09-2.38l2.21-2.21-6-6a1.28,1.28,0,0,1-.4-.94,1.3,1.3,0,0,1,.4-1l3.24-3.23a1.24,1.24,0,0,1,.94-.4,1.26,1.26,0,0,1,.95.4L85.94,108a2.72,2.72,0,0,1,0,3.87l-5.21,5.21a16.37,16.37,0,0,1-7.55,4.36,16.83,16.83,0,0,1-8.63,0,16.7,16.7,0,0,1-11.87-11.87Z"/><path class="cls-7" d="M75.92,134.28a1.28,1.28,0,0,1,.4-.94l29.26-29.26a2.7,2.7,0,0,1,3.86,0l8.41,8.4a14.2,14.2,0,0,1,3.73,6.34,13.92,13.92,0,0,1,.09,7.19,13.54,13.54,0,0,1-11.26,10.09,13.72,13.72,0,0,1-8.52-1.55l-4.09,19a1.87,1.87,0,0,1-.44.81,1.24,1.24,0,0,1-1,.38,1.45,1.45,0,0,1-1-.47l-3.69-3.68a1.85,1.85,0,0,1-.54-1.8l4.54-19.46-2.2-2.2L81.81,138.82a1.31,1.31,0,0,1-1,.41,1.29,1.29,0,0,1-.94-.41l-3.6-3.59A1.3,1.3,0,0,1,75.92,134.28Zm27.32-7.73a6.62,6.62,0,0,0,4.68,2.11,6.13,6.13,0,0,0,4.58-1.93,6.33,6.33,0,0,0,2-4.65,6.55,6.55,0,0,0-2.09-4.7l-4.58-4.58L98.66,122Z"/><path class="cls-7" d="M103.15,160.93A2.63,2.63,0,0,1,104,159l28.27-28.27a2.7,2.7,0,0,1,3.86,0l15.33,15.33a1.3,1.3,0,0,1,0,1.88l-3.37,3.37a1.29,1.29,0,0,1-1.89,0l-11.77-11.77-7.64,7.64,8.76,8.76a1.3,1.3,0,0,1,.4.95,1.28,1.28,0,0,1-.4.94L132.32,161a1.29,1.29,0,0,1-1.89,0l-8.76-8.76-8.9,8.9,11.77,11.77a1.29,1.29,0,0,1,0,1.89l-3.37,3.37a1.3,1.3,0,0,1-1.88,0L104,162.87A2.67,2.67,0,0,1,103.15,160.93Z"/><path class="cls-7" d="M127.56,185.33a2.6,2.6,0,0,1,.8-1.93l28.27-28.27a2.74,2.74,0,0,1,3.87,0l15.32,15.33a1.29,1.29,0,0,1,.41.94,1.31,1.31,0,0,1-.41.95l-3.37,3.37a1.28,1.28,0,0,1-.94.4,1.3,1.3,0,0,1-.95-.4l-11.77-11.78-7.64,7.64,8.76,8.77a1.28,1.28,0,0,1,0,1.88l-3.19,3.19a1.25,1.25,0,0,1-.94.41,1.3,1.3,0,0,1-.95-.4l-8.76-8.77-8.9,8.9L149,197.33a1.3,1.3,0,0,1,.4.95,1.28,1.28,0,0,1-.4.94l-3.37,3.37a1.31,1.31,0,0,1-1,.41,1.29,1.29,0,0,1-.94-.41l-15.33-15.32A2.64,2.64,0,0,1,127.56,185.33Z"/><path class="cls-7" d="M151.37,209.74a1.31,1.31,0,0,1,.41-1l29.89-29.88a1.83,1.83,0,0,1,2.6,0l3.69,3.68a2,2,0,0,1,.54,1.89l-7.46,29-1.62,5.94,21.75-21.76a1.28,1.28,0,0,1,.94-.4,1.3,1.3,0,0,1,.95.4l3.23,3.24a1.29,1.29,0,0,1,.41.94,1.31,1.31,0,0,1-.41.95L176.41,232.7a1.79,1.79,0,0,1-1.31.54,1.77,1.77,0,0,1-1.3-.54L170.07,229a2,2,0,0,1-.54-1.88l7.73-30,1.3-4.8L156.9,213.92a1.28,1.28,0,0,1-1,.43,1.39,1.39,0,0,1-.93-.43l-3.23-3.24A1.29,1.29,0,0,1,151.37,209.74Z"/><path d="M203.36,242.38a.6.6,0,0,1-.43-.18l-13.27-13.27a1.23,1.23,0,0,1,0-1.76l3.63-3.63a6.73,6.73,0,0,1,6.45-1.76,6.54,6.54,0,0,1,4.71,4.71,6.84,6.84,0,0,1,0,3.45,6.66,6.66,0,0,1-1.74,3l-2,2,4.75,4.75a.6.6,0,0,1,0,.86l-1.63,1.63A.61.61,0,0,1,203.36,242.38Zm-3.12-11.68a3.34,3.34,0,0,0,0-4.73,3.19,3.19,0,0,0-2.35-1,3.22,3.22,0,0,0-2.36,1l-1.92,1.92,4.71,4.71Z"/><path d="M214.31,231.43a.58.58,0,0,1-.43-.18l-1.41-1.41a.58.58,0,0,1-.18-.42.58.58,0,0,1,.18-.43l1.74-1.74L204.15,217.2l-1.73,1.74a.6.6,0,0,1-.43.18.61.61,0,0,1-.43-.18l-1.4-1.41a.58.58,0,0,1,0-.86l6-5.95a.56.56,0,0,1,.43-.18.61.61,0,0,1,.43.18l1.4,1.4a.59.59,0,0,1,.19.43.56.56,0,0,1-.19.43l-1.73,1.73,10.05,10.06,1.74-1.74a.58.58,0,0,1,.42-.18.58.58,0,0,1,.43.18l1.41,1.41a.6.6,0,0,1,.18.43.61.61,0,0,1-.18.43l-5.95,5.95A.61.61,0,0,1,214.31,231.43Z"/><path d="M223.91,221.56a1.22,1.22,0,0,1-.88-.36l-13.27-13.28a.58.58,0,0,1-.18-.42.58.58,0,0,1,.18-.43l1.63-1.63a.58.58,0,0,1,.86,0L224,217.2l4.73-4.73a.61.61,0,0,1,.43-.18.6.6,0,0,1,.43.18l1.53,1.53a.6.6,0,0,1,.18.43.61.61,0,0,1-.18.43l-6.34,6.34A1.22,1.22,0,0,1,223.91,221.56Z"/><path d="M233.8,211.68a1.23,1.23,0,0,1-.88-.37L219.65,198a.61.61,0,0,1-.18-.43.58.58,0,0,1,.18-.43l1.63-1.63a.58.58,0,0,1,.43-.18.57.57,0,0,1,.43.18l11.76,11.76,4.73-4.73a.6.6,0,0,1,.86,0l1.53,1.53a.6.6,0,0,1,0,.86l-6.34,6.34A1.23,1.23,0,0,1,233.8,211.68Z"/><path d="M89.46,76.5a.82.82,0,0,1,.27-.61L106.67,59,101.73,54a.85.85,0,0,1-.26-.62.87.87,0,0,1,.26-.61l2.21-2.2a.82.82,0,0,1,.61-.27.84.84,0,0,1,.62.27L118.62,64a.89.89,0,0,1,.26.62.87.87,0,0,1-.26.62l-2.2,2.2a.85.85,0,0,1-.62.26.83.83,0,0,1-.62-.26l-4.93-4.93L93.31,79.47a.87.87,0,0,1-.62.26.85.85,0,0,1-.61-.26l-2.35-2.35A.84.84,0,0,1,89.46,76.5Z"/><path d="M98.81,85.83a.93.93,0,0,1,.28-.7,1.32,1.32,0,0,1,.27-.2l26-13.21a1.28,1.28,0,0,1,.81-.14,1.45,1.45,0,0,1,.75.4l2.29,2.29a1.37,1.37,0,0,1,.39.75,1.21,1.21,0,0,1-.13.81l-13.21,26a1.1,1.1,0,0,1-.21.27.9.9,0,0,1-.69.28,1,1,0,0,1-.69-.31l-2.11-2.12a1.26,1.26,0,0,1-.38-.76,1.29,1.29,0,0,1,.15-.82l2.9-5.55-6.87-6.87-5.55,2.9a1.29,1.29,0,0,1-.82.15,1.26,1.26,0,0,1-.76-.38l-2.06-2A1,1,0,0,1,98.81,85.83Zm18.66,2.59,5.43-10.24-10.24,5.43Z"/><path d="M130.83,118.22a1.45,1.45,0,0,1-.44-1.26l1.76-15L131,100.87,122.87,109a.85.85,0,0,1-.61.26.87.87,0,0,1-.62-.26l-2.35-2.35a.89.89,0,0,1-.26-.62.87.87,0,0,1,.26-.62l19.76-19.76a.87.87,0,0,1,.62-.26.89.89,0,0,1,.62.26L142.63,88a.84.84,0,0,1,.27.62.86.86,0,0,1-.27.62l-8.28,8.27,1,1,15.24-1.73a1.49,1.49,0,0,1,1.29.47l2.68,2.67a.84.84,0,0,1,.26.59.72.72,0,0,1-.21.53.9.9,0,0,1-.52.23L137,103.1l-2.09,17.41a.9.9,0,0,1-.23.53.72.72,0,0,1-.53.21.81.81,0,0,1-.59-.27Z"/><path d="M137.85,124.51a1.69,1.69,0,0,1,.53-1.26l18.46-18.47a1.72,1.72,0,0,1,1.27-.53,1.69,1.69,0,0,1,1.26.53l10,10a.84.84,0,0,1,0,1.23l-2.2,2.2a.84.84,0,0,1-.62.27.82.82,0,0,1-.61-.27l-7.7-7.69-5,5,5.73,5.73a.85.85,0,0,1,.26.62.87.87,0,0,1-.26.61l-2.09,2.09a.85.85,0,0,1-.61.26.87.87,0,0,1-.62-.26L150,118.84l-5.82,5.81,7.69,7.7a.82.82,0,0,1,.27.61.84.84,0,0,1-.27.62l-2.2,2.2a.84.84,0,0,1-1.23,0l-10-10A1.69,1.69,0,0,1,137.85,124.51Z"/><path d="M166.59,153.63a.85.85,0,0,1,.26-.61l17-17-4.94-4.93a.87.87,0,0,1-.26-.62.85.85,0,0,1,.26-.61l2.21-2.2a.82.82,0,0,1,.61-.27.84.84,0,0,1,.62.27l13.45,13.44a.87.87,0,0,1,0,1.24l-2.21,2.2a.81.81,0,0,1-.61.26.83.83,0,0,1-.62-.26l-4.93-4.93L170.44,156.6a.87.87,0,0,1-.62.26.89.89,0,0,1-.62-.26l-2.35-2.35A.87.87,0,0,1,166.59,153.63Z"/><path d="M179.22,166.26a.83.83,0,0,1,.26-.62l19.76-19.76a.87.87,0,0,1,.62-.26.85.85,0,0,1,.61.26l2.35,2.35a.84.84,0,0,1,0,1.23l-7.92,7.93,8.69,8.69,7.92-7.93a.87.87,0,0,1,.62-.26.89.89,0,0,1,.62.26l2.35,2.35a.87.87,0,0,1,.26.62.82.82,0,0,1-.27.61l-19.76,19.76a.82.82,0,0,1-.61.27.87.87,0,0,1-.62-.26l-2.35-2.35a.89.89,0,0,1-.26-.62.87.87,0,0,1,.26-.62l8.46-8.45-8.69-8.69-8.46,8.45a.84.84,0,0,1-1.23,0l-2.35-2.35A.81.81,0,0,1,179.22,166.26Z"/><path d="M200.12,186.78a1.72,1.72,0,0,1,.53-1.26l18.47-18.47a1.76,1.76,0,0,1,2.52,0l10,10a.84.84,0,0,1,.27.62.82.82,0,0,1-.27.61l-2.2,2.21a.85.85,0,0,1-.61.26.87.87,0,0,1-.62-.26l-7.69-7.7-5,5,5.72,5.73a.83.83,0,0,1,.26.62.81.81,0,0,1-.26.61l-2.08,2.09a.85.85,0,0,1-.62.26.87.87,0,0,1-.62-.26l-5.72-5.73-5.82,5.82,7.7,7.69a.86.86,0,0,1,0,1.23l-2.21,2.2a.82.82,0,0,1-.61.27.84.84,0,0,1-.62-.27l-10-10A1.72,1.72,0,0,1,200.12,186.78Z"/></g></g></svg>