<svg xmlns="http://www.w3.org/2000/svg" xmlns:xlink="http://www.w3.org/1999/xlink" viewBox="0 0 283.46 283.46"><defs><style>.cls-1{fill:none;}.cls-2{fill:#fff;}.cls-3{fill:#6f3ff4;}.cls-4{fill:#02e1ab;}.cls-5{clip-path:url(#clip-path);}.cls-6{fill:#b2ffec;}.cls-7{clip-path:url(#clip-path-2);}.cls-8{stroke:#000;stroke-miterlimit:10;}</style><clipPath id="clip-path"><polygon class="cls-1" points="195.62 157.02 138.6 190.69 138.6 190.69 81.62 157.02 138.6 237.32 138.6 237.32 195.62 157.02"/></clipPath><clipPath id="clip-path-2"><polygon class="cls-1" points="81.62 146.21 81.62 146.21 91.19 151.87 138.6 179.9 138.6 179.9 195.59 146.21 138.6 51.66 138.6 51.66 138.6 51.66 138.6 51.66 138.6 51.66 81.62 146.21 81.62 146.21"/></clipPath></defs><g id="profile"><path class="cls-2" d="M150.52,254.27a9.17,9.17,0,0,1-4.36-1.08,9.48,9.48,0,0,1-3.44-3.06,1.76,1.76,0,0,0-1.44-.77,1.72,1.72,0,0,0-1.41.73,1.37,1.37,0,0,1-2.24,0l-67.91-95.7a2.76,2.76,0,0,1-.11-3L136.39,40.6a2.77,2.77,0,0,1,4.73,0l67,111.21a2.35,2.35,0,0,1-.09,2.58l-.17.23a1.8,1.8,0,0,0-.23,1.62,1.74,1.74,0,0,0,1.18,1.12,9.6,9.6,0,0,1,3.93,2.24,9.94,9.94,0,0,1,1.06,13l-55,77.39a10.2,10.2,0,0,1-8.27,4.33Z"/><path d="M138.76,39.77a2.24,2.24,0,0,1,1.93,1.09l67,111.2a1.87,1.87,0,0,1-.08,2l-.16.23a2.24,2.24,0,0,0-.3,2.08,2.27,2.27,0,0,0,1.51,1.43,9.18,9.18,0,0,1,3.73,2.13,9.42,9.42,0,0,1,1,12.29l-55,77.39a9.69,9.69,0,0,1-7.87,4.12,8.71,8.71,0,0,1-4.13-1,9,9,0,0,1-3.26-2.91,2.23,2.23,0,0,0-3.67,0,.89.89,0,0,1-.71.37.86.86,0,0,1-.71-.37L70.13,154.1a2.24,2.24,0,0,1-.09-2.47L136.82,40.86a2.25,2.25,0,0,1,1.94-1.09m0-1A3.22,3.22,0,0,0,136,40.34L69.18,151.11a3.26,3.26,0,0,0,.13,3.57l67.91,95.7a1.89,1.89,0,0,0,1.53.79,1.84,1.84,0,0,0,1.52-.79h0a1.23,1.23,0,0,1,1-.52,1.26,1.26,0,0,1,1,.55,10,10,0,0,0,3.62,3.22,9.69,9.69,0,0,0,4.59,1.14,10.72,10.72,0,0,0,8.68-4.54l55-77.39a10.44,10.44,0,0,0-1.13-13.6,10.09,10.09,0,0,0-4.13-2.36,1.27,1.27,0,0,1-.68-2l.16-.23a2.85,2.85,0,0,0,.12-3.13l-67-111.2a3.21,3.21,0,0,0-2.79-1.58Z"/><path class="cls-3" d="M159.86,236.9a3.43,3.43,0,0,1-.8.43.12.12,0,0,1-.1,0,.16.16,0,0,1-.09-.07l-.25-.53a.17.17,0,0,1,0-.19.27.27,0,0,1,.1-.08,2.24,2.24,0,0,0,1-.72,1,1,0,0,0,.23-.68.69.69,0,0,0-.3-.52.56.56,0,0,0-.38-.12,1.07,1.07,0,0,0-.4.12,5.51,5.51,0,0,0-.57.34l-.22.13a2.78,2.78,0,0,1-1,.42,1.42,1.42,0,0,1-1.11-.32,1.65,1.65,0,0,1-.59-.7,1.49,1.49,0,0,1-.13-.86,1.88,1.88,0,0,1,.37-.88,2.47,2.47,0,0,1,.62-.63,2.7,2.7,0,0,1,.77-.4.14.14,0,0,1,.11,0s.07,0,.08.07l.27.52a.18.18,0,0,1,0,.19.39.39,0,0,1-.1.08,3.37,3.37,0,0,0-.6.33,1.61,1.61,0,0,0-.37.37.8.8,0,0,0-.18.6.69.69,0,0,0,.3.47.68.68,0,0,0,.57.12,2.9,2.9,0,0,0,.78-.37l.51-.33a1.72,1.72,0,0,1,.93-.29,1.5,1.5,0,0,1,.92.29,1.68,1.68,0,0,1,.6.73,1.65,1.65,0,0,1,.11.91,2.23,2.23,0,0,1-.4,1A2.85,2.85,0,0,1,159.86,236.9Z"/><path class="cls-3" d="M162.55,232.87a2.3,2.3,0,0,1-1.1.18,2.15,2.15,0,0,1-1-.4l-1.44-1a2.17,2.17,0,0,1-.72-.87,2.17,2.17,0,0,1,.18-2.13,2.58,2.58,0,0,1,.7-.66,2.09,2.09,0,0,1,.87-.29.18.18,0,0,1,.14,0,.24.24,0,0,1,.1.15l.1.51a.23.23,0,0,1,0,.15.2.2,0,0,1-.15.08,1.3,1.3,0,0,0-.94.57,1,1,0,0,0-.2.56,1.29,1.29,0,0,0,.52,1.07l1.44,1a1.21,1.21,0,0,0,.58.22,1.35,1.35,0,0,0,.6-.08,1,1,0,0,0,.46-.37,1.28,1.28,0,0,0,.23-1.08.22.22,0,0,1,0-.16.23.23,0,0,1,.13-.07l.52-.08a.22.22,0,0,1,.18,0,.24.24,0,0,1,.08.11,2.24,2.24,0,0,1,0,.93,2.48,2.48,0,0,1-.39.88A2.09,2.09,0,0,1,162.55,232.87Z"/><path class="cls-3" d="M164.93,229.76a.15.15,0,0,1-.13,0l-4.53-3.22a.14.14,0,0,1-.07-.11.16.16,0,0,1,0-.13l.38-.54a.19.19,0,0,1,.12-.07.17.17,0,0,1,.12,0l1.82,1.29,1.41-2-1.81-1.29a.12.12,0,0,1-.07-.11.15.15,0,0,1,0-.13l.38-.54a.19.19,0,0,1,.11-.07.19.19,0,0,1,.13,0l4.53,3.22a.14.14,0,0,1,.07.11.19.19,0,0,1,0,.13l-.39.54a.16.16,0,0,1-.11.07.21.21,0,0,1-.13,0l-1.93-1.38-1.42,2,1.94,1.38a.16.16,0,0,1,.07.11.16.16,0,0,1,0,.13l-.38.54A.19.19,0,0,1,164.93,229.76Z"/><path class="cls-3" d="M168.25,225a.36.36,0,0,1-.26-.07l-4.23-3a.36.36,0,0,1-.15-.23.39.39,0,0,1,.06-.26l1.63-2.3a.19.19,0,0,1,.12-.07.14.14,0,0,1,.12,0l.51.36a.19.19,0,0,1,.07.11.15.15,0,0,1,0,.13l-1.25,1.76,1.14.82.93-1.32a.19.19,0,0,1,.11-.07.15.15,0,0,1,.13,0l.48.34a.19.19,0,0,1,.07.11.15.15,0,0,1,0,.13l-.93,1.31,1.33.95,1.25-1.76a.17.17,0,0,1,.24,0l.51.36a.14.14,0,0,1,.07.11.16.16,0,0,1,0,.13l-1.63,2.29A.36.36,0,0,1,168.25,225Z"/><path class="cls-3" d="M170.84,221.33a.31.31,0,0,1-.26-.06l-4.38-3.11a.14.14,0,0,1-.07-.11.16.16,0,0,1,0-.13l.38-.53a.2.2,0,0,1,.12-.08.21.21,0,0,1,.13,0l3.87,2.76,1.11-1.56a.19.19,0,0,1,.11-.07.15.15,0,0,1,.13,0l.51.36a.16.16,0,0,1,.07.11.15.15,0,0,1,0,.13l-1.49,2.09A.3.3,0,0,1,170.84,221.33Z"/><path class="cls-3" d="M173.16,218.07a.3.3,0,0,1-.26-.06l-4.38-3.11a.12.12,0,0,1-.07-.11.16.16,0,0,1,0-.13l.38-.54a.19.19,0,0,1,.11-.07.19.19,0,0,1,.13,0l3.88,2.76,1.11-1.56a.14.14,0,0,1,.11-.07.15.15,0,0,1,.13,0l.5.36a.15.15,0,0,1,.08.11.22.22,0,0,1,0,.13l-1.48,2.09A.33.33,0,0,1,173.16,218.07Z"/><path class="cls-3" d="M175.39,215a.15.15,0,0,1-.13,0l-.47-.33a.19.19,0,0,1-.07-.11.19.19,0,0,1,0-.13l.41-.57-3.32-2.36-.4.57a.21.21,0,0,1-.11.08.2.2,0,0,1-.13,0l-.47-.33a.14.14,0,0,1-.07-.11.21.21,0,0,1,0-.13l1.4-2a.16.16,0,0,1,.11-.07.15.15,0,0,1,.13,0l.46.33a.17.17,0,0,1,0,.24l-.4.57,3.31,2.36.41-.58a.16.16,0,0,1,.11-.07.15.15,0,0,1,.13,0l.46.33a.15.15,0,0,1,.07.11.18.18,0,0,1,0,.14l-1.39,2A.19.19,0,0,1,175.39,215Z"/><path class="cls-3" d="M177.64,211.86a.15.15,0,0,1-.13,0L173,208.66a.21.21,0,0,1-.1-.16.24.24,0,0,1,0-.18l.39-.55a.28.28,0,0,1,.23-.11l3.88.33.79.08L175,205.76a.2.2,0,0,1-.08-.12.22.22,0,0,1,0-.13l.34-.48a.19.19,0,0,1,.11-.07.15.15,0,0,1,.13,0l4.47,3.17a.21.21,0,0,1,.1.16.24.24,0,0,1,0,.18l-.4.56a.24.24,0,0,1-.23.1l-4-.33-.64-.06,3.24,2.3a.17.17,0,0,1,.08.11.2.2,0,0,1,0,.13l-.34.48A.15.15,0,0,1,177.64,211.86Z"/><path class="cls-3" d="M181.41,206.32a2.25,2.25,0,0,1-1.11.19,2.08,2.08,0,0,1-1.06-.39l-1.43-1a2.17,2.17,0,0,1-.72-.87,2.18,2.18,0,0,1,.2-2.17,2.68,2.68,0,0,1,.71-.68,2.05,2.05,0,0,1,.88-.3.21.21,0,0,1,.15,0,.27.27,0,0,1,.09.15l.1.51a.18.18,0,0,1,0,.15.19.19,0,0,1-.15.08,1.35,1.35,0,0,0-1,.61,1.16,1.16,0,0,0-.21.57,1.28,1.28,0,0,0,.51,1.09l1.43,1a1.23,1.23,0,0,0,.59.21,1.26,1.26,0,0,0,.61-.09,1.2,1.2,0,0,0,.48-.38,1.16,1.16,0,0,0,.21-.57,1.13,1.13,0,0,0-.11-.6,1,1,0,0,0-.39-.47l-.33-.23-.64.9a.16.16,0,0,1-.11.07.15.15,0,0,1-.13,0l-.48-.35a.18.18,0,0,1-.08-.11.22.22,0,0,1,0-.13l1-1.42a.33.33,0,0,1,.23-.14.32.32,0,0,1,.27.06l.78.55a2.17,2.17,0,0,1,.72.87,2.16,2.16,0,0,1-.2,2.16A2.09,2.09,0,0,1,181.41,206.32Z"/><path class="cls-3" d="M185.26,201.13a.15.15,0,0,1-.13,0l-4.38-3.1a.33.33,0,0,1-.14-.23.32.32,0,0,1,.06-.27l.85-1.2a1.86,1.86,0,0,1,.76-.63,1.92,1.92,0,0,1,1-.17,1.89,1.89,0,0,1,1.56,1.1,1.93,1.93,0,0,1-.19,1.91l-.48.66,1.57,1.11a.15.15,0,0,1,.07.12.16.16,0,0,1,0,.13l-.38.53A.15.15,0,0,1,185.26,201.13ZM183.82,198a1,1,0,0,0-.23-1.33.87.87,0,0,0-.7-.16.89.89,0,0,0-.62.39l-.45.63,1.55,1.1Z"/><path class="cls-3" d="M188.47,196.38a2.15,2.15,0,0,1-2.17-.21l-1.43-1a2.13,2.13,0,0,1-.72-.88,2.07,2.07,0,0,1-.18-1.1,2.15,2.15,0,0,1,1.27-1.79,2.2,2.2,0,0,1,1.1-.19,2,2,0,0,1,1.06.39l1.43,1a2,2,0,0,1,.72.87,2.22,2.22,0,0,1,.19,1.11,2.15,2.15,0,0,1-.4,1.06A2.11,2.11,0,0,1,188.47,196.38Zm.29-1.86a1.18,1.18,0,0,0-.11-.61,1.23,1.23,0,0,0-.4-.48l-1.43-1a1.24,1.24,0,0,0-.58-.21,1.3,1.3,0,0,0-.62.09,1.14,1.14,0,0,0-.68,1,1.28,1.28,0,0,0,.51,1.09l1.44,1a1.09,1.09,0,0,0,.58.22,1.26,1.26,0,0,0,.61-.09,1.09,1.09,0,0,0,.68-1Z"/><path class="cls-3" d="M191,193.1a.16.16,0,0,1-.13,0l-.46-.33a.16.16,0,0,1-.07-.11.15.15,0,0,1,0-.13l.41-.57-3.32-2.36-.41.58a.14.14,0,0,1-.11.07.21.21,0,0,1-.13,0l-.46-.33a.19.19,0,0,1-.07-.11.15.15,0,0,1,0-.13l1.39-2a.19.19,0,0,1,.11-.07.15.15,0,0,1,.13,0l.47.33a.19.19,0,0,1,.07.11.15.15,0,0,1,0,.13l-.41.57,3.32,2.36.4-.57a.21.21,0,0,1,.11-.08.2.2,0,0,1,.13,0l.47.33a.14.14,0,0,1,.07.11.16.16,0,0,1,0,.13l-1.39,2A.19.19,0,0,1,191,193.1Z"/><path class="cls-3" d="M193.21,189.94a.22.22,0,0,1-.13,0l-4.47-3.17a.29.29,0,0,1-.1-.16.22.22,0,0,1,.05-.17l.39-.55a.23.23,0,0,1,.23-.11l3.87.32.8.08-3.26-2.31a.19.19,0,0,1-.07-.11.15.15,0,0,1,0-.13l.35-.49A.14.14,0,0,1,191,183a.16.16,0,0,1,.13,0l4.47,3.18a.24.24,0,0,1,.09.15.22.22,0,0,1,0,.18l-.39.56a.28.28,0,0,1-.23.11l-4-.34-.64-.06,3.24,2.3a.17.17,0,0,1,0,.24l-.35.48A.15.15,0,0,1,193.21,189.94Z"/><path class="cls-3" d="M197.27,184.22a.16.16,0,0,1-.13,0l-3.88-2.75-.8,1.13a.19.19,0,0,1-.11.07.28.28,0,0,1-.13,0l-.51-.36a.19.19,0,0,1-.07-.11.19.19,0,0,1,0-.13l2.19-3.08a.17.17,0,0,1,.24,0l.51.35a.19.19,0,0,1,.07.12.17.17,0,0,1,0,.13l-.81,1.12,3.88,2.76a.21.21,0,0,1,.08.11.2.2,0,0,1,0,.13l-.38.54A.16.16,0,0,1,197.27,184.22Z"/><path class="cls-3" d="M200.36,179.78a.35.35,0,0,1-.26-.06l-.53-.38a2.45,2.45,0,0,1-.74-.74,1.69,1.69,0,0,1-.22-.81,13.4,13.4,0,0,1,.08-1.44,1.31,1.31,0,0,0-.06-.58,1,1,0,0,0-.31-.38.69.69,0,0,0-.58-.13.85.85,0,0,0-.53.39,2,2,0,0,0-.34,1,.49.49,0,0,1,0,.11.17.17,0,0,1-.16.06l-.57-.06a.11.11,0,0,1-.08,0,.15.15,0,0,1-.07-.14,2.87,2.87,0,0,1,.55-1.58,1.77,1.77,0,0,1,1.1-.79,1.62,1.62,0,0,1,1.27.33,1.54,1.54,0,0,1,.62.78,3.32,3.32,0,0,1,.12,1.22c0,.15,0,.28,0,.38a5.37,5.37,0,0,0,0,.66,1.18,1.18,0,0,0,.1.45,1,1,0,0,0,.32.38l.19.13,1.24-1.74a.21.21,0,0,1,.11-.08.2.2,0,0,1,.13,0l.5.35a.16.16,0,0,1,.07.11.15.15,0,0,1,0,.13l-1.6,2.25A.36.36,0,0,1,200.36,179.78Z"/><path class="cls-3" d="M202.68,175.54A5.17,5.17,0,0,1,199,172.9a1.8,1.8,0,0,1,.27-1.72,1.78,1.78,0,0,1,1.53-.81,4.05,4.05,0,0,1,2.16.88,4,4,0,0,1,1.56,1.76,1.74,1.74,0,0,1-.27,1.71A1.77,1.77,0,0,1,202.68,175.54Zm.94-2a1.22,1.22,0,0,0-.35-.66,5.13,5.13,0,0,0-.94-.8,5.53,5.53,0,0,0-1.06-.62,1.22,1.22,0,0,0-.74-.11.88.88,0,0,0-.53.38.82.82,0,0,0-.18.62,1.35,1.35,0,0,0,.36.67,5.69,5.69,0,0,0,.95.8,3.72,3.72,0,0,0,1.45.73.85.85,0,0,0,.87-.38A.89.89,0,0,0,203.62,173.55Z"/><path class="cls-3" d="M205.81,172.1a.28.28,0,0,1-.25-.06l-.54-.38a2.56,2.56,0,0,1-.74-.73,1.69,1.69,0,0,1-.21-.82,12.75,12.75,0,0,1,.07-1.44,1.25,1.25,0,0,0-.06-.57.83.83,0,0,0-.3-.39.73.73,0,0,0-.58-.13.92.92,0,0,0-.54.4,2,2,0,0,0-.34,1,.42.42,0,0,1,0,.1.16.16,0,0,1-.16.07l-.56-.07a.11.11,0,0,1-.08,0,.16.16,0,0,1-.08-.14,3,3,0,0,1,.15-.81,3.07,3.07,0,0,1,.4-.76,1.8,1.8,0,0,1,1.11-.8,1.6,1.6,0,0,1,1.26.33,1.58,1.58,0,0,1,.62.78,3.14,3.14,0,0,1,.12,1.22,2.06,2.06,0,0,1,0,.39c0,.27,0,.49,0,.65a1.34,1.34,0,0,0,.1.45.89.89,0,0,0,.32.38l.19.14,1.24-1.75a.15.15,0,0,1,.12-.07.16.16,0,0,1,.13,0l.49.35a.17.17,0,0,1,0,.24L206,172A.31.31,0,0,1,205.81,172.1Z"/><path class="cls-3" d="M208.3,168.7a.15.15,0,0,1-.13,0l-.48-.34a.17.17,0,0,1,0-.24l.54-.76-3-2.13-.4.57a.25.25,0,0,1-.16.1.3.3,0,0,1-.18,0l-.32-.23.21-1.49.18-.27a.24.24,0,0,1,.16-.09.24.24,0,0,1,.18,0l3.88,2.75.54-.76a.14.14,0,0,1,.11-.07.16.16,0,0,1,.13,0l.47.34a.21.21,0,0,1,.08.11.28.28,0,0,1,0,.13l-1.64,2.31A.19.19,0,0,1,208.3,168.7Z"/><path class="cls-3" d="M144.47,242.86l.38-.73.32.16.82.43.81.43a.35.35,0,0,0,.33,0,6.55,6.55,0,0,1,.67-.2l.14-.06a12.23,12.23,0,0,0-1.35-.76c-.46-.22-.91-.48-1.38-.73l.39-.72,3.52,1.86,1-.31v0l-.24-.14-.19-.13s0,0-.06,0a8.28,8.28,0,0,1-1-.49c-.33-.17-.66-.34-1-.52l-.64-.34-.53-.27-.45-.24L146,240l.37-.7,1.38.73c-.14-.51-.31-1-.45-1.49l.74-.23a.33.33,0,0,1,.06.1c.17.56.35,1.12.52,1.68,0,.12.07.25.11.37a.28.28,0,0,0,.15.17c.25.12.49.26.74.39l.14,0-.94-3,.77-.24c0,.09.07.18.09.26.13.4.25.81.38,1.21s.23.76.34,1.13l.36,1.12a.23.23,0,0,0,.08.11l.88.46a.74.74,0,0,0-.06-.34c0-.19-.12-.36-.18-.55s-.15-.48-.22-.72-.24-.78-.37-1.17-.25-.79-.37-1.19l-.15-.48s0,0,0-.08l.76-.23c.17.47.29,1,.46,1.45a5,5,0,0,0,.38-.66c.12-.22.22-.44.35-.68.24.12.48.23.72.37l-.19.37-.42.81c-.14.27-.29.54-.44.81a.25.25,0,0,0,0,.19c.09.3.19.6.28.91l0,0c.27-.45.49-.92.74-1.37s.48-.92.73-1.39l.71.38-.28.55-.34.63-.35.67c-.14.25-.27.51-.4.76l-.42.8a.26.26,0,0,0,0,.21l.27.84s0,0,0,.09l2.2-4.18.4.21.31.17c-.21.47-.48.89-.69,1.35l0,0,1.45-.45.23.77-.24.08-.91.28-.94.29a.36.36,0,0,0-.25.2c-.12.26-.27.51-.4.76,0,0,0,0,0,.07.52-.13,1-.3,1.51-.45l1.5-.47.24.77-.46.15-1,.31-1.36.41-.88.28a.23.23,0,0,0-.14.13l-.25.46-.2.39h.08l1.34-.41,1.08-.33,1.2-.37.84-.26.24.77c-.49.17-1,.29-1.48.47l1.36.72c-.11.25-.24.47-.37.72l-.37-.19-.8-.43-.86-.45a.15.15,0,0,0-.11,0l-1,.3v0l2.74,1.44a3.12,3.12,0,0,1-.37.73l-.38-.19-.62-.34-.66-.34L154,246l-.7-.37a.45.45,0,0,0-.41,0c-.23.1-.48.16-.73.24l-.12,0a1,1,0,0,0,.34.21l.65.35.62.31.46.26.21.11.86.46.92.48.12.07-.36.69c-.46-.21-.89-.48-1.37-.7.06.27.15.5.22.74s.15.48.23.73l-.77.25c0-.09,0-.16-.08-.24l-.36-1.16c-.08-.24-.15-.49-.22-.74a.33.33,0,0,0-.16-.19l-.73-.39-.13,0c.14.52.31,1,.45,1.49s.31,1,.47,1.48c-.25.12-.51.16-.77.26l-.09-.27c-.18-.57-.36-1.13-.53-1.7s-.3-1-.44-1.46c0-.09-.07-.18-.09-.27a.23.23,0,0,0-.12-.15l-.87-.45a1.17,1.17,0,0,0,.08.37c.12.4.26.79.38,1.19l.45,1.47.36,1.12c0,.12.07.24.11.39l-.77.23c-.17-.46-.29-.94-.47-1.41-.28.41-.47.87-.73,1.3l-.72-.37,0-.1.4-.75.36-.68.28-.54a.08.08,0,0,0,0-.08c-.09-.29-.18-.58-.26-.86a.9.9,0,0,0,0-.09l-.12.16-.56,1c-.16.32-.32.64-.49,1l-.26.51-.05,0a5,5,0,0,1-.71-.39l.16-.31c.14-.26.27-.52.41-.77l.33-.64.63-1.2.24-.43a.31.31,0,0,0,0-.26l-.27-.86,0,0a.27.27,0,0,0-.07.08l-.33.64-.5.93-.5,1-.35.64c-.14.27-.28.53-.41.8l-.06.08-.71-.38.71-1.36a5.09,5.09,0,0,0-.75.22l-.73.22-.24-.78.64-.2,1.42-.44.06,0a.29.29,0,0,0,.23-.17c.12-.26.26-.5.39-.75a.18.18,0,0,1,0-.06.4.4,0,0,0-.11,0l-1,.31-.83.25-.84.26a1.41,1.41,0,0,1-.22.06l-.24-.75a.33.33,0,0,1,.1-.06l1.44-.45,1.05-.31,1.09-.34a.24.24,0,0,0,.17-.14c.15-.27.29-.55.45-.86l-.39.11-1.22.38-1.6.5-1.22.37c-.09,0-.11,0-.14-.07s-.14-.44-.21-.68l1.44-.45v0Zm5,1.71.47.25a.34.34,0,0,1,.21.24,1.39,1.39,0,0,0,.06.19c0,.1,0,.22.13.31l.56-.17a.17.17,0,0,1,.17,0l.24.13.29.15a4.65,4.65,0,0,0,.23-.43.38.38,0,0,1,.3-.25l.46-.15-.18-.57a.19.19,0,0,1,0-.18c.07-.12.13-.25.2-.38l.07-.17-.5-.25a.21.21,0,0,1-.14-.15c0-.16-.1-.32-.15-.47a.54.54,0,0,0-.05-.11l-.44.13a.4.4,0,0,1-.42,0l-.09,0-.33-.17-.16.31c-.15.31-.15.31-.41.4l-.08,0-.36.11,0,.07c.05.15.1.3.14.46a.26.26,0,0,1,0,.24.4.4,0,0,0-.08.16Z"/><path class="cls-4" d="M152.05,244.57l-.27.09c-.15,0-.2.12-.26.23l-.11.2-.14-.06-.18-.09a.21.21,0,0,0-.19,0l-.32.08c0-.12-.08-.23-.11-.35a.21.21,0,0,0-.13-.13l-.29-.15.2-.41-.13-.41a1.44,1.44,0,0,1,.25-.08.35.35,0,0,0,.27-.23,1.27,1.27,0,0,1,.13-.22l.15.08a.5.5,0,0,0,.5,0l.16,0a1.52,1.52,0,0,1,.09.25.3.3,0,0,0,.24.26.92.92,0,0,1,.21.12,1.67,1.67,0,0,1-.12.23.29.29,0,0,0,0,.3C152,244.36,152,244.45,152.05,244.57Z"/></g><g id="background"><polygon class="cls-4" points="81.62 146.21 81.62 146.21 91.19 151.87 138.6 179.9 138.6 179.9 195.59 146.21 138.6 51.66 138.6 51.66 138.6 51.66 138.6 51.66 138.6 51.66 81.62 146.21 81.62 146.21"/><polygon class="cls-4" points="195.62 157.02 138.6 190.69 138.6 190.69 81.62 157.02 138.6 237.32 138.6 237.32 195.62 157.02"/><g class="cls-5"><path class="cls-6" d="M183.21,176.86c-13.22-10.57-29.88-4.5-35.51,6.48a22.69,22.69,0,0,1,16.88-.59,19.71,19.71,0,0,1,8.51,5.81,21.36,21.36,0,0,0-14.63-5.29c3.8,3.89,4.38,7.93,1.13,12.23.16-.34.31-.67.48-1a7.76,7.76,0,0,0-3.53-10.5,3.33,3.33,0,0,0-1.95-.22,17.86,17.86,0,0,0-7.65,3.46,3,3,0,0,0-1,1.65c-2,10-1.13,19.8,1.49,29.5,1.24,4.58,2.93,17.22,4.45,21.71.14.41.3.8.51,1.34H127c.16-.45.29-.87.46-1.28,3.65-9,6.36-26.39,7-36.12.4-6.18.24-12.25-2.71-17.93a31.2,31.2,0,0,0-7.49-9.68,2.09,2.09,0,0,0-1.57-.39,12.33,12.33,0,0,0-7.45,19l.8,1.12c-2.57-1.68-3.93-5.3-4.21-11.08-3.59,1.36-7,1.09-10-1.45A7.89,7.89,0,0,1,99,177.8c1,3.55,3.18,5.9,6.83,6.62a7.87,7.87,0,0,0,5.8-1.06,2.47,2.47,0,0,0,1-1.09,13.66,13.66,0,0,1,7.74-8,3,3,0,0,0,.55-.34c-8.91-6.47-25.42-8.34-38.08,3.19,1-1.95,7-6.71,12.43-8.71a35.36,35.36,0,0,1,15.32-2,24,24,0,0,1-1.6-2.72,30.25,30.25,0,0,1-1.83-4.91,9,9,0,0,0-8.4-7.13,10.12,10.12,0,0,0-7.41,2.59c2.4-4.38,9.44-4.72,15.29-.73.8-7,4.06-12.21,10.37-15.37-1,.89-2.15,1.71-3.12,2.67a17.34,17.34,0,0,0,2,26.18,5.81,5.81,0,0,0,1.57.84,33.4,33.4,0,0,1,17.09,12.55l.32.4a.35.35,0,0,0,.12.08c-.39-2.42-.91-4.89-1.16-7.38A34.2,34.2,0,0,1,137,155.63a5.86,5.86,0,0,0,.52-2.21A13.77,13.77,0,0,0,123,139.48c-.25,0-.5,0-.85,0,7-2.14,14.27,2.57,17.64,11.67a16.45,16.45,0,0,0,1-13c-3.07-8.91-9.64-12.88-19-12.76,9.72-2.36,22.87,5.12,22.89,19.76A35.53,35.53,0,0,1,160.2,137a33.25,33.25,0,0,1,17.26.43,33.2,33.2,0,0,0-20.68,2.86c5.23.89,8.44,3.63,9.67,8.5a10.78,10.78,0,0,0-5.18-5.76c-3.57-1.68-7-1.64-10.23.94a31.51,31.51,0,0,0-10.52,15.49c-.1.32-.17.65-.31,1.21,4.73-3.58,9.47-3.94,14.35-.83-1-.33-2-.73-3-1A10.6,10.6,0,0,0,139.94,164a5.33,5.33,0,0,0-.72,2,30.92,30.92,0,0,0,3.15,17.07,4.83,4.83,0,0,0,.34.52c.66-1.06,1.26-2.08,1.91-3.06a22.25,22.25,0,0,1,8.34-7.64c3.55-1.83,5.3-4.87,6.42-8.41a16.4,16.4,0,0,0-.29-10.47c2.45,3.57,2.33,9.33-.35,16.31C168.12,168.16,176.3,170.24,183.21,176.86Z"/><path class="cls-6" d="M141.45,129.77c-.47-8.29,4.44-13.51,12.48-14,1.59,6.89-4.2,14.07-12,14.51l5-6.2-.24-.2Z"/><path class="cls-6" d="M124.94,122.87l-7.29-5.62-.16.2,6.93,6c-8.31.78-13.65-4.29-14.29-12.07C116.81,109.4,124.28,115.08,124.94,122.87Z"/><path class="cls-6" d="M96.14,149.13l-8.53-2.88-.09.24,8.23,3.28c-5.34,4-14.59.38-17.38-6.73C84.16,139.09,93.37,142.15,96.14,149.13Z"/><path class="cls-6" d="M185.05,125.23c-2.4,8-8.33,11.34-16.37,9.29l8.17-4.72-.11-.21-8.37,4.25C171,125.54,177.68,123,185.05,125.23Z"/><path class="cls-6" d="M180,156.85c-3.24,7.35-10.06,10.17-17.46,6.79l8.84-3.52-.07-.21-9,3C165.75,155.46,173,153.33,180,156.85Z"/><path class="cls-6" d="M116.62,126.6l-7.51,1.72.06.26,7.58-1.33c-4,6.25-10.87,7.31-16.92,3.12C103.35,124.44,110.24,122.24,116.62,126.6Z"/><path class="cls-6" d="M182.72,139.74l7.13,1.7.05-.24-7.06-2.12c6.87-3.78,12.78-1.17,16,4.63C194.31,147.75,185.52,145.67,182.72,139.74Z"/><path class="cls-6" d="M186.33,181l6,4.78.16-.18L187,180.7c5.33-2,12.32,4,12.44,10.68C193.49,193.15,187,188.15,186.33,181Z"/><path class="cls-6" d="M121.25,167.08v-8.17h-.44v8.22c-5.13-3.6-4.8-13,.29-16.71C125.9,155.16,126.76,161.72,121.25,167.08Z"/><path class="cls-6" d="M180.65,172.1l8.75-.78h-8.56c2.76-5,12.18-5.36,16.46-.54C192.88,176.06,186.28,177,180.65,172.1Z"/><path class="cls-6" d="M71.87,168.75a11.14,11.14,0,0,1,16.64.54H79.64l8.83.78C84.24,174.84,76.19,174.16,71.87,168.75Z"/><path class="cls-6" d="M133.3,119.2c.43,2.2.86,4.41,1.29,6.65-5.15-1.72-6.86-10.13-3.12-15,5.68,3.12,7.41,9.54,3.75,15l-1.7-6.6Z"/><path class="cls-6" d="M88.45,176.49l-2.21,4.82.25.13,2.43-4.55c2.66,4.76-1.1,11.9-6.85,13.22C79.74,184,82.42,178.51,88.45,176.49Z"/><path class="cls-6" d="M184.38,149c-5.68.63-11.06-2.63-11.42-9.6l4.59,3.76.16-.19-4.29-4C179.85,138.23,184.34,142.92,184.38,149Z"/><path class="cls-6" d="M180,183.57c-6.55.83-11-2.84-11.75-9.28l4.67,3.57.14-.18-4.23-3.79C174,172.35,180.16,177.82,180,183.57Z"/><path class="cls-6" d="M129.28,138.35l-1.57-1.87-.28.25,1.44,1.88c-4.3.32-8.08-4.22-7.23-8.61C126.37,130,130,133.84,129.28,138.35Z"/><path class="cls-6" d="M155.87,150.67a6.62,6.62,0,0,1-6.94,6.29,1.07,1.07,0,0,1-1.16-1.22C148.06,152.3,152.54,149.54,155.87,150.67Z"/><path class="cls-6" d="M123,196.43a6.59,6.59,0,0,1-8.27-4.6c-.25-.81.11-1.33,1-1.43A6.63,6.63,0,0,1,123,196.43Z"/><path class="cls-6" d="M166,126.5c1.2,3.44-1,7.61-4.47,8.34a1.59,1.59,0,0,1-1.29-.84C159.4,130.56,162.35,126.78,166,126.5Z"/><path class="cls-6" d="M113.29,196.59l.58,2,.17,0-.27-1.91c3.43,1.42,4.33,6,2,9.65C112.15,205,110.87,200.23,113.29,196.59Z"/><path class="cls-6" d="M177,189.82l-1.41-.49c2.89-2.4,7.23-1.18,9.52,2.62a6.47,6.47,0,0,1-9.76-2.17l1.62.2Z"/><path class="cls-6" d="M108.54,145l-.74-2.89-.14,0,.43,2.8c-3.4-1.25-4.31-6.36-1.78-9.68A6.52,6.52,0,0,1,108.54,145Z"/><path class="cls-6" d="M174.52,199.87a6.48,6.48,0,0,1-1.81-9.76l.57,2.51h.14l-.25-2.58A6.47,6.47,0,0,1,174.52,199.87Z"/><path class="cls-6" d="M103.5,170.42c2.33,3.62,1.34,7.71-2.44,9.75l.4-1.91-.21-.08-.62,1.8C98.44,176.35,99.73,172.62,103.5,170.42Z"/><path class="cls-6" d="M159.05,197.54l-.5,2.28.16.06.74-2.1c2.4,2.73,1,7.32-2.87,9.39C154.11,204.22,155.37,199.16,159.05,197.54Z"/><path class="cls-6" d="M93,186.43c2.76-3.41,7-3.94,9.93-1.2l-3.26.51v.12l3.19-.19C101.35,189,96.13,189.37,93,186.43Z"/><path class="cls-6" d="M154.81,195.92h3.34c-2.59,3.13-6.66,3.24-9.88.37,1.75-3.31,7-3.83,9.89-.87l-3.37.35Z"/></g><g class="cls-7"><path class="cls-6" d="M183.21,176.86c-13.22-10.57-29.88-4.5-35.51,6.48a22.69,22.69,0,0,1,16.88-.59,19.71,19.71,0,0,1,8.51,5.81,21.36,21.36,0,0,0-14.63-5.29c3.8,3.89,4.38,7.93,1.13,12.23.16-.34.31-.67.48-1a7.76,7.76,0,0,0-3.53-10.5,3.33,3.33,0,0,0-1.95-.22,17.86,17.86,0,0,0-7.65,3.46,3,3,0,0,0-1,1.65c-2,10-1.13,19.8,1.49,29.5,1.24,4.58,2.93,17.22,4.45,21.71.14.41.3.8.51,1.34H127c.16-.45.29-.87.46-1.28,3.65-9,6.36-26.39,7-36.12.4-6.18.24-12.25-2.71-17.93a31.2,31.2,0,0,0-7.49-9.68,2.09,2.09,0,0,0-1.57-.39,12.33,12.33,0,0,0-7.45,19l.8,1.12c-2.57-1.68-3.93-5.3-4.21-11.08-3.59,1.36-7,1.09-10-1.45A7.89,7.89,0,0,1,99,177.8c1,3.55,3.18,5.9,6.83,6.62a7.87,7.87,0,0,0,5.8-1.06,2.47,2.47,0,0,0,1-1.09,13.66,13.66,0,0,1,7.74-8,3,3,0,0,0,.55-.34c-8.91-6.47-25.42-8.34-38.08,3.19,1-1.95,7-6.71,12.43-8.71a35.36,35.36,0,0,1,15.32-2,24,24,0,0,1-1.6-2.72,30.25,30.25,0,0,1-1.83-4.91,9,9,0,0,0-8.4-7.13,10.12,10.12,0,0,0-7.41,2.59c2.4-4.38,9.44-4.72,15.29-.73.8-7,4.06-12.21,10.37-15.37-1,.89-2.15,1.71-3.12,2.67a17.34,17.34,0,0,0,2,26.18,5.81,5.81,0,0,0,1.57.84,33.4,33.4,0,0,1,17.09,12.55l.32.4a.35.35,0,0,0,.12.08c-.39-2.42-.91-4.89-1.16-7.38A34.2,34.2,0,0,1,137,155.63a5.86,5.86,0,0,0,.52-2.21A13.77,13.77,0,0,0,123,139.48c-.25,0-.5,0-.85,0,7-2.14,14.27,2.57,17.64,11.67a16.45,16.45,0,0,0,1-13c-3.07-8.91-9.64-12.88-19-12.76,9.72-2.36,22.87,5.12,22.89,19.76A35.53,35.53,0,0,1,160.2,137a33.25,33.25,0,0,1,17.26.43,33.2,33.2,0,0,0-20.68,2.86c5.23.89,8.44,3.63,9.67,8.5a10.78,10.78,0,0,0-5.18-5.76c-3.57-1.68-7-1.64-10.23.94a31.51,31.51,0,0,0-10.52,15.49c-.1.32-.17.65-.31,1.21,4.73-3.58,9.47-3.94,14.35-.83-1-.33-2-.73-3-1A10.6,10.6,0,0,0,139.94,164a5.33,5.33,0,0,0-.72,2,30.92,30.92,0,0,0,3.15,17.07,4.83,4.83,0,0,0,.34.52c.66-1.06,1.26-2.08,1.91-3.06a22.25,22.25,0,0,1,8.34-7.64c3.55-1.83,5.3-4.87,6.42-8.41a16.4,16.4,0,0,0-.29-10.47c2.45,3.57,2.33,9.33-.35,16.31C168.12,168.16,176.3,170.24,183.21,176.86Z"/><path class="cls-6" d="M141.45,129.77c-.47-8.29,4.44-13.51,12.48-14,1.59,6.89-4.2,14.07-12,14.51l5-6.2-.24-.2Z"/><path class="cls-6" d="M124.94,122.87l-7.29-5.62-.16.2,6.93,6c-8.31.78-13.65-4.29-14.29-12.07C116.81,109.4,124.28,115.08,124.94,122.87Z"/><path class="cls-6" d="M96.14,149.13l-8.53-2.88-.09.24,8.23,3.28c-5.34,4-14.59.38-17.38-6.73C84.16,139.09,93.37,142.15,96.14,149.13Z"/><path class="cls-6" d="M185.05,125.23c-2.4,8-8.33,11.34-16.37,9.29l8.17-4.72-.11-.21-8.37,4.25C171,125.54,177.68,123,185.05,125.23Z"/><path class="cls-6" d="M180,156.85c-3.24,7.35-10.06,10.17-17.46,6.79l8.84-3.52-.07-.21-9,3C165.75,155.46,173,153.33,180,156.85Z"/><path class="cls-6" d="M116.62,126.6l-7.51,1.72.06.26,7.58-1.33c-4,6.25-10.87,7.31-16.92,3.12C103.35,124.44,110.24,122.24,116.62,126.6Z"/><path class="cls-6" d="M182.72,139.74l7.13,1.7.05-.24-7.06-2.12c6.87-3.78,12.78-1.17,16,4.63C194.31,147.75,185.52,145.67,182.72,139.74Z"/><path class="cls-6" d="M186.33,181l6,4.78.16-.18L187,180.7c5.33-2,12.32,4,12.44,10.68C193.49,193.15,187,188.15,186.33,181Z"/><path class="cls-6" d="M121.25,167.08v-8.17h-.44v8.22c-5.13-3.6-4.8-13,.29-16.71C125.9,155.16,126.76,161.72,121.25,167.08Z"/><path class="cls-6" d="M180.65,172.1l8.75-.78h-8.56c2.76-5,12.18-5.36,16.46-.54C192.88,176.06,186.28,177,180.65,172.1Z"/><path class="cls-6" d="M71.87,168.75a11.14,11.14,0,0,1,16.64.54H79.64l8.83.78C84.24,174.84,76.19,174.16,71.87,168.75Z"/><path class="cls-6" d="M133.3,119.2c.43,2.2.86,4.41,1.29,6.65-5.15-1.72-6.86-10.13-3.12-15,5.68,3.12,7.41,9.54,3.75,15l-1.7-6.6Z"/><path class="cls-6" d="M88.45,176.49l-2.21,4.82.25.13,2.43-4.55c2.66,4.76-1.1,11.9-6.85,13.22C79.74,184,82.42,178.51,88.45,176.49Z"/><path class="cls-6" d="M184.38,149c-5.68.63-11.06-2.63-11.42-9.6l4.59,3.76.16-.19-4.29-4C179.85,138.23,184.34,142.92,184.38,149Z"/><path class="cls-6" d="M180,183.57c-6.55.83-11-2.84-11.75-9.28l4.67,3.57.14-.18-4.23-3.79C174,172.35,180.16,177.82,180,183.57Z"/><path class="cls-6" d="M129.28,138.35l-1.57-1.87-.28.25,1.44,1.88c-4.3.32-8.08-4.22-7.23-8.61C126.37,130,130,133.84,129.28,138.35Z"/><path class="cls-6" d="M155.87,150.67a6.62,6.62,0,0,1-6.94,6.29,1.07,1.07,0,0,1-1.16-1.22C148.06,152.3,152.54,149.54,155.87,150.67Z"/><path class="cls-6" d="M123,196.43a6.59,6.59,0,0,1-8.27-4.6c-.25-.81.11-1.33,1-1.43A6.63,6.63,0,0,1,123,196.43Z"/><path class="cls-6" d="M166,126.5c1.2,3.44-1,7.61-4.47,8.34a1.59,1.59,0,0,1-1.29-.84C159.4,130.56,162.35,126.78,166,126.5Z"/><path class="cls-6" d="M113.29,196.59l.58,2,.17,0-.27-1.91c3.43,1.42,4.33,6,2,9.65C112.15,205,110.87,200.23,113.29,196.59Z"/><path class="cls-6" d="M177,189.82l-1.41-.49c2.89-2.4,7.23-1.18,9.52,2.62a6.47,6.47,0,0,1-9.76-2.17l1.62.2Z"/><path class="cls-6" d="M108.54,145l-.74-2.89-.14,0,.43,2.8c-3.4-1.25-4.31-6.36-1.78-9.68A6.52,6.52,0,0,1,108.54,145Z"/><path class="cls-6" d="M174.52,199.87a6.48,6.48,0,0,1-1.81-9.76l.57,2.51h.14l-.25-2.58A6.47,6.47,0,0,1,174.52,199.87Z"/><path class="cls-6" d="M103.5,170.42c2.33,3.62,1.34,7.71-2.44,9.75l.4-1.91-.21-.08-.62,1.8C98.44,176.35,99.73,172.62,103.5,170.42Z"/><path class="cls-6" d="M159.05,197.54l-.5,2.28.16.06.74-2.1c2.4,2.73,1,7.32-2.87,9.39C154.11,204.22,155.37,199.16,159.05,197.54Z"/><path class="cls-6" d="M93,186.43c2.76-3.41,7-3.94,9.93-1.2l-3.26.51v.12l3.19-.19C101.35,189,96.13,189.37,93,186.43Z"/><path class="cls-6" d="M154.81,195.92h3.34c-2.59,3.13-6.66,3.24-9.88.37,1.75-3.31,7-3.83,9.89-.87l-3.37.35Z"/></g></g><g id="words"><g class="cls-7"><path class="cls-8" d="M113.68,91.73a1.13,1.13,0,0,1,.13-.88l8.71-14.63a1.13,1.13,0,0,1,.71-.54,1.16,1.16,0,0,1,.89.13l7.93,4.72a.53.53,0,0,1,.26.35.51.51,0,0,1-.07.43l-1,1.75a.53.53,0,0,1-.35.26.55.55,0,0,1-.43-.06l-6.1-3.63-2.35,4,4.54,2.7a.58.58,0,0,1,.26.35.51.51,0,0,1-.07.43l-1,1.65a.56.56,0,0,1-.35.27.55.55,0,0,1-.43-.07l-4.53-2.7-2.75,4.6,6.1,3.63a.53.53,0,0,1,.26.35.51.51,0,0,1-.07.43l-1,1.74a.55.55,0,0,1-.35.27.51.51,0,0,1-.43-.07l-7.93-4.72A1.11,1.11,0,0,1,113.68,91.73Z"/><path class="cls-8" d="M129.69,101.47a.59.59,0,0,1,.07-.43l8-13.42-3.9-2.33a.56.56,0,0,1-.27-.35.52.52,0,0,1,.07-.43l1-1.74a.54.54,0,0,1,.34-.27.57.57,0,0,1,.44.07l10.65,6.34a.54.54,0,0,1,.26.35.51.51,0,0,1-.07.43l-1,1.75a.56.56,0,0,1-.34.26.51.51,0,0,1-.43-.07l-3.91-2.32-8,13.41a.56.56,0,0,1-.35.27.51.51,0,0,1-.43-.07L130,101.81A.56.56,0,0,1,129.69,101.47Z"/><path class="cls-8" d="M139.69,107.42a.59.59,0,0,1,.07-.43l9.32-15.65a.56.56,0,0,1,.35-.27.55.55,0,0,1,.43.07l1.86,1.11a.56.56,0,0,1,.27.35.6.6,0,0,1-.07.43l-3.74,6.28,6.88,4.1,3.74-6.28a.56.56,0,0,1,.35-.27.55.55,0,0,1,.43.07L161.44,98a.56.56,0,0,1,.27.34.62.62,0,0,1-.07.44l-9.32,15.65a.54.54,0,0,1-.35.26.51.51,0,0,1-.43-.07l-1.86-1.1a.58.58,0,0,1-.27-.35.59.59,0,0,1,.07-.43l4-6.7-6.88-4.1-4,6.7a.51.51,0,0,1-.35.26.55.55,0,0,1-.43-.06L140,107.77A.56.56,0,0,1,139.69,107.42Z"/><path class="cls-8" d="M156.19,117a1.14,1.14,0,0,1,.13-.88L165,101.53a1.16,1.16,0,0,1,1.6-.41l7.93,4.73a.49.49,0,0,1,.26.34.51.51,0,0,1-.07.43l-1,1.75a.58.58,0,0,1-.35.27.59.59,0,0,1-.43-.07l-6.1-3.63-2.35,4,4.53,2.7a.55.55,0,0,1,.27.35.51.51,0,0,1-.07.43l-1,1.65a.56.56,0,0,1-.35.27.55.55,0,0,1-.43-.07l-4.53-2.7-2.75,4.6,6.1,3.63a.53.53,0,0,1,.26.35.51.51,0,0,1-.07.43l-1,1.75a.57.57,0,0,1-.35.26.51.51,0,0,1-.43-.07l-7.93-4.72A1.11,1.11,0,0,1,156.19,117Z"/><path class="cls-8" d="M102.2,110.78a.55.55,0,0,1,.06-.43l9-15.14a1.11,1.11,0,0,1,.71-.54,1.14,1.14,0,0,1,.88.13l4.35,2.59a6.13,6.13,0,0,1,2.21,2.23,6,6,0,0,1,.79,3,5.64,5.64,0,0,1-.82,3,5.57,5.57,0,0,1-2.77,2.39,5.87,5.87,0,0,1-3.68.25l.3,8.28a.8.8,0,0,1-.1.38.56.56,0,0,1-.36.26.67.67,0,0,1-.47-.09l-1.9-1.14a.79.79,0,0,1-.42-.68l-.16-8.51L108.7,106,105.1,112a.52.52,0,0,1-.34.26.57.57,0,0,1-.44-.06l-1.86-1.11A.53.53,0,0,1,102.2,110.78Zm10.47-6a2.83,2.83,0,0,0,2.15.38,2.6,2.6,0,0,0,1.69-1.28,2.74,2.74,0,0,0,.34-2.13,2.79,2.79,0,0,0-1.36-1.71l-2.37-1.42-2.83,4.75Z"/><path class="cls-8" d="M116.23,118.93a1.1,1.1,0,0,1,.13-.88l8.71-14.63a1.11,1.11,0,0,1,.71-.54,1.18,1.18,0,0,1,.88.13l7.93,4.73a.56.56,0,0,1,.27.34.57.57,0,0,1-.07.44l-1,1.74a.56.56,0,0,1-.34.27.62.62,0,0,1-.44-.07l-6.09-3.63-2.35,4,4.53,2.7a.58.58,0,0,1,.27.35.55.55,0,0,1-.07.43l-1,1.65a.58.58,0,0,1-.35.27.55.55,0,0,1-.43-.07l-4.54-2.7L120.22,118l6.09,3.62a.58.58,0,0,1,.27.35.55.55,0,0,1-.07.43l-1,1.75a.52.52,0,0,1-.34.26.53.53,0,0,1-.44-.07l-7.93-4.72A1.09,1.09,0,0,1,116.23,118.93Z"/><path class="cls-8" d="M131.74,127.8a7,7,0,0,1-.81-3.67,8.34,8.34,0,0,1,1.21-3.87l5.86-9.83a.56.56,0,0,1,.35-.27.55.55,0,0,1,.43.07l1.86,1.11a.56.56,0,0,1,.27.34.62.62,0,0,1-.07.44l-5.93,9.95a4.59,4.59,0,0,0-.69,3.25,3.63,3.63,0,0,0,1.83,2.46,3.56,3.56,0,0,0,3,.41,4.5,4.5,0,0,0,2.53-2.15l5.92-10a.58.58,0,0,1,.35-.27.59.59,0,0,1,.43.07l1.86,1.11a.56.56,0,0,1,.27.35.55.55,0,0,1-.07.43l-5.86,9.84a8.21,8.21,0,0,1-2.82,2.91,6.87,6.87,0,0,1-7.27,0A6.88,6.88,0,0,1,131.74,127.8Z"/><path class="cls-8" d="M151.73,140.46a.81.81,0,0,1,0-.53l2.53-11.22.66-2.44-1.52,2-6.43,8.52a.79.79,0,0,1-.48.28.68.68,0,0,1-.51-.08l-1.75-1a.59.59,0,0,1-.3-.4.62.62,0,0,1,.14-.49l11.11-14.27a.8.8,0,0,1,.54-.35.89.89,0,0,1,.66.13l2.12,1.26a.82.82,0,0,1,.36.42.84.84,0,0,1,0,.54L156,135.61l-.49,1.88,1.4-1.31,9.92-8.67a.78.78,0,0,1,.49-.21.81.81,0,0,1,.54.13l1.93,1.14a.93.93,0,0,1,.43.53.84.84,0,0,1-.05.64l-7.25,16.57a.63.63,0,0,1-.37.35.58.58,0,0,1-.49-.07l-1.82-1.08a.8.8,0,0,1-.34-.43.67.67,0,0,1,0-.52l4.49-9.92,1-2.14-1.91,1.82-8.52,7.5a.91.91,0,0,1-.5.22.86.86,0,0,1-.54-.12l-1.77-1A.86.86,0,0,1,151.73,140.46Z"/><path d="M166.4,149.14a.37.37,0,0,1,0-.25l.58-1a.34.34,0,0,1,.21-.16.32.32,0,0,1,.25,0l2.09,1.24,6.69-11.25-2.08-1.24a.32.32,0,0,1-.16-.2.35.35,0,0,1,0-.26l.58-1a.33.33,0,0,1,.2-.15.3.3,0,0,1,.26,0L181,138.5a.29.29,0,0,1,.16.2.35.35,0,0,1,0,.26l-.58,1a.33.33,0,0,1-.2.15.3.3,0,0,1-.26,0L178,138.8l-6.7,11.25,2.08,1.24a.31.31,0,0,1,.16.21.32.32,0,0,1,0,.25l-.58,1a.35.35,0,0,1-.2.16.34.34,0,0,1-.26,0l-5.86-3.49A.37.37,0,0,1,166.4,149.14Z"/><path d="M176.88,155.47a6.74,6.74,0,0,1-1.28-1.86.25.25,0,0,1,0-.21.34.34,0,0,1,.13-.2l1-.65a.38.38,0,0,1,.4,0,.37.37,0,0,1,.14.14,6.84,6.84,0,0,0,2.45,2.74,4,4,0,0,0,2.56.62,2.59,2.59,0,0,0,1.93-1.3,2.27,2.27,0,0,0,.35-1.44,3.3,3.3,0,0,0-.48-1.32,19,19,0,0,0-1.14-1.6,19.81,19.81,0,0,1-1.53-2.16,4.67,4.67,0,0,1-.64-2,4.13,4.13,0,0,1,.67-2.43,4.39,4.39,0,0,1,1.9-1.81,4.25,4.25,0,0,1,2.41-.37,6.53,6.53,0,0,1,2.49.9A7.36,7.36,0,0,1,190,143.9a7.05,7.05,0,0,1,1.22,1.74.27.27,0,0,1,0,.22.35.35,0,0,1-.16.2l-1,.57a.36.36,0,0,1-.28.06.33.33,0,0,1-.23-.19,6.14,6.14,0,0,0-2.27-2.47,3.53,3.53,0,0,0-2.38-.58,2.4,2.4,0,0,0-1.76,1.24,2.23,2.23,0,0,0-.36,1.45,3.16,3.16,0,0,0,.46,1.32,15.52,15.52,0,0,0,1.15,1.61c.09.13.45.58,1.07,1.37a4.9,4.9,0,0,1,1.1,2.52,4.14,4.14,0,0,1-.62,2.65,4.5,4.5,0,0,1-4.48,2.32,6.6,6.6,0,0,1-2.76-1A9.3,9.3,0,0,1,176.88,155.47Z"/><path d="M93.41,129.11a9.19,9.19,0,0,1-1.42-2.2.41.41,0,0,1,0-.31.51.51,0,0,1,.19-.26l1.5-.87a.48.48,0,0,1,.54,0,.75.75,0,0,1,.26.27,6.45,6.45,0,0,0,2.31,2.69,3,3,0,0,0,2,.5,2,2,0,0,0,1.44-1,1.59,1.59,0,0,0,.25-1.12,2.84,2.84,0,0,0-.44-1.14A15.46,15.46,0,0,0,99,124.09l-.45-.61a9,9,0,0,1-1.46-2.94,4.21,4.21,0,0,1,.67-3.3,5,5,0,0,1,1.89-1.89,4.63,4.63,0,0,1,2.48-.57,5.73,5.73,0,0,1,2.66.85,8.35,8.35,0,0,1,3.32,3.83.38.38,0,0,1,0,.3.44.44,0,0,1-.18.27l-1.46.9a.48.48,0,0,1-.54,0,.68.68,0,0,1-.26-.27,7.59,7.59,0,0,0-1.1-1.66,5.46,5.46,0,0,0-1.17-1,2.36,2.36,0,0,0-1.77-.36,1.94,1.94,0,0,0-1.31,1,2,2,0,0,0-.2,1.68,7.76,7.76,0,0,0,1.25,2.19q.15.18,1.08,1.41a5.21,5.21,0,0,1,1.07,2.64,4.3,4.3,0,0,1-.64,2.73,5,5,0,0,1-2,1.92,4.81,4.81,0,0,1-2.63.55,6.42,6.42,0,0,1-2.86-.95A8.07,8.07,0,0,1,93.41,129.11Z"/><path d="M105.82,136a6.33,6.33,0,0,1-.81-3.18,6.11,6.11,0,0,1,.9-3.17l2.62-4.4a6.23,6.23,0,0,1,2.36-2.31,6.41,6.41,0,0,1,3.18-.79,6.44,6.44,0,0,1,5.5,3.27,6.42,6.42,0,0,1,.81,3.17,6.22,6.22,0,0,1-.9,3.18l-2.62,4.4a6.2,6.2,0,0,1-2.36,2.3,6.4,6.4,0,0,1-8.68-2.47Zm5.47.41A3.61,3.61,0,0,0,113,136a3.52,3.52,0,0,0,1.3-1.27l2.62-4.4a3.58,3.58,0,0,0,.5-1.75,3.66,3.66,0,0,0-.42-1.76,3.25,3.25,0,0,0-1.23-1.29,3.18,3.18,0,0,0-1.71-.46,3.51,3.51,0,0,0-1.75.47,3.45,3.45,0,0,0-1.3,1.27l-2.62,4.4a3.48,3.48,0,0,0-.5,1.75,3.55,3.55,0,0,0,.42,1.76,3.23,3.23,0,0,0,1.22,1.29A3.33,3.33,0,0,0,111.29,136.44Z"/><path d="M117.1,143a1,1,0,0,1,.11-.78l8-13.46a.47.47,0,0,1,.31-.24.52.52,0,0,1,.38.06l1.65,1a.47.47,0,0,1,.24.31.51.51,0,0,1-.06.38l-7.1,11.93,4.79,2.85a.49.49,0,0,1,.24.31.51.51,0,0,1-.06.38l-.93,1.56a.46.46,0,0,1-.3.23.49.49,0,0,1-.39-.06l-6.43-3.83A1,1,0,0,1,117.1,143Z"/><path d="M126.56,148.82a.52.52,0,0,1,.06-.42.74.74,0,0,1,.12-.16l12.69-11.11a.68.68,0,0,1,.44-.19.76.76,0,0,1,.48.11l1.61,1a.84.84,0,0,1,.33.37.76.76,0,0,1,0,.47l-3.73,16.46a.6.6,0,0,1-.07.18.55.55,0,0,1-.78.17l-1.49-.88a.74.74,0,0,1-.32-.38.72.72,0,0,1,0-.48l.84-3.53-4.83-2.88-2.7,2.42a.77.77,0,0,1-.45.2.74.74,0,0,1-.48-.1l-1.45-.86A.67.67,0,0,1,126.56,148.82Zm10.85-1.19L139,141.1l-5,4.51Z"/><path d="M140.8,157.31a.43.43,0,0,1,.06-.38l8-13.46a1,1,0,0,1,.63-.47,1,1,0,0,1,.79.11l3.86,2.3a5.32,5.32,0,0,1,2,2,5.21,5.21,0,0,1,.7,2.63,5.13,5.13,0,0,1-3.19,4.75,5.15,5.15,0,0,1-3.27.22l.27,7.36a.64.64,0,0,1-.09.34.48.48,0,0,1-.32.23.55.55,0,0,1-.41-.08l-1.7-1a.7.7,0,0,1-.36-.61l-.15-7.56-1-.6-3.2,5.37a.49.49,0,0,1-.31.24.51.51,0,0,1-.38-.06l-1.66-1A.48.48,0,0,1,140.8,157.31Zm9.3-5.38a2.46,2.46,0,0,0,1.91.34,2.31,2.31,0,0,0,1.51-1.13,2.37,2.37,0,0,0,.3-1.89,2.49,2.49,0,0,0-1.21-1.53l-2.11-1.26L148,150.68Z"/><path d="M81.18,146.21a.51.51,0,0,1,.06-.38l8-13.46a1,1,0,0,1,.64-.47,1,1,0,0,1,.78.12l3.68,2.19a5.45,5.45,0,0,1,2,2.07,5.65,5.65,0,0,1,.72,2.78,5.46,5.46,0,0,1-2.84,4.78,5.66,5.66,0,0,1-2.79.69,5.55,5.55,0,0,1-2.79-.79l-2.05-1.22-2.86,4.81a.52.52,0,0,1-.31.24.54.54,0,0,1-.39-.06l-1.65-1A.47.47,0,0,1,81.18,146.21ZM90,141.3a2.78,2.78,0,1,0,2.84-4.78l-1.94-1.15-2.84,4.77Z"/><path d="M95.9,154.48a6.33,6.33,0,0,1-.71-3.27,7.18,7.18,0,0,1,1.08-3.43l5.2-8.75a.51.51,0,0,1,.31-.23.5.5,0,0,1,.39.06l1.65,1a.56.56,0,0,1,.24.31.54.54,0,0,1-.06.39l-5.27,8.84a4,4,0,0,0-.61,2.89,3.49,3.49,0,0,0,4.3,2.56,4,4,0,0,0,2.24-1.92l5.27-8.84a.44.44,0,0,1,.31-.24.51.51,0,0,1,.38.06l1.65,1a.44.44,0,0,1,.24.31.52.52,0,0,1-.06.38l-5.21,8.74a7.37,7.37,0,0,1-2.51,2.6,6.37,6.37,0,0,1-8.83-2.43Z"/><path d="M107.39,161.82a.51.51,0,0,1,.06-.38l8.19-13.75a.68.68,0,0,1,.42-.32.66.66,0,0,1,.53.08l1.7,1a.74.74,0,0,1,.37.64l0,11.35,0,2.32,6-10a.49.49,0,0,1,.31-.24.51.51,0,0,1,.38.06l1.49.89a.49.49,0,0,1,.24.31.51.51,0,0,1-.06.38l-8.19,13.75a.7.7,0,0,1-.43.32.68.68,0,0,1-.52-.08l-1.72-1a.75.75,0,0,1-.37-.64l0-11.74,0-1.88-5.93,10a.49.49,0,0,1-.32.25.55.55,0,0,1-.37-.07l-1.49-.89A.49.49,0,0,1,107.39,161.82Z"/><path d="M130.2,175.57a.87.87,0,0,1-.43-.65l-1.14-8.66-.79-.47-3.42,5.75a.5.5,0,0,1-.31.24.51.51,0,0,1-.38-.06l-1.65-1a.46.46,0,0,1-.24-.31.51.51,0,0,1,.06-.38l8.28-13.91a.52.52,0,0,1,.31-.24.54.54,0,0,1,.39.06l1.65,1a.46.46,0,0,1,.23.31.43.43,0,0,1-.06.38l-3.47,5.83.69.4,8.31-3.14a.89.89,0,0,1,.79.08l1.88,1.12a.5.5,0,0,1,.23.29.42.42,0,0,1,0,.33.63.63,0,0,1-.26.21l-9.34,3.45,1.31,10.08a.58.58,0,0,1-.06.33.4.4,0,0,1-.26.19.45.45,0,0,1-.37-.07Z"/></g></g></svg>