<svg xmlns="http://www.w3.org/2000/svg" xmlns:xlink="http://www.w3.org/1999/xlink" viewBox="0 0 283.46 283.46"><defs><style>.cls-1,.cls-4{fill:none;}.cls-2{fill:#6f3ff4;}.cls-3{fill:#02e1ab;}.cls-10,.cls-4{stroke:#000;stroke-miterlimit:10;}.cls-5{clip-path:url(#clip-path);}.cls-6{fill:#11bb91;}.cls-7{fill:#67edcd;}.cls-8{fill:#b2ffec;}.cls-9{clip-path:url(#clip-path-2);}.cls-10{stroke-width:2px;}</style><clipPath id="clip-path"><polygon class="cls-1" points="98.97 47.66 199.95 47.66 250.44 135.11 199.95 222.56 98.97 222.56 48.49 135.11 98.97 47.66"/></clipPath><clipPath id="clip-path-2"><circle class="cls-1" cx="143.13" cy="-231.66" r="82.07"/></clipPath></defs><g id="profile"><path class="cls-2" d="M113.74,235.77a3.4,3.4,0,0,1-.81-.4.15.15,0,0,1-.05-.09.14.14,0,0,1,0-.11l.29-.52a.18.18,0,0,1,.16-.09.27.27,0,0,1,.12,0,2.2,2.2,0,0,0,1.16.39,1,1,0,0,0,.69-.22.68.68,0,0,0,.25-.54.55.55,0,0,0-.13-.38,1,1,0,0,0-.33-.26,4.94,4.94,0,0,0-.6-.26l-.24-.1a3,3,0,0,1-.94-.61,1.44,1.44,0,0,1-.39-1.09,1.76,1.76,0,0,1,.23-.89,1.52,1.52,0,0,1,.63-.6,2,2,0,0,1,.93-.22,2.57,2.57,0,0,1,.87.15,2.62,2.62,0,0,1,.78.4.1.1,0,0,1,.06.08.16.16,0,0,1,0,.12l-.27.52a.16.16,0,0,1-.16.09.27.27,0,0,1-.12,0,2.85,2.85,0,0,0-.61-.3,1.84,1.84,0,0,0-.53-.09.79.79,0,0,0-.58.21.64.64,0,0,0-.22.51.66.66,0,0,0,.24.53,2.86,2.86,0,0,0,.75.43s.24.09.57.23a1.91,1.91,0,0,1,.78.58,1.52,1.52,0,0,1,.28.92,1.74,1.74,0,0,1-.24.91,1.63,1.63,0,0,1-.68.62,2.16,2.16,0,0,1-1,.22A2.66,2.66,0,0,1,113.74,235.77Z"/><path class="cls-2" d="M118.58,235.63a2.16,2.16,0,0,1-.77-.79,2.07,2.07,0,0,1-.29-1.09V232a2,2,0,0,1,.29-1.09,2.16,2.16,0,0,1,.77-.79,2,2,0,0,1,1.07-.3,2.43,2.43,0,0,1,.94.19,1.89,1.89,0,0,1,.74.54.19.19,0,0,1,0,.14.25.25,0,0,1-.06.16l-.36.38a.19.19,0,0,1-.14.07.21.21,0,0,1-.14-.07,1.31,1.31,0,0,0-1-.44,1,1,0,0,0-.56.16,1.14,1.14,0,0,0-.42.45,1.28,1.28,0,0,0-.16.6v1.76a1.28,1.28,0,0,0,.16.6,1.11,1.11,0,0,0,.42.44,1,1,0,0,0,.56.17,1.34,1.34,0,0,0,1-.44.17.17,0,0,1,.14-.07.24.24,0,0,1,.14.06l.36.38a.23.23,0,0,1,.07.17.18.18,0,0,1,0,.13,2.15,2.15,0,0,1-.75.55,2.42,2.42,0,0,1-.94.18A2,2,0,0,1,118.58,235.63Z"/><path class="cls-2" d="M122.5,235.77a.15.15,0,0,1,0-.13v-5.55a.15.15,0,0,1,0-.12.17.17,0,0,1,.12-.05h.66a.17.17,0,0,1,.12.05.15.15,0,0,1,0,.12v2.23h2.45v-2.23a.17.17,0,0,1,0-.12.21.21,0,0,1,.13-.05h.66a.17.17,0,0,1,.12.05.18.18,0,0,1,.05.12v5.55a.19.19,0,0,1-.05.13.17.17,0,0,1-.12,0h-.66a.21.21,0,0,1-.13,0,.18.18,0,0,1,0-.13v-2.37h-2.45v2.37a.15.15,0,0,1,0,.13.17.17,0,0,1-.12,0h-.66A.17.17,0,0,1,122.5,235.77Z"/><path class="cls-2" d="M128.31,235.71a.36.36,0,0,1-.1-.25v-5.18a.34.34,0,0,1,.36-.36h2.81a.17.17,0,0,1,.12.05.18.18,0,0,1,.05.12v.62a.21.21,0,0,1-.05.13.17.17,0,0,1-.12,0h-2.16v1.4h1.61a.13.13,0,0,1,.12.05.17.17,0,0,1,.05.12v.59a.17.17,0,0,1-.17.17h-1.61v1.63h2.16a.17.17,0,0,1,.12.05.18.18,0,0,1,.05.12v.62a.19.19,0,0,1-.05.13.17.17,0,0,1-.12,0h-2.81A.36.36,0,0,1,128.31,235.71Z"/><path class="cls-2" d="M132.79,235.71a.32.32,0,0,1-.1-.25v-5.37a.18.18,0,0,1,.05-.12.17.17,0,0,1,.12-.05h.66a.21.21,0,0,1,.13.05.17.17,0,0,1,0,.12v4.76h1.92a.17.17,0,0,1,.12.05.18.18,0,0,1,.05.12v.62a.19.19,0,0,1-.05.13.17.17,0,0,1-.12,0H133A.34.34,0,0,1,132.79,235.71Z"/><path class="cls-2" d="M136.79,235.71a.32.32,0,0,1-.1-.25v-5.37a.15.15,0,0,1,.05-.12.17.17,0,0,1,.12-.05h.66a.17.17,0,0,1,.12.05.15.15,0,0,1,.05.12v4.76h1.92a.17.17,0,0,1,.12.05.18.18,0,0,1,.05.12v.62a.19.19,0,0,1-.05.13.17.17,0,0,1-.12,0H137A.34.34,0,0,1,136.79,235.71Z"/><path class="cls-2" d="M140.56,235.77a.19.19,0,0,1-.05-.13v-.56a.17.17,0,0,1,.05-.13.21.21,0,0,1,.13,0h.7v-4.06h-.7a.17.17,0,0,1-.18-.18v-.57a.18.18,0,0,1,.05-.12.21.21,0,0,1,.13-.05h2.4a.19.19,0,0,1,.13.05.18.18,0,0,1,.05.12v.57a.21.21,0,0,1-.05.13.19.19,0,0,1-.13.05h-.7v4.06h.7a.19.19,0,0,1,.13,0,.17.17,0,0,1,.05.13v.56a.17.17,0,0,1-.18.18h-2.4A.21.21,0,0,1,140.56,235.77Z"/><path class="cls-2" d="M144.45,235.77a.15.15,0,0,1,0-.13v-5.48a.22.22,0,0,1,.07-.17.21.21,0,0,1,.17-.07h.67a.26.26,0,0,1,.23.13l2,3.34.4.69v-4A.18.18,0,0,1,148,230a.17.17,0,0,1,.12-.05h.6a.17.17,0,0,1,.12.05.18.18,0,0,1,0,.12v5.49a.23.23,0,0,1-.07.17.26.26,0,0,1-.17.07h-.68a.26.26,0,0,1-.23-.13l-2-3.46-.32-.56v4a.17.17,0,0,1-.05.13.21.21,0,0,1-.13,0h-.59A.17.17,0,0,1,144.45,235.77Z"/><path class="cls-2" d="M151.15,235.63a2.14,2.14,0,0,1-1.09-1.88V232a2.14,2.14,0,0,1,.29-1.09,2.17,2.17,0,0,1,.8-.79,2.05,2.05,0,0,1,1.09-.3,2.49,2.49,0,0,1,1,.19,2,2,0,0,1,.76.54.19.19,0,0,1,0,.14.25.25,0,0,1-.06.16l-.37.38a.16.16,0,0,1-.13.07.26.26,0,0,1-.15-.07,1.34,1.34,0,0,0-1.05-.44,1.11,1.11,0,0,0-.59.16,1.24,1.24,0,0,0-.43.45,1.17,1.17,0,0,0-.16.6v1.76a1.17,1.17,0,0,0,.16.6,1.21,1.21,0,0,0,.43.44,1,1,0,0,0,.59.17,1.08,1.08,0,0,0,.58-.16,1,1,0,0,0,.43-.43,1.11,1.11,0,0,0,.16-.59v-.4h-1.11a.17.17,0,0,1-.12,0,.21.21,0,0,1-.05-.13v-.59a.17.17,0,0,1,.05-.12.13.13,0,0,1,.12-.05h1.74a.32.32,0,0,1,.25.1.34.34,0,0,1,.11.25v1a2.2,2.2,0,0,1-1.09,1.88,2.17,2.17,0,0,1-2.17,0Z"/><path class="cls-2" d="M157.61,235.77a.15.15,0,0,1-.05-.13v-5.36a.35.35,0,0,1,.1-.26.37.37,0,0,1,.25-.1h1.47a1.87,1.87,0,0,1,1,.26,1.93,1.93,0,0,1,.7.69,1.87,1.87,0,0,1,0,1.9,1.88,1.88,0,0,1-.7.7,1.86,1.86,0,0,1-1,.25h-.82v1.92a.15.15,0,0,1-.05.13.17.17,0,0,1-.12,0h-.66A.17.17,0,0,1,157.61,235.77Zm1.73-3a1,1,0,0,0,.95-1,.91.91,0,0,0-.28-.67.89.89,0,0,0-.67-.28h-.78v1.9Z"/><path class="cls-2" d="M163.35,235.63a2.09,2.09,0,0,1-.8-.79,2.07,2.07,0,0,1-.29-1.09V232a2,2,0,0,1,.29-1.09,2.23,2.23,0,0,1,1.89-1.09,2.12,2.12,0,0,1,1.1.3,2.14,2.14,0,0,1,.79.79,2.05,2.05,0,0,1,.3,1.09v1.76a2.08,2.08,0,0,1-.3,1.09,2.14,2.14,0,0,1-.79.79,2.11,2.11,0,0,1-1.1.29A2.07,2.07,0,0,1,163.35,235.63Zm1.68-.84a1.21,1.21,0,0,0,.43-.44,1.17,1.17,0,0,0,.16-.6V232a1.17,1.17,0,0,0-.16-.6,1.24,1.24,0,0,0-.43-.45,1.11,1.11,0,0,0-.59-.16,1.08,1.08,0,0,0-.58.16,1.27,1.27,0,0,0-.44.45,1.28,1.28,0,0,0-.16.6v1.76a1.28,1.28,0,0,0,.16.6,1.24,1.24,0,0,0,.44.44,1,1,0,0,0,.58.17A1,1,0,0,0,165,234.79Z"/><path class="cls-2" d="M167.46,235.77a.19.19,0,0,1-.05-.13v-.56a.17.17,0,0,1,.05-.13.17.17,0,0,1,.12,0h.7v-4.06h-.7a.17.17,0,0,1-.12-.05.21.21,0,0,1-.05-.13v-.57a.18.18,0,0,1,.05-.12.17.17,0,0,1,.12-.05H170a.17.17,0,0,1,.12.05.15.15,0,0,1,0,.12v.57a.17.17,0,0,1-.17.18h-.7v4.06h.7a.17.17,0,0,1,.12,0,.14.14,0,0,1,0,.13v.56a.15.15,0,0,1,0,.13.17.17,0,0,1-.12,0h-2.41A.17.17,0,0,1,167.46,235.77Z"/><path class="cls-2" d="M171.34,235.77a.19.19,0,0,1-.05-.13v-5.48a.26.26,0,0,1,.07-.17.23.23,0,0,1,.17-.07h.68a.24.24,0,0,1,.22.13l2,3.34.4.69v-4a.15.15,0,0,1,.05-.12.17.17,0,0,1,.12-.05h.59a.21.21,0,0,1,.13.05.18.18,0,0,1,.05.12v5.49a.24.24,0,0,1-.24.24h-.69a.25.25,0,0,1-.22-.13l-2-3.46-.33-.56v4a.14.14,0,0,1,0,.13.17.17,0,0,1-.12,0h-.59A.21.21,0,0,1,171.34,235.77Z"/><path class="cls-2" d="M178.35,235.77a.19.19,0,0,1,0-.13v-4.75h-1.38a.17.17,0,0,1-.18-.18v-.62a.18.18,0,0,1,0-.12.21.21,0,0,1,.13-.05h3.77a.21.21,0,0,1,.13.05.18.18,0,0,1,.05.12v.62a.17.17,0,0,1-.18.18h-1.38v4.75a.19.19,0,0,1-.05.13.17.17,0,0,1-.12,0h-.66A.21.21,0,0,1,178.35,235.77Z"/><path class="cls-2" d="M183.77,235.71a.32.32,0,0,1-.11-.24v-.66a2.44,2.44,0,0,1,.18-1,1.62,1.62,0,0,1,.53-.64c.24-.18.65-.44,1.22-.78A1.16,1.16,0,0,0,186,232a.79.79,0,0,0,.14-.47.72.72,0,0,0-.23-.55.89.89,0,0,0-.63-.21,2.05,2.05,0,0,0-1,.32l-.1,0A.16.16,0,0,1,184,231l-.28-.49a.29.29,0,0,1,0-.09.16.16,0,0,1,.07-.14,2.86,2.86,0,0,1,.75-.34,2.74,2.74,0,0,1,.85-.13,1.78,1.78,0,0,1,1.29.45,1.8,1.8,0,0,1,.19,2.18,3.29,3.29,0,0,1-.92.8l-.33.2a5.29,5.29,0,0,0-.55.36,1.3,1.3,0,0,0-.31.35.89.89,0,0,0-.12.47v.24h2.14a.17.17,0,0,1,.12,0,.13.13,0,0,1,0,.12v.61a.15.15,0,0,1,0,.13.17.17,0,0,1-.12,0H184A.33.33,0,0,1,183.77,235.71Z"/><path class="cls-2" d="M188.56,235.15a4.1,4.1,0,0,1-.53-2.29,4,4,0,0,1,.53-2.27,1.78,1.78,0,0,1,1.56-.78,1.75,1.75,0,0,1,1.55.78,5.17,5.17,0,0,1,0,4.56,1.73,1.73,0,0,1-1.55.77A1.77,1.77,0,0,1,188.56,235.15Zm2.17-.38a1.32,1.32,0,0,0,.34-.68,7.55,7.55,0,0,0,0-2.45,1.28,1.28,0,0,0-.34-.67.9.9,0,0,0-.62-.21.83.83,0,0,0-.61.22,1.32,1.32,0,0,0-.34.68,5.88,5.88,0,0,0-.1,1.24,3.9,3.9,0,0,0,.24,1.6.86.86,0,0,0,.82.48A.89.89,0,0,0,190.73,234.77Z"/><path class="cls-2" d="M193.18,235.71a.31.31,0,0,1-.1-.24v-.66a2.63,2.63,0,0,1,.17-1,1.73,1.73,0,0,1,.54-.64c.24-.18.65-.44,1.22-.78a1.16,1.16,0,0,0,.43-.38.86.86,0,0,0,.14-.47.72.72,0,0,0-.23-.55.89.89,0,0,0-.63-.21,2.05,2.05,0,0,0-1,.32l-.11,0a.18.18,0,0,1-.15-.09l-.27-.49a.29.29,0,0,1,0-.09.16.16,0,0,1,.07-.14,2.86,2.86,0,0,1,.75-.34,2.7,2.7,0,0,1,.85-.13,1.78,1.78,0,0,1,1.29.45,1.61,1.61,0,0,1,.47,1.22,1.65,1.65,0,0,1-.28,1,3.35,3.35,0,0,1-.93.8,3.64,3.64,0,0,1-.33.2,6.24,6.24,0,0,0-.54.36,1.15,1.15,0,0,0-.31.35.81.81,0,0,0-.13.47v.24h2.15a.17.17,0,0,1,.17.17v.61a.19.19,0,0,1-.05.13.17.17,0,0,1-.12,0h-2.77A.34.34,0,0,1,193.18,235.71Z"/><path class="cls-2" d="M197.48,235.71a.31.31,0,0,1-.1-.24v-.66a2.46,2.46,0,0,1,.17-1,1.62,1.62,0,0,1,.53-.64c.25-.18.65-.44,1.22-.78a1.2,1.2,0,0,0,.44-.38.85.85,0,0,0,.13-.47.71.71,0,0,0-.22-.55.89.89,0,0,0-.63-.21,2.08,2.08,0,0,0-1,.32l-.1,0a.16.16,0,0,1-.15-.09l-.27-.49a.16.16,0,0,1,0-.09.17.17,0,0,1,.08-.14,3,3,0,0,1,.74-.34,2.76,2.76,0,0,1,.86-.13,1.78,1.78,0,0,1,1.29.45,1.61,1.61,0,0,1,.46,1.22,1.58,1.58,0,0,1-.28,1,3.15,3.15,0,0,1-.92.8,3.64,3.64,0,0,1-.33.2,5.29,5.29,0,0,0-.55.36,1.3,1.3,0,0,0-.31.35.89.89,0,0,0-.12.47v.24h2.14a.21.21,0,0,1,.13,0,.16.16,0,0,1,0,.12v.61a.18.18,0,0,1,0,.13.21.21,0,0,1-.13,0h-2.76A.34.34,0,0,1,197.48,235.71Z"/><path class="cls-2" d="M100,226.67l.82-.11c0,.13,0,.25,0,.36l.12.92.12.91a.33.33,0,0,0,.16.28,5.93,5.93,0,0,1,.56.43l.13.09a12.26,12.26,0,0,0-.16-1.54c-.08-.51-.14-1-.21-1.55l.81-.11.53,4,.83.64,0,0,0-.28v-.31a7.85,7.85,0,0,1-.18-1.08l-.15-1.1c0-.24-.05-.48-.09-.73s0-.38-.08-.58,0-.33-.07-.5,0-.05,0-.09l.78-.11.21,1.55c.34-.41.63-.82,1-1.23l.62.47a.42.42,0,0,1,0,.1c-.36.47-.72.93-1.07,1.4l-.24.31a.24.24,0,0,0,0,.22c0,.27.07.55.11.82,0,0,0,.08,0,.15l1.91-2.5.64.48-.16.23-.77,1-.72.94-.71.93a.22.22,0,0,0,0,.13c0,.33.09.65.13,1,.13,0,.18-.16.25-.24s.22-.31.34-.46l.46-.6.74-1,.76-1,.3-.4.06-.05.63.48c-.29.41-.62.79-.92,1.22a5.72,5.72,0,0,0,.76-.08l.75-.11c.05.27.09.53.12.8l-.41.07-.9.12-.92.11a.25.25,0,0,0-.17.08l-.57.76s0,0,0,.06c.52,0,1-.13,1.55-.19l1.55-.21.1.8-.61.09-.71.08-.75.11-.85.11-.89.12a.24.24,0,0,0-.19.1c-.17.24-.36.47-.54.7l0,.1,4.69-.62c0,.16,0,.3.06.44s0,.22,0,.35c-.51.1-1,.12-1.5.22v0l1.21.92-.49.63a1.91,1.91,0,0,1-.21-.14l-.76-.58-.77-.6a.32.32,0,0,0-.31-.09c-.28.05-.57.07-.85.11l-.08,0c.41.35.84.65,1.25,1s.82.64,1.25,1l-.5.64-.38-.29-.84-.64-1.12-.87-.74-.56a.2.2,0,0,0-.18,0l-.52.07-.44.06s0,0,0,.06l1.1.86.9.69,1,.76.69.54-.48.63c-.42-.3-.81-.62-1.24-.93l.2,1.53c-.27.05-.53.08-.8.11a2.9,2.9,0,0,1-.06-.41l-.12-.9c0-.32-.08-.64-.13-1a.18.18,0,0,0,0-.1l-.81-.63,0,0,.41,3.07a3.15,3.15,0,0,1-.8.12c0-.13-.05-.27-.07-.42l-.09-.69-.09-.74c-.05-.35-.09-.71-.14-1.06s-.07-.53-.1-.79a.45.45,0,0,0-.2-.36c-.21-.14-.41-.3-.61-.46l-.09-.09a1.06,1.06,0,0,0,0,.4c0,.25.06.49.1.74s.07.45.1.68l.06.53,0,.23.12,1c0,.34.1.68.14,1,0,.05,0,.09,0,.15l-.77.1c-.1-.49-.13-1-.23-1.52-.18.2-.32.41-.48.61l-.46.61-.65-.49.16-.2.73-1,.47-.61a.3.3,0,0,0,.07-.24c0-.27-.07-.55-.11-.82a.82.82,0,0,0,0-.14c-.34.42-.64.84-1,1.24s-.62.81-.94,1.24a7.79,7.79,0,0,1-.65-.48l.16-.23L99.85,236l.93-1.2c.06-.08.11-.16.17-.23a.22.22,0,0,0,0-.19c0-.31-.08-.63-.13-1a1.06,1.06,0,0,0-.25.27l-.75,1-.94,1.22-.7.94-.26.32-.64-.49c.29-.41.6-.79.88-1.2-.5,0-1,.12-1.48.16l-.11-.81.1,0,.84-.11.76-.1.61-.08a.18.18,0,0,0,.07-.05c.19-.23.37-.47.55-.71l0-.09h-.2l-1.18.15-1.06.15-.56.08h-.07a4.17,4.17,0,0,1-.09-.8l.34-.05.87-.12.71-.09,1.34-.18.5-.06a.31.31,0,0,0,.23-.12l.54-.72v0a.4.4,0,0,0-.11,0l-.71.09-1,.14-1.09.15-.72.09-.89.12s-.05,0-.1,0l-.11-.8,1.53-.2a5.11,5.11,0,0,0-.61-.48l-.6-.48.49-.64.54.4,1.18.9,0,0a.28.28,0,0,0,.27.08c.28-.05.56-.08.84-.12l.05,0a.7.7,0,0,0-.06-.09l-.82-.62-.69-.53-.7-.53a2,2,0,0,1-.18-.15l.47-.63.11.05,1.21.92.86.67.9.69a.29.29,0,0,0,.22.06l1-.13c-.12-.1-.22-.19-.32-.26l-1-.78-1.33-1-1-.78c-.08-.05-.09-.07,0-.15s.27-.37.42-.57l1.2.91h0Zm1.5,5.07a3.85,3.85,0,0,0,.07.52.37.37,0,0,1-.08.32.88.88,0,0,0-.12.15c-.06.09-.17.16-.18.28.16.13.31.25.47.36a.19.19,0,0,1,.08.15c0,.09,0,.18,0,.28s0,.21,0,.32c.17,0,.33,0,.48-.07a.4.4,0,0,1,.38.1l.38.29.37-.47a.16.16,0,0,1,.15-.09l.42-.06.18,0c0-.19,0-.37-.08-.55a.26.26,0,0,1,0-.21c.11-.12.2-.26.3-.39l.06-.1c-.13-.1-.24-.2-.36-.28a.41.41,0,0,1-.22-.36s0-.07,0-.1,0-.24,0-.37l-.35,0c-.34.06-.34.06-.56-.1l-.06-.05-.3-.23s0,0,0,.07-.19.25-.29.38a.24.24,0,0,1-.2.13l-.18,0Z"/><path class="cls-3" d="M103,233.84a1.52,1.52,0,0,1-.23-.16.33.33,0,0,0-.34-.08l-.23,0a1,1,0,0,1,0-.15,1.2,1.2,0,0,1,0-.2.2.2,0,0,0-.1-.16l-.26-.21c.09-.11.15-.2.22-.3a.17.17,0,0,0,0-.18,2.69,2.69,0,0,1-.05-.32l.45-.07.26-.35a1.27,1.27,0,0,1,.21.15.33.33,0,0,0,.35.09l.25,0a1.28,1.28,0,0,1,0,.17.5.5,0,0,0,.25.44.57.57,0,0,1,.13.1,1.21,1.21,0,0,1-.15.22.32.32,0,0,0-.07.35.79.79,0,0,1,0,.23,1.18,1.18,0,0,1-.25,0,.3.3,0,0,0-.27.14C103.11,233.68,103,233.75,103,233.84Z"/><path class="cls-4" d="M257.56,130.44l-50-86.6a9.34,9.34,0,0,0-8.1-4.68h-100a9.33,9.33,0,0,0-8.1,4.68l-50,86.6a9.35,9.35,0,0,0,0,9.35l50.19,86.94a5.57,5.57,0,0,1,.6,3.94A10.18,10.18,0,0,0,102.46,243h95a10.42,10.42,0,0,0,10.51-9.4,10.27,10.27,0,0,0-.29-3.34,6.84,6.84,0,0,1,.69-5.14l49.24-85.29A9.35,9.35,0,0,0,257.56,130.44Z"/></g><g id="background"><g class="cls-5"><rect class="cls-6" x="48.34" y="21.47" width="196.03" height="202.79" transform="translate(292.7 245.73) rotate(180)"/><path class="cls-6" d="M59,52.53c2.44,1.37,5.09,2.36,7.66,3.49a6.19,6.19,0,0,0,1.29.29l.22-.39-2-1.54A22.18,22.18,0,0,1,64,52.62a2.51,2.51,0,0,1-.79-1.52c0-2.08-1.14-3.47-2.42-4.89A3.82,3.82,0,0,1,59.67,44a4.89,4.89,0,0,0-1.89-4.17,1.8,1.8,0,0,1-.63-2.07c.7-3.49.07-5.48-4.18-7.29a26.93,26.93,0,0,0-4.63-1.09V21.47H408.85v83.08c-1.14-.24-2.28-.5-3.43-.71-1.59-.28-1.92,0-1.92,1.64,0,6.73,0,13.46,0,20.18a5.33,5.33,0,0,1-1.57.54c-3.61,0-7.22,0-10.82,0A5.42,5.42,0,0,1,390,126l2.45-3.58-.15-.2c-1.75,1-3.55,2-5.25,3.08a1.81,1.81,0,0,1-2.28,0c-1.5-1-3.07-1.81-4.6-2.71l.83-.83a5.62,5.62,0,0,1,1,.56c2.71,2.54,5.38,2.22,8.09,0,.61-.5,1.37-.8,2-1.28.25-.19.32-.62.47-.94q-3.11-5.19-6.23-10.38c-.35.18-.85.27-1,.56-1.25,2-2.44,4-3.64,5.94-1.24-.2-2.49-.39-3.72-.61-.8-.15-1.15.08-1,.94.19,1.57.32,3.15.51,4.73.23,1.87.36,1.94,2.18,1.38.76,1.11,1.53,2.22,2.29,3.34a3.08,3.08,0,0,1-.8.25c-4.16,0-8.32,0-12.47,0-.38,0-.74-.33-1.11-.51,0-1.87.08-3.74-.05-5.6a4,4,0,0,0-.93-2.22c-1.28-1.46-2.72-2.77-4.09-4.14l-.57.17v11.51c-.89.79-4.52,1.3-5.43.59a2.43,2.43,0,0,1-.72-1.68c-.08-2.71,0-5.43,0-8.15,0-7.36,0-14.71,0-22.07a18.51,18.51,0,0,0-.27-2.21l-3.1-2.8h-4.51a15.11,15.11,0,0,0-1.8,2.39c-2.81,5.74-5.55,11.52-8.32,17.29-.22.47-.39,1-.59,1.43a16.26,16.26,0,0,0-.26,2.07c0,3.94,0,7.88,0,11.82,0,2-.19,2.16-2.19,2.16H289.22l-1.54,0a1.21,1.21,0,0,0-1.33,1.31l-.09,8.69c0,2.2,0,4.39-.08,6.58-.07,1.69.32,2.25,2,2.26,3.52,0,7,0,10.56,0,.53,0,1.06.09,1.59.14l0,.43a6.92,6.92,0,0,1-1.33.25c-5,0-9.95,0-14.92,0-1.28,0-1.74-.48-1.75-1.74,0-2.25-.15-4.49-.24-6.73q-.3-16.87-.61-33.76c-.12-7-.21-14.07-.31-21.1,0-.71.1-1.41.07-2.11-.05-1.09.61-1.48,1.52-1.68s1.19.53,1.39,1.19c.42,1.4.87,2.78,1.19,4.2s.85,1.38,1.86.72c1.31-.86,2.67-1.65,4.32-2.67-1.57-1.14-2.85-2.05-4.1-3a11.34,11.34,0,0,1-1.16-1.14,6.28,6.28,0,0,1,1.26-1c9.49-3.9,18.06-9.35,26.31-15.35,2.16-1.58,4.21-3.31,6.4-4.83a26.4,26.4,0,0,1,10.13-4c11.18-2.18,21.91-.06,32.54,3.26l1.75.53a2.8,2.8,0,0,0,.59-.11c-1.34-.71-2.44-1.36-3.58-1.88a12.54,12.54,0,0,1-4.86-3.91,20.7,20.7,0,0,0-9.41-6.42,3,3,0,0,1-2.09-2.19,7.21,7.21,0,0,0-4.09-4.43c-4.88-2.29-9.88-2.82-14.95-.56l-.25.12c-.67.39-1.43,1.18-2,1.06s-1-1.16-1.52-1.74c-5.07-5.38-11.35-7.06-18.47-5.8-5.6,1-10.45,3.44-13.83,8.17A14.51,14.51,0,0,0,287.38,50c.2,1.28-.15,2-1.52,2.34a9.12,9.12,0,0,0-6.28,4.11c-2,3.27-1.91,6.67-.61,10.13.38,1,1.32,2.13,1.07,2.9a10.36,10.36,0,0,1-2.54,4,14.16,14.16,0,0,1-8.61,3.78c-1.22.15-1.71-.32-1.71-1.55,0-1.54-.16-3.08-.24-4.62V58.91h-.64V75.54c-.16,1.67-1.15,2.16-2.7,2a54.62,54.62,0,0,0-6.26-.43,5,5,0,0,0,1.1.81c1.81.74,3.62,1.51,5.49,2.09,2.05.64,2.08.55,2.11,2.76,0,.33,0,.66,0,1-.12,10.42-.22,20.84-.36,31.26q-.25,19.35-.55,38.71-.26,16.47-.55,32.94a11.33,11.33,0,0,1-.15,1.29l-.38.08-1.38-2.72c-.35,2.19-.64,4-.94,5.89l-.31,0-1.22-2.12-1.59,7.07c-1.18-.5-1.18-.5-1.28-2.6l-2.31,1.69c.32-1.7.57-3,.86-4.55l-1.57,1.23c-.06-.63-.14-1.1-.14-1.57q-.17-9.22-.31-18.44-.28-17.67-.58-35.33-.25-14.93-.55-29.85c-.2-10.5-.4-21-.81-31.52q-1,57.27-2,114.54l-.19.05-.55-1.71H249l-.39,5.12c-1.28-1.42-2.27-2.54-3.26-3.65l-.4.07c0,.89,0,1.78,0,2.67,0,1.41.19,2.82.13,4.22a5.77,5.77,0,0,1-.71,1.8q0-14.57-.06-29.11,0-21.43,0-42.88c0-2.3-1.31-4-2.83-5.47-1.13-1.11-2.41-2.08-3.62-3.11L237,117a9.94,9.94,0,0,1-.33-1.41c-.17-1.67-.18-3.37-.47-5a9.77,9.77,0,0,0-3.91-6.4C223.08,97.14,214,90,204.76,83a8.09,8.09,0,0,0-2.09-1.12c-2.61-.93-3.89-.1-4.23,2.67a21.2,21.2,0,0,0-.24,2.36q0,55.2,0,110.39c0,.51,0,1,0,1.55,0,1.09-.49,1.51-1.55,1.48-1.5,0-3,0-4.5,0-1.67,0-1.85-.18-1.85-1.89,0-7.27,0-14.55,0-21.82,0-6.05-.18-12.1-.24-18.15,0-1.49.07-3,.1-4.48,0-1-.52-1.28-1.43-1.27-4.84,0-9.67,0-14.5,0-1.47,0-1.66.83-1.66,2,0,7.51,0,15,0,22.53,0,2.45-.05,2.49-2.54,2.51-.08-2.43-.15-4.87-.23-7.31q0-10.56-.1-21.12l-.24-6.77-4.19-1.94c-1.62,1.87-3.23,3.75-4.9,5.57-.26.28-.85.26-1.28.38a4.3,4.3,0,0,1,.38-1.43c.76-1.06,1.69-2,2.43-3.08.21-.32,0-.93,0-1.41-.46.14-1.12.13-1.35.44a15.61,15.61,0,0,1-7.25,5.78c-.31.12-.41.78-.61,1.19.38.14.82.47,1.14.38a15.85,15.85,0,0,0,2.46-1c.77-.35,1.35-.31,1.72,1l-6.29,2.85-.49.07a13.1,13.1,0,0,0-.32,2c0,7.46,0,14.92-.05,22.38a6.05,6.05,0,0,1-.59,1.82,5.71,5.71,0,0,1-.76-1.85c-.06-5.2,0-10.4,0-15.6q-.1-17.1-.25-34.19c0-1.9,0-3.8,0-5.7l-.44-.23-3.34,3.45a7.06,7.06,0,0,1-.81,1c-2.18,1.56-2.55,3.71-2.51,6.27.12,9.85,0,19.71,0,29.56,0,2.25-.06,2.29-2.28,2.3l-8.45,0c0-5.57,0-11.14,0-16.71,0-3.83,0-7.67,0-11.5s.05-7.76.11-11.64c0-2.75.07-5.51.26-8.25a3.91,3.91,0,0,0-1.59-3.76,16.29,16.29,0,0,1-1.23-1.13,4.6,4.6,0,0,0-.77-.25c-2.42-.23-2.41-.23-2.48-2.67a8.23,8.23,0,0,0-.19-1.21c-1.71,0-3.42,0-5.14-.09a12.84,12.84,0,0,1-1.61-.26c-.41-2.62-.07-4.81,3.11-5.35a11.42,11.42,0,0,0,4.76-15.84,22.74,22.74,0,0,0-2.48-2.83,4.58,4.58,0,0,0-1.11-.84,2.39,2.39,0,0,1-1.81-2.75c0-.31-.47-.67-.72-1-.27.28-.67.51-.78.84-.21.64-.26,1.45-1.16,1.21-.36-.1-.55-.78-.85-1.18s-.48-.58-.73-.87c-.24.3-.67.58-.7.9-.08,1-.74,1-1.48,1.35a56,56,0,0,0-5.65,2.67c-1.12.61-1.33,1.5-.15,2.39a3.33,3.33,0,0,1,.55.8c-2.29,3.43-2.19,6.87-.05,10.32-2,1.3-1.58,3.32-1.43,5.2,0,.29.79.72,1.23.74,2,.08,3.93.08,5.9,0,1.13,0,1.66.38,1.59,1.55,0,.89,0,1.78,0,2.68-1.82,0-3.64.11-5.47.08-1,0-1.5.29-1.49,1.43,0,3,.32,2.75-2.85,2.68-1.83,0-3.47.07-4.41,1.9a5.42,5.42,0,0,0-.68,2c-.09,1.59,0,3.18,0,4.77,0,1.25,0,2.49,0,3.73,0,2.88,0,5.76,0,8.65a9.72,9.72,0,0,0,.23,1.5c-.43.27-.83.72-1.27.76a33.45,33.45,0,0,1-3.47,0c-.16-3.43-.16-3.43-3.61-3.13-1.68.15-1.78.08-1.79-1.58,0-3.13-.06-6.27,0-9.4,0-1.31-.44-1.77-1.7-1.64-.74.07-1.49,0-2.24,0a10.06,10.06,0,0,1-.52-2c-.08-1.43,0-2.87-.24-4.32-.71,2,0,4.13-.66,6.07l-.78,0v-9.45l-.63,0a9,9,0,0,0-.25,1.44q-.18,9.69-.33,19.37c0,1.79-.11,1.87-2,1.89-.37,0-.75,0-1.12,0-1-.06-1.44.39-1.46,1.41s-.17,1.85-.26,2.77l-4.74.93-.84,0c-.9.07-1.16.63-1.15,1.44s0,1.86,0,2.78l-21,5.34c-1,.14-.93.92-.93,1.61l0,22.28,0,1.42H48.34V64.27c3,.61,5.94,1.34,8.95,1.8,3.7.55,7.44.94,11.17,1.28,6.39.58,12.79,1.07,19.18,1.6a1.32,1.32,0,0,0,1-.3,37.33,37.33,0,0,0-3.85-1C78.68,66.8,72.55,66,66.42,65.14,61,64.37,55.48,63.56,50,62.78c-.56-.08-1.12-.14-1.67-.2V46C51.87,48.16,55.34,50.49,59,52.53ZM318.82,68.84l.76,3.89c-5.38,2.42-10.88,4.62-16.11,7.34a72.4,72.4,0,0,0-17,12.57c-.06,0-.06.17-.18.59.57-.38.94-.6,1.27-.86a103.35,103.35,0,0,1,24.65-14.22c3.25-1.35,6.61-2.39,9.94-3.54a9.08,9.08,0,0,1,1.66-.21l4.56.82-1.2-1.65c2.28-.66,4.53-1.45,6.84-2a124.75,124.75,0,0,1,29.49-2.55,4.45,4.45,0,0,0,1.87-.27,10.6,10.6,0,0,0-1.34-.27c-3.7-.21-7.39-.42-11.08-.6A90.42,90.42,0,0,0,326.08,71c-.59.15-1.15.39-1.72.59ZM216.43,61.2c-1-1.22-2.09-2.38-3-3.68a13.28,13.28,0,0,0-6.78-5c-1.37-.49-2.15-1-2.3-2.76-.33-3.88-4.64-7.14-8.7-6.8a2.08,2.08,0,0,1-2.49-1.4c-2.25-5.48-10.63-8.82-15.75-7.79A7.83,7.83,0,0,0,170.82,40c-.28,1.18-.6,1.59-2,1.31A8.92,8.92,0,0,0,158.17,50c0,1.72-.27,2.06-2,1.82a41.12,41.12,0,0,1-6.28-1.45c-2.22-.68-4.36-1.63-6.7-2.26.79.73,1.56,1.49,2.38,2.19A35.43,35.43,0,0,0,165.82,59a109.76,109.76,0,0,0,14.61-.26c5.56-.29,11.12-1.08,16.68-1.17a38.12,38.12,0,0,1,18.5,4.13,10.46,10.46,0,0,0,1.25.49l.2-.32C216.85,61.65,216.63,61.44,216.43,61.2ZM135.3,77.36c11.26-2.3,22.13.18,33,2.52C161.33,74.45,141.48,72.94,135.3,77.36Zm45.18-14.94c10-1.24,19.73.4,29.54,1.83C200.35,61.12,190.54,59.76,180.48,62.42ZM301.2,110.5a1.78,1.78,0,0,0-1.28-1.09c-1.48-.15-3,0-4.63,0,1.13,3,3.61,4.65,5.5,6.84l.73-.34C301.43,114.08,301.42,112.28,301.2,110.5Zm70.26-19.84-.39.25.64,4.57.45.21,3-3.2Z"/><path class="cls-6" d="M67.16,224.85H83.49c1.15-1.28,2.2-2.67,3.46-3.83a4.9,4.9,0,0,0,1.64-4q-.06-33.36,0-66.71c0-.42,0-.84,0-1.27a1.25,1.25,0,0,0-1.4-1.39H84.62c-5.21,0-10.41,0-15.62,0-2,0-2.11.11-2.12,2.17,0,.29,0,.57,0,.85Q67,187.78,67.16,224.85Z"/><path class="cls-6" d="M234.82,120.28l0,.32c0,24.73-.1,49.46.09,74.19a12.25,12.25,0,0,1-3.36,8.84,6.44,6.44,0,0,0-1.83,5.1c.11,1.41,0,2.84,0,4.58l1.74-.92a2.84,2.84,0,0,1,.36,1c0,1.78,0,3.57-.18,5.33a2,2,0,0,1-.95,1.35c-1.28.64-1,1.71-.88,2.69s1,.88,1.75,1,1.59.36,2.38.55H207.47a6.18,6.18,0,0,1,1.7-.53c1.88,0,3.75,0,5.62.12,1.05.06,1.6-.24,1.69-1.34.14-1.8-.16-2.4-1.46-2.45-1.59-.05-3.18,0-4.78,0-1.3,0-2.62.09-3.91,0a1.63,1.63,0,0,1-1-1,5.72,5.72,0,0,1-.07-1.81q0-48.21.05-96.42c0-2.61-.24-4.63-3.17-5.28l-.48-.3-3.12-2.45v-1.27l1.07.93,2,1.66a29.76,29.76,0,0,0,2.82,1.54,2,2,0,0,1,1.4,2.29c-.05.51,0,1,0,1.54q0,48.22,0,96.45c0,.57,0,1.13,0,1.69,0,1.32.63,1.86,1.9,1.85q3.52,0,7,0c1.23,0,1.81-.36,1.8-1.81q-.08-25,0-50c0-3.37.25-6.75,0-10.11-.13-1.81-1-3.57-1.62-5.34-.84-2.44-1.84-4.82-2.56-7.29a3.85,3.85,0,0,1,.36-2.61,16.67,16.67,0,0,1,2.53-3.54A4.72,4.72,0,0,0,216.5,135c-.07-1,0-1.94,0-2.9l-.6-.18-3.6,8.12-.39-.09V113l4.37,3.53c.22-1.3.38-2.27.61-3.65,1.29,1,2.39,1.83,3.44,2.71,2.47,2.09,4.88,4.25,7.38,6.29a5.06,5.06,0,0,1,2.07,4.32q-.09,36.67,0,73.35v3.75l.53.22c.53-.59,1-1.2,1.59-1.76A7.87,7.87,0,0,0,234,195.8c-.09-25.44-.06-50.88-.06-76.32l2-1.42L237,117l.89.8Zm-8,98.67c1.11,1.07,2.45.51,3.63.31.33-.06.55-1.29.65-2a8.76,8.76,0,0,0,0-2.23c0-.33-.35-.64-.54-1Zm-7.73-96.27c.89-2,.89-1.92-.74-3.18-2-1.55-3.83-3.38-5.73-5.09a7.3,7.3,0,0,0-.36,1.61q0,9.93,0,19.85c0,.35.35.69.53,1C214.91,132.16,217,127.41,219.1,122.68ZM217.52,137c-1.47,2-3,4-4.38,6a1.58,1.58,0,0,0-.25,1.25q3.59,10,7.25,19.93s.07.05.22.17v-31.1C219.25,134.73,218.38,135.87,217.52,137Zm2.7,69.41c.62-.94.67-24.93.05-26.05C219.67,181.32,219.63,205.29,220.22,206.43Zm4.54-.24h.34V188.31h-.34Z"/><path class="cls-7" d="M131.35,198.8c0,.79-.13,1.58-.2,2.36l-1.42.84-1.18.82-3,1.75-.65.49-1,.36a14.56,14.56,0,0,1-.28-2.06c0-4.36,0-8.73,0-13.09,0-1.34-.46-1.88-1.81-1.79a34.24,34.24,0,0,1-3.51,0,6.65,6.65,0,0,1-1.24-.25l0-.45a5.09,5.09,0,0,1,1.28-.39c1.27-.06,2.54-.07,3.8,0,1.1,0,1.51-.46,1.49-1.52,0-2,0-4,0-6,0-1-.37-1.42-1.44-1.33a36.81,36.81,0,0,1-4.2,0c-.32,0-.62-.4-.92-.61.32-.21.63-.59,1-.61,1.35-.07,2.72-.08,4.08,0,1.06,0,1.54-.41,1.52-1.49,0-1.93,0-3.85,0-5.77,0-1.08-.41-1.55-1.5-1.51s-2.43,0-3.65,0a10,10,0,0,1-1.41-.26l0-.49a6.42,6.42,0,0,1,1.38-.37c1.31,0,2.63,0,3.94,0,.88,0,1.28-.4,1.28-1.28,0-2.11,0-4.22,0-6.33,0-1-.41-1.37-1.35-1.36-1.79,0-3.57,0-5.35,0l-.11-.81c1.67-.1,3.34-.29,5-.27,1.3,0,1.89-.38,1.84-1.76-.08-1.91,0-3.83,0-5.74,0-1.05-.37-1.57-1.47-1.53-1.26,0-2.52,0-3.78,0-1.08,0-1.53.43-1.51,1.5,0,1.92,0,3.83,0,5.75,0,.69-.15,1.38-.23,2.08-1.58,1.59-3.21,3.14-4.73,4.8a3.45,3.45,0,0,0-.95,2.06q-.06,29.93,0,59.87H107.2c0-14.3,0-28.61,0-42.91A3.46,3.46,0,0,0,105.5,178c-2.23-1.39-4.31-3-6.49-4.45a2.93,2.93,0,0,1-1.42-2.7c0-3.93,0-7.87,0-11.8s-.16-8.15-.25-12.23c4.88-1.79,9.76-3.56,14.63-5.37,1.35-.5,2.65-1.11,4-1.68.29.46.79.9.82,1.38.12,1.49.07,3,0,4.5,0,1,.39,1.47,1.42,1.45,1.31,0,2.63,0,3.94,0,1,0,1.4-.49,1.39-1.47,0-2,0-4,0-6.05,0-1.1-.46-1.48-1.53-1.47-3.18,0-6.36,0-9.55,0a7.33,7.33,0,0,1-1.44-.28l0-.43a20.54,20.54,0,0,1,2.79-.38c2.72-.06,5.44-.05,8.16,0,1.14,0,1.62-.41,1.59-1.57q-.06-3,0-5.91c0-1.17-.52-1.57-1.62-1.56-2.67,0-5.35,0-8,0-1,0-2-.24-3-.37v-.61c1-.12,2-.33,3-.35,2.67,0,5.35-.09,8,0,1.24.06,1.57-.36,1.54-1.49-.06-1.92,0-3.85,0-5.77,0-1.14-.42-1.6-1.57-1.58-2.63,0-5.26,0-7.88,0-1,0-2-.19-3-.3L111,117a10.4,10.4,0,0,1,1.72-.32c3,0,5.91,0,8.86,0,1.85,0,2-.09,1.94-1.88,0-1.25.23-2.47-.87-3.65-.57-.61-.23-2.06-.3-3.13,2.51-.1,2.55-.1,2.56,2.5,0,1.12.38,1.45,1.49,1.43,3-.06,4.71,1.69,4.71,4.75,0,5.87,0,11.74,0,17.6a18.52,18.52,0,0,0,.22,2.09c0,3.83,0,7.67,0,11.5,0,5.57,0,11.14,0,16.71Q131.39,181.68,131.35,198.8Zm-3.59-76.86q.06,34.56,0,69.13a12.19,12.19,0,0,0,.2,1.58h.46c.06-.64.15-1.28.15-1.92q0-33.58,0-67.16c0-1.77.08-3.37,1.66-4.5.19-.14.26-.44.38-.67l-.35-.25C129.08,119.15,127.76,120,127.76,121.94ZM101.14,151.3a2,2,0,0,0-.92,1.38c-.11,1.68,0,3.38,0,5.06,0,.88.39,1.21,1.25.87l.13-.05c4.09-1.64,3.32-1,3.39-4.71,0-1.2,0-2.4,0-4A38.5,38.5,0,0,0,101.14,151.3Z"/><path class="cls-3" d="M106.36,224.26c0-14.17,0-28.35,0-42.52a3.38,3.38,0,0,0-1.7-3.37c-1.92-1.16-3.71-2.53-5.57-3.8a14.55,14.55,0,0,0-1.4-.73c-.34,17,.13,33.71.19,50.42H82.7a50.43,50.43,0,0,1,3.46-3.83,4.94,4.94,0,0,0,1.64-4q-.08-33.36,0-66.72c0-.42,0-.84,0-1.26a1.24,1.24,0,0,0-1.39-1.39l-2.53,0H68.21c-2,0-2.12.11-2.13,2.18v.84q.15,37.08.28,74.16H65c.19-3.12.47-6.23.53-9.35,0-1.88-.23-3.77-.37-5.66l-.45-.05c-.21,1-.38,2.09-.63,3.12a12.52,12.52,0,0,1-.65,1.77c-.25.6-.75,1.19.41,1.46a1.27,1.27,0,0,1,.56,1c-.18,1.61-.45,3.21-.73,4.8-.17,1-.42,1.91-.64,2.86H62.7c-.08-.87-.16-1.74-.25-2.62l-.59,0v2.58H60.73c0-2.62,0-5.24,0-7.86a10.82,10.82,0,0,1,.53-2.27,2.75,2.75,0,0,0,1.63-3.21c-.18-1.41-.33-2.81-.5-4.21l2.8-.87c-.37-5.57,1.37-11.53.27-17.51l-.58,0a13.51,13.51,0,0,0-.23,1.66c0,3.23,0,6.45,0,9.68,0,.82.06,1.59-1.1,1.77-.32,0-.65.73-.78,1.18s0,1-.13,1.53-.46.65-.71,1c-.29-.35-.83-.7-.83-1a7.76,7.76,0,0,1,.45-2.31,1.55,1.55,0,0,0-.82-2.11,2.29,2.29,0,0,1-.3-4,7.7,7.7,0,0,0,2.45-6.87c-.06-.23-.12-.52-.28-.63-1.57-1.11-1-2.66-.91-4.12a13.09,13.09,0,0,0-.29-3.62c-1.25,2.79-.87,5.75-1,8.79l-1.31-1.47v-9.31c.6.22,1.24.67,1.79.57s.89-.77,1.33-1.19l.59.15c.24,3.17.47,6.34.73,9.87.44-.49.65-.62.71-.81a3.45,3.45,0,0,0,.14-1c.1-3.77.16-7.55.31-11.33.07-1.85.4-3.7.46-5.56.09-2.46,0-4.92,0-7.36-2.06-.47-2.45-.18-2.47,1.77,0,1.6,0,3.19,0,4.79,0,1.12.17,2.28-1.25,2.81-.22.08-.31.54-.46.83l-9.84,0,0-1.42a2.19,2.19,0,0,0,1.39-2.35c0-3.7,0-7.4,0-11.1,0-2.59.19-5.19.28-7.78,0-.81.31-1.22,1.21-1.08,1.22.19,2.45.32,3.68.4.33,0,.68-.28,1-.33,1.4-.18,2.81-.38,4.23-.45.3,0,.64.45,1.12.83l1.66-1.75,31.55,0c.09,4.08.2,8.15.25,12.23s0,7.87,0,11.8a2.93,2.93,0,0,0,1.42,2.7c2.18,1.46,4.26,3.06,6.49,4.45a3.46,3.46,0,0,1,1.72,3.36c0,14.3,0,28.61,0,42.91ZM62.77,155.08c0,.39.56.79.87,1.19.33-.36.91-.7,1-1.1a7.19,7.19,0,0,0-.85-4.89l-.63,0C63,151.9,62.79,153.49,62.77,155.08Zm-6.53,15.66c1.06.06,2.11.22,3.17.3a5.14,5.14,0,0,0,1-.15c-.13-.32-.19-.83-.41-.93a4.33,4.33,0,0,0-2.08-.52c-1.49.21-3,.67-4.43,1l0,.27C54.4,170.73,55.32,170.69,56.24,170.74Z"/><path class="cls-3" d="M198.48,219.76c0,1.5,0,3,0,4.5h-.85c.8-2,.66-2.25-1.51-2.26-6.74,0-13.49.09-20.22-.05a5,5,0,0,0-4.74,2.31h-.57l1.67-2c-.77-.09-1.25-.2-1.73-.2-7.38,0-14.77,0-22.16,0-1.86,0-2.83,1.21-4,2.28h-.56l2.1-2.27H121l-.28-.53,3.34-2.35-.12-.5h-6v-.27c2,0,4,0,6,0,1.79,0,3-1,4.33-2l-.11-.42-1.88-.08-8.1-.27,6.49-.27a6.63,6.63,0,0,1,2,.07c2.36.77,4-.49,5.68-1.83.12-.1,0-.52,0-.8v-.27h1.13l.28.57-2.19,1.82.09.44h4.35l.58.27c-1.77.09-3.54.27-5.31.24s-2.69,1-3.81,1.87c-.09.07.06.46.09.7v.27c-2.25-.21-3.65,1.28-5.53,2.68.78.08,1.18.15,1.58.15h21.91c2.05,0,3.25-1.28,4.29-2.82l-.3-.29,1.15,0,.28.57-2.54,2,.18.41c.53,0,1.07.07,1.61.07,6.2,0,12.39,0,18.59,0,2.09,0,4.36.63,6.12-1.33l-.52,1.2c.48,0,.88.14,1.27.14h20.84c.89,0,1.71,0,1.77-1.25s-.64-1.57-1.75-1.57c-5.82,0-11.64,0-17.46,0-.85,0-1.69,0-2.54,0l.92-1.06c.48.27,1,.77,1.44.78,6,0,11.9,0,17.85,0,1,0,1.58-.36,1.53-1.48s-.71-1.15-1.62-1.14c-5.16.07-10.31.05-15.47.09a23.48,23.48,0,0,0-2.35.27l-.28-.83,2.49-2c-1.57-.9-2.88-.74-3.59.24l-.61-1.09c1,0,2.07-.08,3.1,0,1.57.11,2.52-.7,3.52-2.28-2.76.31-5.27-.65-7.71.57l-.59-1.11c2.62,0,5.23,0,7.85,0,1.2,0,2.06-.43,2.79-2-4.11,0-8,0-11.85,0l-.43-.25-3.36-.36,15.2,0a2.53,2.53,0,0,0,2.61-1.93H170.06l0-.38c5.75,0,11.5,0,17.25,0a2.49,2.49,0,0,0,2.72-1.93h-20L170,179.75c2.49,0,2.54-.06,2.54-2.51,0-7.51,0-15,0-22.53,0-1.18.19-2,1.66-2,4.83,0,9.66,0,14.5,0,.91,0,1.45.29,1.43,1.27,0,1.49-.12,3-.1,4.48.06,6,.2,12.1.24,18.15,0,7.27,0,14.55,0,21.82,0,1.71.18,1.87,1.85,1.89,1.5,0,3,0,4.5,0,1.06,0,1.6-.39,1.55-1.48,0-.52,0-1,0-1.55q0-55.2,0-110.39a21.2,21.2,0,0,1,.24-2.36l.06,20.23q0,3.38,0,6.75v1.27Q198.49,166.27,198.48,219.76Zm-16.94-4.52h14.89c.74,0,1.58.11,1.71-1,.1-.86-.13-1.52-1.15-1.52-4.78,0-9.56-.09-14.32.09-.92,0-1.79,1.08-2.68,1.67l.23.6C180.66,215.15,181.1,215.23,181.54,215.24Zm2.89-2.83c4,0,8.06,0,12.09,0,.52,0,1.31-.27,1.49-.66.39-.78.06-1.52-1-1.52-4,0-8.06-.08-12.08.06-.73,0-1.43.91-2.14,1.41l.27.58A12.48,12.48,0,0,0,184.43,212.41Zm1.92-2.81q5.13,0,10.26,0c.72,0,1.61,0,1.44-1-.07-.38-.89-.89-1.39-.9-2.9-.09-5.81,0-8.72-.06a3.08,3.08,0,0,0-2.73,1.81A8.66,8.66,0,0,0,186.35,209.6Zm4.66-8.7c-5.81.08-11.61.16-17.42.28a12.41,12.41,0,0,0-2.13.44l.07.51a9.5,9.5,0,0,0,1.16.16c5.68,0,11.35,0,17,0a8.07,8.07,0,0,0,2.22-.67l-.13-.56A5.65,5.65,0,0,0,191,200.9Zm-1.9,6.17c2.43,0,4.86,0,7.28,0,.72,0,1.67.18,1.7-.94s-.89-1-1.62-1c-2.06,0-4.11,0-6.17,0-1.26,0-1.94.63-2.5,1.84A12,12,0,0,0,189.11,207.07Zm8.13-2.34c.3,0,.87-.64.81-.86-.1-.38-.57-.93-.9-.94a35,35,0,0,0-5.32,0c-.69.07-1.31.79-2,1.22l.27.59C192.51,204.77,194.88,204.8,197.24,204.73Zm.18-2.53a.8.8,0,0,0,.56-.51c0-.19-.22-.64-.34-.64-1.62,0-3.23,0-4.84.16-.2,0-.37.44-.8,1C194,202.22,195.73,202.24,197.42,202.2Z"/><path class="cls-6" d="M234.8,120.6c0,24.73-.1,49.46.09,74.19a12.25,12.25,0,0,1-3.36,8.84,6.44,6.44,0,0,0-1.83,5.1c.11,1.41,0,2.84,0,4.58l1.74-.92a2.84,2.84,0,0,1,.36,1c0,1.78,0,3.57-.18,5.33a2,2,0,0,1-.95,1.35c-1.28.64-1,1.71-.88,2.69s1,.88,1.75,1,1.59.36,2.38.55H239v-79.8c0-6.2,0-12.39,0-18.58a3.5,3.5,0,0,0-.57-2.22A35.47,35.47,0,0,0,234.8,120.6Z"/><path class="cls-7" d="M106.36,224.26c0-14.17,0-28.35,0-42.52a3.38,3.38,0,0,0-1.7-3.37c-1.92-1.16-3.71-2.53-5.57-3.8a14.55,14.55,0,0,0-1.4-.73c-.34,17,.13,33.71.19,50.42Z"/><path class="cls-6" d="M207.47,224.26a6.18,6.18,0,0,1,1.7-.53c1.88,0,3.75,0,5.62.12,1.05.06,1.6-.24,1.69-1.34.14-1.8-.16-2.4-1.46-2.45-1.59-.05-3.18,0-4.78,0-1.3,0-2.62.09-3.91,0a1.63,1.63,0,0,1-1-1,5.72,5.72,0,0,1-.07-1.81q0-48.21.05-96.42c0-2.61-.24-4.63-3.17-5.28-.08.84-.25,1.67-.25,2.51q0,20.8,0,41.62v64.59Z"/><path class="cls-3" d="M123.84,205.42a14.56,14.56,0,0,1-.28-2.06c0-4.36,0-8.73,0-13.09,0-1.34-.46-1.88-1.81-1.79a34.24,34.24,0,0,1-3.51,0,6.65,6.65,0,0,1-1.24-.25l0-.45a5.09,5.09,0,0,1,1.28-.39c1.27-.06,2.54-.07,3.8,0,1.1,0,1.51-.46,1.49-1.52,0-2,0-4,0-6,0-1-.37-1.42-1.44-1.33a36.81,36.81,0,0,1-4.2,0c-.32,0-.62-.4-.92-.61.32-.21.63-.59,1-.61,1.35-.07,2.72-.08,4.08,0,1.06,0,1.54-.41,1.52-1.49,0-1.93,0-3.85,0-5.77,0-1.08-.41-1.55-1.5-1.51s-2.43,0-3.65,0a10,10,0,0,1-1.41-.26l0-.49a6.42,6.42,0,0,1,1.38-.37c1.31,0,2.63,0,3.94,0,.88,0,1.28-.4,1.28-1.28,0-2.11,0-4.22,0-6.33,0-1-.41-1.37-1.35-1.36-1.79,0-3.57,0-5.35,0l-1.19,1.16a14.63,14.63,0,0,1,.32,2.16q0,24.56,0,49.11c0,4.5,0,9,0,13.51h.28c0-2.18,0-4.37.08-6.54a10.13,10.13,0,0,1,.74-2.45c-.13-1.23-.34-2.47-.36-3.7a14.74,14.74,0,0,1,.38-2.53h0c0-.65,0-1.31,0-2-.31-.94,0-1.41,1-1.4h4.62Z"/><path class="cls-6" d="M234.8,120.6a35.47,35.47,0,0,1,3.62,3.06,3.5,3.5,0,0,1,.57,2.22c0,6.19,0,12.38,0,18.58v79.8h3.1q0-48.42,0-96.84c0-2.53-.53-4.38-2.58-6.07-1.56-1.27-2.78-2.25-4.72-1.07Z"/><path class="cls-8" d="M115.93,224.26c0-4.5,0-9,0-13.51q0-24.56,0-49.11a14.63,14.63,0,0,0-.32-2.16,33,33,0,0,1-2.53,2.62,4.64,4.64,0,0,0-1.66,3.92q.09,28,0,56c0,.75,0,1.5-.06,2.25Z"/><path class="cls-3" d="M234.82,120.28c1.94-1.18,3.16-.2,4.72,1.07,2.05,1.69,2.59,3.54,2.58,6.07q-.09,48.42,0,96.84h2.26c0-.75,0-1.51,0-2.26v-3.38a.61.61,0,0,1,0-.27v-2.82a.54.54,0,0,1,0-.28c0-.85,0-1.7,0-2.54a.45.45,0,0,1,0-.28V205.1a.66.66,0,0,1,0-.28l0-3.36v-3.13q0-14.57-.06-29.11,0-21.43,0-42.88c0-2.3-1.31-4-2.83-5.47-1.13-1.11-2.41-2.08-3.62-3.11Z"/><path class="cls-3" d="M48.34,46c3.53,2.2,7,4.53,10.62,6.57,2.44,1.37,5.09,2.36,7.66,3.49a6.19,6.19,0,0,0,1.29.29l.22-.39-2-1.54A22.18,22.18,0,0,1,64,52.62a2.51,2.51,0,0,1-.79-1.52c0-2.08-1.14-3.47-2.42-4.89A3.82,3.82,0,0,1,59.67,44a4.89,4.89,0,0,0-1.89-4.17,1.8,1.8,0,0,1-.63-2.07c.7-3.49.07-5.48-4.18-7.29a26.93,26.93,0,0,0-4.63-1.09Z"/><path class="cls-6" d="M201.84,224.26V159.67q0-20.8,0-41.62c0-.84.17-1.67.25-2.51l-.48-.3-1.76.19V224.26Z"/><path class="cls-3" d="M48.34,193.28v14.36c1.09-.19,2.19-.36,3.28-.58,2.09-.43,4.17-.9,6.26-1.35q0-12.3,0-24.59c-1.38,1.78-2.74,3.57-4.13,5.33C51.94,188.74,50.13,191,48.34,193.28Z"/><path class="cls-3" d="M199.86,224.26V115.43l1.76-.19-3.12-2.45q0,53.47,0,107c0,1.5,0,3,0,4.5Z"/><path class="cls-3" d="M48.34,209.61v7l2.71-.62,8-1.93a10.19,10.19,0,0,1,.8-.94c2.44-2.39,2.09-4.86-.9-6.32Z"/><path class="cls-3" d="M61,171.92l-9.84,0H48.34v9l3.13-.73,6.39-1.46a12.26,12.26,0,0,1,.4-1.47c.31-.78,1-1.53,1-2.28S58.45,173.67,58,173a7.82,7.82,0,0,1,.77-.38c1.56-.63,2-.39,2,1.25,0,1.13,0,2.25,0,3.38Z"/><path class="cls-7" d="M60.75,177.24c0-1.13,0-2.25,0-3.38,0-1.64-.41-1.88-2-1.25A7.82,7.82,0,0,0,58,173c.46.68,1.22,1.31,1.24,1.95s-.66,1.5-1,2.28a12.26,12.26,0,0,0-.4,1.47v2.43q0,12.3,0,24.59c.36.37.71.75,1.07,1.13,3,1.46,3.34,3.93.9,6.32a10.19,10.19,0,0,0-.8.94c0,.56,0,1.12,0,1.67l0,8.49h1.41c0-2.86,0-5.71.07-8.56,0-.54.5-1,.77-1.57a2.75,2.75,0,0,0,1.63-3.21c-.18-1.41-.33-2.81-.5-4.21-.71-.24-1.41-.5-2.13-.7a1.47,1.47,0,0,1-1.21-1.63c0-5.57,0-11.15,0-16.72v-9.31Z"/><path class="cls-3" d="M48.34,64.27c3,.61,5.94,1.34,8.95,1.8,3.7.55,7.44.94,11.17,1.28,6.39.58,12.79,1.07,19.18,1.6a1.32,1.32,0,0,0,1-.3,37.33,37.33,0,0,0-3.85-1C78.68,66.8,72.55,66,66.42,65.14,61,64.37,55.48,63.56,50,62.78c-.56-.08-1.12-.14-1.67-.2Z"/><path class="cls-3" d="M59,224.26l0-8.49c-.64.13-1.28.23-1.91.39l-8.76,2.18V220c.36-.05.74-.08,1.1-.15,1.65-.34,1.7-.3,1.72,1.3,0,1,0,2,0,3.08Z"/><path class="cls-6" d="M170.57,224.26l1.67-2c-.77-.09-1.25-.2-1.73-.2-7.38,0-14.77,0-22.16,0-1.86,0-2.83,1.21-4,2.28Z"/><path class="cls-6" d="M197.61,224.26c.8-2,.66-2.25-1.51-2.26-6.74,0-13.49.09-20.22-.05a5,5,0,0,0-4.74,2.31Z"/><path class="cls-6" d="M143.82,224.26l2.1-2.27H121l-3.38,2.27Z"/><path class="cls-6" d="M57.86,181.12v-2.43l-6.39,1.46-3.13.73v1.69l7-1.6.19.36c-1.5,2-3,4-4.51,6-.83,1.07-1.76,2.06-2.64,3.09v2.82c1.79-2.28,3.6-4.54,5.39-6.83C55.12,184.69,56.48,182.9,57.86,181.12Z"/><path class="cls-6" d="M111.43,224.26c0-.75.06-1.5.06-2.25q0-28,0-56a4.64,4.64,0,0,1,1.66-3.92,33,33,0,0,0,2.53-2.62l1.19-1.16c0-.27-.08-.54-.11-.81l-.18,0c-1.58,1.59-3.21,3.14-4.73,4.8a3.45,3.45,0,0,0-.95,2.06q-.06,29.93,0,59.87Z"/><path class="cls-3" d="M48.34,190.46c.88-1,1.81-2,2.64-3.09,1.53-2,3-4,4.51-6L55.3,181l-7,1.6Z"/><path class="cls-6" d="M65,224.26c.19-3.12.47-6.23.53-9.35,0-1.88-.23-3.77-.37-5.66l-.45-.05c-.21,1-.38,2.09-.63,3.12a12.52,12.52,0,0,1-.65,1.77c-.25.6-.75,1.19.41,1.46a1.27,1.27,0,0,1,.56,1c-.18,1.61-.45,3.21-.73,4.8-.17,1-.42,1.91-.64,2.86Z"/><path class="cls-6" d="M48.34,218.34l8.76-2.18c.63-.16,1.27-.26,1.91-.39,0-.55,0-1.11,0-1.67l-8,1.93-2.71.62Z"/><path class="cls-6" d="M59,206.84c-.36-.38-.71-.76-1.07-1.13-2.09.45-4.17.92-6.26,1.35-1.09.22-2.19.39-3.28.58v2Z"/><path class="cls-3" d="M116.21,224.26c0-2.18,0-4.37.08-6.54a10.13,10.13,0,0,1,.74-2.45l.06-.06,7.57,0-6.49.27c-1.41.74-1.53,1.92-.27,2.81v.27c-1.06.34-1,1.26-.72,1.94.16.42.92.74,1.46.86a10.28,10.28,0,0,0,2.08.05l.28.53-3.38,2.27Zm3.1-1.93c-1.77-.54-2.19-.29-1.93,1.24Z"/><path class="cls-7" d="M48.34,220.88v3.38h2c0-.51,0-1,.06-1.54C50.38,220.62,50.37,220.62,48.34,220.88Z"/><path class="cls-6" d="M48.34,220.88c2-.26,2-.26,2,1.84,0,.51,0,1-.06,1.54h.84c0-1,0-2,0-3.08,0-1.6-.07-1.64-1.72-1.3-.36.07-.74.1-1.1.15Z"/><path class="cls-6" d="M61.29,214.13c-.27.52-.75,1-.77,1.57-.09,2.85-.06,5.7-.07,8.56h.28c0-2.62,0-5.24,0-7.86A10.82,10.82,0,0,1,61.29,214.13Z"/><path class="cls-6" d="M62.7,224.26c-.08-.87-.16-1.74-.25-2.62l-.59,0v2.58Z"/><path class="cls-3" d="M121.54,205.69h1.16L121,206.91c.82.08,1.25.16,1.68.17,5.91,0,11.82,0,17.73,0a5.06,5.06,0,0,0,3.53-1.56l-.06-.48h-19l.65-.49a11.54,11.54,0,0,0,1.51.24c5.58,0,11.15,0,16.73,0a4.14,4.14,0,0,0,3.51-2H128.55l1.18-.82a7.8,7.8,0,0,0,1.62.34q8.16,0,16.3-.07a11.59,11.59,0,0,0,2.21-.46l-.07-.65H131.15c.07-.78.2-1.57.2-2.36q0-17.12.05-34.24l8.45,0c2.22,0,2.28,0,2.28-2.3,0-9.85.07-19.71,0-29.56,0-2.56.33-4.71,2.51-6.27a7.06,7.06,0,0,0,.81-1l3.34-3.45.44.23c0,1.9,0,3.8,0,5.7q.12,17.1.25,34.19c0,5.2,0,10.4,0,15.6a5.71,5.71,0,0,0,.76,1.85,6.05,6.05,0,0,0,.59-1.82c.05-7.46,0-14.92.05-22.38a13.1,13.1,0,0,1,.32-2l.21,4.51-.24.83q0,23.43,0,46.86,0,6.81,0,13.64l-.32-.24c-.1-.19-.19-.38-.28-.57.7-2.4.23-2.85-2.14-2.78-4,.11-8,0-11.93,0l-.58-.27c4.45,0,8.89,0,13.34,0,1.1,0,1.76-.39,1.51-1.56-.08-.36-.56-.89-.85-.89-5.37,0-10.75.09-16.12.16a.65.65,0,0,0-.13,0l-.28-.57,3.3-1.7-.11-.41a8.87,8.87,0,0,0-1.14-.14c-5.53,0-11.06,0-16.59,0-.23,0-.53-.08-.69,0-.39.29-1,.75-1,1a1.64,1.64,0,0,0,1,1.12,34.33,34.33,0,0,0,3.93.07h10.13v.27l-12.74,0c-2.5,0-2.5,0-2.44,2.49l-.06.06c-.13-1.23-.34-2.47-.36-3.7a14.74,14.74,0,0,1,.38-2.53,5.57,5.57,0,0,0,1.64.55c6.09,0,12.18,0,18.27,0a4.69,4.69,0,0,0,3.56-1.86c-.7,0-1.15-.12-1.59-.12-6,0-11.9-.09-17.85.06-1.35,0-2.69.87-4,1.34,0-.65,0-1.31,0-2C118.71,207.15,120.36,207.16,121.54,205.69Zm15.14,6.71q6.33,0,12.67,0a1.92,1.92,0,0,0,1.26-.42,1.08,1.08,0,0,0-.92-1.76c-3.66,0-7.33-.12-11,.07-1.06.06-2.06,1-3.1,1.54l.16.41A4.85,4.85,0,0,0,136.68,212.4Zm3.87-2.8c2.95,0,5.89.05,8.84,0,.48,0,.94-.61,1.41-.94-.47-.33-.92-.92-1.4-.94a46.61,46.61,0,0,0-6.58,0,12.16,12.16,0,0,0-3.18,1.31l.15.45A4.06,4.06,0,0,0,140.55,209.6ZM150,207c.27,0,.69-.59.73-.95a1.1,1.1,0,0,0-.7-.82c-2.32-.09-4.8-.69-6.81,1.82C145.67,207,147.84,207.06,150,207Zm.07-2.28c.27,0,.69-.67.65-1s-.65-.85-.86-.79c-1.09.34-2.12.83-3.17,1.27l.15.54A31.61,31.61,0,0,0,150.08,204.7Z"/><path class="cls-3" d="M217.06,61.88c-.21-.23-.43-.44-.63-.68-1-1.22-2.09-2.38-3-3.68a13.28,13.28,0,0,0-6.78-5c-1.37-.49-2.15-1-2.3-2.76-.33-3.88-4.64-7.14-8.7-6.8a2.08,2.08,0,0,1-2.49-1.4c-2.25-5.48-10.63-8.82-15.75-7.79A7.83,7.83,0,0,0,170.82,40c-.28,1.18-.6,1.59-2,1.31A8.92,8.92,0,0,0,158.17,50c0,1.72-.27,2.06-2,1.82a41.12,41.12,0,0,1-6.28-1.45c-2.22-.68-4.36-1.63-6.7-2.26.79.73,1.56,1.49,2.38,2.19A35.43,35.43,0,0,0,165.82,59a109.76,109.76,0,0,0,14.61-.26c5.56-.29,11.12-1.08,16.68-1.17a38.12,38.12,0,0,1,18.5,4.13,10.46,10.46,0,0,0,1.25.49Z"/><path class="cls-3" d="M151.68,153.25,158,150.4c-.37-1.28-.95-1.32-1.72-1a15.85,15.85,0,0,1-2.46,1c-.32.09-.76-.24-1.14-.38.2-.41.3-1.07.61-1.19a15.61,15.61,0,0,0,7.25-5.78c.23-.31.89-.3,1.35-.44,0,.48.23,1.09,0,1.41-.74,1.08-1.67,2-2.43,3.08a4.3,4.3,0,0,0-.38,1.43c.43-.12,1-.1,1.28-.38,1.67-1.82,3.28-3.7,4.9-5.57,0,1.73,0,3.46.12,5.18.12,1.51.45,1.58,2.65,1.55,1.24,0,1.49-.67,1.45-1.7s0-2.06,0-3.09l.24,6.77a2.75,2.75,0,0,0-3.35-1.1c-1.13.3-.84,1.24-.84,2q0,27.45,0,54.9c0,2,.24,2.13,2.11,1.31l1.81-.77a12.5,12.5,0,0,0,.3-1.9q0-11.94,0-23.88c0-.7,0-1.4,0-2.11H170l.05,23.14c0,.63,0,1.26,0,1.88,0,.13,0,.25,0,.38V207l3.36.36a23.19,23.19,0,0,0-2.56,1.7c-.33.27-.66,1.08-.5,1.33,1.81,2.87,3.71,5.68,5.59,8.51-.24.13-.48.38-.71.38l-23-.17q0-29.46,0-58.93c0-.76,0-1.58-1.1-1.56l.24-.83C152.49,157.07,152.65,154.58,151.68,153.25Zm6.2,7.89c-.64.85-.29,2.46-.33,3.74a1.8,1.8,0,0,0,1,.1,20.3,20.3,0,0,0,2.57-1.14c.29-.16.66-.52.68-.8.08-1.15,0-2.3,0-3.88C160.25,159.89,158.62,160.18,157.88,161.14Zm3.28,14.24a1.36,1.36,0,0,0,.68-.93c.09-1.1,0-2.22,0-3.33-3.7.23-5.24,2.38-4.1,5.8C159,176.39,160.09,175.94,161.16,175.38Zm-3.27,10.83a1.28,1.28,0,0,0-.44.94c-.06,1.06,0,2.12,0,3.19,3.73-.27,5.29-2.43,4.1-5.77C160.3,185.11,159.07,185.61,157.89,186.21Zm-.29,17.68c3.5-.09,4.88-1.92,4.1-5.53C157.86,199,156.84,200.38,157.6,203.89Z"/><path class="cls-3" d="M101.85,139.74c0-1.17,0-2.35,0-3.52,0-.79-.31-1.26-1.16-1.22l-3.29-.07a2.53,2.53,0,0,1,0-.28,33.45,33.45,0,0,0,3.47,0c.44,0,.84-.49,1.27-.76,0-2.84,0-5.67,0-8.51a10.3,10.3,0,0,0-.24-1.64c0-1.24,0-2.48,0-3.73s.29-2.43.49-3.65a9.11,9.11,0,0,1,.62-2.63,2.91,2.91,0,0,1,3.27-1.61,3.93,3.93,0,0,0,.84,0c1,0,2.34.26,3-.26s.46-1.84.54-2.83.68-1.08,1.45-1.08c3.42,0,6.84,0,10.26,0,.07,1.07-.27,2.52.3,3.13,1.1,1.18.85,2.4.87,3.65,0,1.79-.09,1.88-1.94,1.88-3,0-5.91,0-8.86,0A10.4,10.4,0,0,0,111,117l.06.48c1,.11,2,.28,3,.3,2.62,0,5.25,0,7.88,0,1.15,0,1.6.44,1.57,1.58,0,1.92,0,3.85,0,5.77,0,1.13-.3,1.55-1.54,1.49-2.67-.13-5.35-.08-8,0-1,0-2,.23-3,.35v.61c1,.13,2,.34,3,.37,2.67,0,5.35,0,8,0,1.1,0,1.65.39,1.62,1.56q-.07,3,0,5.91c0,1.16-.45,1.59-1.59,1.57-2.72,0-5.44-.05-8.16,0a20.54,20.54,0,0,0-2.79.38l0,.43a7.33,7.33,0,0,0,1.44.28c3.19,0,6.37.06,9.55,0,1.07,0,1.55.37,1.53,1.47,0,2,0,4,0,6.05,0,1-.34,1.5-1.39,1.47-1.31,0-2.63,0-3.94,0-1,0-1.43-.46-1.42-1.45,0-1.5.07-3,0-4.5,0-.48-.53-.92-.82-1.38Zm2-2c0,1.45.7,1.73,1.92,1.7,1.78-.05,2-.18,2-1.72q0-10,0-20c0-.51-.18-1.34-.49-1.45a2.24,2.24,0,0,0-1.66.3,3.41,3.41,0,0,0-1.77,3.28c0,3,0,5.91,0,8.86S103.87,134.8,103.81,137.79Z"/><path class="cls-7" d="M169.68,151.32a2.75,2.75,0,0,0-3.35-1.1c-1.13.3-.84,1.24-.84,2q0,27.45,0,54.9c0,2,.24,2.13,2.11,1.31l1.81-.77a8.73,8.73,0,0,1-.26-1.5q0-13.89,0-27.77a6.25,6.25,0,0,1,.48-1.68c0-1.41.07-2.83.1-4.24Q169.74,161.88,169.68,151.32Z"/><path class="cls-8" d="M115.93,139.76l-14.08,0c.1,1.09-.51,1.59-1.47,1.88-2.82.85-5.63,1.74-8.44,2.61l-15.84,0c-3.36,0-2.94.31-3-3l-21,5.34a15.35,15.35,0,0,0,1.79.22l11.91.06,31.55,0c4.88-1.79,9.76-3.56,14.63-5.37C113.31,140.94,114.61,140.33,115.93,139.76Z"/><path class="cls-3" d="M124.48,83.92c4.15,4.25,3.88,12.57-1.89,16.89a4.52,4.52,0,0,0-.74.93c-3.18.54-3.52,2.73-3.11,5.35-.11-1-.17-2.1-.34-3.13-.07-.37-.42-.69-.64-1-.24.34-.63.65-.68,1-.17,1-.2,2.11-.29,3.17,0-.9-.06-1.79,0-2.68.07-1.17-.46-1.58-1.59-1.55-2,0-3.94,0-5.9,0-.44,0-1.21-.45-1.23-.74-.15-1.88-.58-3.9,1.43-5.2l1.33-1A16.45,16.45,0,0,0,113,94.34a3.13,3.13,0,0,0,.55-1.44c.06-.25-.17-.58-.1-.82.7-2.38-.93-3.51-2.5-4.68l-1.36-.82a3.33,3.33,0,0,0-.55-.8c-1.18-.89-1-1.78.15-2.39a56,56,0,0,1,5.65-2.67c.74-.3,1.4-.36,1.48-1.35,0-.32.46-.6.7-.9.25.29.51.56.73.87s.49,1.08.85,1.18c.9.24,1-.57,1.16-1.21.11-.33.51-.56.78-.84.25.34.75.7.72,1A2.39,2.39,0,0,0,123,82.23a4.58,4.58,0,0,1,1.11.84A2.42,2.42,0,0,0,124.48,83.92ZM111,98.53c-.45.35-.56,1.16-.83,1.75a4.65,4.65,0,0,0,1.58.57c2.7-.1,5.54.17,8.07-.58,6.13-1.82,7.94-10.79,3.27-15.16a14.94,14.94,0,0,0-1.6-1.13,13.85,13.85,0,0,1-.25,2.27c-.1.38-.49.67-.76,1-.26-.32-.69-.61-.77-1a9.12,9.12,0,0,1-.07-2,1.42,1.42,0,0,0-1.38-1.62,9.21,9.21,0,0,0-6.13,1c-.85.51-1,1-.25,1.75s1.29,1.22,1.92,1.86a3.83,3.83,0,0,0,3,1.25,7.29,7.29,0,0,1,2,.51c.18.66.36,1.32.53,2,.37,1.46-.5,2.56-1.07,3.74C115.05,94.55,113.14,96.82,111,98.53Zm5.71-5.67c.4,0,.76-.72,1.14-1.12-.42-.4-.79-1-1.28-1.13s-.86.55-1.67,1.14C115.72,92.3,116.21,92.88,116.68,92.86Z"/><path class="cls-3" d="M73.12,141.22c0,3.34-.38,3,3,3l15.84,0c.08-1.53.1-3.08.25-4.61.19-1.86,0-2.14-1.88-2.15-4.87,0-9.73,0-14.59,0a5,5,0,0,1-1.44-.45c-.9.07-1.16.63-1.15,1.44S73.12,140.3,73.12,141.22Z"/><path class="cls-3" d="M198.44,84.54l.06,20.23q0,3.38,0,6.75l1.07.93a16.32,16.32,0,0,0,.27-2.2c0-7.43,0-14.87.05-22.3l.32-3.39,2.44.23c.68.06,1.53-.14,2,.19,3.22,2.24,6.37,4.59,9.54,6.9l.85.82L221,97.23l.9.78,4.23,3.39.51.32a42.25,42.25,0,0,0,5.08,4c3.56,2,4.13,6.31,3.16,9.32a2.3,2.3,0,0,0,1,3.07L237,117a9.94,9.94,0,0,1-.33-1.41c-.17-1.67-.18-3.37-.47-5a9.77,9.77,0,0,0-3.91-6.4C223.08,97.14,214,90,204.76,83a8.09,8.09,0,0,0-2.09-1.12C200.06,80.94,198.78,81.77,198.44,84.54Z"/><path class="cls-3" d="M88.06,118.93a10.06,10.06,0,0,1-.52-2c-.08-1.43,0-2.87-.24-4.32-.71,2,0,4.13-.66,6.07l-.78,0v-9.45l-.63,0a9,9,0,0,0-.25,1.44q-.18,9.69-.33,19.37c0,1.79-.11,1.87-2,1.89-.37,0-.75,0-1.12,0-1-.06-1.44.39-1.46,1.41s-.17,1.85-.26,2.77a9.25,9.25,0,0,0,1.62.31c2.93,0,5.86,0,8.8,0a28.82,28.82,0,0,0,0-3.22c0-.43-.51-1.15-.83-1.18-1.37-.1-1.4-1-1.39-2C88.07,126.31,88.06,122.62,88.06,118.93Z"/><path class="cls-7" d="M88.06,118.93c0,3.69,0,7.38,0,11.07,0,1,0,1.86,1.39,2,.32,0,.78.75.83,1.18a28.82,28.82,0,0,1,0,3.22l7.11-1.43a2.53,2.53,0,0,1,0-.28c-.16-3.43-.16-3.43-3.61-3.13-1.68.15-1.78.08-1.79-1.58,0-3.13-.06-6.27,0-9.4,0-1.31-.44-1.77-1.7-1.64C89.56,119,88.81,118.92,88.06,118.93Z"/><path class="cls-7" d="M74.28,137a5,5,0,0,0,1.44.45c4.86,0,9.72,0,14.59,0,1.87,0,2.07.29,1.88,2.15-.15,1.53-.17,3.08-.25,4.61,2.81-.87,5.62-1.76,8.44-2.61,1-.29,1.57-.79,1.47-1.88s0-2.35,0-3.52c0-.79-.31-1.26-1.16-1.22-3.05.73-6.07,1.88-9.15,2.1-5,.36-10.12.11-15.18.09a7.53,7.53,0,0,1-1.23-.21Z"/><path class="cls-3" d="M168.34,79.88c-7-5.43-26.86-6.94-33-2.52C146.56,75.06,157.43,77.54,168.34,79.88Z"/><path class="cls-6" d="M65.78,146.84l-11.91-.06a15.35,15.35,0,0,1-1.79-.22c-1,.14-.93.92-.93,1.61l0,22.28a2.19,2.19,0,0,0,1.39-2.35c0-3.7,0-7.4,0-11.1,0-2.59.19-5.19.28-7.78,0-.81.31-1.22,1.21-1.08,1.22.19,2.45.32,3.68.4.33,0,.68-.28,1-.33,1.4-.18,2.81-.38,4.23-.45.3,0,.64.45,1.12.83Z"/><path class="cls-7" d="M118.74,107.09c-.11-1-.17-2.1-.34-3.13-.07-.37-.42-.69-.64-1-.24.34-.63.65-.68,1-.17,1-.2,2.11-.29,3.17-1.82,0-3.64.11-5.47.08-1,0-1.5.29-1.49,1.43,0,3,.32,2.75-2.85,2.68-1.83,0-3.47.07-4.41,1.9a5.42,5.42,0,0,0-.68,2c-.09,1.59,0,3.18,0,4.77.16-1.21.29-2.43.49-3.65a9.11,9.11,0,0,1,.62-2.63,2.91,2.91,0,0,1,3.27-1.61,3.93,3.93,0,0,0,.84,0c1,0,2.34.26,3-.26s.46-1.84.54-2.83.68-1.08,1.45-1.08c3.42,0,6.84,0,10.26,0,2.51-.1,2.55-.1,2.56,2.5,0,1.12.38,1.45,1.49,1.43,3-.06,4.71,1.69,4.71,4.75,0,5.87,0,11.74,0,17.6a18.52,18.52,0,0,0,.22,2.09c0-3.88.05-7.76.11-11.64,0-2.75.07-5.51.26-8.25a3.91,3.91,0,0,0-1.59-3.76,16.29,16.29,0,0,1-1.23-1.13c-.61,0-1.21,0-1.82,0-1.18.07-1.71-.45-1.64-1.65.06-.83,0-1.67,0-2.5-1.71,0-3.42,0-5.14-.09A12.84,12.84,0,0,1,118.74,107.09Z"/><path class="cls-3" d="M210,64.25c-9.67-3.13-19.48-4.49-29.54-1.83C190.44,61.18,200.21,62.82,210,64.25Z"/><path class="cls-7" d="M165.25,142.61c0,1.73,0,3.46.12,5.18.12,1.51.45,1.58,2.65,1.55,1.24,0,1.49-.67,1.45-1.7s0-2.06,0-3.09Z"/><path class="cls-8" d="M75.12,137a7.53,7.53,0,0,0,1.23.21c5.06,0,10.14.27,15.18-.09,3.08-.22,6.1-1.37,9.15-2.1l-3.29-.07-7.11,1.43c-2.94,0-5.87,0-8.8,0a9.25,9.25,0,0,1-1.62-.31Z"/><path class="cls-7" d="M110.9,87.4l-1.36-.82c-2.29,3.43-2.19,6.87-.05,10.32l1.33-1A7.08,7.08,0,0,1,110.9,87.4Z"/><path class="cls-7" d="M124.13,83.07a2.42,2.42,0,0,0,.35.85c4.15,4.25,3.88,12.57-1.89,16.89a4.52,4.52,0,0,0-.74.93,11.42,11.42,0,0,0,4.76-15.84A22.74,22.74,0,0,0,124.13,83.07Z"/><path class="cls-6" d="M151.4,157.83c1.09-.76,1.25-3.25.28-4.58l-.49.07Z"/><path class="cls-6" d="M102.12,133.87c0-2.84,0-5.67,0-8.51a10.3,10.3,0,0,0-.24-1.64c0,2.88,0,5.76,0,8.65A9.72,9.72,0,0,0,102.12,133.87Z"/><path class="cls-8" d="M125.49,107.44c0,.83,0,1.67,0,2.5-.07,1.2.46,1.72,1.64,1.65.61,0,1.21,0,1.82,0a4.6,4.6,0,0,0-.77-.25c-2.42-.23-2.41-.23-2.48-2.67A8.23,8.23,0,0,0,125.49,107.44Z"/><path class="cls-7" d="M169.78,172.44c0,1.41-.07,2.83-.1,4.24l.08,3.06H170C169.93,177.32,169.86,174.88,169.78,172.44Z"/><path class="cls-6" d="M201.83,112.19c0-3.42,0-6.84,0-10.26a11,11,0,0,1,0-1.41c.43-3.42,2.58-5.29,5.94-3.27.51.32,1.08.55,1.62.83l.28.27,2.54,2,1.68,1.4c2.17,1.94,4.32,3.88,6.5,5.8q5.9,5.2,11.82,10.39c.18.15.37.28.56.42l1.13,1.14c0,25.44,0,50.88.06,76.32a7.87,7.87,0,0,1-2.17,5.95c-.55.56-1.06,1.17-1.59,1.76l-.53-.22v-3.75q0-36.67,0-73.35a5.06,5.06,0,0,0-2.07-4.32c-2.5-2-4.91-4.2-7.38-6.29-1.05-.88-2.15-1.7-3.44-2.71-.23,1.38-.39,2.35-.61,3.65L211.89,113V139.9l.39.09,3.6-8.12.6.18c0,1,0,1.93,0,2.9a4.72,4.72,0,0,1-1.29,3.84,16.67,16.67,0,0,0-2.53,3.54,3.85,3.85,0,0,0-.36,2.61c.72,2.47,1.72,4.85,2.56,7.29.61,1.77,1.49,3.53,1.62,5.34.24,3.36,0,6.74,0,10.11q0,25,0,50c0,1.45-.57,1.81-1.8,1.81q-3.51,0-7,0c-1.27,0-1.94-.53-1.9-1.85,0-.56,0-1.12,0-1.69q0-48.23,0-96.45c0-.51,0-1,0-1.54a2,2,0,0,0-1.4-2.29,29.76,29.76,0,0,1-2.82-1.54A15.83,15.83,0,0,0,201.83,112.19Zm9.53,94.53c.78-1.24.81-40.88,0-42.4Z"/><path class="cls-6" d="M214.57,101.83a17.41,17.41,0,0,0,.51-2.12,5.45,5.45,0,0,0-.16-1.37,3.48,3.48,0,0,0-1.07.38,22,22,0,0,0-1.59,1.61l-2.54-2,1.25.26c-.36-1.33-.41-2.52-1.66-3.39s-1.75-1-2.85.22l3,2.64c-.54-.28-1.11-.51-1.62-.83-3.36-2-5.51-.15-5.94,3.27a11,11,0,0,0,0,1.41c0,3.42,0,6.84,0,10.26a15.83,15.83,0,0,1-.27,1.92l-2-1.66a16.32,16.32,0,0,0,.27-2.2c0-7.43,0-14.87.05-22.3,1.42.5,1.55.38,1.6-1.45.28.13.68.44.84.35,1.88-1.07,2.51.61,3.52,1.51a1.61,1.61,0,0,0,1.14.48,3.23,3.23,0,0,1,3.89,3.66c-.18.94.18,1.18,1.13,1l-.29-1.35,2.49-.23.85.82c.09,1.73-.13,3.56,1.47,4.86,1.29-1.41,1.47-1.43,2.56,0,.89,1.16,1.3,0,1.89-.32l.9.78c-.72,1.68,1.3,4.2,2.77,4.3.46,0,1-.58,1.46-.91l.51.32a7.31,7.31,0,0,0-.23,1.78c.18,1.56.46,3.11.76,4.66a2.58,2.58,0,0,0,.53,1.12c.49.59.78.3.94-.29l.55.56c-.58,1.07-.84,2,.69,2.55.33.11.52.61.55,1.17a5.47,5.47,0,0,0-1.2-.57,2.79,2.79,0,0,0-1,.21c.11.32.12.76.34.94,1,.86,2.14,1.57,3.08,2.48a8.59,8.59,0,0,1,1.21,2c-.19-.14-.38-.27-.56-.42q-5.91-5.19-11.82-10.39c-2.18-1.92-4.33-3.86-6.5-5.8Zm7.59,5.75-.12.47,4.61,4.32.48-.42c-.58-.71-1-1.68-1.76-2.07-1.2-.63-1.69-1.21-.65-2.49l-.25-.27Z"/><path class="cls-3" d="M220.36,133.27c-1.11,1.46-2,2.6-2.84,3.75-1.47,2-3,4-4.38,6a1.58,1.58,0,0,0-.25,1.25q3.59,10,7.25,19.93s.07.05.22.17Z"/><path class="cls-3" d="M212.81,136.91c2.1-4.75,4.18-9.5,6.29-14.23.89-2,.89-1.92-.74-3.18-2-1.55-3.83-3.38-5.74-5.09a8,8,0,0,0-.09.84c0,6.82,0,13.64,0,20.46A5.76,5.76,0,0,0,212.81,136.91Z"/><path class="cls-6" d="M226.63,101.72a7.31,7.31,0,0,0-.23,1.78c.18,1.56.46,3.11.76,4.66a2.58,2.58,0,0,0,.53,1.12c.49.59.78.3.94-.29V104.7c4.11,2.18,6.23,5.76,5.18,8.67l-4.63-3.82c-.58,1.07-.84,2,.69,2.55.33.11.52.61.55,1.17a5.47,5.47,0,0,0-1.2-.57,2.79,2.79,0,0,0-1,.21c.11.32.12.76.34.94,1,.86,2.14,1.57,3.08,2.48a8.59,8.59,0,0,1,1.21,2l1.13,1.14,2-1.42a2.3,2.3,0,0,1-1-3.07c1-3,.4-7.31-3.16-9.32A42.25,42.25,0,0,1,226.63,101.72Z"/><path class="cls-7" d="M220.27,180.38c-.6.94-.64,24.91-.05,26.05C220.84,205.49,220.89,181.5,220.27,180.38Z"/><path class="cls-7" d="M230.57,214.07c-1.25,1.62-2.49,3.25-3.74,4.88,1.1.06,2.19.18,3.29.17.24,0,.69-.44.68-.68C230.78,217,230.66,215.52,230.57,214.07Z"/><ellipse class="cls-7" cx="224.93" cy="197.25" rx="0.24" ry="12.64"/><path class="cls-6" d="M212.81,136.91a5.76,5.76,0,0,1-.27-1.2c0-6.82,0-13.64,0-20.46a8,8,0,0,1,.09-.84,7.88,7.88,0,0,0-.35,1.61q0,9.93,0,19.85C212.28,136.22,212.63,136.56,212.81,136.91Z"/><path class="cls-6" d="M230.57,214.07c.09,1.45.21,2.91.23,4.37,0,.24-.44.68-.68.68-1.1,0-2.19-.11-3.29-.17,1.11,1.07,2.45.51,3.63.31.33-.06.55-1.29.65-2a8.76,8.76,0,0,0,0-2.23C231.07,214.69,230.76,214.38,230.57,214.07Z"/><path class="cls-6" d="M130.28,118.15c-1.2,1-2.52,1.8-2.52,3.79q.06,34.56,0,69.13a12.19,12.19,0,0,0,.2,1.58h.46c.06-.64.15-1.28.15-1.92q0-33.58,0-67.16c0-1.77.08-3.37,1.66-4.5.19-.14.26-.44.38-.67Z"/><path class="cls-3" d="M116.55,157.53l.18,0c1.67-.1,3.34-.29,5-.27,1.3,0,1.89-.38,1.84-1.76-.08-1.91,0-3.83,0-5.74,0-1.05-.37-1.57-1.47-1.53-1.26,0-2.52,0-3.78,0-1.08,0-1.53.43-1.51,1.5,0,1.92,0,3.83,0,5.75C116.77,156.14,116.63,156.83,116.55,157.53Z"/><path class="cls-6" d="M122.7,205.69,121,206.91c.82.08,1.25.16,1.68.17,5.91,0,11.82,0,17.73,0a5.06,5.06,0,0,0,3.53-1.56l-.06-.48h-19l-1,.36Z"/><path class="cls-6" d="M125.53,204.57a11.54,11.54,0,0,0,1.51.24c5.58,0,11.15,0,16.73,0a4.14,4.14,0,0,0,3.51-2H128.55Z"/><path class="cls-8" d="M105,153.85c-.07,3.67.7,3.07-3.39,4.71l-.13.05c-.86.34-1.25,0-1.25-.87,0-1.68-.07-3.38,0-5.06a2,2,0,0,1,.92-1.38,38.5,38.5,0,0,1,3.81-1.41C105,151.45,105,152.65,105,153.85Zm-1.5,2.44c0-.39-.49-.74-.76-1.1-.28.35-.75.68-.79,1.06s.35.81.75,1.63C103.08,157.08,103.48,156.66,103.45,156.29Zm-1-2.24c.26-.32.74-.66.73-1s-.46-.75-.72-1.12L101.25,153Z"/><path class="cls-6" d="M129.73,202a7.8,7.8,0,0,0,1.62.34q8.16,0,16.3-.07a11.59,11.59,0,0,0,2.21-.46l-.07-.65H131.15Z"/><path class="cls-6" d="M59.09,187.66c0,5.57,0,11.15,0,16.72A1.47,1.47,0,0,0,60.29,206c.72.2,1.42.46,2.13.7l2.8-.87c-.37-5.57,1.37-11.53.27-17.51l-.58,0a13.51,13.51,0,0,0-.23,1.66c0,3.23,0,6.45,0,9.68,0,.82.06,1.59-1.1,1.77-.32,0-.65.73-.78,1.18s0,1-.13,1.53-.46.65-.71,1c-.29-.35-.83-.7-.83-1a7.76,7.76,0,0,1,.45-2.31,1.55,1.55,0,0,0-.82-2.11,2.29,2.29,0,0,1-.3-4,7.7,7.7,0,0,0,2.45-6.87c-.06-.23-.12-.52-.28-.63-1.57-1.11-1-2.66-.91-4.12a13.09,13.09,0,0,0-.29-3.62c-1.25,2.79-.87,5.75-1,8.79Z"/><path class="cls-6" d="M60.75,177.24l-1.66,1.11c.6.22,1.24.67,1.79.57s.89-.77,1.33-1.19l.59.15c.24,3.17.47,6.34.73,9.87.44-.49.65-.62.71-.81a3.45,3.45,0,0,0,.14-1c.1-3.77.16-7.55.31-11.33.07-1.85.4-3.7.46-5.56.09-2.46,0-4.92,0-7.36-2.06-.47-2.45-.18-2.47,1.77,0,1.6,0,3.19,0,4.79,0,1.12.17,2.28-1.25,2.81-.22.08-.31.54-.46.83Z"/><path class="cls-6" d="M63.12,150.31c-.13,1.59-.33,3.18-.35,4.77,0,.39.56.79.87,1.19.33-.36.91-.7,1-1.1a7.19,7.19,0,0,0-.85-4.89Z"/><path class="cls-6" d="M53.48,170.73c.92,0,1.84,0,2.76,0s2.11.22,3.17.3a5.14,5.14,0,0,0,1-.15c-.13-.32-.19-.83-.41-.93a4.33,4.33,0,0,0-2.08-.52c-1.49.21-3,.67-4.43,1Z"/><path class="cls-6" d="M176,218.94c-.24.13-.48.38-.71.38l-23-.17h-1.06l-.32-.24-2.54,2,.18.41c.53,0,1.07.07,1.61.07,6.2,0,12.39,0,18.59,0,2.09,0,4.36.63,6.12-1.33l-.52,1.2c.48,0,.88.14,1.27.14h20.84c.89,0,1.71,0,1.77-1.25s-.64-1.57-1.75-1.57c-5.82,0-11.64,0-17.46,0-.85,0-1.69,0-2.54,0Z"/><path class="cls-6" d="M127.48,218.61c-2.25-.21-3.65,1.28-5.53,2.68.78.08,1.18.15,1.58.15h21.91c2.05,0,3.25-1.28,4.29-2.82Z"/><path class="cls-6" d="M150.58,218.35c.7-2.4.23-2.85-2.14-2.78-4,.11-8,0-11.93,0-1.77.09-3.54.27-5.31.24s-2.69,1-3.81,1.87c-.09.07.06.46.09.7h22Z"/><path class="cls-6" d="M177.35,217.52c.48.27,1,.77,1.44.78,6,0,11.9,0,17.85,0,1,0,1.58-.36,1.53-1.48s-.71-1.15-1.62-1.14c-5.16.07-10.31.05-15.47.09a23.48,23.48,0,0,0-2.35.27Z"/><path class="cls-6" d="M135.93,215.26c4.45,0,8.89,0,13.34,0,1.1,0,1.76-.39,1.51-1.56-.08-.36-.56-.89-.85-.89-5.37,0-10.75.09-16.12.16a.65.65,0,0,0-.13,0l-2.19,1.82.09.44Z"/><path class="cls-7" d="M177.35,217.52l1.38-1.44-.28-.83-1.1-1.72-.61-1.09-1.09-1.71-.59-1.11c-.41-.65-.81-1.31-1.21-2l-.43-.25a23.19,23.19,0,0,0-2.56,1.7c-.33.27-.66,1.08-.5,1.33,1.81,2.87,3.71,5.68,5.59,8.51l.48-.36Z"/><path class="cls-6" d="M180.22,215.1c.44.05.88.13,1.32.14h14.89c.74,0,1.58.11,1.71-1,.1-.86-.13-1.52-1.15-1.52-4.78,0-9.56-.09-14.32.09-.92,0-1.79,1.08-2.68,1.67Z"/><path class="cls-6" d="M133.4,212.43l3.3-1.7-.11-.41a8.87,8.87,0,0,0-1.14-.14c-5.53,0-11.06,0-16.59,0-.23,0-.53-.08-.69,0-.39.29-1,.75-1,1a1.64,1.64,0,0,0,1,1.12,34.33,34.33,0,0,0,3.93.07H133.4Z"/><path class="cls-6" d="M170.06,202.89c0,.63,0,1.26,0,1.88,5.75,0,11.5,0,17.25,0a2.49,2.49,0,0,0,2.72-1.93Z"/><path class="cls-6" d="M132.27,212.7l-12.74,0c-2.5,0-2.5,0-2.44,2.49l7.57,0a6.63,6.63,0,0,1,2,.07c2.36.77,4-.49,5.68-1.83C132.41,213.4,132.28,213,132.27,212.7Z"/><path class="cls-6" d="M170.06,205.15V207l15.2,0a2.53,2.53,0,0,0,2.61-1.93Z"/><path class="cls-6" d="M183.09,212.26a12.48,12.48,0,0,0,1.34.15c4,0,8.06,0,12.09,0,.52,0,1.31-.27,1.49-.66.39-.78.06-1.52-1-1.52-4,0-8.06-.08-12.08.06-.73,0-1.43.91-2.14,1.41Z"/><path class="cls-6" d="M118.17,215.53c-1.41.74-1.53,1.92-.27,2.81,2,0,4,0,6,0,1.79,0,3-1,4.33-2l-.11-.42-1.88-.08Z"/><path class="cls-6" d="M185.21,209.44a8.66,8.66,0,0,0,1.14.16q5.13,0,10.26,0c.72,0,1.61,0,1.44-1-.07-.38-.89-.89-1.39-.9-2.9-.09-5.81,0-8.72-.06A3.08,3.08,0,0,0,185.21,209.44Z"/><path class="cls-6" d="M191.8,201a5.65,5.65,0,0,0-.79-.13c-5.81.08-11.61.16-17.42.28a12.41,12.41,0,0,0-2.13.44l.07.51a9.5,9.5,0,0,0,1.16.16c5.68,0,11.35,0,17,0a8.07,8.07,0,0,0,2.22-.67Z"/><path class="cls-6" d="M173.85,207.65c.4.66.8,1.32,1.21,2,2.62,0,5.23,0,7.85,0,1.2,0,2.06-.43,2.79-2C181.59,207.62,177.72,207.63,173.85,207.65Z"/><path class="cls-6" d="M187.8,206.94a12,12,0,0,0,1.31.13c2.43,0,4.86,0,7.28,0,.72,0,1.67.18,1.7-.94s-.89-1-1.62-1c-2.06,0-4.11,0-6.17,0C189,205.07,188.36,205.73,187.8,206.94Z"/><path class="cls-6" d="M117.9,218.61c-1.06.34-1,1.26-.72,1.94.16.42.92.74,1.46.86a10.28,10.28,0,0,0,2.08.05l3.34-2.35-.12-.5Z"/><path class="cls-6" d="M190.14,204.77c2.37,0,4.74,0,7.1,0,.3,0,.87-.64.81-.86-.1-.38-.57-.93-.9-.94a35,35,0,0,0-5.32,0c-.69.07-1.31.79-2,1.22Z"/><path class="cls-6" d="M175.65,210.73l1.09,1.71c1,0,2.07-.08,3.1,0,1.57.11,2.52-.7,3.52-2.28C180.6,210.47,178.09,209.51,175.65,210.73Z"/><path class="cls-6" d="M192,202.22c2,0,3.73,0,5.42,0a.8.8,0,0,0,.56-.51c0-.19-.22-.64-.34-.64-1.62,0-3.23,0-4.84.16C192.6,201.22,192.43,201.65,192,202.22Z"/><path class="cls-6" d="M149.43,218.33h-22v.27h22.25Z"/><path class="cls-6" d="M177.35,213.53l1.1,1.72,2.49-2C179.37,212.39,178.06,212.55,177.35,213.53Z"/><path class="cls-6" d="M117.06,207.08c1.65.07,3.3.08,4.48-1.39h-3.46C117.09,205.67,116.75,206.14,117.06,207.08Z"/><path class="cls-6" d="M117.38,223.57l1.93-1.24C117.54,221.79,117.12,222,117.38,223.57Z"/><path class="cls-6" d="M151.18,219.16h1.06q0-29.46,0-58.93c0-.76,0-1.58-1.1-1.56q0,23.43,0,46.86Q151.14,212.33,151.18,219.16Z"/><path class="cls-6" d="M117.05,209a5.57,5.57,0,0,0,1.64.55c6.09,0,12.18,0,18.27,0a4.69,4.69,0,0,0,3.56-1.86c-.7,0-1.15-.12-1.59-.12-6,0-11.9-.09-17.85.06-1.35,0-2.69.87-4,1.34Z"/><path class="cls-6" d="M135.77,212.23a4.85,4.85,0,0,0,.91.17q6.33,0,12.67,0a1.92,1.92,0,0,0,1.26-.42,1.08,1.08,0,0,0-.92-1.76c-3.66,0-7.33-.12-11,.07-1.06.06-2.06,1-3.1,1.54Z"/><path class="cls-6" d="M139.79,209.46a4.06,4.06,0,0,0,.76.14c2.95,0,5.89.05,8.84,0,.48,0,.94-.61,1.41-.94-.47-.33-.92-.92-1.4-.94a46.61,46.61,0,0,0-6.58,0,12.16,12.16,0,0,0-3.18,1.31Z"/><path class="cls-6" d="M143.23,207c2.44,0,4.61,0,6.78-.05.27,0,.69-.59.73-.95a1.1,1.1,0,0,0-.7-.82C147.72,205.12,145.24,204.52,143.23,207Z"/><path class="cls-6" d="M146.85,204.74a31.61,31.61,0,0,0,3.23,0c.27,0,.69-.67.65-1s-.65-.85-.86-.79c-1.09.34-2.12.83-3.17,1.27Z"/><path class="cls-6" d="M161.79,159.16c-1.54.73-3.17,1-3.91,2s-.29,2.46-.33,3.74a1.8,1.8,0,0,0,1,.1,20.3,20.3,0,0,0,2.57-1.14c.29-.16.66-.52.68-.8C161.84,161.89,161.79,160.74,161.79,159.16Z"/><path class="cls-6" d="M157.77,176.92c1.2-.53,2.32-1,3.39-1.54a1.36,1.36,0,0,0,.68-.93c.09-1.1,0-2.22,0-3.33C158.17,171.35,156.63,173.5,157.77,176.92Z"/><path class="cls-6" d="M161.53,184.57c-1.23.54-2.46,1-3.64,1.64a1.28,1.28,0,0,0-.44.94c-.06,1.06,0,2.12,0,3.19C161.16,190.07,162.72,187.91,161.53,184.57Z"/><path class="cls-6" d="M161.7,198.36c-3.84.63-4.86,2-4.1,5.53C161.1,203.8,162.48,202,161.7,198.36Z"/><path class="cls-8" d="M169.76,179.74l-.08-3.06a6.25,6.25,0,0,0-.48,1.68q0,13.89,0,27.77a8.73,8.73,0,0,0,.26,1.5,12.5,12.5,0,0,0,.3-1.9q0-11.94,0-23.88C169.71,181.15,169.74,180.45,169.76,179.74Z"/><path class="cls-3" d="M103.83,128.8c0,3,0,6,0,9,0,1.45.7,1.73,1.92,1.7,1.78-.05,2-.18,2-1.72q0-10,0-20c0-.51-.18-1.34-.49-1.45a2.24,2.24,0,0,0-1.66.3,3.41,3.41,0,0,0-1.77,3.28C103.84,122.89,103.83,125.85,103.83,128.8Z"/><path class="cls-6" d="M118.22,94.76c-3.17-.21-5.08,2.06-7.25,3.77-.45.35-.56,1.16-.83,1.75a4.65,4.65,0,0,0,1.58.57c2.7-.1,5.54.17,8.07-.58,6.13-1.82,7.94-10.79,3.27-15.16a14.94,14.94,0,0,0-1.6-1.13,13.85,13.85,0,0,1-.25,2.27c-.1.38-.49.67-.76,1-.26-.32-.69-.61-.77-1a9.12,9.12,0,0,1-.07-2,1.42,1.42,0,0,0-1.38-1.62,9.21,9.21,0,0,0-6.13,1c-.85.51-1,1-.25,1.75s1.29,1.22,1.92,1.86a3.83,3.83,0,0,0,3,1.25,7.29,7.29,0,0,1,2,.51C121,91,120.7,93.64,118.22,94.76Z"/><path class="cls-6" d="M110.9,87.4a7.08,7.08,0,0,0-.08,8.47A16.45,16.45,0,0,0,113,94.34a3.13,3.13,0,0,0,.55-1.44c.06-.25-.17-.58-.1-.82C114.1,89.7,112.47,88.57,110.9,87.4Z"/><path class="cls-6" d="M114.87,91.75c.85.55,1.34,1.13,1.81,1.11s.76-.72,1.14-1.12c-.42-.4-.79-1-1.28-1.13S115.68,91.16,114.87,91.75Z"/><path class="cls-7" d="M118.22,94.76c2.48-1.12,2.73-3.77.54-5.72.18.66.36,1.32.53,2C119.66,92.48,118.79,93.58,118.22,94.76Z"/><path class="cls-6" d="M199.9,88c1.42.5,1.55.38,1.6-1.45.28.13.68.44.84.35,1.88-1.07,2.51.61,3.52,1.51a1.61,1.61,0,0,0,1.14.48,3.23,3.23,0,0,1,3.89,3.66c-.18.94.18,1.18,1.13,1l-.29-1.35,2.49-.23c-3.17-2.31-6.32-4.66-9.54-6.9-.49-.33-1.34-.13-2-.19l-2.44-.23Z"/><path class="cls-6" d="M215.07,92.7c.09,1.73-.13,3.56,1.47,4.86,1.29-1.41,1.47-1.43,2.56,0,.89,1.16,1.3,0,1.89-.32Z"/><path class="cls-6" d="M221.89,98c-.72,1.68,1.3,4.2,2.77,4.3.46,0,1-.58,1.46-.91Z"/><path class="cls-7" d="M211.36,164.32v42.4C212.14,205.48,212.17,165.84,211.36,164.32Z"/><path class="cls-6" d="M209.72,98.35l1.25.26c-.36-1.33-.41-2.52-1.66-3.39s-1.75-1-2.85.22l3,2.64Z"/><path class="cls-6" d="M213.94,101.73l.63.1a17.41,17.41,0,0,0,.51-2.12,5.45,5.45,0,0,0-.16-1.37,3.48,3.48,0,0,0-1.07.38,22,22,0,0,0-1.59,1.61Z"/><path class="cls-6" d="M229.18,109.55l4.63,3.82c1.05-2.91-1.07-6.49-5.18-8.67V109Z"/><path class="cls-6" d="M224.47,107.12l-2.31.46-.12.47,4.61,4.32.48-.42c-.58-.71-1-1.68-1.76-2.07-1.2-.63-1.69-1.21-.65-2.49Z"/><path class="cls-3" d="M102.65,157.88c.43-.8.83-1.22.8-1.59s-.49-.74-.76-1.1c-.28.35-.75.68-.79,1.06S102.25,157.06,102.65,157.88Z"/><path class="cls-3" d="M101.25,153l1.25,1c.26-.32.74-.66.73-1s-.46-.75-.72-1.12Z"/></g><g class="cls-9"><path class="cls-3" d="M269.85,100.88a3.39,3.39,0,0,0,2.41-3.81c-.14-1.44,0-2.91-.05-4.37.12-4.17,2.15-8.36,0-12.5-1-1.87-1.38-4-3.36-5.4s-3.79-3.26-3.15-6.21a20.64,20.64,0,0,0,.49-3.4c.18-4.08-.05-8.11-3.82-10.69a3.8,3.8,0,0,1-1.72-3.72c0-4.56-.15-9.11-.25-13.67l-.36-.86-2-2.47h0c-.89-.89-1.75-1.8-2.67-2.65s-2.48-1.56-3-2.66a58.39,58.39,0,0,1-2.52-7.64c-1.6-5.48-2.64-11.19-4.83-16.42a164.51,164.51,0,0,0-18.29-31.93c-2.54-2.85-5.05-5.73-7.61-8.56-1.51-1.67-1.29-5.33.53-6.67,1.16-.85,1-1.63.29-2.72a12.06,12.06,0,0,1-1.1-2.83c-.52-1.58-.39-3.65-2.92-3.67-.31,0-.59-.49-.94-.64-.8-.34-1.63-.63-2.45-.93l-1.58,0c-2.1-.09-2.41-.5-2-2.65.09-.59.19-1.19.27-1.78.73-5.4,1.45-10.8,2.2-16.2.11-.79.48-1.56.51-2.35.19-4.36.32-8.72.45-13.09.05-1.81.56-2.24,2.24-1.59a23.89,23.89,0,0,0,11.93,1.35,4.19,4.19,0,0,1,1.7.28c3.61,1.17,7.2,1.47,10.55-.62A39.14,39.14,0,0,0,243-93.67c3.42-1.35,6.94-2.5,10.25-4.08A49.74,49.74,0,0,0,274-116.06,139.15,139.15,0,0,0,281.39-130c1.64-3.38,2.9-6.94,4.39-10.39.5-1.15,1.59-1.83,2.42-2.69,1.45-1.51,2.28-3.61,3.33-5.48a12.26,12.26,0,0,0,1.68-3.43c.63-3.47,1.48-6.66,5.16-8.16.34-.14.57-.56.87-.84,2.38-2.28,4.68-4.66,7.19-6.81,2-1.74,4.35-3.16,6.48-4.81s4.63-2.48,5.84-5.13,2.72-5.11,4.12-7.64a2.2,2.2,0,0,0-1.82-3.45,20.65,20.65,0,0,0-2.28.11l3.91-7.3c.67-2.46-.44-3.56-3-2.9a5.57,5.57,0,0,1-.18-1.44c.15-1,.43-1.95.66-2.92-1.26-2.26-2.29-2.47-3.92-.46-2.57,3.18-5,6.5-7.47,9.76l-2.36,2.51-.57-.44,7-10.69c.91-1.39.29-2.69-1-2.8s-2.62.76-3.93,1.21c-1.09,1.27-2.26,2.48-3.26,3.82-3.83,5.11-7.93,9.8-14.33,11.9-3.34,1.09-3.26,1.32-4-2.2a5.4,5.4,0,0,0-.37-.94c.17-1.88.35-3.75.52-5.62,1.38-3-1.27-4-2.8-5.31-.75-.67-2.19-.55-3.11-.74-.28,2.15-.46,3.71-.68,5.27-.44,3.07-.27,6.42-1.5,9.13-1.74,3.86-.35,7.89-1.62,11.66a2.84,2.84,0,0,0,.37,1.76c.6,1.43,1.29,2.82,2,4.22a8.49,8.49,0,0,1-.59,2.37c-.51.89-1.39,1.55-2,2.4-3.45,4.94-6.82,10-10.34,14.86a11.28,11.28,0,0,1-3.18,2.67c-1.87,1.18-3.87,2.18-5.81,3.25L254-143.15a13.52,13.52,0,0,1-6.42,5A25.68,25.68,0,0,0,235.26-128a22.59,22.59,0,0,1-3.24,3.31c-.35-1.13-.6-1.75-.72-2.39A25.5,25.5,0,0,0,225-139.65a4.31,4.31,0,0,1-1-1.95,68.1,68.1,0,0,1-1.05-6.8,67.58,67.58,0,0,0-4-18.51c-2.41-6.21-6.83-11-11.11-15.78-2.78-3.13-7.09-3.35-11-3.5-2.43-.1-4.71-.11-6.54-2-3-3-6.76-4.56-10.66-5.9a47.62,47.62,0,0,0-6.83-2.8c-3.24-.8-5.41-2.38-6.19-5.68.19-1.73.45-3.45.56-5.19.21-3.18,1.47-6.35-.1-9.56-.29-.6.17-1.62.39-2.41a42.76,42.76,0,0,0,1.62-5.74,77.51,77.51,0,0,0,.38-8.08c0-1.73,0-3.47,0-5.21l-.2-2.86c3,2.79,3,2.91,6.61,2.38,1.24-.18,2.34-1.22,3.55-1.74a16,16,0,0,0,8.59-9.41c1.57-4.1,4.77-7.06,6.48-11,1-2.28,2.71-4.25,2.7-7.12a16.65,16.65,0,0,0-4,2c-1.33.92-2.56,2-3.83,3-3.77,1.81-7.63,3.46-11.25,5.51-1.87,1.06-3.31,2.86-4.95,4.33l-.87,1.5.81-3.64c.43-.92.85-1.85,1.27-2.77l1.15-2.94c.21-1.21.53-2.41.62-3.62a8.07,8.07,0,0,0-2.23-6.46l-2.72-5.31c-.29-2.8-.74-5.59-.81-8.39a4,4,0,0,1,2.58-4c1.79-.81,3.27-1,5.07.22,2.89,2,5.22,1,5.64-2-.21-2.47-1.48-4.24-3.58-4.78a13.17,13.17,0,0,0-12.57,2.8c-6.06,5.5-7.54,12.44-6.38,20.22a83.06,83.06,0,0,1,1.25,9.36c.1,2.85-2.37,4-4.55,5.13a1.47,1.47,0,0,1-1.4-.3c-1.56-2.47-4.08-3.1-6.66-3.69-1.3-.3-2.56-.72-3.84-1.08-.47-.25-1-.78-1.41-.7-2,.39-4,.94-5.93,1.43a12.64,12.64,0,0,1-2.31-.49c-2.11-.88-2.92.07-3.1,2-.75-.17-1.94-.1-2.18-.54a24,24,0,0,1-2.49-6c-.42-1.92-.11-4-.12-6,.45-1.54.91-3.07,1.35-4.61,1.55-5.48,1.83-10.75-2.53-15.26-3-3.27-7.44-2.53-11.21-3.75l-2.55,2.17c-1,1.2-1.73,2.59-.74,4s2.44,1.2,3.87.78a8.66,8.66,0,0,1,1-.16c2.06-.28,3.94-.06,5.12,1.95a4.92,4.92,0,0,1-.26,5.69c-1.65,2.39-3.11,4.93-5,7.15-5,6-3.29,16.08,2.12,20.27l-2.56.09a11.9,11.9,0,0,1-1.57-1.52,11.08,11.08,0,0,0-9.23-5,17.1,17.1,0,0,1-3-.55l-9.72-3.63-6.17-2.58-.47.66c1.81,2.62,3.59,5.26,5.44,7.85a12.42,12.42,0,0,0,2.78,3.36c2.52,1.67,3.76,4.23,5.15,6.64,2.89,5.05,7.57,7.4,12.83,8.86,1.43.4,3.08.06,4.38.06,0,6,0,12,0,17.94a10.57,10.57,0,0,0,.84,3.29c.83,2.33,2.22,4.55,1.17,7.18.49,3.14.85,6.31,1.52,9.42.57,2.68,0,4.23-2.64,5.22s-5.51,1.81-8.21,2.88c-3.61,1.42-7.56,2.32-10.14,5.56a4.46,4.46,0,0,1-4.06,1.68A27.38,27.38,0,0,0,84-185.75a20,20,0,0,0-5.21,3.64c-3.23,2.92-5,6.85-6.94,10.66-2.87,5.64-5.57,11.35-6.72,17.64a5.2,5.2,0,0,0-1.35.83c-3.18,3.75-6.45,7.45-7.68,12.43a6.85,6.85,0,0,1-1.17,1.82l-1.61-1.65A6.87,6.87,0,0,0,52.18-142c-4.09-3.39-8.15-6.84-12.38-10-2.55-1.94-5.14-3.56-7-6.48-2.87-4.6-6.48-8.74-9.79-13.06-2.05-2.69-4.27-5.29-3.82-9,2.71-4.68,1.81-9.17-.64-13.61a16.57,16.57,0,0,1-1.39-3.31c-.43-1.41-.21-3.35-1.1-4.21-1.68-1.63-1.68-3.56-2-5.49-.4-2.33-1.75-2.85-3.81-1.42A7.78,7.78,0,0,0,9-206.53a14.26,14.26,0,0,0,1.23,9.32L10-194.3a12.49,12.49,0,0,1-2-1c-5-4.1-9.67-8.35-11.77-14.8a51.71,51.71,0,0,0-3.69-7.65,2.28,2.28,0,0,0-3.41-1.05,7.19,7.19,0,0,0-.26,2.48c1.19,4.4,2.5,8.76,3.78,13.14.29,1,.62,2,.93,3l-.57.33-2.67-3.79c-1.23-2.48-2.32-5-3.73-7.41a21.62,21.62,0,0,0-3.77-4.6c-.45-.42-1.73,0-2.62.12v4.81l-1.15.15c-1.82.52-1.91,1.74-1.31,3.25l1.91,6c-3.74.22-4.17.9-2.68,4.29,1.33,3,2.92,5.94,4.17,9a17,17,0,0,0,4.19,6.29c3,2.78,5.77,5.79,8.67,8.67,2.56,2.55,5.16,5.06,7.75,7.58.66,1.33,1.27,2.69,2,4,1.2,2.11,2.74,4.06,3.67,6.28,2.73,6.46,5.06,13.09,7.88,19.51,2.47,5.6,5,11.24,9.08,15.94,3.3,3.82,6.84,7.43,10.27,11.14a5.57,5.57,0,0,0,5.28,3.24c.86.74,1.8,1.41,2.58,2.22,2.83,3,6,4.8,10.25,3.23a8.23,8.23,0,0,1,2-.07c3.91-.27,7.82-.56,11.73-.84l4.57-.32c.05.71.14,1.37.14,2,0,4.57,0,9.14-.09,13.72a42.78,42.78,0,0,1-.37,5.77c-.36,2.36-1,4.67-1.49,7-.43,2.11-.65,4.27-1.23,6.34a4.14,4.14,0,0,1-1.83,2.55A62.25,62.25,0,0,1,59.68-62c-.43.12-1.12.51-1.11.75.09,1.9-1.61,2.63-2.39,3.94a3.29,3.29,0,0,0-.45,2.1c.46,2.08,1.12,4.11,1.7,6.17a16.85,16.85,0,0,1-1.06,1.67c-1.28,1.62-2.59,3.21-3.89,4.81-2.31,2.47-4.65,4.91-6.92,7.41-2.55,2.79-5.18,5.53-7.5,8.51a106.21,106.21,0,0,0-6.3,9.26c-2.24,3.6-4.43,7.25-6.39,11A146.13,146.13,0,0,0,18.8,7.49c-1.45,3.66-2.11,7.62-3.25,11.41a4.08,4.08,0,0,1-1.66,2c-2.06,1.34-4.25,2.52-6.37,3.79-.49.3-1.24.64-1.33,1.07-.58,2.95-1.5,5.93,0,8.89a15.14,15.14,0,0,0-.55,3.88C6,41.68,5,43.74,1.9,44.71A4,4,0,0,0,0,45.83c-.82,1-1.94,2.18-2,3.36-.33,3.74-.18,7.53-.37,11.29a3.17,3.17,0,0,1-1.24,2.18c-1.82,1.2-3.82,2.1-5.7,3.22a3.67,3.67,0,0,0-1.88,3.53c.09,5.91.08,11.84,0,17.75a3.7,3.7,0,0,0,2.43,3.77c3.57,1.61,7.08,3.35,10.71,4.82,4.31,1.75,8.84,3,13.05,5,7.23,3.34,15,5,22.54,7.08l.42.32c3.21.9,6.41,1.82,9.62,2.68,5.46,1.46,10.88,3.07,16.39,4.28,5.24,1.15,10.56,2,15.87,2.78,7.94,1.2,15.89,2.25,23.83,3.36l3.7.34a297.34,297.34,0,0,0,41,2l5.67-.36a8.86,8.86,0,0,0,2.11.38q6.94-.44,13.87-1c4-.32,8-.71,12-1.07h.92c3.68-.43,7.37-.8,11-1.29a366.21,366.21,0,0,0,41.29-7.65l30.85-8.9a10.81,10.81,0,0,0,2.51-.58c.49-.24.76-1,1.13-1.46Z"/></g></g><g id="words"><g class="cls-5"><path d="M83.87,183.72a.36.36,0,0,1-.27,0l-8.25-4.76L74,181.32a.31.31,0,0,1-.21.16.37.37,0,0,1-.27,0l-1.07-.62a.34.34,0,0,1-.16-.21.37.37,0,0,1,0-.27l3.78-6.54a.35.35,0,0,1,.21-.17.37.37,0,0,1,.27,0l1.07.62a.35.35,0,0,1,.17.21.34.34,0,0,1,0,.26l-1.39,2.4,8.25,4.76a.33.33,0,0,1,.16.22.31.31,0,0,1,0,.26l-.66,1.14A.33.33,0,0,1,83.87,183.72Z"/><path d="M86.48,179.17a.33.33,0,0,1-.29,0l-.11-.08-7.74-8.6a.51.51,0,0,1-.13-.3.57.57,0,0,1,.07-.33l.64-1.11a.55.55,0,0,1,.25-.23.5.5,0,0,1,.32,0l11.33,2.41a.28.28,0,0,1,.12.05.32.32,0,0,1,.18.23.39.39,0,0,1-.05.3l-.59,1a.52.52,0,0,1-.59.25l-2.43-.54-1.93,3.34,1.69,1.83a.52.52,0,0,1,.14.31.5.5,0,0,1-.07.33l-.58,1A.39.39,0,0,1,86.48,179.17Zm-.92-7.43-4.49-1,3.14,3.37Z"/><path d="M95.63,163.54a.6.6,0,0,1-.44.3l-5.93.86-.32.55,4,2.29a.34.34,0,0,1,.16.21.33.33,0,0,1,0,.27l-.66,1.14a.32.32,0,0,1-.2.16.36.36,0,0,1-.27,0l-9.62-5.56a.34.34,0,0,1-.16-.21.3.3,0,0,1,0-.26l.66-1.14A.32.32,0,0,1,83,162a.37.37,0,0,1,.27,0l4,2.33.27-.48-2.23-5.67a.55.55,0,0,1,0-.54l.75-1.3a.35.35,0,0,1,.19-.17.3.3,0,0,1,.23,0,.34.34,0,0,1,.14.18l2.46,6.37,6.9-1a.34.34,0,0,1,.23,0,.3.3,0,0,1,.13.18.32.32,0,0,1,0,.25Z"/><path d="M97.32,160.2a.68.68,0,0,1-.54-.07l-9-5.19a.68.68,0,0,1-.33-.43.64.64,0,0,1,.07-.54l2.81-4.88a.34.34,0,0,1,.47-.12l1.08.62a.34.34,0,0,1,.16.21.34.34,0,0,1,0,.26l-2.17,3.75,2.43,1.4,1.61-2.79a.31.31,0,0,1,.21-.16.3.3,0,0,1,.26,0l1,.59a.31.31,0,0,1,.16.21.3.3,0,0,1,0,.26l-1.61,2.79,2.83,1.63L98.89,154a.35.35,0,0,1,.21-.17.34.34,0,0,1,.26,0l1.08.62a.34.34,0,0,1,.12.47l-2.81,4.88A.68.68,0,0,1,97.32,160.2Z"/><path d="M106.82,144.36a.47.47,0,0,1-.33,0l-6.86-1.45-1.49-.38,1.24.91,5.25,3.85a.55.55,0,0,1,.18.29.47.47,0,0,1,0,.31l-.62,1.08a.36.36,0,0,1-.24.18.38.38,0,0,1-.3-.08l-8.79-6.65a.51.51,0,0,1-.22-.33.55.55,0,0,1,.07-.41l.75-1.3a.53.53,0,0,1,.25-.22.5.5,0,0,1,.34,0l7.82,1.66,1.15.28-.8-.84-5.38-6a.54.54,0,0,1-.13-.3.58.58,0,0,1,.08-.33l.68-1.18a.53.53,0,0,1,.71-.24l10.16,4.28a.43.43,0,0,1,.22.22.36.36,0,0,1,0,.3l-.65,1.12a.47.47,0,0,1-.25.21.4.4,0,0,1-.32,0l-6.09-2.66-1.31-.56,1.13,1.14,4.64,5.14a.6.6,0,0,1,.14.3.54.54,0,0,1-.07.33l-.63,1.09A.59.59,0,0,1,106.82,144.36Z"/><path d="M111.7,135.48a.69.69,0,0,1-.54-.07l-9-5.19a.72.72,0,0,1-.26-1l2.82-4.88a.35.35,0,0,1,.47-.13l1.07.62a.32.32,0,0,1,.17.21.37.37,0,0,1,0,.27l-2.16,3.74,2.43,1.41,1.61-2.79a.35.35,0,0,1,.21-.17.34.34,0,0,1,.26,0l1,.59a.34.34,0,0,1,.16.21.31.31,0,0,1,0,.26l-1.61,2.79,2.83,1.63,2.17-3.74a.33.33,0,0,1,.21-.17.35.35,0,0,1,.26,0l1.07.62a.35.35,0,0,1,.17.21.34.34,0,0,1,0,.26l-2.82,4.88A.66.66,0,0,1,111.7,135.48Z"/><path d="M100.41,201.53a.41.41,0,0,1-.3-.05l-14.94-8.62-2.46,4.28a.4.4,0,0,1-.25.19.36.36,0,0,1-.3-.05l-1.21-.7a.36.36,0,0,1-.19-.24.4.4,0,0,1,0-.3l6.11-10.59a.39.39,0,0,1,.24-.18.38.38,0,0,1,.31,0l1.21.7a.41.41,0,0,1,.19.24.39.39,0,0,1,0,.3l-2.47,4.28,14.93,8.62a.4.4,0,0,1,.15.55l-.77,1.34A.4.4,0,0,1,100.41,201.53Z"/><path d="M106.75,189.64a7,7,0,0,1-3.48.94,6.85,6.85,0,0,1-3.49-.92L94,186.33a6.71,6.71,0,0,1-2.54-2.56,7.05,7.05,0,0,1-.93-3.48,7,7,0,0,1,3.5-6.06,7,7,0,0,1,3.48-.94,6.83,6.83,0,0,1,3.49.92l5.76,3.33a6.65,6.65,0,0,1,2.54,2.56,7.08,7.08,0,0,1,.93,3.48,7,7,0,0,1-.93,3.5A6.86,6.86,0,0,1,106.75,189.64Zm1.25-6a4.77,4.77,0,0,0-.67-2.35,4.65,4.65,0,0,0-1.72-1.72l-5.76-3.33a4.64,4.64,0,0,0-2.36-.63,4.9,4.9,0,0,0-2.37.59,4.39,4.39,0,0,0-1.73,1.69,4.26,4.26,0,0,0-.59,2.34,4.77,4.77,0,0,0,.67,2.35,4.65,4.65,0,0,0,1.72,1.72l5.76,3.33a4.64,4.64,0,0,0,2.36.63,4.79,4.79,0,0,0,2.37-.59,4.33,4.33,0,0,0,1.73-1.69A4.26,4.26,0,0,0,108,183.64Z"/><path d="M120,168.44a.42.42,0,0,1-.31-.05l-14.93-8.62-2.47,4.28a.41.41,0,0,1-.24.19.38.38,0,0,1-.31-.05l-1.21-.7a.36.36,0,0,1-.19-.24.4.4,0,0,1,0-.3l6.11-10.58a.41.41,0,0,1,.25-.2.41.41,0,0,1,.3.05l1.21.7a.41.41,0,0,1,.19.24.35.35,0,0,1,0,.3l-2.47,4.28,14.93,8.63a.33.33,0,0,1,.19.24.36.36,0,0,1,0,.3l-.77,1.34A.41.41,0,0,1,120,168.44Z"/><path d="M125.63,158.59a.35.35,0,0,1-.3,0L108.83,149a.41.41,0,0,1-.19-.24.38.38,0,0,1,0-.31l.77-1.33A.39.39,0,0,1,110,147l6.85,3.95,4.8-8.3-6.85-4a.38.38,0,0,1-.19-.24.4.4,0,0,1,0-.3l.77-1.34a.4.4,0,0,1,.55-.15l16.49,9.53a.38.38,0,0,1,.19.24.36.36,0,0,1,0,.3l-.77,1.34a.41.41,0,0,1-.24.19.38.38,0,0,1-.31,0l-7.79-4.49L118.71,152l7.79,4.49a.45.45,0,0,1,.19.24.42.42,0,0,1,0,.31l-.77,1.33A.37.37,0,0,1,125.63,158.59Z"/><path d="M135.41,141.28a1,1,0,0,1-.78-.1l-15.4-8.9a1,1,0,0,1-.38-1.4l4.7-8.14a.36.36,0,0,1,.24-.19.41.41,0,0,1,.3,0l1.21.7a.33.33,0,0,1,.19.24.36.36,0,0,1,0,.3l-4,7,5.29,3,3.09-5.34a.36.36,0,0,1,.24-.19.41.41,0,0,1,.3,0l1.16.67a.37.37,0,0,1,.19.24.35.35,0,0,1,0,.3L128.56,135l6.23,3.6,4-7a.42.42,0,0,1,.24-.2.4.4,0,0,1,.3,0l1.22.7a.45.45,0,0,1,.19.24.4.4,0,0,1-.05.3L136,140.8A1,1,0,0,1,135.41,141.28Z"/><path class="cls-10" d="M136,211.73a.75.75,0,0,1,.6.08l2.25,1.3a.79.79,0,0,1,.37.47.77.77,0,0,1-.09.59l-1,1.67a7.46,7.46,0,0,1-1.73,2.07,9.9,9.9,0,0,1-2,1.31c-.65.31-1.59.72-2.83,1.23l-3.25,1.33a4.22,4.22,0,0,0-2.58,2.24,9.7,9.7,0,0,1-3.6,3.62,9.86,9.86,0,0,1-4.88,1.31,9.45,9.45,0,0,1-4.91-1.31l-6.87-4a9.84,9.84,0,0,1,0-17,9.94,9.94,0,0,1,4.87-1.32,9.55,9.55,0,0,1,4.91,1.32l6.88,4a9.42,9.42,0,0,1,3.22,3A9.83,9.83,0,0,1,127,217.7l2.35-.87.86-.32a22.74,22.74,0,0,0,2.87-1.25,4,4,0,0,0,1.52-1.52l.95-1.64A.73.73,0,0,1,136,211.73Zm-18.64,12.72a5.54,5.54,0,0,0,2.71-.69,5.08,5.08,0,0,0,2.63-4.56,5.53,5.53,0,0,0-.76-2.68,5.37,5.37,0,0,0-2-2l-6.88-4a5.31,5.31,0,0,0-2.7-.73,5.54,5.54,0,0,0-2.71.69,5,5,0,0,0-2.63,4.56,5.43,5.43,0,0,0,.76,2.68,5.3,5.3,0,0,0,2,2l6.87,4A5.48,5.48,0,0,0,117.32,224.45Z"/><path class="cls-10" d="M134.69,205.7a9.62,9.62,0,0,1-5,1.17,11.26,11.26,0,0,1-5.31-1.59l-13.59-7.84a.79.79,0,0,1-.37-.47.77.77,0,0,1,.09-.59l1.48-2.57a.77.77,0,0,1,1.07-.29l13.74,7.94a6.21,6.21,0,0,0,4.46.88,5,5,0,0,0,3.35-2.54,4.89,4.89,0,0,0,.5-4.14,6.18,6.18,0,0,0-3-3.42l-13.74-7.93a.74.74,0,0,1-.37-.47.75.75,0,0,1,.08-.6l1.48-2.57a.8.8,0,0,1,.48-.37.77.77,0,0,1,.59.09l13.58,7.84a11.21,11.21,0,0,1,4.05,3.82,9.4,9.4,0,0,1,1.5,4.93,10,10,0,0,1-5.06,8.72Z"/><path class="cls-10" d="M144.51,190a.82.82,0,0,1-.66-.08.92.92,0,0,1-.23-.18l-17.4-19.34a1.06,1.06,0,0,1-.3-.66,1.15,1.15,0,0,1,.17-.74l1.44-2.51a1.25,1.25,0,0,1,.56-.51,1.05,1.05,0,0,1,.72-.07l25.45,5.39a1.18,1.18,0,0,1,.27.12.77.77,0,0,1,.4.53.89.89,0,0,1-.1.67l-1.34,2.31a1.07,1.07,0,0,1-.57.5,1.11,1.11,0,0,1-.74.07l-5.46-1.23-4.34,7.52,3.79,4.11a1.23,1.23,0,0,1,.32.68,1.18,1.18,0,0,1-.16.75L145,189.56A.9.9,0,0,1,144.51,190Zm-2.07-16.7L132.35,171l7.05,7.58Z"/><path class="cls-10" d="M157.22,167.54a1.54,1.54,0,0,1-1.22-.16l-20.2-11.66a1.57,1.57,0,0,1-.74-1,1.51,1.51,0,0,1,.16-1.21l3.64-6.3a10.17,10.17,0,0,1,3.78-3.81,10,10,0,0,1,5.09-1.32,10.38,10.38,0,0,1,5.2,1.44l5,2.91a10.48,10.48,0,0,1,3.86,3.79,10.11,10.11,0,0,1,0,10.25l-3.64,6.29A1.5,1.5,0,0,1,157.22,167.54Zm.75-9a5.69,5.69,0,0,0,.78-3,5.94,5.94,0,0,0-.79-2.94,5.71,5.71,0,0,0-2.18-2.18l-5.21-3a5.61,5.61,0,0,0-2.95-.79,6,6,0,0,0-2.94.79,5.72,5.72,0,0,0-2.16,2.15l-2.08,3.6,15.45,8.92Z"/><path class="cls-10" d="M169.39,146.93a.73.73,0,0,1-.59-.08l-20.91-12.07a1.6,1.6,0,0,1-.58-2.18l3.47-6a8.16,8.16,0,0,1,3-3.06,8.06,8.06,0,0,1,4-1.14,7.76,7.76,0,0,1,4.06,1.06,7.67,7.67,0,0,1,3.33,3.76,8,8,0,0,1,.41,5l11.33-.56a1,1,0,0,1,.53.13.73.73,0,0,1,.36.49.88.88,0,0,1-.12.64l-1.52,2.63a1.07,1.07,0,0,1-.93.58l-11.65.38-.91,1.57,8.35,4.82a.75.75,0,0,1,.37.47.73.73,0,0,1-.08.59l-1.49,2.57A.72.72,0,0,1,169.39,146.93Zm-8.48-14.23a3.83,3.83,0,0,0,.48-2.95,3.53,3.53,0,0,0-1.78-2.29,3.68,3.68,0,0,0-2.92-.43,3.86,3.86,0,0,0-2.33,1.89l-1.89,3.28L159,136Z"/><path class="cls-10" d="M179.59,129.23a.82.82,0,0,1-.66-.08.83.83,0,0,1-.24-.18L161.3,109.63a1,1,0,0,1-.3-.66,1.16,1.16,0,0,1,.17-.74l1.44-2.5a1.22,1.22,0,0,1,.56-.52,1.05,1.05,0,0,1,.72-.07l25.45,5.4a.9.9,0,0,1,.27.11.79.79,0,0,1,.4.53.88.88,0,0,1-.11.67l-1.33,2.31a1.18,1.18,0,0,1-1.31.57l-5.46-1.22L177.46,121l3.79,4.12a1.17,1.17,0,0,1,.16,1.42l-1.29,2.25A.92.92,0,0,1,179.59,129.23Zm-2.07-16.69-10.09-2.32,7,7.58Z"/><path class="cls-10" d="M193.88,104.51a.73.73,0,0,1-.59-.08l-18.53-10.7-3.11,5.4a.8.8,0,0,1-.48.37.78.78,0,0,1-.59-.09L168.17,98a.79.79,0,0,1-.37-.47.77.77,0,0,1,.09-.59l8.49-14.71a.75.75,0,0,1,.47-.37.73.73,0,0,1,.59.08l2.41,1.39a.71.71,0,0,1,.37.48.73.73,0,0,1-.08.59L177,89.81l18.53,10.7a.75.75,0,0,1,.37.47.73.73,0,0,1-.08.59l-1.49,2.57A.73.73,0,0,1,193.88,104.51Z"/><path class="cls-10" d="M201.47,91.38a.76.76,0,0,1-.6-.09L198.66,90a.7.7,0,0,1-.37-.47.73.73,0,0,1,.08-.59L200,86.22l-15.83-9.14-1.58,2.73a.75.75,0,0,1-.47.37.73.73,0,0,1-.59-.08l-2.22-1.28a.81.81,0,0,1-.37-.47.76.76,0,0,1,.09-.6l5.41-9.37a.74.74,0,0,1,1.06-.29l2.22,1.28a.75.75,0,0,1,.37.47.73.73,0,0,1-.09.59l-1.57,2.73,15.83,9.14,1.58-2.73a.76.76,0,0,1,.47-.37.77.77,0,0,1,.59.09l2.22,1.28a.79.79,0,0,1,.37.47.77.77,0,0,1-.09.59L201.94,91A.75.75,0,0,1,201.47,91.38Z"/><path class="cls-10" d="M211.27,73.17a9.77,9.77,0,0,1-4.83,1.25,9.59,9.59,0,0,1-4.91-1.33l-6.84-4a9.82,9.82,0,0,1-4.93-8.39A9.13,9.13,0,0,1,191,55.93a10.7,10.7,0,0,1,2.83-3.24A9,9,0,0,1,197.63,51a.94.94,0,0,1,.65.12,1.24,1.24,0,0,1,.5.63l.66,2.27a.85.85,0,0,1,0,.66.88.88,0,0,1-.62.41,5.88,5.88,0,0,0-4,3,4.69,4.69,0,0,0-.62,2.57A5.6,5.6,0,0,0,197,65.23l6.84,3.94a5.32,5.32,0,0,0,2.69.75,5.59,5.59,0,0,0,2.67-.62,4.7,4.7,0,0,0,1.92-1.83,5.87,5.87,0,0,0,.57-4.93.88.88,0,0,1,0-.72.87.87,0,0,1,.57-.39l2.29-.56a1,1,0,0,1,.81.08,1,1,0,0,1,.41.49,9.51,9.51,0,0,1,.43,4.14,10.4,10.4,0,0,1-1.38,4.09A9.16,9.16,0,0,1,211.27,73.17Z"/><path d="M170.82,225.93a2.07,2.07,0,0,1-1.61-.22l-27.82-16.06a1,1,0,0,1-.49-.63,1.05,1.05,0,0,1,.11-.79l2-3.41a1,1,0,0,1,.62-.5,1,1,0,0,1,.79.12l24.66,14.23,5.72-9.91a1,1,0,0,1,.62-.5,1,1,0,0,1,.79.12l3.21,1.85a1,1,0,0,1,.49.62,1,1,0,0,1-.11.79l-7.67,13.29A2.08,2.08,0,0,1,170.82,225.93Z"/><path d="M182.46,206.36a1.1,1.1,0,0,1-.88-.11,1.26,1.26,0,0,1-.32-.24l-23.14-25.73a1.41,1.41,0,0,1-.4-.88,1.63,1.63,0,0,1,.22-1l1.93-3.34a1.62,1.62,0,0,1,.74-.68,1.45,1.45,0,0,1,1-.1l33.85,7.18a1.25,1.25,0,0,1,.37.16,1,1,0,0,1,.53.7,1.16,1.16,0,0,1-.14.89l-1.77,3.08a1.59,1.59,0,0,1-.76.67,1.61,1.61,0,0,1-1,.09l-7.27-1.63-5.77,10,5,5.48a1.64,1.64,0,0,1,.42.9,1.57,1.57,0,0,1-.21,1l-1.72,3A1.23,1.23,0,0,1,182.46,206.36Zm-2.76-22.22-13.43-3.08,9.39,10.09Z"/><path d="M199.48,176.93a1,1,0,0,1-.79-.11l-28.41-16.41a1.32,1.32,0,0,1-.67-.86,1.38,1.38,0,0,1,.14-1.09l2-3.5a1.53,1.53,0,0,1,1.31-.79l23.27-.24,4.77,0L180.44,142a1,1,0,0,1-.49-.63,1,1,0,0,1,.11-.79l1.78-3.08a1,1,0,0,1,.62-.49,1,1,0,0,1,.79.12l28.42,16.4a1.38,1.38,0,0,1,.66.87,1.36,1.36,0,0,1-.14,1.08l-2.05,3.55a1.51,1.51,0,0,1-1.3.78l-24.07.24h-3.86L201.5,172a1,1,0,0,1,.51.64,1,1,0,0,1-.13.77l-1.78,3.08A1,1,0,0,1,199.48,176.93Z"/><path d="M216.6,146.63a2,2,0,0,1-1.61-.22l-26.87-15.52a2,2,0,0,1-1-1.28,2,2,0,0,1,.22-1.61l4.83-8.38A13.4,13.4,0,0,1,204,112.79a13.92,13.92,0,0,1,6.92,1.92l6.71,3.87a13.84,13.84,0,0,1,5.12,5,13.34,13.34,0,0,1,0,13.64l-4.83,8.37A2.05,2.05,0,0,1,216.6,146.63Zm1-12a7.52,7.52,0,0,0,1-3.93,8,8,0,0,0-1-3.91,7.72,7.72,0,0,0-2.91-2.9l-6.93-4a7.55,7.55,0,0,0-3.92-1,7.87,7.87,0,0,0-3.91,1,7.6,7.6,0,0,0-2.88,2.86l-2.76,4.79,20.55,11.86Z"/><path d="M234.41,116.47a19.54,19.54,0,0,1-4.47,3,.86.86,0,0,1-.62,0,1,1,0,0,1-.56-.38l-1.82-3a1,1,0,0,1-.05-1.11,1.47,1.47,0,0,1,.54-.54,13.11,13.11,0,0,0,5.46-4.82,6.16,6.16,0,0,0,1-4.2,4,4,0,0,0-2.09-2.94,3.35,3.35,0,0,0-2.31-.48,6.06,6.06,0,0,0-2.33.93c-.78.5-1.84,1.27-3.17,2.33l-1.23.94a18.51,18.51,0,0,1-6,3.07q-3.08.87-6.79-1.27a10.33,10.33,0,0,1-3.94-3.84,9.49,9.49,0,0,1-1.23-5.07,11.81,11.81,0,0,1,1.68-5.47,16.43,16.43,0,0,1,3.35-4.08,17,17,0,0,1,4.4-2.84.86.86,0,0,1,.62,0,1,1,0,0,1,.56.38l1.87,3a1,1,0,0,1,0,1.11,1.4,1.4,0,0,1-.54.54,15.23,15.23,0,0,0-3.38,2.3,10.6,10.6,0,0,0-2,2.44,4.9,4.9,0,0,0-.7,3.64,4.32,4.32,0,0,0,5.49,3,16.26,16.26,0,0,0,4.45-2.63c.24-.21,1.19-1,2.87-2.25a10.87,10.87,0,0,1,5.39-2.28,8.88,8.88,0,0,1,5.6,1.25,10.27,10.27,0,0,1,4,4,10,10,0,0,1,1.19,5.39,13.28,13.28,0,0,1-1.86,5.88A16.42,16.42,0,0,1,234.41,116.47Z"/></g></g></svg>