<svg xmlns="http://www.w3.org/2000/svg" xmlns:xlink="http://www.w3.org/1999/xlink" viewBox="0 0 283.46 283.46"><defs><style>.cls-1{fill:none;}.cls-2{fill:#fff;}.cls-3{fill:#6f3ff4;}.cls-4{fill:#02e1ab;}.cls-5{clip-path:url(#clip-path);}.cls-6{fill:#b2ffec;}.cls-7{stroke:#000;stroke-miterlimit:10;stroke-width:2px;}</style><clipPath id="clip-path"><rect class="cls-1" x="35.43" y="111.3" width="224.61" height="76.64" rx="38.32" transform="translate(149.07 -60.65) rotate(45)"/></clipPath></defs><g id="profile"><path class="cls-2" d="M167.49,250.5a9.62,9.62,0,0,1-6.86-2.83L93,180.06a9.74,9.74,0,0,1,0-13.71,4.19,4.19,0,0,0,1.29-3,4,4,0,0,0-1.16-2.81L62.67,130.06A46.12,46.12,0,0,1,95.14,51.18,47.19,47.19,0,0,1,128.73,65.1L232.25,168.62c18.05,18,18.57,47.42,1.15,65.47a45.89,45.89,0,0,1-33.32,14.14h0a46.89,46.89,0,0,1-19.12-4.1,4,4,0,0,0-5.11,1.59,9.47,9.47,0,0,1-1.5,1.95A9.6,9.6,0,0,1,167.49,250.5Z"/><path d="M95.14,51.68a46.7,46.7,0,0,1,33.24,13.78L231.9,169c17.86,17.85,18.37,46.91,1.14,64.76a45.41,45.41,0,0,1-33,14,46.37,46.37,0,0,1-18.91-4.06,4.59,4.59,0,0,0-1.89-.41,4.43,4.43,0,0,0-3.86,2.21A9.21,9.21,0,0,1,161,247.32L93.38,179.71a9.21,9.21,0,0,1,0-13,4.67,4.67,0,0,0,1.41-3.33,4.44,4.44,0,0,0-1.31-3.17L63,129.7a45.62,45.62,0,0,1,32.12-78m0-1A46.15,46.15,0,0,0,63,63.56a46.87,46.87,0,0,0-.64,66.85L92.8,160.89a3.57,3.57,0,0,1-.1,5.08l0,0h0a10.23,10.23,0,0,0,0,14.43L160.28,248a10.24,10.24,0,0,0,14.42,0,10,10,0,0,0,1.59-2.06,3.44,3.44,0,0,1,3-1.71,3.72,3.72,0,0,1,1.48.32,46.91,46.91,0,0,0,53-10.14c17.82-18.47,17-48-1.15-66.17L129.09,64.75A48,48,0,0,0,95.14,50.68Z"/><path class="cls-3" d="M106,183.59a3.42,3.42,0,0,1-.29-.85.15.15,0,0,1,0-.11.16.16,0,0,1,.09-.07l.57-.16a.15.15,0,0,1,.18,0,.2.2,0,0,1,.06.11,2.16,2.16,0,0,0,.55,1.09,1,1,0,0,0,.63.34.68.68,0,0,0,.57-.21.69.69,0,0,0,.18-.35,1.24,1.24,0,0,0-.05-.42c0-.15-.13-.35-.24-.61l-.1-.24a3.26,3.26,0,0,1-.24-1.1,1.44,1.44,0,0,1,.5-1,1.67,1.67,0,0,1,.79-.47,1.52,1.52,0,0,1,.87,0,2.06,2.06,0,0,1,.81.5,2.61,2.61,0,0,1,.51.72,2.58,2.58,0,0,1,.27.84.13.13,0,0,1,0,.1.18.18,0,0,1-.08.07L111,182a.16.16,0,0,1-.18-.05.3.3,0,0,1-.07-.11,2.67,2.67,0,0,0-.22-.64,1.7,1.7,0,0,0-.31-.43.82.82,0,0,0-.55-.28.7.7,0,0,0-.52.22.69.69,0,0,0-.21.54,2.69,2.69,0,0,0,.23.83s.11.24.24.56a1.84,1.84,0,0,1,.14,1,1.51,1.51,0,0,1-.45.85,1.68,1.68,0,0,1-.81.47,1.61,1.61,0,0,1-.92,0,2.17,2.17,0,0,1-.87-.55A2.65,2.65,0,0,1,106,183.59Z"/><path class="cls-3" d="M109.48,186.92a2.14,2.14,0,0,1,.57-2.09l1.24-1.24a2.17,2.17,0,0,1,1-.57,2.2,2.2,0,0,1,1.11,0,1.94,1.94,0,0,1,1,.55,2.32,2.32,0,0,1,.54.79,2,2,0,0,1,.14.91.22.22,0,0,1-.06.13.24.24,0,0,1-.17.07l-.52,0a.2.2,0,0,1-.14,0,.18.18,0,0,1,0-.16,1.3,1.3,0,0,0-.41-1,1.08,1.08,0,0,0-.52-.29,1.22,1.22,0,0,0-1.14.34l-1.25,1.24a1.22,1.22,0,0,0-.31.54,1.11,1.11,0,0,0,0,.6,1,1,0,0,0,.28.52,1.31,1.31,0,0,0,1,.41.18.18,0,0,1,.2.19v.53a.25.25,0,0,1-.06.17.21.21,0,0,1-.13.05,2.22,2.22,0,0,1-.92-.14,2.59,2.59,0,0,1-.8-.53A2,2,0,0,1,109.48,186.92Z"/><path class="cls-3" d="M112.15,189.78a.13.13,0,0,1,0-.12l3.92-3.93a.21.21,0,0,1,.12,0,.21.21,0,0,1,.13,0l.46.47a.15.15,0,0,1,0,.24L115.26,188l1.73,1.72,1.57-1.57a.15.15,0,0,1,.12,0,.13.13,0,0,1,.12,0l.47.47a.13.13,0,0,1,0,.12.15.15,0,0,1,0,.12l-3.92,3.92a.18.18,0,0,1-.13.06.17.17,0,0,1-.12-.06l-.46-.46a.17.17,0,0,1-.06-.12.18.18,0,0,1,.06-.13l1.67-1.68-1.72-1.72-1.68,1.68a.18.18,0,0,1-.12,0,.17.17,0,0,1-.12,0l-.47-.47A.13.13,0,0,1,112.15,189.78Z"/><path class="cls-3" d="M116.3,193.85a.35.35,0,0,1,.1-.25l3.67-3.66a.34.34,0,0,1,.25-.11.37.37,0,0,1,.25.1l2,2a.21.21,0,0,1,0,.13.21.21,0,0,1,0,.12l-.44.44a.17.17,0,0,1-.24,0l-1.53-1.53-1,1,1.14,1.14a.17.17,0,0,1,0,.12.14.14,0,0,1-.06.12l-.41.42a.17.17,0,0,1-.12,0,.14.14,0,0,1-.12-.06l-1.14-1.13-1.16,1.15,1.53,1.53a.16.16,0,0,1,.05.12.17.17,0,0,1-.05.13l-.44.43a.11.11,0,0,1-.12,0,.13.13,0,0,1-.12,0l-2-2A.33.33,0,0,1,116.3,193.85Z"/><path class="cls-3" d="M119.46,197a.34.34,0,0,1,.11-.25l3.79-3.8a.21.21,0,0,1,.13-.05.21.21,0,0,1,.12.05l.47.47a.18.18,0,0,1,0,.12.17.17,0,0,1,0,.12l-3.37,3.37,1.35,1.35a.17.17,0,0,1,.06.12.18.18,0,0,1-.06.13l-.43.43a.18.18,0,0,1-.13.06.17.17,0,0,1-.12-.06l-1.81-1.81A.34.34,0,0,1,119.46,197Z"/><path class="cls-3" d="M122.29,199.85a.34.34,0,0,1,.11-.25l3.79-3.8a.21.21,0,0,1,.12-.05.21.21,0,0,1,.13.05l.46.47a.17.17,0,0,1,0,.24l-3.36,3.37,1.35,1.35a.15.15,0,0,1,0,.12.13.13,0,0,1,0,.12l-.44.44a.13.13,0,0,1-.12.05.15.15,0,0,1-.12-.05l-1.81-1.81A.36.36,0,0,1,122.29,199.85Z"/><path class="cls-3" d="M124.92,202.55a.18.18,0,0,1,0-.12l.41-.4a.13.13,0,0,1,.12-.05.16.16,0,0,1,.12.05l.5.49,2.87-2.87-.5-.5a.17.17,0,0,1,0-.24l.41-.4a.15.15,0,0,1,.24,0l1.7,1.7a.15.15,0,0,1,0,.24l-.4.41a.17.17,0,0,1-.24,0l-.5-.5-2.87,2.88.49.49a.17.17,0,0,1,.06.12.18.18,0,0,1-.06.13l-.4.4a.18.18,0,0,1-.12.05.17.17,0,0,1-.12-.05L125,202.67A.17.17,0,0,1,124.92,202.55Z"/><path class="cls-3" d="M127.67,205.3a.13.13,0,0,1,0-.12l3.88-3.88a.21.21,0,0,1,.17-.07.2.2,0,0,1,.16.07l.48.48a.23.23,0,0,1,.07.24l-1,3.77-.21.77,2.83-2.82a.15.15,0,0,1,.24,0l.42.42a.17.17,0,0,1,0,.24l-3.88,3.88a.2.2,0,0,1-.16.07.21.21,0,0,1-.17-.07l-.49-.49a.25.25,0,0,1-.07-.24l1-3.89.17-.63-2.81,2.81a.15.15,0,0,1-.24,0l-.42-.42A.15.15,0,0,1,127.67,205.3Z"/><path class="cls-3" d="M132.5,209.94a2.13,2.13,0,0,1,0-1.12,2.17,2.17,0,0,1,.57-1l1.24-1.24a2.12,2.12,0,0,1,1-.57,2.36,2.36,0,0,1,1.12,0,2.17,2.17,0,0,1,1,.57,2.59,2.59,0,0,1,.55.81,2.1,2.1,0,0,1,.15.92.16.16,0,0,1-.06.13.24.24,0,0,1-.17.07l-.52,0a.2.2,0,0,1-.14-.05.18.18,0,0,1,0-.16,1.39,1.39,0,0,0-.44-1.05,1.08,1.08,0,0,0-.53-.3,1.19,1.19,0,0,0-.62,0,1.13,1.13,0,0,0-.54.31l-1.24,1.24a1.13,1.13,0,0,0-.31.54,1.19,1.19,0,0,0,0,.62,1.15,1.15,0,0,0,.29.53,1.24,1.24,0,0,0,.53.31,1.22,1.22,0,0,0,.6,0,1.27,1.27,0,0,0,.54-.31l.28-.29-.78-.78a.15.15,0,0,1,0-.12.17.17,0,0,1,0-.13l.42-.42a.18.18,0,0,1,.12-.05.17.17,0,0,1,.12.05l1.23,1.24a.34.34,0,0,1,.11.25.36.36,0,0,1-.11.25l-.67.67a2.17,2.17,0,0,1-1,.57,2.13,2.13,0,0,1-1.12,0,2.15,2.15,0,0,1-1-.56A2.24,2.24,0,0,1,132.5,209.94Z"/><path class="cls-3" d="M137,214.6a.21.21,0,0,1,.05-.12l3.8-3.79a.34.34,0,0,1,.5,0l1,1a2,2,0,0,1,.5.86,1.85,1.85,0,0,1,0,1,1.76,1.76,0,0,1-.48.85,1.88,1.88,0,0,1-.86.5,2,2,0,0,1-1,0,1.88,1.88,0,0,1-.86-.5l-.58-.58-1.35,1.36a.18.18,0,0,1-.13.06.17.17,0,0,1-.12-.06l-.47-.46A.21.21,0,0,1,137,214.6Zm3.34-.89a.91.91,0,0,0,.68.28.93.93,0,0,0,.68-.28.9.9,0,0,0,.27-.67.89.89,0,0,0-.28-.67l-.55-.55-1.34,1.34Z"/><path class="cls-3" d="M141.13,218.57a2.28,2.28,0,0,1,0-1.13,2.17,2.17,0,0,1,.57-1l1.24-1.24a2.06,2.06,0,0,1,1-.56,2.13,2.13,0,0,1,1.12,0,2.07,2.07,0,0,1,1,.57,2.12,2.12,0,0,1,.57,1,2.24,2.24,0,0,1,0,1.12,2.12,2.12,0,0,1-.57,1l-1.24,1.24a2.17,2.17,0,0,1-1,.57,2.13,2.13,0,0,1-1.12,0,2.17,2.17,0,0,1-1.55-1.55Zm1.78.59a1.19,1.19,0,0,0,.62,0,1.13,1.13,0,0,0,.54-.31l1.24-1.24a1.22,1.22,0,0,0,.31-.54,1.19,1.19,0,0,0,0-.62,1.08,1.08,0,0,0-.3-.53,1,1,0,0,0-.53-.3,1.3,1.3,0,0,0-.62,0,1.22,1.22,0,0,0-.54.31l-1.24,1.24a1.23,1.23,0,0,0-.31.54,1.19,1.19,0,0,0,0,.62,1.11,1.11,0,0,0,.3.54A1.1,1.1,0,0,0,142.91,219.16Z"/><path class="cls-3" d="M143.94,221.57a.17.17,0,0,1,.05-.12l.4-.4a.18.18,0,0,1,.13-.06.17.17,0,0,1,.12.06l.49.49,2.88-2.87-.5-.5a.17.17,0,0,1,0-.24l.41-.4a.14.14,0,0,1,.12-.06.18.18,0,0,1,.12.05l1.7,1.71a.15.15,0,0,1,0,.24l-.4.41a.18.18,0,0,1-.12.05.14.14,0,0,1-.12-.06l-.5-.49-2.87,2.87.49.5a.15.15,0,0,1,0,.12.13.13,0,0,1,0,.12l-.4.41a.21.21,0,0,1-.12,0,.21.21,0,0,1-.13,0l-1.7-1.71A.17.17,0,0,1,143.94,221.57Z"/><path class="cls-3" d="M146.69,224.32a.13.13,0,0,1,.05-.12l3.87-3.88a.23.23,0,0,1,.17-.07.21.21,0,0,1,.17.07l.48.48a.23.23,0,0,1,.07.24l-1,3.77-.21.77,2.83-2.83a.17.17,0,0,1,.12-.05.18.18,0,0,1,.12.05l.42.42a.17.17,0,0,1,.05.13.21.21,0,0,1-.05.12l-3.88,3.88a.24.24,0,0,1-.17.07.28.28,0,0,1-.17-.07l-.48-.49a.23.23,0,0,1-.07-.24l1-3.9.17-.62-2.81,2.81a.15.15,0,0,1-.24,0l-.42-.42A.15.15,0,0,1,146.69,224.32Z"/><path class="cls-3" d="M151.64,229.27a.21.21,0,0,1,.05-.12l3.37-3.36-1-1a.17.17,0,0,1-.05-.13.16.16,0,0,1,.05-.12l.44-.44a.17.17,0,0,1,.12-.05.18.18,0,0,1,.12.05l2.67,2.68a.13.13,0,0,1,0,.12.15.15,0,0,1,0,.12l-.44.44a.17.17,0,0,1-.24,0l-1-1-3.37,3.36a.14.14,0,0,1-.12.06.17.17,0,0,1-.12-.06l-.47-.46A.21.21,0,0,1,151.64,229.27Z"/><path class="cls-3" d="M155.51,233.06a.31.31,0,0,1,.1-.24l.46-.47a2.39,2.39,0,0,1,.85-.6,1.68,1.68,0,0,1,.84-.08,13.06,13.06,0,0,1,1.41.32,1.46,1.46,0,0,0,.58,0,.87.87,0,0,0,.42-.23.73.73,0,0,0,.23-.55.91.91,0,0,0-.3-.6,2,2,0,0,0-.95-.5l-.09-.06a.15.15,0,0,1,0-.17l.15-.54a.29.29,0,0,1,0-.08.19.19,0,0,1,.16,0,2.69,2.69,0,0,1,.77.29,3.42,3.42,0,0,1,.69.51,1.8,1.8,0,0,1,.6,1.23,1.58,1.58,0,0,1-.54,1.19,1.56,1.56,0,0,1-.87.48,3.19,3.19,0,0,1-1.23-.08l-.37-.09c-.27-.07-.48-.11-.64-.14a1.19,1.19,0,0,0-.46,0,.9.9,0,0,0-.43.25l-.16.17,1.51,1.51a.16.16,0,0,1,0,.12.17.17,0,0,1,0,.13l-.43.43a.18.18,0,0,1-.12,0,.17.17,0,0,1-.12,0l-2-2A.33.33,0,0,1,155.51,233.06Z"/><path class="cls-3" d="M159.3,236.05a4,4,0,0,1,1.24-2,4.09,4.09,0,0,1,2-1.24,1.94,1.94,0,0,1,2.2,2.2,4.09,4.09,0,0,1-1.24,2,4,4,0,0,1-2,1.25,2,2,0,0,1-2.2-2.21Zm1.8,1.27a1.28,1.28,0,0,0,.72-.24,7.11,7.11,0,0,0,1.73-1.73,1.26,1.26,0,0,0,.23-.72.85.85,0,0,0-.29-.58.84.84,0,0,0-.58-.28,1.28,1.28,0,0,0-.72.24,5.82,5.82,0,0,0-.95.8,3.71,3.71,0,0,0-1,1.31.85.85,0,0,0,.24.92A.84.84,0,0,0,161.1,237.32Z"/><path class="cls-3" d="M162.17,239.72a.3.3,0,0,1,.1-.24l.46-.47a2.39,2.39,0,0,1,.85-.6,1.68,1.68,0,0,1,.84-.08c.3,0,.77.15,1.41.31a1.28,1.28,0,0,0,.57,0,.86.86,0,0,0,.43-.23.74.74,0,0,0,.23-.56.91.91,0,0,0-.3-.59,2,2,0,0,0-.95-.5l-.09-.06a.16.16,0,0,1,0-.17l.15-.55a.16.16,0,0,1,0-.07.19.19,0,0,1,.16,0,2.69,2.69,0,0,1,.77.29,3.08,3.08,0,0,1,.69.51,1.8,1.8,0,0,1,.6,1.23,1.58,1.58,0,0,1-.54,1.19,1.56,1.56,0,0,1-.87.48,3.19,3.19,0,0,1-1.23-.08l-.37-.1c-.27-.06-.48-.11-.64-.13a1.18,1.18,0,0,0-.46,0,.88.88,0,0,0-.43.24l-.17.17,1.52,1.52a.21.21,0,0,1,0,.12.17.17,0,0,1,0,.12l-.43.44a.21.21,0,0,1-.12,0,.21.21,0,0,1-.13,0l-1.95-2A.33.33,0,0,1,162.17,239.72Z"/><path class="cls-3" d="M165.2,242.76a.37.37,0,0,1,.1-.25l.47-.46a2.57,2.57,0,0,1,.85-.61,1.64,1.64,0,0,1,.83-.07,12.44,12.44,0,0,1,1.41.31,1.33,1.33,0,0,0,.58,0,.88.88,0,0,0,.43-.24.71.71,0,0,0,.23-.55.91.91,0,0,0-.3-.59,2.16,2.16,0,0,0-1-.51.21.21,0,0,1-.1-.06.16.16,0,0,1,0-.16l.16-.55a.16.16,0,0,1,0-.07.14.14,0,0,1,.15-.05,2.72,2.72,0,0,1,.78.28,3.13,3.13,0,0,1,.69.52,1.78,1.78,0,0,1,.59,1.23,1.8,1.8,0,0,1-1.41,1.67,3.6,3.6,0,0,1-1.22-.08l-.37-.1c-.27-.06-.48-.11-.64-.13a1.49,1.49,0,0,0-.47,0,.92.92,0,0,0-.42.25l-.17.17,1.52,1.52a.17.17,0,0,1,0,.24l-.43.43a.18.18,0,0,1-.13.06.17.17,0,0,1-.12-.06l-1.95-2A.34.34,0,0,1,165.2,242.76Z"/><path class="cls-3" d="M102.65,167.37l.66.5-.22.29-.56.73-.56.73a.31.31,0,0,0-.08.31c0,.23.06.47.09.7a.8.8,0,0,0,0,.15,11.4,11.4,0,0,0,1-1.2c.3-.42.63-.82,1-1.24l.65.5L102.16,172l.14,1h0l.17-.21.16-.17.06-.06a8,8,0,0,1,.64-.89c.23-.29.45-.59.67-.88s.31-.38.46-.58l.35-.47.3-.4.07-.06.63.48-.94,1.24c.52-.05,1-.14,1.54-.2l.1.77s-.06,0-.1,0l-1.75.23-.38.06a.25.25,0,0,0-.19.11c-.16.23-.34.44-.51.67l-.07.12,3.11-.42.11.8-.28.05-1.25.16-1.18.16-1.16.16a.15.15,0,0,0-.11.06l-.6.79a.65.65,0,0,0,.34,0l.57-.09.74-.09,1.22-.17,1.24-.17.5-.06h.08l.1.78c-.5.09-1,.13-1.51.22a5.17,5.17,0,0,0,.59.48l.61.46c-.16.22-.31.43-.49.64l-.33-.24-.73-.55-.73-.57a.21.21,0,0,0-.17-.06l-.95.13-.05,0c.41.34.83.64,1.24,1s.82.62,1.24.94l-.5.64-.49-.36-.56-.44-.6-.46-.69-.52-.71-.55a.22.22,0,0,0-.2-.06l-.88.12-.1,0,3.75,2.87-.27.37-.22.27c-.42-.29-.8-.63-1.21-.91l0,0,.2,1.5-.79.11c0-.1,0-.18,0-.26l-.12-.94-.12-1a.36.36,0,0,0-.16-.28l-.68-.53-.07,0c0,.54.13,1,.2,1.56s.14,1,.21,1.56l-.8.11c0-.17,0-.32-.07-.48,0-.34-.09-.69-.14-1l-.18-1.41c0-.31-.09-.61-.12-.92a.26.26,0,0,0-.11-.16l-.41-.32-.35-.27a.45.45,0,0,0,0,.08l.18,1.39.15,1.12c0,.42.11.83.17,1.24s.07.57.11.88l-.8.1c-.08-.5-.12-1-.21-1.53L98.06,180c-.23-.15-.43-.31-.65-.48.09-.12.16-.23.25-.34l.55-.72c.2-.25.4-.51.59-.77a.18.18,0,0,0,0-.1c0-.34-.09-.68-.13-1h0L96.79,179a3.13,3.13,0,0,1-.65-.48c.08-.11.16-.23.25-.34l.43-.56.45-.59.66-.84.48-.63a.41.41,0,0,0,.11-.4c0-.25-.07-.5-.1-.75a.56.56,0,0,1,0-.13,1.08,1.08,0,0,0-.27.3l-.45.59-.42.55-.33.42-.14.18-.6.78-.62.82-.09.11-.62-.47c.28-.43.62-.8.92-1.24-.28,0-.52.06-.77.1l-.76.1-.12-.8.26,0,1.2-.16.76-.1a.32.32,0,0,0,.22-.12c.16-.22.33-.43.5-.65,0,0,0-.07.07-.13-.54.05-1,.14-1.55.2l-1.54.21c-.07-.27-.07-.52-.12-.79l.27-.05,1.77-.24,1.52-.19.28,0a.2.2,0,0,0,.16-.09l.59-.78a.92.92,0,0,0-.37,0l-1.24.17-1.53.21-1.16.16-.4,0-.11-.79c.49-.09,1-.14,1.47-.23-.35-.35-.78-.61-1.15-.94l.48-.64.09.05.67.51.61.47.49.38.08,0,.9-.12.09,0-.14-.15-.95-.72-.85-.64-.46-.35,0,0a4.93,4.93,0,0,1,.51-.64l.28.21.69.53.57.44,1.08.82.39.31a.31.31,0,0,0,.25.08l.88-.13,0,0a.27.27,0,0,0-.07-.08l-.57-.44-.83-.64-.88-.66-.57-.45-.72-.54-.07-.07.49-.64,1.23.93a5.76,5.76,0,0,0-.1-.77l-.09-.76.81-.11c0,.24.06.45.09.67.07.49.13,1,.2,1.47v.06a.29.29,0,0,0,.14.25l.67.51.06,0s0-.08,0-.11c0-.34-.09-.68-.14-1s-.07-.58-.11-.87l-.12-.86a1.69,1.69,0,0,1,0-.23l.77-.11a.21.21,0,0,1,0,.11l.21,1.5c0,.36.09.72.13,1.08l.15,1.13a.29.29,0,0,0,.11.2l.77.58c0-.15,0-.28,0-.41-.06-.42-.12-.84-.17-1.26s-.16-1.11-.23-1.66-.11-.84-.17-1.26c0-.1,0-.11.1-.13l.7-.1.21,1.5h0ZM100.13,172a5.22,5.22,0,0,0-.32.42.33.33,0,0,1-.28.16,1.25,1.25,0,0,0-.19,0c-.11,0-.23,0-.33.07s0,.39.08.59a.19.19,0,0,1,0,.16l-.17.22-.19.26a4.56,4.56,0,0,0,.39.3.37.37,0,0,1,.19.34c0,.15,0,.31.07.47l.6-.07a.21.21,0,0,1,.17,0l.34.26.15.09c.12-.15.23-.29.33-.44a.26.26,0,0,1,.18-.12,4.13,4.13,0,0,0,.49-.07.23.23,0,0,0,.11,0c0-.16,0-.3-.06-.45a.44.44,0,0,1,.1-.41.27.27,0,0,0,.07-.08l.22-.3-.28-.21c-.27-.2-.28-.2-.32-.47v-.08c0-.11,0-.23-.06-.37l-.07,0-.48.07a.25.25,0,0,1-.23-.06,1.21,1.21,0,0,0-.14-.1Z"/><path class="cls-4" d="M99.7,174.55a1.26,1.26,0,0,1,0-.27.34.34,0,0,0-.19-.29l-.18-.15a.62.62,0,0,1,.08-.12l.12-.17c.06-.05.05-.11.05-.18a3.31,3.31,0,0,1,0-.33l.37-.06a.2.2,0,0,0,.15-.1,2,2,0,0,1,.2-.26l.36.27.43-.06a.77.77,0,0,1,0,.25.36.36,0,0,0,.19.31l.19.17a.65.65,0,0,1-.11.12.52.52,0,0,0-.13.49.79.79,0,0,1,0,.17l-.26,0a.32.32,0,0,0-.3.19,1.1,1.1,0,0,1-.14.18,1.13,1.13,0,0,1-.21-.15.31.31,0,0,0-.29-.09A2.51,2.51,0,0,1,99.7,174.55Z"/></g><g id="background"><rect class="cls-4" x="35.43" y="111.3" width="224.61" height="76.64" rx="38.32" transform="translate(149.07 -60.65) rotate(45)"/><g class="cls-5"><rect class="cls-6" x="50.06" y="96.68" width="224.61" height="76.64" rx="38.32" transform="translate(143.01 -75.27) rotate(45)"/></g></g><g id="words"><g class="cls-5"><path class="cls-7" d="M52.68,109.62a16.83,16.83,0,0,1,0-8.63A16.24,16.24,0,0,1,57,93.44l9.57-9.57a16.32,16.32,0,0,1,7.55-4.36,16.83,16.83,0,0,1,8.63,0,16.37,16.37,0,0,1,7.55,4.36,19.08,19.08,0,0,1,4.24,6.26,15.91,15.91,0,0,1,1.2,7.08,1.62,1.62,0,0,1-.5,1,2,2,0,0,1-1.26.54l-4,.09a1.47,1.47,0,0,1-1.08-.36,1.52,1.52,0,0,1-.41-1.22,10.68,10.68,0,0,0-3.37-8.13A8.54,8.54,0,0,0,81,86.88a9.34,9.34,0,0,0-4.78.07,9.14,9.14,0,0,0-4.16,2.4l-9.57,9.57a9.25,9.25,0,0,0-2.41,4.16,9.48,9.48,0,0,0-.06,4.79A8.63,8.63,0,0,0,62.34,112a9,9,0,0,0,4,2.33,8.85,8.85,0,0,0,4.68,0,9,9,0,0,0,4.09-2.38l2.2-2.2-6-6a1.31,1.31,0,0,1-.41-1,1.29,1.29,0,0,1,.41-.94l3.23-3.24a1.3,1.3,0,0,1,1-.4,1.28,1.28,0,0,1,.94.4L85.93,108a2.72,2.72,0,0,1,0,3.87l-5.21,5.21a16.37,16.37,0,0,1-7.55,4.36,16.83,16.83,0,0,1-8.63,0,16.72,16.72,0,0,1-11.86-11.86Z"/><path class="cls-7" d="M75.91,134.34a1.31,1.31,0,0,1,.41-1l29.25-29.26a2.74,2.74,0,0,1,3.87,0l8.4,8.41a14.14,14.14,0,0,1,3.73,6.34,13.91,13.91,0,0,1,.09,7.19,13.58,13.58,0,0,1-11.26,10.09,13.81,13.81,0,0,1-8.51-1.55l-4.09,19a1.75,1.75,0,0,1-.45.8,1.23,1.23,0,0,1-1,.39,1.52,1.52,0,0,1-1-.48l-3.68-3.68a1.85,1.85,0,0,1-.54-1.8l4.54-19.46-2.21-2.2L81.8,138.88a1.32,1.32,0,0,1-1.89,0l-3.59-3.6A1.29,1.29,0,0,1,75.91,134.34Zm27.33-7.73a6.63,6.63,0,0,0,4.67,2.11,6.15,6.15,0,0,0,4.58-1.93,6.3,6.3,0,0,0,2-4.66,6.53,6.53,0,0,0-2.09-4.69l-4.58-4.59L98.65,122Z"/><path class="cls-7" d="M103.15,161a2.68,2.68,0,0,1,.8-1.94l28.27-28.26a2.72,2.72,0,0,1,3.87,0l15.32,15.32a1.29,1.29,0,0,1,.41.94,1.31,1.31,0,0,1-.41.95L148,151.37a1.28,1.28,0,0,1-.94.4,1.3,1.3,0,0,1-.95-.4l-11.77-11.78-7.64,7.64L135.5,156a1.29,1.29,0,0,1,.41.94,1.27,1.27,0,0,1-.41.94l-3.19,3.2a1.28,1.28,0,0,1-.94.4,1.26,1.26,0,0,1-.94-.4l-8.77-8.77-8.9,8.9L124.54,173a1.3,1.3,0,0,1,.4,1,1.28,1.28,0,0,1-.4.94l-3.37,3.37a1.31,1.31,0,0,1-1,.41,1.29,1.29,0,0,1-.94-.41L104,162.92A2.64,2.64,0,0,1,103.15,161Z"/><path class="cls-7" d="M127.55,185.39a2.63,2.63,0,0,1,.81-1.93l28.27-28.27a2.7,2.7,0,0,1,3.86,0l15.33,15.32a1.3,1.3,0,0,1,.4,1,1.28,1.28,0,0,1-.4.94l-3.37,3.37a1.31,1.31,0,0,1-.95.41,1.29,1.29,0,0,1-.94-.41L158.78,164l-7.64,7.64,8.77,8.76a1.28,1.28,0,0,1,.4.94,1.3,1.3,0,0,1-.4.95l-3.19,3.19a1.3,1.3,0,0,1-.95.4,1.28,1.28,0,0,1-.94-.4l-8.77-8.77-8.89,8.9,11.77,11.78a1.29,1.29,0,0,1,.41.94,1.31,1.31,0,0,1-.41.95l-3.37,3.37a1.28,1.28,0,0,1-.94.4,1.3,1.3,0,0,1-.95-.4l-15.32-15.33A2.63,2.63,0,0,1,127.55,185.39Z"/><path class="cls-7" d="M151.37,209.79a1.28,1.28,0,0,1,.4-.94L181.66,179a1.77,1.77,0,0,1,1.3-.54,1.79,1.79,0,0,1,1.31.54l3.68,3.69a2,2,0,0,1,.54,1.89l-7.46,29-1.62,5.93,21.75-21.75a1.31,1.31,0,0,1,1-.41,1.29,1.29,0,0,1,.94.41l3.24,3.23a1.3,1.3,0,0,1,.4,1,1.28,1.28,0,0,1-.4.94L176.4,232.76a1.85,1.85,0,0,1-2.61,0L170.06,229a2,2,0,0,1-.54-1.89l7.73-30,1.31-4.81L156.9,214a1.3,1.3,0,0,1-1,.43A1.37,1.37,0,0,1,155,214l-3.24-3.23A1.3,1.3,0,0,1,151.37,209.79Z"/><path d="M203.35,242.44a.59.59,0,0,1-.43-.19L189.65,229a1.22,1.22,0,0,1-.37-.88,1.19,1.19,0,0,1,.37-.87l3.63-3.63a6.62,6.62,0,0,1,3-1.75,6.8,6.8,0,0,1,3.44,0,6.58,6.58,0,0,1,4.71,4.71,6.62,6.62,0,0,1,0,3.45,6.51,6.51,0,0,1-1.74,3l-2,2,4.75,4.75a.55.55,0,0,1,.18.43.58.58,0,0,1-.18.42l-1.63,1.63A.56.56,0,0,1,203.35,242.44Zm-3.12-11.69a3.33,3.33,0,1,0-4.71-4.71L193.61,228l4.71,4.71Z"/><path d="M214.3,231.49a.59.59,0,0,1-.43-.19l-1.4-1.4a.58.58,0,0,1,0-.86l1.73-1.73-10-10.05L202.41,219a.58.58,0,0,1-.42.18.58.58,0,0,1-.43-.18l-1.41-1.41a.58.58,0,0,1-.18-.43.58.58,0,0,1,.18-.42l5.95-6a.61.61,0,0,1,.43-.18.58.58,0,0,1,.43.18l1.41,1.41a.58.58,0,0,1,.18.43.61.61,0,0,1-.18.43l-1.74,1.73,10.06,10,1.73-1.73a.57.57,0,0,1,.43-.19.59.59,0,0,1,.43.19l1.4,1.4a.59.59,0,0,1,.19.43.56.56,0,0,1-.19.43l-6,6A.57.57,0,0,1,214.3,231.49Z"/><path d="M223.91,221.62a1.18,1.18,0,0,1-.88-.37L209.75,208a.6.6,0,0,1,0-.86l1.64-1.63a.58.58,0,0,1,.42-.18.58.58,0,0,1,.43.18L224,217.26l4.73-4.73a.56.56,0,0,1,.43-.19.55.55,0,0,1,.42.19l1.53,1.52a.59.59,0,0,1,.19.43.57.57,0,0,1-.19.43l-6.34,6.34A1.16,1.16,0,0,1,223.91,221.62Z"/><path d="M233.79,211.73a1.16,1.16,0,0,1-.87-.37l-13.28-13.27a.6.6,0,0,1-.18-.43.61.61,0,0,1,.18-.43l1.63-1.63a.61.61,0,0,1,.43-.18.58.58,0,0,1,.43.18l11.77,11.77,4.73-4.73a.55.55,0,0,1,.42-.19.56.56,0,0,1,.43.19l1.53,1.53a.57.57,0,0,1,0,.85l-6.34,6.34A1.18,1.18,0,0,1,233.79,211.73Z"/><path d="M89.46,76.56a.83.83,0,0,1,.26-.62L106.66,59l-4.93-4.93a.86.86,0,0,1-.27-.62.84.84,0,0,1,.27-.62l2.2-2.2a.87.87,0,0,1,.62-.26.85.85,0,0,1,.61.26l13.45,13.45a.82.82,0,0,1,.27.61.84.84,0,0,1-.27.62l-2.2,2.2a.84.84,0,0,1-.62.27.82.82,0,0,1-.61-.27l-4.94-4.93L93.3,79.52a.84.84,0,0,1-1.23,0l-2.35-2.35A.81.81,0,0,1,89.46,76.56Z"/><path d="M98.81,85.88a.88.88,0,0,1,.28-.69.92.92,0,0,1,.26-.21l26-13.21a1.17,1.17,0,0,1,.8-.13,1.32,1.32,0,0,1,.75.4l2.29,2.28a1.38,1.38,0,0,1,.4.75,1.25,1.25,0,0,1-.13.81l-13.22,26a1.21,1.21,0,0,1-.2.26.89.89,0,0,1-.69.28,1,1,0,0,1-.69-.31L112.5,100a1.34,1.34,0,0,1-.38-.77,1.3,1.3,0,0,1,.15-.82l2.91-5.55L108.31,86l-5.55,2.91a1.39,1.39,0,0,1-.83.15,1.3,1.3,0,0,1-.76-.39l-2-2.05A1,1,0,0,1,98.81,85.88Zm18.66,2.6,5.43-10.25-10.25,5.43Z"/><path d="M130.82,118.28a1.49,1.49,0,0,1-.44-1.26l1.77-15L131,100.93l-8.16,8.16a.87.87,0,0,1-.62.26.89.89,0,0,1-.62-.26l-2.34-2.35a.84.84,0,0,1-.27-.62.82.82,0,0,1,.27-.61l19.76-19.76a.82.82,0,0,1,.61-.27.84.84,0,0,1,.62.27l2.35,2.35a.85.85,0,0,1,.26.61.87.87,0,0,1-.26.62l-8.28,8.28,1,1,15.24-1.74a1.54,1.54,0,0,1,1.29.47l2.67,2.68a.82.82,0,0,1,.26.58.74.74,0,0,1-.2.53,1,1,0,0,1-.53.24L137,103.16l-2.08,17.41a1,1,0,0,1-.24.53.74.74,0,0,1-.53.2.82.82,0,0,1-.58-.26Z"/><path d="M137.84,124.56a1.72,1.72,0,0,1,.53-1.26l18.47-18.47a1.76,1.76,0,0,1,2.52,0l10,10a.87.87,0,0,1,.26.62.89.89,0,0,1-.26.62l-2.21,2.2a.81.81,0,0,1-.61.26.87.87,0,0,1-.62-.26l-7.69-7.69-5,5L159,121.3a.84.84,0,0,1,.27.62.86.86,0,0,1-.27.62l-2.08,2.08a.83.83,0,0,1-.62.26.89.89,0,0,1-.62-.26l-5.72-5.73-5.82,5.82,7.7,7.69a.87.87,0,0,1,.26.62.85.85,0,0,1-.26.61l-2.2,2.21a.89.89,0,0,1-.62.26.87.87,0,0,1-.62-.26l-10-10A1.72,1.72,0,0,1,137.84,124.56Z"/><path d="M166.58,153.69a.83.83,0,0,1,.27-.62l16.94-16.94-4.93-4.93a.86.86,0,0,1-.27-.62.84.84,0,0,1,.27-.62l2.2-2.2a.83.83,0,0,1,.62-.26.81.81,0,0,1,.61.26l13.45,13.45a.81.81,0,0,1,.26.61.83.83,0,0,1-.26.62l-2.2,2.2a.84.84,0,0,1-.62.27.86.86,0,0,1-.62-.27l-4.93-4.93-16.94,16.94a.88.88,0,0,1-.62.27.86.86,0,0,1-.61-.27l-2.35-2.35A.84.84,0,0,1,166.58,153.69Z"/><path d="M179.21,166.31a.89.89,0,0,1,.26-.62l19.76-19.76a.87.87,0,0,1,1.24,0l2.35,2.35a.87.87,0,0,1,.26.62.89.89,0,0,1-.26.62l-7.93,7.92,8.69,8.69,7.93-7.92a.82.82,0,0,1,.61-.27.84.84,0,0,1,.62.27l2.35,2.35a.85.85,0,0,1,.26.61.87.87,0,0,1-.26.62l-19.76,19.76a.87.87,0,0,1-.62.26.85.85,0,0,1-.61-.26l-2.35-2.35a.84.84,0,0,1-.27-.62.82.82,0,0,1,.27-.61l8.45-8.46-8.69-8.69-8.45,8.46a.89.89,0,0,1-.62.26.87.87,0,0,1-.62-.26l-2.35-2.35A.89.89,0,0,1,179.21,166.31Z"/><path d="M200.11,186.83a1.72,1.72,0,0,1,.53-1.26l18.47-18.47a1.72,1.72,0,0,1,1.26-.53,1.76,1.76,0,0,1,1.27.53l10,10a.85.85,0,0,1,.26.61.87.87,0,0,1-.26.62l-2.2,2.2a.85.85,0,0,1-.62.26.83.83,0,0,1-.62-.26l-7.69-7.69-5,5,5.72,5.72a.86.86,0,0,1,.27.62.84.84,0,0,1-.27.62l-2.08,2.08a.84.84,0,0,1-.62.27.82.82,0,0,1-.61-.27l-5.73-5.72L206.4,187l7.69,7.69a.83.83,0,0,1,.26.62.85.85,0,0,1-.26.62l-2.2,2.2a.83.83,0,0,1-.62.26.81.81,0,0,1-.61-.26l-10-10A1.76,1.76,0,0,1,200.11,186.83Z"/></g></g></svg>