<svg xmlns="http://www.w3.org/2000/svg" xmlns:xlink="http://www.w3.org/1999/xlink" viewBox="0 0 283.46 283.46"><defs><style>.cls-1{fill:none;}.cls-2{fill:#fff;}.cls-3{fill:#6f3ff4;}.cls-4{fill:#02e1ab;}.cls-5{clip-path:url(#clip-path);}.cls-6{fill:#b2ffec;}.cls-7{fill:#67edcd;}.cls-8{stroke:#000;stroke-miterlimit:10;}</style><clipPath id="clip-path"><circle class="cls-1" cx="141.71" cy="142.39" r="92.71"/></clipPath></defs><g id="profile"><path class="cls-2" d="M93.92,257.56a9.73,9.73,0,0,1-7.18-3.19,9.62,9.62,0,0,1-2.47-7.47,10,10,0,0,1,10-8.73H96.8a2.65,2.65,0,0,0,2.61-2.09,2.6,2.6,0,0,0-1.42-3A100.7,100.7,0,0,1,137.72,41.76c1.32,0,2.67-.08,4-.08a100.71,100.71,0,0,1,44,191.27,2.75,2.75,0,0,0,1.22,5.22h2.57a9.69,9.69,0,0,1,7.18,3.2,9.59,9.59,0,0,1,2.47,7.46,10,10,0,0,1-10,8.74Z"/><path d="M141.71,42.18A100.22,100.22,0,0,1,185.54,232.5a3.25,3.25,0,0,0,1.43,6.17h2.57a9.21,9.21,0,0,1,6.81,3,9.08,9.08,0,0,1,2.34,7.08,9.44,9.44,0,0,1-9.47,8.28H93.92a9.21,9.21,0,0,1-6.81-3A9.11,9.11,0,0,1,84.77,247a9.46,9.46,0,0,1,9.47-8.28H96.8a3.17,3.17,0,0,0,1.41-6,100.2,100.2,0,0,1,39.53-190.4c1.32-.06,2.65-.08,4-.08m0-1c-1.34,0-2.67,0-4,.08-53,2.05-95.76,45.35-97.17,98.38a101.32,101.32,0,0,0,57.24,93.92,2.17,2.17,0,0,1-1,4.11H94.24a10.4,10.4,0,0,0-10.46,9.18,10.21,10.21,0,0,0,10.14,11.21h95.3a10.41,10.41,0,0,0,10.47-9.18,10.23,10.23,0,0,0-10.15-11.21H187a2.25,2.25,0,0,1-1-4.27A101.2,101.2,0,0,0,141.71,41.18Z"/><path class="cls-3" d="M105.52,250.88a3.15,3.15,0,0,1-.8-.4.15.15,0,0,1-.06-.09.14.14,0,0,1,0-.11l.29-.52a.15.15,0,0,1,.15-.1.28.28,0,0,1,.13,0,2.17,2.17,0,0,0,1.15.39,1.05,1.05,0,0,0,.69-.21.67.67,0,0,0,.25-.55.57.57,0,0,0-.12-.37,1,1,0,0,0-.33-.26l-.6-.27-.24-.1a2.88,2.88,0,0,1-1-.61,1.45,1.45,0,0,1-.38-1.08,1.66,1.66,0,0,1,.86-1.5,2,2,0,0,1,.93-.21,2.93,2.93,0,0,1,.87.14,2.87,2.87,0,0,1,.78.4.2.2,0,0,1,.06.09.2.2,0,0,1,0,.11l-.27.52a.17.17,0,0,1-.16.1.21.21,0,0,1-.12,0,2.5,2.5,0,0,0-.62-.3,1.78,1.78,0,0,0-.52-.09.84.84,0,0,0-.59.2.74.74,0,0,0,0,1.05,2.7,2.7,0,0,0,.76.42l.56.23a1.73,1.73,0,0,1,.78.59,1.5,1.5,0,0,1,.29.91,1.75,1.75,0,0,1-.24.92,1.77,1.77,0,0,1-.68.62,2.21,2.21,0,0,1-1,.22A2.94,2.94,0,0,1,105.52,250.88Z"/><path class="cls-3" d="M110.37,250.74a2.21,2.21,0,0,1-1.07-1.89V247.1a2.18,2.18,0,0,1,1.07-1.89,2.1,2.1,0,0,1,1.07-.29,2.46,2.46,0,0,1,.94.18,2.12,2.12,0,0,1,.74.54.23.23,0,0,1,0,.31l-.36.38a.21.21,0,0,1-.13.07.19.19,0,0,1-.15-.08,1.3,1.3,0,0,0-1-.44,1,1,0,0,0-.57.17,1.36,1.36,0,0,0-.42.44,1.28,1.28,0,0,0-.15.61v1.75a1.21,1.21,0,0,0,.15.6,1.3,1.3,0,0,0,.42.45,1,1,0,0,0,.57.16,1.29,1.29,0,0,0,1-.43.19.19,0,0,1,.14-.08.21.21,0,0,1,.14.07l.36.38a.23.23,0,0,1,.08.16.21.21,0,0,1-.05.13,2.15,2.15,0,0,1-.75.55,2.29,2.29,0,0,1-.94.19A2.1,2.1,0,0,1,110.37,250.74Z"/><path class="cls-3" d="M114.28,250.87a.17.17,0,0,1,0-.12V245.2a.17.17,0,0,1,.18-.17h.66a.13.13,0,0,1,.12.05.17.17,0,0,1,0,.12v2.23h2.44V245.2a.17.17,0,0,1,0-.12.13.13,0,0,1,.12-.05h.66a.17.17,0,0,1,.18.17v5.55a.17.17,0,0,1-.18.17h-.66a.13.13,0,0,1-.12,0,.17.17,0,0,1,0-.12v-2.38h-2.44v2.38a.17.17,0,0,1,0,.12.13.13,0,0,1-.12,0h-.66A.17.17,0,0,1,114.28,250.87Z"/><path class="cls-3" d="M120.1,250.82a.33.33,0,0,1-.1-.25v-5.19a.34.34,0,0,1,.35-.35h2.81a.17.17,0,0,1,.18.17v.62a.17.17,0,0,1,0,.12.21.21,0,0,1-.13.05H121v1.4h1.61a.17.17,0,0,1,.17.18v.58a.17.17,0,0,1,0,.13.16.16,0,0,1-.12,0H121V250h2.16a.17.17,0,0,1,.18.17v.62a.17.17,0,0,1-.18.17h-2.81A.33.33,0,0,1,120.1,250.82Z"/><path class="cls-3" d="M124.58,250.82a.34.34,0,0,1-.11-.25V245.2a.17.17,0,0,1,.18-.17h.66a.13.13,0,0,1,.12.05.17.17,0,0,1,0,.12V250h1.91a.17.17,0,0,1,.18.17v.62a.17.17,0,0,1-.18.17h-2.56A.33.33,0,0,1,124.58,250.82Z"/><path class="cls-3" d="M128.58,250.82a.34.34,0,0,1-.11-.25V245.2a.17.17,0,0,1,.18-.17h.66a.15.15,0,0,1,.12.05.17.17,0,0,1,0,.12V250h1.91a.17.17,0,0,1,.13,0,.16.16,0,0,1,0,.12v.62a.16.16,0,0,1,0,.12.17.17,0,0,1-.13,0h-2.56A.32.32,0,0,1,128.58,250.82Z"/><path class="cls-3" d="M132.35,250.87a.13.13,0,0,1,0-.12v-.57a.17.17,0,0,1,.17-.17h.7v-4.07h-.7a.17.17,0,0,1-.12-.05.13.13,0,0,1,0-.12v-.57a.17.17,0,0,1,.17-.17h2.41a.17.17,0,0,1,.17.17v.57a.13.13,0,0,1-.05.12.17.17,0,0,1-.12.05h-.7V250h.7a.17.17,0,0,1,.17.17v.57a.17.17,0,0,1-.17.17h-2.41A.13.13,0,0,1,132.35,250.87Z"/><path class="cls-3" d="M136.23,250.87a.17.17,0,0,1,0-.12v-5.48a.24.24,0,0,1,.07-.17.23.23,0,0,1,.17-.07h.68a.25.25,0,0,1,.22.12l2,3.35.39.69v-4a.17.17,0,0,1,.18-.17h.59a.17.17,0,0,1,.13.05.16.16,0,0,1,0,.12v5.48a.22.22,0,0,1-.07.17.2.2,0,0,1-.16.07h-.69a.25.25,0,0,1-.22-.12l-2.05-3.47-.32-.56v4a.15.15,0,0,1-.05.13.16.16,0,0,1-.12,0h-.59A.15.15,0,0,1,136.23,250.87Z"/><path class="cls-3" d="M142.93,250.74a2.17,2.17,0,0,1-.79-.8,2,2,0,0,1-.29-1.09V247.1a2.11,2.11,0,0,1,.29-1.1,2.22,2.22,0,0,1,.79-.79,2.17,2.17,0,0,1,1.09-.29,2.58,2.58,0,0,1,1,.18,2.19,2.19,0,0,1,.76.54.25.25,0,0,1,.05.15.31.31,0,0,1-.07.16l-.36.38a.24.24,0,0,1-.13.07.19.19,0,0,1-.15-.08,1.41,1.41,0,0,0-1.06-.44,1.09,1.09,0,0,0-.58.17,1.32,1.32,0,0,0-.44.44,1.29,1.29,0,0,0-.16.61v1.75a1.22,1.22,0,0,0,.16.6,1.27,1.27,0,0,0,.44.45,1.08,1.08,0,0,0,.58.16,1.2,1.2,0,0,0,.59-.15,1.26,1.26,0,0,0,.43-.43,1.21,1.21,0,0,0,.15-.6v-.4h-1.1a.21.21,0,0,1-.13,0,.17.17,0,0,1-.05-.12v-.6a.18.18,0,0,1,.05-.12.21.21,0,0,1,.13-.05h1.74a.37.37,0,0,1,.25.1.35.35,0,0,1,.1.26v.95a2.14,2.14,0,0,1-.29,1.09,2.24,2.24,0,0,1-.79.8,2.19,2.19,0,0,1-2.18,0Z"/><path class="cls-3" d="M149.39,250.87a.17.17,0,0,1,0-.12v-5.37a.37.37,0,0,1,.1-.25.35.35,0,0,1,.26-.1h1.46a1.86,1.86,0,0,1,1,.25,2,2,0,0,1,.71.69,1.88,1.88,0,0,1,0,1.91,2,2,0,0,1-.71.69,1.87,1.87,0,0,1-1,.26h-.81v1.92a.17.17,0,0,1,0,.12.15.15,0,0,1-.13,0h-.65A.15.15,0,0,1,149.39,250.87Zm1.73-3a1,1,0,0,0,.68-1.63,1,1,0,0,0-.68-.28h-.77v1.91Z"/><path class="cls-3" d="M155.13,250.74a2.19,2.19,0,0,1-.8-.8,2.14,2.14,0,0,1-.29-1.09V247.1a2.2,2.2,0,0,1,.29-1.1,2.24,2.24,0,0,1,.8-.79,2.2,2.2,0,0,1,1.1-.29,2.17,2.17,0,0,1,1.09.29,2.24,2.24,0,0,1,.8.79,2.2,2.2,0,0,1,.29,1.1v1.75a2.14,2.14,0,0,1-.29,1.09,2.19,2.19,0,0,1-.8.8,2.17,2.17,0,0,1-1.09.29A2.2,2.2,0,0,1,155.13,250.74Zm1.68-.84a1.27,1.27,0,0,0,.44-.45,1.22,1.22,0,0,0,.16-.6V247.1a1.29,1.29,0,0,0-.16-.61,1.32,1.32,0,0,0-.44-.44,1.09,1.09,0,0,0-.58-.17,1.12,1.12,0,0,0-.59.17,1.29,1.29,0,0,0-.43.44,1.18,1.18,0,0,0-.16.61v1.75a1.12,1.12,0,0,0,.16.6,1.24,1.24,0,0,0,.43.45,1.11,1.11,0,0,0,.59.16A1.08,1.08,0,0,0,156.81,249.9Z"/><path class="cls-3" d="M159.24,250.87a.16.16,0,0,1,0-.12v-.57a.16.16,0,0,1,0-.12.17.17,0,0,1,.13-.05h.7v-4.07h-.7a.21.21,0,0,1-.13-.05.16.16,0,0,1,0-.12v-.57a.16.16,0,0,1,0-.12.17.17,0,0,1,.13-.05h2.41a.13.13,0,0,1,.12.05.17.17,0,0,1,0,.12v.57a.17.17,0,0,1-.17.17h-.7V250h.7a.13.13,0,0,1,.12.05.17.17,0,0,1,0,.12v.57a.17.17,0,0,1,0,.12.13.13,0,0,1-.12,0h-2.41A.17.17,0,0,1,159.24,250.87Z"/><path class="cls-3" d="M163.13,250.87a.17.17,0,0,1,0-.12v-5.48a.21.21,0,0,1,.07-.17.22.22,0,0,1,.17-.07H164a.27.27,0,0,1,.23.12l2,3.35.39.69v-4a.17.17,0,0,1,0-.12.13.13,0,0,1,.12-.05h.6a.13.13,0,0,1,.12.05.17.17,0,0,1,.05.12v5.48a.24.24,0,0,1-.24.24h-.68a.24.24,0,0,1-.22-.12l-2-3.47-.32-.56v4a.19.19,0,0,1-.05.13.16.16,0,0,1-.12,0h-.6A.13.13,0,0,1,163.13,250.87Z"/><path class="cls-3" d="M170.14,250.87a.13.13,0,0,1,0-.12V246H168.7a.17.17,0,0,1-.17-.17v-.62a.17.17,0,0,1,.05-.12.13.13,0,0,1,.12-.05h3.78a.17.17,0,0,1,.17.17v.62a.13.13,0,0,1-.05.12.17.17,0,0,1-.12.05h-1.39v4.76a.17.17,0,0,1-.17.17h-.66A.13.13,0,0,1,170.14,250.87Z"/><path class="cls-3" d="M175.55,250.82a.33.33,0,0,1-.1-.24v-.66a2.43,2.43,0,0,1,.17-1,1.67,1.67,0,0,1,.54-.65,12.25,12.25,0,0,1,1.22-.77,1.38,1.38,0,0,0,.43-.39.83.83,0,0,0,.14-.46.7.7,0,0,0-.23-.55.89.89,0,0,0-.63-.21,2,2,0,0,0-1,.31.23.23,0,0,1-.11,0,.16.16,0,0,1-.15-.09l-.27-.5a.13.13,0,0,1,0-.08.16.16,0,0,1,.08-.14,2.59,2.59,0,0,1,.75-.35,3,3,0,0,1,.85-.12,1.82,1.82,0,0,1,1.29.44,1.63,1.63,0,0,1,.47,1.22,1.59,1.59,0,0,1-.29,1,3.16,3.16,0,0,1-.92.81l-.33.2a5,5,0,0,0-.54.36,1.3,1.3,0,0,0-.32.34.92.92,0,0,0-.12.48V250h2.14a.2.2,0,0,1,.13,0,.21.21,0,0,1,.05.13v.61a.17.17,0,0,1-.18.17H175.8A.33.33,0,0,1,175.55,250.82Z"/><path class="cls-3" d="M180.34,250.25a4,4,0,0,1-.52-2.28,4,4,0,0,1,.53-2.28,1.95,1.95,0,0,1,3.1,0A4,4,0,0,1,184,248a4.11,4.11,0,0,1-.52,2.29,2,2,0,0,1-3.12,0Zm2.17-.37a1.28,1.28,0,0,0,.34-.68A5.74,5.74,0,0,0,183,248a5.58,5.58,0,0,0-.11-1.22,1.21,1.21,0,0,0-.34-.67.87.87,0,0,0-.61-.21.9.9,0,0,0-.62.21,1.31,1.31,0,0,0-.33.68,5.85,5.85,0,0,0-.11,1.24,3.65,3.65,0,0,0,.25,1.6.83.83,0,0,0,.81.49A.85.85,0,0,0,182.51,249.88Z"/><path class="cls-3" d="M185,250.82a.34.34,0,0,1-.11-.24v-.66a2.41,2.41,0,0,1,.18-1,1.64,1.64,0,0,1,.53-.65,13.6,13.6,0,0,1,1.22-.77,1.32,1.32,0,0,0,.44-.39.82.82,0,0,0,.13-.46.69.69,0,0,0-.22-.55.93.93,0,0,0-.64-.21,2,2,0,0,0-1,.31.19.19,0,0,1-.1,0,.16.16,0,0,1-.15-.09l-.27-.5a.13.13,0,0,1,0-.08.16.16,0,0,1,.08-.14,2.53,2.53,0,0,1,.74-.35,3.08,3.08,0,0,1,.86-.12,1.85,1.85,0,0,1,1.29.44,1.62,1.62,0,0,1,.46,1.22,1.58,1.58,0,0,1-.28,1,3.3,3.3,0,0,1-.92.81l-.33.2a5.29,5.29,0,0,0-.55.36,1.26,1.26,0,0,0-.31.34.92.92,0,0,0-.12.48V250H188a.16.16,0,0,1,.12,0,.17.17,0,0,1,.05.13v.61a.17.17,0,0,1-.17.17h-2.76A.33.33,0,0,1,185,250.82Z"/><path class="cls-3" d="M189.26,250.82a.33.33,0,0,1-.1-.24v-.66a2.59,2.59,0,0,1,.17-1,1.76,1.76,0,0,1,.54-.65,13.6,13.6,0,0,1,1.22-.77,1.27,1.27,0,0,0,.43-.39.83.83,0,0,0,.14-.46.7.7,0,0,0-.23-.55.89.89,0,0,0-.63-.21,2,2,0,0,0-1,.31.2.2,0,0,1-.11,0,.18.18,0,0,1-.15-.09l-.27-.5a.24.24,0,0,1,0-.08.15.15,0,0,1,.07-.14A2.59,2.59,0,0,1,190,245a3,3,0,0,1,.85-.12,1.82,1.82,0,0,1,1.29.44,1.63,1.63,0,0,1,.47,1.22,1.65,1.65,0,0,1-.28,1,3.36,3.36,0,0,1-.93.81l-.33.2a6.24,6.24,0,0,0-.54.36,1.12,1.12,0,0,0-.31.34.84.84,0,0,0-.13.48V250h2.15a.16.16,0,0,1,.12,0,.21.21,0,0,1,0,.13v.61a.17.17,0,0,1,0,.12.13.13,0,0,1-.12,0h-2.77A.35.35,0,0,1,189.26,250.82Z"/><path class="cls-3" d="M91.75,241.78l.82-.11.06.36.12.92c0,.3.08.6.11.9a.34.34,0,0,0,.17.28c.2.13.37.29.56.43a.6.6,0,0,0,.13.09,13,13,0,0,0-.17-1.54c-.08-.51-.13-1-.2-1.55l.81-.1.52,3.94.83.64,0,0c0-.09,0-.18,0-.27a1.77,1.77,0,0,1,0-.23s0-.06,0-.08a8,8,0,0,1-.17-1.09c0-.36-.11-.73-.15-1.1l-.09-.72L95,242l-.06-.5a.33.33,0,0,1,0-.1l.79-.1.2,1.54c.34-.4.63-.82,1-1.23l.61.47a.49.49,0,0,1,0,.11l-1.07,1.39-.24.32a.25.25,0,0,0,0,.21c0,.28.08.55.11.83l0,.14,1.91-2.5.63.49c-.06.08-.1.16-.16.23l-.76,1c-.25.31-.49.63-.73.94l-.71.94a.19.19,0,0,0,0,.13c0,.32.08.64.13,1,.12-.06.17-.17.24-.25s.23-.31.34-.46l.46-.6c.25-.32.5-.64.74-1s.51-.66.76-1c.1-.13.21-.26.31-.4l.06-.05.62.48c-.29.42-.61.79-.91,1.22a4.42,4.42,0,0,0,.75-.08c.25,0,.49-.06.76-.1,0,.27.09.52.11.8l-.4.06c-.3,0-.6.09-.91.12s-.61.08-.92.12a.25.25,0,0,0-.17.08l-.57.76s0,0,0,.06c.53-.05,1-.14,1.55-.2s1-.14,1.55-.21l.1.8c-.21,0-.4.07-.6.09l-.71.09-.75.1-.86.12-.89.11a.25.25,0,0,0-.18.1l-.54.71s0,0,0,.09l4.68-.62c0,.16.05.31.07.45l0,.34c-.5.1-1,.13-1.5.22v0l1.2.93-.49.63-.21-.15-.75-.58-.78-.6a.36.36,0,0,0-.3-.09l-.86.12-.07,0c.41.34.83.64,1.24,1l1.25,1-.49.63-.38-.28-.84-.64-1.13-.87-.73-.56a.22.22,0,0,0-.19,0l-.52.06-.44.06s0,.06.05.07l1.11.85.89.7,1,.75.69.54-.48.64c-.42-.3-.8-.63-1.24-.94l.2,1.53c-.26.06-.52.08-.8.12,0-.15,0-.28-.06-.41l-.12-.91-.12-.95a.16.16,0,0,0,0-.1l-.81-.63,0,0,.41,3.06a2.79,2.79,0,0,1-.81.13l-.06-.42-.09-.7c0-.24-.06-.49-.1-.74s-.09-.7-.13-1.06-.08-.52-.11-.79a.42.42,0,0,0-.19-.35c-.22-.14-.41-.31-.62-.46a.73.73,0,0,1-.08-.09.9.9,0,0,0,0,.4l.09.73c0,.23.07.46.1.69l.06.53c0,.08,0,.15,0,.23l.12,1c0,.34.09.68.14,1,0,0,0,.08,0,.14l-.77.11c-.1-.5-.13-1-.23-1.53-.18.21-.32.42-.47.61l-.47.61-.64-.48.15-.2c.24-.33.49-.65.73-1l.48-.61a.29.29,0,0,0,.06-.24c0-.27-.07-.54-.1-.81a.82.82,0,0,0,0-.14c-.34.42-.63.83-1,1.23s-.62.82-.94,1.24c-.24-.13-.42-.32-.65-.47a2.29,2.29,0,0,1,.17-.23l1.08-1.42.93-1.21c.06-.07.11-.16.17-.23a.2.2,0,0,0,.05-.18c-.05-.32-.09-.64-.14-1a1.12,1.12,0,0,0-.25.28l-.75,1L90.71,251l-.7.94-.26.31-.63-.48c.28-.41.6-.79.88-1.2-.5,0-1,.12-1.48.15l-.12-.8.1,0,.84-.12.77-.1.6-.08a.12.12,0,0,0,.08,0l.54-.72a.24.24,0,0,0,0-.09h-.21L90,248.9l-1.06.15-.57.08h-.06a5.12,5.12,0,0,1-.1-.81l.35-.05.87-.11.71-.1,1.34-.18.49-.05a.29.29,0,0,0,.23-.12c.18-.25.36-.48.54-.72,0,0,0,0,0,0h-.11l-.71.1-1.05.14-1.08.14-.73.1-.89.12h-.09l-.11-.8,1.52-.21a6.39,6.39,0,0,0-.61-.48l-.6-.47.5-.65.53.41,1.18.9,0,0a.3.3,0,0,0,.27.08l.84-.11.06,0s0-.07-.07-.09l-.82-.62-.69-.54-.7-.53-.17-.15.47-.62.11,0,1.2.92.87.67.9.69a.27.27,0,0,0,.21.07l1-.14-.31-.26-1-.77-1.33-1-1-.78c-.08-.06-.08-.08,0-.16l.43-.56,1.2.91h0Zm1.5,5.07c0,.18,0,.35.07.52a.37.37,0,0,1-.07.31l-.13.15c-.05.1-.16.16-.17.29l.46.36a.19.19,0,0,1,.09.15l0,.27c0,.11,0,.21,0,.32.18,0,.34,0,.49-.06a.39.39,0,0,1,.38.1,4.18,4.18,0,0,0,.38.29c.13-.17.25-.32.36-.48a.24.24,0,0,1,.15-.09l.43,0,.18-.05c0-.19,0-.37-.08-.55a.21.21,0,0,1,0-.2l.3-.4a.93.93,0,0,0,.05-.1,3.17,3.17,0,0,0-.36-.28.4.4,0,0,1-.21-.36s0-.07,0-.1,0-.24,0-.37l-.35,0c-.33.05-.33.05-.55-.11,0,0,0,0-.06-.05l-.31-.22a.33.33,0,0,1,0,.06l-.29.39a.27.27,0,0,1-.2.12l-.18,0Z"/><path class="cls-4" d="M94.75,249a1.37,1.37,0,0,1-.23-.17.33.33,0,0,0-.33-.07l-.23,0a1,1,0,0,1,0-.14,1.49,1.49,0,0,1,0-.21.23.23,0,0,0-.1-.15l-.26-.21.22-.3a.19.19,0,0,0,0-.18,2.79,2.79,0,0,1,0-.32l.45-.08.26-.34a1.59,1.59,0,0,1,.21.15A.36.36,0,0,0,95,247a1.06,1.06,0,0,1,.26,0c0,.06,0,.11,0,.17a.47.47,0,0,0,.26.43l.13.11-.15.22a.29.29,0,0,0-.08.34.88.88,0,0,1,0,.24l-.25,0a.29.29,0,0,0-.28.14C94.89,248.79,94.82,248.86,94.75,249Z"/></g><g id="background"><g class="cls-5"><circle class="cls-6" cx="141.71" cy="142.39" r="92.71"/><path class="cls-7" d="M202,154.43c-17.71-14.17-40.05-6-47.61,8.7a30.38,30.38,0,0,1,22.63-.79,26.36,26.36,0,0,1,11.42,7.79,28.62,28.62,0,0,0-19.62-7.1c5.1,5.21,5.87,10.64,1.52,16.4.21-.45.42-.9.64-1.34A10.41,10.41,0,0,0,166.21,164a4.49,4.49,0,0,0-2.61-.3,23.91,23.91,0,0,0-10.26,4.65,4,4,0,0,0-1.36,2.21c-2.68,13.35-1.51,26.55,2,39.56,1.66,6.14,3.93,23.08,6,29.12.18.53.4,1.06.68,1.78h-34c.21-.59.39-1.16.61-1.71,4.9-12,8.54-35.39,9.38-48.44.54-8.28.34-16.43-3.62-24a42.06,42.06,0,0,0-10-13,2.79,2.79,0,0,0-2.1-.51c-11.4,2.42-16.62,15.82-10,25.53.32.46.65.91,1.07,1.5-3.44-2.25-5.27-7.11-5.64-14.86-4.82,1.82-9.36,1.47-13.37-1.94A10.6,10.6,0,0,1,89,155.7c1.41,4.75,4.26,7.9,9.16,8.88a10.59,10.59,0,0,0,7.78-1.43,3.42,3.42,0,0,0,1.35-1.45A18.32,18.32,0,0,1,117.69,151a5.35,5.35,0,0,0,.73-.45c-11.94-8.68-34.08-11.19-51,4.27,1.3-2.61,9.44-9,16.66-11.67a47.42,47.42,0,0,1,20.54-2.75,32.63,32.63,0,0,1-2.14-3.64A40.57,40.57,0,0,1,100,130.2a12,12,0,0,0-11.26-9.55,13.49,13.49,0,0,0-9.93,3.47c3.21-5.88,12.66-6.33,20.5-1,1.07-9.31,5.44-16.37,13.91-20.6-1.4,1.18-2.89,2.29-4.19,3.57a23.27,23.27,0,0,0,2.62,35.12,8.07,8.07,0,0,0,2.11,1.12,44.88,44.88,0,0,1,22.91,16.82c.14.19.28.37.43.54a.37.37,0,0,0,.15.11c-.51-3.24-1.21-6.55-1.55-9.9A46,46,0,0,1,140,126a7.61,7.61,0,0,0,.71-2.95,18.48,18.48,0,0,0-19.51-18.7h-1.14c9.44-2.86,19.14,3.45,23.67,15.65,2.88-5.93,3.36-11.7,1.38-17.45-4.1-12-12.92-17.27-25.41-17.11,13-3.17,30.66,6.87,30.68,26.5A47.86,47.86,0,0,1,171.11,101a44.57,44.57,0,0,1,23.15.58,44.5,44.5,0,0,0-27.74,3.83c7,1.2,11.32,4.87,13,11.4-1.46-3.32-3.57-6.13-6.95-7.72-4.79-2.26-9.4-2.21-13.72,1.25a42.23,42.23,0,0,0-14.11,20.77c-.13.43-.22.87-.41,1.63,6.33-4.81,12.69-5.28,19.24-1.11-1.33-.44-2.64-1-4-1.3a14.19,14.19,0,0,0-15.6,6.84,7.35,7.35,0,0,0-1,2.72,41.48,41.48,0,0,0,4.22,22.89,7.38,7.38,0,0,0,.46.69c.89-1.42,1.7-2.78,2.57-4.1a30,30,0,0,1,11.17-10.25c4.76-2.45,7.11-6.52,8.62-11.28a22,22,0,0,0-.4-14c3.29,4.79,3.14,12.5-.46,21.87C181.73,142.77,192.71,145.56,202,154.43Z"/><path class="cls-4" d="M146,91.29c-.63-11.12,6-18.11,16.74-18.76,2.13,9.23-5.63,18.86-16,19.45l6.72-8.3-.32-.28Z"/><path class="cls-4" d="M123.83,82l-9.78-7.53-.2.26,9.29,8C112,83.81,104.83,77,104,66.57,112.93,64,122.94,71.59,123.83,82Z"/><path class="cls-4" d="M85.21,117.26l-11.43-3.87-.12.32,11,4.39c-7.15,5.38-19.55.52-23.29-9C69.14,103.78,81.5,107.89,85.21,117.26Z"/><path class="cls-4" d="M204.44,85.2c-3.22,10.69-11.18,15.21-22,12.46l11-6.33-.14-.28-11.23,5.7C185.56,85.62,194.56,82.17,204.44,85.2Z"/><path class="cls-4" d="M197.69,127.61c-4.35,9.85-13.49,13.64-23.41,9.1L186.14,132l-.1-.28L174,135.77C178.56,125.74,188.27,122.88,197.69,127.61Z"/><path class="cls-4" d="M112.68,87l-10.07,2.3.07.36,10.17-1.79c-5.3,8.38-14.58,9.81-22.69,4.19C94.88,84.14,104.11,81.19,112.68,87Z"/><path class="cls-4" d="M201.31,104.65l9.56,2.28.08-.31-9.48-2.85c9.21-5.06,17.14-1.56,21.5,6.21C216.86,115.39,205.07,112.6,201.31,104.65Z"/><path class="cls-4" d="M206.16,160l8.11,6.41.21-.25L207,159.58c7.15-2.75,16.52,5.36,16.68,14.33C215.76,176.28,207.07,169.57,206.16,160Z"/><path class="cls-4" d="M118.89,141.32v-11h-.6v11c-6.87-4.82-6.43-17.48.39-22.4C125.12,125.33,126.27,134.13,118.89,141.32Z"/><path class="cls-4" d="M198.53,148.05l11.74-1H198.8c3.69-6.76,16.32-7.2,22.06-.73C214.94,153.37,206.08,154.65,198.53,148.05Z"/><path class="cls-4" d="M52.66,143.56a14.94,14.94,0,0,1,22.32.72H63.09l11.84,1.05C69.26,151.73,58.45,150.82,52.66,143.56Z"/><path class="cls-4" d="M135,77.11c.57,3,1.15,5.92,1.74,8.92-6.91-2.31-9.2-13.58-4.2-20.15,7.62,4.18,9.94,12.79,5,20.1-.78-3-1.52-5.94-2.27-8.85Z"/><path class="cls-4" d="M74.9,153.94l-3,6.46.33.17,3.26-6.1c3.56,6.39-1.47,16-9.19,17.74C63.22,164,66.82,156.64,74.9,153.94Z"/><path class="cls-4" d="M203.54,117c-7.62.84-14.83-3.53-15.32-12.87l6.15,5,.23-.25-5.76-5.32C197.46,102.63,203.49,108.93,203.54,117Z"/><path class="cls-4" d="M197.67,163.44c-8.79,1.11-14.71-3.81-15.77-12.45l6.27,4.79.19-.24-5.67-5.08C189.59,148.39,197.89,155.72,197.67,163.44Z"/><path class="cls-4" d="M129.65,102.8l-2.1-2.51-.38.34,1.94,2.51c-5.77.43-10.84-5.66-9.7-11.55C125.75,91.62,130.57,96.75,129.65,102.8Z"/><path class="cls-4" d="M165.31,119.32c-.55,5.19-4.21,8.49-9.3,8.43a1.45,1.45,0,0,1-1.57-1.64C154.83,121.51,160.84,117.8,165.31,119.32Z"/><path class="cls-4" d="M121.27,180.68c-5.16,1.23-9.64-1.28-11.09-6.17a1.35,1.35,0,0,1,1.3-1.92A8.9,8.9,0,0,1,121.27,180.68Z"/><path class="cls-4" d="M178.85,86.9c1.62,4.61-1.32,10.21-6,11.18A2.08,2.08,0,0,1,171.13,97C170.05,92.35,174,87.28,178.85,86.9Z"/><path class="cls-4" d="M108.21,180.9l.77,2.7.24,0-.36-2.55c4.59,1.9,5.8,8,2.65,12.94C106.68,192.16,105,185.78,108.21,180.9Z"/><path class="cls-4" d="M193.7,171.82l-1.89-.66c3.87-3.22,9.7-1.58,12.76,3.51-5.1,3.63-10.61,1.53-13.09-2.91l2.17.27Z"/><path class="cls-4" d="M101.84,111.65l-1-3.87-.19,0,.57,3.76c-4.55-1.68-5.77-8.52-2.38-13A8.76,8.76,0,0,1,101.84,111.65Z"/><path class="cls-4" d="M190.31,185.29c-4.7-2.89-5.91-9-2.42-13.09.27,1.19.51,2.28.76,3.37l.19,0c-.11-1.11-.22-2.22-.34-3.46A8.66,8.66,0,0,1,190.31,185.29Z"/><path class="cls-4" d="M95.08,145.8c3.13,4.85,1.8,10.34-3.26,13.07l.52-2.55-.27-.11-.83,2.41C88.29,153.76,90,148.75,95.08,145.8Z"/><path class="cls-4" d="M169.58,182.17l-.68,3.05.21.08,1-2.81c3.21,3.66,1.28,9.82-3.85,12.59C163,191.12,164.64,184.33,169.58,182.17Z"/><path class="cls-4" d="M81,167.27c3.71-4.57,9.39-5.29,13.32-1.62l-4.37.69,0,.16,4.27-.26C92.2,170.65,85.2,171.22,81,167.27Z"/><path class="cls-4" d="M163.89,180h4.47c-3.47,4.19-8.92,4.34-13.25.5,2.35-4.44,9.37-5.15,13.27-1.17l-4.52.46Z"/></g></g><g id="words"><g class="cls-5"><path d="M70.33,97.06a.41.41,0,0,1-.21-.15l-6.86-9a.12.12,0,0,1,0-.08.28.28,0,0,1,0-.25.34.34,0,0,1,.19-.18l1.18-.45a.36.36,0,0,1,.27,0,.4.4,0,0,1,.22.15L70.32,94l-.82-8.61a.42.42,0,0,1,.06-.26.34.34,0,0,1,.2-.17L71,84.46a.5.5,0,0,1,.27,0,.37.37,0,0,1,.21.16l5.25,6.91-.83-8.61a.4.4,0,0,1,.06-.26.46.46,0,0,1,.21-.18L77.36,82a.29.29,0,0,1,.3,0,.33.33,0,0,1,.14.26l.89,11.34a.36.36,0,0,1-.07.26.41.41,0,0,1-.22.17L77,94.61a.5.5,0,0,1-.27,0,.37.37,0,0,1-.21-.16L71.59,87.9l.74,8.16a.42.42,0,0,1-.06.27.5.5,0,0,1-.23.17l-1.43.55A.45.45,0,0,1,70.33,97.06Z"/><path d="M83.73,91.75a.63.63,0,0,1-.37-.38L79.7,81.84a.69.69,0,0,1,0-.53.71.71,0,0,1,.39-.37l5.16-2a.36.36,0,0,1,.27,0,.31.31,0,0,1,.17.2l.44,1.13a.33.33,0,0,1,0,.26.31.31,0,0,1-.19.18l-4,1.52,1,2.58,3-1.14a.33.33,0,0,1,.26,0,.29.29,0,0,1,.18.19L86.77,85a.32.32,0,0,1-.19.44l-3,1.14,1.15,3,4-1.53A.42.42,0,0,1,89,88a.34.34,0,0,1,.17.2l.44,1.13a.33.33,0,0,1,0,.26.3.3,0,0,1-.2.18l-5.16,2A.69.69,0,0,1,83.73,91.75Z"/><path d="M58.92,122.72a6.18,6.18,0,0,1-4.72-3.9l-2.12-5.52a6.19,6.19,0,0,1,.89-6,5.71,5.71,0,0,1,2.54-1.87,6.47,6.47,0,0,1,2.5-.46,6.24,6.24,0,0,1,2.4.52.4.4,0,0,1,.22.24.53.53,0,0,1,0,.35q-.27.77-.36,1a.6.6,0,0,1-.29.24.52.52,0,0,1-.42,0,4.32,4.32,0,0,0-3.33,0,3.78,3.78,0,0,0-1.66,1.26,4.1,4.1,0,0,0-.78,2,4.23,4.23,0,0,0,.25,2.14l2.12,5.52a4.38,4.38,0,0,0,1.24,1.76,4.27,4.27,0,0,0,1.91.93,3.67,3.67,0,0,0,2.07-.17,4.35,4.35,0,0,0,2.47-2.25.51.51,0,0,1,.29-.3.58.58,0,0,1,.37,0c.13.06.44.21.91.46a.47.47,0,0,1,.24.26.42.42,0,0,1,0,.33,6.17,6.17,0,0,1-1.43,2,6.54,6.54,0,0,1-2.17,1.33A5.77,5.77,0,0,1,58.92,122.72Z"/><path d="M68.64,119.35a.42.42,0,0,1-.18-.35l-.87-17.54a.52.52,0,0,1,.09-.29.61.61,0,0,1,.24-.19l1.56-.6a.61.61,0,0,1,.3,0,.47.47,0,0,1,.27.16l11.1,13.6a.45.45,0,0,1,.09.16.37.37,0,0,1,0,.29.43.43,0,0,1-.23.21l-1.16.44a.5.5,0,0,1-.3,0,.4.4,0,0,1-.26-.15l-2.9-3.6-6.14,2.36.26,4.61a.35.35,0,0,1-.08.29.64.64,0,0,1-.25.19l-1.16.44A.35.35,0,0,1,68.64,119.35ZM75.17,110l-5.52-6.84.47,8.78Z"/><path d="M84.38,113.37a.39.39,0,0,1-.18-.2l-6-15.57a.53.53,0,0,1,0-.41.52.52,0,0,1,.3-.28l1.39-.53a.84.84,0,0,1,.38-.06.61.61,0,0,1,.36.15l12.46,10.16-5-13a.32.32,0,0,1,0-.27.3.3,0,0,1,.2-.18l1.18-.46a.36.36,0,0,1,.27,0,.32.32,0,0,1,.19.2l6,15.57a.53.53,0,0,1,0,.41.5.5,0,0,1-.3.27l-1.42.55a.82.82,0,0,1-.38,0,.61.61,0,0,1-.36-.15L81,99.46l5,13a.36.36,0,0,1,0,.27.37.37,0,0,1-.2.19l-1.18.45A.34.34,0,0,1,84.38,113.37Z"/><path d="M50.7,154.86a1.33,1.33,0,0,1-.72-.77l-7.22-18.77a1.37,1.37,0,0,1,.79-1.77l5.28-2a6.32,6.32,0,0,1,3.37-.37,6.59,6.59,0,0,1,3,1.31,6.11,6.11,0,0,1,2,2.68,5.21,5.21,0,0,1-.4,4.51,5.21,5.21,0,0,1,3.11,1,6.22,6.22,0,0,1,2,2.8,6.83,6.83,0,0,1,.38,3.62,7.06,7.06,0,0,1-1.47,3.27,6.84,6.84,0,0,1-3,2.13l-6.17,2.37A1.35,1.35,0,0,1,50.7,154.86Zm1.18-14.62a3,3,0,0,0,1.66-1.52,2.6,2.6,0,0,0,.12-2.14A2.63,2.63,0,0,0,52.11,135a2.92,2.92,0,0,0-2.25,0l-2.71,1,2,5.25Zm4.6,8.92a3.17,3.17,0,0,0,1.87-1.71,3.23,3.23,0,0,0,0-2.57,3,3,0,0,0-1.71-1.8,3.24,3.24,0,0,0-2.52,0l-3.73,1.43,2.34,6.09Z"/><path d="M71.67,146.41a8.37,8.37,0,0,1-4-1.94,9.74,9.74,0,0,1-2.7-3.95L60.12,127.9a.67.67,0,0,1,0-.52.69.69,0,0,1,.38-.35l2.39-.92a.67.67,0,0,1,.52,0,.66.66,0,0,1,.35.38l4.91,12.77a5.31,5.31,0,0,0,2.51,3,4.27,4.27,0,0,0,3.62.11,4.21,4.21,0,0,0,2.58-2.5,5.33,5.33,0,0,0-.15-3.91l-4.91-12.77a.63.63,0,0,1,0-.52.66.66,0,0,1,.38-.35l2.38-.92a.66.66,0,0,1,.87.39l4.85,12.62a9.79,9.79,0,0,1,.65,4.75,8.45,8.45,0,0,1-9.79,7.23Z"/><path d="M88,140.74a.66.66,0,0,1-.35-.38l-.79-2.05a.66.66,0,0,1,.39-.87l2.53-1-5.65-14.71-2.54,1a.72.72,0,0,1-.52,0,.66.66,0,0,1-.35-.38l-.79-2.06a.63.63,0,0,1,0-.52.66.66,0,0,1,.38-.35L89,116.06a.72.72,0,0,1,.52,0,.66.66,0,0,1,.35.38l.79,2.06a.63.63,0,0,1,0,.52.66.66,0,0,1-.38.35l-2.53,1,5.65,14.71,2.54-1a.67.67,0,0,1,.52,0,.69.69,0,0,1,.35.38l.79,2.06a.63.63,0,0,1,0,.52.66.66,0,0,1-.38.35l-8.71,3.35A.63.63,0,0,1,88,140.74Z"/><path d="M102.18,135.07a1.32,1.32,0,0,1-.73-.77L94,114.88a.67.67,0,0,1,0-.52.69.69,0,0,1,.38-.35l2.39-.92a.67.67,0,0,1,.87.39l6.62,17.22,6.92-2.66a.67.67,0,0,1,.52,0,.69.69,0,0,1,.35.38l.86,2.24a.67.67,0,0,1,0,.52.66.66,0,0,1-.38.35l-9.28,3.56A1.28,1.28,0,0,1,102.18,135.07Z"/><path d="M116.65,129.51a1.33,1.33,0,0,1-.72-.77L108.71,110a1.32,1.32,0,0,1,0-1,1.35,1.35,0,0,1,.77-.73l5.85-2.24a8.63,8.63,0,0,1,8.73,1.37,8.88,8.88,0,0,1,2.71,3.78l1.8,4.69a9,9,0,0,1,.53,4.63,8.67,8.67,0,0,1-5.57,6.86l-5.85,2.25A1.32,1.32,0,0,1,116.65,129.51Zm5.41-5.66a5,5,0,0,0,2.13-1.56,5.13,5.13,0,0,0,1.06-2.39,4.93,4.93,0,0,0-.28-2.65l-1.86-4.83a5,5,0,0,0-1.55-2.13,5.22,5.22,0,0,0-2.4-1.07,5.11,5.11,0,0,0-2.62.27l-3.34,1.29,5.52,14.35Z"/><path d="M109.4,222.91a.4.4,0,0,1-.32.16l-15.7.77a.37.37,0,0,1-.26-.08.46.46,0,0,1-.16-.21l-.54-1.4a.48.48,0,0,1,0-.27.43.43,0,0,1,.14-.23l12.17-9.94a.5.5,0,0,1,.15-.08.31.31,0,0,1,.25,0,.36.36,0,0,1,.19.21l.4,1a.49.49,0,0,1,0,.27.42.42,0,0,1-.14.24L102.36,216l2.11,5.49,4.13-.23a.33.33,0,0,1,.26.07.53.53,0,0,1,.17.23l.4,1A.4.4,0,0,1,109.4,222.91Zm-8.4-5.85L94.88,222l7.86-.43Z"/><path d="M98.64,193.94a.37.37,0,0,1-.14.23l-10.18,8.57,11.92-3a.44.44,0,0,1,.32,0,.5.5,0,0,1,.2.25l.38,1a.34.34,0,0,1,0,.31.34.34,0,0,1-.24.18l-14.77,3.57a.34.34,0,0,1-.2,0,.35.35,0,0,1-.13-.14l-.56-1.47a.56.56,0,0,1,0-.29.3.3,0,0,1,.15-.22l10.45-8.8-13.75.47a.26.26,0,0,1-.29-.18L81.2,193a.51.51,0,0,1,0-.32.46.46,0,0,1,.22-.24l13.23-7.17.05,0a.34.34,0,0,1,.26,0,.29.29,0,0,1,.2.2l.39,1a.45.45,0,0,1,0,.32.42.42,0,0,1-.21.24l-10.81,5.76,13.26-.45a.41.41,0,0,1,.26.09.39.39,0,0,1,.17.21l.4,1.06A.41.41,0,0,1,98.64,193.94Z"/><path d="M92.54,179.92a5.59,5.59,0,0,1-1.15,2.62,5.33,5.33,0,0,1-2.31,1.68l-4.92,1.89a5.31,5.31,0,0,1-2.84.3,5.53,5.53,0,0,1-2.61-1.17A5.44,5.44,0,0,1,77,182.92a5.35,5.35,0,0,1-.3-2.85,5.53,5.53,0,0,1,1.16-2.61,5.24,5.24,0,0,1,2.3-1.69l4.92-1.89a5.35,5.35,0,0,1,2.85-.3,5.5,5.5,0,0,1,2.6,1.17,5.53,5.53,0,0,1,2,5.17Zm-3.07-3.76a3.88,3.88,0,0,0-1.78-.76,3.7,3.7,0,0,0-1.92.21l-4.92,1.89a3.74,3.74,0,0,0-1.56,1.13,3.8,3.8,0,0,0-.82,1.76,3.46,3.46,0,0,0,.18,1.91,3.4,3.4,0,0,0,1.14,1.53,3.92,3.92,0,0,0,1.79.76,3.7,3.7,0,0,0,1.92-.21l4.92-1.89A3.74,3.74,0,0,0,90,181.36a3.89,3.89,0,0,0,.81-1.76,3.37,3.37,0,0,0-.17-1.91A3.42,3.42,0,0,0,89.47,176.16Z"/><path d="M88.53,168.47a.35.35,0,0,1-.18.16l-13.62,5.24a.81.81,0,0,1-.63,0,.83.83,0,0,1-.43-.45l-1.41-3.67a4.58,4.58,0,0,1-.26-2.39,4.56,4.56,0,0,1,2.88-3.54,4.36,4.36,0,0,1,3.08-.07,4.44,4.44,0,0,1,2.39,1.89l4.32-5.68a.45.45,0,0,1,.18-.15.39.39,0,0,1,.32,0,.47.47,0,0,1,.22.24l.41,1.08a.37.37,0,0,1-.07.39l-4.55,6,.63,1.65,5.87-2.26a.31.31,0,0,1,.41.18l.44,1.14A.36.36,0,0,1,88.53,168.47Zm-9.34-1.26a2.77,2.77,0,0,0-1.46-1.61,2.72,2.72,0,0,0-2.15,0A2.81,2.81,0,0,0,74,167.05a2.75,2.75,0,0,0,0,2.18l1,2.57,5.25-2Z"/><path d="M83.77,156.51a.76.76,0,0,1-.45.43L70.17,162a.81.81,0,0,1-1.06-.47l-2.67-6.94a.31.31,0,0,1,0-.25.27.27,0,0,1,.17-.16l1-.4a.31.31,0,0,1,.41.18l2.3,6,4.51-1.74-1.75-4.56a.31.31,0,0,1,.18-.41l1-.38a.36.36,0,0,1,.25,0,.31.31,0,0,1,.16.18l1.76,4.56,5.32-2.05-2.3-6a.33.33,0,0,1,.18-.41l1-.4a.29.29,0,0,1,.24,0,.31.31,0,0,1,.17.17l2.67,6.95A.79.79,0,0,1,83.77,156.51Z"/><path class="cls-8" d="M105.63,177.62a19.47,19.47,0,0,1-5.49-.52.8.8,0,0,1-.52-.37.91.91,0,0,1-.2-.65l.51-3.62a1,1,0,0,1,.68-.92,1.58,1.58,0,0,1,.78-.08,13.55,13.55,0,0,0,7.48-.32,6.46,6.46,0,0,0,3.49-2.73,4.18,4.18,0,0,0,.23-3.7,3.53,3.53,0,0,0-1.53-1.88,6.24,6.24,0,0,0-2.47-.76c-1-.11-2.29-.17-4-.19l-1.59,0a18.8,18.8,0,0,1-6.76-1.42q-3-1.29-4.6-5.4a10.62,10.62,0,0,1-.67-5.61,9.67,9.67,0,0,1,2.29-4.85,12.09,12.09,0,0,1,4.88-3.28,16.47,16.47,0,0,1,5.31-1.09,16.89,16.89,0,0,1,5.35.57.84.84,0,0,1,.53.37,1,1,0,0,1,.2.66l-.42,3.58a1,1,0,0,1-.68.91,1.48,1.48,0,0,1-.78.09,15.28,15.28,0,0,0-4.18-.35,10.87,10.87,0,0,0-3.21.63,5.06,5.06,0,0,0-2.91,2.45,4.14,4.14,0,0,0-.1,3.43,4.24,4.24,0,0,0,2.53,2.54,16.43,16.43,0,0,0,5.26.77c.32,0,1.57,0,3.74.06a11.07,11.07,0,0,1,5.78,1.66,9.15,9.15,0,0,1,3.67,4.62,10.58,10.58,0,0,1,.62,5.76,10.32,10.32,0,0,1-2.53,5.08,13.45,13.45,0,0,1-5.29,3.49A16.69,16.69,0,0,1,105.63,177.62Z"/><path class="cls-8" d="M133.27,166.08a13.32,13.32,0,0,1-6.31-2.79,12.94,12.94,0,0,1-4.09-5.63L119,147.58a13,13,0,0,1-.73-6.91,13.46,13.46,0,0,1,2.82-6.3,13.54,13.54,0,0,1,12.59-4.84,13.36,13.36,0,0,1,6.31,2.79,13,13,0,0,1,4.09,5.62L148,148a13.14,13.14,0,0,1,.73,6.92,13.46,13.46,0,0,1-2.82,6.3,13.54,13.54,0,0,1-12.59,4.84Zm7.81-8.52a7.46,7.46,0,0,0,1.5-3.51,7.28,7.28,0,0,0-.41-3.81l-3.87-10.08a7.47,7.47,0,0,0-2.25-3.1,7.61,7.61,0,0,0-3.47-1.6,6.94,6.94,0,0,0-6.72,2.58,7.54,7.54,0,0,0-1.5,3.52,7.35,7.35,0,0,0,.4,3.8l3.88,10.08a7.24,7.24,0,0,0,2.25,3.1,7.47,7.47,0,0,0,3.47,1.6,6.74,6.74,0,0,0,3.72-.34A6.84,6.84,0,0,0,141.08,157.56Z"/><path class="cls-8" d="M159.55,156.52a2.12,2.12,0,0,1-1.15-1.22l-11.84-30.81a1,1,0,0,1,0-.82,1.05,1.05,0,0,1,.6-.55l3.79-1.46a1,1,0,0,1,1.37.61l10.5,27.31,11-4.22a1,1,0,0,1,1.37.61l1.37,3.55a1.06,1.06,0,0,1,0,.82,1,1,0,0,1-.6.55l-14.72,5.66A2.11,2.11,0,0,1,159.55,156.52Z"/><path class="cls-8" d="M181.5,148.4a1.07,1.07,0,0,1-.63-.65,1,1,0,0,1-.1-.4l-1.87-35.51a1.54,1.54,0,0,1,.25-1,1.64,1.64,0,0,1,.82-.64l3.69-1.42a1.6,1.6,0,0,1,1-.07,1.52,1.52,0,0,1,.84.54l22.4,27.62a1.19,1.19,0,0,1,.19.36,1.11,1.11,0,0,1,0,.91,1.22,1.22,0,0,1-.68.62L204,140.11a1.55,1.55,0,0,1-1,0,1.61,1.61,0,0,1-.85-.57l-4.75-6-11.07,4.25.49,7.64a1.59,1.59,0,0,1-.24,1,1.56,1.56,0,0,1-.81.66l-3.31,1.27A1.22,1.22,0,0,1,181.5,148.4Zm12.15-19.52-8.74-11.15,1,14.13Z"/><path class="cls-8" d="M214.11,135.89a1,1,0,0,1-.56-.6l-11.84-30.8a2.18,2.18,0,0,1,1.25-2.82l8.85-3.4a11.37,11.37,0,0,1,5.83-.67,11.09,11.09,0,0,1,5.27,2.27,10.83,10.83,0,0,1,3.71,11.47,11,11,0,0,1-3.89,5.71l12.53,9.14a1.37,1.37,0,0,1,.44.59,1,1,0,0,1,0,.83,1.2,1.2,0,0,1-.68.58l-3.88,1.49a1.44,1.44,0,0,1-1.48-.19l-12.71-9.61-2.32.89,4.73,12.3a1.06,1.06,0,0,1,0,.82,1,1,0,0,1-.61.56l-3.78,1.46A1.06,1.06,0,0,1,214.11,135.89Zm3.22-22.42a5.3,5.3,0,0,0,3.06-2.72,4.89,4.89,0,0,0,.07-4,5,5,0,0,0-2.74-3,5.21,5.21,0,0,0-4.1,0l-4.83,1.85,3.71,9.66Z"/><path d="M147.31,234a.6.6,0,0,1-.33-.23l-10.53-13.86a.43.43,0,0,1-.08-.14.48.48,0,0,1,0-.37.53.53,0,0,1,.29-.28l1.82-.69a.6.6,0,0,1,.42,0,.62.62,0,0,1,.33.24l8,10.6L146,216.06a.63.63,0,0,1,.08-.4.73.73,0,0,1,.33-.27l1.81-.69a.61.61,0,0,1,.42,0,.62.62,0,0,1,.33.24l8.05,10.6-1.27-13.21a.58.58,0,0,1,.09-.4.66.66,0,0,1,.32-.27l1.91-.73a.47.47,0,0,1,.45,0,.5.5,0,0,1,.22.4l1.35,17.39a.54.54,0,0,1-.09.41.73.73,0,0,1-.34.26l-2.21.85a.66.66,0,0,1-.75-.22L149.24,220l1.13,12.52a.54.54,0,0,1-.1.41.66.66,0,0,1-.33.26l-2.21.85A.61.61,0,0,1,147.31,234Z"/><path d="M169.88,224.84a6.45,6.45,0,0,1-3.1-1.37,6.35,6.35,0,0,1-2-2.76l-1.9-4.94a6.4,6.4,0,0,1-.36-3.4,6.66,6.66,0,0,1,1.38-3.09,6.53,6.53,0,0,1,2.78-2,6.57,6.57,0,0,1,8.51,3.77l1.9,4.94a6.4,6.4,0,0,1,.36,3.4,6.62,6.62,0,0,1-4.16,5.1A6.39,6.39,0,0,1,169.88,224.84Zm3.83-4.18a3.68,3.68,0,0,0,.73-1.72,3.62,3.62,0,0,0-.19-1.87l-1.91-4.95a3.62,3.62,0,0,0-1.1-1.52,3.67,3.67,0,0,0-1.7-.78,3.35,3.35,0,0,0-1.83.17,3.26,3.26,0,0,0-1.47,1.1,3.69,3.69,0,0,0-.74,1.72,3.62,3.62,0,0,0,.2,1.87l1.9,4.94a3.53,3.53,0,0,0,1.11,1.53,3.63,3.63,0,0,0,1.7.78,3.38,3.38,0,0,0,3.3-1.27Z"/><path d="M182.68,220.36a.48.48,0,0,1-.27-.29L176.59,205a1.07,1.07,0,0,1,.62-1.39l4.34-1.67a5.53,5.53,0,0,1,2.86-.32,5.37,5.37,0,0,1,2.59,1.11,5.22,5.22,0,0,1,1.67,2.26,5.14,5.14,0,0,1,.15,3.37,5.39,5.39,0,0,1-1.91,2.8l6.15,4.49a.66.66,0,0,1,.21.29.47.47,0,0,1,0,.4.59.59,0,0,1-.33.29l-1.91.73a.74.74,0,0,1-.73-.09l-6.23-4.72-1.14.44,2.32,6a.5.5,0,0,1,0,.4.46.46,0,0,1-.29.27l-1.86.72A.5.5,0,0,1,182.68,220.36Zm1.58-11a2.63,2.63,0,0,0,1.5-1.34,2.44,2.44,0,0,0,0-2,2.48,2.48,0,0,0-1.35-1.45,2.55,2.55,0,0,0-2,0l-2.37.91,1.82,4.74Z"/><path d="M196.54,214.86a1,1,0,0,1-.56-.6l-5.81-15.12a.55.55,0,0,1,0-.4.5.5,0,0,1,.3-.27l1.86-.72a.5.5,0,0,1,.4,0,.46.46,0,0,1,.27.29l5.15,13.4,5.39-2.07a.53.53,0,0,1,.68.3l.67,1.74a.5.5,0,0,1,0,.4.57.57,0,0,1-.29.28l-7.23,2.78A1.06,1.06,0,0,1,196.54,214.86Z"/><path d="M207.81,210.53a1.05,1.05,0,0,1-.57-.6l-5.61-14.61a1,1,0,0,1,0-.82,1,1,0,0,1,.59-.56l4.55-1.75a6.75,6.75,0,0,1,6.8,1.07,6.86,6.86,0,0,1,2.1,3l1.41,3.64a7.08,7.08,0,0,1,.41,3.6,6.86,6.86,0,0,1-1.41,3.24,6.77,6.77,0,0,1-2.92,2.1l-4.55,1.75A1,1,0,0,1,207.81,210.53Zm4.21-4.41a3.82,3.82,0,0,0,1.65-1.21,4,4,0,0,0,.83-1.86,3.85,3.85,0,0,0-.22-2.06l-1.45-3.77a3.8,3.8,0,0,0-1.2-1.65,4.06,4.06,0,0,0-1.87-.83,4,4,0,0,0-2,.21l-2.6,1,4.3,11.17Z"/><path class="cls-8" d="M118.3,219.09a1.08,1.08,0,0,1-.59-.63l-12.45-32.4a2.28,2.28,0,0,1,1.32-3l8.85-3.4a12.07,12.07,0,0,1,6.39-.69,12.51,12.51,0,0,1,5.84,2.55,12.12,12.12,0,0,1,4.42,11.5,12.37,12.37,0,0,1-2.62,5.8,12.19,12.19,0,0,1-5.21,3.78l-4.92,1.89,4.46,11.6a1.11,1.11,0,0,1,0,.86,1.06,1.06,0,0,1-.63.58l-4,1.53A1.07,1.07,0,0,1,118.3,219.09ZM121.8,197a6.16,6.16,0,1,0-4.41-11.5l-4.68,1.8,4.42,11.5Z"/><path class="cls-8" d="M152.86,204.77a13.84,13.84,0,0,1-6.67-3.23,16.3,16.3,0,0,1-4.5-6.58l-8.09-21.05a1.11,1.11,0,0,1,0-.86,1.14,1.14,0,0,1,.63-.59l4-1.53a1.08,1.08,0,0,1,1.44.65l8.19,21.3a8.88,8.88,0,0,0,4.19,5,7.73,7.73,0,0,0,10.35-4,8.9,8.9,0,0,0-.26-6.53L154,166.09a1.09,1.09,0,0,1,.64-1.45l4-1.53a1.1,1.1,0,0,1,1.45.64l8.09,21.05a16.34,16.34,0,0,1,1.07,7.93,14.09,14.09,0,0,1-16.33,12Z"/><path class="cls-8" d="M181.4,194.83a1.08,1.08,0,0,1-.59-.63l-12.72-33.09a1.51,1.51,0,0,1,0-1.18,1.48,1.48,0,0,1,.86-.82l4.08-1.57a1.67,1.67,0,0,1,1.63.23l19.71,15.61,4,3.27-9.26-24.09a1.1,1.1,0,0,1,.64-1.45l3.58-1.37a1.07,1.07,0,0,1,.86,0,1.05,1.05,0,0,1,.59.63l12.72,33.09a1.49,1.49,0,0,1,0,1.19,1.46,1.46,0,0,1-.86.81l-4.13,1.59a1.64,1.64,0,0,1-1.63-.23l-20.37-16.16L177.26,168l9.23,24a1.1,1.1,0,0,1,0,.89,1.12,1.12,0,0,1-.64.56l-3.58,1.37A1,1,0,0,1,181.4,194.83Z"/><path class="cls-8" d="M236.6,174a1.85,1.85,0,0,1-1.71-.14l-16.65-9.88-1.89.73,5.32,13.84a1.11,1.11,0,0,1,0,.86,1.09,1.09,0,0,1-.63.58l-4,1.53a1.08,1.08,0,0,1-1.44-.64l-12.88-33.49a1.11,1.11,0,0,1,0-.86,1.13,1.13,0,0,1,.64-.59l4-1.53a1.08,1.08,0,0,1,1.44.64l5.4,14,1.64-.63,5.92-18.79a1.93,1.93,0,0,1,1.22-1.27l4.53-1.74a1.08,1.08,0,0,1,.83,0,.9.9,0,0,1,.51.52,1.16,1.16,0,0,1,0,.74l-6.78,21,19.34,11.52a1.24,1.24,0,0,1,.5.56.91.91,0,0,1,0,.72,1.08,1.08,0,0,1-.62.56Z"/></g></g></svg>