<svg xmlns="http://www.w3.org/2000/svg" xmlns:xlink="http://www.w3.org/1999/xlink" viewBox="0 0 283.46 283.46"><defs><style>.cls-1{fill:none;}.cls-2{fill:#fff;}.cls-3{fill:#6f3ff4;}.cls-4{fill:#02e1ab;}.cls-5{clip-path:url(#clip-path);}.cls-6{fill:#b2ffec;}.cls-7{fill:#67edcd;}.cls-8{fill:#11bb91;}.cls-9{stroke:#000;stroke-miterlimit:10;}</style><clipPath id="clip-path"><path class="cls-1" d="M83.76,157.34c-3-1.49-5.51-2.37-7.6-3.8a49.92,49.92,0,0,1-6-5.32c-1.37-1.29-.55-2.92-.24-4.31.08-.36,1.81-.41,2.79-.49,3.14-.27,6.28-.48,9.43-.71l.06-.83c-.74-.27-1.47-.6-2.23-.81a63.59,63.59,0,0,1-17.76-8.19c-6.24-4-9.67-10.11-11.75-17a10,10,0,0,1-.27-3.42c.16-2.62,1.67-3.63,4.15-2.77a17.54,17.54,0,0,1,2.66,1.5l10.6,6,.44-.61a16.07,16.07,0,0,0-1.67-1.73c-6.85-5.43-12.08-12.36-16.48-19.67-3.65-6-6.8-12.77-5.37-20.39a17.93,17.93,0,0,1,1.07-4.07c1.09-2.42,2.56-2.43,4.12-.19,3.35,4.84,6.69,9.69,10.1,14.5a4.44,4.44,0,0,0,2.44,1.67c-1.37-3-2.71-6-4.11-8.91-3.77-8-4.64-16.48-4.87-25.1a23.36,23.36,0,0,1,1-5.66c.54-2.37,1.16-4.72,1.8-7.07A5,5,0,0,1,57,37.83,2.68,2.68,0,0,1,59,37c.5.09,1,1,1.23,1.63a8.53,8.53,0,0,1,.28,2.28c.74,10.16,5.74,18.27,12.69,25.22,8.62,8.61,18.27,16,27.89,23.5,6.69,5.21,14.4,8.31,21.66,12.35,2.34,1.31,4.71,2.59,7.13,3.73,4.94,2.31,7.57,6.42,9,11.43,1.52,5.56,2.59,11.26,4.3,16.76,3.54,11.39,7.1,22.81,14.12,32.72,1,1.47,2,3,3,4.45,1.37,1.81,2.25,1.85,4.24,1a54.94,54.94,0,0,1,7.53-2.7,24.93,24.93,0,0,0,9.29-4.42c5.24-4.12,10.35-8.41,16.43-11.35,1.14-.56,1.88-2,2.74-3.06,2.4-3,4.63-6.12,7.21-8.93a17.63,17.63,0,0,1,5-3.44,3.9,3.9,0,0,0,2.29-3.5,28.29,28.29,0,0,1,2.38-6.77c.49-1.13,1.47-1.3,2.55-.56,2.32,1.6,4.66,3.15,7.17,4.85.86-1.67.17-3.54.2-5.35a34.62,34.62,0,0,1,.08-4.56c.28-1.84,1-2.14,2.6-1.18a40.36,40.36,0,0,1,4,3.08,22.61,22.61,0,0,1,.38-4.06c.33-1.17.83-2.78,1.72-3.18,1.46-.67,2.63.74,3.31,2,1,1.89,1.88,3.9,3,6.37.28-1.21.52-2,.62-2.75a34,34,0,0,1,.49-4.19,17.28,17.28,0,0,1,1.65-3.23,15.64,15.64,0,0,1,2.38,2.2c1.24,1.78,2.29,3.68,3.49,5.65.36-1.67.65-3.36,1.1-5,.37-1.36.79-2.81,2.72-2.65,1.67.14,1.91,1.41,2.26,2.69a38.59,38.59,0,0,1,.82,16.78C256.77,142,254.91,149,253,156.06s-6.83,12.46-12,17.5a35.21,35.21,0,0,1-12.64,7.87c-5.39,2-10.75,4-16.43,6.21.74.46,1.44.86,2.11,1.31a20,20,0,0,1,8.1,10.91,8.21,8.21,0,0,0,4.57,5.22c3.88,2,4.84,4.3,4.22,8.53-.4,2.68-1.15,3.17-3.91,2.72-3-.49-6.06-1-9.1-1.32a23.67,23.67,0,0,0-15,3.87c-8.16,5.09-17.09,8.07-26.17,10.91a80.93,80.93,0,0,1-23.83,3.29,94.22,94.22,0,0,1-29.52-4c-2.32-.73-4.82-.9-7.11-1.69-4-1.36-7.91-3-11.81-4.57-1.66-.69-3.13-1.49-5.11-1-6.06,1.46-12.23.91-18.35.41-6.39-.53-12.74-1.44-19.13-1.83-3-.19-4.89-1.53-5.74-4.19a5.46,5.46,0,0,0-4.49-4.06,8.71,8.71,0,0,1-3.67-2c-2.49-2.14-4.85-4.45-7.2-6.75-1.54-1.5-3-3.08-4.41-4.7s-3.12-3.1-2.2-5.36,3.31-1.86,5.11-1.72c5.62.43,11.21,1.21,16.82,1.74,7.14.67,14.29,1.31,21.44,1.81a28.57,28.57,0,0,0,12.06-1.93c2.86-1.07,3.06-1.88,2.58-4.94a26.12,26.12,0,0,1-.3-5.72,4.55,4.55,0,0,0-2-4.5c-3-2.23-5.65-4.82-8.51-7.19a12.17,12.17,0,0,1-4.23-8c-.55-3.6.2-4.66,3.77-5.15Z"/></clipPath></defs><g id="profile"><path class="cls-2" d="M160.46,255.11a9.15,9.15,0,0,1-1.38-.1L65,242.18a9.94,9.94,0,0,1-8.67-8.56,9.63,9.63,0,0,1,.1-2.89,4.08,4.08,0,0,0-2-4.36,13.34,13.34,0,0,1-5.6-6.5l-.08-.21-.22-.07a17.72,17.72,0,0,1-5.92-3.41c-2.58-2.23-5-4.54-7.58-7.11-1.71-1.68-3.35-3.43-4.87-5.19l-.36-.41c-1.47-1.65-5.89-6.58-3.17-13.2a10.74,10.74,0,0,1,8.11-6.57,13.42,13.42,0,0,1,2.59-.23c.82,0,1.53.06,2.1.1l.31,0c3.42.26,6.81.64,10.09,1,2.27.25,4.61.52,6.88.73,8.6.81,15.16,1.37,21.25,1.8.39,0,.78,0,1.17,0a19.2,19.2,0,0,0,3.5-.34l.74-.15.42-.1,0-.43c0-.82-.08-1.65-.07-2.44v-.25l-.19-.15c-1.52-1.22-3-2.48-4.33-3.69-1-.92-2-1.79-3-2.63a20.1,20.1,0,0,1-7-12.91,16.57,16.57,0,0,1,0-5.54l.06-.28-.22-.19c-1.15-1-2.2-2-3.12-2.91l-.13-.13-1.06-1c-3.06-2.89-4-6.76-2.65-11.47l.11-.38L61.8,142c-1.29-.74-2.6-1.54-3.91-2.39-7.21-4.66-12.14-11.68-15.07-21.47a17.48,17.48,0,0,1-.59-6.21,11.64,11.64,0,0,1,3.42-7.78l.31-.29-.23-.35c-.89-1.34-1.79-2.76-2.67-4.23-4-6.63-8.33-15.58-6.37-26l.05-.3a23.73,23.73,0,0,1,1.58-5.58c1.91-4.24,4.88-5.76,7-6.29l.42-.1,0-.43c-.21-2.32-.34-4.77-.42-7.71a23.49,23.49,0,0,1,1-6.53c.11-.44.2-.78.28-1.13.58-2.56,1.25-5.06,1.88-7.38l0-.13a11.72,11.72,0,0,1,2.8-5.4,11,11,0,0,1,5.8-3.15A9.75,9.75,0,0,1,58.83,29a9.12,9.12,0,0,1,1.65.15c3.3.61,6,3.07,7.3,6.76A13.48,13.48,0,0,1,68.51,40l0,.31c.52,7.21,3.81,13.61,10.36,20.15,7.85,7.85,16.55,14.61,25.76,21.77L106,83.31c4,3.13,8.67,5.48,13.58,8,2.33,1.18,4.7,2.39,7.06,3.7,2.12,1.18,4.4,2.42,6.65,3.47,6.63,3.12,11.1,8.69,13.26,16.57.67,2.46,1.25,4.9,1.81,7.25.77,3.26,1.49,6.3,2.41,9.24,3.45,11.09,6.71,21.57,13,30.48q.38.51.72,1l.22.32.37-.13a47.3,47.3,0,0,1,4.94-1.59,17,17,0,0,0,6.37-3l1.73-1.37c4.6-3.64,9.35-7.4,15-10.32l.11-.06.07-.1c.31-.44.63-.88,1-1.29.73-.91,1.45-1.84,2.17-2.77,1.69-2.19,3.4-4.41,5.38-6.56a22.1,22.1,0,0,1,5.39-4.14l.19-.11.05-.21a36.33,36.33,0,0,1,2.17-6l.42-1a9.42,9.42,0,0,1,6.95-5.71,9,9,0,0,1,1.72-.16,8.51,8.51,0,0,1,.88,0l.39,0,.13-.36a9,9,0,0,1,6.78-5.88,8.49,8.49,0,0,1,1.66-.16l.6,0,.16-.2a9.42,9.42,0,0,1,3.49-2.74,10.51,10.51,0,0,1,2.25-.71,9.77,9.77,0,0,1,1.76-.16A10.26,10.26,0,0,1,239,109l.37.08,1.45-2.74a3.57,3.57,0,0,1,5.55-1l3.45,3.11.31-.15a9.92,9.92,0,0,1,2.55-.84,10.8,10.8,0,0,1,2-.18c.31,0,.62,0,.94,0,2.68.22,7.46,1.6,9.27,8.38l.05.18a46.24,46.24,0,0,1,1,20.27c-1.35,7.68-3.32,15.13-5.25,22C258.07,167.5,252,174,246.51,179.3A43.41,43.41,0,0,1,231,188.94l-3.92,1.46-.56.21.31.51a28.75,28.75,0,0,1,2.85,6.37l.05.17.16.1.36.2c6.77,3.48,9.62,9.14,8.49,16.82-1.06,7.12-5.6,9-8.21,9.51a11.44,11.44,0,0,1-2.14.19,16.72,16.72,0,0,1-2.76-.25l-1-.16c-2.65-.44-5.14-.84-7.62-1.09a11.85,11.85,0,0,0-1.33-.07,13.82,13.82,0,0,0-2.46.23,18.09,18.09,0,0,0-6.17,2.53c-8.88,5.53-18.32,8.72-28,11.76a71.23,71.23,0,0,1-8.32,2.07l-1.11.2-1,.16.38.63a9.7,9.7,0,0,1,1.2,6.8A9.84,9.84,0,0,1,160.46,255.11Z"/><path d="M58.82,29.47a9.16,9.16,0,0,1,1.57.14c3.12.58,5.64,2.93,6.92,6.44a12.89,12.89,0,0,1,.7,4l0,.33c.53,7.32,3.87,13.82,10.51,20.45,7.87,7.88,16.59,14.65,25.82,21.83l1.37,1.06c4.06,3.16,8.72,5.53,13.68,8,2.29,1.16,4.67,2.37,7,3.68,2.13,1.18,4.42,2.42,6.67,3.49,6.5,3,10.87,8.51,13,16.24.67,2.44,1.25,4.88,1.82,7.25.76,3.24,1.49,6.3,2.41,9.26,3.46,11.13,6.73,21.64,13.09,30.62l.71,1,.44.66.74-.28a50.53,50.53,0,0,1,4.89-1.57,17.25,17.25,0,0,0,6.55-3.06l1.73-1.37c4.58-3.62,9.31-7.37,14.94-10.27l.22-.11.14-.2c.29-.42.61-.86.94-1.27.72-.89,1.44-1.82,2.13-2.71l.08-.11c1.65-2.14,3.36-4.35,5.32-6.48a21.37,21.37,0,0,1,5.27-4l.37-.21.1-.42a35.38,35.38,0,0,1,2.15-5.93l.42-1a8.93,8.93,0,0,1,6.58-5.41,8.83,8.83,0,0,1,1.63-.15,7.87,7.87,0,0,1,.84,0l.76.07.27-.72a8.53,8.53,0,0,1,6.41-5.57,8.17,8.17,0,0,1,1.56-.15h.33l.5,0,.32-.4a9,9,0,0,1,3.31-2.59,9.44,9.44,0,0,1,2.13-.68,8.9,8.9,0,0,1,1.67-.15,10.05,10.05,0,0,1,2,.22l.74.16L240,109l1.27-2.41a3.07,3.07,0,0,1,2.72-1.64,3,3,0,0,1,2,.79l3.21,2.88.5.46.6-.3a9.44,9.44,0,0,1,2.44-.8,10.52,10.52,0,0,1,1.88-.17c.29,0,.6,0,.9,0,5.95.49,8.09,5.23,8.83,8l.05.18a45.86,45.86,0,0,1,1,20.05c-1.35,7.66-3.32,15.1-5.24,22-2.56,9.17-8.58,15.58-14,20.87a42.78,42.78,0,0,1-15.29,9.53L227,189.93l-1.13.42.62,1a27.89,27.89,0,0,1,2.8,6.25l.11.36.32.2.39.22c6.56,3.36,9.32,8.85,8.22,16.3-.43,2.92-2,8-7.8,9.09a11.33,11.33,0,0,1-2,.18,17,17,0,0,1-2.68-.24l-1-.17c-2.65-.43-5.15-.84-7.65-1.09a12.75,12.75,0,0,0-1.38-.07,14,14,0,0,0-2.56.24,18.76,18.76,0,0,0-6.34,2.6c-8.82,5.5-18.23,8.67-27.9,11.7a70.21,70.21,0,0,1-8.26,2.06l-1.12.2-.23,0-1.43.24.75,1.26a9.16,9.16,0,0,1,1.14,6.45,9.34,9.34,0,0,1-9.29,7.41,9.5,9.5,0,0,1-1.31-.09L65.09,241.69a9.45,9.45,0,0,1-8.24-8.13,9,9,0,0,1,.09-2.74,4.58,4.58,0,0,0-2.2-4.88,12.64,12.64,0,0,1-5.38-6.26l-.18-.43-.44-.14A17,17,0,0,1,43,215.8c-2.58-2.22-5-4.52-7.56-7.08-1.7-1.68-3.33-3.41-4.84-5.17l-.39-.44c-5.66-6.32-3.7-11.09-3.06-12.65a10.27,10.27,0,0,1,7.74-6.27,13.29,13.29,0,0,1,2.5-.22c.79,0,1.49.05,2.06.1l.32,0c3.4.26,6.77.64,10.07,1,2.15.25,4.58.52,6.88.74,8.6.81,15.16,1.36,21.27,1.79.39,0,.8.05,1.2.05a19.31,19.31,0,0,0,3.59-.35l.76-.16.84-.19-.06-.85c0-.82-.08-1.63-.07-2.41v-.49l-.38-.3c-1.53-1.22-2.95-2.47-4.32-3.68l-.12-.1c-1-.84-1.94-1.7-2.94-2.53A19.64,19.64,0,0,1,69.64,164a16.08,16.08,0,0,1,0-5.37l.11-.57-.44-.38c-1.12-1-2.13-2-3.09-2.89l-.07-.07L65,153.67c-2.91-2.76-3.75-6.45-2.5-11l.2-.75-.67-.38c-1.28-.74-2.59-1.54-3.89-2.38-7.1-4.59-12-11.53-14.86-21.19a17,17,0,0,1-.57-6A11.16,11.16,0,0,1,46,104.5l.61-.58-.47-.7c-.88-1.33-1.77-2.74-2.65-4.2-4-6.56-8.24-15.4-6.31-25.66l.06-.3a22.43,22.43,0,0,1,1.54-5.46c1.83-4.06,4.64-5.51,6.68-6l.84-.21-.08-.86c-.21-2.31-.34-4.75-.42-7.68a23.09,23.09,0,0,1,.93-6.39l0-.08c.09-.35.18-.7.26-1,.59-2.55,1.25-5,1.88-7.37l0-.13a11.3,11.3,0,0,1,2.68-5.18,10.54,10.54,0,0,1,5.53-3,8.76,8.76,0,0,1,1.68-.16h0m0-1a10,10,0,0,0-1.87.18A11.46,11.46,0,0,0,50.89,32,12.22,12.22,0,0,0,48,37.56l0,.13c-.64,2.33-1.31,4.84-1.89,7.4l-.27,1.11a23.59,23.59,0,0,0-1,6.67c.07,2.47.18,5.07.43,7.74a10.91,10.91,0,0,0-7.36,6.58,23.69,23.69,0,0,0-1.62,5.69l0,.3c-2,10.59,2.39,19.65,6.43,26.35q1.34,2.22,2.68,4.24a12.1,12.1,0,0,0-3.58,8.11,18.34,18.34,0,0,0,.61,6.4c3,9.9,8,17,15.28,21.74q2,1.28,3.93,2.4c-1.35,4.91-.41,8.94,2.79,12l1.18,1.15c1,.93,2,1.94,3.14,2.93a16.71,16.71,0,0,0,0,5.71,20.6,20.6,0,0,0,7.21,13.22c1,.85,2,1.73,3,2.61,1.39,1.23,2.82,2.48,4.35,3.71,0,.81,0,1.64.07,2.49l-.72.15a18.3,18.3,0,0,1-3.41.33c-.38,0-.76,0-1.13,0-6.1-.43-12.65-1-21.25-1.79-2.26-.22-4.6-.48-6.86-.74-3.28-.37-6.68-.76-10.11-1l-.31,0C39,183,38.22,183,37.39,183a13.73,13.73,0,0,0-2.68.24,11.24,11.24,0,0,0-8.48,6.87c-2.84,6.91,1.73,12,3.24,13.7l.37.42c1.53,1.78,3.18,3.54,4.9,5.23,2.62,2.57,5,4.88,7.6,7.12a17.77,17.77,0,0,0,6.09,3.51,13.72,13.72,0,0,0,5.81,6.74A3.62,3.62,0,0,1,56,230.63a10,10,0,0,0-.1,3.05,10.47,10.47,0,0,0,9.09,9L159,255.51a10.2,10.2,0,0,0,1.45.1,10.36,10.36,0,0,0,10.27-8.23,10.1,10.1,0,0,0-1.27-7.15c.46-.07.91-.15,1.37-.24a74.71,74.71,0,0,0,8.37-2.08c9.73-3,19.21-6.25,28.13-11.81a17.61,17.61,0,0,1,6-2.47,12.83,12.83,0,0,1,2.37-.22c.43,0,.85,0,1.28.06,2.46.25,5,.66,7.58,1.09l1,.17a17.85,17.85,0,0,0,2.84.25,12.48,12.48,0,0,0,2.23-.2c2.74-.52,7.51-2.5,8.61-9.93,1.17-7.92-1.77-13.75-8.75-17.33l-.32-.18a29.8,29.8,0,0,0-2.9-6.48l3.92-1.45a43.82,43.82,0,0,0,15.63-9.75c5.54-5.38,11.67-11.91,14.29-21.32,1.93-6.92,3.91-14.38,5.26-22.09a46.74,46.74,0,0,0-1-20.48l0-.18c-1.89-7.07-6.9-8.52-9.72-8.75-.33,0-.66,0-1,0a10.84,10.84,0,0,0-2.07.19,10.61,10.61,0,0,0-2.68.88L246.71,105a4.07,4.07,0,0,0-6.33,1.13l-1.26,2.4a10.68,10.68,0,0,0-2.26-.24,9.76,9.76,0,0,0-1.85.17,10,10,0,0,0-2.37.75,9.79,9.79,0,0,0-3.67,2.88h-.37a10.26,10.26,0,0,0-1.75.16,9.52,9.52,0,0,0-7.16,6.21c-.31,0-.62,0-.93,0a9.27,9.27,0,0,0-1.82.17,9.9,9.9,0,0,0-7.31,6l-.42,1a36.29,36.29,0,0,0-2.2,6.1,22.55,22.55,0,0,0-5.51,4.23c-2,2.17-3.71,4.39-5.37,6.55-.73.94-1.46,1.88-2.2,2.81-.33.41-.66.86-1,1.31-5.72,2.95-10.48,6.72-15.1,10.38l-1.73,1.36a16.25,16.25,0,0,1-6.19,2.88,51.82,51.82,0,0,0-5,1.61c-.24-.36-.48-.71-.73-1.06-6.26-8.85-9.51-19.29-12.94-30.34-.92-2.93-1.64-6-2.4-9.2-.57-2.37-1.15-4.82-1.82-7.28-2.2-8-6.75-13.7-13.53-16.88-2.24-1-4.5-2.28-6.62-3.46-2.37-1.32-4.76-2.53-7.07-3.7-4.89-2.48-9.51-4.82-13.5-7.93L105,81.85c-9.2-7.16-17.89-13.91-25.73-21.74C72.78,53.65,69.54,47.35,69,40.29L69,40a14,14,0,0,0-.76-4.26c-1.41-3.86-4.2-6.44-7.68-7.08a9.34,9.34,0,0,0-1.75-.16Z"/><path class="cls-3" d="M77.07,237.08a3,3,0,0,1-.74-.51.11.11,0,0,1,0-.09.14.14,0,0,1,0-.11l.36-.48a.16.16,0,0,1,.17-.07.21.21,0,0,1,.12.05,2.19,2.19,0,0,0,1.09.54,1,1,0,0,0,.71-.12.69.69,0,0,0,.32-.51.56.56,0,0,0-.07-.39,1.17,1.17,0,0,0-.29-.3c-.13-.09-.32-.2-.56-.34l-.23-.13a3.06,3.06,0,0,1-.85-.73,1.43,1.43,0,0,1-.23-1.13,1.74,1.74,0,0,1,.34-.86,1.66,1.66,0,0,1,.71-.51,2,2,0,0,1,1-.08,2.56,2.56,0,0,1,.84.26,2.5,2.5,0,0,1,.72.5.13.13,0,0,1,0,.09.2.2,0,0,1,0,.11l-.34.48a.17.17,0,0,1-.16.08.33.33,0,0,1-.12-.05,2.82,2.82,0,0,0-.57-.38,1.74,1.74,0,0,0-.51-.16.87.87,0,0,0-.61.12.66.66,0,0,0-.28.48.71.71,0,0,0,.16.56,2.91,2.91,0,0,0,.69.52l.53.3a1.76,1.76,0,0,1,.69.69,1.54,1.54,0,0,1,.17,1,1.71,1.71,0,0,1-.37.87,1.58,1.58,0,0,1-.76.52,2.14,2.14,0,0,1-1,.09A2.79,2.79,0,0,1,77.07,237.08Z"/><path class="cls-3" d="M81.89,237.59a2.14,2.14,0,0,1-.8-2l.23-1.74a2.15,2.15,0,0,1,.44-1,2.18,2.18,0,0,1,.88-.68,2,2,0,0,1,1.09-.15,2.45,2.45,0,0,1,.91.31,2.12,2.12,0,0,1,.66.64.19.19,0,0,1,0,.15.22.22,0,0,1-.08.15l-.42.33a.18.18,0,0,1-.14,0,.15.15,0,0,1-.13-.09,1.34,1.34,0,0,0-1-.57A1,1,0,0,0,83,233a1.15,1.15,0,0,0-.47.38,1.24,1.24,0,0,0-.24.58l-.24,1.74a1.2,1.2,0,0,0,.08.62,1.16,1.16,0,0,0,.35.49,1,1,0,0,0,.54.24,1.29,1.29,0,0,0,1.06-.29.19.19,0,0,1,.15-.06.22.22,0,0,1,.13.09l.31.42a.24.24,0,0,1,0,.18.25.25,0,0,1-.07.12,2.28,2.28,0,0,1-.81.44,2.57,2.57,0,0,1-1,.06A2,2,0,0,1,81.89,237.59Z"/><path class="cls-3" d="M85.75,238.26a.15.15,0,0,1,0-.13l.75-5.5a.14.14,0,0,1,.06-.12.19.19,0,0,1,.13,0l.65.09a.19.19,0,0,1,.12.07.13.13,0,0,1,0,.12l-.3,2.21,2.42.33.3-2.21A.19.19,0,0,1,90,233a.14.14,0,0,1,.13,0l.65.09a.17.17,0,0,1,.12.06.28.28,0,0,1,0,.13l-.75,5.5a.19.19,0,0,1-.07.12.28.28,0,0,1-.13,0l-.65-.09a.19.19,0,0,1-.12-.07.18.18,0,0,1,0-.13l.32-2.35L87,235.91l-.32,2.35a.17.17,0,0,1-.06.12.15.15,0,0,1-.13,0l-.66-.09A.15.15,0,0,1,85.75,238.26Z"/><path class="cls-3" d="M91.52,239a.35.35,0,0,1-.07-.26l.7-5.14a.37.37,0,0,1,.14-.24.3.3,0,0,1,.26-.06l2.79.38a.13.13,0,0,1,.11.06.2.2,0,0,1,0,.13l-.09.61a.23.23,0,0,1-.06.12.15.15,0,0,1-.13,0l-2.14-.29-.19,1.39,1.59.21a.19.19,0,0,1,.12.07.28.28,0,0,1,0,.13l-.08.58a.19.19,0,0,1-.07.12.25.25,0,0,1-.13,0l-1.59-.22-.22,1.62,2.14.29a.19.19,0,0,1,.12.07.18.18,0,0,1,0,.13l-.09.61a.11.11,0,0,1-.06.11.2.2,0,0,1-.13,0l-2.79-.38A.37.37,0,0,1,91.52,239Z"/><path class="cls-3" d="M96,239.6a.33.33,0,0,1-.07-.27l.72-5.32a.16.16,0,0,1,.07-.11.15.15,0,0,1,.13,0l.65.09a.14.14,0,0,1,.12.06.15.15,0,0,1,0,.13L97,238.86l1.89.26a.19.19,0,0,1,.12.07.15.15,0,0,1,0,.13l-.08.61a.14.14,0,0,1-.07.11.2.2,0,0,1-.13,0l-2.54-.35A.32.32,0,0,1,96,239.6Z"/><path class="cls-3" d="M99.92,240.14a.37.37,0,0,1-.07-.27l.73-5.32a.14.14,0,0,1,.06-.11.15.15,0,0,1,.13,0l.65.09a.14.14,0,0,1,.12.06.15.15,0,0,1,0,.13l-.64,4.71,1.89.26a.19.19,0,0,1,.12.07.15.15,0,0,1,0,.13l-.08.61a.19.19,0,0,1-.07.12.18.18,0,0,1-.13,0l-2.54-.35A.34.34,0,0,1,99.92,240.14Z"/><path class="cls-3" d="M103.65,240.7a.15.15,0,0,1,0-.13l.07-.56a.19.19,0,0,1,.07-.12.15.15,0,0,1,.13,0l.69.09.55-4-.69-.09a.19.19,0,0,1-.12-.07.14.14,0,0,1,0-.13l.08-.56a.11.11,0,0,1,.06-.11.2.2,0,0,1,.13,0l2.39.33a.14.14,0,0,1,.11.07.12.12,0,0,1,0,.12L107,236a.16.16,0,0,1-.07.11.14.14,0,0,1-.13,0l-.69-.09-.55,4,.69.09a.19.19,0,0,1,.12.07.15.15,0,0,1,0,.13l-.08.56a.14.14,0,0,1-.06.12.15.15,0,0,1-.13,0l-2.39-.33A.13.13,0,0,1,103.65,240.7Z"/><path class="cls-3" d="M107.5,241.22a.18.18,0,0,1,0-.13l.74-5.43a.23.23,0,0,1,.1-.16.21.21,0,0,1,.17,0l.67.09a.25.25,0,0,1,.21.15l1.51,3.59.29.74.54-4a.14.14,0,0,1,.07-.11.2.2,0,0,1,.13,0l.59.08a.16.16,0,0,1,.11.07.2.2,0,0,1,0,.13l-.75,5.43a.2.2,0,0,1-.09.16.26.26,0,0,1-.17.05l-.68-.1a.25.25,0,0,1-.21-.15l-1.55-3.71-.25-.6-.53,3.94a.15.15,0,0,1-.07.12.15.15,0,0,1-.13,0l-.59-.08A.14.14,0,0,1,107.5,241.22Z"/><path class="cls-3" d="M114.15,242a2,2,0,0,1-.67-.89,2.13,2.13,0,0,1-.15-1.12l.24-1.74a2.06,2.06,0,0,1,.44-1,2.13,2.13,0,0,1,.89-.68,2,2,0,0,1,1.12-.14,2.44,2.44,0,0,1,.93.31,2.09,2.09,0,0,1,.68.64.19.19,0,0,1,0,.15.3.3,0,0,1-.09.15l-.41.33a.19.19,0,0,1-.14,0,.17.17,0,0,1-.13-.09,1.42,1.42,0,0,0-1-.58,1.12,1.12,0,0,0-.6.09,1.15,1.15,0,0,0-.49.38,1.24,1.24,0,0,0-.24.58l-.24,1.74a1.23,1.23,0,0,0,.45,1.11,1.06,1.06,0,0,0,.55.25,1.17,1.17,0,0,0,1.09-.45,1.12,1.12,0,0,0,.23-.56l.06-.4-1.1-.15a.16.16,0,0,1-.11-.07.15.15,0,0,1,0-.13l.08-.59a.13.13,0,0,1,.06-.11.15.15,0,0,1,.13,0l1.72.23a.36.36,0,0,1,.31.4l-.13.95a2.15,2.15,0,0,1-.44,1,2.13,2.13,0,0,1-.89.68,2,2,0,0,1-1.11.14A2.1,2.1,0,0,1,114.15,242Z"/><path class="cls-3" d="M120.54,243a.2.2,0,0,1,0-.13l.73-5.32a.36.36,0,0,1,.13-.23.37.37,0,0,1,.27-.07l1.45.2a1.91,1.91,0,0,1,1.52,1.16,1.82,1.82,0,0,1,.13,1,1.91,1.91,0,0,1-1.18,1.5,1.82,1.82,0,0,1-1,.12l-.81-.11L121.5,243a.14.14,0,0,1-.07.11.18.18,0,0,1-.13,0l-.65-.09A.14.14,0,0,1,120.54,243Zm2.12-2.73a.89.89,0,0,0,.7-.19.94.94,0,0,0,.18-1.33.94.94,0,0,0-.63-.37l-.77-.1-.25,1.89Z"/><path class="cls-3" d="M126.24,243.64a2.13,2.13,0,0,1-.68-.89,2,2,0,0,1-.14-1.12l.23-1.74a2.18,2.18,0,0,1,1.34-1.72,2,2,0,0,1,1.12-.14,2.13,2.13,0,0,1,1,.44,2.07,2.07,0,0,1,.68.89,2,2,0,0,1,.14,1.12l-.23,1.74a2.18,2.18,0,0,1-1.34,1.72,2,2,0,0,1-1.12.14A2.1,2.1,0,0,1,126.24,243.64ZM128,243a1.22,1.22,0,0,0,.73-1l.24-1.74a1.16,1.16,0,0,0-.08-.61,1.24,1.24,0,0,0-.37-.5A1.06,1.06,0,0,0,128,239a1.12,1.12,0,0,0-.6.09,1.22,1.22,0,0,0-.73,1l-.24,1.74a1.23,1.23,0,0,0,.45,1.11,1.06,1.06,0,0,0,.56.25A1.15,1.15,0,0,0,128,243Z"/><path class="cls-3" d="M130.3,244.33a.13.13,0,0,1,0-.12l.07-.57a.14.14,0,0,1,.07-.11.18.18,0,0,1,.13,0l.69.1.55-4-.69-.1a.14.14,0,0,1-.12-.06.15.15,0,0,1,0-.13l.08-.56a.14.14,0,0,1,.06-.12.15.15,0,0,1,.13,0l2.39.32a.16.16,0,0,1,.11.07.15.15,0,0,1,0,.13l-.07.56a.19.19,0,0,1-.07.12.15.15,0,0,1-.13,0l-.69-.09-.55,4,.69.1a.23.23,0,0,1,.12.06.15.15,0,0,1,0,.13l-.08.57a.13.13,0,0,1-.06.11.2.2,0,0,1-.13,0l-2.39-.33A.19.19,0,0,1,130.3,244.33Z"/><path class="cls-3" d="M134.15,244.86a.2.2,0,0,1,0-.13l.74-5.43a.26.26,0,0,1,.27-.21l.67.09a.29.29,0,0,1,.21.16l1.51,3.58.29.74.54-3.95a.19.19,0,0,1,.07-.12.15.15,0,0,1,.13,0l.59.08a.14.14,0,0,1,.11.07.16.16,0,0,1,0,.12l-.75,5.44a.24.24,0,0,1-.09.15.23.23,0,0,1-.18.05l-.67-.09a.27.27,0,0,1-.21-.15l-1.56-3.71-.24-.6-.54,3.94a.14.14,0,0,1-.06.12.19.19,0,0,1-.13,0l-.59-.08A.11.11,0,0,1,134.15,244.86Z"/><path class="cls-3" d="M141.09,245.81a.15.15,0,0,1,0-.13l.64-4.72-1.37-.18a.19.19,0,0,1-.12-.07.15.15,0,0,1,0-.13l.08-.61a.19.19,0,0,1,.07-.12.15.15,0,0,1,.13,0l3.74.51a.19.19,0,0,1,.12.07.17.17,0,0,1,0,.12l-.08.62a.14.14,0,0,1-.07.11.2.2,0,0,1-.13,0l-1.37-.19-.65,4.71a.14.14,0,0,1-.06.12.15.15,0,0,1-.13,0l-.65-.09A.17.17,0,0,1,141.09,245.81Z"/><path class="cls-3" d="M146.46,246.48a.32.32,0,0,1-.07-.25l.09-.65a2.51,2.51,0,0,1,.31-1,1.8,1.8,0,0,1,.62-.57c.26-.14.7-.34,1.31-.6a1.22,1.22,0,0,0,.48-.32.84.84,0,0,0,.2-.44.72.72,0,0,0-.15-.58.86.86,0,0,0-.59-.29,2,2,0,0,0-1.07.17h-.11a.16.16,0,0,1-.13-.11l-.21-.53a.25.25,0,0,1,0-.08.16.16,0,0,1,.09-.13,2.51,2.51,0,0,1,.79-.24,2.76,2.76,0,0,1,.86,0,1.79,1.79,0,0,1,1.22.61,1.8,1.8,0,0,1-.11,2.19,3.33,3.33,0,0,1-1,.67,2.83,2.83,0,0,1-.36.15,6.57,6.57,0,0,0-.59.29,1.1,1.1,0,0,0-.35.3.92.92,0,0,0-.19.45l0,.24,2.12.29a.14.14,0,0,1,.12.06.15.15,0,0,1,0,.13l-.08.61a.19.19,0,0,1-.07.11.14.14,0,0,1-.13,0l-2.73-.37A.33.33,0,0,1,146.46,246.48Z"/><path class="cls-3" d="M151.29,246.57a5.11,5.11,0,0,1,.62-4.51,1.75,1.75,0,0,1,1.64-.56,1.73,1.73,0,0,1,1.43,1,5.19,5.19,0,0,1-.61,4.52,2,2,0,0,1-3.08-.43Zm2.2-.08a1.3,1.3,0,0,0,.42-.62,5.3,5.3,0,0,0,.28-1.21,5.43,5.43,0,0,0,.06-1.22,1.29,1.29,0,0,0-.25-.71.85.85,0,0,0-.58-.29.82.82,0,0,0-.64.13,1.3,1.3,0,0,0-.42.62,5.4,5.4,0,0,0-.28,1.22,3.78,3.78,0,0,0,0,1.62.85.85,0,0,0,.74.59A.89.89,0,0,0,153.49,246.49Z"/><path class="cls-3" d="M155.79,247.76a.36.36,0,0,1-.07-.26l.09-.65a2.46,2.46,0,0,1,.31-1,1.62,1.62,0,0,1,.62-.57,14,14,0,0,1,1.31-.61,1.12,1.12,0,0,0,.48-.32.81.81,0,0,0,.2-.44.73.73,0,0,0-.15-.58.9.9,0,0,0-.59-.29,2.09,2.09,0,0,0-1.07.17.2.2,0,0,1-.11,0,.15.15,0,0,1-.13-.11l-.21-.53a.19.19,0,0,1,0-.08.18.18,0,0,1,.09-.13,2.51,2.51,0,0,1,.79-.24,2.76,2.76,0,0,1,.86,0,1.8,1.8,0,0,1,1.22.62,1.59,1.59,0,0,1,.3,1.27,1.57,1.57,0,0,1-.41.91,3.33,3.33,0,0,1-1,.68l-.36.15c-.25.11-.45.2-.59.28a1.43,1.43,0,0,0-.35.3.92.92,0,0,0-.19.45l0,.24,2.12.29a.23.23,0,0,1,.12.06.15.15,0,0,1,0,.13l-.08.61a.14.14,0,0,1-.07.11.18.18,0,0,1-.13,0l-2.73-.38A.36.36,0,0,1,155.79,247.76Z"/><path class="cls-3" d="M160,248.38a.28.28,0,0,1,0-.13l.08-.58a.19.19,0,0,1,.07-.12.18.18,0,0,1,.13,0l.92.13.5-3.64-.69-.09a.24.24,0,0,1-.16-.09.31.31,0,0,1-.05-.18l.06-.39,1.42-.51.31,0a.26.26,0,0,1,.21.27l-.64,4.72.92.12a.14.14,0,0,1,.11.07.2.2,0,0,1,0,.13l-.08.58a.14.14,0,0,1-.07.11.2.2,0,0,1-.13,0l-2.8-.38A.19.19,0,0,1,160,248.38Z"/><path class="cls-3" d="M64.66,226.2h.82c0,.14,0,.25,0,.37v.92c0,.31,0,.61,0,.91a.37.37,0,0,0,.13.31c.18.15.33.33.5.5a.52.52,0,0,0,.11.1,10.72,10.72,0,0,0,.05-1.54c0-.52,0-1,0-1.57h.82v4l.73.74h0a2.44,2.44,0,0,1,0-.27,1.94,1.94,0,0,1,0-.24s0,0,0-.07a8.11,8.11,0,0,1,0-1.1v-1.11c0-.24,0-.49,0-.73s0-.39,0-.59v-.51a.51.51,0,0,1,0-.09h.79v1.56c.39-.35.73-.73,1.11-1.09l.55.55a.53.53,0,0,1-.06.1L69,228.57l-.28.28a.26.26,0,0,0-.08.2c0,.28,0,.56,0,.84,0,0,0,.07,0,.14l2.23-2.21.56.56a2,2,0,0,1-.19.21l-.89.89-.85.83-.82.83a.22.22,0,0,0-.06.13v1c.13,0,.19-.14.27-.21s.27-.28.4-.41l.54-.53.87-.87c.29-.29.58-.59.88-.88L72,229l.06,0,.56.56c-.35.37-.72.7-1.07,1.09a6.54,6.54,0,0,0,.76,0h.76c0,.27,0,.53,0,.81H70.81a.23.23,0,0,0-.18.06l-.67.67a.1.1,0,0,0,0,.06c.53,0,1,0,1.56,0h1.57v.8H69.2a.26.26,0,0,0-.2.08c-.2.21-.41.42-.62.62l-.06.09,4.73,0v.45c0,.11,0,.22,0,.35-.51,0-1,0-1.51,0v0l1.06,1.08-.56.56-.19-.17-.67-.68-.69-.7a.35.35,0,0,0-.29-.13c-.29,0-.58,0-.86,0h-.08c.36.39.74.75,1.1,1.12l1.11,1.12-.57.56-.34-.33-.75-.75-1-1-.65-.65a.24.24,0,0,0-.18-.07H67s0,.06,0,.07l1,1c.26.27.52.54.79.8l.89.89.61.63-.56.56c-.38-.35-.72-.72-1.11-1.09V239c-.27,0-.53,0-.81,0,0-.15,0-.28,0-.42,0-.3,0-.6,0-.91v-1a.18.18,0,0,0,0-.11l-.72-.73h0V239a3.62,3.62,0,0,1-.82,0V237.9c0-.24,0-.49,0-.74v-1.07c0-.26,0-.53,0-.79a.39.39,0,0,0-.15-.38c-.19-.17-.36-.36-.54-.54a.52.52,0,0,1-.08-.11,1.12,1.12,0,0,0,0,.4v1.44c0,.18,0,.35,0,.53v.24c0,.32,0,.65,0,1V239h-.78c0-.5,0-1,0-1.53-.21.18-.37.36-.55.54l-.55.54L63,238l.18-.18L64,237l.54-.54a.28.28,0,0,0,.11-.23c0-.27,0-.54,0-.82,0,0,0-.07,0-.14-.4.37-.75.74-1.12,1.09l-1.09,1.1a7.54,7.54,0,0,1-.58-.55l.19-.21,1.26-1.26,1.09-1.07.2-.21a.21.21,0,0,0,.07-.17v-1a1,1,0,0,0-.29.24l-.88.89-1.09,1.08c-.28.27-.55.55-.82.83l-.3.28-.56-.57c.33-.37.7-.7,1-1.07-.5-.06-1,0-1.49,0v-.81h2.33a.13.13,0,0,0,.08,0l.64-.63a.44.44,0,0,1,.05-.09l-.2,0H60.25a4.39,4.39,0,0,1,0-.81h3.8a.26.26,0,0,0,.24-.09l.63-.63s0,0,0,0l-.1,0h-4.5l-.09,0v-.8h1.53a5.77,5.77,0,0,0-.53-.56l-.54-.55.58-.58.47.48,1.05,1.05,0,.05a.29.29,0,0,0,.25.12c.29,0,.57,0,.85,0l.06,0a.73.73,0,0,0,0-.09l-.73-.73-.62-.62-.61-.62-.16-.17.55-.56s.08,0,.1.06c.36.36.72.71,1.07,1.07l.77.79c.27.26.53.53.8.8a.24.24,0,0,0,.2.09h1l-.27-.3-.9-.91L64,228.23l-.89-.91c-.07-.07-.07-.09,0-.16l.5-.51,1.06,1.07h0Zm.79,5.23c0,.19,0,.36,0,.52a.31.31,0,0,1-.12.3c0,.05-.1.09-.14.14s-.18.13-.21.26l.41.41a.21.21,0,0,1,.07.16,2.72,2.72,0,0,0,0,.28c0,.1,0,.21,0,.32a4,4,0,0,0,.49,0,.41.41,0,0,1,.36.16c.1.11.22.22.34.33l.43-.42a.19.19,0,0,1,.16-.07h.43l.18,0v-.56a.2.2,0,0,1,.06-.19l.35-.36a.31.31,0,0,0,.07-.09c-.11-.11-.21-.23-.32-.32a.43.43,0,0,1-.16-.39v-.48h-.36c-.34,0-.34,0-.53-.18l-.06-.06-.26-.26s0,.05,0,.06-.22.23-.34.34a.26.26,0,0,1-.22.1h-.58Z"/><path class="cls-4" d="M66.66,233.71a1.33,1.33,0,0,1-.21-.19.31.31,0,0,0-.32-.12H65.9a.89.89,0,0,1,0-.15V233a.19.19,0,0,0-.07-.17l-.23-.25c.1-.09.17-.18.26-.26a.19.19,0,0,0,.06-.18c0-.1,0-.2,0-.32h.45l.31-.31a1.53,1.53,0,0,1,.18.18.33.33,0,0,0,.33.13l.26,0a.91.91,0,0,1,0,.17.48.48,0,0,0,.19.46,1.67,1.67,0,0,1,.12.13c-.07.07-.12.14-.18.19a.31.31,0,0,0-.12.34.62.62,0,0,1,0,.23,2.08,2.08,0,0,1-.25,0,.3.3,0,0,0-.29.11C66.82,233.57,66.74,233.63,66.66,233.71Z"/></g><g id="background"><g class="cls-5"><polygon class="cls-6" points="-63.05 54.49 83.84 26.75 6.15 61.88 -63.05 54.49"/><polygon class="cls-7" points="83.84 26.75 199.28 4.95 169.92 73.88 83.84 26.75"/><polygon class="cls-6" points="-7.54 69.68 17.01 128.83 -42.72 162.18 -7.54 69.68"/><polygon class="cls-7" points="-7.54 69.68 56.94 104.04 17.01 128.83 -7.54 69.68"/><polygon class="cls-8" points="-42.72 162.18 23.21 175.8 -4.18 212.67 -42.72 162.18"/><polygon class="cls-7" points="17.01 128.83 23.21 175.8 -42.72 162.18 17.01 128.83"/><polygon class="cls-6" points="-4.18 212.67 32.2 223.45 -22.29 270.36 -4.18 212.67"/><polygon class="cls-4" points="23.21 175.8 32.2 223.45 -4.18 212.67 23.21 175.8"/><polygon class="cls-7" points="32.2 223.45 60.85 254.66 -22.29 270.36 32.2 223.45"/><polygon class="cls-8" points="32.2 223.45 93.88 235.87 118.45 236.04 60.85 254.66 32.2 223.45"/><polygon class="cls-4" points="32.2 223.45 62.7 198.29 94.57 235.88 32.2 223.45"/><polygon class="cls-7" points="6.15 61.88 49.77 66.08 83.84 26.75 6.15 61.88"/><polygon class="cls-4" points="49.77 66.08 66.51 77.36 83.84 26.75 49.77 66.08"/><polygon class="cls-8" points="66.51 77.36 169.92 73.88 83.84 26.75 66.51 77.36"/><polygon class="cls-4" points="199.28 4.95 217.72 41.18 169.92 73.88 199.28 4.95"/><polygon class="cls-4" points="169.92 73.88 158.53 105.72 66.51 77.36 169.92 73.88"/><polygon class="cls-7" points="158.53 105.72 201.86 65.84 169.92 73.88 158.53 105.72"/><polygon class="cls-6" points="201.86 65.84 217.72 41.18 169.92 73.88 201.86 65.84"/><polygon class="cls-4" points="201.86 65.84 263.72 88.66 158.53 105.72 201.86 65.84"/><polygon class="cls-8" points="111.56 173.56 111.84 127.77 158.53 105.72 111.56 173.56"/><polygon class="cls-8" points="17.01 128.83 66.7 184.04 23.21 175.8 17.01 128.83"/><polygon class="cls-4" points="56.94 104.04 66.7 184.04 17.01 128.83 56.94 104.04"/><polygon class="cls-7" points="56.94 104.04 111.84 127.77 66.7 184.04 56.94 104.04"/><polygon class="cls-4" points="66.7 184.04 111.56 173.56 111.84 127.77 66.7 184.04"/><polygon class="cls-4" points="56.94 104.04 49.77 66.08 111.84 127.77 56.94 104.04"/><polygon class="cls-4" points="56.94 104.04 49.77 66.08 -63.05 54.49 -7.54 69.68 56.94 104.04"/><polygon class="cls-7" points="199.28 4.95 249.24 11.96 296.72 -13.45 199.28 4.95"/><polygon class="cls-7" points="158.53 105.72 202.83 193.81 111.56 173.56 158.53 105.72"/><polygon class="cls-7" points="62.7 198.29 111.56 173.56 94.57 235.88 62.7 198.29"/><polygon class="cls-6" points="62.7 198.29 66.7 184.04 111.56 173.56 62.7 198.29"/><polygon class="cls-7" points="23.21 175.8 32.2 223.45 62.7 198.29 66.7 184.04 23.21 175.8"/><polygon class="cls-4" points="111.56 173.56 118.45 236.04 94.57 235.88 111.56 173.56"/><polygon class="cls-6" points="111.56 173.56 192.67 215.61 118.45 236.04 111.56 173.56"/><polygon class="cls-6" points="158.53 105.72 231.26 155.37 202.83 193.81 158.53 105.72"/><polygon class="cls-7" points="263.72 88.66 231.26 155.37 158.53 105.72 263.72 88.66"/><polygon class="cls-7" points="231.26 155.37 264.31 174.45 234.38 207.33 202.83 193.81 231.26 155.37"/><polygon class="cls-4" points="202.83 193.81 192.67 215.61 111.56 173.56 202.83 193.81"/><polygon class="cls-7" points="60.85 254.66 195.68 229.19 118.45 236.04 60.85 254.66"/><polygon class="cls-4" points="192.67 215.61 191.37 230.01 118.45 236.04 192.67 215.61"/><polygon class="cls-8" points="191.37 230.01 234.38 207.33 202.83 193.81 192.67 215.61 191.37 230.01"/><polygon class="cls-4" points="191.37 230.01 234.38 207.33 337.49 202.41 191.37 230.01"/><polygon class="cls-8" points="234.38 207.33 307.5 174.04 337.49 202.41 234.38 207.33"/><polygon class="cls-4" points="264.31 174.45 234.38 207.33 307.5 174.04 264.31 174.45"/><polygon class="cls-7" points="264.31 174.45 295.2 156.13 307.5 174.04 264.31 174.45"/><polygon class="cls-7" points="263.72 88.66 314.21 79.13 307.5 174.04 295.2 156.13 263.72 88.66"/><polygon class="cls-8" points="201.86 65.84 248.75 58.99 263.72 88.66 201.86 65.84"/><polygon class="cls-4" points="248.75 58.99 314.21 79.13 263.72 88.66 248.75 58.99"/><polygon class="cls-6" points="-7.54 69.68 49.77 66.08 56.94 104.04 -7.54 69.68"/><polygon class="cls-7" points="248.75 58.99 247.07 28.82 314.21 79.13 248.75 58.99"/><polygon class="cls-4" points="247.07 28.82 296.72 -13.45 314.21 79.13 247.07 28.82"/><polygon class="cls-6" points="217.72 41.18 249.24 11.96 199.28 4.95 217.72 41.18"/><polygon class="cls-7" points="247.07 28.82 217.72 41.18 201.86 65.84 248.75 58.99 247.07 28.82"/><polygon class="cls-8" points="231.26 155.37 295.2 156.13 264.31 174.45 231.26 155.37"/><polygon class="cls-4" points="231.26 155.37 263.72 88.66 295.2 156.13 231.26 155.37"/><polygon class="cls-6" points="217.72 41.18 249.24 11.96 296.72 -13.45 247.07 28.82 217.72 41.18"/><polygon class="cls-6" points="49.77 66.08 66.51 77.36 158.53 105.72 111.84 127.77 49.77 66.08"/></g></g><g id="words"><g class="cls-5"><path d="M60.44,112.53a.48.48,0,0,1-.19-.29l-1.43-7.62a.39.39,0,0,1,.07-.33.42.42,0,0,1,.28-.19l4-.76a.17.17,0,0,1,.14,0,.21.21,0,0,1,.07.11l.11.6a.15.15,0,0,1,0,.13.14.14,0,0,1-.11.07l-3.46.66.5,2.61,2.64-.5a.15.15,0,0,1,.13,0,.16.16,0,0,1,.07.11l.11.58a.15.15,0,0,1,0,.13.14.14,0,0,1-.11.07l-2.64.5.58,3.08,3.46-.65a.15.15,0,0,1,.13,0,.16.16,0,0,1,.07.11l.12.6a.14.14,0,0,1,0,.13.18.18,0,0,1-.11.08l-4,.76A.5.5,0,0,1,60.44,112.53Z"/><path d="M68.93,111a.23.23,0,0,1-.12-.1l-4-7.59a.22.22,0,0,1,0-.08.24.24,0,0,1,0-.14.22.22,0,0,1,.14-.08l.59-.11a.3.3,0,0,1,.16,0,.18.18,0,0,1,.11.1l3.47,6.66.8-7.47a.24.24,0,0,1,.07-.13.27.27,0,0,1,.14-.07l.59-.11a.16.16,0,0,1,.18,0,.18.18,0,0,1,.06.18l-1,8.54a.2.2,0,0,1-.06.14.37.37,0,0,1-.14.07l-.8.15A.26.26,0,0,1,68.93,111Z"/><path d="M74.4,109.89a.39.39,0,0,1-.19-.29L72.77,102a.46.46,0,0,1,.07-.34.43.43,0,0,1,.29-.18l4-.76a.19.19,0,0,1,.13,0,.19.19,0,0,1,.07.12l.12.59a.17.17,0,0,1,0,.14.16.16,0,0,1-.11.07l-3.46.65.49,2.62,2.64-.5a.18.18,0,0,1,.13,0,.2.2,0,0,1,.08.12l.1.57a.19.19,0,0,1,0,.13.15.15,0,0,1-.11.07l-2.64.5.58,3.08,3.46-.65a.16.16,0,0,1,.13,0,.14.14,0,0,1,.07.11l.11.6a.19.19,0,0,1,0,.13.19.19,0,0,1-.12.07l-4,.76A.43.43,0,0,1,74.4,109.89Z"/><path d="M80.74,108.77a.15.15,0,0,1-.08-.11l-1.52-8.06a.27.27,0,0,1,0-.2.28.28,0,0,1,.17-.11l.72-.13a.41.41,0,0,1,.19,0,.36.36,0,0,1,.16.11l5.13,6-1.27-6.74a.14.14,0,0,1,0-.13.15.15,0,0,1,.11-.08l.61-.11a.19.19,0,0,1,.13,0,.15.15,0,0,1,.07.12l1.53,8.06a.27.27,0,0,1,0,.2.28.28,0,0,1-.17.11l-.73.14a.45.45,0,0,1-.2,0,.31.31,0,0,1-.15-.1l-5.13-6,1.28,6.73a.14.14,0,0,1,0,.13.18.18,0,0,1-.11.08l-.61.11A.14.14,0,0,1,80.74,108.77Z"/><path class="cls-9" d="M57.89,132.9a.9.9,0,0,1-.39-.61l-2.58-13.64a.92.92,0,0,1,.76-1.11l3.83-.73a4.53,4.53,0,0,1,4.24,1.44,4.2,4.2,0,0,1,1,2.07,3.53,3.53,0,0,1-.83,3,3.67,3.67,0,0,1,2,1.1,4.29,4.29,0,0,1,1,2.15,4.64,4.64,0,0,1-.19,2.51,4.8,4.8,0,0,1-3.67,3.12l-4.49.85A.9.9,0,0,1,57.89,132.9Zm2.61-9.78a2.08,2.08,0,0,0,1.32-.83,1.86,1.86,0,0,0-.51-2.69,2,2,0,0,0-1.53-.3l-2,.37.72,3.82Zm2,6.63a2.27,2.27,0,0,0,1.49-.94,2.25,2.25,0,0,0,.32-1.74,2.1,2.1,0,0,0-.94-1.43,2.24,2.24,0,0,0-1.71-.32l-2.71.51.84,4.43Z"/><path class="cls-9" d="M69.73,130.81a.44.44,0,0,1-.19-.3l-.29-1.5a.45.45,0,0,1,.37-.54l1.85-.35-2-10.69-1.85.35a.45.45,0,0,1-.54-.37l-.28-1.5a.45.45,0,0,1,.37-.54l6.33-1.2a.47.47,0,0,1,.35.07.41.41,0,0,1,.19.3l.29,1.5a.47.47,0,0,1-.07.35.44.44,0,0,1-.3.19l-1.85.35,2,10.69,1.85-.34a.43.43,0,0,1,.35.06.48.48,0,0,1,.19.31l.28,1.49a.43.43,0,0,1-.07.35.41.41,0,0,1-.3.19l-6.33,1.2A.47.47,0,0,1,69.73,130.81Z"/><path class="cls-9" d="M80.06,128.71a.89.89,0,0,1-.4-.61L77,114a.44.44,0,0,1,.07-.35.48.48,0,0,1,.3-.19l1.73-.33a.47.47,0,0,1,.35.07.44.44,0,0,1,.19.3L82,126l5-1a.43.43,0,0,1,.35.07.44.44,0,0,1,.19.3l.31,1.62a.5.5,0,0,1-.07.36.48.48,0,0,1-.3.19l-6.75,1.27A.89.89,0,0,1,80.06,128.71Z"/><path class="cls-9" d="M90.58,126.73a.91.91,0,0,1-.4-.61L87.52,112a.43.43,0,0,1,.07-.35.45.45,0,0,1,.3-.2l1.73-.32a.39.39,0,0,1,.35.07.44.44,0,0,1,.19.3L92.53,124l5-1a.47.47,0,0,1,.35.07.44.44,0,0,1,.19.3l.31,1.63a.45.45,0,0,1-.37.54l-6.75,1.27A.93.93,0,0,1,90.58,126.73Z"/><path class="cls-9" d="M100.53,125a.44.44,0,0,1-.19-.3l-.28-1.49a.44.44,0,0,1,.37-.54l1.84-.35-2-10.7-1.84.35a.43.43,0,0,1-.35-.07.45.45,0,0,1-.2-.3l-.28-1.49a.47.47,0,0,1,.07-.35.45.45,0,0,1,.3-.2l6.33-1.19a.46.46,0,0,1,.36.07.48.48,0,0,1,.19.3l.28,1.49a.47.47,0,0,1-.07.35.45.45,0,0,1-.3.2l-1.84.34,2,10.7,1.85-.35a.47.47,0,0,1,.35.07.44.44,0,0,1,.19.3l.28,1.5a.44.44,0,0,1-.07.35.48.48,0,0,1-.3.19l-6.33,1.19A.43.43,0,0,1,100.53,125Z"/><path class="cls-9" d="M112.61,122.34a5.84,5.84,0,0,1-2.49-1.68,5.71,5.71,0,0,1-1.31-2.73l-.87-4.62a5.63,5.63,0,0,1,.23-3,5.86,5.86,0,0,1,7.47-3.57,5.89,5.89,0,0,1,2.48,1.69,5.58,5.58,0,0,1,1.31,2.73l.88,4.62a5.73,5.73,0,0,1-.23,3,5.88,5.88,0,0,1-1.7,2.47,5.86,5.86,0,0,1-5.77,1.09Zm4-3a3.36,3.36,0,0,0,.92-1.39,3.13,3.13,0,0,0,.12-1.66l-.87-4.62a3.26,3.26,0,0,0-.72-1.51,3.3,3.3,0,0,0-1.36-.95,3,3,0,0,0-1.63-.15,3,3,0,0,0-1.45.73,3.23,3.23,0,0,0-.92,1.38,3.27,3.27,0,0,0-.13,1.67l.88,4.62a3.09,3.09,0,0,0,.72,1.5,3.26,3.26,0,0,0,1.36,1,3,3,0,0,0,3.08-.58Z"/><path class="cls-9" d="M124.5,120.47a.44.44,0,0,1-.19-.3l-2.73-14.43a.63.63,0,0,1,.1-.48.63.63,0,0,1,.41-.26l1.78-.34a.68.68,0,0,1,.65.21l6.87,7.83,1.38,1.62-2-10.5a.45.45,0,0,1,.37-.54l1.56-.29a.43.43,0,0,1,.35.07.41.41,0,0,1,.19.3L136,117.78a.62.62,0,0,1-.1.48.61.61,0,0,1-.41.27l-1.8.34a.68.68,0,0,1-.65-.22l-7.1-8.09-1.12-1.32,2,10.46a.4.4,0,0,1-.07.36.43.43,0,0,1-.3.18l-1.56.3A.47.47,0,0,1,124.5,120.47Z"/><path d="M90.78,106.91a.21.21,0,0,1,0-.18l1.09-8.26a.2.2,0,0,1,.06-.13.28.28,0,0,1,.13-.07l.78-.14a.22.22,0,0,1,.14,0,.18.18,0,0,1,.11.1l4,7.3a.22.22,0,0,1,0,.08.16.16,0,0,1,0,.13.2.2,0,0,1-.13.08l-.57.11a.26.26,0,0,1-.15,0,.24.24,0,0,1-.11-.09l-1-1.93-3.07.58-.27,2.17a.16.16,0,0,1-.06.13.31.31,0,0,1-.14.07L91,107A.18.18,0,0,1,90.78,106.91Zm3.85-3.82-2-3.67-.52,4.15Z"/><path class="cls-9" d="M72.12,148.14a.75.75,0,0,1-.33-.51l-2.17-11.45a.76.76,0,0,1,.13-.6.75.75,0,0,1,.51-.33l3.57-.67a5,5,0,0,1,2.67.19,5.09,5.09,0,0,1,2.16,1.5,5.17,5.17,0,0,1,1.15,2.44l.54,2.86a5.2,5.2,0,0,1-.18,2.69,5,5,0,0,1-3.89,3.33l-3.56.68A.75.75,0,0,1,72.12,148.14Zm3.67-2.66a2.88,2.88,0,0,0,1.37-.66,3,3,0,0,0,.86-1.26,2.86,2.86,0,0,0,.12-1.54l-.56-3a2.8,2.8,0,0,0-.67-1.37,3,3,0,0,0-1.25-.86,2.9,2.9,0,0,0-1.52-.11l-2,.38,1.65,8.76Z"/><path class="cls-9" d="M86,145.33a4.92,4.92,0,0,1-2.09-1.41,4.81,4.81,0,0,1-1.1-2.29l-.73-3.88a4.72,4.72,0,0,1,.19-2.53,4.84,4.84,0,0,1,1.43-2.08,4.94,4.94,0,0,1,4.84-.91,4.88,4.88,0,0,1,3.19,3.7l.73,3.88a4.86,4.86,0,0,1-1.62,4.61,4.75,4.75,0,0,1-2.3,1.1A4.67,4.67,0,0,1,86,145.33Zm3.36-2.54a2.73,2.73,0,0,0,.77-1.17,2.63,2.63,0,0,0,.11-1.39l-.73-3.88a2.78,2.78,0,0,0-1.75-2.06,2.44,2.44,0,0,0-1.36-.12,2.54,2.54,0,0,0-1.23.6,2.82,2.82,0,0,0-.77,1.17,2.63,2.63,0,0,0-.1,1.39l.73,3.88a2.65,2.65,0,0,0,.61,1.26,2.61,2.61,0,0,0,1.14.8,2.44,2.44,0,0,0,1.36.12A2.46,2.46,0,0,0,89.36,142.79Z"/><path class="cls-9" d="M96.07,143.62a.75.75,0,0,1-.33-.51L93.5,131.26a.36.36,0,0,1,.06-.29.41.41,0,0,1,.25-.17l1.46-.27a.36.36,0,0,1,.29.06.36.36,0,0,1,.16.25l2,10.5,4.22-.8a.36.36,0,0,1,.29.06.38.38,0,0,1,.16.25l.26,1.37a.36.36,0,0,1-.06.29.36.36,0,0,1-.25.16l-5.66,1.07A.79.79,0,0,1,96.07,143.62Z"/><path class="cls-9" d="M104.9,142a.75.75,0,0,1-.33-.51l-2.24-11.85a.37.37,0,0,1,.06-.29.36.36,0,0,1,.25-.16l1.46-.28a.38.38,0,0,1,.29.06.36.36,0,0,1,.16.25l2,10.5,4.23-.79a.38.38,0,0,1,.29.06.34.34,0,0,1,.16.25l.26,1.36a.39.39,0,0,1-.31.46l-5.66,1.07A.75.75,0,0,1,104.9,142Z"/><path class="cls-9" d="M113.32,140.48a.41.41,0,0,1-.18-.28.27.27,0,0,1,0-.15l1.65-12.88a.63.63,0,0,1,.16-.34.59.59,0,0,1,.33-.17l1.42-.27a.62.62,0,0,1,.38,0,.57.57,0,0,1,.26.25l6.24,11.4a.38.38,0,0,1,.05.14.4.4,0,0,1-.07.32.43.43,0,0,1-.29.18L122,139a.62.62,0,0,1-.38-.05.65.65,0,0,1-.26-.26L120,136.19l-4.26.81-.32,2.77a.56.56,0,0,1-.15.34.61.61,0,0,1-.33.19l-1.28.24A.47.47,0,0,1,113.32,140.48Zm5.65-6.23-2.41-4.57-.58,5.14Z"/><path class="cls-9" d="M125.86,138.12a.38.38,0,0,1-.16-.26L123.46,126a.8.8,0,0,1,.64-.93l3.4-.65a4.16,4.16,0,0,1,3.89,1.31,3.91,3.91,0,0,1,.92,1.88,3.85,3.85,0,0,1-.34,2.48,4,4,0,0,1-1.78,1.8L134.1,136a.55.55,0,0,1,.12.24.34.34,0,0,1-.07.29.45.45,0,0,1-.28.17l-1.49.28a.53.53,0,0,1-.52-.17l-3.94-4.28-.89.16.89,4.74a.37.37,0,0,1-.06.29.34.34,0,0,1-.25.16l-1.46.28A.38.38,0,0,1,125.86,138.12Zm2.63-7.85a2,2,0,0,0,1.28-.78,1.8,1.8,0,0,0,.28-1.42,1.82,1.82,0,0,0-.79-1.25,1.89,1.89,0,0,0-1.47-.26l-1.86.35.7,3.71Z"/><path class="cls-9" d="M137.83,135.87a7.57,7.57,0,0,1-1.94-.55.3.3,0,0,1-.16-.17.32.32,0,0,1,0-.25l.42-1.26a.37.37,0,0,1,.3-.29.57.57,0,0,1,.29,0,4.93,4.93,0,0,0,2.71.38,2.32,2.32,0,0,0,1.43-.75,1.56,1.56,0,0,0,.33-1.32,1.34,1.34,0,0,0-.43-.78,2.3,2.3,0,0,0-.84-.43q-.49-.15-1.44-.33l-.57-.12a6.89,6.89,0,0,1-2.33-1,3.21,3.21,0,0,1-1.3-2.24,3.85,3.85,0,0,1,.13-2.06,3.46,3.46,0,0,1,1.14-1.59,4.38,4.38,0,0,1,2-.86,6.18,6.18,0,0,1,2,0,6.48,6.48,0,0,1,1.89.56.3.3,0,0,1,.16.17.28.28,0,0,1,0,.25l-.38,1.26a.37.37,0,0,1-.31.28.54.54,0,0,1-.28,0,5.87,5.87,0,0,0-1.48-.4,4.29,4.29,0,0,0-1.2,0,1.81,1.81,0,0,0-1.2.69,1.62,1.62,0,0,0,.48,2.3A5.87,5.87,0,0,0,139,128c.12,0,.56.1,1.34.26a4,4,0,0,1,2,1,3.37,3.37,0,0,1,1,1.9,3.84,3.84,0,0,1-.16,2.11,3.74,3.74,0,0,1-1.24,1.66,4.91,4.91,0,0,1-2.13.91A6.38,6.38,0,0,1,137.83,135.87Z"/><path d="M81.69,159.31a3.4,3.4,0,0,1-2.24-2.58l-.6-3.21a3.29,3.29,0,0,1,.13-1.76,3.51,3.51,0,0,1,1-1.46,3.37,3.37,0,0,1,1.6-.77,3.47,3.47,0,0,1,1.78.13,3.51,3.51,0,0,1,1.46,1,3.29,3.29,0,0,1,.77,1.59l.6,3.2a3.32,3.32,0,0,1-.13,1.77,3.51,3.51,0,0,1-1,1.46,3.42,3.42,0,0,1-1.6.77A3.32,3.32,0,0,1,81.69,159.31Zm2.63-1.45a2.5,2.5,0,0,0,.66-1,2.41,2.41,0,0,0,.09-1.19l-.61-3.21a2.36,2.36,0,0,0-.52-1.08,2.4,2.4,0,0,0-1-.69,2.19,2.19,0,0,0-1.19-.1,2.1,2.1,0,0,0-1.06.53,2.43,2.43,0,0,0-.66,1,2.3,2.3,0,0,0-.08,1.19l.6,3.2a2.38,2.38,0,0,0,1.5,1.77,2.16,2.16,0,0,0,2.24-.42Z"/><path d="M89.11,158.14A.17.17,0,0,1,89,158l-1.68-8.87a.5.5,0,0,1,.08-.38.54.54,0,0,1,.32-.21l4.53-.86a.21.21,0,0,1,.15,0,.22.22,0,0,1,.08.13l.13.67a.19.19,0,0,1,0,.15.18.18,0,0,1-.13.08l-3.89.74.6,3.22,3-.56a.17.17,0,0,1,.14,0,.22.22,0,0,1,.09.12l.12.65a.21.21,0,0,1,0,.15.2.2,0,0,1-.13.08l-3,.56.77,4.06a.21.21,0,0,1,0,.15A.22.22,0,0,1,90,158l-.74.14A.19.19,0,0,1,89.11,158.14Z"/><path d="M100.56,155.93a3.41,3.41,0,0,1-1.43-1,3.45,3.45,0,0,1-.76-1.6l-.61-3.22a3.47,3.47,0,0,1,1.09-3.21,3.17,3.17,0,0,1,1.57-.76,3.53,3.53,0,0,1,1.41,0,3.38,3.38,0,0,1,1.25.53.21.21,0,0,1,.1.15.31.31,0,0,1,0,.19c-.16.26-.25.42-.3.49a.32.32,0,0,1-.18.1.24.24,0,0,1-.22-.06,2.44,2.44,0,0,0-1.82-.34,2,2,0,0,0-1,.53,2.32,2.32,0,0,0-.62,1,2.29,2.29,0,0,0-.07,1.19l.6,3.22a2.45,2.45,0,0,0,.51,1.08,2.4,2.4,0,0,0,.94.7,2.14,2.14,0,0,0,1.15.11,2.4,2.4,0,0,0,1.56-1,.35.35,0,0,1,.19-.14.39.39,0,0,1,.21,0l.45.35a.25.25,0,0,1,.06.34,3.38,3.38,0,0,1-1,.95,3.64,3.64,0,0,1-1.32.51A3.28,3.28,0,0,1,100.56,155.93Z"/><path d="M106.18,155.06a.25.25,0,0,1-.06-.21l1.27-9.65a.37.37,0,0,1,.08-.15.34.34,0,0,1,.15-.07l.91-.18a.35.35,0,0,1,.17,0,.26.26,0,0,1,.12.11l4.7,8.52a.2.2,0,0,1,0,.25.19.19,0,0,1-.14.09l-.68.13a.35.35,0,0,1-.17,0,.22.22,0,0,1-.12-.11l-1.23-2.25-3.57.68-.32,2.54a.17.17,0,0,1-.07.14.27.27,0,0,1-.16.08l-.67.13A.22.22,0,0,1,106.18,155.06Zm4.5-4.46-2.33-4.28-.62,4.83Z"/><path d="M115.36,153.36a.2.2,0,0,1-.08-.13l-1.68-8.87a.51.51,0,0,1,.08-.38.54.54,0,0,1,.32-.21l2.31-.44a3.06,3.06,0,0,1,1.59.12,3,3,0,0,1,1.29.87,2.83,2.83,0,0,1,.68,1.41,2.76,2.76,0,0,1-.12,1.56,3.07,3.07,0,0,1-2.32,2l-1.68.32.66,3.45a.21.21,0,0,1,0,.15.2.2,0,0,1-.13.08l-.74.14A.19.19,0,0,1,115.36,153.36Zm1.8-5.16a1.91,1.91,0,0,0,.92-.43,1.92,1.92,0,0,0,.2-2.73,1.86,1.86,0,0,0-.82-.56,1.83,1.83,0,0,0-1-.07l-1.61.3.71,3.8Z"/><path d="M122.4,152a.2.2,0,0,1-.08-.13l-.12-.64a.19.19,0,0,1,0-.15.17.17,0,0,1,.13-.08l1.39-.27-1.42-7.49-1.39.26a.19.19,0,0,1-.23-.16l-.12-.64a.19.19,0,0,1,0-.15.16.16,0,0,1,.12-.08l3.91-.74a.19.19,0,0,1,.15,0,.2.2,0,0,1,.08.13l.12.64a.19.19,0,0,1,0,.15.2.2,0,0,1-.12.08l-1.39.26,1.41,7.5,1.39-.26a.19.19,0,0,1,.15,0,.2.2,0,0,1,.08.13l.12.64a.24.24,0,0,1,0,.15.22.22,0,0,1-.13.08l-3.91.74A.21.21,0,0,1,122.4,152Z"/><path d="M130.77,150.45a.17.17,0,0,1-.08-.13L129.12,142l-2.38.45a.19.19,0,0,1-.15,0,.2.2,0,0,1-.08-.12l-.13-.68a.21.21,0,0,1,0-.15.2.2,0,0,1,.13-.08l5.88-1.11a.19.19,0,0,1,.15,0,.17.17,0,0,1,.08.13l.13.67a.19.19,0,0,1,0,.15.2.2,0,0,1-.13.08l-2.38.45,1.57,8.31a.21.21,0,0,1,0,.15.17.17,0,0,1-.12.08l-.75.14A.17.17,0,0,1,130.77,150.45Z"/><path d="M134.63,149.68a.23.23,0,0,1-.06-.2l1.27-9.65a.29.29,0,0,1,.23-.23l.91-.17a.35.35,0,0,1,.17,0,.25.25,0,0,1,.12.11l4.7,8.52s0,0,0,.09a.18.18,0,0,1,0,.16.2.2,0,0,1-.15.09l-.67.13a.33.33,0,0,1-.17,0,.28.28,0,0,1-.13-.11l-1.22-2.25-3.57.67-.32,2.54a.19.19,0,0,1-.08.15.31.31,0,0,1-.15.08l-.68.13A.21.21,0,0,1,134.63,149.68Zm4.5-4.46L136.79,141l-.61,4.83Z"/><path d="M143.88,147.88a.47.47,0,0,1-.21-.32L142,138.68a.17.17,0,0,1,0-.14.18.18,0,0,1,.13-.08l.74-.15a.19.19,0,0,1,.15,0,.22.22,0,0,1,.08.13l1.57,8.31,3.48-.66a.19.19,0,0,1,.15,0,.2.2,0,0,1,.08.13l.13.67a.19.19,0,0,1,0,.15.2.2,0,0,1-.13.08l-4.11.78A.46.46,0,0,1,143.88,147.88Z"/><path d="M84.62,175.72a5,5,0,0,1-2.15-1.49,5.17,5.17,0,0,1-1.15-2.4l-.76-4.06a5.1,5.1,0,0,1,.19-2.66,5.17,5.17,0,0,1,1.45-2.17,4.93,4.93,0,0,1,2.35-1.14,5.5,5.5,0,0,1,2.25,0,4.75,4.75,0,0,1,2,.92.52.52,0,0,1,.18.31.64.64,0,0,1-.08.41l-.68,1a.44.44,0,0,1-.27.21.46.46,0,0,1-.38-.1A3.05,3.05,0,0,0,85,164a2.45,2.45,0,0,0-1.24.63,2.94,2.94,0,0,0-.87,2.67l.77,4.06a2.71,2.71,0,0,0,.63,1.32,2.82,2.82,0,0,0,1.15.85,2.42,2.42,0,0,0,1.38.14A3.09,3.09,0,0,0,89,172.24a.45.45,0,0,1,.29-.23.48.48,0,0,1,.35.09l1,.72a.56.56,0,0,1,.24.35.51.51,0,0,1-.06.33,5.11,5.11,0,0,1-1.49,1.58,5.57,5.57,0,0,1-2.1.85A4.76,4.76,0,0,1,84.62,175.72Z"/><path d="M93,174.45a.43.43,0,0,1-.2-.29,1,1,0,0,1,0-.16l1.74-13.5a.6.6,0,0,1,.16-.34.67.67,0,0,1,.35-.19l1.49-.28a.64.64,0,0,1,.39,0,.57.57,0,0,1,.28.27l6.54,11.94a.37.37,0,0,1,0,.15.45.45,0,0,1-.07.34.47.47,0,0,1-.3.18l-1.38.26a.58.58,0,0,1-.39-.05.63.63,0,0,1-.28-.28L100,170l-4.46.84-.34,2.91a.73.73,0,0,1-.16.36.64.64,0,0,1-.35.19l-1.33.25A.42.42,0,0,1,93,174.45Zm5.92-6.52-2.53-4.8-.6,5.39Z"/><path d="M106.16,172a.39.39,0,0,1-.17-.27L103.6,159a.57.57,0,0,1,.08-.42.56.56,0,0,1,.36-.24l1.57-.29a.61.61,0,0,1,.57.19l6,6.88,1.21,1.43-1.74-9.23a.41.41,0,0,1,.06-.31.39.39,0,0,1,.27-.17l1.37-.26a.42.42,0,0,1,.31.06.43.43,0,0,1,.17.26l2.39,12.69a.53.53,0,0,1-.09.42.51.51,0,0,1-.36.23l-1.58.3a.59.59,0,0,1-.57-.19l-6.24-7.11-1-1.16,1.73,9.19a.38.38,0,0,1,0,.32.47.47,0,0,1-.27.16l-1.37.26A.41.41,0,0,1,106.16,172Z"/><path d="M119.49,169.46a.39.39,0,0,1-.17-.26l-2.39-12.69a.53.53,0,0,1,.09-.42.5.5,0,0,1,.36-.23l1.56-.3a.61.61,0,0,1,.57.19l6,6.88,1.22,1.43L125,154.83a.41.41,0,0,1,.06-.31.39.39,0,0,1,.27-.17l1.37-.26a.42.42,0,0,1,.31.06.42.42,0,0,1,.17.27l2.39,12.68a.53.53,0,0,1-.09.42.56.56,0,0,1-.36.24l-1.58.3a.62.62,0,0,1-.57-.19l-6.24-7.12-1-1.16,1.74,9.2a.4.4,0,0,1-.06.31.42.42,0,0,1-.27.16l-1.37.26A.41.41,0,0,1,119.49,169.46Z"/><path d="M134.93,166.22a5.13,5.13,0,0,1-2.18-1.49,5,5,0,0,1-1.16-2.39l-.76-4.07a4.87,4.87,0,0,1,.2-2.65,5,5,0,0,1,1.49-2.18,5.15,5.15,0,0,1,7.26.53,4.9,4.9,0,0,1,1.15,2.39l.77,4.07a5,5,0,0,1-.2,2.65,5,5,0,0,1-1.49,2.18,5.17,5.17,0,0,1-5.08,1Zm3.53-2.67a3,3,0,0,0,.81-1.22,2.9,2.9,0,0,0,.11-1.46l-.77-4.07a2.91,2.91,0,0,0-.64-1.32,3,3,0,0,0-1.19-.84,2.69,2.69,0,0,0-1.43-.12,2.62,2.62,0,0,0-1.28.63,3,3,0,0,0-.81,1.22,2.9,2.9,0,0,0-.11,1.46l.77,4.07a2.81,2.81,0,0,0,.64,1.32,2.94,2.94,0,0,0,1.19.84,2.68,2.68,0,0,0,1.43.13A2.73,2.73,0,0,0,138.46,163.55Z"/><path d="M147.79,164.12a.41.41,0,0,1-.17-.27l-2.08-11-3.2.6a.38.38,0,0,1-.31-.06.43.43,0,0,1-.17-.26l-.27-1.43a.4.4,0,0,1,.33-.48l8.73-1.65a.41.41,0,0,1,.31.06.39.39,0,0,1,.17.27l.27,1.43a.43.43,0,0,1-.06.31.38.38,0,0,1-.27.16l-3.2.61,2.08,11a.41.41,0,0,1-.06.31.39.39,0,0,1-.27.17l-1.52.29A.41.41,0,0,1,147.79,164.12Z"/><path d="M92.46,185a2.37,2.37,0,0,1-1.53-1.8l-.35-1.89a2.44,2.44,0,0,1,.08-1.23,2.38,2.38,0,0,1,.68-1,2.19,2.19,0,0,1,1.09-.53,2.43,2.43,0,0,1,1,0,2.07,2.07,0,0,1,.91.43.22.22,0,0,1,.08.14.29.29,0,0,1,0,.19l-.31.48a.22.22,0,0,1-.13.09.18.18,0,0,1-.17,0,1.45,1.45,0,0,0-1.18-.26,1.11,1.11,0,0,0-.57.29,1.5,1.5,0,0,0-.36.56,1.31,1.31,0,0,0,0,.68L92,183a1.38,1.38,0,0,0,.29.61,1.29,1.29,0,0,0,.54.39,1.08,1.08,0,0,0,.64.06,1.42,1.42,0,0,0,1-.67.2.2,0,0,1,.13-.11.24.24,0,0,1,.16,0l.47.34a.23.23,0,0,1,.11.16.26.26,0,0,1,0,.15,2.35,2.35,0,0,1-.7.74,2.61,2.61,0,0,1-1,.39A2.14,2.14,0,0,1,92.46,185Z"/><path d="M97.53,184a2.35,2.35,0,0,1-1-.68,2.31,2.31,0,0,1-.54-1.11l-.35-1.89a2.36,2.36,0,0,1,.78-2.24,2.3,2.3,0,0,1,1.12-.54,2.23,2.23,0,0,1,1.23.1,2.45,2.45,0,0,1,1,.68,2.29,2.29,0,0,1,.53,1.12l.36,1.88a2.34,2.34,0,0,1-.09,1.23,2.37,2.37,0,0,1-.7,1,2.31,2.31,0,0,1-1.11.54A2.27,2.27,0,0,1,97.53,184Zm1.64-1.23a1.44,1.44,0,0,0,.37-.57,1.31,1.31,0,0,0,0-.68l-.36-1.88a1.28,1.28,0,0,0-.29-.61,1.32,1.32,0,0,0-.55-.39,1.25,1.25,0,0,0-.66-.06,1.21,1.21,0,0,0-.6.29,1.34,1.34,0,0,0-.37.57,1.21,1.21,0,0,0-.05.68l.35,1.88a1.24,1.24,0,0,0,.29.61,1.36,1.36,0,0,0,.56.39,1.24,1.24,0,0,0,1.26-.23Z"/><path d="M105.13,182.82a.27.27,0,0,1-.13-.13l-1.85-3.35-.37-.75.07.84.28,3.54a.27.27,0,0,1-.06.17.24.24,0,0,1-.15.09l-.66.13a.24.24,0,0,1-.17,0,.26.26,0,0,1-.07-.16l-.37-6a.27.27,0,0,1,.25-.32l.8-.15a.26.26,0,0,1,.31.15l2.1,3.83.29.57.07-.63.56-4.35a.26.26,0,0,1,.07-.16.34.34,0,0,1,.17-.08l.73-.14a.28.28,0,0,1,.22,0,.27.27,0,0,1,.13.18l1.84,5.72a.2.2,0,0,1,0,.17.19.19,0,0,1-.14.09l-.69.13a.27.27,0,0,1-.18,0,.22.22,0,0,1-.11-.14L107,178.58l-.24-.74-.07.87-.47,3.75a.35.35,0,0,1-.08.16.24.24,0,0,1-.16.09l-.67.13A.35.35,0,0,1,105.13,182.82Z"/><path d="M110.49,181.75a.2.2,0,0,1-.08-.12l-1.09-5.76a.37.37,0,0,1,.06-.29.36.36,0,0,1,.25-.16l1.58-.3a2.1,2.1,0,0,1,2,.68,2.05,2.05,0,0,1,.47,1,1.94,1.94,0,0,1-.09,1.07A2.1,2.1,0,0,1,112,179.2l-.88.16.39,2.06a.2.2,0,0,1,0,.15.19.19,0,0,1-.12.07l-.71.14A.17.17,0,0,1,110.49,181.75Zm1.25-3.56a1,1,0,0,0,.67-.44,1,1,0,0,0,.16-.78,1,1,0,0,0-1.22-.82l-.83.15.39,2Z"/><path d="M115.65,180.72a.39.39,0,0,1-.17-.25l-1-5.57a.38.38,0,0,1,.06-.29.42.42,0,0,1,.25-.16l3-.57a.17.17,0,0,1,.14,0,.2.2,0,0,1,.08.12l.12.67a.22.22,0,0,1,0,.14.2.2,0,0,1-.13.08l-2.31.44.28,1.5,1.73-.33a.18.18,0,0,1,.14,0,.2.2,0,0,1,.08.12l.11.63a.22.22,0,0,1,0,.14.17.17,0,0,1-.13.08l-1.72.33.33,1.75,2.32-.44a.17.17,0,0,1,.14,0,.2.2,0,0,1,.08.12l.12.67a.17.17,0,0,1,0,.14.15.15,0,0,1-.12.08l-3,.57A.36.36,0,0,1,115.65,180.72Z"/><path d="M121.78,179.62a.2.2,0,0,1-.08-.13l-1-5.1-1.49.28a.19.19,0,0,1-.22-.15l-.12-.66a.17.17,0,0,1,0-.14.14.14,0,0,1,.12-.08l4-.77a.17.17,0,0,1,.14,0,.2.2,0,0,1,.08.12l.12.67a.22.22,0,0,1,0,.14.2.2,0,0,1-.13.08l-1.48.28,1,5.1a.17.17,0,0,1,0,.14.15.15,0,0,1-.12.08l-.71.14A.17.17,0,0,1,121.78,179.62Z"/><path d="M125.63,178.83a.36.36,0,0,1-.16-.25l-1-5.56a.37.37,0,0,1,.06-.29.36.36,0,0,1,.25-.16l3-.57a.2.2,0,0,1,.15,0,.16.16,0,0,1,.07.12l.13.66a.17.17,0,0,1,0,.14.16.16,0,0,1-.12.08l-2.32.44.28,1.5,1.73-.32a.19.19,0,0,1,.22.15l.12.63a.17.17,0,0,1,0,.14.2.2,0,0,1-.12.08l-1.73.32.33,1.75,2.32-.43a.22.22,0,0,1,.14,0,.17.17,0,0,1,.08.13l.13.66a.17.17,0,0,1,0,.14.2.2,0,0,1-.12.08l-3,.57A.37.37,0,0,1,125.63,178.83Z"/><path d="M138.66,176.29a.21.21,0,0,1-.11-.1l-2.85-5.46s0,0,0,0a.14.14,0,0,1,0-.11.21.21,0,0,1,.1-.06l.48-.09a.2.2,0,0,1,.11,0,.19.19,0,0,1,.08.07l2.4,4.7.51-5.25a.47.47,0,0,1,.05-.1.19.19,0,0,1,.1-.05l.47-.09a.24.24,0,0,1,.12,0,.3.3,0,0,1,.08.08l2.39,4.7.52-5.25a.19.19,0,0,1,0-.1.21.21,0,0,1,.1-.06l.47-.08a.15.15,0,0,1,.13,0,.13.13,0,0,1,0,.12l-.67,6.14a.18.18,0,0,1-.06.13.28.28,0,0,1-.13.07l-.51.1a.39.39,0,0,1-.15,0,.22.22,0,0,1-.11-.1L140,171l-.49,5a.16.16,0,0,1-.06.13.19.19,0,0,1-.13.07l-.51.1A.26.26,0,0,1,138.66,176.29Z"/><path d="M146.12,174.89a.16.16,0,0,1-.05-.08l-.08-.41a.16.16,0,0,1,0-.1.11.11,0,0,1,.09-.05l.91-.18-.91-4.82-.91.18a.16.16,0,0,1-.1,0,.1.1,0,0,1-.05-.08l-.08-.42a.1.1,0,0,1,0-.09.16.16,0,0,1,.08-.06l2.57-.48a.12.12,0,0,1,.1,0,.11.11,0,0,1,.05.08l.08.41a.12.12,0,0,1,0,.1.1.1,0,0,1-.08.05l-.92.17.91,4.82.92-.17a.13.13,0,0,1,.09,0,.16.16,0,0,1,.06.08l.08.42a.15.15,0,0,1,0,.09.15.15,0,0,1-.09.06l-2.57.48A.12.12,0,0,1,146.12,174.89Z"/><path d="M151.63,173.85a.12.12,0,0,1-.06-.08l-1-5.34-1.56.3a.16.16,0,0,1-.1,0,.14.14,0,0,1-.05-.08l-.08-.44a.1.1,0,0,1,0-.09.12.12,0,0,1,.08-.06l3.87-.73a.16.16,0,0,1,.1,0,.1.1,0,0,1,0,.08l.09.44a.15.15,0,0,1,0,.09.11.11,0,0,1-.09.05l-1.56.3,1,5.34a.16.16,0,0,1,0,.1.19.19,0,0,1-.09.05l-.49.09A.1.1,0,0,1,151.63,173.85Z"/><path d="M155.23,173.17a.12.12,0,0,1-.06-.08l-1.11-5.9a.1.1,0,0,1,0-.09.16.16,0,0,1,.08-.06l.49-.09a.16.16,0,0,1,.1,0,.1.1,0,0,1,.05.08l.47,2.45,3-.57-.47-2.45a.16.16,0,0,1,0-.1.19.19,0,0,1,.09,0l.49-.09a.1.1,0,0,1,.09,0,.09.09,0,0,1,.05.08l1.12,5.9a.12.12,0,0,1-.1.14l-.49.1a.16.16,0,0,1-.1,0,.1.1,0,0,1,0-.08l-.53-2.79-3,.58.53,2.78a.16.16,0,0,1,0,.1.19.19,0,0,1-.09,0l-.49.09A.1.1,0,0,1,155.23,173.17Z"/><path d="M88.82,200.36a.3.3,0,0,1-.08-.26l1.56-11.84a.32.32,0,0,1,.1-.19.34.34,0,0,1,.18-.09l1.12-.21a.28.28,0,0,1,.2,0,.31.31,0,0,1,.16.14l5.77,10.45a.24.24,0,0,1,0,.12.27.27,0,0,1,0,.19.25.25,0,0,1-.18.11l-.83.16a.46.46,0,0,1-.2,0,.32.32,0,0,1-.16-.14L95,196l-4.4.83L90.17,200a.19.19,0,0,1-.08.18.58.58,0,0,1-.19.1l-.83.15A.27.27,0,0,1,88.82,200.36Zm5.52-5.48-2.87-5.25-.75,5.93Z"/><path d="M102.64,198a.34.34,0,0,1-.15-.23l-2.08-11a.71.71,0,0,1,.11-.55.74.74,0,0,1,.48-.31l3-.57a4,4,0,0,1,2.06.15,4.08,4.08,0,0,1,1.71,1.15,3.93,3.93,0,0,1,.9,1.84,3.79,3.79,0,0,1-.17,2.06,4,4,0,0,1-1.16,1.69,4,4,0,0,1-1.87.9l-1.68.31.75,3.94a.32.32,0,0,1-.06.27.34.34,0,0,1-.23.15l-1.35.26A.32.32,0,0,1,102.64,198Zm2.39-6.8a2,2,0,0,0,1.58-2.33,1.85,1.85,0,0,0-.83-1.26,1.92,1.92,0,0,0-1.49-.31l-1.59.3.74,3.9Z"/><path d="M112.4,196.16a.36.36,0,0,1-.15-.23l-2.08-11a.73.73,0,0,1,.12-.56.7.7,0,0,1,.47-.31l3.16-.59a3.81,3.81,0,0,1,3.61,1.21,3.66,3.66,0,0,1,.53,4,3.73,3.73,0,0,1-1.64,1.67l3.63,3.81a.65.65,0,0,1,.11.22.36.36,0,0,1-.06.28.43.43,0,0,1-.26.15l-1.39.26A.48.48,0,0,1,118,195l-3.66-4-.83.15.83,4.4a.35.35,0,0,1-.29.42l-1.35.25A.36.36,0,0,1,112.4,196.16Zm2.44-7.28a1.77,1.77,0,0,0,1.18-.73,1.68,1.68,0,0,0,.27-1.32,1.73,1.73,0,0,0-.73-1.15,1.75,1.75,0,0,0-1.37-.25l-1.72.32.65,3.45Z"/><path d="M124.21,193.64a4.56,4.56,0,0,1-1.94-1.31,4.41,4.41,0,0,1-1-2.13l-.68-3.6a4.46,4.46,0,0,1,.17-2.35,4.63,4.63,0,0,1,1.33-1.93,4.41,4.41,0,0,1,2.13-1,4.54,4.54,0,0,1,4.3,1.49,4.34,4.34,0,0,1,1,2.12l.68,3.6a4.35,4.35,0,0,1-.18,2.35,4.56,4.56,0,0,1-5.81,2.78Zm3.12-2.36a2.6,2.6,0,0,0,.81-2.38l-.68-3.6a2.45,2.45,0,0,0-.56-1.17,2.52,2.52,0,0,0-1.06-.74,2.3,2.3,0,0,0-2.4.45,2.41,2.41,0,0,0-.71,1.08,2.46,2.46,0,0,0-.1,1.29l.68,3.6a2.45,2.45,0,0,0,.56,1.17,2.55,2.55,0,0,0,1.06.75,2.36,2.36,0,0,0,2.4-.45Z"/><path d="M132.25,192.41a.34.34,0,0,1-.15-.23l-.23-1.24a.35.35,0,0,1,.29-.42l1.25-.23a.91.91,0,0,0,.61-.39,1,1,0,0,0,.11-.77l-1.66-8.8a.36.36,0,0,1,.05-.27.38.38,0,0,1,.24-.15l1.35-.26a.36.36,0,0,1,.27.06.34.34,0,0,1,.15.23l1.66,8.8a3.06,3.06,0,0,1-.08,1.57,2.69,2.69,0,0,1-.8,1.23,2.78,2.78,0,0,1-1.39.66l-1.4.26A.32.32,0,0,1,132.25,192.41Z"/><path d="M139.69,190.89a.7.7,0,0,1-.31-.47l-2-10.63a.67.67,0,0,1,.12-.55.7.7,0,0,1,.47-.31l5.76-1.09a.36.36,0,0,1,.27,0,.32.32,0,0,1,.15.24l.24,1.26a.34.34,0,0,1,0,.28.36.36,0,0,1-.23.15l-4.43.83.54,2.87,3.3-.62a.36.36,0,0,1,.27,0,.38.38,0,0,1,.15.24l.22,1.2a.32.32,0,0,1-.05.27.34.34,0,0,1-.23.15l-3.3.62.63,3.35,4.43-.84a.32.32,0,0,1,.27.06.34.34,0,0,1,.15.23l.24,1.27a.36.36,0,0,1,0,.27.38.38,0,0,1-.24.15L140.24,191A.71.71,0,0,1,139.69,190.89Z"/><path d="M150.18,188.74a4.67,4.67,0,0,1-1.9-1.32,4.5,4.5,0,0,1-1-2.13l-.68-3.6a4.55,4.55,0,0,1,1.46-4.27,4.29,4.29,0,0,1,2.08-1,5,5,0,0,1,2,0,4,4,0,0,1,1.72.82.42.42,0,0,1,.16.27.54.54,0,0,1-.07.36l-.6.92a.39.39,0,0,1-.24.19.45.45,0,0,1-.34-.1,2.72,2.72,0,0,0-2.24-.5,2.21,2.21,0,0,0-1.1.55,2.69,2.69,0,0,0-.68,1.08,2.46,2.46,0,0,0-.08,1.29l.67,3.6a2.55,2.55,0,0,0,.56,1.17,2.49,2.49,0,0,0,1,.75,2.16,2.16,0,0,0,1.23.12,2.7,2.7,0,0,0,1.9-1.29.42.42,0,0,1,.26-.2.41.41,0,0,1,.31.08l.9.64a.44.44,0,0,1,.21.31.41.41,0,0,1-.05.28,4.37,4.37,0,0,1-1.33,1.41,4.82,4.82,0,0,1-1.85.75A4.28,4.28,0,0,1,150.18,188.74Z"/><path d="M160.94,187a.31.31,0,0,1-.15-.23L159,177l-2.84.54a.36.36,0,0,1-.28-.06.3.3,0,0,1-.14-.23l-.24-1.27a.35.35,0,0,1,.28-.42l7.74-1.46a.36.36,0,0,1,.27,0,.38.38,0,0,1,.15.24l.24,1.26a.38.38,0,0,1,0,.28.36.36,0,0,1-.23.15l-2.84.53,1.84,9.75a.32.32,0,0,1-.06.27.34.34,0,0,1-.23.15l-1.35.26A.32.32,0,0,1,160.94,187Z"/><path d="M56.82,221.52a.24.24,0,0,1-.1-.14l-2-10.49a.17.17,0,0,1,0-.17.19.19,0,0,1,.14-.09l.85-.16a.2.2,0,0,1,.17,0,.19.19,0,0,1,.09.14l.83,4.36,5.28-1-.82-4.35a.2.2,0,0,1,0-.17.2.2,0,0,1,.15-.09l.84-.17a.2.2,0,0,1,.17,0,.24.24,0,0,1,.1.14l2,10.49a.21.21,0,0,1,0,.17.19.19,0,0,1-.14.09l-.85.16a.25.25,0,0,1-.17,0,.2.2,0,0,1-.09-.15l-.94-4.95-5.28,1,.93,4.95a.2.2,0,0,1,0,.17.19.19,0,0,1-.14.09l-.85.16A.2.2,0,0,1,56.82,221.52Z"/><path d="M66.61,219.63a.28.28,0,0,1-.07-.24l1.46-11a.23.23,0,0,1,.08-.17.34.34,0,0,1,.18-.09l1-.2a.4.4,0,0,1,.19,0,.28.28,0,0,1,.15.13L75,217.79a.23.23,0,0,1,0,.11.24.24,0,0,1,0,.18.27.27,0,0,1-.17.1l-.77.15a.41.41,0,0,1-.19,0,.32.32,0,0,1-.15-.13l-1.39-2.57-4.09.77-.36,2.91a.22.22,0,0,1-.09.17.56.56,0,0,1-.17.09l-.78.14A.24.24,0,0,1,66.61,219.63Zm5.14-5.1-2.67-4.88-.7,5.52Z"/><path d="M78.92,217.35a.23.23,0,0,1-.15-.12l-5.2-9.77a.2.2,0,0,1,0-.1.19.19,0,0,1,0-.18.24.24,0,0,1,.16-.11l.77-.14a.35.35,0,0,1,.2,0,.19.19,0,0,1,.14.13l4.47,8.56,1-9.6a.31.31,0,0,1,.09-.18.56.56,0,0,1,.17-.09l.77-.14a.23.23,0,0,1,.23.06.25.25,0,0,1,.07.24l-1.27,11a.22.22,0,0,1-.09.17.32.32,0,0,1-.17.09l-1,.2A.31.31,0,0,1,78.92,217.35Z"/><path d="M85.59,216.09a.24.24,0,0,1-.09-.15l-.14-.74a.2.2,0,0,1,0-.17.2.2,0,0,1,.15-.09l1.58-.3-1.62-8.57-1.58.3a.24.24,0,0,1-.17,0,.2.2,0,0,1-.09-.15l-.14-.74a.16.16,0,0,1,0-.16.21.21,0,0,1,.14-.1l4.47-.84a.25.25,0,0,1,.17,0,.24.24,0,0,1,.09.15l.14.74a.25.25,0,0,1,0,.17.21.21,0,0,1-.15.09l-1.59.3,1.62,8.57,1.59-.3a.25.25,0,0,1,.17,0,.2.2,0,0,1,.09.15l.14.74a.22.22,0,0,1,0,.16.23.23,0,0,1-.15.1l-4.46.84A.25.25,0,0,1,85.59,216.09Z"/><path d="M92.93,214.7a.19.19,0,0,1-.09-.14l-2-10.38a.34.34,0,0,1,.05-.26.3.3,0,0,1,.22-.13l.92-.18a.52.52,0,0,1,.25,0,.39.39,0,0,1,.2.13l6.61,7.74-1.64-8.67a.2.2,0,0,1,0-.17.24.24,0,0,1,.14-.1l.79-.14a.17.17,0,0,1,.17,0,.19.19,0,0,1,.09.14l2,10.38a.31.31,0,0,1-.05.25.33.33,0,0,1-.22.14l-.94.18a.52.52,0,0,1-.25,0,.39.39,0,0,1-.2-.13l-6.59-7.73,1.63,8.66a.17.17,0,0,1,0,.17.19.19,0,0,1-.14.09l-.79.15A.2.2,0,0,1,92.93,214.7Z"/><path d="M105.19,212.11a3.9,3.9,0,0,1-1.66-1.14,3.7,3.7,0,0,1-.88-1.82l-.7-3.66a3.86,3.86,0,0,1,.16-2,4,4,0,0,1,1.14-1.66,3.7,3.7,0,0,1,1.82-.88,4.47,4.47,0,0,1,1.67,0,4.15,4.15,0,0,1,1.47.6.23.23,0,0,1,.11.18.35.35,0,0,1,0,.22c-.06.1-.17.28-.35.54a.57.57,0,0,1-.21.12.38.38,0,0,1-.26-.07,2.82,2.82,0,0,0-2.15-.37,2.43,2.43,0,0,0-1.21.6,2.83,2.83,0,0,0-.76,1.14,2.78,2.78,0,0,0-.1,1.37l.7,3.66a2.52,2.52,0,0,0,.59,1.23,2.73,2.73,0,0,0,1.11.79,2.52,2.52,0,0,0,2.56-.47,2.5,2.5,0,0,0,.75-1.11,2.54,2.54,0,0,0,.11-1.34l-.24-1.24-2.21.41a.17.17,0,0,1-.17,0,.24.24,0,0,1-.1-.14l-.13-.73a.25.25,0,0,1,0-.17.2.2,0,0,1,.15-.09l2.9-.55a.57.57,0,0,1,.44.09.55.55,0,0,1,.24.37l.33,1.78a3.81,3.81,0,0,1-.15,2,3.86,3.86,0,0,1-1.12,1.66,3.78,3.78,0,0,1-1.82.88A3.74,3.74,0,0,1,105.19,212.11Z"/><path d="M107.93,227.48a.35.35,0,0,1-.15-.24.31.31,0,0,1,0-.13L109.2,216a.46.46,0,0,1,.13-.29.51.51,0,0,1,.29-.15l1.23-.23a.58.58,0,0,1,.32,0,.49.49,0,0,1,.23.22l5.39,9.84a.33.33,0,0,1,0,.13.35.35,0,0,1-.06.28.38.38,0,0,1-.25.15l-1.13.21a.48.48,0,0,1-.33,0,.57.57,0,0,1-.23-.23l-1.13-2.13-3.68.7-.28,2.4a.48.48,0,0,1-.13.29.52.52,0,0,1-.29.16l-1.1.21A.42.42,0,0,1,107.93,227.48Zm4.88-5.38-2.08-3.95-.49,4.44Z"/><path class="cls-9" d="M122.35,224.18a14.06,14.06,0,0,1-3.79-1.07.58.58,0,0,1-.32-.33.71.71,0,0,1-.06-.49l.82-2.48a.73.73,0,0,1,.6-.55,1.06,1.06,0,0,1,.56,0,9.68,9.68,0,0,0,5.3.73,4.59,4.59,0,0,0,2.8-1.47,3,3,0,0,0,.64-2.57,2.52,2.52,0,0,0-.84-1.52,4.43,4.43,0,0,0-1.63-.85,27.68,27.68,0,0,0-2.82-.65l-1.11-.23a13.66,13.66,0,0,1-4.58-1.87,6.37,6.37,0,0,1-2.54-4.39,7.67,7.67,0,0,1,.25-4,6.93,6.93,0,0,1,2.24-3.11,8.58,8.58,0,0,1,3.85-1.69,12.58,12.58,0,0,1,7.56,1,.62.62,0,0,1,.32.32.72.72,0,0,1,.06.49l-.76,2.47a.7.7,0,0,1-.59.55,1,1,0,0,1-.56,0,11.15,11.15,0,0,0-2.9-.78,7.74,7.74,0,0,0-2.33,0,3.6,3.6,0,0,0-2.37,1.35,3.18,3.18,0,0,0,.95,4.5,11.72,11.72,0,0,0,3.6,1.22c.23,0,1.1.2,2.63.52a7.85,7.85,0,0,1,3.84,1.91,6.52,6.52,0,0,1,2,3.72,7.55,7.55,0,0,1-.3,4.13,7.41,7.41,0,0,1-2.43,3.24,9.63,9.63,0,0,1-4.17,1.78A11.91,11.91,0,0,1,122.35,224.18Z"/><path class="cls-9" d="M143.27,219.6a9.59,9.59,0,0,1-4.09-2.77,9.33,9.33,0,0,1-2.15-4.48l-1.43-7.58a9.27,9.27,0,0,1,.37-5,9.6,9.6,0,0,1,2.79-4.07,9.44,9.44,0,0,1,4.5-2.15,9.32,9.32,0,0,1,5,.37,9.48,9.48,0,0,1,4.08,2.76,9.26,9.26,0,0,1,2.16,4.48l1.43,7.59a9.33,9.33,0,0,1-.37,5,9.48,9.48,0,0,1-2.79,4.07,9.67,9.67,0,0,1-9.47,1.79Zm6.58-5a5.38,5.38,0,0,0,1.5-2.27,5.29,5.29,0,0,0,.21-2.73L150.12,202a5.23,5.23,0,0,0-1.18-2.46,5.35,5.35,0,0,0-2.23-1.57,4.91,4.91,0,0,0-5.06.95,5.38,5.38,0,0,0-1.51,2.28,5.28,5.28,0,0,0-.2,2.73l1.43,7.58a5.23,5.23,0,0,0,1.19,2.47,5.38,5.38,0,0,0,2.23,1.57,5,5,0,0,0,5.06-1Z"/><path class="cls-9" d="M167.24,215a9.42,9.42,0,0,1-4.07-3,11,11,0,0,1-2.21-4.95L158.12,192a.74.74,0,0,1,.61-.89l2.84-.53a.73.73,0,0,1,.58.11.72.72,0,0,1,.31.49l2.88,15.24a6,6,0,0,0,2.19,3.87,5.26,5.26,0,0,0,7.41-1.4,6.08,6.08,0,0,0,.62-4.4l-2.88-15.24a.72.72,0,0,1,.12-.57.73.73,0,0,1,.49-.32l2.85-.53a.68.68,0,0,1,.57.11.73.73,0,0,1,.32.49l2.84,15.06a11.1,11.1,0,0,1-.25,5.43,9.24,9.24,0,0,1-2.69,4.26,9.45,9.45,0,0,1-4.58,2.21A9.27,9.27,0,0,1,167.24,215Z"/><path class="cls-9" d="M187.72,211.58a1.51,1.51,0,0,1-.65-1l-4.38-23.18a.74.74,0,0,1,.61-.89l2.84-.53a.73.73,0,0,1,.58.11.72.72,0,0,1,.31.49l3.88,20.55,8.26-1.56a.77.77,0,0,1,.58.11.74.74,0,0,1,.31.49l.51,2.67a.73.73,0,0,1-.12.58.72.72,0,0,1-.49.31l-11.07,2.09A1.46,1.46,0,0,1,187.72,211.58Z"/><path d="M125.71,230a.17.17,0,0,1-.07-.1l-.09-.51a.15.15,0,0,1,0-.11.14.14,0,0,1,.1-.06l1.87-.35a.14.14,0,0,1,.11,0,.1.1,0,0,1,.06.09l.1.51a.14.14,0,0,1,0,.11.11.11,0,0,1-.1.06l-1.87.36A.14.14,0,0,1,125.71,230Z"/><path d="M132.29,230.58a.17.17,0,0,1-.1-.1l-2.36-4.3s0,0,0-.05a.12.12,0,0,1,0-.12.16.16,0,0,1,.11-.07l.48-.09a.22.22,0,0,1,.14,0,.17.17,0,0,1,.1.1l1.79,3.37.44-3.79a.16.16,0,0,1,.06-.13.19.19,0,0,1,.12-.07l.5-.1a.18.18,0,0,1,.12,0,.13.13,0,0,1,.07.1.06.06,0,0,1,0,.06l-.62,4.86a.31.31,0,0,1-.06.13.23.23,0,0,1-.13.06l-.53.1A.22.22,0,0,1,132.29,230.58Z"/><path d="M135.42,230a.15.15,0,0,1-.06-.09l-.09-.48a.2.2,0,0,1,0-.11.21.21,0,0,1,.1-.06l.58-.11-.64-3.39-.58.11a.14.14,0,0,1-.11,0,.15.15,0,0,1-.06-.09l-.09-.48a.14.14,0,0,1,0-.11.17.17,0,0,1,.1-.06l2-.38a.13.13,0,0,1,.11,0,.14.14,0,0,1,.07.1l.09.47a.14.14,0,0,1,0,.11.1.1,0,0,1-.09.06l-.59.11.64,3.39.59-.11a.14.14,0,0,1,.11,0,.21.21,0,0,1,.06.1l.09.47a.14.14,0,0,1,0,.11.12.12,0,0,1-.1.06l-2,.38A.15.15,0,0,1,135.42,230Z"/><path d="M139.7,229.14a.15.15,0,0,1-.06-.09l-.75-4-1.16.22a.15.15,0,0,1-.11,0,.14.14,0,0,1-.06-.1l-.09-.51a.11.11,0,0,1,0-.11.15.15,0,0,1,.09-.06l3.15-.6a.2.2,0,0,1,.11,0,.21.21,0,0,1,.06.1l.1.52a.15.15,0,0,1,0,.11.17.17,0,0,1-.1.06l-1.15.21.75,4a.14.14,0,0,1,0,.11.15.15,0,0,1-.09.06l-.55.11A.14.14,0,0,1,139.7,229.14Z"/><path d="M141.88,228.73a.21.21,0,0,1-.07-.11v-.05l.63-4.87a.17.17,0,0,1,.05-.12.24.24,0,0,1,.13-.07l.54-.1a.33.33,0,0,1,.14,0,.32.32,0,0,1,.1.1l2.35,4.3a.08.08,0,0,1,0,.06.17.17,0,0,1,0,.12.26.26,0,0,1-.11.07l-.5.09a.22.22,0,0,1-.14,0,.24.24,0,0,1-.1-.1l-.5-.93-1.61.3-.12,1.05a.21.21,0,0,1,0,.13.24.24,0,0,1-.13.07l-.48.09A.19.19,0,0,1,141.88,228.73Zm2.14-2.35-.91-1.73-.22,1.94Z"/><path d="M146.66,227.78a.26.26,0,0,1-.13-.19l-.85-4.47a.14.14,0,0,1,0-.11.1.1,0,0,1,.09-.06l.55-.11a.14.14,0,0,1,.11,0,.12.12,0,0,1,.06.1l.75,4,1.6-.3a.2.2,0,0,1,.11,0,.21.21,0,0,1,.06.1l.09.51a.13.13,0,0,1,0,.12.15.15,0,0,1-.09.06l-2.14.4A.25.25,0,0,1,146.66,227.78Z"/><path d="M149.81,227.23a.11.11,0,0,1-.06-.09l-.09-.47a.16.16,0,0,1,0-.12.15.15,0,0,1,.09-.06l.59-.11-.64-3.38-.59.11a.15.15,0,0,1-.11,0A.15.15,0,0,1,149,223l-.09-.48a.15.15,0,0,1,0-.11.15.15,0,0,1,.09-.06l2-.38a.14.14,0,0,1,.11,0,.15.15,0,0,1,.06.09l.09.48a.15.15,0,0,1,0,.11.21.21,0,0,1-.1.06l-.58.11.64,3.38.58-.11a.14.14,0,0,1,.11,0,.11.11,0,0,1,.06.09l.09.48a.14.14,0,0,1-.11.17l-2,.38A.14.14,0,0,1,149.81,227.23Z"/><path d="M155.86,226.14a.28.28,0,0,1-.22-.06l-1.92-1.67-.26.05.36,1.91a.14.14,0,0,1,0,.11.15.15,0,0,1-.09.06l-.55.11a.17.17,0,0,1-.12,0,.15.15,0,0,1-.06-.09l-.87-4.63a.15.15,0,0,1,0-.11.17.17,0,0,1,.1-.06l.55-.1a.14.14,0,0,1,.11,0,.14.14,0,0,1,.06.1l.36,1.93.23,0,1.21-2.28a.25.25,0,0,1,.19-.14l.62-.12a.14.14,0,0,1,.11,0,.14.14,0,0,1,.05.08.13.13,0,0,1,0,.1l-1.37,2.55,2.23,1.94s.05.05.05.08a.1.1,0,0,1,0,.09.11.11,0,0,1-.09.06Z"/><path d="M159.11,225.43a.3.3,0,0,1-.12-.19l-.82-4.32a.31.31,0,0,1,.05-.23.31.31,0,0,1,.19-.13l1.22-.23a1.42,1.42,0,0,1,.74.06,1.35,1.35,0,0,1,.6.4,1.29,1.29,0,0,1,.32.65,1.15,1.15,0,0,1-.26,1,1.1,1.1,0,0,1,.63.35,1.45,1.45,0,0,1,.26,1.47,1.45,1.45,0,0,1-.44.65,1.51,1.51,0,0,1-.72.34l-1.42.27A.32.32,0,0,1,159.11,225.43Zm.83-3.1a.65.65,0,0,0,.42-.26.6.6,0,0,0,.11-.46.55.55,0,0,0-.27-.39.65.65,0,0,0-.49-.1l-.62.12.23,1.21Zm.64,2.1a.69.69,0,0,0,.57-.85.65.65,0,0,0-.29-.45.72.72,0,0,0-.54-.1l-.86.16.26,1.4Z"/><path d="M164,224.43a1.77,1.77,0,0,1-.79-.57,2.16,2.16,0,0,1-.42-1L162.2,220a.14.14,0,0,1,0-.11.11.11,0,0,1,.1-.06l.55-.11a.15.15,0,0,1,.11,0,.21.21,0,0,1,.06.1l.55,2.94a1.26,1.26,0,0,0,.42.75,1,1,0,0,0,1.44-.27,1.2,1.2,0,0,0,.12-.85l-.56-2.94a.14.14,0,0,1,0-.11.11.11,0,0,1,.1-.06l.55-.11a.15.15,0,0,1,.11,0,.21.21,0,0,1,.06.1l.55,2.91a2.13,2.13,0,0,1-.05,1,1.79,1.79,0,0,1-1.41,1.25A1.72,1.72,0,0,1,164,224.43Z"/><path d="M168.91,223.63a.21.21,0,0,1-.06-.1l-.75-4-1.15.21a.11.11,0,0,1-.11,0,.15.15,0,0,1-.06-.09l-.1-.52a.14.14,0,0,1,0-.11.17.17,0,0,1,.1-.06l3.14-.59a.16.16,0,0,1,.12,0,.15.15,0,0,1,.06.09l.09.52a.14.14,0,0,1,0,.11.15.15,0,0,1-.09.06l-1.16.22.75,4a.14.14,0,0,1,0,.11.1.1,0,0,1-.1.06l-.55.11A.15.15,0,0,1,168.91,223.63Z"/><path d="M171.9,223a.32.32,0,0,1-.12-.2L171,218.5a.32.32,0,0,1,0-.23.3.3,0,0,1,.19-.12l2.35-.44a.14.14,0,0,1,.17.11l.09.52a.14.14,0,0,1,0,.11.15.15,0,0,1-.09.06l-1.8.34.22,1.17,1.34-.25a.11.11,0,0,1,.11,0,.15.15,0,0,1,.06.09l.09.49a.14.14,0,0,1,0,.11.14.14,0,0,1-.1.06l-1.34.25.26,1.37,1.8-.34a.11.11,0,0,1,.11,0,.11.11,0,0,1,.06.09l.1.52a.14.14,0,0,1,0,.11.17.17,0,0,1-.1.06l-2.34.44A.31.31,0,0,1,171.9,223Z"/><path d="M175.6,222.36a.15.15,0,0,1-.06-.09l-.85-4.48a.29.29,0,0,1,.05-.22.31.31,0,0,1,.19-.13l1.29-.24a1.7,1.7,0,0,1,.81.05,1.63,1.63,0,0,1,.66.44,1.47,1.47,0,0,1,.34.71,1.39,1.39,0,0,1-.13.94,1.5,1.5,0,0,1-.66.68l1.47,1.55a.18.18,0,0,1,0,.09.14.14,0,0,1,0,.11.14.14,0,0,1-.11.07l-.56.1a.19.19,0,0,1-.2-.06l-1.48-1.62-.34.06.34,1.79a.2.2,0,0,1,0,.11.21.21,0,0,1-.1.06l-.55.11A.14.14,0,0,1,175.6,222.36Zm1-3a.75.75,0,0,0,.48-.29.68.68,0,0,0,.11-.54.72.72,0,0,0-.3-.47.69.69,0,0,0-.55-.1l-.7.13.26,1.4Z"/><path d="M179.5,221.63a.14.14,0,0,1-.07-.1l-.09-.47a.14.14,0,0,1,0-.11.11.11,0,0,1,.09-.06l.59-.11-.64-3.39-.59.11a.14.14,0,0,1-.11,0,.17.17,0,0,1-.06-.1l-.09-.47a.14.14,0,0,1,0-.11.12.12,0,0,1,.1-.06l2-.38a.14.14,0,0,1,.17.11l.09.48a.14.14,0,0,1,0,.11.15.15,0,0,1-.09.06l-.58.11.63,3.39.59-.11a.14.14,0,0,1,.11,0,.14.14,0,0,1,.06.1l.09.47a.14.14,0,0,1,0,.11.17.17,0,0,1-.1.06l-2,.38A.14.14,0,0,1,179.5,221.63Z"/><path d="M182.73,221a.17.17,0,0,1-.06-.1l-.86-4.57a.21.21,0,0,1,0-.15.18.18,0,0,1,.13-.08l.56-.11a.21.21,0,0,1,.21.07l2.18,2.48.43.51-.62-3.33a.14.14,0,0,1,.11-.17l.5-.09a.14.14,0,0,1,.11,0,.14.14,0,0,1,.06.1l.86,4.57a.21.21,0,0,1,0,.15.2.2,0,0,1-.13.08l-.57.11a.19.19,0,0,1-.2-.07l-2.25-2.56-.36-.42.63,3.31a.16.16,0,0,1,0,.12.15.15,0,0,1-.09.06l-.5.09A.14.14,0,0,1,182.73,221Z"/></g></g></svg>