<svg xmlns="http://www.w3.org/2000/svg" xmlns:xlink="http://www.w3.org/1999/xlink" viewBox="0 0 283.46 283.46"><defs><style>.cls-1,.cls-4{fill:none;}.cls-2{fill:#6f3ff4;}.cls-3{fill:#02e1ab;}.cls-4{stroke:#000;stroke-miterlimit:10;}.cls-5{fill:#b2ffec;}.cls-6{clip-path:url(#clip-path);}</style><clipPath id="clip-path"><path class="cls-1" d="M204.72,98.24l-24,10.09a47.8,47.8,0,0,0-79.65,33.51l-22.19,9.33A19.81,19.81,0,0,0,68.35,177h0a19.81,19.81,0,0,0,25.86,10.54l21.61-9.09a47.78,47.78,0,0,0,80.79-34L220,134.64a19.81,19.81,0,0,0,10.55-25.86h0A19.81,19.81,0,0,0,204.72,98.24Z"/></clipPath></defs><g id="profile"><path class="cls-2" d="M95.67,207.14a3.15,3.15,0,0,1-.8-.4.1.1,0,0,1-.06-.08.14.14,0,0,1,0-.11l.29-.52a.15.15,0,0,1,.16-.1.27.27,0,0,1,.12,0,2.19,2.19,0,0,0,1.15.39,1.05,1.05,0,0,0,.69-.21.68.68,0,0,0,.25-.55.57.57,0,0,0-.12-.37A.87.87,0,0,0,97,205a6.47,6.47,0,0,0-.6-.27l-.24-.1a3,3,0,0,1-.94-.61,1.44,1.44,0,0,1-.39-1.09,1.76,1.76,0,0,1,.23-.89,1.52,1.52,0,0,1,.63-.6,2,2,0,0,1,.93-.21,2.64,2.64,0,0,1,.87.14,2.87,2.87,0,0,1,.78.4.15.15,0,0,1,.06.09.14.14,0,0,1,0,.11l-.27.52a.19.19,0,0,1-.16.1.19.19,0,0,1-.12,0,2.85,2.85,0,0,0-.62-.29,1.78,1.78,0,0,0-.52-.09.81.81,0,0,0-.59.2.68.68,0,0,0-.21.51.73.73,0,0,0,.23.54,2.7,2.7,0,0,0,.76.42l.56.23a1.73,1.73,0,0,1,.78.59,1.44,1.44,0,0,1,.29.91,1.72,1.72,0,0,1-.24.91,1.57,1.57,0,0,1-.68.62,2.18,2.18,0,0,1-1,.23A2.71,2.71,0,0,1,95.67,207.14Z"/><path class="cls-2" d="M100.52,207a2.11,2.11,0,0,1-.78-.79,2.14,2.14,0,0,1-.29-1.09v-1.76a2.18,2.18,0,0,1,1.07-1.88,2,2,0,0,1,1.07-.29,2.46,2.46,0,0,1,.94.18,2.12,2.12,0,0,1,.74.54.24.24,0,0,1,0,.14.29.29,0,0,1-.06.17l-.37.38a.19.19,0,0,1-.13.06.21.21,0,0,1-.15-.07,1.3,1.3,0,0,0-1-.44,1.06,1.06,0,0,0-.57.17,1.16,1.16,0,0,0-.41.44,1.17,1.17,0,0,0-.16.6v1.76a1.15,1.15,0,0,0,.16.6,1.19,1.19,0,0,0,.41.45,1,1,0,0,0,.57.16,1.27,1.27,0,0,0,1-.44.23.23,0,0,1,.14-.07.17.17,0,0,1,.14.07l.37.38a.21.21,0,0,1,0,.29,2.15,2.15,0,0,1-.75.55,2.47,2.47,0,0,1-.94.19A2,2,0,0,1,100.52,207Z"/><path class="cls-2" d="M104.44,207.14a.15.15,0,0,1,0-.12v-5.55a.17.17,0,0,1,.17-.18h.66a.17.17,0,0,1,.17.18v2.22h2.44v-2.22a.21.21,0,0,1,0-.13.19.19,0,0,1,.13-.05h.66a.18.18,0,0,1,.12.05.21.21,0,0,1,0,.13V207a.17.17,0,0,1-.17.17H108a.19.19,0,0,1-.13-.05.18.18,0,0,1,0-.12v-2.38h-2.44V207a.15.15,0,0,1,0,.12.17.17,0,0,1-.12.05h-.66A.17.17,0,0,1,104.44,207.14Z"/><path class="cls-2" d="M110.25,207.09a.35.35,0,0,1-.1-.26v-5.18a.33.33,0,0,1,.1-.25.34.34,0,0,1,.25-.11h2.81a.19.19,0,0,1,.13.05.21.21,0,0,1,0,.13v.61a.17.17,0,0,1,0,.13.19.19,0,0,1-.13,0h-2.16v1.4h1.61a.21.21,0,0,1,.13.05.17.17,0,0,1,0,.12v.59a.17.17,0,0,1,0,.12.21.21,0,0,1-.13.05h-1.61v1.63h2.16a.19.19,0,0,1,.13.05.21.21,0,0,1,0,.13V207a.18.18,0,0,1,0,.12.19.19,0,0,1-.13.05H110.5A.37.37,0,0,1,110.25,207.09Z"/><path class="cls-2" d="M114.73,207.09a.35.35,0,0,1-.1-.26v-5.36a.17.17,0,0,1,.17-.18h.66a.17.17,0,0,1,.17.18v4.75h1.91a.19.19,0,0,1,.13.05.21.21,0,0,1,0,.13V207a.18.18,0,0,1,0,.12.19.19,0,0,1-.13.05H115A.37.37,0,0,1,114.73,207.09Z"/><path class="cls-2" d="M118.73,207.09a.36.36,0,0,1-.11-.26v-5.36a.17.17,0,0,1,.18-.18h.66a.17.17,0,0,1,.12.05.21.21,0,0,1,0,.13v4.75h1.91a.17.17,0,0,1,.18.18V207a.18.18,0,0,1,0,.12.21.21,0,0,1-.13.05H119A.37.37,0,0,1,118.73,207.09Z"/><path class="cls-2" d="M122.5,207.14a.18.18,0,0,1,0-.12v-.57a.21.21,0,0,1,0-.13.17.17,0,0,1,.12,0h.71v-4.06h-.71a.17.17,0,0,1-.12-.05.18.18,0,0,1,0-.12v-.57a.21.21,0,0,1,0-.13.17.17,0,0,1,.12-.05H125a.17.17,0,0,1,.18.18V202a.18.18,0,0,1,0,.12.21.21,0,0,1-.13.05h-.7v4.06h.7a.17.17,0,0,1,.18.18V207a.18.18,0,0,1,0,.12.21.21,0,0,1-.13.05h-2.41A.17.17,0,0,1,122.5,207.14Z"/><path class="cls-2" d="M126.38,207.14a.18.18,0,0,1,0-.12v-5.49a.24.24,0,0,1,.24-.24h.68a.24.24,0,0,1,.22.13l2,3.35.4.69v-4a.17.17,0,0,1,.17-.18h.59a.17.17,0,0,1,.18.18V207a.26.26,0,0,1-.07.17.23.23,0,0,1-.17.07h-.69a.25.25,0,0,1-.22-.13l-2-3.46-.33-.56v4a.16.16,0,0,1,0,.12.21.21,0,0,1-.13.05h-.59A.21.21,0,0,1,126.38,207.14Z"/><path class="cls-2" d="M133.08,207a2.16,2.16,0,0,1-1.08-1.88v-1.76a2.17,2.17,0,0,1,.29-1.09,2.22,2.22,0,0,1,.79-.79,2.11,2.11,0,0,1,1.1-.29,2.56,2.56,0,0,1,1,.18,2.19,2.19,0,0,1,.76.54.24.24,0,0,1,0,.14.25.25,0,0,1-.07.17l-.36.38a.19.19,0,0,1-.13.06.18.18,0,0,1-.15-.07,1.41,1.41,0,0,0-1.06-.44,1.12,1.12,0,0,0-.58.17,1.14,1.14,0,0,0-.43.44,1.19,1.19,0,0,0-.17.6v1.76a1.29,1.29,0,0,0,.6,1,1.15,1.15,0,0,0,1.17,0,1.15,1.15,0,0,0,.43-.42,1.24,1.24,0,0,0,.15-.6v-.4h-1.1a.17.17,0,0,1-.12-.05.14.14,0,0,1,0-.13V204a.17.17,0,0,1,.17-.17H136a.34.34,0,0,1,.35.35v1a2,2,0,0,1-.29,1.09,2.07,2.07,0,0,1-.79.79,2,2,0,0,1-1.08.3A2.12,2.12,0,0,1,133.08,207Z"/><path class="cls-2" d="M139.54,207.14a.18.18,0,0,1,0-.12v-5.37a.38.38,0,0,1,.36-.36h1.47a1.92,1.92,0,0,1,1,.26,2,2,0,0,1,.7.69,1.88,1.88,0,0,1,0,1.91,2,2,0,0,1-.7.69,1.91,1.91,0,0,1-1,.25h-.82V207a.18.18,0,0,1-.05.12.17.17,0,0,1-.12.05h-.66A.21.21,0,0,1,139.54,207.14Zm1.74-3a1,1,0,0,0,.67-.28.93.93,0,0,0,.28-.68.91.91,0,0,0-.28-.67,1,1,0,0,0-.67-.28h-.78v1.91Z"/><path class="cls-2" d="M145.28,207a2.2,2.2,0,0,1-1.09-1.88v-1.76a2.08,2.08,0,0,1,.3-1.09,2.14,2.14,0,0,1,.79-.79,2.11,2.11,0,0,1,1.1-.29,2.16,2.16,0,0,1,1.89,1.08,2.07,2.07,0,0,1,.29,1.09v1.76a2,2,0,0,1-.29,1.09,2.07,2.07,0,0,1-.79.79,2.14,2.14,0,0,1-1.1.3A2.12,2.12,0,0,1,145.28,207Zm1.68-.83a1.19,1.19,0,0,0,.44-.45,1.25,1.25,0,0,0,.16-.6v-1.76a1.28,1.28,0,0,0-.16-.6,1.16,1.16,0,0,0-.44-.44,1.09,1.09,0,0,0-.58-.17,1.15,1.15,0,0,0-.59.17,1.21,1.21,0,0,0-.43.44,1.17,1.17,0,0,0-.16.6v1.76a1.15,1.15,0,0,0,.16.6,1.24,1.24,0,0,0,.43.45,1.14,1.14,0,0,0,.59.16A1.08,1.08,0,0,0,147,206.17Z"/><path class="cls-2" d="M149.4,207.14a.15.15,0,0,1-.05-.12v-.57a.17.17,0,0,1,.17-.18h.7v-4.06h-.7a.17.17,0,0,1-.12-.05.15.15,0,0,1-.05-.12v-.57a.17.17,0,0,1,.17-.18h2.41a.17.17,0,0,1,.12.05.21.21,0,0,1,0,.13V202a.18.18,0,0,1,0,.12.17.17,0,0,1-.12.05h-.7v4.06h.7a.17.17,0,0,1,.12,0,.21.21,0,0,1,0,.13V207a.18.18,0,0,1,0,.12.17.17,0,0,1-.12.05h-2.41A.17.17,0,0,1,149.4,207.14Z"/><path class="cls-2" d="M153.28,207.14a.18.18,0,0,1-.05-.12v-5.49a.23.23,0,0,1,.07-.17.26.26,0,0,1,.17-.07h.68a.25.25,0,0,1,.22.13l2,3.35.39.69v-4a.17.17,0,0,1,.18-.18h.59a.17.17,0,0,1,.17.18V207a.22.22,0,0,1-.07.17.21.21,0,0,1-.17.07h-.68a.24.24,0,0,1-.22-.13l-2-3.46-.32-.56v4a.17.17,0,0,1-.17.17h-.6A.17.17,0,0,1,153.28,207.14Z"/><path class="cls-2" d="M160.29,207.14a.18.18,0,0,1,0-.12v-4.76h-1.39a.18.18,0,0,1-.12,0,.17.17,0,0,1,0-.13v-.61a.21.21,0,0,1,0-.13.18.18,0,0,1,.12-.05h3.78a.17.17,0,0,1,.17.18v.61a.14.14,0,0,1-.05.13.17.17,0,0,1-.12,0h-1.38V207a.18.18,0,0,1-.05.12.21.21,0,0,1-.13.05h-.66A.17.17,0,0,1,160.29,207.14Z"/><path class="cls-2" d="M165.7,207.09a.33.33,0,0,1-.1-.25v-.66a2.57,2.57,0,0,1,.17-1,1.76,1.76,0,0,1,.54-.65c.24-.18.65-.44,1.22-.78a1.16,1.16,0,0,0,.43-.38.83.83,0,0,0,.14-.46.72.72,0,0,0-.23-.56.93.93,0,0,0-.63-.2,2,2,0,0,0-1,.31.2.2,0,0,1-.11,0,.19.19,0,0,1-.15-.1l-.27-.49a.31.31,0,0,1,0-.08.15.15,0,0,1,.07-.14,2.59,2.59,0,0,1,.75-.35,3,3,0,0,1,.85-.12,1.77,1.77,0,0,1,1.29.44,1.63,1.63,0,0,1,.47,1.22,1.65,1.65,0,0,1-.28,1,3.53,3.53,0,0,1-.93.81,3.25,3.25,0,0,1-.33.19l-.54.36a1.28,1.28,0,0,0-.31.35.81.81,0,0,0-.13.47v.24h2.15a.17.17,0,0,1,.12.05.19.19,0,0,1,0,.13V207a.18.18,0,0,1,0,.12.17.17,0,0,1-.12.05H166A.37.37,0,0,1,165.7,207.09Z"/><path class="cls-2" d="M170.5,206.52a5.17,5.17,0,0,1,0-4.56,2,2,0,0,1,3.11,0,5.28,5.28,0,0,1,0,4.57,1.95,1.95,0,0,1-3.11,0Zm2.17-.38a1.32,1.32,0,0,0,.33-.67,6.93,6.93,0,0,0,0-2.46,1.32,1.32,0,0,0-.33-.67.94.94,0,0,0-.62-.2.85.85,0,0,0-.61.21,1.25,1.25,0,0,0-.34.68,5.78,5.78,0,0,0-.11,1.24,3.68,3.68,0,0,0,.25,1.6.86.86,0,0,0,.82.49A.85.85,0,0,0,172.67,206.14Z"/><path class="cls-2" d="M175.12,207.09a.33.33,0,0,1-.1-.25v-.66a2.41,2.41,0,0,1,.17-1,1.59,1.59,0,0,1,.54-.65,13.93,13.93,0,0,1,1.22-.78,1.25,1.25,0,0,0,.43-.38.82.82,0,0,0,.13-.46.72.72,0,0,0-.22-.56.93.93,0,0,0-.63-.2,2,2,0,0,0-1,.31.23.23,0,0,1-.11,0,.16.16,0,0,1-.15-.1l-.27-.49a.15.15,0,0,1,.05-.22,2.65,2.65,0,0,1,.74-.35,3.13,3.13,0,0,1,.86-.12,1.77,1.77,0,0,1,1.29.44,1.62,1.62,0,0,1,.46,1.22,1.58,1.58,0,0,1-.28,1,3.31,3.31,0,0,1-.92.81,3.25,3.25,0,0,1-.33.19l-.54.36a1.32,1.32,0,0,0-.32.35.89.89,0,0,0-.12.47v.24h2.14a.21.21,0,0,1,.13.05.19.19,0,0,1,.05.13V207a.18.18,0,0,1-.05.12.21.21,0,0,1-.13.05h-2.76A.37.37,0,0,1,175.12,207.09Z"/><path class="cls-2" d="M179.33,207.14a.18.18,0,0,1-.05-.12v-.59a.17.17,0,0,1,.05-.12.13.13,0,0,1,.12-.05h.93v-3.67h-.69a.26.26,0,0,1-.17-.07.28.28,0,0,1-.07-.17V202l1.34-.69h.32a.24.24,0,0,1,.24.24v4.76h.93a.17.17,0,0,1,.17.17V207a.15.15,0,0,1,0,.12.17.17,0,0,1-.12.05h-2.83A.17.17,0,0,1,179.33,207.14Z"/><path class="cls-2" d="M81.91,198.05l.81-.11c0,.13,0,.24.06.35l.12.92c0,.3.08.61.11.91a.37.37,0,0,0,.17.28c.2.13.37.29.56.43l.13.09a11,11,0,0,0-.17-1.54c-.08-.51-.13-1-.2-1.55l.81-.1.52,3.94.84.64,0,0,0-.27a1.69,1.69,0,0,0,0-.23s0-.06,0-.08a8.22,8.22,0,0,1-.17-1.09l-.15-1.1-.09-.72c0-.2-.06-.39-.08-.58s0-.34-.07-.51a.34.34,0,0,1,0-.09l.78-.1.21,1.54c.33-.41.62-.82,1-1.23l.62.47s0,.07,0,.11l-1.07,1.39-.23.31a.29.29,0,0,0-.06.22c0,.27.08.55.12.83a.58.58,0,0,0,0,.14l1.91-2.5.63.49-.16.23c-.25.33-.51.66-.76,1s-.49.62-.73.94l-.7.93a.22.22,0,0,0,0,.13c0,.33.09.65.13,1,.13-.05.17-.16.24-.24s.23-.31.34-.46l.46-.6.75-1,.75-1c.11-.13.21-.27.31-.4s0,0,.06-.05l.62.48c-.29.41-.61.79-.91,1.22a4.42,4.42,0,0,0,.75-.08c.25,0,.5-.07.76-.1,0,.26.09.52.11.8l-.4.06-.9.12-.92.12a.19.19,0,0,0-.17.08c-.19.25-.39.5-.58.76,0,0,0,0,0,0,.53,0,1-.13,1.56-.19l1.55-.21.1.8-.61.09-.71.09-.75.1-.85.11-.9.12a.25.25,0,0,0-.18.1l-.54.71,0,.09,4.68-.62c0,.16,0,.3.07.44l0,.35c-.5.1-1,.13-1.49.22v0l1.2.92-.48.64-.22-.15-.75-.58-.77-.6a.37.37,0,0,0-.31-.09c-.28.05-.57.08-.86.11l-.07,0c.41.35.83.65,1.24,1l1.25,1-.49.64-.38-.28-.84-.65-1.13-.86-.73-.57a.31.31,0,0,0-.19,0l-.52.07-.43.06,0,.07,1.11.85.9.69,1,.76.7.54-.49.64c-.42-.3-.8-.63-1.24-.94l.21,1.53c-.27.06-.53.08-.81.12,0-.15,0-.28-.06-.41,0-.3-.07-.61-.11-.91s-.09-.64-.13-1c0,0,0-.08,0-.1-.26-.21-.54-.42-.81-.62h0l.41,3.07a3.7,3.7,0,0,1-.81.13l-.06-.42-.09-.7-.09-.74c0-.35-.1-.71-.14-1.06s-.08-.52-.1-.79a.43.43,0,0,0-.2-.35c-.21-.14-.41-.31-.61-.46l-.09-.1a.88.88,0,0,0,0,.4c0,.25.06.5.1.74l.09.68c0,.18,0,.36.06.53s0,.16,0,.24l.12,1c.05.34.09.68.14,1,0,0,0,.08,0,.14l-.78.1c-.1-.49-.12-1-.22-1.52-.18.21-.33.41-.48.61l-.46.61-.65-.48.15-.21.74-1,.47-.61a.3.3,0,0,0,.07-.24c0-.27-.07-.54-.11-.82l0-.13c-.35.41-.64.83-1,1.23s-.62.82-.93,1.24a6.42,6.42,0,0,1-.65-.48c.06-.08.1-.15.16-.22l1.08-1.43.93-1.2c.06-.08.11-.16.17-.23a.21.21,0,0,0,0-.18c0-.32-.09-.64-.13-1a.83.83,0,0,0-.25.28c-.26.33-.5.66-.76,1l-.93,1.22-.71.93c-.07.11-.16.2-.25.32l-.64-.49c.29-.41.6-.78.88-1.2-.5,0-1,.12-1.48.16l-.11-.8.09,0,.84-.11.77-.1.61-.08a.13.13,0,0,0,.07,0l.55-.72,0-.09h-.2l-1.18.16-1.06.14-.57.08s0,0-.06,0a4.17,4.17,0,0,1-.09-.8l.34-.05.87-.11.71-.1,1.34-.18.49-.06a.31.31,0,0,0,.24-.12c.17-.24.36-.47.54-.71v0a.21.21,0,0,0-.11,0l-.71.1-1,.13-1.08.15-.72.09-.89.13h-.1l-.11-.8,1.52-.21a6,6,0,0,0-.6-.48l-.61-.47.5-.65.53.41,1.18.9a.1.1,0,0,1,0,0,.3.3,0,0,0,.27.08c.28-.05.56-.08.84-.11l.06,0a.27.27,0,0,0-.07-.08l-.82-.63-.69-.53-.69-.53-.18-.15.47-.63.11,0,1.2.92.87.67.9.69a.27.27,0,0,0,.21.07l1-.14-.32-.26-1-.78-1.32-1-1-.78c-.07-.06-.08-.08,0-.16l.43-.57,1.2.92,0,0Zm1.49,5.06c0,.19,0,.36.08.53a.38.38,0,0,1-.08.31,1.58,1.58,0,0,0-.12.15c-.06.1-.17.16-.18.29l.46.35a.2.2,0,0,1,.09.16l0,.27.06.32a3.46,3.46,0,0,0,.48-.07.41.41,0,0,1,.38.11c.12.1.24.18.38.28l.37-.47a.21.21,0,0,1,.15-.09l.42-.06a.65.65,0,0,0,.18,0c0-.19,0-.37-.08-.55a.23.23,0,0,1,0-.2c.11-.13.2-.27.3-.4l.06-.1c-.13-.1-.24-.2-.36-.28a.41.41,0,0,1-.22-.36s0-.07,0-.1l-.06-.37-.35,0c-.33.06-.33.06-.55-.1l-.06,0-.3-.23,0,.07c-.1.13-.19.26-.29.38a.25.25,0,0,1-.2.13l-.18,0Z"/><path class="cls-3" d="M84.9,205.21a1.25,1.25,0,0,1-.22-.16.36.36,0,0,0-.34-.08l-.23,0c0-.05,0-.1,0-.14a1.49,1.49,0,0,1,0-.21c0-.07,0-.11-.1-.16a2.39,2.39,0,0,1-.26-.21l.22-.29a.23.23,0,0,0,0-.18,2.88,2.88,0,0,1,0-.33l.45-.07.26-.34a1.13,1.13,0,0,1,.21.15.34.34,0,0,0,.35.08l.25,0c0,.07,0,.12,0,.17a.47.47,0,0,0,.25.44.58.58,0,0,1,.13.11l-.15.21a.31.31,0,0,0-.07.35,1.52,1.52,0,0,1,0,.23,1.18,1.18,0,0,1-.25,0,.34.34,0,0,0-.28.14A1.8,1.8,0,0,1,84.9,205.21Z"/><path class="cls-4" d="M238.42,105.49a28.32,28.32,0,0,0-37-15.09l-19.31,8.12a56.33,56.33,0,0,0-83.2,19.37A55.67,55.67,0,0,0,93.09,136L75.6,143.33a28.23,28.23,0,0,0,.29,52.18h0a1.23,1.23,0,0,1,.48,2,10.12,10.12,0,0,0-2.51,6.67h0a10.23,10.23,0,0,0,10.2,10.2h95.61a10.23,10.23,0,0,0,10.2-10.2h0a10.23,10.23,0,0,0-10.2-10.19h0a1.36,1.36,0,0,1-.71-2.51,56.22,56.22,0,0,0,25.79-41.14l18.56-7.81a28.31,28.31,0,0,0,15.09-37Z"/></g><g id="background"><path class="cls-5" d="M204.72,98.24l-24,10.09a47.8,47.8,0,0,0-79.65,33.51l-22.19,9.33A19.81,19.81,0,0,0,68.35,177h0a19.81,19.81,0,0,0,25.86,10.54l21.61-9.09a47.78,47.78,0,0,0,80.79-34L220,134.64a19.81,19.81,0,0,0,10.55-25.86h0A19.81,19.81,0,0,0,204.72,98.24Z"/><path class="cls-3" d="M78.06,174a3.45,3.45,0,0,0,1.9,1.85,3.5,3.5,0,0,0,2.66,0l1.8-.78a10.08,10.08,0,0,0,5.18,4.66h0a10,10,0,0,0,7.76-.1l9.44-4.05A10.23,10.23,0,0,0,112.43,163l3.6-1.54a10,10,0,0,0,5.17,4.65h0A10.09,10.09,0,0,0,129,166l9.44-4a10.22,10.22,0,0,0,5.6-12.58,3.46,3.46,0,0,0-2.76-6.27A10,10,0,0,0,136,138.4h0a10.12,10.12,0,0,0-7.81.14l-9.4,4.12a10.22,10.22,0,0,0-5.58,12.47l-3.6,1.55a10,10,0,0,0-5.2-4.7h0a10.08,10.08,0,0,0-7.81.13l-9.4,4.13a10.21,10.21,0,0,0-5.58,12.47l-1.75.75h0A3.47,3.47,0,0,0,78.06,174Zm43.55-25,9.4-4.13h0a3.13,3.13,0,0,1,2.44,0,3,3,0,0,1,1.32,1l-.72.31a3.48,3.48,0,1,0,2.74,6.39l.81-.35h0a3.29,3.29,0,0,1-1.94,3.39l-9.44,4a3.15,3.15,0,0,1-2.43,0,3.05,3.05,0,0,1-1.29-1l3-1.3a3.47,3.47,0,0,0-2.75-6.38l-3.08,1.33a3.29,3.29,0,0,1,.42-2,3.25,3.25,0,0,1,1.51-1.35ZM90,162.59l9.4-4.12h0a3.13,3.13,0,0,1,2.44-.05,3.17,3.17,0,0,1,1.32,1l-.73.32a3.48,3.48,0,0,0-1.87,4.58,3.47,3.47,0,0,0,4.62,1.8l.8-.35h0a3.24,3.24,0,0,1-1.93,3.39l-9.44,4a3.15,3.15,0,0,1-2.43,0,3.07,3.07,0,0,1-1.29-1l.75-.32a3.47,3.47,0,0,0-2.74-6.38l-.83.35a3.26,3.26,0,0,1,.42-2A3.32,3.32,0,0,1,90,162.59Z"/><path class="cls-3" d="M219.86,113.1a3.46,3.46,0,0,0-4.56-1.82l-1.75.75h0a10.23,10.23,0,0,0-12.89-4.54l-9.47,4a10.11,10.11,0,0,0-5.64,12.59L182,125.6a10.23,10.23,0,0,0-12.89-4.53l-9.47,4h0A10.11,10.11,0,0,0,154,137.67a3.47,3.47,0,0,0-1.68,2.7,3.4,3.4,0,0,0,1.23,2.93,3.45,3.45,0,0,0,3.1.69,10.14,10.14,0,0,0,13,4.59l9.43-4.05h0A10.1,10.1,0,0,0,184.64,132l3.59-1.55h0a10.13,10.13,0,0,0,13,4.54l9.43-4.05a10.1,10.1,0,0,0,5.6-12.52l1.81-.78a3.47,3.47,0,0,0,1.82-4.55ZM178,136.4a3.16,3.16,0,0,1-1.71,1.75l-9.43,4a3.21,3.21,0,0,1-2.05.17,3.28,3.28,0,0,1-1.76-1.08l.82-.35a3.48,3.48,0,0,0-2.74-6.39l-.73.32h0a3.13,3.13,0,0,1,1.88-3.41l9.47-4h0a3.25,3.25,0,0,1,3.76.9l-3.09,1.33h0a3.47,3.47,0,1,0,2.74,6.38l3-1.29h0a3.12,3.12,0,0,1-.18,1.6Zm31.6-13.57a3.16,3.16,0,0,1-1.71,1.75l-9.43,4a3.29,3.29,0,0,1-3.81-.92l.82-.35a3.47,3.47,0,1,0-2.74-6.38l-.73.31h0a3.06,3.06,0,0,1,.35-2,3.16,3.16,0,0,1,1.53-1.38l9.47-4h0a3.25,3.25,0,0,1,3.76.9l-.83.35h0a3.48,3.48,0,0,0,.05,6.46,3.53,3.53,0,0,0,2.69-.07l.76-.33h0a3.16,3.16,0,0,1-.18,1.61Z"/><path class="cls-3" d="M148.34,120.67l5.34-4.76-.15,2.6h0a3.51,3.51,0,0,0,1.56,3.11,3.48,3.48,0,0,0,3.47.2,3.51,3.51,0,0,0,1.92-2.91l.63-11a3.45,3.45,0,0,0-3.27-3.67,3.45,3.45,0,0,0-2.51.87l-9.52,8.48-9.36-6.75h0a3.49,3.49,0,0,0-5.48,2.35l-1.55,11.43-12.7,1.07a3.48,3.48,0,0,0-3.17,3.76,3.52,3.52,0,0,0,1.22,2.36l8.39,7.09a3.48,3.48,0,0,0,3.42.61,3.45,3.45,0,0,0,2.24-2.65,3.48,3.48,0,0,0-1.17-3.27l-2-1.68,7.12-.6h0a3.47,3.47,0,0,0,3.15-3l1.14-8.45,6.93,5a3.46,3.46,0,0,0,2.2.65,3.54,3.54,0,0,0,2.14-.87Z"/><path class="cls-3" d="M149.58,166.44l-5.34,4.76.15-2.6h0a3.48,3.48,0,1,0-6.95-.4l-.63,11a3.46,3.46,0,0,0,2,3.33l.22.1a3.49,3.49,0,0,0,1.89.2,3.43,3.43,0,0,0,1.71-.83l9.52-8.48,9.36,6.75h0a3.47,3.47,0,0,0,5.47-2.35l1.55-11.43,12.71-1.07a3.48,3.48,0,0,0,2-6.12l-8.4-7.09a3.43,3.43,0,0,0-3.36-.53,3.46,3.46,0,0,0-1.12,5.83l2,1.68-7.12.6h0a3.49,3.49,0,0,0-3.15,3l-1.14,8.45-6.93-5a3.47,3.47,0,0,0-4.33.22Z"/></g><g id="words"><g class="cls-6"><path d="M88.11,192.56a.8.8,0,0,1-.64-.06L76.6,186.83a.81.81,0,0,1-.42-.49.84.84,0,0,1,.06-.64l3.08-5.9a.37.37,0,0,1,.24-.2.34.34,0,0,1,.31,0l1.3.68a.38.38,0,0,1,.2.23.45.45,0,0,1,0,.32L79,185.39l2.94,1.53,1.75-3.37a.41.41,0,0,1,.56-.18l1.22.65a.39.39,0,0,1,.21.23.45.45,0,0,1,0,.32l-1.76,3.37,3.42,1.78,2.36-4.53a.42.42,0,0,1,.24-.2.45.45,0,0,1,.32,0l1.29.68a.39.39,0,0,1,.21.24.43.43,0,0,1,0,.31l-3.08,5.89A.81.81,0,0,1,88.11,192.56Z"/><path d="M94.47,180.65a.45.45,0,0,1-.32,0l-10-5.21-1.51,2.91a.42.42,0,0,1-.24.2.4.4,0,0,1-.32,0l-1.29-.68a.36.36,0,0,1-.21-.24.43.43,0,0,1,0-.31l4.13-7.91a.41.41,0,0,1,.24-.21.42.42,0,0,1,.31,0l1.3.68a.42.42,0,0,1,.21.24.38.38,0,0,1,0,.31l-1.51,2.9,10,5.21a.39.39,0,0,1,.21.24.42.42,0,0,1,0,.31l-.72,1.38A.44.44,0,0,1,94.47,180.65Z"/><path d="M98.34,173.22a.38.38,0,0,1-.31,0L86.4,167.12a.41.41,0,0,1-.21-.24.45.45,0,0,1,0-.32l.73-1.38a.43.43,0,0,1,.23-.21.4.4,0,0,1,.32,0l4.66,2.43,2.67-5.12-4.66-2.43a.36.36,0,0,1-.21-.24.42.42,0,0,1,0-.31l.72-1.38a.41.41,0,0,1,.24-.21.45.45,0,0,1,.32,0l11.63,6.07a.37.37,0,0,1,.2.24.34.34,0,0,1,0,.31l-.72,1.39a.37.37,0,0,1-.24.2.42.42,0,0,1-.31,0l-5-2.6-2.67,5.12,5,2.59a.42.42,0,0,1,.2.24.36.36,0,0,1,0,.32L98.58,173A.42.42,0,0,1,98.34,173.22Z"/><path d="M104.59,161a.8.8,0,0,1-.64-.06l-10.87-5.67a.77.77,0,0,1-.41-.49.84.84,0,0,1,0-.64l3.08-5.89A.36.36,0,0,1,96,148a.42.42,0,0,1,.31,0l1.3.68a.37.37,0,0,1,.2.24.38.38,0,0,1,0,.31l-2.36,4.53,2.94,1.53,1.76-3.37a.38.38,0,0,1,.23-.2.4.4,0,0,1,.32,0l1.22.64a.36.36,0,0,1,.21.24.42.42,0,0,1,0,.31l-1.76,3.37,3.42,1.79,2.36-4.53a.44.44,0,0,1,.24-.21.4.4,0,0,1,.32,0l1.29.67a.36.36,0,0,1,.21.24.42.42,0,0,1,0,.31l-3.08,5.9A.83.83,0,0,1,104.59,161Z"/><path d="M109.54,151.75a.42.42,0,0,1-.31,0L98,145.85a.84.84,0,0,1-.42-.49.79.79,0,0,1,.06-.64l1.69-3.24a4.28,4.28,0,0,1,1.51-1.67,4.36,4.36,0,0,1,2.09-.69,4.07,4.07,0,0,1,2.16.47,4,4,0,0,1,1.83,1.9,4.24,4.24,0,0,1,.33,2.63l5.94-.55a.5.5,0,0,1,.28.06.37.37,0,0,1,.2.24.45.45,0,0,1-.05.34l-.74,1.42a.55.55,0,0,1-.47.32l-6.11.47-.45.84,4.5,2.35a.37.37,0,0,1,.2.24.34.34,0,0,1,0,.31l-.72,1.38A.36.36,0,0,1,109.54,151.75Zm-4.77-7.29a2,2,0,0,0,.18-1.56,1.87,1.87,0,0,0-1-1.16,1.93,1.93,0,0,0-1.55-.16,2,2,0,0,0-1.18,1l-.92,1.77,3.53,1.84Z"/><path d="M114.83,141.33a.8.8,0,0,1-.64-.06l-10.87-5.67a.83.83,0,0,1-.41-.49.79.79,0,0,1,.06-.64l3.07-5.9a.42.42,0,0,1,.24-.2.34.34,0,0,1,.31,0l1.3.67a.42.42,0,0,1,.2.24.36.36,0,0,1,0,.32l-2.36,4.52,2.94,1.54,1.76-3.37a.36.36,0,0,1,.24-.21.42.42,0,0,1,.31,0l1.23.64a.42.42,0,0,1,.2.24.36.36,0,0,1,0,.32l-1.76,3.37,3.42,1.78,2.37-4.53a.37.37,0,0,1,.24-.2.38.38,0,0,1,.31,0l1.3.68a.37.37,0,0,1,.2.24.43.43,0,0,1,0,.31l-3.07,5.89A.83.83,0,0,1,114.83,141.33Z"/><path d="M120.59,129.81a5,5,0,0,1-2.61.73,6,6,0,0,1-2.83-.71L107.84,126a.39.39,0,0,1-.21-.24.42.42,0,0,1,0-.31l.73-1.38a.39.39,0,0,1,.23-.21.45.45,0,0,1,.32,0l7.4,3.86a3.22,3.22,0,0,0,2.36.37,2.83,2.83,0,0,0,1.87-3.6,3.25,3.25,0,0,0-1.65-1.73l-7.39-3.86a.36.36,0,0,1-.21-.24.42.42,0,0,1,0-.31l.72-1.38a.41.41,0,0,1,.56-.18l7.31,3.82a6,6,0,0,1,2.21,1.91,5,5,0,0,1,.31,5.23A5,5,0,0,1,120.59,129.81Z"/><path d="M128.88,114.93a.56.56,0,0,1-.38,0l-8.17-1.36-1.78-.38,1.51,1,6.39,4.28a.56.56,0,0,1,.22.33.5.5,0,0,1,0,.38l-.67,1.29a.44.44,0,0,1-.28.24.46.46,0,0,1-.35-.08l-10.72-7.41a.62.62,0,0,1-.27-.38.68.68,0,0,1,.06-.48l.82-1.57a.61.61,0,0,1,.29-.28.59.59,0,0,1,.39,0l9.32,1.56,1.37.28-1-1L119,104.61a.57.57,0,0,1-.18-.34.69.69,0,0,1,.08-.39l.74-1.43a.64.64,0,0,1,.36-.33.59.59,0,0,1,.47,0l12.21,4.54a.46.46,0,0,1,.26.25.39.39,0,0,1,0,.36l-.7,1.35a.61.61,0,0,1-.29.26.5.5,0,0,1-.38,0l-7.32-2.83-1.58-.6,1.39,1.3,5.74,5.83a.57.57,0,0,1,.18.34.69.69,0,0,1-.06.4l-.69,1.31A.71.71,0,0,1,128.88,114.93Z"/><path d="M106,185.68a.27.27,0,0,1-.23,0l-9.57-1.86-.07,0a.19.19,0,0,1-.11-.14.23.23,0,0,1,0-.18l.34-.66a.25.25,0,0,1,.13-.12.27.27,0,0,1,.17,0l8.17,1.67-6-5.74a.22.22,0,0,1-.08-.15.23.23,0,0,1,0-.18l.34-.66a.3.3,0,0,1,.13-.12.32.32,0,0,1,.17,0l8.16,1.67-6-5.74a.48.48,0,0,1-.08-.16.25.25,0,0,1,0-.17l.34-.66a.23.23,0,0,1,.17-.12.21.21,0,0,1,.21.06l7,6.78a.3.3,0,0,1,.1.21.37.37,0,0,1,0,.23l-.37.7a.37.37,0,0,1-.16.17.31.31,0,0,1-.23,0l-7.78-1.58,5.76,5.45a.31.31,0,0,1,.11.21.51.51,0,0,1,0,.22l-.37.71A.38.38,0,0,1,106,185.68Z"/><path d="M110.85,176.37a.21.21,0,0,1-.2-.08l-6.91-7.09a.26.26,0,0,1-.07-.16.25.25,0,0,1,0-.17l.44-.83a.25.25,0,0,1,.11-.12.27.27,0,0,1,.17,0l9.78,1.61a.16.16,0,0,1,.09,0,.15.15,0,0,1,.1.12.19.19,0,0,1,0,.18l-.32.62a.28.28,0,0,1-.12.12.25.25,0,0,1-.17,0l-2.57-.44-1.71,3.29,1.83,1.85a.18.18,0,0,1,.07.15.27.27,0,0,1,0,.18l-.32.62A.21.21,0,0,1,110.85,176.37Zm-.73-6.4-4.89-.83,3.48,3.53Z"/><path d="M115.66,167.32a4,4,0,0,1-1,.83.19.19,0,0,1-.13,0,.19.19,0,0,1-.12-.07l-.42-.59a.22.22,0,0,1,0-.23.15.15,0,0,1,.08-.09,4,4,0,0,0,1.54-1.55,2.29,2.29,0,0,0,.28-1.54A1.5,1.5,0,0,0,115,163a1.32,1.32,0,0,0-.87-.16,2,2,0,0,0-.76.32c-.24.17-.54.41-.91.73a12.08,12.08,0,0,1-1.23,1,2.88,2.88,0,0,1-1.19.44,2.47,2.47,0,0,1-1.46-.31,2.7,2.7,0,0,1-1.14-1.07,2.57,2.57,0,0,1-.29-1.42,3.85,3.85,0,0,1,.44-1.5,4.8,4.8,0,0,1,.79-1.1,4.14,4.14,0,0,1,1-.77.15.15,0,0,1,.13,0,.18.18,0,0,1,.13.09l.37.54a.22.22,0,0,1,0,.17.18.18,0,0,1-.1.14,3.59,3.59,0,0,0-1.39,1.43,2.13,2.13,0,0,0-.27,1.43,1.45,1.45,0,0,0,.8,1,1.39,1.39,0,0,0,.87.17,2,2,0,0,0,.77-.32,10.33,10.33,0,0,0,.91-.74l.78-.68a2.89,2.89,0,0,1,1.46-.73,2.51,2.51,0,0,1,1.59.27,2.88,2.88,0,0,1,1.17,1.09,2.72,2.72,0,0,1,.35,1.49,4,4,0,0,1-.47,1.67A5,5,0,0,1,115.66,167.32Z"/><path d="M120.53,158.06a.25.25,0,0,1-.22,0l-8.23-4.29a.4.4,0,0,1-.2-.24.39.39,0,0,1,0-.3l.53-1a.43.43,0,0,1,.36-.24l6.57-.35,1.35,0-6-3.12a.35.35,0,0,1-.15-.17.31.31,0,0,1,0-.23l.46-.89a.29.29,0,0,1,.17-.14.27.27,0,0,1,.23,0l8.22,4.29a.37.37,0,0,1,.2.24.34.34,0,0,1,0,.31l-.53,1a.43.43,0,0,1-.36.24l-6.8.36-1.09,0,6,3.11a.26.26,0,0,1,.16.18.29.29,0,0,1,0,.22l-.47.89A.26.26,0,0,1,120.53,158.06Z"/><path d="M125.58,147.9a3.68,3.68,0,0,1-1.82.57,3.48,3.48,0,0,1-1.86-.41l-2.64-1.38a3.58,3.58,0,0,1-1.41-1.29,3.73,3.73,0,0,1-.56-1.81,3.68,3.68,0,0,1,5.39-3.45l2.64,1.37a3.6,3.6,0,0,1,1.41,1.3,3.7,3.7,0,0,1,.56,1.81,3.75,3.75,0,0,1-1.71,3.29Zm.06-3.18a2.24,2.24,0,0,0-.33-1,2.13,2.13,0,0,0-.78-.71l-2.64-1.37a1.93,1.93,0,0,0-1-.23,2,2,0,0,0-1,.3,1.83,1.83,0,0,0-.71.75,1.94,1.94,0,0,0-.21,1,2.08,2.08,0,0,0,1.11,1.7l2.63,1.38a2.1,2.1,0,0,0,2-.07,2,2,0,0,0,.71-.75A1.94,1.94,0,0,0,125.64,144.72Z"/><path d="M130.11,139.71a.31.31,0,0,1-.23,0L122.75,136,121.66,138a.26.26,0,0,1-.17.14.25.25,0,0,1-.22,0l-.93-.48a.31.31,0,0,1-.15-.17.31.31,0,0,1,0-.23l3-5.66a.28.28,0,0,1,.17-.15.31.31,0,0,1,.23,0l.92.49a.25.25,0,0,1,.15.17.28.28,0,0,1,0,.22l-1.09,2.08,7.14,3.72a.27.27,0,0,1,.15.18.34.34,0,0,1,0,.22l-.52,1A.35.35,0,0,1,130.11,139.71Z"/><path d="M136.63,127.45a.25.25,0,0,1-.17,0l-8.29-1.24,6.38,4.39a.25.25,0,0,1,.11.16.24.24,0,0,1,0,.2l-.31.6a.23.23,0,0,1-.15.12.22.22,0,0,1-.18,0l-7.84-5.49a.15.15,0,0,1-.07-.11.11.11,0,0,1,0-.11l.46-.89a.37.37,0,0,1,.12-.13.21.21,0,0,1,.17,0l8.51,1.27-5.95-6.3a.16.16,0,0,1,0-.21l.46-.88a.32.32,0,0,1,.14-.14.34.34,0,0,1,.2,0l8.91,3.27h0a.28.28,0,0,1,.11.13.23.23,0,0,1,0,.18l-.31.6a.29.29,0,0,1-.15.14.23.23,0,0,1-.2,0l-7.22-2.7,5.73,6.08a.23.23,0,0,1,.08.16.29.29,0,0,1,0,.16l-.33.63A.22.22,0,0,1,136.63,127.45Z"/><path d="M140,120.45a.21.21,0,0,1-.2-.08l-6.91-7.09a.26.26,0,0,1-.07-.16.25.25,0,0,1,0-.17l.43-.83a.34.34,0,0,1,.12-.12.27.27,0,0,1,.17,0l9.78,1.61a.16.16,0,0,1,.09,0,.15.15,0,0,1,.1.12.19.19,0,0,1,0,.18l-.32.62a.23.23,0,0,1-.12.12.25.25,0,0,1-.17,0l-2.57-.44-1.71,3.29,1.83,1.85a.18.18,0,0,1,.07.15.34.34,0,0,1,0,.18l-.32.62A.21.21,0,0,1,140,120.45Zm-.73-6.4-4.89-.83,3.48,3.54Z"/><path d="M144.41,111.92a.49.49,0,0,1-.39,0l-7.87-4.11a.5.5,0,0,1-.22-.69l1.17-2.25a3.59,3.59,0,0,1,1.31-1.42,3.76,3.76,0,0,1,3.75-.14l2.11,1.1a3.67,3.67,0,0,1,1.44,1.32,3.74,3.74,0,0,1,.59,1.83,3.59,3.59,0,0,1-.42,1.89l-1.17,2.25A.47.47,0,0,1,144.41,111.92Zm.5-3a2.55,2.55,0,0,0-1.09-3.44l-2.3-1.2a2.51,2.51,0,0,0-1.3-.3,2.64,2.64,0,0,0-1.25.4,2.41,2.41,0,0,0-.89,1l-.87,1.67,6.83,3.56Z"/><path d="M148.56,104a.53.53,0,0,1-.39,0l-7.87-4.11a.49.49,0,0,1-.25-.3.44.44,0,0,1,0-.39L142.25,95a.23.23,0,0,1,.12-.1.16.16,0,0,1,.15,0l.62.32a.18.18,0,0,1,.1.11.22.22,0,0,1,0,.16l-1.86,3.57,2.7,1.42,1.43-2.74a.14.14,0,0,1,.11-.09.16.16,0,0,1,.15,0l.6.31a.23.23,0,0,1,.1.12.16.16,0,0,1,0,.15L145,101l3.18,1.66L150.06,99a.19.19,0,0,1,.27-.08l.62.32a.23.23,0,0,1,.1.12.2.2,0,0,1,0,.15l-2.17,4.16A.44.44,0,0,1,148.56,104Z"/><path d="M127.66,166.52a.11.11,0,0,1-.11,0l-5.45-2.84-.81,1.56a.13.13,0,0,1-.09.07.14.14,0,0,1-.11,0l-.44-.23a.18.18,0,0,1-.07-.08.14.14,0,0,1,0-.11l2-3.86a.1.1,0,0,1,.08-.07.14.14,0,0,1,.11,0l.44.23a.11.11,0,0,1,.07.08.14.14,0,0,1,0,.11l-.81,1.56,5.44,2.84a.13.13,0,0,1,.07.09.14.14,0,0,1,0,.11l-.26.48A.13.13,0,0,1,127.66,166.52Z"/><path d="M129.73,162.2a2.5,2.5,0,0,1-1.22.38,2.32,2.32,0,0,1-1.26-.27l-2.1-1.1a2.39,2.39,0,0,1-.94-.87,2.42,2.42,0,0,1-.39-1.23A2.47,2.47,0,0,1,125,156.9a2.5,2.5,0,0,1,1.22-.38,2.32,2.32,0,0,1,1.26.27l2.1,1.1a2.48,2.48,0,0,1,1.32,2.1,2.33,2.33,0,0,1-.28,1.26A2.41,2.41,0,0,1,129.73,162.2Zm.36-2.16a1.79,1.79,0,0,0-.28-.83,1.63,1.63,0,0,0-.64-.58l-2.1-1.1a1.66,1.66,0,0,0-.85-.19,1.71,1.71,0,0,0-.83.25,1.5,1.5,0,0,0-.59.63,1.52,1.52,0,0,0-.18.84,1.68,1.68,0,0,0,.28.83,1.63,1.63,0,0,0,.64.58l2.1,1.1a1.66,1.66,0,0,0,.85.19,1.75,1.75,0,0,0,.83-.25,1.5,1.5,0,0,0,.59-.63A1.52,1.52,0,0,0,130.09,160Z"/><path d="M129.49,183a.17.17,0,0,1-.12,0l-5.92-.88,4.55,3.13a.2.2,0,0,1,.08.12.24.24,0,0,1,0,.14l-.22.42a.16.16,0,0,1-.11.09.15.15,0,0,1-.13,0l-5.6-3.91a.35.35,0,0,1,0-.08.11.11,0,0,1,0-.08l.33-.64.09-.09a.17.17,0,0,1,.12,0l6.07.91-4.25-4.5a.12.12,0,0,1,0-.15l.32-.62a.21.21,0,0,1,.11-.1.17.17,0,0,1,.14,0l6.36,2.33h0a.16.16,0,0,1,.07.09.15.15,0,0,1,0,.13l-.23.43a.24.24,0,0,1-.1.1.19.19,0,0,1-.15,0l-5.15-1.93,4.09,4.34a.16.16,0,0,1,.05.11.22.22,0,0,1,0,.12l-.24.45A.18.18,0,0,1,129.49,183Z"/><path d="M131.91,178a.16.16,0,0,1-.15-.06l-4.93-5.06a.17.17,0,0,1,0-.12.17.17,0,0,1,0-.12l.31-.59a.2.2,0,0,1,.09-.09.17.17,0,0,1,.12,0l7,1.15.07,0a.13.13,0,0,1,.07.09.15.15,0,0,1,0,.13l-.23.44-.09.09a.16.16,0,0,1-.12,0l-1.83-.32-1.22,2.35,1.3,1.32a.2.2,0,0,1,.06.11.28.28,0,0,1,0,.13l-.23.44A.18.18,0,0,1,131.91,178Zm-.53-4.57-3.49-.59,2.49,2.52Z"/><path d="M135.07,172a.12.12,0,0,1-.1,0l-6-3.14a.18.18,0,0,1-.07-.08.14.14,0,0,1,0-.11l.26-.49a.11.11,0,0,1,.08-.07.14.14,0,0,1,.11,0l2.68,1.4.14-.26-1.59-3.61a.23.23,0,0,1,0-.2l.3-.57a.15.15,0,0,1,.08-.08.13.13,0,0,1,.1,0,.1.1,0,0,1,.07.08l1.68,3.84,4.15-.79a.16.16,0,0,1,.19.1.17.17,0,0,1,0,.12l-.3.57a.24.24,0,0,1-.16.11l-3.81.73-.16.3,2.66,1.38a.13.13,0,0,1,.07.09.22.22,0,0,1,0,.11l-.25.47S135.11,172,135.07,172Z"/><path d="M137.69,166.83a.39.39,0,0,1-.28,0l-5.62-2.93a.36.36,0,0,1-.18-.22.39.39,0,0,1,0-.28l1.55-3a.18.18,0,0,1,.08-.07.14.14,0,0,1,.11,0l.45.23a.16.16,0,0,1,.07.09.14.14,0,0,1,0,.11l-1.34,2.55,1.93,1,1-2a.13.13,0,0,1,.08-.07.14.14,0,0,1,.11,0l.43.22a.14.14,0,0,1,.07.08.14.14,0,0,1,0,.11l-1,1.95,2.27,1.18,1.34-2.55a.11.11,0,0,1,.08-.07.14.14,0,0,1,.11,0l.44.23a.13.13,0,0,1,.07.08.14.14,0,0,1,0,.11l-1.55,3A.34.34,0,0,1,137.69,166.83Z"/><path d="M143.62,153.39a.14.14,0,0,1,0,.11l-1.51,2.89.28,4s0,.08,0,.1a.15.15,0,0,1-.1.09.14.14,0,0,1-.14,0l-.49-.25a.2.2,0,0,1-.09-.15l-.2-3.17-2.71,1.65a.19.19,0,0,1-.18,0l-.49-.26a.15.15,0,0,1-.09-.1.12.12,0,0,1,0-.13s0,0,.07-.08l3.4-2,1.52-2.92A.13.13,0,0,1,143,153a.14.14,0,0,1,.11,0l.49.26A.1.1,0,0,1,143.62,153.39Z"/><path d="M139.18,151.25a2.57,2.57,0,0,1,.38,1.23,2.27,2.27,0,0,1-.27,1.25l-1.1,2.1a2.35,2.35,0,0,1-.87.95,2.51,2.51,0,0,1-1.23.38,2.42,2.42,0,0,1-1.26-.28,2.48,2.48,0,0,1-1-.87,2.57,2.57,0,0,1-.38-1.23,2.36,2.36,0,0,1,.27-1.25l1.1-2.1a2.42,2.42,0,0,1,.87-1,2.54,2.54,0,0,1,1.23-.38,2.42,2.42,0,0,1,1.26.28A2.56,2.56,0,0,1,139.18,151.25ZM137,150.9a1.7,1.7,0,0,0-.82.27,1.65,1.65,0,0,0-.59.64l-1.1,2.1a1.68,1.68,0,0,0-.19.85,1.79,1.79,0,0,0,.25.84,1.56,1.56,0,0,0,.63.59,1.61,1.61,0,0,0,.84.17,1.77,1.77,0,0,0,.83-.27,1.7,1.7,0,0,0,.58-.64l1.1-2.1a1.73,1.73,0,0,0-.06-1.69,1.56,1.56,0,0,0-.63-.59A1.52,1.52,0,0,0,137,150.9Z"/><path d="M133.24,148.15a2.49,2.49,0,0,1,.36,1.26,3,3,0,0,1-.36,1.4l-2,3.88a.18.18,0,0,1-.08.07.14.14,0,0,1-.11,0l-.49-.26a.11.11,0,0,1-.07-.08.14.14,0,0,1,0-.11l2.05-3.92a2.21,2.21,0,0,0,.25-1,1.61,1.61,0,0,0-.23-.85,1.73,1.73,0,0,0-.66-.59,1.58,1.58,0,0,0-1.67.1,2,2,0,0,0-.64.76l-2.05,3.92a.13.13,0,0,1-.08.07.14.14,0,0,1-.11,0l-.49-.25a.13.13,0,0,1-.07-.09.12.12,0,0,1,0-.1l2-3.88a2.88,2.88,0,0,1,.94-1.09A2.5,2.5,0,0,1,131,147a2.53,2.53,0,0,1,1.28.29A2.5,2.5,0,0,1,133.24,148.15Z"/><path d="M146.35,150.16a.47.47,0,0,1-.38,0l-13.41-7a1,1,0,0,1-.42-1.34l2-3.86a5.09,5.09,0,0,1,1.8-2,5,5,0,0,1,2.5-.82,5,5,0,0,1,4.75,2.82,5,5,0,0,1,.39,3.14l7.08-.66a.74.74,0,0,1,.34.07.42.42,0,0,1,.23.29.54.54,0,0,1-.05.41l-.88,1.69a.67.67,0,0,1-.57.38l-7.28.55-.53,1,5.36,2.8a.47.47,0,0,1,.24.28.47.47,0,0,1,0,.38l-.86,1.65A.47.47,0,0,1,146.35,150.16Zm-5.69-8.69a2.46,2.46,0,0,0,.22-1.86,2.2,2.2,0,0,0-1.18-1.38,2.26,2.26,0,0,0-1.84-.19,2.41,2.41,0,0,0-1.41,1.24l-1.1,2.11,4.21,2.19Z"/><path d="M152.44,138.47a.44.44,0,0,1-.37,0l-1.42-.74a.48.48,0,0,1-.25-.29.48.48,0,0,1,0-.37l.92-1.75L141.2,130l-.92,1.75a.47.47,0,0,1-.28.24.5.5,0,0,1-.38,0l-1.42-.75a.45.45,0,0,1-.24-.28.48.48,0,0,1,0-.37l3.14-6a.48.48,0,0,1,.29-.25.48.48,0,0,1,.37,0l1.42.74a.48.48,0,0,1,.25.29.44.44,0,0,1,0,.37l-.91,1.75,10.16,5.3.91-1.75a.47.47,0,0,1,.28-.24.5.5,0,0,1,.38,0l1.42.75a.44.44,0,0,1,.24.28.48.48,0,0,1,0,.37l-3.14,6A.43.43,0,0,1,152.44,138.47Z"/><path d="M158.1,126.81a6.12,6.12,0,0,1-3,.91,6,6,0,0,1-3.1-.7l-4.39-2.29a6,6,0,0,1-2.36-2.14,6.14,6.14,0,0,1-1-3,5.8,5.8,0,0,1,.66-3,6.76,6.76,0,0,1,1.69-2.11A5.57,5.57,0,0,1,149,113.3a.6.6,0,0,1,.41.06.74.74,0,0,1,.33.38l.47,1.4a.6.6,0,0,1,0,.42.61.61,0,0,1-.38.27,3.68,3.68,0,0,0-2.42,2,3,3,0,0,0-.32,1.63,3.44,3.44,0,0,0,.57,1.62,3.36,3.36,0,0,0,1.3,1.18l4.39,2.29a3.36,3.36,0,0,0,1.71.39,3.46,3.46,0,0,0,1.65-.46,3,3,0,0,0,1.15-1.2,3.68,3.68,0,0,0,.23-3.1.51.51,0,0,1,0-.45.54.54,0,0,1,.34-.26l1.43-.41a.62.62,0,0,1,.5,0,.55.55,0,0,1,.27.29,5.84,5.84,0,0,1,.38,2.59,6.47,6.47,0,0,1-.75,2.59A5.78,5.78,0,0,1,158.1,126.81Z"/><path d="M163.54,117.21a.47.47,0,0,1-.38,0l-13.86-7.23a.48.48,0,0,1-.25-.29.44.44,0,0,1,0-.37l.86-1.65a.44.44,0,0,1,.28-.24.5.5,0,0,1,.38,0l5.56,2.9,3.18-6.1-5.56-2.9a.49.49,0,0,1-.25-.28.51.51,0,0,1,0-.38l.86-1.64a.48.48,0,0,1,.29-.25.44.44,0,0,1,.37,0L169,106a.49.49,0,0,1,.24.29.48.48,0,0,1,0,.37l-.86,1.65a.46.46,0,0,1-.29.24.44.44,0,0,1-.37,0l-5.94-3.1-3.18,6.1,5.94,3.1a.47.47,0,0,1,.24.28.47.47,0,0,1,0,.38l-.86,1.65A.47.47,0,0,1,163.54,117.21Z"/><path d="M171.09,103a1.81,1.81,0,0,1-1.47-.13,1.85,1.85,0,0,1-1-1.13,1.94,1.94,0,0,1,.15-1.49,1.81,1.81,0,0,1,1.13-.93,1.93,1.93,0,0,1,2.41,1.26,1.92,1.92,0,0,1-1.26,2.42Z"/><path d="M140.18,192.32a.6.6,0,0,1-.49,0l-8.38-4.37a.59.59,0,0,1-.32-.37.62.62,0,0,1,0-.5l2.37-4.54a.33.33,0,0,1,.19-.16.29.29,0,0,1,.24,0l1,.52a.27.27,0,0,1,.15.18.29.29,0,0,1,0,.24l-1.82,3.49L135.4,188l1.36-2.59a.28.28,0,0,1,.18-.16.31.31,0,0,1,.25,0l.94.5a.31.31,0,0,1,.16.18.33.33,0,0,1,0,.24l-1.36,2.6,2.64,1.38,1.82-3.49a.28.28,0,0,1,.18-.16.29.29,0,0,1,.24,0l1,.52a.3.3,0,0,1,.16.19.29.29,0,0,1,0,.24L140.56,192A.63.63,0,0,1,140.18,192.32Z"/><path d="M145.08,183.14a.29.29,0,0,1-.24,0l-7.69-4L136,181.35a.27.27,0,0,1-.18.15.29.29,0,0,1-.24,0l-1-.52a.3.3,0,0,1-.16-.19.29.29,0,0,1,0-.24l3.19-6.1a.31.31,0,0,1,.18-.16.34.34,0,0,1,.24,0l1,.52a.31.31,0,0,1,.16.18.29.29,0,0,1,0,.24L138,177.48l7.68,4a.28.28,0,0,1,.16.19.29.29,0,0,1,0,.24l-.56,1.06A.28.28,0,0,1,145.08,183.14Z"/><path d="M148.07,177.41a.31.31,0,0,1-.25,0l-9-4.68a.31.31,0,0,1-.16-.18.33.33,0,0,1,0-.24l.56-1.07a.31.31,0,0,1,.19-.16.34.34,0,0,1,.24,0L143.3,173l2.06-3.94-3.6-1.88a.31.31,0,0,1-.16-.18.34.34,0,0,1,0-.24l.56-1.07a.31.31,0,0,1,.18-.16.34.34,0,0,1,.24,0l9,4.67a.31.31,0,0,1,.15.19.29.29,0,0,1,0,.24l-.56,1.07a.27.27,0,0,1-.18.15.29.29,0,0,1-.24,0l-3.84-2-2,3.94,3.83,2a.37.37,0,0,1,.16.19.33.33,0,0,1,0,.24l-.56,1.06A.28.28,0,0,1,148.07,177.41Z"/><path d="M152.88,168a.6.6,0,0,1-.49-.05L144,163.55a.61.61,0,0,1-.32-.38.65.65,0,0,1,0-.49l2.37-4.54a.37.37,0,0,1,.19-.16.29.29,0,0,1,.24,0l1,.52a.31.31,0,0,1,.16.18.34.34,0,0,1,0,.24l-1.82,3.49,2.27,1.18,1.35-2.59a.3.3,0,0,1,.19-.16.29.29,0,0,1,.24,0l.94.5a.28.28,0,0,1,.16.18.29.29,0,0,1,0,.24l-1.36,2.6,2.64,1.37,1.82-3.49a.26.26,0,0,1,.19-.15.29.29,0,0,1,.24,0l1,.52a.26.26,0,0,1,.15.19.29.29,0,0,1,0,.24l-2.37,4.54A.61.61,0,0,1,152.88,168Z"/><path d="M156.7,160.87a.31.31,0,0,1-.25,0l-8.67-4.52a.64.64,0,0,1-.32-.38.64.64,0,0,1,0-.49l1.3-2.49a3.23,3.23,0,0,1,1.16-1.29,3.28,3.28,0,0,1,1.62-.53,3.1,3.1,0,0,1,1.66.35,3.14,3.14,0,0,1,1.41,1.47,3.29,3.29,0,0,1,.26,2l4.57-.43a.54.54,0,0,1,.22.05.26.26,0,0,1,.15.19.39.39,0,0,1,0,.26l-.57,1.09a.41.41,0,0,1-.37.25l-4.71.36-.34.65,3.46,1.81a.28.28,0,0,1,.16.18.29.29,0,0,1,0,.24l-.56,1.07A.31.31,0,0,1,156.7,160.87ZM153,155.25a1.55,1.55,0,0,0,.14-1.2,1.58,1.58,0,0,0-1.95-1,1.54,1.54,0,0,0-.91.81l-.71,1.35,2.72,1.42Z"/><path d="M160.78,152.84a.67.67,0,0,1-.5-.05l-8.38-4.37a.64.64,0,0,1-.32-.38.64.64,0,0,1,0-.49L154,143a.28.28,0,0,1,.18-.16.29.29,0,0,1,.24,0l1,.52a.3.3,0,0,1,.16.19.29.29,0,0,1,0,.24l-1.82,3.49,2.26,1.18,1.36-2.6a.31.31,0,0,1,.18-.16.34.34,0,0,1,.24,0l.95.49a.33.33,0,0,1,.16.19.34.34,0,0,1,0,.24l-1.35,2.6,2.64,1.37,1.82-3.49a.31.31,0,0,1,.18-.16.34.34,0,0,1,.24,0l1,.52a.31.31,0,0,1,.16.18.34.34,0,0,1,0,.24l-2.37,4.55A.65.65,0,0,1,160.78,152.84Z"/><path d="M165.21,144a3.81,3.81,0,0,1-2,.56A4.47,4.47,0,0,1,161,144L155.38,141a.27.27,0,0,1-.15-.18.29.29,0,0,1,0-.24l.56-1.07a.31.31,0,0,1,.18-.16.34.34,0,0,1,.24,0l5.7,3a2.47,2.47,0,0,0,1.82.28,2.18,2.18,0,0,0,1.45-2.77,2.51,2.51,0,0,0-1.27-1.33l-5.7-3a.28.28,0,0,1-.16-.18.29.29,0,0,1,0-.24l.56-1.07a.27.27,0,0,1,.18-.15.29.29,0,0,1,.24,0l5.64,2.94a4.54,4.54,0,0,1,1.7,1.47,3.92,3.92,0,0,1,.7,2,3.87,3.87,0,0,1-.46,2.06A3.76,3.76,0,0,1,165.21,144Z"/><path d="M171.6,132.49a.42.42,0,0,1-.29,0l-6.3-1.05-1.37-.29,1.17.78,4.92,3.3a.39.39,0,0,1,.17.25.41.41,0,0,1,0,.29l-.52,1a.31.31,0,0,1-.21.18.36.36,0,0,1-.28-.06l-8.25-5.71a.49.49,0,0,1-.22-.29.54.54,0,0,1,.05-.37l.63-1.22a.58.58,0,0,1,.23-.21.44.44,0,0,1,.3,0l7.18,1.21,1.06.21-.77-.74L164,124.54a.43.43,0,0,1-.13-.26.55.55,0,0,1,.05-.31l.58-1.1a.49.49,0,0,1,.28-.25.41.41,0,0,1,.36,0l9.41,3.5a.32.32,0,0,1,.2.19.29.29,0,0,1,0,.27l-.55,1a.41.41,0,0,1-.22.21.37.37,0,0,1-.29,0L168,125.66l-1.22-.47,1.08,1,4.41,4.49a.45.45,0,0,1,.14.27.47.47,0,0,1,0,.31l-.53,1A.52.52,0,0,1,171.6,132.49Z"/><path d="M150,192.13a.18.18,0,0,1-.14,0L144,191H144a.22.22,0,0,1-.07-.09.22.22,0,0,1,0-.11l.21-.4a.16.16,0,0,1,.07-.07.22.22,0,0,1,.11,0l4.94,1-3.66-3.48a.26.26,0,0,1-.05-.09.22.22,0,0,1,0-.11l.21-.4a.14.14,0,0,1,.08-.07.18.18,0,0,1,.1,0l4.94,1-3.65-3.47a.12.12,0,0,1-.05-.09.15.15,0,0,1,0-.11l.2-.4a.14.14,0,0,1,.11-.07.14.14,0,0,1,.12,0l4.24,4.11a.23.23,0,0,1,.06.13.24.24,0,0,1,0,.14l-.22.42a.19.19,0,0,1-.1.1.17.17,0,0,1-.14,0l-4.7-.95,3.48,3.29a.16.16,0,0,1,.06.13.23.23,0,0,1,0,.14l-.22.42A.32.32,0,0,1,150,192.13Z"/><path d="M152.87,186.5a.15.15,0,0,1-.12-.05l-4.18-4.29a.14.14,0,0,1,0-.1.3.3,0,0,1,0-.1l.27-.51a.16.16,0,0,1,.07-.07.12.12,0,0,1,.1,0l5.91,1,.06,0a.12.12,0,0,1,.06.08.14.14,0,0,1,0,.11l-.19.37a.14.14,0,0,1-.08.07.12.12,0,0,1-.1,0l-1.55-.26-1,2,1.11,1.12a.1.1,0,0,1,0,.09.2.2,0,0,1,0,.11l-.19.37A.15.15,0,0,1,152.87,186.5Zm-.44-3.88-3-.5,2.1,2.14Z"/><path d="M155.78,181a2.28,2.28,0,0,1-.64.5.08.08,0,0,1-.07,0l-.08,0-.25-.35a.14.14,0,0,1,0-.15l0-.05a2.54,2.54,0,0,0,.94-.93,1.41,1.41,0,0,0,.17-.94.94.94,0,0,0-.51-.66.83.83,0,0,0-.52-.1,1.18,1.18,0,0,0-.46.2,6.15,6.15,0,0,0-.55.44,7,7,0,0,1-.75.6,1.63,1.63,0,0,1-.72.26,1.47,1.47,0,0,1-.88-.18,1.62,1.62,0,0,1-.69-.65,1.59,1.59,0,0,1-.18-.86,2.43,2.43,0,0,1,.27-.91,3.09,3.09,0,0,1,.48-.66,2.58,2.58,0,0,1,.6-.47.08.08,0,0,1,.08,0s0,0,.07.05l.23.33a.12.12,0,0,1,0,.1.1.1,0,0,1-.06.09,2.23,2.23,0,0,0-.84.86,1.28,1.28,0,0,0-.16.87.87.87,0,0,0,.48.6.79.79,0,0,0,.53.1,1,1,0,0,0,.46-.19,5.36,5.36,0,0,0,.56-.44s.2-.17.46-.42a1.91,1.91,0,0,1,.89-.44,1.5,1.5,0,0,1,1,.17,1.67,1.67,0,0,1,.71.65,1.59,1.59,0,0,1,.21.91,2.44,2.44,0,0,1-.28,1A3.14,3.14,0,0,1,155.78,181Z"/><path d="M160.84,171.52a.12.12,0,0,1-.1,0l-5-.75,3.86,2.66a.13.13,0,0,1,.07.09.2.2,0,0,1,0,.13l-.19.35a.12.12,0,0,1-.09.08.14.14,0,0,1-.11,0l-4.75-3.33,0-.06a.08.08,0,0,1,0-.07l.28-.54s0-.05.07-.08a.12.12,0,0,1,.1,0l5.15.77-3.6-3.82a.09.09,0,0,1,0-.12l.28-.53a.24.24,0,0,1,.08-.09h.13l5.38,2h0s0,0,.07.08a.12.12,0,0,1,0,.1l-.19.37a.2.2,0,0,1-.09.09H162l-4.37-1.64,3.47,3.68a.13.13,0,0,1,0,.09.16.16,0,0,1,0,.1l-.2.39A.16.16,0,0,1,160.84,171.52Z"/><path d="M162.89,167.29a.13.13,0,0,1-.12,0L158.59,163a.19.19,0,0,1-.05-.1.3.3,0,0,1,0-.1l.27-.51a.16.16,0,0,1,.07-.07.12.12,0,0,1,.1,0l5.91,1H165a.16.16,0,0,1,.06.08.14.14,0,0,1,0,.11l-.19.37a.2.2,0,0,1-.08.08l-.1,0-1.55-.27-1,2,1.11,1.12a.1.1,0,0,1,0,.09.2.2,0,0,1,0,.11l-.19.37A.15.15,0,0,1,162.89,167.29Zm-.44-3.88-3-.5,2.1,2.14Z"/><path d="M165.55,162.13a.33.33,0,0,1-.24,0l-4.76-2.48a.31.31,0,0,1-.16-.18.33.33,0,0,1,0-.24l.71-1.36a2.27,2.27,0,0,1,3.06-.94l1.28.66a2.17,2.17,0,0,1,.87.8,2.21,2.21,0,0,1,.36,1.11,2.16,2.16,0,0,1-.25,1.14l-.71,1.36A.31.31,0,0,1,165.55,162.13Zm.3-1.82a1.47,1.47,0,0,0,.17-.79,1.51,1.51,0,0,0-.24-.76,1.47,1.47,0,0,0-.59-.54l-1.39-.73a1.47,1.47,0,0,0-.79-.17,1.45,1.45,0,0,0-.75.24,1.42,1.42,0,0,0-.55.59l-.52,1,4.13,2.15Z"/><path d="M168.06,157.31a.33.33,0,0,1-.24,0l-4.76-2.49a.31.31,0,0,1-.16-.18.34.34,0,0,1,0-.24l1.31-2.51a.13.13,0,0,1,.07-.06.1.1,0,0,1,.09,0l.38.19a.13.13,0,0,1,.06.07.18.18,0,0,1,0,.1l-1.13,2.16,1.64.85.86-1.65a.11.11,0,0,1,.07-.06.1.1,0,0,1,.09,0l.36.19a.11.11,0,0,1,.06.07.1.1,0,0,1,0,.09l-.86,1.65,1.93,1,1.12-2.17a.13.13,0,0,1,.07-.06.16.16,0,0,1,.1,0l.37.2a.11.11,0,0,1,.06.07.1.1,0,0,1,0,.09l-1.31,2.52A.34.34,0,0,1,168.06,157.31Z"/><path d="M172.27,149.36a.14.14,0,0,1-.09,0l-4.62-2.41-.69,1.32a.13.13,0,0,1-.07.06.1.1,0,0,1-.09,0l-.38-.19a.13.13,0,0,1-.06-.07.16.16,0,0,1,0-.1l1.71-3.27a.11.11,0,0,1,.07-.06.1.1,0,0,1,.09,0l.38.19a.13.13,0,0,1,.06.07.16.16,0,0,1,0,.1l-.69,1.32,4.62,2.41a.13.13,0,0,1,.06.07.14.14,0,0,1,0,.09l-.22.42A.11.11,0,0,1,172.27,149.36Z"/><path d="M174,145.69a2.16,2.16,0,0,1-1,.33,2,2,0,0,1-1.06-.24l-1.78-.93a2,2,0,0,1-.81-.74,2.19,2.19,0,0,1-.32-1,2,2,0,0,1,.24-1.06,2,2,0,0,1,.74-.81,2.13,2.13,0,0,1,1-.33,2,2,0,0,1,1.06.24l1.78.93a2,2,0,0,1,.8.73,2.16,2.16,0,0,1,.33,1,2.08,2.08,0,0,1-.24,1.07A2,2,0,0,1,174,145.69Zm.3-1.83a1.45,1.45,0,0,0-.23-.7,1.44,1.44,0,0,0-.54-.5l-1.79-.93a1.46,1.46,0,0,0-.72-.16,1.43,1.43,0,0,0-.7.21,1.27,1.27,0,0,0-.5.53,1.3,1.3,0,0,0-.15.72,1.39,1.39,0,0,0,.23.7,1.41,1.41,0,0,0,.54.49l1.78.93a1.31,1.31,0,0,0,.72.16,1.36,1.36,0,0,0,.71-.2,1.3,1.3,0,0,0,.5-.54A1.25,1.25,0,0,0,174.33,143.86Z"/><path d="M166.62,186.07a.2.2,0,0,1-.15,0l-7.6-1.14,5.85,4a.25.25,0,0,1,.1.15.33.33,0,0,1,0,.19l-.28.54a.19.19,0,0,1-.14.11.25.25,0,0,1-.17,0l-7.18-5a.17.17,0,0,1-.07-.1.2.2,0,0,1,0-.11l.43-.81a.4.4,0,0,1,.11-.12.16.16,0,0,1,.15,0l7.8,1.17L160,179.14a.16.16,0,0,1,0-.19l.42-.8a.33.33,0,0,1,.13-.13.31.31,0,0,1,.19,0l8.16,3h0a.23.23,0,0,1,.1.12.2.2,0,0,1,0,.17l-.29.55a.27.27,0,0,1-.13.13.25.25,0,0,1-.19,0l-6.61-2.48,5.25,5.57a.27.27,0,0,1,.07.14.41.41,0,0,1,0,.16l-.31.58A.29.29,0,0,1,166.62,186.07Z"/><path d="M169.73,179.66a.21.21,0,0,1-.19-.07l-6.33-6.5a.2.2,0,0,1-.06-.14.22.22,0,0,1,0-.16l.4-.76a.25.25,0,0,1,.11-.12.25.25,0,0,1,.15,0l8.95,1.47.09,0a.16.16,0,0,1,.09.12.19.19,0,0,1,0,.16l-.29.56a.32.32,0,0,1-.11.12.29.29,0,0,1-.16,0L170,174l-1.57,3,1.68,1.7a.17.17,0,0,1,.06.14.22.22,0,0,1,0,.16l-.29.57A.2.2,0,0,1,169.73,179.66Zm-.67-5.86-4.48-.76,3.19,3.23Z"/><path d="M173.79,172a.15.15,0,0,1-.13,0l-7.74-4a.2.2,0,0,1-.09-.11.18.18,0,0,1,0-.14l.32-.62a.16.16,0,0,1,.11-.09.17.17,0,0,1,.14,0l3.45,1.8.17-.33-2-4.63a.32.32,0,0,1,0-.27l.38-.73a.21.21,0,0,1,.11-.1.21.21,0,0,1,.13,0,.2.2,0,0,1,.09.11l2.15,4.93,5.33-1a.17.17,0,0,1,.14,0,.17.17,0,0,1,.1.12.17.17,0,0,1,0,.14l-.38.73a.26.26,0,0,1-.2.14l-4.89.94-.2.38,3.41,1.79a.12.12,0,0,1,.08.11.24.24,0,0,1,0,.14l-.31.6A.21.21,0,0,1,173.79,172Z"/><path d="M177.15,165.33a.45.45,0,0,1-.36,0l-7.21-3.76a.41.41,0,0,1-.23-.28.46.46,0,0,1,0-.36l2-3.8a.21.21,0,0,1,.11-.1.18.18,0,0,1,.14,0l.57.29a.19.19,0,0,1,.09.11.23.23,0,0,1,0,.14l-1.71,3.28,2.47,1.29,1.31-2.5a.15.15,0,0,1,.1-.09.17.17,0,0,1,.14,0l.55.28a.16.16,0,0,1,.09.11.17.17,0,0,1,0,.14l-1.31,2.5,2.92,1.52,1.71-3.27a.19.19,0,0,1,.1-.1.2.2,0,0,1,.15,0l.56.3a.13.13,0,0,1,.09.1.17.17,0,0,1,0,.14l-2,3.81A.44.44,0,0,1,177.15,165.33Z"/><path d="M180.2,185.15a.17.17,0,0,1-.14,0l-3.72-1.94-5.09.36-.14,0a.21.21,0,0,1-.11-.14.21.21,0,0,1,0-.17l.33-.63a.23.23,0,0,1,.2-.12l4.06-.26-2.11-3.48a.24.24,0,0,1,0-.23l.33-.62a.22.22,0,0,1,.13-.12.2.2,0,0,1,.17,0,.24.24,0,0,1,.1.1l2.59,4.35,3.75,2a.14.14,0,0,1,.09.11.17.17,0,0,1,0,.14l-.33.62A.15.15,0,0,1,180.2,185.15Z"/><path d="M182.94,179.45a3.3,3.3,0,0,1-1.57.5,3.06,3.06,0,0,1-1.62-.36l-2.69-1.41a3,3,0,0,1-1.22-1.11,3.37,3.37,0,0,1-.49-1.58,3.22,3.22,0,0,1,.36-1.61,3.14,3.14,0,0,1,1.12-1.22,3.2,3.2,0,0,1,1.57-.5,3.15,3.15,0,0,1,1.62.35l2.69,1.41a3.06,3.06,0,0,1,1.22,1.12,3.22,3.22,0,0,1,.49,1.57,3.26,3.26,0,0,1-.36,1.62A3.21,3.21,0,0,1,182.94,179.45Zm.45-2.77a2.15,2.15,0,0,0-.35-1.06,2.19,2.19,0,0,0-.82-.75l-2.7-1.41a2.22,2.22,0,0,0-2.16.08,2,2,0,0,0-.76.8,2,2,0,0,0-.22,1.08,2.09,2.09,0,0,0,.35,1.06,2.14,2.14,0,0,0,.82.76l2.7,1.4a2.16,2.16,0,0,0,1.09.25,2.26,2.26,0,0,0,1.07-.32,2,2,0,0,0,1-1.89Z"/><path d="M186.91,171.83a3.08,3.08,0,0,1-1.61.46,3.81,3.81,0,0,1-1.79-.46l-5-2.6a.13.13,0,0,1-.09-.1.17.17,0,0,1,0-.14l.33-.63a.2.2,0,0,1,.11-.09.15.15,0,0,1,.13,0l5,2.62a2.64,2.64,0,0,0,1.23.33,2,2,0,0,0,1.08-.3,2.16,2.16,0,0,0,.77-.84,2.12,2.12,0,0,0,.24-1.09A2.08,2.08,0,0,0,187,168a2.71,2.71,0,0,0-1-.82l-5-2.63a.14.14,0,0,1-.09-.11.17.17,0,0,1,0-.14l.33-.62a.15.15,0,0,1,.1-.09.17.17,0,0,1,.14,0l5,2.6a3.76,3.76,0,0,1,1.4,1.2,3.07,3.07,0,0,1,.18,3.23A3.21,3.21,0,0,1,186.91,171.83Z"/><path d="M191.42,163.35a.61.61,0,0,1-.49,0L173.16,154a1.32,1.32,0,0,1-.57-1.79l4.86-9.3a.62.62,0,0,1,.38-.33.65.65,0,0,1,.49,0l2.05,1.07a.61.61,0,0,1,.32.38.57.57,0,0,1-.05.49l-3.73,7.15,5.11,2.67,2.77-5.33a.66.66,0,0,1,.38-.32.63.63,0,0,1,.5,0l1.93,1a.62.62,0,0,1,.33.38.65.65,0,0,1-.05.49L185.1,156l7.56,3.94a.62.62,0,0,1,.33.38.65.65,0,0,1-.05.49L191.8,163A.63.63,0,0,1,191.42,163.35Z"/><path d="M198.94,148.94a.67.67,0,0,1-.5-.05l-17.76-9.27a1.32,1.32,0,0,1-.57-1.79l2.66-5.1a7,7,0,0,1,2.39-2.65,6.77,6.77,0,0,1,3.31-1.08,6.57,6.57,0,0,1,6.3,3.73,6.68,6.68,0,0,1,.52,4.16l9.38-.87a1,1,0,0,1,.44.09.65.65,0,0,1,.32.39.74.74,0,0,1-.08.54l-1.16,2.24a.91.91,0,0,1-.75.51l-9.66.73-.7,1.33,7.1,3.71a.63.63,0,0,1,.33.37.67.67,0,0,1,0,.5l-1.14,2.18A.62.62,0,0,1,198.94,148.94Zm-7.54-11.51a3.21,3.21,0,0,0,.29-2.46,2.94,2.94,0,0,0-1.55-1.84,3.05,3.05,0,0,0-2.44-.25,3.17,3.17,0,0,0-1.87,1.65l-1.45,2.78,5.57,2.91Z"/><path d="M207.3,132.48a1.27,1.27,0,0,1-1-.09l-17.17-9a1.29,1.29,0,0,1-.66-.77,1.3,1.3,0,0,1,.1-1l4.85-9.3a.63.63,0,0,1,.87-.28l2.05,1.07a.63.63,0,0,1,.28.87l-3.73,7.15,4.64,2.43,2.77-5.33a.63.63,0,0,1,.38-.32.6.6,0,0,1,.49,0l1.94,1a.63.63,0,0,1,.28.87l-2.78,5.32L206,128l3.73-7.15a.66.66,0,0,1,.38-.32.63.63,0,0,1,.5,0l2,1.07a.61.61,0,0,1,.32.37.63.63,0,0,1,0,.5l-4.86,9.31A1.28,1.28,0,0,1,207.3,132.48Z"/><path d="M215,117.66a1.27,1.27,0,0,1-1-.09l-17.17-9a1.23,1.23,0,0,1-.65-.78,1.28,1.28,0,0,1,.09-1l4.85-9.3a.62.62,0,0,1,.38-.33.67.67,0,0,1,.5,0l2,1.07a.59.59,0,0,1,.33.38.65.65,0,0,1,0,.49l-3.73,7.15,4.64,2.42,2.77-5.32a.64.64,0,0,1,.88-.27l1.93,1a.62.62,0,0,1,.33.38.65.65,0,0,1,0,.49l-2.78,5.32,5.41,2.82,3.73-7.15a.61.61,0,0,1,.37-.32.59.59,0,0,1,.5.05l2,1.06a.66.66,0,0,1,.32.38.63.63,0,0,1-.05.5l-4.85,9.3A1.3,1.3,0,0,1,215,117.66Z"/><path d="M222.9,103.4a2.41,2.41,0,0,1-2-.18,2.47,2.47,0,0,1-1.26-1.5,2.56,2.56,0,0,1,.19-2,2.42,2.42,0,0,1,1.5-1.23,2.54,2.54,0,0,1,3.19,1.66,2.43,2.43,0,0,1-.15,1.94A2.58,2.58,0,0,1,222.9,103.4Z"/></g></g></svg>