<svg xmlns="http://www.w3.org/2000/svg" xmlns:xlink="http://www.w3.org/1999/xlink" viewBox="0 0 283.46 283.46"><defs><style>.cls-1,.cls-8{fill:none;}.cls-2{fill:#fff;}.cls-3{fill:#6f3ff4;}.cls-4{fill:#02e1ab;}.cls-5{clip-path:url(#clip-path);}.cls-6{fill:#11bb91;}.cls-7{fill:#67edcd;}.cls-8{stroke:#b2ffec;stroke-linecap:square;stroke-width:3px;}.cls-10,.cls-8{stroke-miterlimit:10;}.cls-9{clip-path:url(#clip-path-2);}.cls-10{stroke:#000;}</style><clipPath id="clip-path"><circle class="cls-1" cx="143.13" cy="127.48" r="82.07"/></clipPath><clipPath id="clip-path-2"><path class="cls-1" d="M143.13,209.56a81.92,81.92,0,0,0,65.36-32.46l-.58-.65c-2.78-3.13-7.09-3.34-11-3.5-2.43-.1-4.71-.11-6.54-2a21.83,21.83,0,0,0-7.77-4.83c-1-.38-1.92-.73-2.89-1.07h0a47.62,47.62,0,0,0-6.83-2.8c-3.24-.79-5.41-2.38-6.19-5.67.19-1.73.45-3.46.56-5.19.21-3.18,1.47-6.35-.1-9.57-.29-.6.17-1.61.39-2.41a42.76,42.76,0,0,0,1.62-5.74,77.45,77.45,0,0,0,.38-8.07c0-1.74,0-3.48,0-5.21-.06-.91-.12-1.82-.2-2.86,3,2.78,3,2.91,6.61,2.38,1.24-.19,2.34-1.23,3.55-1.74a16,16,0,0,0,8.59-9.42c1.57-4.1,4.77-7.06,6.48-11,1-2.28,2.71-4.25,2.7-7.11a16.63,16.63,0,0,0-4,2c-.67.46-1.31,1-1.94,1.46l-1.89,1.53L186.54,97c-2.84,1.33-5.7,2.63-8.41,4.18a22.93,22.93,0,0,0-4.34,3.76c-.2.19-.4.38-.61.56s-.21.37-.32.56l-.55.94.81-3.63c.43-.93.85-1.85,1.27-2.78h0l1.15-2.94c.21-1.2.53-2.4.62-3.62a8.63,8.63,0,0,0-.39-3.46,7.91,7.91,0,0,0-1.84-3l-2.72-5.32c-.22-2.1-.52-4.19-.69-6.29q-.09-1-.12-2.1a4.05,4.05,0,0,1,2.58-4c1.79-.8,3.27-1,5.07.22,2.89,2,5.22,1,5.64-2-.21-2.46-1.48-4.24-3.58-4.77a13.42,13.42,0,0,0-9.7.84,14.48,14.48,0,0,0-2.87,2,20.22,20.22,0,0,0-5,6.76c-1.81,4.06-2.11,8.59-1.39,13.46a82.58,82.58,0,0,1,1.25,9.35c.1,2.85-2.37,4-4.55,5.13a1.47,1.47,0,0,1-1.4-.29c-1.56-2.47-4.08-3.11-6.66-3.7-1.3-.29-2.56-.71-3.84-1.08-.47-.24-1-.77-1.41-.69-2,.38-4,.93-5.93,1.42a11.86,11.86,0,0,1-2.31-.49,2.81,2.81,0,0,0-1.86-.26c-.77.24-1.13,1.07-1.24,2.31a7.72,7.72,0,0,1-2.05-.41.44.44,0,0,1-.13-.14,23.84,23.84,0,0,1-2.49-6c-.42-1.92-.11-4-.12-6,.45-1.53.91-3.06,1.35-4.6,1.55-5.48,1.83-10.76-2.53-15.26-3-3.28-7.44-2.53-11.21-3.76l-2.55,2.18c-1,1.2-1.73,2.59-.74,4s2.44,1.2,3.87.79a8.7,8.7,0,0,1,1-.17c2.06-.28,3.94-.06,5.12,2a4.93,4.93,0,0,1-.26,5.7c-1.65,2.38-3.11,4.93-5,7.15-3.41,4.1-3.69,10.16-1.77,14.91a12.69,12.69,0,0,0,3.89,5.35l-2.56.09a11.9,11.9,0,0,1-1.57-1.52,11,11,0,0,0-9.23-4.95,18.11,18.11,0,0,1-3-.55l-9.72-3.64-6.17-2.57-.47.65c1.81,2.63,3.59,5.27,5.44,7.86a12.22,12.22,0,0,0,2.78,3.35c2.52,1.67,3.76,4.23,5.15,6.65,2.89,5,7.57,7.39,12.83,8.85,1.43.4,3.08.07,4.38.07,0,6,0,12,0,17.94a10.44,10.44,0,0,0,.84,3.28c.83,2.33,2.22,4.55,1.17,7.18.49,3.14.85,6.32,1.52,9.42.57,2.68,0,4.23-2.64,5.23s-5.51,1.81-8.21,2.87c-3.61,1.43-7.56,2.33-10.14,5.56a4.46,4.46,0,0,1-4.06,1.69A27.24,27.24,0,0,0,84,173.4,20,20,0,0,0,78.76,177c-.21.19-.4.4-.59.59A81.91,81.91,0,0,0,143.13,209.56Z"/></clipPath></defs><g id="profile"><path class="cls-2" d="M95.39,225a9.7,9.7,0,1,1,0-19.39H98.1l-1.53-.93a90.41,90.41,0,0,1-24.73-22.13l-.52-.66a7.08,7.08,0,0,1,.6-9.31l.69-.69c.25-.26.51-.52.77-.76a28.15,28.15,0,0,1,7.39-5,34.92,34.92,0,0,1,14.06-2.85H95l.15-.15c3.3-3.31,7.35-4.77,10.3-5.84.66-.24,1.25-.45,1.82-.67,1.66-.66,3.28-1.19,4.84-1.72l.41-.13.09-.47c-.21-1.28-.39-2.53-.57-3.76-.13-.94-.26-1.85-.4-2.76l-.34-2.17.46-1.17-.28-.72c-.24-.58-.45-1.12-.65-1.66l-.1-.28a16.87,16.87,0,0,1-1.2-5.59c-.06-3.66-.06-7.35,0-10.47v-.37l-.35-.11c-7.32-2.34-12.49-6.28-15.8-12l-.49-.88a10.29,10.29,0,0,0-2.13-3.07,16.36,16.36,0,0,1-4.47-4.79c-.16-.24-.28-.42-.41-.6-1.33-1.87-2.63-3.76-3.93-5.65l-1.76-2.56a7.57,7.57,0,0,1,.06-8.66l2-2.77A5.19,5.19,0,0,1,86.43,82a5.28,5.28,0,0,1,2,.4l8.1,3.39,9,3.37,1.17.28.08-.54a21.19,21.19,0,0,1,4.57-10.48c.23-.28.46-.57.69-.88l.43-.57-.69-.21a10.24,10.24,0,0,1-5.64-4.1c-2.29-3.32-3.15-8.7,1.29-13.82l.42-.48,4.07-3.46a5.45,5.45,0,0,1,3.53-1.31,5.34,5.34,0,0,1,1.69.27l1.36.44a17.16,17.16,0,0,0,2.49.47c3.23.47,8.08,1.17,12,5.38,8.45,8.77,5.43,19.45,4.44,22.95-.31,1.1-.63,2.19-.95,3.28l-.12.37,0,1,.43.08a11.59,11.59,0,0,1,1.54.39l.14,0,.13,0c1.45-.37,2.88-.72,4.42-1l.8-.15h.81a9,9,0,0,1,4.62,1.31l.05,0,.05,0c.81.24,1.57.47,2.21.62l1.26.29.73.19s-.25-1.58-.31-2a31.82,31.82,0,0,1,2-17.9,28.16,28.16,0,0,1,6.93-9.43l.13-.12a22.37,22.37,0,0,1,4.46-3,20.48,20.48,0,0,1,9.4-2.25,24.06,24.06,0,0,1,5.92.77c5.41,1.37,9.09,5.92,9.58,11.87l.07.87-.11.86c-.79,5.9-5.22,10-10.76,10a9.89,9.89,0,0,1-1.33-.08l-.64-.07.12.92,1.6,3.13,0,0A15.82,15.82,0,0,1,183.35,88c.1.29.19.58.27.88l.16.57,1.32-.62,1.18-1c.62-.5,1.45-1.15,2.39-1.8a24.72,24.72,0,0,1,6-3l4.59-1.59a4.8,4.8,0,0,1,1.49-.25,4.54,4.54,0,0,1,4.52,4.51l0,4.86a17.89,17.89,0,0,1-2.7,9.08c-.27.49-.52,1-.66,1.26A36.67,36.67,0,0,1,198,107.5a21,21,0,0,0-2.49,4.16,23.85,23.85,0,0,1-12.81,13.85l-.33.2-.1.06a13.94,13.94,0,0,1-4.47,2l-.38.08v.4a55.18,55.18,0,0,1-.39,6.54,27.53,27.53,0,0,1-1.34,5.25l-.07.2c-.09.26-.18.53-.26.79l0,.14,0,.14a20.9,20.9,0,0,1,.07,8.78c-.11.72-.22,1.38-.25,1.89-.05.76-.12,1.49-.19,2.21l-.05.42.41.11a34.82,34.82,0,0,1,5.59,2.21l.13.06,1.45.67c1.18.41,2.1.75,3,1.1a31.75,31.75,0,0,1,9.06,5.3l.06.05,2.14.88h.4c4.35.17,11.63.46,16.72,6.19l1.48,1.67a6.36,6.36,0,0,1,.31,8.06l-.83,1.08a90.22,90.22,0,0,1-25.15,22.7l-1.53.93H191A9.7,9.7,0,1,1,191,225Z"/><path d="M115.47,54.07a4.72,4.72,0,0,1,1.53.25l1.35.44a18.92,18.92,0,0,0,2.61.49c3.13.45,7.87,1.14,11.72,5.23C140.92,69,138,79.51,137,83c-.31,1.09-.63,2.18-1,3.27l-.1.31,0,.12v.13l0,.51,0,.87.86.15a11.71,11.71,0,0,1,1.47.37l.28.09.28-.07c1.44-.37,2.86-.73,4.38-1l.71-.14h.81A8.52,8.52,0,0,1,149,88.78l.1.06.1,0,.09,0c.74.22,1.51.45,2.17.6.38.09.8.18,1.25.3l1.47.37-.24-1.5c-.07-.41-.13-.82-.2-1.23a31.41,31.41,0,0,1,2-17.63,27.75,27.75,0,0,1,6.8-9.26l.12-.11a21.77,21.77,0,0,1,4.37-3,20,20,0,0,1,9.17-2.19A24.11,24.11,0,0,1,182,56c5.2,1.32,8.73,5.7,9.2,11.43l.07.81-.11.81c-.76,5.65-5,9.59-10.26,9.59a10.81,10.81,0,0,1-1.27-.07l-1.27-.16.15,1.27,0,.1v.1l0,.18.08.16,1.54,3,0,.1.07.08a15.22,15.22,0,0,1,2.63,4.76c.09.28.18.56.26.85l.31,1.15,1.07-.51.74-.34.11,0,.09-.08,1.13-.91c.61-.49,1.44-1.14,2.36-1.77a24.1,24.1,0,0,1,5.84-3L199.38,82a4.09,4.09,0,0,1,1.33-.23,4,4,0,0,1,4,4l0,4.86a17.53,17.53,0,0,1-2.64,8.84c-.27.49-.52,1-.67,1.3a36.63,36.63,0,0,1-3.82,6.44,22,22,0,0,0-2.55,4.27c-2.47,6.41-6.8,11.11-12.53,13.57l0,0-.05,0-.31.19-.09.06a13.55,13.55,0,0,1-4.31,1.88l-.77.17,0,.79a54.36,54.36,0,0,1-.39,6.49,26.32,26.32,0,0,1-1.32,5.15l-.07.2-.26.8-.08.27.07.28a20.63,20.63,0,0,1,.05,8.59c-.11.72-.21,1.4-.25,1.93s-.1,1.39-.19,2.18l-.09.85.81.22a35.6,35.6,0,0,1,5.53,2.19l.11.06,1.47.66,0,0h0c1.14.4,2,.74,2.93,1.09a30.79,30.79,0,0,1,8.92,5.21l.13.1.15.07.93.38,1,.43.16.06h.49c4.27.17,11.42.45,16.36,6l1.49,1.67a5.87,5.87,0,0,1,.28,7.43l-.82,1.08a89.83,89.83,0,0,1-25,22.57l-3.06,1.86H191a9.2,9.2,0,1,1,0,18.39H95.39a9.2,9.2,0,1,1,0-18.39H99.9l-3.07-1.86a89.76,89.76,0,0,1-24.6-22l-.51-.66a6.57,6.57,0,0,1,.55-8.64l.7-.71c.2-.2.47-.47.75-.73A27.52,27.52,0,0,1,81,166.52a34.44,34.44,0,0,1,13.86-2.81h.42l.29-.29c3.22-3.23,7-4.62,10.13-5.73l.07,0c.59-.21,1.18-.42,1.76-.65,1.64-.65,3.25-1.18,4.81-1.7l.09,0,.07,0,.81-.27-.14-.84c-.21-1.28-.39-2.54-.57-3.79-.13-.91-.26-1.82-.4-2.73l-.32-2,.35-.86.14-.37-.14-.37c-.07-.18-.15-.37-.24-.58-.19-.49-.42-1-.62-1.6l-.1-.28a16.44,16.44,0,0,1-1.17-5.43c-.06-3.65-.06-7.34,0-10.46v-.74l-.7-.22c-7.2-2.3-12.27-6.16-15.51-11.8l-.5-.89c-1-1.72-1.61-2.79-2.28-3.24a16,16,0,0,1-4.34-4.65l0,0c-.13-.19-.25-.38-.38-.56-1.36-1.9-2.72-3.89-3.93-5.64l-1.58-2.3-.18-.27a7.06,7.06,0,0,1,.06-8.08l.66-.93,1.31-1.84a4.68,4.68,0,0,1,5.61-1.6l8.14,3.4,9,3.37.06,0h.06l.57.14,1.07.26.16-1.09a20.54,20.54,0,0,1,4.46-10.23l.7-.9.86-1.15-1.38-.41a9.76,9.76,0,0,1-5.37-3.91c-2.18-3.16-3-8.3,1.25-13.2l.38-.43,4.06-3.46a5,5,0,0,1,3.22-1.19m0-1a5.92,5.92,0,0,0-3.87,1.43L107.48,58l-.42.49c-4.62,5.33-3.72,10.94-1.32,14.42a10.78,10.78,0,0,0,5.91,4.3c-.23.3-.45.59-.67.86a21.49,21.49,0,0,0-4.68,10.73l-.58-.14-9-3.36-8.11-3.39a5.59,5.59,0,0,0-2.18-.44,5.67,5.67,0,0,0-4.62,2.38L80.5,85.69l-.67.94a8,8,0,0,0-.06,9.23l.18.27,1.58,2.29c1.3,1.9,2.6,3.79,3.93,5.66l.41.59a16.52,16.52,0,0,0,4.61,4.93,11.43,11.43,0,0,1,2,2.9l.5.88c4.27,7.43,10.87,10.6,16.08,12.26,0,3.47,0,7,0,10.48a17.07,17.07,0,0,0,1.23,5.76l.1.27c.2.56.42,1.1.64,1.65l.23.56-.45,1.12.36,2.31c.14.91.28,1.83.41,2.75.17,1.23.35,2.49.56,3.77l-.15.05c-1.57.52-3.2,1.06-4.87,1.72-.59.24-1.2.45-1.8.67-3.06,1.11-7.12,2.57-10.5,6h0a35.2,35.2,0,0,0-14.26,2.9,28.54,28.54,0,0,0-7.52,5.12c-.28.25-.54.51-.79.77l-.7.7a7.55,7.55,0,0,0-.63,10l.51.66a91.29,91.29,0,0,0,24.87,22.26h-.92a10.2,10.2,0,1,0,0,20.39H191a10.2,10.2,0,1,0,0-20.39h-1a91,91,0,0,0,25.29-22.83l.83-1.08a6.84,6.84,0,0,0-.34-8.69l-1.48-1.68c-5.23-5.88-12.64-6.17-17.07-6.35h-.31l-2-.81a31.78,31.78,0,0,0-9.21-5.38c-.88-.35-1.81-.7-3-1.1l-1.55-.71a34.65,34.65,0,0,0-5.68-2.25c.08-.72.15-1.46.2-2.23,0-.48.13-1.14.24-1.84a21.54,21.54,0,0,0-.07-9c.1-.33.21-.66.32-1a28,28,0,0,0,1.37-5.34,57.83,57.83,0,0,0,.39-6.6,14.64,14.64,0,0,0,4.62-2l.37-.23c6-2.57,10.51-7.46,13.07-14.13a21.82,21.82,0,0,1,2.44-4.06,37.09,37.09,0,0,0,3.91-6.61c.13-.3.38-.75.64-1.22a18.26,18.26,0,0,0,2.76-9.33l0-4.86A5,5,0,0,0,199.06,81l-4.59,1.59a25.6,25.6,0,0,0-6.09,3.07c-.94.65-1.79,1.32-2.42,1.82l-1.13.91-.73.35c-.08-.31-.17-.61-.28-.91A16.45,16.45,0,0,0,181,82.8l-1.54-3a1.36,1.36,0,0,1,0-.2,13,13,0,0,0,1.39.08c5.8,0,10.43-4.3,11.25-10.45l.13-.92-.08-.92c-.51-6.17-4.33-10.89-10-12.31a24.57,24.57,0,0,0-6-.79,21.09,21.09,0,0,0-9.63,2.3,22.68,22.68,0,0,0-4.56,3.1l-.14.13a28.58,28.58,0,0,0-7,9.59c-2.37,5.3-3,11.41-2,18.19.07.41.13.82.2,1.24-.46-.12-.88-.21-1.27-.3-.61-.14-1.34-.36-2.1-.59l-.07,0a9.57,9.57,0,0,0-4.87-1.38h-.91l-.79.16c-1.57.3-3,.67-4.45,1a11.83,11.83,0,0,0-1.61-.4c0-.17,0-.34,0-.51l.1-.32c.32-1.09.64-2.18.95-3.28,1-3.58,4.09-14.46-4.55-23.43-4.08-4.33-9-5-12.3-5.53a18.6,18.6,0,0,1-2.43-.45l-1.36-.45a6.2,6.2,0,0,0-1.84-.29Z"/><path class="cls-3" d="M107,218.29a3.15,3.15,0,0,1-.8-.4.15.15,0,0,1-.06-.09.14.14,0,0,1,0-.11l.28-.52a.17.17,0,0,1,.16-.1.28.28,0,0,1,.13,0,2.17,2.17,0,0,0,1.15.39,1.05,1.05,0,0,0,.69-.21.67.67,0,0,0,.25-.55.57.57,0,0,0-.12-.37,1.06,1.06,0,0,0-.33-.26l-.61-.27-.23-.1a3,3,0,0,1-1-.61,1.45,1.45,0,0,1-.38-1.08,1.61,1.61,0,0,1,.86-1.5,2,2,0,0,1,.93-.21,2.93,2.93,0,0,1,.87.14,2.87,2.87,0,0,1,.78.4.19.19,0,0,1,0,.09.2.2,0,0,1,0,.11l-.28.52a.15.15,0,0,1-.15.1.28.28,0,0,1-.13,0,2.45,2.45,0,0,0-.61-.3,1.83,1.83,0,0,0-.52-.09.84.84,0,0,0-.59.2.69.69,0,0,0-.21.51.68.68,0,0,0,.23.54,2.7,2.7,0,0,0,.76.42l.56.23a1.73,1.73,0,0,1,.78.59,1.5,1.5,0,0,1,.29.91,1.64,1.64,0,0,1-.25.91,1.6,1.6,0,0,1-.68.63,2.14,2.14,0,0,1-1,.22A2.94,2.94,0,0,1,107,218.29Z"/><path class="cls-3" d="M111.84,218.15a2.21,2.21,0,0,1-1.07-1.89V214.5a2.18,2.18,0,0,1,1.07-1.88,2.1,2.1,0,0,1,1.07-.29,2.5,2.5,0,0,1,.94.18,2.21,2.21,0,0,1,.74.54.24.24,0,0,1,0,.14.25.25,0,0,1-.07.17l-.36.38a.24.24,0,0,1-.13.07.19.19,0,0,1-.15-.08,1.32,1.32,0,0,0-1-.44,1,1,0,0,0-.56.17,1.36,1.36,0,0,0-.42.44,1.27,1.27,0,0,0-.15.6v1.76a1.21,1.21,0,0,0,.15.6,1.3,1.3,0,0,0,.42.45,1,1,0,0,0,.56.16,1.32,1.32,0,0,0,1-.43.17.17,0,0,1,.28,0l.36.38a.23.23,0,0,1,.08.16.21.21,0,0,1-.05.13,2.15,2.15,0,0,1-.75.55,2.32,2.32,0,0,1-.94.19A2.1,2.1,0,0,1,111.84,218.15Z"/><path class="cls-3" d="M115.75,218.28a.17.17,0,0,1,0-.12v-5.55a.21.21,0,0,1,0-.13.16.16,0,0,1,.12,0h.66a.2.2,0,0,1,.13,0,.21.21,0,0,1,0,.13v2.22h2.44v-2.22a.17.17,0,0,1,0-.13.16.16,0,0,1,.12,0H120a.16.16,0,0,1,.12,0,.17.17,0,0,1,.05.13v5.55a.17.17,0,0,1-.17.17h-.66a.17.17,0,0,1-.17-.17v-2.38h-2.44v2.38a.17.17,0,0,1-.18.17h-.66A.13.13,0,0,1,115.75,218.28Z"/><path class="cls-3" d="M121.57,218.23a.36.36,0,0,1-.11-.25v-5.19a.34.34,0,0,1,.11-.25.33.33,0,0,1,.25-.1h2.81a.16.16,0,0,1,.12,0,.17.17,0,0,1,0,.13v.62a.13.13,0,0,1,0,.12.17.17,0,0,1-.12.05h-2.16v1.4h1.61a.17.17,0,0,1,.12,0,.21.21,0,0,1,0,.13v.58a.17.17,0,0,1,0,.12.13.13,0,0,1-.12,0h-1.61v1.64h2.16a.17.17,0,0,1,.17.17v.62a.17.17,0,0,1-.17.17h-2.81A.33.33,0,0,1,121.57,218.23Z"/><path class="cls-3" d="M126,218.23a.39.39,0,0,1-.1-.25v-5.37a.21.21,0,0,1,0-.13.18.18,0,0,1,.13,0h.65a.18.18,0,0,1,.13,0,.21.21,0,0,1,0,.13v4.76h1.91a.17.17,0,0,1,.17.17v.62a.17.17,0,0,1-.17.17H126.3A.35.35,0,0,1,126,218.23Z"/><path class="cls-3" d="M130,218.23a.39.39,0,0,1-.1-.25v-5.37a.21.21,0,0,1,.05-.13.16.16,0,0,1,.12,0h.66a.2.2,0,0,1,.13,0,.21.21,0,0,1,0,.13v4.76h1.91a.17.17,0,0,1,.17.17v.62a.17.17,0,0,1-.17.17H130.3A.35.35,0,0,1,130,218.23Z"/><path class="cls-3" d="M133.82,218.28a.13.13,0,0,1,0-.12v-.57a.17.17,0,0,1,.17-.17h.7v-4.07h-.7a.17.17,0,0,1-.12,0,.13.13,0,0,1,0-.12v-.57a.17.17,0,0,1,0-.13.16.16,0,0,1,.12,0h2.41a.16.16,0,0,1,.12,0,.21.21,0,0,1,.05.13v.57a.17.17,0,0,1-.17.17h-.7v4.07h.7a.13.13,0,0,1,.12.05.17.17,0,0,1,.05.12v.57a.17.17,0,0,1-.05.12.13.13,0,0,1-.12.05h-2.41A.13.13,0,0,1,133.82,218.28Z"/><path class="cls-3" d="M137.7,218.28a.17.17,0,0,1,0-.12v-5.49a.2.2,0,0,1,.07-.16.22.22,0,0,1,.17-.07h.68a.26.26,0,0,1,.22.12l2,3.35.39.69v-4a.21.21,0,0,1,.05-.13.2.2,0,0,1,.13,0h.59a.16.16,0,0,1,.12,0,.17.17,0,0,1,0,.13v5.48a.22.22,0,0,1-.07.17.21.21,0,0,1-.17.07h-.68a.25.25,0,0,1-.22-.12l-2.05-3.47-.32-.56v4a.19.19,0,0,1-.05.13.16.16,0,0,1-.12,0h-.6A.13.13,0,0,1,137.7,218.28Z"/><path class="cls-3" d="M144.4,218.15a2.17,2.17,0,0,1-.79-.8,2.05,2.05,0,0,1-.3-1.09V214.5a2.08,2.08,0,0,1,.3-1.09,2.22,2.22,0,0,1,.79-.79,2.17,2.17,0,0,1,1.09-.29,2.58,2.58,0,0,1,1,.18,2.29,2.29,0,0,1,.76.54.23.23,0,0,1,0,.14.29.29,0,0,1-.06.17l-.36.38a.23.23,0,0,1-.14.07.19.19,0,0,1-.14-.08,1.41,1.41,0,0,0-1.06-.44,1.15,1.15,0,0,0-.59.17,1.29,1.29,0,0,0-.43.44,1.17,1.17,0,0,0-.16.6v1.76a1.12,1.12,0,0,0,.16.6,1.24,1.24,0,0,0,.43.45,1.14,1.14,0,0,0,.59.16,1.23,1.23,0,0,0,.59-.15,1.15,1.15,0,0,0,.42-.43,1.12,1.12,0,0,0,.16-.6v-.4h-1.1a.21.21,0,0,1-.13,0,.17.17,0,0,1-.05-.12v-.6a.17.17,0,0,1,.05-.12.21.21,0,0,1,.13-.05h1.74a.35.35,0,0,1,.25.1.35.35,0,0,1,.1.26v.95a2.14,2.14,0,0,1-.29,1.09,2.24,2.24,0,0,1-.79.8,2.2,2.2,0,0,1-1.09.29A2.17,2.17,0,0,1,144.4,218.15Z"/><path class="cls-3" d="M150.86,218.28a.17.17,0,0,1-.05-.12v-5.37a.33.33,0,0,1,.1-.25.35.35,0,0,1,.25-.1h1.47a1.91,1.91,0,0,1,1.66.94,1.88,1.88,0,0,1,0,1.91,1.95,1.95,0,0,1-1.66,1h-.81v1.92a.17.17,0,0,1-.18.17H151A.13.13,0,0,1,150.86,218.28Zm1.73-3a.93.93,0,0,0,.68-.28,1,1,0,0,0,0-1.35,1,1,0,0,0-.68-.28h-.77v1.91Z"/><path class="cls-3" d="M156.6,218.15a2.19,2.19,0,0,1-.8-.8,2.14,2.14,0,0,1-.29-1.09V214.5a2.17,2.17,0,0,1,.29-1.09,2.24,2.24,0,0,1,.8-.79,2.21,2.21,0,0,1,2.19,0,2.24,2.24,0,0,1,.8.79,2.17,2.17,0,0,1,.29,1.09v1.76a2.14,2.14,0,0,1-.29,1.09,2.18,2.18,0,0,1-1.9,1.09A2.17,2.17,0,0,1,156.6,218.15Zm1.68-.84a1.16,1.16,0,0,0,.43-.45,1.12,1.12,0,0,0,.16-.6V214.5a1.17,1.17,0,0,0-.16-.6,1.21,1.21,0,0,0-.43-.44,1.09,1.09,0,0,0-1.17,0,1.21,1.21,0,0,0-.43.44,1.17,1.17,0,0,0-.16.6v1.76a1.12,1.12,0,0,0,.16.6,1.16,1.16,0,0,0,.43.45,1.15,1.15,0,0,0,1.17,0Z"/><path class="cls-3" d="M160.71,218.28a.17.17,0,0,1-.05-.12v-.57a.17.17,0,0,1,.18-.17h.7v-4.07h-.7a.21.21,0,0,1-.13,0,.17.17,0,0,1-.05-.12v-.57a.21.21,0,0,1,.05-.13.2.2,0,0,1,.13,0h2.4a.2.2,0,0,1,.13,0,.21.21,0,0,1,0,.13v.57a.17.17,0,0,1,0,.12.21.21,0,0,1-.13,0h-.7v4.07h.7a.17.17,0,0,1,.18.17v.57a.17.17,0,0,1-.18.17h-2.4A.17.17,0,0,1,160.71,218.28Z"/><path class="cls-3" d="M164.6,218.28a.13.13,0,0,1,0-.12v-5.49a.2.2,0,0,1,.07-.16.21.21,0,0,1,.17-.07h.67a.27.27,0,0,1,.23.12l2,3.35.4.69v-4a.21.21,0,0,1,.05-.13.16.16,0,0,1,.12,0h.6a.16.16,0,0,1,.12,0,.21.21,0,0,1,.05.13v5.48a.24.24,0,0,1-.24.24h-.68a.27.27,0,0,1-.23-.12l-2-3.47-.32-.56v4a.19.19,0,0,1-.05.13.2.2,0,0,1-.13,0h-.59A.13.13,0,0,1,164.6,218.28Z"/><path class="cls-3" d="M171.6,218.28a.16.16,0,0,1,0-.12V213.4h-1.39a.17.17,0,0,1-.12-.05.13.13,0,0,1-.05-.12v-.62a.17.17,0,0,1,.05-.13.16.16,0,0,1,.12,0H174a.16.16,0,0,1,.12,0,.21.21,0,0,1,.05.13v.62a.17.17,0,0,1-.17.17h-1.39v4.76a.17.17,0,0,1-.17.17h-.66A.17.17,0,0,1,171.6,218.28Z"/><path class="cls-3" d="M177,218.23a.33.33,0,0,1-.1-.25v-.66a2.41,2.41,0,0,1,.17-1,1.64,1.64,0,0,1,.53-.65c.25-.18.65-.44,1.22-.77a1.32,1.32,0,0,0,.44-.39.82.82,0,0,0,.13-.46.69.69,0,0,0-.22-.55.89.89,0,0,0-.63-.21,2,2,0,0,0-1,.31.23.23,0,0,1-.11,0,.16.16,0,0,1-.15-.09L177,213a.13.13,0,0,1,0-.08.16.16,0,0,1,.08-.14,2.65,2.65,0,0,1,.74-.35,3.13,3.13,0,0,1,.86-.12,1.82,1.82,0,0,1,1.29.44,1.62,1.62,0,0,1,.46,1.22,1.58,1.58,0,0,1-.28,1,3.16,3.16,0,0,1-.92.81l-.33.2a4.14,4.14,0,0,0-.54.36,1.15,1.15,0,0,0-.32.34.92.92,0,0,0-.12.48v.24H180a.2.2,0,0,1,.13,0,.21.21,0,0,1,.05.13v.61a.17.17,0,0,1-.18.17h-2.76A.33.33,0,0,1,177,218.23Z"/><path class="cls-3" d="M181.81,217.66a4,4,0,0,1-.52-2.28,4,4,0,0,1,.53-2.28,1.95,1.95,0,0,1,3.1,0,4.09,4.09,0,0,1,.53,2.28,4.19,4.19,0,0,1-.52,2.29,2,2,0,0,1-3.12,0Zm2.17-.38a1.21,1.21,0,0,0,.34-.67,6.93,6.93,0,0,0,0-2.46,1.22,1.22,0,0,0-.34-.66,1,1,0,0,0-1.23,0,1.31,1.31,0,0,0-.33.68,5.25,5.25,0,0,0-.11,1.24,3.68,3.68,0,0,0,.25,1.6.93.93,0,0,0,1.42.27Z"/><path class="cls-3" d="M186.44,218.23a.34.34,0,0,1-.11-.25v-.66a2.57,2.57,0,0,1,.17-1,1.76,1.76,0,0,1,.54-.65,13.6,13.6,0,0,1,1.22-.77,1.27,1.27,0,0,0,.43-.39.83.83,0,0,0,.14-.46.7.7,0,0,0-.23-.55.89.89,0,0,0-.63-.21,2,2,0,0,0-1,.31.2.2,0,0,1-.11,0,.15.15,0,0,1-.14-.09l-.28-.5a.24.24,0,0,1,0-.08.15.15,0,0,1,.07-.14,2.59,2.59,0,0,1,.75-.35,3.06,3.06,0,0,1,.85-.12,1.82,1.82,0,0,1,1.29.44,1.63,1.63,0,0,1,.47,1.22,1.58,1.58,0,0,1-.28,1,3.45,3.45,0,0,1-.92.81l-.33.2a5.29,5.29,0,0,0-.55.36,1.26,1.26,0,0,0-.31.34.93.93,0,0,0-.13.48v.24h2.15a.16.16,0,0,1,.12,0,.17.17,0,0,1,.05.13v.61a.17.17,0,0,1-.17.17h-2.76A.32.32,0,0,1,186.44,218.23Z"/><path class="cls-3" d="M190.73,218.23a.33.33,0,0,1-.1-.25v-.66a2.57,2.57,0,0,1,.17-1,1.67,1.67,0,0,1,.54-.65,13.6,13.6,0,0,1,1.22-.77,1.38,1.38,0,0,0,.43-.39.83.83,0,0,0,.14-.46.7.7,0,0,0-.23-.55.89.89,0,0,0-.63-.21,2,2,0,0,0-1,.31.2.2,0,0,1-.11,0,.16.16,0,0,1-.15-.09l-.27-.5a.12.12,0,0,1,0-.08.15.15,0,0,1,.07-.14,2.59,2.59,0,0,1,.75-.35,3,3,0,0,1,.85-.12,1.82,1.82,0,0,1,1.29.44,1.63,1.63,0,0,1,.47,1.22,1.65,1.65,0,0,1-.28,1,3.36,3.36,0,0,1-.93.81l-.33.2a5,5,0,0,0-.54.36,1.3,1.3,0,0,0-.32.34.92.92,0,0,0-.12.48v.24h2.14a.18.18,0,0,1,.13,0,.21.21,0,0,1,0,.13v.61a.17.17,0,0,1,0,.12.15.15,0,0,1-.13.05H191A.33.33,0,0,1,190.73,218.23Z"/><path class="cls-3" d="M93.22,209.19l.82-.11c0,.13,0,.24,0,.36l.12.91c0,.31.09.61.12.91a.32.32,0,0,0,.17.28c.19.13.37.29.56.43l.12.09a10.73,10.73,0,0,0-.16-1.54c-.08-.51-.14-1-.2-1.55l.81-.1.52,3.94.83.64,0,0a2.45,2.45,0,0,1,0-.27,1.85,1.85,0,0,1,0-.23s0-.06,0-.08a9.91,9.91,0,0,1-.18-1.09l-.15-1.1c0-.24-.05-.48-.08-.72l-.09-.58-.06-.51s0,0,0-.09l.78-.1.21,1.54c.34-.4.63-.82,1-1.23l.61.47a.49.49,0,0,1,0,.11l-1.07,1.39-.24.31a.25.25,0,0,0,0,.22c0,.27.07.55.11.83l0,.14,1.9-2.5.64.49-.16.23-.77,1-.72.94-.71.94a.18.18,0,0,0,0,.13c0,.32.08.64.13,1,.12-.06.17-.17.24-.25s.23-.31.34-.46l.46-.6.74-1c.26-.33.51-.67.76-1,.1-.13.2-.27.31-.4l0-.05.63.48c-.29.42-.61.79-.91,1.22a4.42,4.42,0,0,0,.75-.08c.25,0,.49-.06.76-.1,0,.26.08.52.11.8l-.4.06-.91.12-.92.12a.23.23,0,0,0-.17.08l-.57.76s0,0,0,.05c.53,0,1-.13,1.55-.19l1.55-.21.1.8-.6.09-.71.09-.75.1-.86.12-.89.11a.27.27,0,0,0-.19.1c-.17.24-.35.47-.53.71,0,0,0,0,0,.09l4.68-.62c0,.16.05.3.06.45s0,.22,0,.34c-.5.1-1,.13-1.5.22v0l1.2.92-.49.64-.21-.15-.75-.58-.78-.6a.37.37,0,0,0-.31-.09c-.28,0-.57.08-.85.11l-.08,0c.42.35.84.65,1.25,1l1.25,1-.49.63-.39-.28-.83-.64-1.13-.87-.74-.56a.2.2,0,0,0-.18,0l-.52.06-.44.06,0,.07,1.1.85.9.69,1,.76.69.54-.48.64c-.42-.3-.8-.63-1.24-.94l.2,1.53c-.26.06-.52.08-.8.12,0-.15,0-.28-.06-.41l-.12-.91-.12-.95s0-.09,0-.11l-.81-.62h0l.42,3.07a3.18,3.18,0,0,1-.81.13l-.06-.42-.09-.7c0-.25-.07-.49-.1-.74s-.09-.7-.14-1.06-.07-.52-.1-.79a.41.41,0,0,0-.2-.35c-.21-.14-.41-.31-.61-.46l-.09-.1a1.29,1.29,0,0,0,0,.4c0,.25.07.5.1.74s.07.46.1.69l.06.53,0,.23c0,.32.08.65.13,1s.09.68.14,1c0,0,0,.08,0,.14l-.77.11c-.1-.5-.13-1-.23-1.53-.18.21-.32.42-.47.61l-.47.61-.64-.48a1.73,1.73,0,0,1,.15-.2c.24-.33.49-.65.73-1l.47-.61a.27.27,0,0,0,.07-.24c0-.27-.07-.54-.11-.81a.63.63,0,0,0,0-.14c-.34.41-.64.83-1,1.23s-.62.82-.94,1.24c-.24-.13-.42-.32-.65-.47l.16-.23c.36-.48.72-.95,1.09-1.42s.62-.81.93-1.21c.06-.07.1-.16.17-.23a.2.2,0,0,0,.05-.18c-.05-.32-.09-.64-.14-1a1.12,1.12,0,0,0-.25.28l-.75,1-.94,1.22-.7.93a3.65,3.65,0,0,1-.26.32l-.63-.48c.28-.41.6-.79.87-1.2-.49,0-1,.11-1.48.15l-.11-.8.1,0,.84-.11.76-.1.61-.08a.12.12,0,0,0,.08,0l.54-.72s0,0,0-.09h-.21l-1.17.16-1.06.15-.57.07s0,0-.07,0a6.3,6.3,0,0,1-.09-.8l.35-.05.86-.11.71-.1,1.35-.18.49-.06a.28.28,0,0,0,.23-.12l.54-.71s0,0,0,0h-.1l-.71.1-1.05.13c-.36.05-.72.11-1.08.15s-.49.06-.73.09l-.89.13h-.09l-.11-.8,1.52-.21a6.39,6.39,0,0,0-.61-.48l-.6-.47.5-.65.53.41,1.18.9,0,0a.3.3,0,0,0,.27.08l.84-.11.06,0s0-.06-.07-.08l-.82-.62-.69-.54-.7-.53-.17-.15.47-.62.11,0,1.2.92.86.67.9.69a.31.31,0,0,0,.22.07l1-.14-.31-.26-1-.77-1.33-1-1-.78c-.08-.06-.08-.08,0-.16s.27-.37.42-.57l1.21.92,0,0Zm1.5,5.07a4.34,4.34,0,0,0,.07.52.35.35,0,0,1-.08.31,1.58,1.58,0,0,0-.12.15c0,.1-.16.16-.18.29l.47.36A.19.19,0,0,1,95,216l0,.27c0,.1,0,.21,0,.32.18,0,.33,0,.48-.06a.38.38,0,0,1,.38.1l.38.29c.13-.17.26-.32.37-.48a.24.24,0,0,1,.15-.09l.43,0,.18-.05c0-.19,0-.37-.08-.55a.19.19,0,0,1,0-.2l.29-.4a.33.33,0,0,0,.06-.1c-.13-.1-.24-.2-.36-.28a.42.42,0,0,1-.22-.36.34.34,0,0,0,0-.1c0-.12,0-.24,0-.37l-.35,0c-.34.05-.34.05-.56-.11l-.06-.05-.3-.23,0,.07-.29.39a.28.28,0,0,1-.21.12l-.18,0Z"/><path class="cls-4" d="M96.22,216.36a1.37,1.37,0,0,1-.23-.17.31.31,0,0,0-.33-.07l-.24,0,0-.14,0-.21a.18.18,0,0,0-.1-.15l-.25-.21a2.6,2.6,0,0,1,.22-.3.19.19,0,0,0,0-.18,3.11,3.11,0,0,1,0-.32l.44-.08.27-.34a1,1,0,0,1,.2.15.38.38,0,0,0,.35.09,1.06,1.06,0,0,1,.26,0c0,.06,0,.11,0,.16A.49.49,0,0,0,97,215a1.27,1.27,0,0,1,.13.11,1.7,1.7,0,0,1-.15.22.31.31,0,0,0-.07.34.85.85,0,0,1,0,.23,1.38,1.38,0,0,1-.26,0,.32.32,0,0,0-.27.14C96.36,216.2,96.29,216.26,96.22,216.36Z"/></g><g id="background"><g class="cls-5"><path class="cls-4" d="M269.85,460a3.4,3.4,0,0,0,2.41-3.82c-.14-1.44,0-2.91-.05-4.37.12-4.17,2.15-8.36,0-12.5-1-1.87-1.38-4-3.36-5.4s-3.79-3.26-3.15-6.2a20.76,20.76,0,0,0,.49-3.41c.18-4.07-.05-8.1-3.82-10.69a3.78,3.78,0,0,1-1.72-3.71c0-4.56-.15-9.12-.25-13.68l-.36-.85-2-2.48v0c-.89-.89-1.75-1.81-2.67-2.66s-2.48-1.55-3-2.66a58.75,58.75,0,0,1-2.52-7.63c-1.6-5.48-2.64-11.19-4.83-16.42a164.21,164.21,0,0,0-18.29-31.93c-2.54-2.86-5.05-5.73-7.61-8.57-1.51-1.67-1.29-5.33.53-6.66,1.16-.86,1-1.64.29-2.73a12,12,0,0,1-1.1-2.82c-.52-1.59-.39-3.65-2.92-3.67-.31,0-.59-.49-.94-.64-.8-.35-1.63-.63-2.45-.94-.52,0-1.05,0-1.58,0-2.1-.09-2.41-.5-2-2.65.09-.59.19-1.18.27-1.78.73-5.4,1.45-10.8,2.2-16.19.11-.79.48-1.56.51-2.35.19-4.36.32-8.73.45-13.09.05-1.82.56-2.25,2.24-1.59a24,24,0,0,0,11.93,1.34,4,4,0,0,1,1.7.29c3.61,1.16,7.2,1.46,10.55-.63a38,38,0,0,0,4.18-3.46c3.42-1.35,6.94-2.5,10.25-4.08A49.64,49.64,0,0,0,274,243.09a140.25,140.25,0,0,0,7.36-13.94c1.64-3.38,2.9-6.94,4.39-10.4.5-1.14,1.59-1.82,2.42-2.69,1.45-1.5,2.28-3.6,3.33-5.48a12.13,12.13,0,0,0,1.68-3.43c.63-3.46,1.48-6.65,5.16-8.16.34-.14.57-.56.87-.84,2.38-2.28,4.68-4.66,7.19-6.8,2-1.75,4.35-3.17,6.48-4.81s4.63-2.49,5.84-5.13,2.72-5.12,4.12-7.65a2.21,2.21,0,0,0-1.82-3.45,18.76,18.76,0,0,0-2.28.12l3.91-7.3c.67-2.47-.44-3.56-3-2.91a5.57,5.57,0,0,1-.18-1.44c.15-1,.43-1.94.66-2.91-1.26-2.27-2.29-2.47-3.92-.46-2.57,3.18-5,6.5-7.47,9.76l-2.36,2.5-.57-.44,7-10.69c.91-1.39.29-2.68-1-2.8s-2.62.77-3.93,1.21c-1.09,1.27-2.26,2.48-3.26,3.82-3.83,5.12-7.93,9.81-14.33,11.9-3.34,1.09-3.26,1.32-4-2.2a5.73,5.73,0,0,0-.37-.94c.17-1.87.35-3.74.52-5.62,1.38-2.95-1.27-4-2.8-5.31-.75-.66-2.19-.55-3.11-.74-.28,2.15-.46,3.71-.68,5.27-.44,3.07-.27,6.42-1.5,9.14-1.74,3.85-.35,7.89-1.62,11.65a2.82,2.82,0,0,0,.37,1.76c.6,1.43,1.29,2.82,2,4.23a8.67,8.67,0,0,1-.59,2.37c-.51.88-1.39,1.54-2,2.39-3.45,5-6.82,10-10.34,14.86a11.32,11.32,0,0,1-3.18,2.68c-1.87,1.18-3.87,2.17-5.81,3.25L254,216a13.64,13.64,0,0,1-6.42,5,25.6,25.6,0,0,0-12.32,10.1A22.11,22.11,0,0,1,232,234.4a24.78,24.78,0,0,1-.72-2.39A25.54,25.54,0,0,0,225,219.49a4.22,4.22,0,0,1-1-2,67.9,67.9,0,0,1-1.05-6.79,67.65,67.65,0,0,0-4-18.52c-2.41-6.2-6.83-11-11.11-15.78-2.78-3.13-7.09-3.34-11-3.5-2.43-.1-4.71-.11-6.54-2-3-3-6.76-4.55-10.66-5.9a47.62,47.62,0,0,0-6.83-2.8c-3.24-.79-5.41-2.38-6.19-5.67.19-1.73.45-3.46.56-5.19.21-3.18,1.47-6.35-.1-9.57-.29-.6.17-1.61.39-2.41a42.76,42.76,0,0,0,1.62-5.74,77.45,77.45,0,0,0,.38-8.07c0-1.74,0-3.48,0-5.21l-.2-2.86c3,2.78,3,2.91,6.61,2.38,1.24-.19,2.34-1.23,3.55-1.74a16,16,0,0,0,8.59-9.42c1.57-4.1,4.77-7.06,6.48-11,1-2.28,2.71-4.25,2.7-7.11a16.63,16.63,0,0,0-4,2c-1.33.92-2.56,2-3.83,3-3.77,1.81-7.63,3.45-11.25,5.51-1.87,1.06-3.31,2.86-4.95,4.32l-.87,1.5.81-3.63c.43-.93.85-1.85,1.27-2.78l1.15-2.94c.21-1.2.53-2.4.62-3.62a8.06,8.06,0,0,0-2.23-6.45l-2.72-5.32c-.29-2.8-.74-5.59-.81-8.39a4.05,4.05,0,0,1,2.58-4c1.79-.8,3.27-1,5.07.22,2.89,2,5.22,1,5.64-2-.21-2.46-1.48-4.24-3.58-4.77a13.17,13.17,0,0,0-12.57,2.8c-6.06,5.49-7.54,12.43-6.38,20.22a82.58,82.58,0,0,1,1.25,9.35c.1,2.85-2.37,4-4.55,5.13a1.47,1.47,0,0,1-1.4-.29c-1.56-2.47-4.08-3.11-6.66-3.7-1.3-.29-2.56-.71-3.84-1.08-.47-.24-1-.77-1.41-.69-2,.38-4,.93-5.93,1.42a11.86,11.86,0,0,1-2.31-.49c-2.11-.88-2.92.07-3.1,2-.75-.17-1.94-.11-2.18-.55a23.84,23.84,0,0,1-2.49-6c-.42-1.92-.11-4-.12-6,.45-1.53.91-3.06,1.35-4.6,1.55-5.48,1.83-10.76-2.53-15.26-3-3.28-7.44-2.53-11.21-3.76l-2.55,2.18c-1,1.2-1.73,2.59-.74,4s2.44,1.2,3.87.79a7,7,0,0,1,1-.17c2.06-.28,3.94-.06,5.12,2a4.93,4.93,0,0,1-.26,5.7c-1.65,2.38-3.11,4.93-5,7.15-5,6-3.29,16.08,2.12,20.26l-2.56.09a11.9,11.9,0,0,1-1.57-1.52,11,11,0,0,0-9.23-4.95,18.11,18.11,0,0,1-3-.55l-9.72-3.64-6.17-2.57-.47.65c1.81,2.63,3.59,5.27,5.44,7.86a12.22,12.22,0,0,0,2.78,3.35c2.52,1.67,3.76,4.23,5.15,6.65,2.89,5,7.57,7.39,12.83,8.86a16.54,16.54,0,0,0,4.38.06c0,6,0,12,0,17.94a10.44,10.44,0,0,0,.84,3.28c.83,2.33,2.22,4.55,1.17,7.18.49,3.14.85,6.32,1.52,9.42.57,2.68,0,4.23-2.64,5.23s-5.51,1.81-8.21,2.87c-3.61,1.43-7.56,2.33-10.14,5.56a4.46,4.46,0,0,1-4.06,1.69A27.24,27.24,0,0,0,84,173.4,20,20,0,0,0,78.76,177c-3.23,2.93-5,6.85-6.94,10.66C69,193.34,66.25,199,65.1,205.34a5.18,5.18,0,0,0-1.35.82c-3.18,3.76-6.45,7.46-7.68,12.43a6.7,6.7,0,0,1-1.17,1.82l-1.61-1.65a6.87,6.87,0,0,0-1.11-1.61c-4.09-3.39-8.15-6.84-12.38-10.05-2.55-1.94-5.14-3.55-7-6.48C30,196,26.35,191.89,23,187.56c-2.05-2.68-4.27-5.29-3.82-9,2.71-4.67,1.81-9.16-.64-13.61a16.49,16.49,0,0,1-1.39-3.3c-.43-1.41-.21-3.35-1.1-4.21-1.68-1.64-1.68-3.57-2-5.5-.4-2.33-1.75-2.85-3.81-1.41A7.59,7.59,0,0,0,9,152.61a14.28,14.28,0,0,0,1.23,9.33L10,164.85a12.49,12.49,0,0,1-2-1c-5-4.1-9.67-8.35-11.77-14.8a51.71,51.71,0,0,0-3.69-7.65,2.28,2.28,0,0,0-3.41-1.06,7.19,7.19,0,0,0-.26,2.48c1.19,4.4,2.5,8.77,3.78,13.14.29,1,.62,2,.93,3l-.57.33-2.67-3.79c-1.23-2.48-2.32-5-3.73-7.41a21.43,21.43,0,0,0-3.77-4.61c-.45-.42-1.73.06-2.62.12v4.82l-1.15.14c-1.82.53-1.91,1.75-1.31,3.25l1.91,6c-3.74.23-4.17.9-2.68,4.29,1.33,3,2.92,5.94,4.17,9a17,17,0,0,0,4.19,6.29c3,2.78,5.77,5.79,8.67,8.68,2.56,2.55,5.16,5,7.75,7.58.66,1.33,1.27,2.69,2,4,1.2,2.11,2.74,4.06,3.67,6.27,2.73,6.46,5.06,13.09,7.88,19.51,2.47,5.61,5,11.24,9.08,15.94,3.3,3.82,6.84,7.44,10.27,11.14a5.59,5.59,0,0,0,5.28,3.25,32.1,32.1,0,0,1,2.58,2.22c2.83,3,6,4.8,10.25,3.23a7.34,7.34,0,0,1,2-.07l11.73-.85,4.57-.32c.05.72.14,1.37.14,2,0,4.57,0,9.15-.09,13.72a42.83,42.83,0,0,1-.37,5.78c-.36,2.36-1,4.67-1.49,7-.43,2.11-.65,4.28-1.23,6.34a4.16,4.16,0,0,1-1.83,2.56,64.78,64.78,0,0,1-6.52,1.83c-.43.12-1.12.51-1.11.74.09,1.9-1.61,2.63-2.39,3.95a3.26,3.26,0,0,0-.45,2.09c.46,2.08,1.12,4.12,1.7,6.17a18.26,18.26,0,0,1-1.06,1.68c-1.28,1.62-2.59,3.2-3.89,4.8-2.31,2.47-4.65,4.91-6.92,7.41-2.55,2.8-5.18,5.53-7.5,8.51a106.21,106.21,0,0,0-6.3,9.26c-2.24,3.61-4.43,7.26-6.39,11a148.5,148.5,0,0,0-6.57,13.86c-1.45,3.66-2.11,7.63-3.25,11.42a4.1,4.1,0,0,1-1.66,2c-2.06,1.35-4.25,2.52-6.37,3.79-.49.3-1.24.65-1.33,1.08-.58,2.95-1.5,5.92,0,8.88a15.15,15.15,0,0,0-.55,3.89c.38,3.12-.62,5.19-3.71,6.15A4.19,4.19,0,0,0,0,405c-.82,1-1.94,2.19-2,3.36-.33,3.75-.18,7.53-.37,11.29a3.15,3.15,0,0,1-1.24,2.18c-1.82,1.2-3.82,2.11-5.7,3.22a3.68,3.68,0,0,0-1.88,3.53c.09,5.92.08,11.84,0,17.76a3.71,3.71,0,0,0,2.43,3.77c3.57,1.6,7.08,3.35,10.71,4.82,4.31,1.75,8.84,3,13.05,4.94,7.23,3.34,15,5,22.54,7.09l.42.32c3.21.89,6.41,1.81,9.62,2.68C53,471.39,58.43,473,63.94,474.2c5.24,1.16,10.56,2,15.87,2.78,7.94,1.2,15.89,2.25,23.83,3.37l3.7.34a298.92,298.92,0,0,0,41,2l5.67-.36a9.38,9.38,0,0,0,2.11.38q6.94-.45,13.87-1c4-.33,8-.72,12-1.08h.92c3.68-.42,7.37-.8,11-1.28a364,364,0,0,0,41.29-7.66l30.85-8.89a10.82,10.82,0,0,0,2.51-.59c.49-.24.76-.95,1.13-1.46Z"/><path class="cls-6" d="M65.1,205.34c1.15-6.3,3.85-12,6.72-17.65,1.93-3.81,3.71-7.73,6.94-10.66A20,20,0,0,1,84,173.4a27.24,27.24,0,0,1,12.08-2.16,4.46,4.46,0,0,0,4.06-1.69c2.58-3.23,6.53-4.13,10.14-5.56,2.7-1.06,5.5-1.85,8.21-2.87s3.21-2.55,2.64-5.23c-.67-3.1-1-6.28-1.52-9.42l4.18.29c-3.17,2.83-1.35,5.75-.81,9.39l4.3-3.14.44,1.09c-1,1.58.06,1.66,1.21,1.7l.07.79c-.57.21-1.18.68-1.7.59-1.33-.24-1.17.45-.84,1.17.83,1.85,2,.79,3.13.31l.64,1.36,1.57-2.07,1.24,1.46.51-1.2.54.13-.32,1.9a1.34,1.34,0,0,1-.35,0,2.22,2.22,0,0,0-2.44,2.35,34.49,34.49,0,0,0,.35,4.42h2.62l.05-.5-1.66-.61.62-1.59c1.24-.66,2.62-.59,3.16.64,1.17,2.65,2.45,5.45.17,8.23-1.53,1.35.51,2.07.6,3.58l-4.41-.21,1.85,2.54,4.42-3.17.56.88c.69-2.21,1.76-1.22,2.71-.47l3.67-2,.62,1.13-1.6.66,2.46.27-1.22.76.13.38,4.7-.86-.75,1.5,3.16-2.31.21.29L151.48,178c2.58-.14,3.4-.92,4.2-3.45l1.22-.05c.82,2.37.29,3.93-2.22,4.7-2.76.84-3.79,2.91-5.1,5.13s-3.42,4.2-5.13,6.29c-1.53,1.87-3.26,3.35-5.84,3.38l-.73-.7c-.32-.32-.63-.86-1-.9a11.94,11.94,0,0,0-2.45.18l.46,1.48,2.12.22,0,.4h-4.27l1-.6-.16-.71-4,.63-1.86-1.24-.44-1.62.13-2.51-.74-.19-1,1.87c-.68,1.38-1.55.73-2.7.59a3.66,3.66,0,0,1-3.07-2.38l-7.43-.91-.61,1.57c-.27-.87-.47-1.51-.78-2.53l-1.1,2.79-.26-3.17-.43,0-.24,2.2-.26,0-.78-2.58-.52.13v3.2h-.35l-.43-3-.51.06-.22,3.46-.41,0-.44-3.7-.42.05-.3,3.34-.64.19-1.19-2.77a4.41,4.41,0,0,0,1,5.05c1.31,1.24,3.18,2.25,2,4.73l-.47-2.15-.51.07v3.22h-.24l-.73-1.93-.7,2.27-.74-1.26-.09.56-6.52.41c-.23.84-.23,1.52-.58,1.92s-1,.56-2,1l2.48.17-1.3,1.19,2.36-.18-1.39,1.24,1.51.37-1,1.31c2.76-.23,4.08.78,3.94,2.86l1.77-.18L100,209l1.74-.32-.51,1.26,2-.59c.57,1.53,1.07,2.91,1.58,4.29l.58,0c.62-1.77-.29-4.48,2.71-4.92.11,2.24,2.66,4,1,6.52-.12.18.44.77.63,1.19s.48.94.34,1.13-.77.37-1.18.49-1,.2-1.42.3l.06.46,4.07.49c-1.59,1.89-3,3.36-4.15,5-.78,1.11-2,2.28-.67,3.88a37.24,37.24,0,0,1,3,3.94,1.67,1.67,0,0,1-.49,1.56,5.41,5.41,0,0,1-2.18.17c-3.32,0-6.63-.07-9.94,0-1.25,0-3.07,2.18-2.82,3.19-5.46,2.77-11.38,1.74-17.17,2l.31-.74-10.42,1.09-.12-.49,1.06-1.14-1.7.19a67.61,67.61,0,0,0,2.18-6.64,70.14,70.14,0,0,0,.93-7c-2.78.18-4.26,2.15-6,3.8,0,0,0,.25.08.37.57,1.34.63,2.6-.58,3.67l-1.34-1.61-.23,1.42-4.19-3.64,1.93-.69c-.18-.31-.31-.84-.54-.89-.91-.21-1.88-.19-2.79-.4a1.61,1.61,0,0,1-.78-.86c1.42-2-.39-3-1.36-4.09a2,2,0,0,1-.46-2.61l1.61,1.65L56,222.52c.63-1.13,1-2,1.52-2.71,1.48-2.31,2.54-5.18,4.6-6.73,2.41-1.81,2.79-3.84,2.85-6.35C65,206.27,65.06,205.8,65.1,205.34Zm24,11a13,13,0,0,0-1.23,3.31c-.06.85.43,2.41.93,2.53a15.76,15.76,0,0,0,4.33-.08c.1,0,.26-.46.26-.71-.06-2.21,0-4.44-.28-6.63a2.62,2.62,0,0,0-4-1.76,4.34,4.34,0,0,0-1.23,1.91c-.08.17.49.86.58.83.62-.24,1.2-.61,1.8-.91.1,0,.25,0,.42,0C91.25,216.78,89.78,216.31,89.12,216.36Zm6.29,10.56c-1.81,4.6-1.81,4.6-3,4.93l.29-4.63h-.87l.28,2.31-.26.09-1.45-2.74a13.23,13.23,0,0,1-.58,2.86,9,9,0,0,1-1.53,1.8c2,1,1.92-.77,2.33-1.82.19.32.34.45.32.54-.21.9-.43,1.79-.65,2.69,3,.69,4.07.39,5.27-1.62A3.89,3.89,0,0,0,95.41,226.92Zm-19,.56L74.52,227l-.11.82c.76,0,1.94.37,2.2,0a3.13,3.13,0,0,0,.62-2.61,20.72,20.72,0,0,0-3.08-3.95,1.5,1.5,0,0,0-1.33-.37,30.25,30.25,0,0,0-3,1.48c2.91-1,3.17,2.25,4.75,3l-1.41.86C75.88,226.37,75.88,226.37,76.46,227.48Zm6.25-.65-1.27,4.62c1.42,1.43,3,2.49,4.57.52,1.08-1.34.72-2.79-.16-4.24L84.5,231.8C83.91,230.18,83.41,228.78,82.71,226.83Zm20.33.72-.36,0-.62,5.75c.73-.11,1.61,0,2.11-.38s.41-1.28.25-1.86A35.67,35.67,0,0,0,103,227.55Zm-4.69-.31c-.35,2.13-.63,3.77-.95,5.72.51-.36,1.4-.67,1.77-1.3C100,230.28,99.7,228.88,98.35,227.24Z"/><path class="cls-6" d="M179.66,165.08c3.9,1.35,7.7,2.87,10.66,5.9,1.83,1.86,4.11,1.87,6.54,2,4,.16,8.27.37,11,3.5,4.28,4.81,8.7,9.58,11.11,15.78a67.65,67.65,0,0,1,4,18.52,67.9,67.9,0,0,0,1.05,6.79,4.22,4.22,0,0,0,1,2A25.54,25.54,0,0,1,231.3,232a24.78,24.78,0,0,0,.72,2.39,22.11,22.11,0,0,0,3.24-3.31A25.6,25.6,0,0,1,247.58,221a13.64,13.64,0,0,0,6.42-5,4.9,4.9,0,0,1-.08.77c-.79,2.63-4.17,4.25-3,7.67l-.85-1.2c.1,1.78.18,3.12.26,4.45h-.27l-.79-3.24-.54.13,2,14.76.8-.08c.3-3.23-1.22-6.34-.9-9.59q1.32,7.06,2.65,14.14h.48v-6.56h.36l.39,2.56.42,0c.14-.7.27-1.4.4-2.1l.29,0,.57,2.7.39-.06v-3.56h.3l.61,2.4.56-.11-.21-3.13h.22l.71,1.9.35,0,.38-2.36c.37,1.16.58,1.82.84,2.62l1.06-.86.87,1.32c.12-1.23.19-2,.31-3.2.42,1.24.71,2.07,1,2.91l.47,0c.05-1.1.1-2.19.17-3.56.42.79.7,1.3.87,1.63,5.26-4.28,7.73-10.56,11.58-15.89l.7.57,1.26-4.44,1.23,1.07-.19-1.62c1.58.1,2-.87,2-3.14a21.18,21.18,0,0,1,.83-4.25l.6.79c.07-.84.12-1.46.17-2.08l.38.34c.54-.57,1.36-1,1.55-1.72a12.5,12.5,0,0,0,.07-3.22l1.26,2.28.19-1.26,1.33.56,1.4-2.25-.79-.9c1.63-1.29.95-3.08,1-4.7a6.23,6.23,0,0,1,1.14-.47,24.46,24.46,0,0,0,2.31-1.22,7,7,0,0,0,3.62-3.19c.42-.7,1.61-.95,2.48-1.42l.47.44c.73-.88,1.18-1.86,1.94-2.27,1.28-.69,3.14-.64,4-1.59,1.34-1.4,3.1-1.54,4.55-1.86a11.38,11.38,0,0,0,6.78-4.7,74.6,74.6,0,0,0,4.69-7.8,1.16,1.16,0,0,0,0-1.05,1.37,1.37,0,0,0-1.09-.14c-2.29.52-2.9,2.61-4,4.27a13.58,13.58,0,0,1-1.9,1.84c-.6,3.06-3.86,3.36-6.5,4.38-.43.16-1.13-.36-2-.67,7.27-4.88,11.05-12,15.09-19l1.29,1.15-3.91,7.3a18.76,18.76,0,0,1,2.28-.12,2.21,2.21,0,0,1,1.82,3.45c-1.4,2.53-2.91,5-4.12,7.65s-3.79,3.54-5.84,5.13-4.45,3.06-6.48,4.81c-2.51,2.14-4.81,4.52-7.19,6.8-.3.28-.53.7-.87.84-3.68,1.51-4.53,4.7-5.16,8.16a12.13,12.13,0,0,1-1.68,3.43c-1,1.88-1.88,4-3.33,5.48-.83.87-1.92,1.55-2.42,2.69-1.49,3.46-2.75,7-4.39,10.4A140.25,140.25,0,0,1,274,243.09a49.64,49.64,0,0,1-20.79,18.3c-3.31,1.58-6.83,2.73-10.25,4.08l2.53-2.86-2.23-1.21c-.43.84-.8,1.54-1,2-.67-.91-1.06-1.94-1.79-2.34-1.06-.59-4.5.92-5.09,1.95l1.8.73-3.15,1,.31-1.84c-1.17.44-2.2,1.57-3.1-.09l-.91,1.47-.44-.14v-2.71h-.29c-.2.95-.41,1.9-.62,2.83-2.23-.35-3.7.39-3.92,1.87l1.2-.67.39.6-4.14,3c-.12-1.43-.2-2.29-.28-3.19l-1.38-.25c2.12-2.74,1.58-5.73,1.5-8.64.19-.41-.53-1.47.95-1,.68.23,1.74-.64,2.7-1l.49.82L228.4,253l-.76,0-2-1.45V248.2l-.31,0c-.18.83-.35,1.65-.52,2.48l-.37,0-.18-3.82-.3,0c-.22.67-.45,1.34-.78,2.3-.08-1.07-.14-1.8-.19-2.36l-2.07-.54v-5.7c-.82-.73-1.65-1.45-2.53-2.22l-1.1.56c-3-2.4-2.66-5.81-3.41-9.07l1,.31,1.69-3.54c0-2,.16-4,2.42-5.84l-2.8.76c-.15-2.06-.16-3.94-.48-5.77-.15-.81-.94-1.51-1.44-2.26l-1.66-.77c-.11-1.57-.23-3.15-.34-4.73l-.4-.09-.58,2.88-.21,0L210.7,208l-.4,0c-.13.78-.26,1.56-.49,2.92-.37-1.39-.59-2.2-.87-3.27l-.52,1.29-.49-.19c.42-1.16.83-2.33,1.25-3.5l-.34-.14-3.2,5.23-.8-1.31c-.24,1-.42,1.78-.72,3-.27-1.18-.43-1.89-.59-2.61l-.46,0c-.21,1-.43,2.06-.69,3.3l-1-2.21-1.18,2.65c-.36-1.68-.61-2.83-1-4.5-.46,1.26-.8,2.17-1.06,2.91-2.61-3.13.79-5.35,1.7-8v2.06c1-1.3,1.63-5.72,1-6.6-.18-.23-.86-.09-1.4-.12-.66-2.57-1.33-5.22-2-7.87H197l.46,4.28-.35,0-1.51-7c-.75,1.21-.62,3.62-3.19,3.41.79,4.62-1.91,8-6.29,7.88-.38-1.48-.78-3-1.17-4.52h-.28v2.58l-.39,0c-.94-2.45-1.87-4.9-2.79-7.29l-.35,1.29c-.61-.63-1.69-1.23-1.88-2-.37-1.61-2.21-2.27-2.18-4.14a50.19,50.19,0,0,0-.64-5.83c-.11-1.06-.12-2.12-.17-3.18l-.51,0-.18,2.49c-1.35-.87-3-1.42-2.64-3.59l-.94,2.38c-.26-1.88-1-3-2.91-3-.26,0-.53-.57-.79-.87.33-.94.66-1.88.83-2.35a27.69,27.69,0,0,0,2.48-1.31c1.21-.82,2.36-1.72,3.53-2.59-.18,1.1-.36,2.2-.53,3.21,2.05.48,1.24,2.66,2.3,3.87.25-.62,0-1.46.3-1.78,1.66-1.8.32-2.24-1.16-2.64,2.28-2.86,2.28-2.86,1.76-4l-2.67,1.33,1.19-2.49Zm47.45,93.8a26.58,26.58,0,0,0-2.62,1.69,2.33,2.33,0,0,0-.7,1.35c0,.22.5.8.67.76a2.08,2.08,0,0,0,1.28-.73A29.45,29.45,0,0,0,227.11,258.88Z"/><path class="cls-6" d="M127.25,153l-4.3,3.14c-.54-3.64-2.36-6.56.81-9.39l-4.18-.29c1-2.63-.34-4.85-1.17-7.18a10.44,10.44,0,0,1-.84-3.28c-.08-6,0-11.93,0-17.94a16.54,16.54,0,0,1-4.38-.06c-5.26-1.47-9.94-3.82-12.83-8.86-1.39-2.42-2.63-5-5.15-6.65a12.22,12.22,0,0,1-2.78-3.35c-1.85-2.59-3.63-5.23-5.44-7.86l.47-.65,6.17,2.57c.28.86.57,1.71.93,2.79l-.26.39a14.44,14.44,0,0,0,1.32,1.44c.81.65,1.61,1.58,2.52,1.75,1.36.24,1.4,0,1.42,1.28a4.65,4.65,0,0,0,.15.75l.67-1.66,2.87,3.38.57-1.1,2.57,3c1.9-.75,4.29,1.78,6.42-1.41-1-.76-2.87-1.47-3.39-2.73-.73-1.78-2-1.89-3.35-2.47a22.2,22.2,0,0,1-2.72-1.72,18.11,18.11,0,0,0,3,.55,11,11,0,0,1,9.23,4.95,11.9,11.9,0,0,0,1.57,1.52,17.56,17.56,0,0,1-1.34,1.26c-1.11.85-2.33,1.6-2.21,3.32,2.13-1.24,3.59-3.77,6.82-2.38l-.71-2.29c-5.41-4.18-7.09-14.3-2.12-20.26,1.85-2.22,3.31-4.77,5-7.15a4.93,4.93,0,0,0,.26-5.7c-1.18-2-3.06-2.23-5.12-2a7,7,0,0,0-1,.17c-1.43.41-2.94.56-3.87-.79s-.3-2.83.74-4c-.12,2.54,1.94,2.42,3.51,2.82,2.23.56,4.49,1,6.72,1.53.91.22,1.79.56,2.68.85l.85-3.62c4.36,4.5,4.08,9.78,2.53,15.26-.44,1.54-.9,3.07-1.35,4.6-.28,2.71-.57,5.41-.81,7.68-1.3-3.21.51-7,0-10.72L126,85.75l-.43-.52c-.23.16-.6.28-.67.49a37.44,37.44,0,0,0-1.59,5.3c-.35,2.11,1.84,6.13,3.37,6.69l5.51,2c-2.51,1.93-3,3.38-1.42,5l.71-1.55c1.39,1.47,2.65,0,3.9,0l1.82-.14.07.59a19.45,19.45,0,0,1-2.68.67c-2.9.33-4,1.52-4.21,4.87l2.19-1.58.12.76,3.83-2.93.44.47c-1.59,1.93-4.21,3.27-3.81,6.19.69-.5,1.36-1,2-1.46s1.86-1.13,2-1.83c.49-2.79,2.62-2.37,4.47-2.64l-3.5,1.73.1.5,2.67.36L139,110.29a11.67,11.67,0,0,0-.94.77c-1.2,1.26-2.14,2.71-1.56,4.5.19.58,1.11.91,1.7,1.36a7.31,7.31,0,0,0,.81-1.57c.24-1,.33-2,.48-3l.32,1.2a3.8,3.8,0,0,0,2.12,4l-.41-2c.48-3.3,2.71-4.77,5.71-5.45l-2.34-.44,3.1-.92c-1.12-1.73-2.46-.74-3.39-.29a11.07,11.07,0,0,0-2.49,2.35c-.15-2.09.85-3.17,3.58-3.77,1.83-.4,1.94-.73,1-1.79l-2.92,1.82c.67-1.25,1.53-2.13,1.5-3s-.95-1.68-1.3-2.25c.7-.2,1.73-.2,2.12-.7a3.87,3.87,0,0,0,.31-2.36,29.26,29.26,0,0,0-.48-3.05c1.28.37,2.54.79,3.84,1.08,2.58.59,5.1,1.23,6.66,3.7a1.47,1.47,0,0,0,1.4.29c2.18-1.1,4.65-2.28,4.55-5.13a82.58,82.58,0,0,0-1.25-9.35c-1.16-7.79.32-14.73,6.38-20.22.13.75.25,1.5.36,2.12,2.26-.2,4.84-.55,7.42-.6a6.25,6.25,0,0,1,3.33,1,3.57,3.57,0,0,0,5-.53c-.42,3.07-2.75,4-5.64,2-1.8-1.24-3.28-1-5.07-.22a4.05,4.05,0,0,0-2.58,4c.07,2.8.52,5.59.81,8.39a7.07,7.07,0,0,1-1.6-.81c-.43-.37-.62-1.35-1-1.39-1.85-.19-1.41-1.16-1-2.3.49-1.45-.66-3.69-1.64-3.94V78.1c.57,1.1,1.32,2.55,2,3.75L165.3,85l2.5,2.63a13.61,13.61,0,0,1,.55,8.93,5.46,5.46,0,0,0,.19,3.89,12.06,12.06,0,0,0,1.94,2.63c.1-.08.48-.68.87-.69,1.75,0,2.24-1.23,2.66-2.56l.38.82c-.42.93-.84,1.85-1.27,2.78l-3.3,2.3.13.73,2.36.6.87-1.5,1.83,3.32.76-.81.28.91,4.29-1.47.44.72c1.12-1.47,2.16-2.79,3.14-4.16,1.46-2,2.9-4.09,4.3-6.16a21.62,21.62,0,0,0,1.16-2.18c1.27-1,2.5-2.07,3.83-3a16.63,16.63,0,0,1,4-2c0,2.86-1.7,4.83-2.7,7.11-1.71,3.94-4.91,6.9-6.48,11a16,16,0,0,1-8.59,9.42c-1.21.51-2.31,1.55-3.55,1.74-3.62.53-3.63.4-6.61-2.38l.2,2.86-3.06-2.56,1-1.14-3.74-.68c-1.63-.49-3.28-.93-4.89-1.48-1.15-.4-2.25-1-3.76-1.59l1,1.69-2.37-1,.13,1-1.91-.44,1.78,1.61c-2.9,0-3.1,2.48-4.66,3.79l-1.34-.55-.09,1.09-1.77-.36c.06.5.28,1.1.13,1.22-2.58,1.93-5.58,2-8.38,1.72a6.72,6.72,0,0,0-.62-.91c-.36-.36-.82-.63-1.16-1s-.45-1-.82-1.18a17.87,17.87,0,0,0-2.59-.86l1.62-.82-.08-.27-2,.14c.18-.88.34-1.63.52-2.52l-3.15.26-.07-.26,1.64-.73-.1-.32-4.43.55c-.44,2.66-.9,5.46-1.36,8.32l.36.11-1.36,1.68,2.34-.54-2,1.78,1.94-.53.1.27-1.87,1.18c2.11,2.1,3.8,4.79,7.08,3.45a29,29,0,0,1,1.71,3.23c.59,1.57,1.44,2.73,3.22,2.92s2.62-.93,3.26-2.44a4.61,4.61,0,0,1-.62,2.51,2.36,2.36,0,0,0-.41,2.88,4.79,4.79,0,0,1,.28,2.61c-.27,2-1,4.08-1,6.12,0,3.32.42,6.64.51,10,0,1.61.46,3.48-1.23,4.5l-2.48-1.35.44-.82-1.49-.39.32-1.9-.54-.13-.51,1.2L131.77,158,130.2,160l-.64-1.36c-1.11.48-2.3,1.54-3.13-.31-.33-.72-.49-1.41.84-1.17.52.09,1.13-.38,1.7-.59,1.33-1.13,3-2.06,3.91-3.46a39.48,39.48,0,0,0,2.8-6l-.63-.06v-3a4.1,4.1,0,0,0-.91.32,11.28,11.28,0,0,1-4.29,1.71c-1.41.22-3.81-.09-4.25,2.65l1.88-.8c-1,1.44-1.78,2.66.1,3.36Zm-11.39-42.7c1.32-1.43,2.31-3,4.13-2.3l-2.7,1.27.21.58c1.82-.18,3.65-.29,5.46-.58,1.29-.21,1.47-1.07,1.07-2.28s-1.21-1.23-2.23-1.06-1.87.2-2.81.31A3.32,3.32,0,0,0,115.86,110.31Zm34.77-9.62c.21,1.25.33,2,.47,2.82.28,1.54,1.62.93,2.51,1.12.18,0,.56-.88.88-1.4l-1.51-1,1.26-.41v-.56Z"/><path class="cls-6" d="M163.73,116l3.74.68-1,1.14,3.06,2.56c0,1.73,0,3.47,0,5.21a77.45,77.45,0,0,1-.38,8.07,42.76,42.76,0,0,1-1.62,5.74c-.22.8-.68,1.81-.39,2.41,1.57,3.22.31,6.39.1,9.57-.11,1.73-.37,3.46-.56,5.19l-.5-1.14-2.25.59c.07.31.17.82.33,1.59-1.41-.79-2.6-1.89-3.56.07-.07.15-.63.06-1,.08-.32-1.57.7-2.07,1.88-2.6a7.72,7.72,0,0,0,1.66-1.39c-.76-.86.21-.86.54-1.27,1-1.3,2.23-2.57,2-4.45,0-.33-.13-.76,0-1,1-1.28,1.32-2.71.34-4a33.37,33.37,0,0,0-3.48-3.56c-.06-.06-.35.12-.52.18.19,3-.23,4.8-2.81,5.33,2.11-1.39-.24-1.55-.17-2.38l1.26-1.46a21.68,21.68,0,0,1-4.51,1.47,18.66,18.66,0,0,1-4.33-.57l-.1.39,4.56,1,.09.49-6.11,3.46-.88,2.23,2.62,6.94-2.34,1.15A26.8,26.8,0,0,1,152.1,159c.33.18.48.66.71,1h-3.16c-1.29,2.22-3.57,3.28-5.48,2.52.19-1.33.48-2.65.54-4,.09-1.79,0-3.59,0-5.39,0-3.34-.05-6.68,0-10a27,27,0,0,0,.23-4c-.34-2.34,1.31-2,2.58-2.3.39-.11.59-.85.92-1.25,1.1-1.33,2-3.06,3.4-3.85,1.82-1,4.06-1.28,6.14-1.8a3.4,3.4,0,0,1,1.58.07c1.74.39,3.46.85,5.07,1.25L167,128l-1.21-1.43,2.42,1,.2-.45-3.25-3.92.85-.62c-1.14-1.54-4.33-1.75-2.86-4.73l-1.59-1C162.12,115.87,163.71,118.39,163.73,116Zm-.11,20.66c.13-.78.74-2,.36-2.66a5,5,0,0,0-5.41-2.49c-1,.18-1.77,1.36-2.55,2Z"/><path class="cls-6" d="M159.69,157.8c.34,0,.9.07,1-.08,1-2,2.15-.86,3.56-.07-.16-.77-.26-1.28-.33-1.59l2.25-.59.5,1.14c.78,3.29,3,4.88,6.19,5.67a47.62,47.62,0,0,1,6.83,2.8h-3.3l-1.19,2.49h0c-1.17.87-2.32,1.77-3.53,2.59a27.69,27.69,0,0,1-2.48,1.31c-.17.47-.5,1.41-.83,2.35l-.77,1.41c-.37-.25-.89-.41-1.08-.76-.56-1-1-2.13-1.55-3.42-.61,2.43-2.23.65-3.25,1.4-.21-1.21-.37-2.18-.47-2.77l-3.15,3.61c1-1.75,1.75-3.66.21-5.34a4.14,4.14,0,0,1-1.42-3.6l2.06-1.41c-1-1.58.64-2.26,1.6-3-.31-.81-.56-1.47-.82-2.13Z"/><path class="cls-7" d="M139,110.29l1.85-1.66-2.67-.36-.1-.5,3.5-1.73c-1.85.27-4-.15-4.47,2.64-.13.7-1.27,1.25-2,1.83s-1.29,1-2,1.46c-.4-2.92,2.22-4.26,3.81-6.19l-.44-.47-3.83,2.93-.12-.76-2.19,1.58c.18-3.35,1.31-4.54,4.21-4.87a19.45,19.45,0,0,0,2.68-.67l-.07-.59-1.82.14-2.65-1.41a17.2,17.2,0,0,1,1.75-.76c.51-.16,1.06-.23,2.12-.45l-3.1-.72c2.39-2.32,4.77-2,6.56.43a1.85,1.85,0,0,0,1.58.56,8.07,8.07,0,0,0,2-1.18L141.52,99l2.71-.92c-2-.31-4.09,1.17-5.61-1.15v-.41c2-.49,3.94-1,5.93-1.42.41-.08.94.45,1.41.69a29.26,29.26,0,0,1,.48,3.05,3.87,3.87,0,0,1-.31,2.36c-.39.5-1.42.5-2.12.7.35.57,1.27,1.39,1.3,2.25s-.83,1.73-1.5,3l2.92-1.82c.89,1.06.78,1.39-1,1.79-2.73.6-3.73,1.68-3.58,3.77a11.07,11.07,0,0,1,2.49-2.35c.93-.45,2.27-1.44,3.39.29l-3.1.92,2.34.44c-3,.68-5.23,2.15-5.71,5.45-.06,0-.1.1-.16.11s-.16,0-.16,0c0-.83,0-1.66,0-2.69l-1.38.63c-.11-.4-.22-.8-.32-1.2L138,113.47Z"/><path class="cls-7" d="M103.31,96.85A22.2,22.2,0,0,0,106,98.57c1.3.58,2.62.69,3.35,2.47.52,1.26,2.38,2,3.39,2.73-2.13,3.19-4.52.66-6.42,1.41l-2.57-3-.57,1.1L100.34,100l-.67,1.66a4.65,4.65,0,0,1-.15-.75c0-1.28-.06-1-1.42-1.28-.91-.17-1.71-1.1-2.52-1.75a14.44,14.44,0,0,1-1.32-1.44l.26-.39c-.36-1.08-.65-1.93-.93-2.79Z"/><path class="cls-7" d="M189.38,95.69a21.62,21.62,0,0,1-1.16,2.18c-1.4,2.07-2.84,4.12-4.3,6.16-1,1.37-2,2.69-3.14,4.16l-.44-.72-4.29,1.47-.28-.91-.76.81-1.83-3.32c1.64-1.46,3.08-3.26,4.95-4.32C181.75,99.14,185.61,97.5,189.38,95.69Z"/><path class="cls-7" d="M183.69,68.08a3.57,3.57,0,0,1-5,.53,6.25,6.25,0,0,0-3.33-1c-2.58.05-5.16.4-7.42.6-.11-.62-.23-1.37-.36-2.12a13.17,13.17,0,0,1,12.57-2.8C182.21,63.84,183.48,65.62,183.69,68.08Z"/><path class="cls-7" d="M132.17,99.7l-5.51-2c-1.53-.56-3.72-4.58-3.37-6.69a37.44,37.44,0,0,1,1.59-5.3c.07-.21.44-.33.67-.49l.43.52,1.63-3.28c.51,3.77-1.3,7.51,0,10.72.24-2.27.53-5,.81-7.68,0,2-.3,4.09.12,6a23.84,23.84,0,0,0,2.49,6c.24.44,1.43.38,2.18.55a1.84,1.84,0,0,1,.22.17Z"/><path class="cls-7" d="M127.24,65.65l-.85,3.62c-.89-.29-1.77-.63-2.68-.85-2.23-.54-4.49-1-6.72-1.53-1.57-.4-3.63-.28-3.51-2.82L116,61.89C119.8,63.12,124.19,62.37,127.24,65.65Z"/><path class="cls-7" d="M167.8,87.59,165.3,85l2.6-3.11c-.63-1.2-1.38-2.65-2-3.75V73.84c1,.25,2.13,2.49,1.64,3.94-.38,1.14-.82,2.11,1,2.3.37,0,.56,1,1,1.39a7.07,7.07,0,0,0,1.6.81l2.72,5.32a20.11,20.11,0,0,1,1.61,10.07l-1.15,2.94c-.13-.27-.25-.55-.38-.82,1.93-5.9.29-11.15-3.19-16.25Z"/><path class="cls-7" d="M119.63,103.78l.71,2.29c-3.23-1.39-4.69,1.14-6.82,2.38-.12-1.72,1.1-2.47,2.21-3.32a17.56,17.56,0,0,0,1.34-1.26Z"/><path class="cls-7" d="M175.54,97.67a20.11,20.11,0,0,0-1.61-10.07,8.06,8.06,0,0,1,2.23,6.45C176.07,95.27,175.75,96.47,175.54,97.67Z"/><path class="cls-7" d="M138.62,96.47v.41l-5.19,1.32a1.84,1.84,0,0,0-.22-.17c.18-2,1-2.93,3.1-2A11.86,11.86,0,0,0,138.62,96.47Z"/><path class="cls-7" d="M172.31,107l-2.36-.6-.13-.73,3.3-2.3Z"/><path class="cls-4" d="M158.06,173.29l3.15-3.61c.1.59.26,1.56.47,2.77,1-.75,2.64,1,3.25-1.4.57,1.29,1,2.39,1.55,3.42.19.35.71.51,1.08.76l.77-1.41c.26.3.53.87.79.87,1.9,0,2.65,1.15,2.91,3l.94-2.38c-.38,2.17,1.29,2.72,2.64,3.59l.18-2.49.51,0c0,1.06.06,2.12.17,3.18a50.19,50.19,0,0,1,.64,5.83c0,1.87,1.81,2.53,2.18,4.14.19.8,1.27,1.4,1.88,2l.35-1.29c.92,2.39,1.85,4.84,2.79,7.29l.39,0V195H185c.39,1.52.79,3,1.17,4.52,4.38.15,7.08-3.26,6.29-7.88,2.57.21,2.44-2.2,3.19-3.41l1.51,7,.35,0L197,190.9h.44c.67,2.65,1.34,5.3,2,7.87.54,0,1.22-.11,1.4.12.68.88.06,5.3-1,6.6v-2.06c-.91,2.7-4.31,4.92-1.7,8,.26-.74.6-1.65,1.06-2.91.35,1.67.6,2.82,1,4.5l1.18-2.65,1,2.21c.26-1.24.48-2.27.69-3.3l.46,0c.16.72.32,1.43.59,2.61.3-1.24.48-2,.72-3l.8,1.31,3.2-5.23.34.14c-.42,1.17-.83,2.34-1.25,3.5l.49.19.52-1.29c.28,1.07.5,1.88.87,3.27.23-1.36.36-2.14.49-2.92l.4,0,.35,2.67.21,0,.58-2.88.4.09c.11,1.58.23,3.16.34,4.73-.2,0-.46,0-.59.08a21.89,21.89,0,0,0-2.3,2c-.14.15.14.69.22,1.05l2.51-.62a5.33,5.33,0,0,1-1.15,2c-.69,1-1.3,2.09-1.94,3.14-9.12-.1-18.23-.24-27.35-.3-5.2,0-4.12.17-4.38-4.38-.09-1.59,0-3.18,0-4.77a22.85,22.85,0,0,0-.43,5.81c.06,2,.13,3.87-3.37,3.21l4.2,5.72a36.93,36.93,0,0,0-5.56-3.14,6.26,6.26,0,0,0-4.33,0c-2.3,1-5.24,1.95-4.06,5.52a5.83,5.83,0,0,1,1.63.6c1.21.86,2.32,1.85,3.35,2.69-.47,1.23-1.08,2.86-1.69,4.49l.58.29,1.75-.72c-.27,1.84,1.06,1.52,1.93,1.46,3.38-.19,6.87,0,10.11-.87,4.31-1.09,8.6-.63,12.9-.89l5.35.41a16.15,16.15,0,0,1,.37,2.19c-2.52.77-2.47,2.53-1.91,4.55,0,.09-.1.24-.18.35-1,1.33-.08,1.83,1,2.1.84.2,1.82,0,2.55.34a4.06,4.06,0,0,1,1.87,1.88,16.85,16.85,0,0,1,.68,3.52L200,251.64l3.37-4.82H161l7.12,9.05-.53.43a74.12,74.12,0,0,0-6.17-4.77c-1.87-1.17-4-2.42-6.07-2.66-2.44-.27-5.39-.7-7.23,1.73a6,6,0,0,0-1.14,3.59c.11,2.84,0,5.83,2.35,8.09.1.09-.1.49-.17.75-.87,0-1.75,0-2.63,0a3,3,0,0,0-3.15,2.82c-.08.59.32,1.78.55,1.79a5.23,5.23,0,0,0,2.31-.58c.34-.15.5-.68.8-1.14,1.38,1.11.62,1.83-.17,2.49s-1.8,1.23-2.54,2c-2,2-1.4,6.36.88,6.69,1.6.23,3.27-.58,5,0a3.3,3.3,0,0,0,1-1.79c.14-2.76.11-5.53.14-8.3a13.41,13.41,0,0,0,1-2.69c.18-1.16.45-1.59,1.79-1.43a34,34,0,0,1,5.92.8c1.56.46,3.69-1,5.74-1.63l.51.93c-.13,1.64-.27,3.29-.4,4.93,0,1.82-.06,3.65,0,5.48,0,3.68,1.11,4.44,4.69,3.21.26,1.84-.9,2.05-2.26,2.31-.6.11-1.07.87-1.6,1.34.58.48,1.13,1.32,1.75,1.38,4.34.43,5.52-.68,5.52-5,0-3.19,0-6.39-.05-9.58l.11.11c1.89.21,3.79.5,5.69.61,2.22.13,4.46,0,6.68.18a12,12,0,0,1,2.76.9l4.79,9.5c.48-2.78.91-5.23,1.34-7.67l.91,0,.92,2.16.19-3c.48,1,.72,1.51.86,1.82l2.19-2.06c-.32,1.84-.64,3.7-1,5.56-.08.45-.14.9-.2,1.35-.28-.67-.55-1.34-.83-2l-.46.12c.27,2.91.55,5.82.82,8.73v2.56l-.56.05c-.33-2.8-.67-5.6-1-8.4l-.38.05c.13,1.77.35,3.54.32,5.31a2.68,2.68,0,0,1-.89,2c-2.53,1.54-2.8,4.15-3.38,6.62-.05.21.18.49.28.73-.18.68-.37,1.35-.56,2L189.88,291l-.39-14.57-.6,0v4l-.71.36-1.67-2.15c.67,3.12-.26,5.75-1.24,8.43v-6.95l-.65,0v12.53H184V287.6h-.33c-.31,4.24-.62,8.48-.92,12.54l.61-.46a3.68,3.68,0,0,1,.28.7c.24,3.07.5,6.14.66,9.22,0,.38-.56.79-.87,1.18l-.68-.2v-5.91h-.53l-.24,2c-.51-4.87-.87-9.7-1-14.54,0-1.57.25-3.07-1.41-4-.53-.29-1.11-.49-1.78-.79-.18,1.28-.37,2.6-.6,4.23l-1-2.12V298l-.32,0c-.17-1.73-.34-3.46-.5-5.19l-.6,0,.74,11.28-.6,0q-.27-3.52-.55-7l-.41,0v8.33l-.49,0-.57-4.87-.33.08-.45,2.27-.4-.07-.33-4.74h-.42c-.15.6-.3,1.21-.46,1.89l-.91-.72-.47,6.32,0,0-1.38-1.24c-.14,5.62,1.08,11.17-.1,16.69l-.51-8.58-.57,0c.11,2,.35,4,.31,6a33.71,33.71,0,0,1-.62,4.43l-.57-4.75h-.21c-.05,1-.11,2.08-.19,3.45-1-.33-2.12-.35-2.63-.93-1.49-1.67-3.27-1.27-5.06-1.1-2.07.19-4.14.42-6.21.63-.13,0-.31-.05-.39,0-2.63,2-5.11,0-7.6-.38a5.56,5.56,0,0,0-5.32,2.17l-4-2.21-.63-.32c-.19-.19-.41-.57-.56-.55-2.56.4-5.27-.83-7.74.73a5.62,5.62,0,0,1-1.87.31l.41,2.16h-2.78l-2-3.34,3.71-.5c-1.66-4.66-1-9.54-1-14.41l1.23,0v11.47h.83V303.79h.64c1,2.47.2,5.13.94,7.7,0-2.15,0-4.31,0-6.46a4.71,4.71,0,0,1,.73-1.59c.26.5.7,1,.73,1.48.1,1.59,0,3.2,0,4.8h.56v-6.36l.69,0,.72,6.12h.43c-.15-2.09-.3-4.18-.46-6.32,1.27.49,1.23.49,1.43,4.24a18.66,18.66,0,0,0,.83,4.75l-.51-8.81.94-.08c.27,3.57.55,7.14.82,10.71h.24V303.45l.64,0,.7,10.55h.14c0-2.28,0-4.56,0-6.84,0-1.33.14-2.65.22-4a9.47,9.47,0,0,1,.76,2.1c.25,2.13.37,4.27.53,6.41H136v-8.17h.82v7.4h.79v-7.16l.67,0,.57,4.66.61-.06v-4.79h.51c.19.9.38,1.8.58,2.7l.36-.05v-2.7a5.28,5.28,0,0,0,1.55.39,23.15,23.15,0,0,1,2.64-.58c5.54-.06,11.08,0,16.63,0h3.82l-4.06-6.84-2.9.37c4.9,1.57.55,3.48,1.56,5.14l-1,.12-.95-5.34-.39.05c.17,1.85.34,3.69.57,6.14l-1.1-2.11,0,0c.25-2.14.51-4.28.76-6.42l2.49,1.41c-.16-1.53-.25-2.41-.34-3.29l-.52.05-.8,1.85-3.3-4.61a13.75,13.75,0,0,1,1.19-2.74c1.59-2.18,3.32-4.26,5-6.4.54-.7,1-1.48,1.47-2.22l-.26-.69H120.51l4.31,6.39-1,1.11-2.14-3.1-.71.52c-.46-.6-.8-1.47-1.42-1.79-1.54-.8-3.13-2.45-5.12-.16l-.58-5.33.61-.16,1.16,2.36a8.75,8.75,0,0,1,.3-1.62c.29-.68.26-1.8,1.61-1.37a2.81,2.81,0,0,0,.76-1.55c-.13-1.77-.46-3.52-.76-5.67l-.92,3.92-.65-.06c-.13-.62-.33-1.25-.4-1.88-.25-2.41,0-2.67,2.46-2.6,1.84.05,3.68,0,6.09,0l-5.29-6.58-.34.14c.29.73.59,1.46.87,2.2,1.25,3.39.67,4.08-2.6,3.59l.82-8.58c-1-.5-2.77-.9-1.65-3.05l6.61-7.9-.4-.58-41-.75,2.2,2.77c-.17,2.24-1.62-.09-2.21.63-.22-1.61-1.41-.62-1.83-.47-2.51.94-5,.49-7.58.38-.45,0-.88-.51-1-.6l-2.06,1.1c.64-1.92-.39-2.49-3.26-2.35-.83,1.26-1.58,2.41-2.35,3.53-1.14,1.65-2.85.72-4.31.93-1.21-.4-2.41-.89-3.66-1.17a8.61,8.61,0,0,0-1.85.19,39.4,39.4,0,0,1-5.75,0c-.77-.09-2.07-1.15-2-1.64.27-2.27-2.31-3.2-2.39-5.3l-.15,2.08c-.52-1.12-.87-1.88-1.23-2.63,0-1.41.79-1.77,2-1.68a8.31,8.31,0,0,0,1.61-.19c1.29,1.3,3.49,1.46,4.52.42l4,1.15.37-1.56L56,242.56l-.64-2.63.33-.21,1,1.27,3.12.25,1.82-3-.69-2c2.67-.26,1.56-2.6,2.13-4,1.21-1.07,1.15-2.33.58-3.67-.05-.12-.13-.33-.08-.37,1.69-1.65,3.17-3.62,6-3.8a70.14,70.14,0,0,1-.93,7A67.61,67.61,0,0,1,66.39,238l1.7-.19L67,238.92l.12.49,10.42-1.09-.31.74c5.79-.29,11.71.74,17.17-2-.25-1,1.57-3.18,2.82-3.19,3.31,0,6.62,0,9.94,0a5.41,5.41,0,0,0,2.18-.17,1.67,1.67,0,0,0,.49-1.56,37.24,37.24,0,0,0-3-3.94c-1.37-1.6-.11-2.77.67-3.88,1.16-1.63,2.56-3.1,4.15-5l-4.07-.49-.06-.46c.47-.1.95-.17,1.42-.3s1-.19,1.18-.49-.17-.76-.34-1.13-.75-1-.63-1.19c1.66-2.52-.89-4.28-1-6.52-3,.44-2.09,3.15-2.71,4.92l-.58,0c-.51-1.38-1-2.76-1.58-4.29l-2,.59.51-1.26L100,209l1.28-1.52-1.77.18c.14-2.08-1.18-3.09-3.94-2.86l1-1.31-1.51-.37,1.39-1.24-2.36.18,1.3-1.19L93,200.72c.93-.46,1.61-.6,2-1s.35-1.08.58-1.92l6.52-.41.09-.56.74,1.26.7-2.27.73,1.93h.24v-3.22l.51-.07.47,2.15c1.17-2.48-.7-3.49-2-4.73a4.41,4.41,0,0,1-1-5.05l1.19,2.77.64-.19.3-3.34.42-.05.44,3.7.41,0,.22-3.46.51-.06.43,3h.35v-3.2l.52-.13.78,2.58.26,0,.24-2.2.43,0,.26,3.17,1.1-2.79c.31,1,.51,1.66.78,2.53l.61-1.57,7.43.91a3.66,3.66,0,0,0,3.07,2.38c1.15.14,2,.79,2.7-.59l1.65.83c.15.54.3,1.08.44,1.62.31,1,0,1.54-1.15,1.46-.73-.06-1.47,0-2.67,0l3,4.19c.5.7.71,1.32-.38,1.65-.31-.53-.48-1.28-1-1.57a16.08,16.08,0,0,0-4.29-2.18c-1.54-.39-3.17-2.67-4.88-.23-.19-.16-.36-.41-.59-.48a3.56,3.56,0,0,0-3.94,1.09,2.55,2.55,0,0,0-.37,3.44c.48.88.76,1.87,1.16,2.79a2.74,2.74,0,0,0,3.74,1.28c.13-.06.32,0,.47,0l.36.46-1.74.57,3.06,1a15.63,15.63,0,0,0-2.29,2.2,3.55,3.55,0,0,0-.65,2.33c.08.5,1.32,1.35,1.5,1.23,1.46-.94,2.8.16,4.15,0,3.57-.31,7.12-1,10.69-1.2,5.06-.23,10.14-.12,15.21-.15l15.15.26c.09,0,.19-.17.41-.37a9.46,9.46,0,0,1-1.49-2.5c-.47-1.88-2-2.18-3.43-2.77-.11-.45-.08-1-.35-1.34a2.34,2.34,0,0,1,0-3.42l4.94-5.58c-1.09-.13-1.49-.21-1.88-.22-6.42-.13-12.85-.24-19.27-.4a20.66,20.66,0,0,1-2.57-.37c2.58,0,4.31-1.51,5.84-3.38,1.71-2.09,3.77-4,5.13-6.29s2.34-4.29,5.1-5.13c2.51-.77,3-2.33,2.22-4.7ZM132.47,263c-.19-1.7-.77-3.47-.48-5.08.37-2-.43-3.23-1.58-5l-.47,2.3-.35-1.32L129,254l.37,6.92-2.94-3.45-.31.19c.16.46.31.92.31.9l-1.78,2,.38.34.64-.2c.72,1.5,1.37,2.83,2.06,4.13,0,0,.71-.33,1.13-.53.52,2.6,1,5.29,1.58,8,0,.26-.09.53-.14.79-.57,3.23.66,4.45,3.83,3.89a6.54,6.54,0,0,1,2,.18c1.27.17,2.12-.11,2.11-1.64,0-3,.05-6.07,0-9.1A3.16,3.16,0,0,0,134.9,263C134.09,263,133.28,263,132.47,263Zm.84-26.29a1.86,1.86,0,0,0,.05.34,50.29,50.29,0,0,0,7.17.94c4.42-.05,8.84-.42,13.25-.8a12.76,12.76,0,0,0,4.15-1.06c3.44-1.57,3.41-1.64,2.07-5.44-2.66.56-.78-1.9-1.67-2.52l-1.68-.09,1.11-.67-.83-1.29,5.09-5.86-.26-.65H124.15l3,5.24c-1.62-.86-3-1.94-5-2.31-2.7-.48-4.91-.57-7,1.28-2.57,2.28-1.83,4.83.23,6.58a14.57,14.57,0,0,1,3.79,5c.55,1.24,1.22,1.93,2.29,2,.9.07,1.65-.95,2.88-.39a7.67,7.67,0,0,0,3.43.28C129.65,237.17,131.48,236.89,133.31,236.68ZM183.38,206l-.3,1.58h-.45c-.28-1.47-.56-2.94-.85-4.41l-.25.06c-.1,1-.21,2.09-.31,3.13h-.41c-.2-1.08-.41-2.16-.61-3.24l-.4,0,.5,7.17-.52.07c-.42-1.4-.85-2.79-1.28-4.18l-.17.07.63,11.81h.71v-5.95h.47c.19.92.37,1.85.56,2.78l.48,0V211L182,211l1,5.76.42-.05v-3.27l.56-.12,1.08,3.52.4-.07V213.2l.42-.13,1.37,1.69a7.85,7.85,0,0,0-.37-4.48A26,26,0,0,0,183.38,206Zm-40.72,62.52c0-2.3,0-4.6,0-6.9,0-1.07-.26-1.85-1.55-1.87s-1.67.61-1.67,1.75c0,4.67,0,9.34.08,14a2.37,2.37,0,0,0,1.5,1.59c1.18.32,1.65-.53,1.64-1.67C142.65,273.14,142.66,270.84,142.66,268.54Zm9.78,3.56h0a19.72,19.72,0,0,0,.06,3.61c.11.57,1,1.44,1.43,1.38.62-.09,1.57-.85,1.62-1.39.19-2.14.07-4.3.09-6.45,0-1.22-.63-1.62-1.77-1.66s-1.44.72-1.45,1.68S152.44,271.16,152.44,272.1Zm7.67.56h0a12,12,0,0,0-.06-2.82,2.29,2.29,0,0,0-1.27-1.51,1.39,1.39,0,0,0-1.87,1.5c0,1.95-.11,3.92.07,5.87,0,.54,1,1.45,1.41,1.39a2.44,2.44,0,0,0,1.64-1.41A11.23,11.23,0,0,0,160.11,272.66Zm4.88.13a13.2,13.2,0,0,0-.06-3c-.14-.59-1-1.5-1.35-1.43-.65.11-1.64.82-1.7,1.37a57.4,57.4,0,0,0-.09,5.87c0,1.07.46,1.61,1.58,1.62s1.63-.48,1.63-1.57S165,273.74,165,272.79Zm-48.91-30.61c1.41-3.47-2.78-2.29-3-4.43l-.89,1.55-.74-2a7.13,7.13,0,0,0,0,3.7c.19.67.84,1.68,1.32,1.7a9.66,9.66,0,0,0,3-.93C115.61,241.6,115.82,241.85,116.08,242.18Zm-7.87-4.89c-1.66,4.72-1.66,4.72,2.83,4.58-.48-1.53-1-3-1.58-5l-.42,2.95h-.48Zm-3.6,4.84c2.27-1.48,2.59-2.44,1.68-4.19l-.67,2-.61-2-.4.06Z"/><path class="cls-7" d="M158.06,173.29l-1.16,1.18-1.22.05-.77-.82-.44.36-.08-1.15a8.33,8.33,0,0,1-1.49.21c-1.89-.07-3.78-.16-5.67-.3-.85-.06-1.69-.25-2.53-.38.43-.26,1-.42,1.27-.8.5-.72.62-1.94,1.27-2.29,2-1.1,1.23-3,1.6-4.76a3.39,3.39,0,0,0-2.09,1c-1.54,2-2.55,4.24-2,6.9l-1.21,1.22v-2.39h-.22l-.48,2.12c-.4-2.16-1.28-2.33-2.68-1.79-.62.23-1.48-.16-2.23-.26l-1.31,1.93a1.94,1.94,0,0,0-.33-.07c2.28-2.78,1-5.58-.17-8.23-.54-1.23-1.92-1.3-3.16-.64.15-1.36.3-2.71.46-4.07a1.34,1.34,0,0,0,.35,0l1.49.39-.44.82,2.48,1.35c1.69-1,1.27-2.89,1.23-4.5-.09-3.33-.55-6.65-.51-10,0-2,.73-4.07,1-6.12a4.79,4.79,0,0,0-.28-2.61,2.36,2.36,0,0,1,.41-2.88,4.61,4.61,0,0,0,.62-2.51c-.64,1.51-1.45,2.65-3.26,2.44s-2.63-1.35-3.22-2.92a29,29,0,0,0-1.71-3.23c-3.28,1.34-5-1.35-7.08-3.45l1.87-1.18-.1-.27-1.94.53,2-1.78-2.34.54,1.36-1.68-.36-.11c.46-2.86.92-5.66,1.36-8.32l4.43-.55.1.32-1.64.73.07.26,3.15-.26c-.18.89-.34,1.64-.52,2.52l2-.14.08.27-1.62.82a17.87,17.87,0,0,1,2.59.86c.37.18.5.82.82,1.18s.8.65,1.16,1a6.72,6.72,0,0,1,.62.91c2.8.28,5.8.21,8.38-1.72.15-.12-.07-.72-.13-1.22l1.77.36.09-1.09,1.34.55c1.56-1.31,1.76-3.77,4.66-3.79l-1.78-1.61,1.91.44-.13-1,2.37,1-1-1.69c1.51.64,2.61,1.19,3.76,1.59,1.61.55,3.26,1,4.89,1.48,0,2.35-1.61-.17-2.13.91l1.59,1c-1.47,3,1.72,3.19,2.86,4.73l-.85.62,3.25,3.92-.2.45-2.42-1L167,128l-2.42,3.17c-1.61-.4-3.33-.86-5.07-1.25a3.4,3.4,0,0,0-1.58-.07c-2.08.52-4.32.79-6.14,1.8-1.41.79-2.3,2.52-3.4,3.85-.33.4-.53,1.14-.92,1.25-1.27.35-2.92,0-2.58,2.3a27,27,0,0,1-.23,4c0,3.34,0,6.68,0,10,0,1.8.09,3.6,0,5.39-.06,1.33-.35,2.65-.54,4,1.91.76,4.19-.3,5.48-2.52l2.34,2.59a17.57,17.57,0,0,0-.22,2.71c0,1,.57,2-1.18,2.39v-3.15l-.63-.05a27.52,27.52,0,0,0-.34,3.36c0,.58.48,1.66.68,1.64,1.23-.07,3.44-.26,3.5-.67.43-3,1.47-6.14-1-8.81-.23-.35-.38-.83-.71-1a26.8,26.8,0,0,0-2.63-1.19l2.34-1.15-2.62-6.94.88-2.23,6.11-3.46-.09-.49-4.56-1,.1-.39a18.66,18.66,0,0,0,4.33.57,21.68,21.68,0,0,0,4.51-1.47l-1.26,1.46c-.07.83,2.28,1,.17,2.38,2.58-.53,3-2.33,2.81-5.33.17-.06.46-.24.52-.18a33.37,33.37,0,0,1,3.48,3.56c1,1.3.68,2.73-.34,4-.16.21-.06.64,0,1,.18,1.88-1,3.15-2,4.45-.33.41-1.3.41-.54,1.27a7.72,7.72,0,0,1-1.66,1.39c-1.18.53-2.2,1-1.88,2.6h0l-1.91.65-.94-.65c-.55,1.48-1.63,2.8-.16,4.21a.65.65,0,0,1,0,.54c-1.81.75.26,1.2.14,1.8a4.14,4.14,0,0,0,1.42,3.6C159.81,169.63,159,171.54,158.06,173.29Z"/><path class="cls-6" d="M144.7,172.44c.84.13,1.68.32,2.53.38,1.89.14,3.78.23,5.67.3a8.33,8.33,0,0,0,1.49-.21l.08,1.15.44-.36.77.82c-.8,2.53-1.62,3.31-4.2,3.45l1.89-1.74-.21-.29L150,178.25l.75-1.5-4.7.86-.13-.38,1.22-.76-2.46-.27,1.6-.66-.62-1.13-3.67,2c-1-.75-2-1.74-2.71.47l-.56-.88-4.42,3.17-1.85-2.54,4.41.21c-.09-1.51-2.13-2.23-.6-3.58a1.94,1.94,0,0,1,.33.07c.2.17.39.48.59.48,2.11,0,4.22-.06,6.33-.09l1.21-1.22Z"/><path class="cls-4" d="M127.25,153l.33-1.64c-1.88-.7-1.15-1.92-.1-3.36l-1.88.8c.44-2.74,2.84-2.43,4.25-2.65a11.28,11.28,0,0,0,4.29-1.71,4.1,4.1,0,0,1,.91-.32v3l.63.06a39.48,39.48,0,0,1-2.8,6c-.95,1.4-2.58,2.33-3.91,3.46,0-.26-.05-.53-.07-.79l2.39-1.9-.24-.35-2.49,1.51.45-1.45-1.32.49Z"/><path class="cls-6" d="M133.39,160.28c-.16,1.36-.31,2.71-.46,4.07-.19.49-.39,1-.62,1.59l1.66.61-.05.5H131.3a34.49,34.49,0,0,1-.35-4.42A2.22,2.22,0,0,1,133.39,160.28Z"/><path class="cls-6" d="M127.69,154.1l1.32-.49-.45,1.45,2.49-1.51.24.35-2.39,1.9C127.75,155.76,126.67,155.68,127.69,154.1Z"/><path class="cls-4" d="M175.17,167.57l2.67-1.33c.52,1.13.52,1.13-1.76,4,1.48.4,2.82.84,1.16,2.64-.3.32-.05,1.16-.3,1.78-1.06-1.21-.25-3.39-2.3-3.87.17-1,.35-2.11.53-3.21Z"/><path class="cls-7" d="M167.8,87.59l3-4c3.48,5.1,5.12,10.35,3.19,16.25-.42,1.33-.91,2.52-2.66,2.56-.39,0-.77.61-.87.69a12.06,12.06,0,0,1-1.94-2.63,5.46,5.46,0,0,1-.19-3.89A13.61,13.61,0,0,0,167.8,87.59Z"/><path class="cls-4" d="M133.43,98.2l5.19-1.32c1.52,2.32,3.61.84,5.61,1.15l-2.71.92,2.14.59a8.07,8.07,0,0,1-2,1.18,1.85,1.85,0,0,1-1.58-.56c-1.79-2.48-4.17-2.75-6.56-.43l3.1.72c-1.06.22-1.61.29-2.12.45a17.2,17.2,0,0,0-1.75.76l2.65,1.41c-1.25,0-2.51,1.5-3.9,0l-.71,1.55c-1.54-1.57-1.09-3,1.42-5Z"/><path class="cls-7" d="M115.86,110.31a3.32,3.32,0,0,1,3.13-4.06c.94-.11,1.88-.15,2.81-.31s1.81-.2,2.23,1.06.22,2.07-1.07,2.28c-1.81.29-3.64.4-5.46.58l-.21-.58L120,108C118.17,107.33,117.18,108.88,115.86,110.31Z"/><path class="cls-4" d="M139,110.29l-1,3.18,1.44-1.09c-.15,1-.24,2-.48,3a7.31,7.31,0,0,1-.81,1.57c-.59-.45-1.51-.78-1.7-1.36-.58-1.79.36-3.24,1.56-4.5A11.67,11.67,0,0,1,139,110.29Z"/><path class="cls-7" d="M150.63,100.69l3.62.57v.56l-1.26.41,1.51,1c-.32.52-.7,1.44-.88,1.4-.89-.19-2.23.42-2.51-1.12C151,102.72,150.84,101.94,150.63,100.69Z"/><path class="cls-4" d="M139.8,113.58l1.38-.63c0,1,0,1.86,0,2.69,0,0,.11.06.16,0s.1-.07.16-.11c.12.61.25,1.23.41,2A3.8,3.8,0,0,1,139.8,113.58Z"/><path class="cls-4" d="M152.81,160c2.46,2.67,1.42,5.84,1,8.81-.06.41-2.27.6-3.5.67-.2,0-.67-1.06-.68-1.64a27.52,27.52,0,0,1,.34-3.36l.63.05v3.15c1.75-.4,1.22-1.43,1.18-2.39a17.57,17.57,0,0,1,.22-2.71L149.65,160Z"/><path class="cls-4" d="M163.62,136.7l-7.6-3.15c.78-.64,1.57-1.82,2.55-2A5,5,0,0,1,164,134C164.36,134.7,163.75,135.92,163.62,136.7Z"/><path class="cls-6" d="M156.85,164.35c.12-.6-1.95-1-.14-1.8a.65.65,0,0,0,0-.54c-1.47-1.41-.39-2.73.16-4.21l.94.65,1.91-.65c.26.66.51,1.32.82,2.13-1,.75-2.6,1.43-1.6,3Z"/><path class="cls-6" d="M144.72,172.46c-.52-2.66.49-4.89,2-6.9a3.39,3.39,0,0,1,2.09-1c-.37,1.74.44,3.66-1.6,4.76-.65.35-.77,1.57-1.27,2.29-.27.38-.84.54-1.27.8Z"/><path class="cls-6" d="M143.51,173.68c-2.11,0-4.22.09-6.33.09-.2,0-.39-.31-.59-.48l1.31-1.93c.75.1,1.61.49,2.23.26,1.4-.54,2.28-.37,2.68,1.79l.48-2.12h.22Z"/><line class="cls-8" x1="126.63" y1="134.99" x2="134.18" y2="142.54"/><line class="cls-8" x1="126.63" y1="142.54" x2="134.18" y2="134.99"/><line class="cls-8" x1="151.2" y1="134.99" x2="158.75" y2="142.54"/><line class="cls-8" x1="151.2" y1="142.54" x2="158.75" y2="134.99"/></g></g><g id="words"><g class="cls-9"><path d="M129.48,114.57a.65.65,0,0,1-.23-.34l-5-17.13a.52.52,0,0,1,.13-.51.52.52,0,0,1,.38-.15h2a.68.68,0,0,1,.41.14.65.65,0,0,1,.23.34l3.79,13.1,3.65-13.1a.6.6,0,0,1,.23-.34.66.66,0,0,1,.41-.14h2a.66.66,0,0,1,.41.14.6.6,0,0,1,.23.34l3.8,13.1,3.64-13.1a.65.65,0,0,1,.23-.34.68.68,0,0,1,.41-.14h2.09a.5.5,0,0,1,.42.2.53.53,0,0,1,.06.46l-5.09,17.13a.56.56,0,0,1-.25.35.68.68,0,0,1-.42.13h-2.42a.68.68,0,0,1-.41-.14.63.63,0,0,1-.22-.34l-3.47-12.39L133,114.23a.51.51,0,0,1-.24.35.72.72,0,0,1-.42.13h-2.42A.68.68,0,0,1,129.48,114.57Z"/><path d="M152.12,114.34a1.06,1.06,0,0,1-.32-.78v-16a1.06,1.06,0,0,1,.32-.78,1.08,1.08,0,0,1,.78-.32h8.69a.52.52,0,0,1,.38.15.53.53,0,0,1,.15.39v1.91a.51.51,0,0,1-.53.53h-6.68v4.33h5a.48.48,0,0,1,.38.16.49.49,0,0,1,.16.38v1.81a.49.49,0,0,1-.16.38.5.5,0,0,1-.38.15h-5v5.05h6.68a.51.51,0,0,1,.53.53v1.91a.54.54,0,0,1-.15.39.52.52,0,0,1-.38.15H152.9A1.08,1.08,0,0,1,152.12,114.34Z"/><path d="M119.63,141.31a8.22,8.22,0,0,1-4-7.07v-6.58a8.19,8.19,0,0,1,4-7.06,7.58,7.58,0,0,1,4-1.1,9,9,0,0,1,3.53.69,7.5,7.5,0,0,1,2.78,2,.78.78,0,0,1,.18.52,1,1,0,0,1-.24.62l-1.36,1.42a.71.71,0,0,1-.5.25.73.73,0,0,1-.56-.28,4.88,4.88,0,0,0-3.8-1.63,3.9,3.9,0,0,0-2.12.61A4.82,4.82,0,0,0,120,125.4a4.58,4.58,0,0,0-.58,2.26v6.58a4.56,4.56,0,0,0,.58,2.26,4.73,4.73,0,0,0,1.56,1.67,3.91,3.91,0,0,0,2.12.62,4.88,4.88,0,0,0,3.8-1.64.7.7,0,0,1,.53-.28.73.73,0,0,1,.53.25l1.36,1.42a.87.87,0,0,1,.27.62.82.82,0,0,1-.18.49,7.8,7.8,0,0,1-2.81,2,8.71,8.71,0,0,1-3.53.72A7.67,7.67,0,0,1,119.63,141.31Z"/><path d="M133.15,141.8a.66.66,0,0,1-.21-.51.78.78,0,0,1,0-.24l6.71-20.62a.94.94,0,0,1,.35-.5,1.06,1.06,0,0,1,.6-.18H143a1.07,1.07,0,0,1,.61.18.94.94,0,0,1,.35.5l6.71,20.62a.78.78,0,0,1,0,.24.66.66,0,0,1-.21.51.73.73,0,0,1-.53.2h-2.23a.94.94,0,0,1-.6-.2,1,1,0,0,1-.35-.51l-1.39-4.45h-7.24l-1.39,4.45a.93.93,0,0,1-.36.51.91.91,0,0,1-.6.2h-2.16A.73.73,0,0,1,133.15,141.8Zm11.19-8.45-2.53-8.26-2.54,8.26Z"/><path d="M154.45,141.82a.66.66,0,0,1-.18-.47V120.8a.86.86,0,0,1,.26-.64.88.88,0,0,1,.63-.26h2.54a1,1,0,0,1,.83.46L166,132.91l1.49,2.6v-15a.62.62,0,0,1,.18-.46.6.6,0,0,1,.46-.19h2.23a.65.65,0,0,1,.65.65v20.56a.88.88,0,0,1-.26.63.86.86,0,0,1-.64.26H167.5a1,1,0,0,1-.84-.46l-7.66-13-1.21-2.11v14.9a.59.59,0,0,1-.19.48.61.61,0,0,1-.46.17h-2.22A.64.64,0,0,1,154.45,141.82Z"/><path d="M120.44,164.25a9.16,9.16,0,0,1-2.34-1.17.39.39,0,0,1-.17-.25.49.49,0,0,1,0-.32l.84-1.52a.49.49,0,0,1,.46-.29.75.75,0,0,1,.36.1,6.43,6.43,0,0,0,3.36,1.13,3.09,3.09,0,0,0,2-.61,2,2,0,0,0,.73-1.6,1.66,1.66,0,0,0-.36-1.09,3,3,0,0,0-1-.76,17.9,17.9,0,0,0-1.75-.77l-.7-.29a8.92,8.92,0,0,1-2.75-1.77,4.25,4.25,0,0,1-1.12-3.18,5,5,0,0,1,.66-2.59,4.56,4.56,0,0,1,1.84-1.75,5.69,5.69,0,0,1,2.72-.63,8.25,8.25,0,0,1,4.8,1.59.39.39,0,0,1,.17.25.43.43,0,0,1,0,.32l-.79,1.52a.48.48,0,0,1-.46.29.81.81,0,0,1-.36-.1,7.09,7.09,0,0,0-1.79-.86,5,5,0,0,0-1.52-.27,2.42,2.42,0,0,0-1.71.59,2.12,2.12,0,0,0,.06,3.05,8,8,0,0,0,2.2,1.24l1.65.66a5.25,5.25,0,0,1,2.27,1.71,4.38,4.38,0,0,1,.84,2.67,5,5,0,0,1-.71,2.65,4.78,4.78,0,0,1-2,1.82,6.42,6.42,0,0,1-2.93.65A8,8,0,0,1,120.44,164.25Z"/><path d="M132,164.08a1,1,0,0,1-.3-.73V147.71a.52.52,0,0,1,.14-.36.48.48,0,0,1,.36-.14h1.93a.48.48,0,0,1,.36.14.52.52,0,0,1,.14.36v13.86h5.57a.5.5,0,0,1,.51.5v1.8a.51.51,0,0,1-.51.51h-7.47A1,1,0,0,1,132,164.08Z"/><path d="M143.12,164.22a.5.5,0,0,1-.16-.39.59.59,0,0,1,0-.2l5.21-16a.71.71,0,0,1,.28-.38.75.75,0,0,1,.47-.14h1.87a.76.76,0,0,1,.75.52l5.21,16a1,1,0,0,1,0,.2.51.51,0,0,1-.17.39.56.56,0,0,1-.41.16h-1.72a.71.71,0,0,1-.47-.16.73.73,0,0,1-.28-.39l-1.08-3.46H147L146,163.83a.73.73,0,0,1-.28.39.71.71,0,0,1-.47.16h-1.68A.57.57,0,0,1,143.12,164.22Zm8.7-6.57-2-6.41-2,6.41Z"/><path d="M161.79,164.23a.46.46,0,0,1-.15-.36v-7.35l-5.06-8.47a.52.52,0,0,1,.07-.69.59.59,0,0,1,.41-.15h2a.5.5,0,0,1,.48.26l3.55,6.17h0l3.56-6.17a.48.48,0,0,1,.48-.26h2a.59.59,0,0,1,.41.15.51.51,0,0,1,.17.37.47.47,0,0,1-.1.32l-5.07,8.47v7.35a.5.5,0,0,1-.5.51h-1.92A.46.46,0,0,1,161.79,164.23Z"/><path class="cls-10" d="M96.1,192.36a.9.9,0,0,1-.36-.5l-4.09-12.51-.77-2.79-.31,2.88-1.33,12.14a1,1,0,0,1-.31.56.83.83,0,0,1-.56.22H86.05a.64.64,0,0,1-.53-.22.74.74,0,0,1-.16-.56l2.58-20.53a1,1,0,0,1,.32-.67,1.09,1.09,0,0,1,.73-.26h2.82a1,1,0,0,1,.6.2.93.93,0,0,1,.36.51l4.64,14.28.62,2.14.62-2.11,4.68-14.34a.9.9,0,0,1,.36-.5,1,1,0,0,1,.6-.18h2.57a1.09,1.09,0,0,1,.73.26,1,1,0,0,1,.32.67l2.57,20.53a.73.73,0,0,1-.15.56.64.64,0,0,1-.53.22h-2.41a.83.83,0,0,1-.59-.22.76.76,0,0,1-.28-.53l-1.39-12.38-.31-2.67-.81,2.91-4,12.36a1,1,0,0,1-.36.51,1,1,0,0,1-.61.2H96.7A1,1,0,0,1,96.1,192.36Z"/><path class="cls-10" d="M118.13,191.66a8.16,8.16,0,0,1-3-3,7.91,7.91,0,0,1-1.1-4.11V178a7.91,7.91,0,0,1,1.1-4.11,8.19,8.19,0,0,1,7.1-4.07,8.23,8.23,0,0,1,7.11,4.07,7.91,7.91,0,0,1,1.1,4.11v6.59a7.91,7.91,0,0,1-1.1,4.11,8.25,8.25,0,0,1-11.23,3Zm6.32-3.14a4.53,4.53,0,0,0,1.63-1.68,4.47,4.47,0,0,0,.6-2.26V178a4.47,4.47,0,0,0-.6-2.26,4.53,4.53,0,0,0-1.63-1.68,4.2,4.2,0,0,0-4.39,0,4.53,4.53,0,0,0-1.63,1.68,4.47,4.47,0,0,0-.6,2.26v6.59a4.47,4.47,0,0,0,.6,2.26,4.53,4.53,0,0,0,1.63,1.68,4.2,4.2,0,0,0,4.39,0Z"/><path class="cls-10" d="M135.22,192a1.28,1.28,0,0,1-.39-.94V170.86a.6.6,0,0,1,.19-.46.59.59,0,0,1,.46-.19H138a.65.65,0,0,1,.65.65v17.87h7.18a.65.65,0,0,1,.66.65v2.33a.64.64,0,0,1-.19.46.61.61,0,0,1-.47.19h-9.63A1.28,1.28,0,0,1,135.22,192Z"/><path class="cls-10" d="M152.73,191.66a8.19,8.19,0,0,1-3-3,8,8,0,0,1-1.1-4.11V178a8,8,0,0,1,1.1-4.11,8.19,8.19,0,0,1,3-3,8.24,8.24,0,0,1,11.23,3,8,8,0,0,1,1.1,4.11v6.59a8,8,0,0,1-1.1,4.11,8.25,8.25,0,0,1-11.23,3Zm6.32-3.14a4.61,4.61,0,0,0,1.63-1.68,4.47,4.47,0,0,0,.6-2.26V178a4.47,4.47,0,0,0-.6-2.26,4.61,4.61,0,0,0-1.63-1.68,4.21,4.21,0,0,0-4.4,0,4.58,4.58,0,0,0-1.62,1.68,4.38,4.38,0,0,0-.61,2.26v6.59a4.38,4.38,0,0,0,.61,2.26,4.58,4.58,0,0,0,1.62,1.68,4.21,4.21,0,0,0,4.4,0Z"/><path class="cls-10" d="M173.22,191.66a8.22,8.22,0,0,1-4-7.08V178a8.22,8.22,0,0,1,4-7.08,7.73,7.73,0,0,1,4-1.1,8.83,8.83,0,0,1,3.53.7,7.43,7.43,0,0,1,2.79,2,.78.78,0,0,1,.19.53,1,1,0,0,1-.25.62l-1.36,1.43a.73.73,0,0,1-.5.24.74.74,0,0,1-.56-.28,4.92,4.92,0,0,0-3.81-1.64,3.91,3.91,0,0,0-2.12.62A4.74,4.74,0,0,0,173,178v6.59a4.74,4.74,0,0,0,2.15,3.94,3.91,3.91,0,0,0,2.12.62,4.89,4.89,0,0,0,3.81-1.65.74.74,0,0,1,.53-.27.76.76,0,0,1,.53.24l1.36,1.43a.83.83,0,0,1,.28.62.78.78,0,0,1-.19.49,7.89,7.89,0,0,1-2.82,2.05,8.83,8.83,0,0,1-3.53.71A7.73,7.73,0,0,1,173.22,191.66Z"/><path class="cls-10" d="M187.92,192.17a.64.64,0,0,1-.19-.46V170.86a.64.64,0,0,1,.19-.46.6.6,0,0,1,.46-.19h2.48a.63.63,0,0,1,.47.19.63.63,0,0,1,.18.46v8.37h9.17v-8.37a.65.65,0,0,1,.65-.65h2.48a.59.59,0,0,1,.46.19.6.6,0,0,1,.19.46v20.85a.6.6,0,0,1-.19.46.59.59,0,0,1-.46.19h-2.48a.65.65,0,0,1-.65-.65v-8.92h-9.17v8.92a.63.63,0,0,1-.18.46.63.63,0,0,1-.47.19h-2.48A.6.6,0,0,1,187.92,192.17Z"/></g></g></svg>