<svg xmlns="http://www.w3.org/2000/svg" xmlns:xlink="http://www.w3.org/1999/xlink" viewBox="0 0 283.46 283.46"><defs><style>.cls-1,.cls-4{fill:none;}.cls-2{fill:#6f3ff4;}.cls-3{fill:#02e1ab;}.cls-4,.cls-7{stroke:#000;stroke-miterlimit:10;}.cls-5{fill:#b2ffec;}.cls-6{clip-path:url(#clip-path);}</style><clipPath id="clip-path"><path class="cls-1" d="M204.24,190.81l-146.81,63a11.86,11.86,0,0,1-15.8-15L97.18,88.56h0A78,78,0,1,1,204.25,190.82Z"/></clipPath></defs><g id="profile"><path class="cls-2" d="M120.35,242.17a3.41,3.41,0,0,1-.9,0,.16.16,0,0,1-.08-.06.14.14,0,0,1,0-.1l.06-.6a.17.17,0,0,1,.11-.15.25.25,0,0,1,.12,0,2.19,2.19,0,0,0,1.22-.1,1,1,0,0,0,.54-.46.69.69,0,0,0,0-.61.62.62,0,0,0-.26-.29,1,1,0,0,0-.41-.11h-.91a3,3,0,0,1-1.11-.19,1.45,1.45,0,0,1-.79-.85,1.69,1.69,0,0,1-.14-.9,1.62,1.62,0,0,1,.34-.81,2,2,0,0,1,.77-.56,2.86,2.86,0,0,1,1.73-.15s.06,0,.09.05a.17.17,0,0,1,0,.11l0,.58a.17.17,0,0,1-.1.16l-.13,0a2,2,0,0,0-.68,0,1.81,1.81,0,0,0-.52.12.81.81,0,0,0-.45.42.66.66,0,0,0,0,.55.71.71,0,0,0,.43.4,2.5,2.5,0,0,0,.86.09h.61a1.79,1.79,0,0,1,1,.23,1.5,1.5,0,0,1,.62.73,1.69,1.69,0,0,1,.14.93,1.61,1.61,0,0,1-.38.84,2.21,2.21,0,0,1-.84.6A2.79,2.79,0,0,1,120.35,242.17Z"/><path class="cls-2" d="M124.75,240.12a2.17,2.17,0,0,1-1-.42,2.13,2.13,0,0,1-.7-.89l-.69-1.61a2.17,2.17,0,0,1-.17-1.12,2.25,2.25,0,0,1,.4-1,2.09,2.09,0,0,1,.87-.69,2.42,2.42,0,0,1,.94-.21,2,2,0,0,1,.89.21.18.18,0,0,1,.1.11.25.25,0,0,1,0,.17l-.19.5a.2.2,0,0,1-.09.11.2.2,0,0,1-.17,0,1.32,1.32,0,0,0-1.1,0,1,1,0,0,0-.45.37,1.16,1.16,0,0,0-.21.58,1.26,1.26,0,0,0,.09.61l.7,1.62a1.21,1.21,0,0,0,.38.49,1.17,1.17,0,0,0,.56.24,1,1,0,0,0,.58-.07,1.31,1.31,0,0,0,.76-.8.17.17,0,0,1,.1-.13.22.22,0,0,1,.16,0l.48.2a.26.26,0,0,1,.13.12.25.25,0,0,1,0,.15,2.08,2.08,0,0,1-.48.79,2.3,2.3,0,0,1-.78.55A2.08,2.08,0,0,1,124.75,240.12Z"/><path class="cls-2" d="M128.4,238.7a.18.18,0,0,1-.1-.09l-2.19-5.1a.15.15,0,0,1,0-.13.13.13,0,0,1,.09-.1l.61-.26a.15.15,0,0,1,.13,0,.16.16,0,0,1,.09.09l.88,2,2.25-1-.89-2.05a.15.15,0,0,1,0-.13.18.18,0,0,1,.1-.09l.6-.26a.2.2,0,0,1,.13,0,.17.17,0,0,1,.1.1l2.19,5.1a.2.2,0,0,1,0,.13.18.18,0,0,1-.1.09l-.6.26a.23.23,0,0,1-.14,0,.18.18,0,0,1-.09-.1l-.94-2.18-2.24,1,.94,2.18a.15.15,0,0,1,0,.13.22.22,0,0,1-.09.1l-.61.26A.15.15,0,0,1,128.4,238.7Z"/><path class="cls-2" d="M133.72,236.35a.37.37,0,0,1-.2-.19l-2.05-4.76a.34.34,0,0,1,0-.28.32.32,0,0,1,.19-.19l2.58-1.11a.17.17,0,0,1,.14,0,.16.16,0,0,1,.09.09l.24.57a.15.15,0,0,1,0,.13.19.19,0,0,1-.1.1l-2,.85.55,1.29,1.48-.64a.15.15,0,0,1,.13,0,.15.15,0,0,1,.1.09l.23.54a.15.15,0,0,1,0,.13.15.15,0,0,1-.09.1l-1.48.63.65,1.5,2-.85a.23.23,0,0,1,.14,0,.18.18,0,0,1,.09.1l.24.57a.2.2,0,0,1,0,.13.15.15,0,0,1-.1.09L134,236.35A.32.32,0,0,1,133.72,236.35Z"/><path class="cls-2" d="M137.83,234.58a.35.35,0,0,1-.19-.19l-2.13-4.93a.19.19,0,0,1,0-.13.17.17,0,0,1,.1-.1l.6-.26a.15.15,0,0,1,.13,0,.15.15,0,0,1,.1.09l1.88,4.37,1.76-.75a.15.15,0,0,1,.22.09l.25.56a.17.17,0,0,1,0,.14.16.16,0,0,1-.09.09l-2.36,1A.32.32,0,0,1,137.83,234.58Z"/><path class="cls-2" d="M141.5,233a.35.35,0,0,1-.19-.19l-2.12-4.93a.15.15,0,0,1,0-.13.13.13,0,0,1,.09-.1l.6-.26a.17.17,0,0,1,.14,0,.16.16,0,0,1,.09.09l1.88,4.37,1.76-.76a.15.15,0,0,1,.13,0,.18.18,0,0,1,.1.09l.24.57a.23.23,0,0,1,0,.14.18.18,0,0,1-.1.09l-2.35,1A.34.34,0,0,1,141.5,233Z"/><path class="cls-2" d="M145,231.56a.18.18,0,0,1-.09-.1l-.23-.52a.15.15,0,0,1,0-.13.18.18,0,0,1,.09-.1l.65-.27-1.61-3.74-.64.28a.17.17,0,0,1-.14,0,.16.16,0,0,1-.09-.09l-.23-.52a.17.17,0,0,1,0-.14.2.2,0,0,1,.09-.09l2.21-.95a.23.23,0,0,1,.14,0,.18.18,0,0,1,.09.1l.23.52a.15.15,0,0,1,0,.13.18.18,0,0,1-.09.1l-.65.28,1.61,3.73.64-.28a.17.17,0,0,1,.14,0,.2.2,0,0,1,.09.09l.23.52a.17.17,0,0,1,0,.14.18.18,0,0,1-.1.09l-2.21,1A.2.2,0,0,1,145,231.56Z"/><path class="cls-2" d="M148.56,230a.18.18,0,0,1-.1-.09l-2.16-5a.23.23,0,0,1,0-.18.24.24,0,0,1,.13-.13l.62-.27a.25.25,0,0,1,.26,0l3.14,2.29.63.48-1.57-3.67a.16.16,0,0,1,.09-.23l.54-.23a.17.17,0,0,1,.14,0,.16.16,0,0,1,.09.09l2.17,5a.28.28,0,0,1,0,.18.27.27,0,0,1-.13.13l-.63.27a.25.25,0,0,1-.25,0l-3.25-2.38-.51-.38,1.57,3.65a.15.15,0,0,1,0,.13.2.2,0,0,1-.09.09l-.55.24A.15.15,0,0,1,148.56,230Z"/><path class="cls-2" d="M154.66,227.25a2.17,2.17,0,0,1-1-.42,2,2,0,0,1-.7-.88l-.7-1.62a2.15,2.15,0,0,1-.16-1.12,2.3,2.3,0,0,1,.41-1,2.19,2.19,0,0,1,.89-.7,2.77,2.77,0,0,1,1-.21,2,2,0,0,1,.91.2.18.18,0,0,1,.1.11.32.32,0,0,1,0,.17l-.19.5a.17.17,0,0,1-.09.11.2.2,0,0,1-.17,0,1.38,1.38,0,0,0-1.14,0,1,1,0,0,0-.47.38,1.21,1.21,0,0,0-.22.58,1.11,1.11,0,0,0,.09.62l.69,1.61a1.23,1.23,0,0,0,.39.49,1.2,1.2,0,0,0,.57.24,1.11,1.11,0,0,0,.6-.08,1.27,1.27,0,0,0,.48-.38,1.14,1.14,0,0,0,.22-.56,1.08,1.08,0,0,0-.09-.61l-.16-.37-1,.44a.19.19,0,0,1-.13,0,.18.18,0,0,1-.1-.09l-.23-.55a.15.15,0,0,1,0-.13.17.17,0,0,1,.1-.1l1.59-.69a.39.39,0,0,1,.28,0,.35.35,0,0,1,.19.19l.38.88a2.16,2.16,0,0,1,.16,1.12,2.19,2.19,0,0,1-.41,1,2.15,2.15,0,0,1-2,.86Z"/><path class="cls-2" d="M160.65,224.82a.17.17,0,0,1-.1-.1l-2.12-4.93a.36.36,0,0,1,0-.27.35.35,0,0,1,.19-.19l1.35-.58a1.88,1.88,0,0,1,1-.15,1.9,1.9,0,0,1,.91.36,1.86,1.86,0,0,1,.62.77,2,2,0,0,1,.14,1,2.06,2.06,0,0,1-.37.92,2,2,0,0,1-.79.61l-.75.32.77,1.77a.18.18,0,0,1-.1.23l-.6.26A.15.15,0,0,1,160.65,224.82Zm.4-3.43a.92.92,0,0,0,.51-.53.89.89,0,0,0,0-.73.86.86,0,0,0-.52-.5.89.89,0,0,0-.73,0l-.71.3.75,1.75Z"/><path class="cls-2" d="M165.86,222.43a2.21,2.21,0,0,1-1-.42,2.08,2.08,0,0,1-.7-.88l-.7-1.62a2.15,2.15,0,0,1-.16-1.12,2.19,2.19,0,0,1,1.31-1.74,2.17,2.17,0,0,1,1.12-.17,2.29,2.29,0,0,1,1.05.41,2.26,2.26,0,0,1,.7.89l.69,1.62a2.05,2.05,0,0,1,.16,1.12,2.1,2.1,0,0,1-.41,1,2.22,2.22,0,0,1-2,.87Zm1.22-1.44a1.28,1.28,0,0,0,.22-.58,1.26,1.26,0,0,0-.09-.61l-.7-1.62a1.15,1.15,0,0,0-.38-.49,1.13,1.13,0,0,0-.58-.23,1,1,0,0,0-.6.07,1.11,1.11,0,0,0-.47.39,1.17,1.17,0,0,0-.22.58,1.06,1.06,0,0,0,.09.61l.69,1.62a1.33,1.33,0,0,0,.39.49,1.19,1.19,0,0,0,.57.23,1.11,1.11,0,0,0,.6-.07A1.22,1.22,0,0,0,167.08,221Z"/><path class="cls-2" d="M169.7,220.92a.15.15,0,0,1-.1-.09l-.22-.52a.23.23,0,0,1,0-.14.18.18,0,0,1,.1-.09l.64-.28-1.61-3.73-.64.28a.15.15,0,0,1-.13,0,.17.17,0,0,1-.1-.1l-.22-.52a.16.16,0,0,1,.09-.23l2.21-.95a.15.15,0,0,1,.13,0,.18.18,0,0,1,.1.09l.22.53a.2.2,0,0,1,0,.13.18.18,0,0,1-.1.09l-.64.28L171,219.4l.64-.27a.2.2,0,0,1,.13,0,.17.17,0,0,1,.1.1l.22.52a.15.15,0,0,1,0,.13.13.13,0,0,1-.09.1l-2.21.95A.15.15,0,0,1,169.7,220.92Z"/><path class="cls-2" d="M173.26,219.39a.18.18,0,0,1-.09-.1l-2.17-5a.21.21,0,0,1,0-.19.24.24,0,0,1,.13-.13l.62-.26a.25.25,0,0,1,.25,0l3.14,2.29.64.48-1.58-3.66a.15.15,0,0,1,0-.13.15.15,0,0,1,.09-.1l.55-.23a.15.15,0,0,1,.13,0,.18.18,0,0,1,.09.1l2.17,5a.23.23,0,0,1,0,.18.26.26,0,0,1-.13.14l-.63.27a.25.25,0,0,1-.25,0L173,215.66l-.52-.39,1.57,3.65a.17.17,0,0,1,0,.14.18.18,0,0,1-.1.09l-.54.24A.33.33,0,0,1,173.26,219.39Z"/><path class="cls-2" d="M179.7,216.62a.18.18,0,0,1-.09-.1l-1.88-4.37-1.28.55a.15.15,0,0,1-.13,0,.16.16,0,0,1-.09-.09L176,212a.15.15,0,0,1,0-.13.22.22,0,0,1,.09-.1l3.47-1.49a.15.15,0,0,1,.13,0,.15.15,0,0,1,.1.09l.24.57a.2.2,0,0,1,0,.13.17.17,0,0,1-.1.1l-1.27.55,1.88,4.37a.15.15,0,0,1,0,.13.13.13,0,0,1-.09.09l-.61.26A.2.2,0,0,1,179.7,216.62Z"/><path class="cls-2" d="M184.65,214.43a.35.35,0,0,1-.19-.19l-.26-.6a2.68,2.68,0,0,1-.25-1,1.73,1.73,0,0,1,.24-.81,14.35,14.35,0,0,1,.81-1.19,1.27,1.27,0,0,0,.25-.53.8.8,0,0,0-.06-.48.71.71,0,0,0-.43-.42,1,1,0,0,0-.66.06,2.13,2.13,0,0,0-.82.7.15.15,0,0,1-.09.06.15.15,0,0,1-.17,0l-.45-.35,0-.06a.18.18,0,0,1,0-.16,2.88,2.88,0,0,1,.55-.62,3.25,3.25,0,0,1,.74-.45,1.82,1.82,0,0,1,1.36-.1,1.62,1.62,0,0,1,.91.94,1.59,1.59,0,0,1,.12,1,3.43,3.43,0,0,1-.53,1.11c-.09.12-.16.23-.23.31a5.09,5.09,0,0,0-.35.54,1.2,1.2,0,0,0-.15.45.83.83,0,0,0,.07.48l.09.22,2-.85a.17.17,0,0,1,.14,0,.2.2,0,0,1,.09.09l.24.56a.17.17,0,0,1,0,.14.13.13,0,0,1-.09.09l-2.54,1.09A.36.36,0,0,1,184.65,214.43Z"/><path class="cls-2" d="M188.83,212a5.24,5.24,0,0,1-1.8-4.19,1.79,1.79,0,0,1,1.13-1.32,1.74,1.74,0,0,1,1.73.1,5.21,5.21,0,0,1,1.8,4.19,1.73,1.73,0,0,1-1.12,1.32A1.76,1.76,0,0,1,188.83,212Zm1.84-1.2a1.32,1.32,0,0,0,.05-.76,6.09,6.09,0,0,0-.39-1.17,5.72,5.72,0,0,0-.58-1.08,1.32,1.32,0,0,0-.58-.48.88.88,0,0,0-.65.05.85.85,0,0,0-.47.44,1.31,1.31,0,0,0-.05.76,5.64,5.64,0,0,0,.4,1.18,3.7,3.7,0,0,0,.86,1.37.87.87,0,0,0,.94.13A.89.89,0,0,0,190.67,210.81Z"/><path class="cls-2" d="M193.3,210.7a.31.31,0,0,1-.19-.18l-.26-.6a2.68,2.68,0,0,1-.25-1,1.72,1.72,0,0,1,.24-.8q.22-.39.81-1.2a1.18,1.18,0,0,0,.25-.52.8.8,0,0,0-.06-.48.71.71,0,0,0-.43-.42.87.87,0,0,0-.66.06,2,2,0,0,0-.82.7.2.2,0,0,1-.09.06.15.15,0,0,1-.17,0l-.45-.35a.18.18,0,0,1-.05-.07.14.14,0,0,1,0-.15,2.67,2.67,0,0,1,.55-.62,3.42,3.42,0,0,1,.73-.45,1.8,1.8,0,0,1,1.37-.1,1.62,1.62,0,0,1,.91.94,1.59,1.59,0,0,1,.12,1,3.49,3.49,0,0,1-.53,1.1c-.09.13-.16.24-.23.32a4.24,4.24,0,0,0-.35.54,1.46,1.46,0,0,0-.16.44,1,1,0,0,0,.08.49l.09.22,2-.85a.2.2,0,0,1,.13,0,.17.17,0,0,1,.1.1l.24.56a.15.15,0,0,1,0,.13.13.13,0,0,1-.09.1l-2.54,1.09A.32.32,0,0,1,193.3,210.7Z"/><path class="cls-2" d="M197.25,209a.32.32,0,0,1-.19-.19l-.26-.6a2.35,2.35,0,0,1-.25-1,1.62,1.62,0,0,1,.24-.81,14.35,14.35,0,0,1,.81-1.19,1.27,1.27,0,0,0,.25-.53,1,1,0,0,0-.06-.48.77.77,0,0,0-.43-.42,1,1,0,0,0-.66.06,2.06,2.06,0,0,0-.82.7.47.47,0,0,1-.09.06.15.15,0,0,1-.17,0l-.45-.35a.17.17,0,0,1-.06-.06.15.15,0,0,1,0-.16,2.46,2.46,0,0,1,.55-.62,3.18,3.18,0,0,1,.73-.45,1.82,1.82,0,0,1,1.36-.1,1.62,1.62,0,0,1,.91.94,1.59,1.59,0,0,1,.12,1,3.13,3.13,0,0,1-.53,1.11l-.22.31a6.23,6.23,0,0,0-.36.54,1.21,1.21,0,0,0-.15.44,1,1,0,0,0,.07.49l.1.22,2-.85a.15.15,0,0,1,.13,0,.18.18,0,0,1,.1.09l.24.56a.15.15,0,0,1,0,.13.18.18,0,0,1-.09.1L197.52,209A.36.36,0,0,1,197.25,209Z"/><path class="cls-2" d="M104.1,239.19l.7-.42.2.3c.15.27.31.53.47.8s.31.52.46.79a.38.38,0,0,0,.27.19c.23,0,.46.11.68.17a.76.76,0,0,0,.16,0,13.34,13.34,0,0,0-.76-1.35c-.28-.43-.53-.88-.8-1.34l.7-.41,2,3.41,1,.26,0,0c-.05-.08-.09-.16-.13-.24a2,2,0,0,1-.1-.21l0-.07a7.65,7.65,0,0,1-.59-.93l-.58-.95-.36-.63-.31-.5c-.09-.15-.18-.29-.26-.44l0-.08.68-.41.8,1.33c.15-.5.25-1,.39-1.5l.75.19a.4.4,0,0,1,0,.11c-.14.57-.29,1.14-.43,1.71,0,.12-.06.25-.1.38a.27.27,0,0,0,0,.21c.15.24.29.48.43.72l.09.12.76-3.05.78.19c0,.1,0,.19,0,.28-.11.4-.21.81-.31,1.22l-.3,1.15c-.09.38-.19.76-.28,1.14a.19.19,0,0,0,0,.13l.51.85c.1-.1.09-.22.13-.32s.08-.37.13-.56l.18-.73.3-1.19.3-1.21c0-.16.08-.33.13-.49a.13.13,0,0,1,0-.07l.76.2c-.1.49-.25,1-.35,1.48.25-.1.44-.26.66-.37l.65-.4c.15.23.29.45.42.69l-.35.22-.78.47-.8.47a.21.21,0,0,0-.12.14c-.08.31-.15.61-.23.92a.18.18,0,0,0,0,.06c.46-.25.9-.53,1.35-.79l1.34-.8.41.69-.52.32-.62.36-.65.39-.74.45-.77.46a.21.21,0,0,0-.13.16c-.07.29-.15.58-.22.86v.1l4.06-2.42c.08.14.16.26.23.39s.11.19.17.3c-.42.29-.87.51-1.29.79v0l1.47.38-.2.77-.25-.05-.92-.24-1-.24a.37.37,0,0,0-.32,0c-.24.16-.49.29-.74.44l-.06.05c.52.15,1,.26,1.52.39s1,.26,1.53.39l-.2.78-.46-.11-1-.26-1.38-.35-.89-.23a.25.25,0,0,0-.19,0l-.45.26-.38.23s0,0,.07,0l1.35.35,1.1.28,1.22.3.85.22-.19.78c-.51-.11-1-.25-1.51-.37l.79,1.33c-.22.15-.45.28-.69.42l-.22-.35-.47-.79-.49-.83a.18.18,0,0,0-.08-.07l-1-.26,0,0,1.59,2.66a3,3,0,0,1-.69.43c-.08-.12-.15-.24-.22-.36l-.36-.6-.38-.64-.55-.92-.4-.69a.45.45,0,0,0-.32-.25,6.3,6.3,0,0,1-.75-.18l-.12,0a1.21,1.21,0,0,0,.18.36c.12.22.25.43.38.64l.36.59.27.46a1.32,1.32,0,0,0,.12.2l.49.85.54.88.07.12-.67.4c-.29-.41-.51-.86-.81-1.3-.09.26-.13.5-.2.74s-.12.49-.18.75l-.79-.19.06-.25.3-1.17c.06-.25.12-.5.19-.75a.32.32,0,0,0,0-.25l-.42-.71-.09-.1c-.15.51-.26,1-.39,1.51s-.24,1-.37,1.5a5.19,5.19,0,0,1-.78-.18,2.14,2.14,0,0,1,.06-.27c.14-.58.28-1.16.43-1.73s.25-1,.38-1.48a2.8,2.8,0,0,1,.06-.28.19.19,0,0,0,0-.18c-.16-.28-.33-.55-.5-.84a1,1,0,0,0-.12.35l-.3,1.22c-.12.5-.25,1-.38,1.49l-.27,1.14c0,.13-.07.25-.11.39l-.78-.19c.1-.49.24-1,.33-1.45-.45.2-.85.49-1.3.72l-.41-.69.08-.06.72-.43.67-.39.52-.32a.18.18,0,0,0,0-.07c.08-.29.15-.58.22-.87,0,0,0-.05,0-.1l-.19.08-1,.61-.91.55-.5.3h-.06a5.83,5.83,0,0,1-.4-.7l.3-.18.75-.45.61-.37c.39-.23.78-.46,1.16-.7l.43-.24a.28.28,0,0,0,.17-.2l.21-.87s0,0,0,0l-.1,0-.62.37-.9.54-.94.57-.63.37-.77.46s0,0-.09,0l-.41-.69,1.31-.79a5.87,5.87,0,0,0-.74-.2l-.75-.2.21-.79.65.16,1.44.36.06,0a.28.28,0,0,0,.28,0l.73-.44,0,0s-.07-.05-.1-.05l-1-.25-.84-.22-.85-.21-.22-.07.18-.76h.12l1.47.37,1.06.27,1.1.28a.28.28,0,0,0,.22,0l.83-.51-.39-.11-1.24-.31-1.62-.4L103.3,241c-.09,0-.1,0-.08-.14s.11-.44.17-.68l1.46.36,0,0Zm3.38,4.06a3.15,3.15,0,0,0,.27.45.34.34,0,0,1,0,.32c0,.07,0,.13,0,.19s-.09.21,0,.33l.57.15a.19.19,0,0,1,.14.1c0,.08.09.16.14.24s.11.18.17.27a4.23,4.23,0,0,0,.42-.25.39.39,0,0,1,.39-.05l.46.11c.05-.2.11-.39.15-.58a.19.19,0,0,1,.1-.14l.37-.22.15-.11c-.1-.17-.19-.32-.29-.47a.27.27,0,0,1,0-.21c0-.16.08-.32.12-.48a.41.41,0,0,0,0-.11,2.4,2.4,0,0,0-.44-.12.41.41,0,0,1-.34-.24.26.26,0,0,0,0-.09c-.06-.11-.13-.21-.2-.32l-.3.18c-.28.18-.28.18-.55.12l-.08,0-.36-.09a.22.22,0,0,1,0,.08c0,.15-.07.31-.11.46a.25.25,0,0,1-.14.2.75.75,0,0,0-.15.09Z"/><path class="cls-3" d="M109.69,244.59a2,2,0,0,1-.28-.06.35.35,0,0,0-.34.06l-.2.12a1.25,1.25,0,0,0-.09-.12,1.62,1.62,0,0,1-.1-.18.19.19,0,0,0-.16-.1l-.32-.1.09-.36a.24.24,0,0,0,0-.18,3.18,3.18,0,0,1-.17-.27l.38-.25.11-.42a1.83,1.83,0,0,1,.25.06.32.32,0,0,0,.35-.06l.23-.12.08.15a.45.45,0,0,0,.4.3l.16.05a1.09,1.09,0,0,1-.05.26.33.33,0,0,0,.07.35,1.17,1.17,0,0,1,.12.2l-.22.14a.31.31,0,0,0-.2.23A1.84,1.84,0,0,1,109.69,244.59Z"/><path class="cls-4" d="M227.59,59.2A86.6,86.6,0,0,0,89.49,84.94L86,92.4,33.66,235.86A20.06,20.06,0,0,0,36,254.51a20.42,20.42,0,0,0,16.71,8.8h0a20.32,20.32,0,0,0,8.08-1.68l35.36-15a2.27,2.27,0,0,1,3,1.26v0a10.23,10.23,0,0,0,13.4,5.33L200,215.65a10.56,10.56,0,0,0,6.47-10.47,10,10,0,0,0-.33-1.86,4.29,4.29,0,0,1,2.08-5h0A86.6,86.6,0,0,0,227.59,59.2Z"/></g><g id="background"><path class="cls-5" d="M204.24,190.81l-146.81,63a11.86,11.86,0,0,1-15.8-15L97.18,88.56h0A78,78,0,1,1,204.25,190.82Z"/><path class="cls-3" d="M216.05,179.46a2.75,2.75,0,0,0-3.48-1c-5.21,3-6.38,4.29-13.34-1.67-5-4.22-10.68-9.18-17.88-10.67-7.7-1.48-14.4,2-18.62,6.72a18.72,18.72,0,0,0-3.73-.25h-.25a29.73,29.73,0,0,0-9.18,1.49,56.73,56.73,0,0,0-9.44-13.15,14.13,14.13,0,0,0-6.22-26.82,13.91,13.91,0,0,0-13.66,10.94,54.66,54.66,0,0,0-7.2-3,52.84,52.84,0,0,1,3.72-5c3.73-4,5-8.69,3.47-13.16a8.42,8.42,0,0,0-1.49-3,20.13,20.13,0,0,0,.24-15.64,28.51,28.51,0,0,0,5.21-10.68,2.44,2.44,0,0,0-4.72-1.24,21.09,21.09,0,0,1-3.22,7.2,10.17,10.17,0,0,0-6.46-4c-7.7-.74-11.42,2.49-12.41,6a7.35,7.35,0,0,0,3.48,8.44c3,1.74,6.7,1.74,10.43.24a14.67,14.67,0,0,0,3.72-2.23,16,16,0,0,1,0,7.69,18.18,18.18,0,0,0-5-2.23c-4-.74-7.7.25-10.18,3.23a7.13,7.13,0,0,0-1.49,7,8.54,8.54,0,0,0,6.46,5.46c2.23.49,6.46.24,10.67-4.48.75,2.73-.24,5.47-2.48,7.95a39.1,39.1,0,0,0-5.21,7,46,46,0,0,0-5.46-.49,18.72,18.72,0,0,0-12.91,4.72A14.66,14.66,0,0,0,86,150.54L51,236.46a6.1,6.1,0,0,0,.5,5.47,5.39,5.39,0,0,0,4.72,2.48,7.18,7.18,0,0,0,2.23-.5L111.6,222l32.52-13.42a14.76,14.76,0,0,0,5.71-3.48c6-6,6.2-15.89,1.73-26.57a22.27,22.27,0,0,1,6.95-1h.75c-3.48,6.71-2.73,13.91,1.49,18.87a10.88,10.88,0,0,0,8.2,3.72,10.62,10.62,0,0,0,6.71-2.48c4-3.48,6-10.19.48-17.14a20,20,0,0,0-8.19-6.2,14,14,0,0,1,12.16-3.23c6,1.23,10.93,5.45,15.65,9.42,6.71,5.71,10.61,6.89,19.05,2.17a2.13,2.13,0,0,0,1.24-3.23ZM109.56,106.82a6.28,6.28,0,0,1-6,0,2.47,2.47,0,0,1-1.24-2.73c.49-1.24,2-2.48,5.71-2.48h1.49c1,0,2.48,1,3.72,2.72a10.78,10.78,0,0,1-3.72,2.49Zm3,15.64c-2,2.49-4.22,3.73-6.2,3.23a3.55,3.55,0,0,1-2.73-2.23,1.94,1.94,0,0,1,.49-2,4.8,4.8,0,0,1,4-1.74,3.17,3.17,0,0,1,1.5.25,7.82,7.82,0,0,1,3.72,2c-.5,0-.75.25-.75.5Zm21.61,16.63a9.1,9.1,0,0,1,1.26,18.12c-.5,0-.75.25-1.25.25a4.32,4.32,0,0,1-1.73-.24h-.5c-.5,0-.75-.25-1.24-.5-.25,0-.25-.25-.5-.25-.25-.25-.74-.25-1-.5s-.5-.24-.5-.49c-.25-.25-.5-.25-.75-.5l-.74-.74c0-.25-.25-.25-.25-.5-.25-.5-.5-.75-.74-1.24a12.23,12.23,0,0,1-1-3.23v-.74a9,9,0,0,1,8.93-9.44Zm-28.52,56.13c.24.25.49.5.74.5,1,.74,2,1.73,3,2.48l.5.49c1,.75,1.74,1.24,2.73,2,.25.25.5.25.5.5,1,.74,2,1.24,3,2,.25.25.5.25.74.5,1,.49,2,1.24,3,1.73H120c1,.5,2,1,3.23,1.49a.24.24,0,0,1,.25.25c-21.85-2.47-38.74-14.38-43.72-26.79l2.48-6.21c3.23,4.71,8,8.44,13.91,11.41a86,86,0,0,0,6.47,7.45,22.85,22.85,0,0,1,3,2.23Zm5,22.1c-10.18-1.24-32.78-5.7-38-20.1L77.06,186c8.45,14.65,27.83,23.58,47,25.81ZM92,225c-9.19-.74-20.61-4.21-24.59-15.13l2.73-6.46c6.46,10.42,20.12,15.14,31.79,17.61Zm-16.63,6.71c-7.7,0-13.16-3.22-14.16-6.69l3.72-8.94c3.73,6.2,9.94,10.17,18.38,12.4Zm14.37-56.61a24.47,24.47,0,0,1-5.21-7L86,164.69a44.18,44.18,0,0,0,3.73,10.43Zm-33,64.32a.73.73,0,0,1-1-.25c-.25-.24,0-.74,0-.74l3.22-7.7a18.45,18.45,0,0,0,7.7,4.71Zm89.87-37.78a10.85,10.85,0,0,1-4,2.48,18.06,18.06,0,0,1-5.46.75c-8.2,0-18.38-4.71-27.32-12.4-.25-.25-.75-.5-1-1-1-.74-1.74-1.73-2.73-2.48l-2.48-2.48c-.25-.25-.5-.74-.75-1a11.2,11.2,0,0,1-1.49-1.74,4.49,4.49,0,0,0-1-1.24c-.5-.5-.75-1-1.24-1.49-.25-.5-.5-.75-.75-1.24s-.75-1-1-1.49-.5-.75-.75-1.24a5.94,5.94,0,0,1-1-1.74c-.25-.25-.25-.5-.5-.74-.5-1-1-1.74-1.49-2.73a.87.87,0,0,0-.25-.5c-.25-.75-.75-1.49-1-2.24,0-.24-.24-.49-.24-.74-.25-.75-.5-1.24-.75-2,0-.24-.25-.49-.25-.74a7.67,7.67,0,0,1-.5-2c0-.25,0-.25-.24-.49-.25-.75-.25-1.49-.5-2.24v-.25A14.86,14.86,0,0,1,90,156v-.25c0-.5.24-1.24.24-1.74,0-.25.25-.5.25-.75a10,10,0,0,1,2.73-4.71c2.23-2.24,5.21-3.24,9.18-3.24a12,12,0,0,1,3,.25,24.76,24.76,0,0,0-2.48,9.44,2.35,2.35,0,0,0,2.49,2.48,2.49,2.49,0,0,0,2.48-2.49,23.75,23.75,0,0,1,2.48-8.69,40.75,40.75,0,0,1,9.69,4.22,16.26,16.26,0,0,0,3,6.7l.25.25c.49.5.74,1,1.24,1.24.25,0,.25.25.5.25a5,5,0,0,0,1.49,1,.87.87,0,0,1,.49.25,12.61,12.61,0,0,0,1.74.74.87.87,0,0,1,.5.25,5.77,5.77,0,0,0,2,.5h.49c.75,0,1.49.24,2.24.24h.74a55.94,55.94,0,0,1,9.94,13.66,41.51,41.51,0,0,0-16.38,13.16,2.49,2.49,0,0,0,4,3,40.73,40.73,0,0,1,14.64-11.68c4,9.19,4.23,17.38-.24,21.61Zm26.06-17.89c3.73,4.71,2.49,8.69.26,10.42-2,1.74-5.46,2.24-8.2-1-3.72-4.22-2.73-9.94-.5-13.91.25-.25.25-.5.5-.74a15.9,15.9,0,0,1,7.94,5.21ZM196,127.14a8.69,8.69,0,1,0-8.7-8.69,8.65,8.65,0,0,0,8.7,8.69Zm0-12.42a3.73,3.73,0,1,1-3.72,3.73,3.66,3.66,0,0,1,3.72-3.73Zm-61.06,56.9a6.7,6.7,0,1,0-6.7,6.7A6.82,6.82,0,0,0,134.91,171.62Zm-8.44,0a1.74,1.74,0,1,1,1.74,1.74A1.88,1.88,0,0,1,126.47,171.62ZM141.84,109l8.44,4.46,1,9.44a2.16,2.16,0,0,0,1.49,2c.25,0,.5.25.75.25a2.25,2.25,0,0,0,1.73-.74L162.2,118l9.44,2a2.36,2.36,0,0,0,2.48-1,2.27,2.27,0,0,0,.25-2.48l-4-8.69,4.72-8.2a2.69,2.69,0,0,0,0-2.73,2.36,2.36,0,0,0-2.48-1l-9.43,1.5-6.46-7.2a2.42,2.42,0,0,0-4.22,1.24l-1.74,9.44-8.69,4a2.85,2.85,0,0,0-1.49,2.23,2.23,2.23,0,0,0,1.25,2ZM154,104.81a2.61,2.61,0,0,0,1.49-1.74l1-5.71,4,4.22a2.27,2.27,0,0,0,2.23.74l5.71-.74-3,5a1.86,1.86,0,0,0,0,2.24l2.48,5.21-5.71-1a2,2,0,0,0-2.23.75l-4.22,4-.5-5.71a2.52,2.52,0,0,0-1.25-2l-5.21-2.73Zm11.94,31a2.74,2.74,0,0,0-2.49.5,2,2,0,0,0-.49,2.49l2,5.95-3.73,5a2.67,2.67,0,0,0-.24,2.73,3.58,3.58,0,0,0,2.23,1.49h6.21l3.48,5.21a2.25,2.25,0,0,0,2,1h.24a2.39,2.39,0,0,0,2-1.73l2-6,6-1.74a2.4,2.4,0,0,0,1.74-2,2.36,2.36,0,0,0-1-2.49l-5-3.72.24-6.21a2.62,2.62,0,0,0-1.24-2.23,2.74,2.74,0,0,0-2.73.25l-5,3.73Zm7.7,6.7,2-1.49v2.49a2.24,2.24,0,0,0,1,2l2,1.49-2.48.75a2.46,2.46,0,0,0-1.74,1.74l-.74,2.48-1.49-2a2.26,2.26,0,0,0-2-1h-2.48l1.49-2a2.55,2.55,0,0,0,.49-2.24l-.74-2.48,2.48.74a2.38,2.38,0,0,0,2.24-.5Z"/></g><g id="words"><g class="cls-6"><path d="M108.07,79.44a.89.89,0,0,1-.42-.58l-3.87-16.18a.35.35,0,0,1,.27-.44l1.36-.32a.32.32,0,0,1,.27,0,.33.33,0,0,1,.16.22l3.62,15.16,6.35-1.52a.39.39,0,0,1,.28,0,.42.42,0,0,1,.16.23l.29,1.23a.35.35,0,0,1,0,.28.39.39,0,0,1-.23.16l-7.5,1.79A.91.91,0,0,1,108.07,79.44Z"/><path d="M120,76.6a.94.94,0,0,1-.41-.58l-3.74-15.63a.93.93,0,0,1,.11-.71.91.91,0,0,1,.58-.41l8.25-2a.38.38,0,0,1,.28,0,.38.38,0,0,1,.16.23l.29,1.23a.35.35,0,0,1,0,.28.37.37,0,0,1-.22.16l-7.11,1.69,1.29,5.37L124.82,65a.35.35,0,0,1,.43.27l.28,1.17a.33.33,0,0,1,0,.28.33.33,0,0,1-.22.16l-5.42,1.3,1.51,6.32,7.1-1.7a.36.36,0,0,1,.27,0,.36.36,0,0,1,.17.23l.29,1.23a.36.36,0,0,1,0,.27.32.32,0,0,1-.23.16l-8.25,2A.92.92,0,0,1,120,76.6Z"/><path d="M136.53,72.81a.32.32,0,0,1-.16-.23l-3.63-15.15-4.34,1a.32.32,0,0,1-.27,0,.3.3,0,0,1-.16-.22l-.3-1.23a.35.35,0,0,1,.27-.44L138.68,54a.35.35,0,0,1,.28,0,.37.37,0,0,1,.16.22l.29,1.23a.38.38,0,0,1,0,.28.39.39,0,0,1-.23.16l-4.34,1,3.62,15.15a.35.35,0,0,1,0,.28.37.37,0,0,1-.22.16l-1.36.32A.32.32,0,0,1,136.53,72.81Z"/><path d="M142.94,58.93a.53.53,0,0,1-.15-.43V53.25a.29.29,0,0,1,.09-.22.4.4,0,0,1,.2-.11l1.71-.41a.47.47,0,0,1,.43.09.42.42,0,0,1,.14.41l-1.06,5.8-.93.22A.45.45,0,0,1,142.94,58.93Z"/><path d="M154.45,68.61a7.24,7.24,0,0,1-2.38-.47.25.25,0,0,1-.18-.14.38.38,0,0,1,0-.26l.31-1.26a.39.39,0,0,1,.29-.31.41.41,0,0,1,.22,0,7.46,7.46,0,0,0,3.94.28A4.26,4.26,0,0,0,159,65a2.74,2.74,0,0,0,.5-2.44,2.38,2.38,0,0,0-.8-1.37,3.7,3.7,0,0,0-1.35-.66c-.51-.13-1.2-.25-2.08-.38a23.15,23.15,0,0,1-2.81-.51,5.06,5.06,0,0,1-2-1.1,4.41,4.41,0,0,1-1.31-2.36,4.81,4.81,0,0,1,.11-2.83,4.65,4.65,0,0,1,1.58-2.09,7.22,7.22,0,0,1,2.59-1.17,8.25,8.25,0,0,1,2.42-.22,7.75,7.75,0,0,1,2.24.43.29.29,0,0,1,.19.16.36.36,0,0,1,0,.27l-.3,1.16a.39.39,0,0,1-.18.25.35.35,0,0,1-.32,0,6.58,6.58,0,0,0-3.6-.2,3.78,3.78,0,0,0-2.26,1.33,2.57,2.57,0,0,0-.43,2.28,2.45,2.45,0,0,0,.81,1.38,3.34,3.34,0,0,0,1.34.68,19,19,0,0,0,2.09.37c.17,0,.79.12,1.85.25a5.23,5.23,0,0,1,2.74,1.13,4.4,4.4,0,0,1,1.51,2.5,5,5,0,0,1-.09,2.89A4.92,4.92,0,0,1,159.87,67,7.12,7.12,0,0,1,157,68.36,9.66,9.66,0,0,1,154.45,68.61Z"/><path d="M100,99a.33.33,0,0,1-.16-.22l-2.27-9.5-2.77.66a.36.36,0,0,1-.27,0,.39.39,0,0,1-.16-.23l-.29-1.23a.32.32,0,0,1,0-.27.33.33,0,0,1,.22-.16l7.54-1.8a.32.32,0,0,1,.27,0,.33.33,0,0,1,.16.22l.3,1.24a.36.36,0,0,1,0,.27.39.39,0,0,1-.23.16l-2.76.66,2.27,9.5a.36.36,0,0,1,0,.27.39.39,0,0,1-.23.16l-1.31.31A.36.36,0,0,1,100,99Z"/><path d="M107.06,97.28a.36.36,0,0,1-.16-.22L104.25,86a.37.37,0,0,1,0-.27.34.34,0,0,1,.22-.15l1.32-.32a.36.36,0,0,1,.27,0,.33.33,0,0,1,.16.22l1.06,4.45,4.88-1.17-1.07-4.44a.36.36,0,0,1,0-.27.35.35,0,0,1,.23-.16l1.31-.32a.32.32,0,0,1,.27,0,.3.3,0,0,1,.16.22l2.65,11.08a.36.36,0,0,1,0,.27.37.37,0,0,1-.22.16l-1.32.31a.32.32,0,0,1-.27,0,.37.37,0,0,1-.16-.22l-1.13-4.74-4.88,1.16,1.14,4.74a.39.39,0,0,1,0,.28.34.34,0,0,1-.23.15l-1.31.32A.36.36,0,0,1,107.06,97.28Z"/><path d="M118.57,94.53a.36.36,0,0,1-.16-.22l-2.56-10.72a.73.73,0,0,1,.08-.56.69.69,0,0,1,.46-.32l3.07-.74a3.72,3.72,0,0,1,2,0,3.66,3.66,0,0,1,1.65,1,3.63,3.63,0,0,1,.72,4,3.68,3.68,0,0,1-1.54,1.72L126,92.25a.43.43,0,0,1,.13.21.36.36,0,0,1-.05.27.41.41,0,0,1-.25.17l-1.35.32a.47.47,0,0,1-.48-.13l-3.79-3.74-.81.19,1,4.28a.36.36,0,0,1,0,.27.32.32,0,0,1-.22.16l-1.32.32A.36.36,0,0,1,118.57,94.53Zm2.05-7.28a1.75,1.75,0,0,0,1.13-.77,1.61,1.61,0,0,0,.2-1.31,1.68,1.68,0,0,0-.77-1.1,1.76,1.76,0,0,0-1.36-.18l-1.68.4.8,3.36Z"/><path d="M130.06,91.49a4.51,4.51,0,0,1-2-1.2,4.42,4.42,0,0,1-1.1-2l-.84-3.51a4.35,4.35,0,0,1,.06-2.32,4.5,4.5,0,0,1,1.21-2,4.41,4.41,0,0,1,2.06-1.11,4.35,4.35,0,0,1,2.32.06,4.48,4.48,0,0,1,2,1.21,4.35,4.35,0,0,1,1.11,2l.84,3.5a4.48,4.48,0,0,1-1.28,4.29,4.43,4.43,0,0,1-2.05,1.11A4.49,4.49,0,0,1,130.06,91.49ZM133,89a2.46,2.46,0,0,0,.65-1.1,2.42,2.42,0,0,0,0-1.28l-.84-3.5a2.52,2.52,0,0,0-1.69-1.81,2.31,2.31,0,0,0-2.34.56,2.69,2.69,0,0,0-.65,1.09,2.53,2.53,0,0,0,0,1.28l.84,3.51a2.41,2.41,0,0,0,.61,1.13,2.48,2.48,0,0,0,1.07.68,2.31,2.31,0,0,0,1.25,0A2.24,2.24,0,0,0,133,89Z"/><path d="M141.6,89.07a.41.41,0,0,1-.2-.19l-5.86-10.3a.19.19,0,0,1,0-.09.33.33,0,0,1,.27-.41l1.28-.31a.37.37,0,0,1,.29,0,.39.39,0,0,1,.2.18L142,85.86l.34-9a.38.38,0,0,1,.09-.25.45.45,0,0,1,.24-.16l1.29-.3a.39.39,0,0,1,.28,0,.46.46,0,0,1,.2.19l4.48,7.88.33-9a.44.44,0,0,1,.34-.41l1.35-.32a.31.31,0,0,1,.3.06.34.34,0,0,1,.11.29l-.64,11.85a.37.37,0,0,1-.11.27.44.44,0,0,1-.25.15l-1.56.37a.37.37,0,0,1-.29,0,.39.39,0,0,1-.2-.18l-4.15-7.47-.36,8.55a.35.35,0,0,1-.1.26.47.47,0,0,1-.25.15l-1.57.38A.45.45,0,0,1,141.6,89.07Z"/><path d="M157.47,85.45a.42.42,0,0,1-.18-.25.31.31,0,0,1,0-.13l.94-11.84a.53.53,0,0,1,.43-.48l1.28-.31a.59.59,0,0,1,.35,0,.49.49,0,0,1,.25.22l6.2,10.13a.46.46,0,0,1,0,.42.39.39,0,0,1-.25.18l-1.18.28a.52.52,0,0,1-.35,0,.56.56,0,0,1-.26-.22l-1.3-2.2-3.86.92-.17,2.55a.56.56,0,0,1-.13.32.52.52,0,0,1-.29.18l-1.15.28A.47.47,0,0,1,157.47,85.45Zm4.89-5.93L160,75.45l-.29,4.71Z"/><path class="cls-7" d="M91,121.12a5.69,5.69,0,0,1-2.44-1.53A5.51,5.51,0,0,1,87.14,117l-1.06-4.44a5.64,5.64,0,0,1,1.56-5.39,5.24,5.24,0,0,1,2.52-1.39,6.31,6.31,0,0,1,2.48-.1,5.12,5.12,0,0,1,2.2.92.51.51,0,0,1,.21.32.71.71,0,0,1-.07.46l-.68,1.17a.51.51,0,0,1-.3.25.53.53,0,0,1-.42-.1,3.4,3.4,0,0,0-2.82-.49,2.75,2.75,0,0,0-1.32.76,3.09,3.09,0,0,0-.79,1.37,3.18,3.18,0,0,0,0,1.62l1.06,4.43a3.16,3.16,0,0,0,.76,1.43,3.24,3.24,0,0,0,1.32.87,2.63,2.63,0,0,0,1.52.07,3.41,3.41,0,0,0,2.3-1.71.48.48,0,0,1,.31-.27.48.48,0,0,1,.39.08l1.15.74a.57.57,0,0,1,.28.37.58.58,0,0,1,0,.36,5.63,5.63,0,0,1-1.57,1.83,6.08,6.08,0,0,1-2.26,1A5.28,5.28,0,0,1,91,121.12Z"/><path class="cls-7" d="M102.91,118.27a5.68,5.68,0,0,1-2.49-1.52,5.53,5.53,0,0,1-1.4-2.58L98,109.73A5.6,5.6,0,0,1,98,106.8a5.75,5.75,0,0,1,1.54-2.48,5.69,5.69,0,0,1,5.53-1.32,5.68,5.68,0,0,1,2.49,1.52,5.53,5.53,0,0,1,1.4,2.58l1.06,4.43a5.63,5.63,0,0,1-.08,2.94,5.72,5.72,0,0,1-1.54,2.47,5.47,5.47,0,0,1-2.59,1.4A5.53,5.53,0,0,1,102.91,118.27Zm3.74-3.13a3.14,3.14,0,0,0,.82-1.38,3.08,3.08,0,0,0,0-1.62l-1.06-4.44a3.14,3.14,0,0,0-.77-1.42,3.32,3.32,0,0,0-1.36-.86,2.84,2.84,0,0,0-1.58-.06,2.8,2.8,0,0,0-1.38.77,3.13,3.13,0,0,0-.82,1.38,3.18,3.18,0,0,0,0,1.62l1.06,4.43a3.09,3.09,0,0,0,.77,1.42,3.24,3.24,0,0,0,1.36.87,3,3,0,0,0,1.58.06A2.87,2.87,0,0,0,106.65,115.14Z"/><path class="cls-7" d="M116.73,115a5.6,5.6,0,0,1-3.89-4.09l-1.06-4.44a5.59,5.59,0,0,1,.08-2.93A5.69,5.69,0,0,1,113.4,101a5.47,5.47,0,0,1,2.59-1.4,5.53,5.53,0,0,1,2.94.08,5.59,5.59,0,0,1,3.89,4.1l1.06,4.43a5.49,5.49,0,0,1-.09,2.93,5.69,5.69,0,0,1-7.06,3.8Zm3.74-3.12a3.22,3.22,0,0,0,.82-1.39,3.14,3.14,0,0,0,0-1.61l-1.06-4.44a3.14,3.14,0,0,0-.77-1.42,3.22,3.22,0,0,0-1.36-.86,3,3,0,0,0-3,.7,3.12,3.12,0,0,0-.82,1.39,3,3,0,0,0-.05,1.61l1.06,4.44a3.2,3.2,0,0,0,2.13,2.28,2.89,2.89,0,0,0,3-.7Z"/><path class="cls-7" d="M128.15,112.6a.47.47,0,0,1-.2-.29l-3.24-13.54a.94.94,0,0,1,.11-.7.9.9,0,0,1,.58-.41l3.89-.93a4.7,4.7,0,0,1,2.47,0A4.75,4.75,0,0,1,133.84,98a4.53,4.53,0,0,1,1.17,2.12,4.41,4.41,0,0,1-.26,2.89,4.65,4.65,0,0,1-1.94,2.17l4.73,4.53a.52.52,0,0,1,.15.27.41.41,0,0,1-.06.34.5.5,0,0,1-.31.21l-1.71.41a.63.63,0,0,1-.61-.17l-4.78-4.73-1,.25,1.29,5.41a.44.44,0,0,1-.33.54l-1.67.4A.45.45,0,0,1,128.15,112.6Zm2.6-9.2a2.28,2.28,0,0,0,1.43-1,2.08,2.08,0,0,0,.25-1.66,2.1,2.1,0,0,0-1-1.39,2.18,2.18,0,0,0-1.71-.23l-2.13.51,1,4.24Z"/><path class="cls-7" d="M140.6,109.48a.86.86,0,0,1-.41-.57l-3.13-13.09a.92.92,0,0,1,.68-1.11l4.08-1a5.84,5.84,0,0,1,5.67,1.68A6,6,0,0,1,149,98.17l.78,3.26a5.89,5.89,0,0,1-.06,3.12,5.79,5.79,0,0,1-4.3,4.06l-4.08,1A.88.88,0,0,1,140.6,109.48Zm4.09-3.28a3.24,3.24,0,0,0,1.54-.84,3.35,3.35,0,0,0,.92-1.5,3.25,3.25,0,0,0,0-1.78l-.81-3.37a3.27,3.27,0,0,0-.84-1.55,3.56,3.56,0,0,0-1.49-.92,3.42,3.42,0,0,0-1.77,0l-2.33.56,2.4,10Z"/><path class="cls-7" d="M153.13,106.63a.44.44,0,0,1-.2-.28l-.35-1.44a.44.44,0,0,1,0-.34.43.43,0,0,1,.29-.2l1.77-.42-2.46-10.27-1.77.43a.45.45,0,0,1-.34,0,.47.47,0,0,1-.2-.29l-.34-1.43a.44.44,0,0,1,0-.34.41.41,0,0,1,.28-.2L156,90.35a.4.4,0,0,1,.34,0,.43.43,0,0,1,.2.29l.35,1.43a.47.47,0,0,1-.06.35.41.41,0,0,1-.28.19l-1.77.43,2.46,10.26,1.76-.42a.43.43,0,0,1,.35,0,.42.42,0,0,1,.2.28l.34,1.43a.47.47,0,0,1,0,.35.45.45,0,0,1-.28.2l-6.08,1.45A.44.44,0,0,1,153.13,106.63Z"/><path class="cls-7" d="M162.93,104.29a.47.47,0,0,1-.2-.29l-3.31-13.84a.61.61,0,0,1,.08-.47.63.63,0,0,1,.38-.28l1.71-.4a.67.67,0,0,1,.64.17l7,7.26L170.66,98l-2.41-10.07a.44.44,0,0,1,.05-.34.41.41,0,0,1,.28-.2l1.5-.36a.44.44,0,0,1,.34,0,.39.39,0,0,1,.2.28l3.31,13.84a.6.6,0,0,1-.08.47.57.57,0,0,1-.38.28l-1.73.41a.63.63,0,0,1-.63-.18l-7.25-7.5-1.15-1.23,2.39,10a.42.42,0,0,1,0,.35.5.5,0,0,1-.29.19l-1.5.36A.45.45,0,0,1,162.93,104.29Z"/><path class="cls-7" d="M176.6,101a.49.49,0,0,1-.23-.31,1.49,1.49,0,0,1,0-.17l1.2-15a.62.62,0,0,1,.16-.39.71.71,0,0,1,.38-.23l1.62-.38a.73.73,0,0,1,.44,0,.67.67,0,0,1,.32.28l7.83,12.8a.91.91,0,0,1,.06.16.5.5,0,0,1-.06.38.51.51,0,0,1-.32.22l-1.5.36a.66.66,0,0,1-.44,0,.68.68,0,0,1-.32-.28l-1.66-2.78-4.87,1.17-.22,3.22a.66.66,0,0,1-.15.4.68.68,0,0,1-.38.23l-1.45.35A.58.58,0,0,1,176.6,101Zm6.17-7.49-3-5.16-.38,6Z"/><path class="cls-7" d="M192.63,97.19a.47.47,0,0,1-.2-.28l-2.87-12-3.5.83a.41.41,0,0,1-.34,0,.45.45,0,0,1-.2-.28l-.37-1.56a.44.44,0,0,1,0-.34.41.41,0,0,1,.28-.2L195,81a.47.47,0,0,1,.35,0,.43.43,0,0,1,.19.28l.38,1.56a.44.44,0,0,1-.33.54l-3.5.84,2.87,12a.45.45,0,0,1-.05.34.47.47,0,0,1-.28.2l-1.67.4A.45.45,0,0,1,192.63,97.19Z"/><path class="cls-7" d="M201.14,95.15a.42.42,0,0,1-.2-.28l-.34-1.44a.45.45,0,0,1,.05-.34.45.45,0,0,1,.28-.2l1.77-.42-2.45-10.26-1.77.42a.4.4,0,0,1-.34,0,.41.41,0,0,1-.2-.28l-.35-1.44a.45.45,0,0,1,0-.34.47.47,0,0,1,.29-.2L204,78.87a.47.47,0,0,1,.35,0,.45.45,0,0,1,.2.28l.34,1.44a.44.44,0,0,1-.33.54l-1.77.42,2.45,10.26,1.77-.42a.45.45,0,0,1,.34,0,.47.47,0,0,1,.2.28l.34,1.44a.41.41,0,0,1,0,.34.42.42,0,0,1-.28.2l-6.08,1.45A.41.41,0,0,1,201.14,95.15Z"/><path class="cls-7" d="M212.71,92a5.61,5.61,0,0,1-3.88-4.09l-1.06-4.44a5.49,5.49,0,0,1,.08-2.93,5.69,5.69,0,0,1,9.55-2.29,5.52,5.52,0,0,1,1.4,2.59l1.06,4.43a5.49,5.49,0,0,1-.08,2.93,5.69,5.69,0,0,1-7.07,3.8Zm3.75-3.12a3.22,3.22,0,0,0,.82-1.39,3,3,0,0,0,0-1.61l-1.06-4.44a3,3,0,0,0-.77-1.42,3.1,3.1,0,0,0-1.36-.86,2.8,2.8,0,0,0-1.57-.06,2.86,2.86,0,0,0-1.38.76,3.24,3.24,0,0,0-.83,1.39,3.18,3.18,0,0,0,0,1.62l1.06,4.43a3.2,3.2,0,0,0,2.13,2.28,2.93,2.93,0,0,0,1.58.07A3.06,3.06,0,0,0,216.46,88.9Z"/><path class="cls-7" d="M224.14,89.66a.47.47,0,0,1-.2-.28l-3.31-13.85a.61.61,0,0,1,.08-.47.62.62,0,0,1,.38-.27l1.71-.41a.63.63,0,0,1,.63.18l7,7.25,1.42,1.51-2.41-10.07a.44.44,0,0,1,0-.34.41.41,0,0,1,.28-.2l1.5-.36a.45.45,0,0,1,.34.05.41.41,0,0,1,.2.28l3.31,13.84a.59.59,0,0,1-.08.47.57.57,0,0,1-.38.28l-1.73.41a.63.63,0,0,1-.63-.18L225.06,80l-1.14-1.22,2.39,10a.38.38,0,0,1-.05.35.43.43,0,0,1-.28.19l-1.5.36A.45.45,0,0,1,224.14,89.66Z"/><path class="cls-7" d="M84.27,171.86a1.13,1.13,0,0,1-.51-.72L75.41,136.2a2.35,2.35,0,0,1,1.76-2.86l9.55-2.28a12.6,12.6,0,0,1,6.65.17A12.84,12.84,0,0,1,99,134.65a12.17,12.17,0,0,1,3.16,5.76A12.32,12.32,0,0,1,102,147a12.92,12.92,0,0,1-3.48,5.6,12.62,12.62,0,0,1-5.86,3.16l-5.31,1.27,3,12.5a1.14,1.14,0,0,1-.86,1.4l-4.29,1A1.1,1.1,0,0,1,84.27,171.86Zm6.62-22.17a6.37,6.37,0,0,0-3-12.4l-5.05,1.21,3,12.4Z"/><path class="cls-7" d="M109.71,165.76a1.16,1.16,0,0,1-.59-.8,1.51,1.51,0,0,1-.05-.44l3.09-38.58a1.6,1.6,0,0,1,.41-1,1.86,1.86,0,0,1,1-.58l4.19-1a1.78,1.78,0,0,1,1.12.08,1.54,1.54,0,0,1,.82.71l20.2,33a1.42,1.42,0,0,1,.16.42,1.18,1.18,0,0,1-.16,1,1.4,1.4,0,0,1-.83.57l-3.87.92a1.69,1.69,0,0,1-1.13-.1,1.76,1.76,0,0,1-.83-.74L129,152.05l-12.56,3-.56,8.31a1.79,1.79,0,0,1-.41,1,1.69,1.69,0,0,1-1,.6l-3.76.9A1.35,1.35,0,0,1,109.71,165.76Zm15.91-19.32-7.82-13.28-1,15.38Z"/><path class="cls-7" d="M146.69,157a1.13,1.13,0,0,1-.52-.73l-8.35-34.94a2.35,2.35,0,0,1,1.76-2.85l10-2.4a12.35,12.35,0,0,1,6.39.12,12.11,12.11,0,0,1,5.36,3.2,11.8,11.8,0,0,1,2.35,12.91,12,12,0,0,1-5,5.6l12.2,11.66a1.52,1.52,0,0,1,.4.7,1.12,1.12,0,0,1-.16.89,1.26,1.26,0,0,1-.81.53l-4.4,1.05a1.59,1.59,0,0,1-1.57-.41L152,140.07l-2.63.63,3.34,14a1.12,1.12,0,0,1-.13.88,1.08,1.08,0,0,1-.73.51l-4.29,1A1.12,1.12,0,0,1,146.69,157Zm6.69-23.73a5.73,5.73,0,0,0,3.69-2.49,5.32,5.32,0,0,0,.65-4.27,5.5,5.5,0,0,0-2.53-3.6,5.68,5.68,0,0,0-4.42-.58l-5.48,1.3,2.62,11Z"/><path class="cls-7" d="M185.81,147.6a1.13,1.13,0,0,1-.52-.73l-7.4-31-9,2.15a1.08,1.08,0,0,1-.88-.13,1.1,1.1,0,0,1-.52-.73l-1-4a1.14,1.14,0,0,1,.86-1.4L192,105.91a1.12,1.12,0,0,1,1.39.86l1,4a1.08,1.08,0,0,1-.13.88,1.11,1.11,0,0,1-.72.52l-9,2.15,7.4,31a1.08,1.08,0,0,1-.13.88,1.06,1.06,0,0,1-.73.51l-4.29,1A1.12,1.12,0,0,1,185.81,147.6Z"/><path class="cls-7" d="M218.71,139.74a1.15,1.15,0,0,1-.52-.73l-3.92-16.42-15.85-16.24a1.09,1.09,0,0,1-.39-.65,1.18,1.18,0,0,1,.18-.92,1.29,1.29,0,0,1,.83-.56l4.45-1.07a1.17,1.17,0,0,1,1.22.33L216,115.38l.1,0,4.65-15.69a1.15,1.15,0,0,1,.93-.84l4.46-1.07a1.35,1.35,0,0,1,1,.13,1.15,1.15,0,0,1,.58.74,1.1,1.1,0,0,1,0,.75L220.81,121l3.93,16.42a1.19,1.19,0,0,1-.13.89,1.14,1.14,0,0,1-.73.51l-4.29,1A1.15,1.15,0,0,1,218.71,139.74Z"/><path class="cls-7" d="M242.24,122.14a1.06,1.06,0,0,1-.51-.72l-5.93-24.8a1.14,1.14,0,0,1,.86-1.4l4.08-1a1.12,1.12,0,0,1,.88.13,1.08,1.08,0,0,1,.51.73l5.93,24.79a1.14,1.14,0,0,1-.86,1.4l-4.08,1A1.08,1.08,0,0,1,242.24,122.14Zm2.43,11.45a4.58,4.58,0,0,1-1.52-6.33,4.5,4.5,0,0,1,2.89-2.05,4.31,4.31,0,0,1,3.42.57,4.59,4.59,0,0,1,1.5,6.28,4.3,4.3,0,0,1-2.79,2.06A4.5,4.5,0,0,1,244.67,133.59Z"/></g></g></svg>